<?xml version="1.0" encoding="UTF-8" standalone="no"?>
<!-- Created with Inkscape (http://www.inkscape.org/) -->

<svg
   xmlns:dc="http://purl.org/dc/elements/1.1/"
   xmlns:cc="http://creativecommons.org/ns#"
   xmlns:rdf="http://www.w3.org/1999/02/22-rdf-syntax-ns#"
   xmlns:svg="http://www.w3.org/2000/svg"
   xmlns="http://www.w3.org/2000/svg"
   version="1.2"
   width="555.21997"
   height="351.67001"
   id="svg9559">
  <defs
     id="defs63" />
  <metadata
     id="metadata3671">
    <rdf:RDF>
      <cc:Work
         rdf:about="">
        <dc:format>image/svg+xml</dc:format>
        <dc:type
           rdf:resource="http://purl.org/dc/dcmitype/StillImage" />
        <dc:title></dc:title>
      </cc:Work>
    </rdf:RDF>
  </metadata>
  <path
     d="m 66.281,200.75326 -1.3125,1.125 -0.375,0.65625 0.6875,1.53125 0.3125,0.8125 0.59375,0.25 0.5,0.6875 -1.375,1.34375 -0.0625,0.375 1.5,0.34375 1.125,1 -0.03125,0.21875 4.21875,1.03125 0.90625,0.1875 0.6875,-7.6875 -0.9375,-0.0312 -3.0625,-0.6875 -1.40625,-0.5 -0.0625,-0.21875 -0.40625,-0.0937 -1.5,-0.34375 z"
     id="06065-losangeles"
     style="font-size:12px;fill:#ff0000;fill-opacity:1;fill-rule:nonzero;stroke:#000000;stroke-width:0.1;stroke-linecap:butt;stroke-linejoin:bevel;stroke-miterlimit:4;stroke-opacity:1;stroke-dasharray:none;marker-start:none" />
  <path
     d="m 73.656,202.62826 -0.6875,7.6875 1.375,0.3125 3.3125,0.71875 2.25,0.5 6.5,1.375 5.3125,1.03125 1.375,0.25 2.125,0.40625 1.3125,-1.53125 0.40625,-1.46875 0.3125,-1.5 0.0625,-0.4375 0.28125,-0.96875 0.28125,-0.53125 0.96875,-1.375 -7.1875,-1.4375 -1.34375,-0.0625 -0.75,0.21875 -5.28125,-1.09375 -7.59375,-1.625 -2.625,-0.4375 -0.40625,-0.0312 z"
     id="06065-sandiego"
     style="font-size:12px;fill:#0000ff;fill-opacity:1;fill-rule:nonzero;stroke:#000000;stroke-width:0.1;stroke-linecap:butt;stroke-linejoin:bevel;stroke-miterlimit:4;stroke-opacity:1;stroke-dasharray:none;marker-start:none" />
  <path
     d="m 31.8095,145.78321 -1.375,2.1875 0,0.15625 0.03125,0.0625 0.0625,0.15625 2.75,-1.90625 -0.0625,0 -1.25,-0.4375 -0.15625,-0.21875 z"
     id="06085-california"
     style="font-size:12px;fill:#ffff00;fill-opacity:1;fill-rule:nonzero;stroke:#000000;stroke-width:0.1;stroke-linecap:butt;stroke-linejoin:bevel;stroke-miterlimit:4;stroke-opacity:1;stroke-dasharray:none;marker-start:none" />
  <path
     d="m 33.90325,146.28321 -0.09375,0.0937 -0.0625,0.0312 -0.375,0.0312 -0.09375,0 -2.75,1.90625 0.1875,0.40625 0.53125,1.0625 0.25,0.375 0.6875,0.625 0.4375,0.3125 0.875,0.90625 1.21875,2 0.0625,0.0937 -0.0625,0.25 0.875,-0.5 0.9375,0.1875 2,0.53125 -0.15625,-0.125 -0.0625,-0.1875 0,-0.0625 0.125,-0.5 0.28125,-0.125 0.1875,-0.34375 0.15625,-0.6875 -0.0625,-0.15625 -1.125,-1 -0.28125,-3.28125 0.03125,-0.6875 0.15625,-0.0625 -3.75,-1.0625 -0.125,-0.0312 z"
     id="06085-elcaminoreal"
     style="font-size:12px;fill:#ff00ff;fill-opacity:1;fill-rule:nonzero;stroke:#000000;stroke-width:0.1;stroke-linecap:butt;stroke-linejoin:bevel;stroke-miterlimit:4;stroke-opacity:1;stroke-dasharray:none;marker-start:none" />
  <flowRoot
     transform="translate(-2.3725938,212.06451)"
     id="flowRoot4028"
     xml:space="preserve"
     style="font-size:4px;font-style:normal;font-weight:normal;line-height:125%;letter-spacing:0px;word-spacing:0px;fill:#000000;fill-opacity:1;stroke:none;font-family:Sans"><flowRegion
       id="flowRegion4030"><rect
         width="14.142136"
         height="6.805903"
         x="8.8388348"
         y="119.46658"
         id="rect4032" /></flowRegion><flowPara
       id="flowPara4034">Califonir</flowPara></flowRoot>  <flowRoot
     transform="translate(-2.3725938,212.06451)"
     id="flowRoot4036"
     xml:space="preserve"
     style="font-size:4px;font-style:normal;font-weight:normal;line-height:125%;letter-spacing:0px;word-spacing:0px;fill:#000000;fill-opacity:1;stroke:none;font-family:Sans"><flowRegion
       id="flowRegion4038"><rect
         width="31.112698"
         height="6.7175145"
         x="8.9272232"
         y="119.55497"
         id="rect4040" /></flowRegion><flowPara
       id="flowPara4042" /></flowRoot>  <g
     transform="translate(65.112593,21.448681)"
     id="g4191">
    <rect
       width="4.7034907"
       height="4.7633343"
       ry="2.1051164"
       x="3.1096451"
       y="119.55206"
       id="rect4026"
       style="color:#000000;fill:#ffff00;fill-opacity:1;fill-rule:nonzero;stroke:#000000;stroke-width:0.23666589;stroke-linecap:butt;stroke-linejoin:bevel;stroke-miterlimit:4;stroke-opacity:1;stroke-dasharray:none;stroke-dashoffset:0;marker:none;visibility:visible;display:inline;overflow:visible;enable-background:accumulate" />
    <flowRoot
       transform="translate(0,0.15669442)"
       id="flowRoot4044"
       xml:space="preserve"
       style="font-size:4px;font-style:normal;font-weight:normal;line-height:125%;letter-spacing:0px;word-spacing:0px;fill:#000000;fill-opacity:1;stroke:none;font-family:Sans"><flowRegion
         id="flowRegion4046"><rect
           width="19.79899"
           height="5.833631"
           x="8.9272232"
           y="119.2898"
           id="rect4048" /></flowRegion><flowPara
         id="flowPara4050">California</flowPara></flowRoot>    <rect
       width="4.7034907"
       height="4.7633343"
       ry="2.1051164"
       x="3.1096451"
       y="126.20031"
       id="rect4026-9"
       style="color:#000000;fill:#ff00ff;fill-opacity:1;fill-rule:nonzero;stroke:#000000;stroke-width:0.23666589;stroke-linecap:butt;stroke-linejoin:bevel;stroke-miterlimit:4;stroke-opacity:1;stroke-dasharray:none;stroke-dashoffset:0;marker:none;visibility:visible;display:inline;overflow:visible;enable-background:accumulate" />
    <flowRoot
       transform="translate(-1.5,0.42994117)"
       id="flowRoot4111"
       xml:space="preserve"
       style="font-size:4px;font-style:normal;font-weight:normal;line-height:125%;letter-spacing:0px;word-spacing:0px;fill:#000000;fill-opacity:1;stroke:none;font-family:Sans"><flowRegion
         id="flowRegion4113"><rect
           width="33.58757"
           height="6.1871843"
           x="10.429825"
           y="125.65376"
           id="rect4115" /></flowRegion><flowPara
         id="flowPara4117">El Camino Real</flowPara></flowRoot>    <rect
       width="4.7034907"
       height="4.7633343"
       ry="2.1051164"
       x="3.1096451"
       y="132.84856"
       id="rect4026-7"
       style="color:#000000;fill:#ff0000;fill-opacity:1;fill-rule:nonzero;stroke:#000000;stroke-width:0.23666589;stroke-linecap:butt;stroke-linejoin:bevel;stroke-miterlimit:4;stroke-opacity:1;stroke-dasharray:none;stroke-dashoffset:0;marker:none;visibility:visible;display:inline;overflow:visible;enable-background:accumulate" />
    <flowRoot
       transform="translate(-2.65625,-1.090756)"
       id="flowRoot4119"
       xml:space="preserve"
       style="font-size:4px;font-style:normal;font-weight:normal;line-height:125%;letter-spacing:0px;word-spacing:0px;fill:#000000;fill-opacity:1;stroke:none;font-family:Sans"><flowRegion
         id="flowRegion4121"><rect
           width="32.173359"
           height="5.3916893"
           x="11.578874"
           y="133.43193"
           id="rect4123" /></flowRegion><flowPara
         id="flowPara4125">Los Angeles</flowPara></flowRoot>    <rect
       width="4.7034907"
       height="4.7633343"
       ry="2.1051164"
       x="3.1096451"
       y="139.4968"
       id="rect4026-0"
       style="color:#000000;fill:#0000ff;fill-opacity:1;fill-rule:nonzero;stroke:#000000;stroke-width:0.23666589;stroke-linecap:butt;stroke-linejoin:bevel;stroke-miterlimit:4;stroke-opacity:1;stroke-dasharray:none;stroke-dashoffset:0;marker:none;visibility:visible;display:inline;overflow:visible;enable-background:accumulate" />
    <flowRoot
       transform="translate(-3.625,-3.4425116)"
       id="flowRoot4127"
       xml:space="preserve"
       style="font-size:4px;font-style:normal;font-weight:normal;line-height:125%;letter-spacing:0px;word-spacing:0px;fill:#000000;fill-opacity:1;stroke:none;font-family:Sans"><flowRegion
         id="flowRegion4129"><rect
           width="31.996582"
           height="5.9220195"
           x="12.551146"
           y="142.44756"
           id="rect4131" /></flowRegion><flowPara
         id="flowPara4133">San Diego</flowPara></flowRoot>  </g>
  <flowRoot
     transform="translate(-2.3725938,212.06451)"
     id="flowRoot4135"
     xml:space="preserve"
     style="font-size:4px;font-style:normal;font-weight:normal;line-height:125%;letter-spacing:0px;word-spacing:0px;fill:#000000;fill-opacity:1;stroke:none;font-family:Sans"><flowRegion
       id="flowRegion4137"><rect
         width="42.868347"
         height="29.698484"
         x="-0.088388346"
         y="118.31753"
         id="rect4139" /></flowRegion><flowPara
       id="flowPara4141" /></flowRoot></svg>
