<?xml version="1.0" encoding="UTF-8" standalone="no"?>
<!-- Created with Inkscape (http://www.inkscape.org/) -->

<svg
   xmlns:dc="http://purl.org/dc/elements/1.1/"
   xmlns:cc="http://creativecommons.org/ns#"
   xmlns:rdf="http://www.w3.org/1999/02/22-rdf-syntax-ns#"
   xmlns:svg="http://www.w3.org/2000/svg"
   xmlns="http://www.w3.org/2000/svg"
   xmlns:sodipodi="http://sodipodi.sourceforge.net/DTD/sodipodi-0.dtd"
   xmlns:inkscape="http://www.inkscape.org/namespaces/inkscape"
   version="1.0"
   width="555.22198"
   height="351.66797"
   id="svg9559"
   sodipodi:version="0.32"
   inkscape:version="0.48.1 r9760"
   sodipodi:docname="taiwan.svg"
   inkscape:output_extension="org.inkscape.output.svg.inkscape">
  <metadata
     id="metadata3671">
    <rdf:RDF>
      <cc:Work
         rdf:about="">
        <dc:format>image/svg+xml</dc:format>
        <dc:type
           rdf:resource="http://purl.org/dc/dcmitype/StillImage" />
        <dc:title></dc:title>
      </cc:Work>
    </rdf:RDF>
  </metadata>
  <sodipodi:namedview
     inkscape:window-height="522"
     inkscape:window-width="1016"
     inkscape:pageshadow="2"
     inkscape:pageopacity="0.0"
     guidetolerance="10.0"
     gridtolerance="10.0"
     objecttolerance="10.0"
     borderopacity="1.0"
     bordercolor="#666666"
     pagecolor="#ffffff"
     id="base"
     inkscape:zoom="1.9530575"
     inkscape:cx="126.83553"
     inkscape:cy="167.12834"
     inkscape:window-x="0"
     inkscape:window-y="25"
     inkscape:current-layer="svg9559"
     showguides="true"
     inkscape:guide-bbox="true"
     showgrid="false"
     inkscape:window-maximized="0" />
  <defs
     id="defs9561" />
  <path
     id="path2746"
     d="m 8.9549568,221.43649 c 0.3814776,1.09524 1.1524212,2.00871 0.683064,3.17116 -0.3854716,0.95318 -0.7929136,1.78568 0.2935973,2.59681 2.0012569,1.49088 2.6623509,3.94409 3.9286149,5.87795 1.471983,2.247 4.683581,2.89621 6.566999,4.83771 0.605171,0.62323 1.889411,4.64981 3.391351,4.04949 1.94134,-0.77446 0.798906,-3.32086 0.575213,-4.55969 -0.359507,-1.99802 0.381476,-3.49347 1.859451,-5.12336 3.531159,-3.89674 4.16629,-11.1403 3.758848,-15.74735 -0.08389,-0.95318 -0.908755,-2.38448 -0.499316,-3.32239 0.411436,-0.94249 1.062544,-1.48476 1.206347,-2.52348 0.329548,-2.41809 -0.752968,-4.18545 -0.752968,-6.5241 0,-1.20982 1.565853,-2.18896 0.131819,-3.17422 -0.874801,-0.60185 -5.414579,-3.34988 -6.555016,-2.47919 -1.805525,1.37936 -5.400597,1.72153 -6.415206,3.65997 -1.044568,1.99955 -0.750971,3.16964 -2.614416,4.88353 -1.699671,1.5642 -2.081149,3.80509 -2.762215,5.70229 -0.998631,2.79844 -3.6569868,5.64882 -2.7961672,8.67487"
     inkscape:connector-curvature="0"
     style="fill:#008000" />
  <flowRoot
     xml:space="preserve"
     id="flowRoot8738"
     style="font-size:24px;font-style:normal;font-weight:normal;line-height:125%;letter-spacing:0px;word-spacing:0px;fill:#000000;fill-opacity:1;stroke:none;font-family:Sans"
     transform="translate(23.552814,60.930106)"><flowRegion
       id="flowRegion8740"><rect
         id="rect8742"
         width="136.70872"
         height="35.84124"
         x="10.752372"
         y="145.83685"
         style="font-size:24px" /></flowRegion><flowPara
       id="flowPara8744">TAIWAN</flowPara></flowRoot></svg>
