<?xml version="1.0" encoding="UTF-8" standalone="no"?>
<!-- Created with Inkscape (http://www.inkscape.org/) -->

<svg
   xmlns:dc="http://purl.org/dc/elements/1.1/"
   xmlns:cc="http://creativecommons.org/ns#"
   xmlns:rdf="http://www.w3.org/1999/02/22-rdf-syntax-ns#"
   xmlns:svg="http://www.w3.org/2000/svg"
   xmlns="http://www.w3.org/2000/svg"
   xmlns:sodipodi="http://sodipodi.sourceforge.net/DTD/sodipodi-0.dtd"
   xmlns:inkscape="http://www.inkscape.org/namespaces/inkscape"
   version="1.0"
   width="555.22198"
   height="351.66797"
   id="svg2"
   inkscape:version="0.48.1 r9760"
   sodipodi:docname="alabama.svg">
  <metadata
     id="metadata56">
    <rdf:RDF>
      <cc:Work
         rdf:about="">
        <dc:format>image/svg+xml</dc:format>
        <dc:type
           rdf:resource="http://purl.org/dc/dcmitype/StillImage" />
      </cc:Work>
    </rdf:RDF>
  </metadata>
  <defs
     id="defs54" />
  <sodipodi:namedview
     pagecolor="#ffffff"
     bordercolor="#666666"
     borderopacity="1"
     objecttolerance="10"
     gridtolerance="10"
     guidetolerance="10"
     inkscape:pageopacity="0"
     inkscape:pageshadow="2"
     inkscape:window-width="640"
     inkscape:window-height="480"
     id="namedview52"
     showgrid="false"
     inkscape:zoom="0.83029853"
     inkscape:cx="277.61099"
     inkscape:cy="175.83398"
     inkscape:window-x="0"
     inkscape:window-y="25"
     inkscape:window-maximized="0"
     inkscape:current-layer="svg2" />
  <path
     id="01113"
     style="font-size:12px;fill:#0000ff;fill-rule:nonzero;stroke:#000000;stroke-opacity:1;stroke-width:0.1;stroke-miterlimit:4;stroke-dasharray:none;stroke-linecap:butt;marker-start:none;stroke-linejoin:bevel"
     d="m 412.74298,241.238 -0.121,0.46 0.023,0.109 0.068,0.076 0.716,0.193 0.266,0.222 0.108,0.215 -0.09,0.406 -0.026,0.037 -1.172,2.315 -1.399,0.181 -0.075,-0.031 -0.447,-0.47 -0.041,-0.117 -0.347,-0.405 -1.649,0.208 -0.379,-1.106 -0.256,-2.248 1.117,-0.14 0.906,-0.617 1.924,-0.514 0.574,-0.554 0.3,1.78 m -6.989,-3.862 3.308,-0.398 0.374,-0.229 1.194,-0.157 0.779,1.716 1.034,1.15 -0.574,0.554 -1.924,0.514 -0.906,0.617 -1.117,0.14 -0.176,-1.118 -0.546,0.063 -2.339,-0.847 -0.023,-0.181 0.916,-1.824 m 3.321,-5.315 0.866,2.997 0.689,1.534 -1.194,0.157 -0.374,0.229 -3.308,0.398 -0.536,-4.873 3.857,-0.442 m -4.94,-4.503 3.624,-0.234 0.194,0.695 1.045,3.772 0.077,0.27 -3.857,0.442 -0.646,0.077 -0.437,-5.022 m 1.925,-6.318 0.221,0.788 0.874,3.147 0.604,2.149 -3.624,0.234 -1.302,0.109 0.019,0.193 -0.163,0.204 -1.119,0.117 -0.008,-0.094 0.352,-0.325 0.513,-0.803 0.551,-0.058 0.842,-1.018 0.153,-0.293 -0.171,-1.61 -0.135,-1.325 1.036,-0.969 1.357,-0.446 m -2.015,-7.08 0.884,3.001 0.721,2.605 0.41,1.474 -1.357,0.446 -2.244,-0.104 -0.009,-0.27 -0.802,-1.41 -0.469,-0.037 -0.149,-1.149 -0.044,-0.414 0.073,-0.141 0.255,-0.242 0.365,-0.045 1.371,-1.673 0.329,-0.708 0.063,-0.748 0.501,-0.581 0.039,-0.027 0.063,0.023 m -1.203,-4.256 0.848,2.997 0.126,0.443 0.229,0.816 -0.063,-0.023 -0.039,0.027 -0.501,0.581 -0.063,0.748 -0.329,0.708 -1.371,1.673 -0.365,0.045 -0.255,0.242 -0.073,0.141 0.044,0.414 -2.767,0.285 0.135,-3.607 0.315,-0.013 0.239,-0.095 0.297,-0.198 1.803,-1.911 1.133,-1.826 0.657,-1.447 m -0.406,-1.577 0.406,1.577 -0.657,1.447 -1.133,1.826 -1.803,1.911 -0.297,0.198 -0.239,0.095 -0.315,0.013 -0.988,-0.743 -0.13,-0.744 -1.875,0.185 -0.382,-0.387 -0.122,-1.326 0.098,-1.321 0.276,-1.452 -0.222,-0.58 4.675,-0.455 2.708,-0.244 m -7.383,0.699 0.222,0.58 -0.276,1.452 -0.098,1.321 0.122,1.326 0.382,0.387 0.113,-0.009 0.139,0.067 0.06,0.167 -0.082,0.491 -0.149,0.383 -1.045,0.533 -0.365,0.122 -0.351,-0.06 -0.365,-0.225 -0.231,-0.537 -2.528,0.186 -0.488,-5.701 4.861,-0.479 0.079,-0.004 m -5.488,0.536 0.548,-0.053 0.488,5.701 -3.475,-1.43 -1.718,-0.789 0.235,-3.154 3.922,-0.275 m -4.052,0.285 0.13,-0.01 -0.235,3.154 -1.789,-0.373 -0.982,-0.32 -0.081,-0.009 -0.226,0.05 -0.415,0.176 -1.221,0.725 -0.18,0.311 -0.054,0.058 -0.275,0.154 -0.478,0.086 -0.316,-0.095 -0.085,-0.049 -0.834,-0.654 -0.126,-0.19 -0.085,-0.289 -0.072,-0.135 -0.159,-0.215 -0.234,-0.173 -0.734,-0.246 -0.181,0.045 -0.401,0.188 -1.182,-1.248 2.241,-0.324 3.966,-0.307 4.008,-0.31 m -9.033,2.189 0.401,-0.188 0.181,-0.045 0.734,0.246 0.234,0.173 0.159,0.215 0.072,0.135 0.085,0.289 0.126,0.19 0.834,0.654 0.085,0.049 0.316,0.095 0.478,-0.086 0.275,-0.154 0.054,-0.058 0.18,-0.311 1.221,-0.725 0.415,-0.176 0.226,-0.05 0.081,0.009 0.982,0.32 -0.811,3.106 -6.436,0.365 0.108,-4.053 m 7.139,0.582 1.789,0.373 1.718,0.789 0.402,4.81 0.017,0.189 -4.435,0.338 -0.302,-3.393 0.811,-3.106 m 6.982,2.592 2.528,-0.186 -0.022,3.147 -5.579,0.419 -0.402,-4.81 3.475,1.43 m 4.804,-1.118 1.875,-0.185 0.13,0.744 0.988,0.743 -0.135,3.607 -1.952,1.527 -1.784,-1.907 -1.42,-0.45 0.022,-3.147 0.231,0.537 0.365,0.225 0.351,0.06 0.365,-0.122 1.045,-0.533 0.149,-0.383 0.082,-0.491 -0.06,-0.167 -0.139,-0.067 -0.113,0.009 m 2.858,4.909 2.767,-0.285 0.149,1.149 0.469,0.037 0.802,1.41 0.009,0.27 0.022,0.428 -0.874,-0.094 -0.636,0.063 -0.18,0.113 -0.315,0.508 -0.586,0.604 -0.262,0.204 -0.279,0.157 -0.172,0.014 -0.558,-0.738 -0.221,0.089 -0.135,-0.085 -0.28,-0.266 -0.235,-0.546 -0.08,-0.14 -0.103,-0.058 -0.834,0.081 -0.145,0.108 -0.239,0.392 -0.067,0.14 0.009,0.044 -0.473,0.051 0.328,-1.758 0.167,-0.365 1.952,-1.527 m 4.196,2.581 2.244,0.104 -1.036,0.969 0.135,1.325 0.171,1.61 -0.153,0.293 -0.842,1.018 -0.551,0.058 -0.026,-0.378 -2.132,0.212 -0.307,-0.253 -0.1,-0.483 -0.305,-0.337 -1.015,0.049 -0.036,-0.296 0.04,-0.132 0.813,-0.734 -0.014,-0.825 -0.036,-0.082 -0.132,-0.121 0.172,-0.014 0.279,-0.157 0.262,-0.204 0.586,-0.604 0.315,-0.508 0.18,-0.113 0.636,-0.063 0.874,0.094 -0.022,-0.428 m -6.17,1.018 -0.009,-0.044 0.067,-0.14 0.239,-0.392 0.145,-0.108 0.834,-0.081 0.103,0.058 0.08,0.14 0.235,0.546 0.28,0.266 0.135,0.085 0.221,-0.089 0.558,0.738 0.132,0.121 0.036,0.082 0.014,0.825 -0.813,0.734 -0.04,0.132 0.036,0.296 -0.176,0.099 -0.496,1.137 0.005,0.067 0.108,0.239 0.049,0.063 -0.445,0.96 -1.141,1.401 -1.672,-1.847 -0.293,-0.077 -0.104,-0.094 -0.067,-0.749 0.072,-0.193 0.09,-0.01 0.068,-0.288 -0.081,-0.842 -0.244,-0.545 -0.374,0.036 -0.045,-0.474 1.361,-0.437 0.095,0.054 0.085,0 0.298,-0.321 0.274,-0.355 0.38,-0.993 m -1.762,-3.979 1.784,1.907 -0.167,0.365 -0.328,1.758 0.473,-0.051 -0.38,0.993 -0.274,0.355 -0.298,0.321 -0.085,0 -0.095,-0.054 -1.361,0.437 0.045,0.474 -0.807,-0.078 -1.212,-0.707 -1.33,0.094 -0.702,0.433 -0.158,-0.545 0.396,-0.522 0.785,-0.777 0.955,-0.842 1.416,-1.812 0.058,-0.1 0.595,-1.491 0.044,-0.031 0.313,-0.105 0.333,-0.022 m -6.999,-0.031 5.579,-0.419 1.42,0.45 -0.333,0.022 -0.313,0.105 -0.044,0.031 -0.595,1.491 -0.058,0.1 -1.416,1.812 -0.955,0.842 -0.785,0.777 -0.396,0.522 -2.15,-1.555 0.063,-3.989 -0.017,-0.189 m -4.418,0.527 4.435,-0.338 -0.063,3.989 -5.152,0.351 -0.334,-3.935 1.114,-0.067 m -6.815,0.368 2.475,-0.101 2.335,-0.163 0.891,-0.037 0.334,3.935 0.103,1.123 -3.357,0.23 -0.112,-1.321 -0.406,-0.356 -2.34,0.117 0.01,-0.369 0.067,-3.058 m 0.077,-3.396 6.436,-0.365 0.302,3.393 -1.114,0.067 -0.891,0.037 -2.335,0.163 -2.475,0.101 0.041,-1.85 0.036,-1.546 m 2.704,8.383 3.357,-0.23 0.046,0.559 1.115,-0.04 0.237,2.261 1.114,-0.063 0.104,1.123 -2.223,0.099 -0.33,0.509 0.055,0.662 -0.788,0.09 -1.069,0.032 -1.127,0.104 -0.103,-1.19 -0.32,-3.132 -0.068,-0.784 m -2.858,-1.56 2.34,-0.117 0.406,0.356 0.18,2.105 0.32,3.132 0.103,1.19 -3.51,0.162 0.057,-2.745 0.104,-4.083 m 11.264,-0.144 2.15,1.555 0.158,0.545 -0.149,0.388 -0.681,1.384 -0.193,0.391 -0.226,0.398 -1.172,1.293 -0.306,0.225 -0.239,0.135 -0.55,0.032 -0.09,-0.942 -0.943,-0.099 -0.192,0.009 -0.104,-1.123 -1.114,0.063 -0.237,-2.261 -1.115,0.04 -0.046,-0.559 -0.103,-1.123 5.152,-0.351 m 2.308,2.1 0.702,-0.433 1.33,-0.094 1.212,0.707 0.807,0.078 0.374,-0.036 0.244,0.545 0.081,0.842 -0.068,0.288 -0.09,0.01 -0.072,0.193 0.067,0.749 0.104,0.094 0.293,0.077 0.023,0.28 -0.856,0.828 -0.745,0.082 -2.049,1.987 -0.402,0.703 -0.221,0.163 -0.311,0.17 -0.505,0.177 -0.419,0.036 -0.509,-0.523 -0.988,-0.591 -0.431,-0.374 -0.722,-0.788 -0.189,-0.626 0.374,-0.33 0.239,-0.135 0.306,-0.225 1.172,-1.293 0.226,-0.398 0.193,-0.391 0.681,-1.384 0.149,-0.388 m -4.741,3.214 0.192,-0.009 0.943,0.099 0.09,0.942 0.55,-0.032 -0.374,0.33 0.189,0.626 0.722,0.788 0.431,0.374 0.988,0.591 0.509,0.523 -0.113,0.009 -0.703,0.207 -0.09,0.054 -0.459,0.51 -0.812,0.901 -0.27,0.532 0.031,1.14 -1.109,0.136 -3.154,0.238 -1.47,-1.78 -0.446,-4.787 1.069,-0.032 0.788,-0.09 -0.055,-0.662 0.33,-0.509 2.223,-0.099 m -4.355,1.392 0.446,4.787 -1.32,1.068 -0.361,0.127 -0.815,0.455 -0.929,0.627 0.013,0.058 -1.806,0.211 0.076,-3.868 0.059,-3.199 3.51,-0.162 1.127,-0.104 m 0.446,4.787 1.47,1.78 -1.096,1.947 0.017,0.275 0.196,0.982 0.423,1.258 0.533,0.636 -0.573,1.208 -0.452,-0.059 -0.739,-1.145 -0.112,-0.068 -0.095,-0.004 -0.184,0.09 -0.208,0.145 -0.082,0.081 -0.359,0.167 -0.461,0.135 -0.035,-0.009 -0.257,-0.316 -1.299,-2.727 -0.216,-0.942 0.117,-1.099 -0.013,-0.058 0.929,-0.627 0.815,-0.455 0.361,-0.127 1.32,-1.068 m 1.47,1.78 3.154,-0.238 0.159,1.663 -0.437,1.243 -0.428,1.678 0.211,2.235 -2.209,0.212 -0.058,-0.564 -0.892,0.077 0.573,-1.208 -0.533,-0.636 -0.423,-1.258 -0.196,-0.982 -0.017,-0.275 1.096,-1.947 m 6.679,-3.727 0.419,-0.036 1.798,2.385 0.136,0.847 0.185,1.902 -1.537,0.136 -2.474,0.301 -0.745,0.072 -0.054,-0.564 -1.094,0.109 -0.159,-1.663 1.109,-0.136 -0.031,-1.14 0.27,-0.532 0.812,-0.901 0.459,-0.51 0.09,-0.054 0.703,-0.207 0.113,-0.009 m 5.485,-4.426 1.672,1.847 0.297,0.213 0.15,0.216 -0.1,0.78 -1.222,1.798 0.045,0.824 -0.171,1.091 -0.527,-0.009 -0.347,-0.216 -0.184,-0.248 -1.182,0.062 -1.73,0.132 0.031,0.285 -1.798,-2.385 0.505,-0.177 0.311,-0.17 0.221,-0.163 0.402,-0.703 2.049,-1.987 0.745,-0.082 0.856,-0.828 -0.023,-0.28 m 3.768,-2.119 1.015,-0.049 0.305,0.337 0.1,0.483 0.307,0.253 2.132,-0.212 0.026,0.378 -0.513,0.803 -0.568,0.062 -0.451,1.573 -1.113,1.24 -0.879,1.389 0.103,1.176 -3.39,0.364 -0.045,-0.824 1.222,-1.798 0.1,-0.78 -0.15,-0.216 -0.297,-0.213 1.141,-1.401 0.445,-0.96 -0.049,-0.063 -0.108,-0.239 -0.005,-0.067 0.496,-1.137 0.176,-0.099 m 3.372,1.993 -0.352,0.325 0.008,0.094 1.119,-0.117 0.163,-0.204 -0.019,-0.193 1.302,-0.109 0.437,5.022 -3.781,0.622 -1.785,0 -0.103,-1.176 0.879,-1.389 1.113,-1.24 0.451,-1.573 0.568,-0.062 m 2.658,4.818 0.646,-0.077 0.536,4.873 -0.916,1.824 -0.625,0.258 -0.325,1.171 -0.956,0.118 -0.036,-0.037 -0.035,-0.103 -0.308,-2.664 0.1,-0.378 -0.023,-0.172 -0.031,-0.013 -1.33,0.135 -0.478,-4.313 3.781,-0.622 m -5.566,0.622 1.785,0 0.478,4.313 -3.975,0.419 -1.849,-3.277 0.171,-1.091 3.39,-0.364 m -3.561,1.455 1.849,3.277 -0.325,0.645 -3.234,0.343 0.061,0.567 -1.109,0.126 -1.085,0.055 -1.168,-0.736 -0.144,-1.386 1.537,-0.136 -0.185,-1.902 -0.136,-0.847 -0.031,-0.285 1.73,-0.132 1.182,-0.062 0.184,0.248 0.347,0.216 0.527,0.009 m -9.522,2.809 1.094,-0.109 0.054,0.564 0.745,-0.072 2.474,-0.301 0.144,1.386 -0.185,1.212 -0.166,0.782 -0.293,1.018 -0.087,0.184 -1.473,0.195 -1.87,0.188 0.22,2.25 -0.553,0.053 -0.758,-2.194 -0.211,-2.235 0.428,-1.678 0.437,-1.243 m -10.001,-0.659 1.806,-0.211 -0.117,1.099 0.216,0.942 1.299,2.727 0.257,0.316 0.035,0.009 0.461,-0.135 0.359,-0.167 0.082,-0.081 0.208,-0.145 0.184,-0.09 0.095,0.004 0.112,0.068 0.739,1.145 -0.545,0.171 -0.09,0.063 -1.203,1.222 -0.058,0.162 -0.019,0.518 0.023,0.076 0.828,0.316 0.475,0.397 -5.315,0.465 0.077,-3.503 0.076,-4.561 0.015,-0.807 m 6.188,5.54 0.892,-0.077 0.058,0.564 2.209,-0.212 0.758,2.194 0.058,0.551 -0.168,-0.023 -0.189,0.013 -0.098,0.036 -0.091,0.155 -0.951,1.676 0.136,1.63 -0.451,0.226 -4.408,0.393 -0.28,-0.032 -0.09,-0.051 -0.08,-0.089 -0.054,-0.13 -0.05,-0.474 0.824,-3.074 0.148,-0.162 0.281,-0.176 0.505,-0.072 -0.475,-0.397 -0.828,-0.316 -0.023,-0.076 0.019,-0.518 0.058,-0.162 1.203,-1.222 0.09,-0.063 0.545,-0.171 0.452,0.059 m 8.324,-3.413 1.168,0.736 1.5,4.056 -0.631,3.862 -2.943,0.284 -1.736,-1.6 -1.347,-0.942 -0.068,-0.041 -0.292,0.078 -0.058,-0.551 0.553,-0.053 -0.22,-2.25 1.87,-0.188 1.473,-0.195 0.087,-0.184 0.293,-1.018 0.166,-0.782 0.185,-1.212 m 6.535,-0.355 0.411,3.826 -0.844,0.934 -1.334,-0.582 -1.294,0.153 -0.477,0.085 -0.034,0.06 -0.295,0.671 -1.5,-4.056 1.085,-0.055 1.109,-0.126 -0.061,-0.567 3.234,-0.343 m 4.3,-1.064 1.33,-0.135 0.031,0.013 0.023,0.172 -0.1,0.378 0.308,2.664 0.035,0.103 0.036,0.037 -1.38,1.095 -0.251,0.207 -0.749,-0.063 -0.856,-0.162 0.05,-0.086 -0.514,-0.555 -0.085,-0.057 -0.159,-0.055 -0.122,-0.014 -1.486,1.348 -0.411,-3.826 0.325,-0.645 3.975,-0.419 m -3.889,4.89 1.486,-1.348 0.122,0.014 0.159,0.055 0.085,0.057 0.514,0.555 -0.05,0.086 0.856,0.162 0.749,0.063 0.251,-0.207 1.321,1.753 -0.536,2.962 -1.996,1.306 -1.198,0.145 -0.132,-1.114 -1.113,0.126 -1.362,-3.681 0.844,-0.934 m -4.278,1.321 0.295,-0.671 0.034,-0.06 0.477,-0.085 1.294,-0.153 1.334,0.582 1.362,3.681 -0.342,1.154 -4.445,0.469 -0.64,-1.055 0.631,-3.862 m 11.736,-4.526 0.023,0.181 2.339,0.847 0.546,-0.063 0.176,1.118 0.256,2.248 -4.552,0.533 -0.089,-0.032 -0.664,-0.437 -1.321,-1.753 1.38,-1.095 0.956,-0.118 0.325,-1.171 0.625,-0.258 m 3.34,4.331 0.379,1.106 -0.175,0.112 0.094,1.127 0.072,0.473 -0.888,0.297 -0.855,0.321 -0.496,0.973 -0.064,0.312 0.009,0.102 -1.452,0.159 -0.82,-1.042 -0.523,-0.987 -0.202,-0.072 -0.474,-0.041 -0.446,0.186 0.536,-2.962 0.664,0.437 0.089,0.032 4.552,-0.533" />
</svg>
