<?xml version="1.0" encoding="UTF-8" standalone="no"?>
<!-- Created with Inkscape (http://www.inkscape.org/) -->

<svg
   xmlns:dc="http://purl.org/dc/elements/1.1/"
   xmlns:cc="http://creativecommons.org/ns#"
   xmlns:rdf="http://www.w3.org/1999/02/22-rdf-syntax-ns#"
   xmlns:svg="http://www.w3.org/2000/svg"
   xmlns="http://www.w3.org/2000/svg"
   xmlns:sodipodi="http://sodipodi.sourceforge.net/DTD/sodipodi-0.dtd"
   xmlns:inkscape="http://www.inkscape.org/namespaces/inkscape"
   version="1.0"
   width="555.22198"
   height="351.66797"
   id="svg2"
   inkscape:version="0.48.1 r9760"
   sodipodi:docname="albany.svg">
  <metadata
     id="metadata27">
    <rdf:RDF>
      <cc:Work
         rdf:about="">
        <dc:format>image/svg+xml</dc:format>
        <dc:type
           rdf:resource="http://purl.org/dc/dcmitype/StillImage" />
      </cc:Work>
    </rdf:RDF>
  </metadata>
  <defs
     id="defs25" />
  <sodipodi:namedview
     pagecolor="#ffffff"
     bordercolor="#666666"
     borderopacity="1"
     objecttolerance="10"
     gridtolerance="10"
     guidetolerance="10"
     inkscape:pageopacity="0"
     inkscape:pageshadow="2"
     inkscape:window-width="640"
     inkscape:window-height="480"
     id="namedview23"
     showgrid="false"
     inkscape:zoom="0.83029853"
     inkscape:cx="277.61099"
     inkscape:cy="175.83398"
     inkscape:window-x="0"
     inkscape:window-y="25"
     inkscape:window-maximized="0"
     inkscape:current-layer="svg2" />
  <path
     id="36001"
     style="font-size:12px;fill:#0000ff;fill-rule:nonzero;stroke:#000000;stroke-opacity:1;stroke-width:0.1;stroke-miterlimit:4;stroke-dasharray:none;stroke-linecap:butt;marker-start:none;stroke-linejoin:bevel"
     d="m 500.98398,88.704 1.203,-0.347 -0.023,4.26 -4.178,1.731 -0.081,0.031 -0.049,-0.157 0.008,-1.457 0.064,-1.212 0.072,-0.663 -0.099,-0.64 -0.18,-0.126 3.263,-1.42 m 1.18,3.913 3.83,-1.533 -0.142,5.688 0.216,0.437 -0.063,0.974 -1.79,0.063 -0.475,-0.131 -1.526,-0.365 -0.121,-0.005 -0.127,0.055 0.032,-0.654 0.04,-0.189 0.284,-0.897 0.365,-0.915 0.023,-0.176 -0.036,-0.324 -0.355,-1.794 -0.073,-0.212 -0.032,-0.022 -0.05,0 m -0.076,-6.342 3.299,-0.829 0.69,2.47 -0.083,3.168 -3.83,1.533 0.023,-4.26 -0.099,-2.082 m -4.236,0.816 0.355,-0.054 1.244,0.342 0.414,0.298 0.109,0.306 0.825,0.699 0.063,0.031 0.122,-0.009 -3.263,1.42 -0.965,-0.662 -0.018,-0.036 0.032,-0.172 1.338,-1.451 -0.256,-0.712 m 3.933,-12.291 0.334,0.649 -0.174,0.956 -0.051,0.523 0.091,0.753 0.036,0.048 0.306,0.127 1.55,0.342 0.546,2.538 0.964,4.71 -3.299,0.829 0.117,-0.572 0.045,-0.455 -0.04,-0.884 -0.041,-0.243 -0.743,-2.416 -0.072,-0.113 -0.934,-2.33 -0.027,-0.18 0.01,-0.086 0.098,-0.468 0.168,-0.447 0.518,-1.262 0.058,-0.78 0.023,-1.049 0.517,-0.19 m -5.772,7.189 2.442,-0.924 0.117,0.149 0.578,0.897 0.184,0.698 0.092,0.05 0.611,0.166 0.766,-0.739 0.551,-0.694 0.072,0.113 0.743,2.416 0.041,0.243 0.04,0.884 -0.045,0.455 -0.117,0.572 0.099,2.082 -1.203,0.347 -0.122,0.009 -0.063,-0.031 -0.825,-0.699 -0.109,-0.306 -0.414,-0.298 -1.244,-0.342 -0.355,0.054 -0.116,-0.338 -1.196,-3.326 -0.527,-1.438 m -0.167,-4.922 5.422,-2.077 -0.023,1.049 -0.058,0.78 -0.518,1.262 -0.168,0.447 -0.098,0.468 -0.01,0.086 0.027,0.18 0.934,2.33 -0.551,0.694 -0.766,0.739 -0.611,-0.166 -0.092,-0.05 -0.184,-0.698 -0.578,-0.897 -0.117,-0.149 -2.442,0.924 -1.545,-4.39 1.378,-0.532 m -0.708,-8.937 1.411,-0.51 0.699,-0.148 0.802,-0.5 0.627,-0.442 0.17,-0.473 -0.035,-0.24 1.086,-0.387 0.429,0.518 0.129,0.28 0.167,0.451 0.005,0.008 0.014,0.14 -0.05,0.541 0.302,1.568 -0.378,1.078 -0.005,1.067 0,0.42 0.022,0.429 0,0.004 0.02,0.044 1.075,2.538 0.157,0.284 -0.517,0.19 -5.422,2.077 -0.009,-0.487 -0.054,-0.189 -1.024,-0.198 -0.332,0.149 -0.108,0.071 -0.087,0.149 -1.451,-1.181 0.6,-0.729 -0.672,-1.848 1.647,-0.609 -1.228,-3.295 2.01,-0.77 m 3.304,-8.51 -0.014,0.221 0.33,2.114 0.459,2.691 0.27,0.505 0.149,0.126 0.262,0.153 -1.086,0.387 0.035,0.24 -0.17,0.473 -0.627,0.442 -0.802,0.5 -0.699,0.148 -1.411,0.51 -0.316,-0.92 -0.329,-0.874 -0.689,-1.6 -1.172,-2.871 -0.225,-0.604 1.343,-0.388 2.213,-0.563 2.479,-0.69 m -3.304,8.51 -2.01,0.77 1.228,3.295 -1.647,0.609 -2.222,0.797 -0.123,-0.919 -0.328,-0.978 -1.825,-5.224 -1.146,-3.407 -0.698,0.157 -0.22,-0.658 0.238,-0.013 3.688,-0.703 1.288,-0.289 0.942,-0.275 0.104,-0.031 0.225,0.604 1.172,2.871 0.689,1.6 0.329,0.874 0.316,0.92 m -2.429,4.674 0.672,1.848 -0.6,0.729 1.451,1.181 0.087,-0.149 0.108,-0.071 0.332,-0.149 1.024,0.198 0.054,0.189 0.009,0.487 -1.378,0.532 1.545,4.39 0.527,1.438 -0.748,0.252 -2.776,0.911 -1.794,-0.361 -1.569,-0.356 0.42,-2.046 -2.385,-7.203 2.799,-1.023 2.222,-0.797 m -1.487,11.425 1.794,0.361 2.776,-0.911 0.748,-0.252 1.196,3.326 -3.594,0.807 -0.491,0.108 -2.177,-0.325 -0.252,-3.114 m 6.514,2.524 0.116,0.338 0.256,0.712 -1.338,1.451 -0.032,0.172 0.018,0.036 -0.649,0.342 -1.037,0.365 -1.099,-0.275 -0.843,-0.031 -1.154,-0.185 -0.5,-2.335 2.177,0.325 0.491,-0.108 3.594,-0.807 m -0.98,2.709 0.965,0.662 0.18,0.126 0.099,0.64 -0.072,0.663 -0.064,1.212 -0.008,1.457 0.049,0.157 0.081,-0.031 -1.594,1.077 -2.948,-1.493 0.229,-0.684 0.203,-0.861 -0.121,-0.307 -0.578,-1.18 -0.045,-0.172 -0.054,-0.356 0.05,-0.509 0.843,0.031 1.099,0.275 1.037,-0.365 0.649,-0.342 m 5.408,3.155 0.05,0 0.032,0.022 0.073,0.212 0.355,1.794 0.036,0.324 -0.023,0.176 -0.365,0.915 -0.284,0.897 -0.04,0.189 -0.928,-0.392 -0.419,0.136 -0.081,1.004 -1.482,0.19 -0.727,0.09 -1.501,-0.383 -0.888,-0.225 0.581,-2.101 -0.161,-0.04 1.594,-1.077 4.178,-1.731 m -8.72,1.315 2.948,1.493 0.161,0.04 -0.581,2.101 0.888,0.225 -2.614,2.632 -2.939,2.862 -1.181,-0.194 -0.302,-0.645 -0.171,-0.162 -0.568,-0.4 -0.181,-0.041 -1.094,-2.357 -0.303,-1.515 0.744,-0.216 0.238,-0.095 0.916,-0.694 0.387,-0.451 0.821,-0.775 1.623,-1.46 1.208,-0.348 m -0.316,-4.069 -0.05,0.509 0.054,0.356 0.045,0.172 0.578,1.18 0.121,0.307 -0.203,0.861 -0.229,0.684 -1.208,0.348 -1.623,1.46 -0.821,0.775 -0.387,0.451 -0.916,0.694 -0.238,0.095 -0.744,0.216 -0.094,-5.688 0.081,-1.708 0.307,-0.18 0.076,0.292 0.645,-0.189 0.22,-0.694 2.02,0.654 0.112,-0.131 -0.063,-0.852 1.163,0.203 1.154,0.185 m -8.37,-14.937 2.93,-0.302 2.385,7.203 -0.42,2.046 1.569,0.356 0.252,3.114 0.5,2.335 -1.163,-0.203 0.063,0.852 -0.112,0.131 -2.02,-0.654 -0.22,0.694 -0.645,0.189 -0.076,-0.292 -0.551,-2.169 0.37,-0.946 0.51,-1.573 -0.361,-1.289 -1.109,-3.528 -1.902,-5.964 m 1.389,-12.354 0.22,0.658 0.698,-0.157 1.146,3.407 1.825,5.224 0.328,0.978 0.123,0.919 -2.799,1.023 -2.93,0.302 -2.83,-0.969 -0.672,-0.256 -1.974,-0.677 -1.595,-0.603 0.283,-0.965 0.262,-0.645 0.478,-0.784 1.442,-2.236 0.419,-0.581 3.294,-3.741 0.167,-0.117 1.208,-0.698 0.226,-0.036 0.681,-0.046" />
</svg>
