<?xml version="1.0" encoding="UTF-8" standalone="no"?>
<!-- Created with Inkscape (http://www.inkscape.org/) -->

<svg
   xmlns:dc="http://purl.org/dc/elements/1.1/"
   xmlns:cc="http://creativecommons.org/ns#"
   xmlns:rdf="http://www.w3.org/1999/02/22-rdf-syntax-ns#"
   xmlns:svg="http://www.w3.org/2000/svg"
   xmlns="http://www.w3.org/2000/svg"
   xmlns:sodipodi="http://sodipodi.sourceforge.net/DTD/sodipodi-0.dtd"
   xmlns:inkscape="http://www.inkscape.org/namespaces/inkscape"
   version="1.0"
   width="555.22198"
   height="351.66797"
   id="svg2"
   inkscape:version="0.48.1 r9760"
   sodipodi:docname="atlanta.svg">
  <metadata
     id="metadata88">
    <rdf:RDF>
      <cc:Work
         rdf:about="">
        <dc:format>image/svg+xml</dc:format>
        <dc:type
           rdf:resource="http://purl.org/dc/dcmitype/StillImage" />
      </cc:Work>
    </rdf:RDF>
  </metadata>
  <defs
     id="defs86" />
  <sodipodi:namedview
     pagecolor="#ffffff"
     bordercolor="#666666"
     borderopacity="1"
     objecttolerance="10"
     gridtolerance="10"
     guidetolerance="10"
     inkscape:pageopacity="0"
     inkscape:pageshadow="2"
     inkscape:window-width="640"
     inkscape:window-height="480"
     id="namedview84"
     showgrid="false"
     inkscape:zoom="0.83029853"
     inkscape:cx="277.61099"
     inkscape:cy="175.83398"
     inkscape:window-x="0"
     inkscape:window-y="25"
     inkscape:window-maximized="0"
     inkscape:current-layer="svg2" />
  <path
     id="13257"
     style="font-size:12px;fill:#0000ff;fill-rule:nonzero;stroke:#000000;stroke-opacity:1;stroke-width:0.1;stroke-miterlimit:4;stroke-dasharray:none;stroke-linecap:butt;marker-start:none;stroke-linejoin:bevel"
     d="m 426.58498,209.265 2.676,1.645 -0.643,0.834 -1.988,0.36 -0.081,0.028 -0.211,0.13 -0.682,-0.172 0.929,-2.825 m 2.676,1.645 0.646,0.45 -0.253,2.908 -2.46,0.982 -0.856,-2.988 0.211,-0.13 0.081,-0.028 1.988,-0.36 0.643,-0.834 m 0.646,0.45 0.654,0.091 0.117,-0.059 0.009,-0.004 0.42,-0.104 0.378,-0.05 0.221,0.063 0.108,0.082 -0.004,0.035 0.351,0.542 1.117,1.572 -3.168,1.289 -0.456,-0.549 0.253,-2.908 m -6.837,-3.402 3.307,0.96 0.208,0.347 -0.929,2.825 -1.536,0.856 -0.667,-0.86 0.45,-0.577 -0.405,-2.456 -0.072,-0.325 -0.072,-0.122 -0.555,-0.32 0.271,-0.328 m -1.289,0.558 1.018,-0.23 0.555,0.32 0.072,0.122 0.072,0.325 0.405,2.456 -0.45,0.577 -1.857,0.217 -0.496,-2.773 0.681,-1.014 m -2.669,-2.199 0.718,-0.094 -0.063,0.238 0.334,0.32 0.639,0.361 0.305,-0.023 0.308,0.176 0.383,0.897 0.045,0.324 -0.681,1.014 -1.357,0.37 -0.865,0.812 -0.806,0.162 0.266,-0.645 0.049,-1.356 -0.198,0.062 -0.199,-0.13 -0.617,-1.74 -0.01,-0.067 0.038,-0.072 0.419,-0.447 1.292,-0.162 m -3.299,0.397 2.007,-0.235 -0.419,0.447 -0.038,0.072 0.01,0.067 0.617,1.74 0.199,0.13 0.198,-0.062 -0.049,1.356 -0.266,0.645 -0.249,0.635 -0.112,-0.185 -0.113,-0.307 -0.626,-0.91 -0.743,-0.996 -0.244,-0.183 -0.46,-0.289 -0.599,-0.068 -2.002,0.234 -0.234,-1.707 3.123,-0.384 m -2.889,2.091 2.002,-0.234 0.599,0.068 0.46,0.289 0.244,0.183 0.743,0.996 0.626,0.91 0.113,0.307 -1.47,0.901 -0.248,0.217 -1.983,0.216 -0.982,0.14 -0.054,-0.441 -0.252,-1.871 0.126,-0.595 0.279,-0.306 0.226,-0.388 0.004,-0.041 -0.027,-0.04 -0.406,-0.311 m 8.176,0.725 0.496,2.773 -1.284,1.297 -2.489,-2.091 0.249,-0.635 0.806,-0.162 0.865,-0.812 1.357,-0.37 m 2.353,2.556 0.667,0.86 0.171,1.754 -1.799,2.43 -2.65,-0.191 0.844,-2.275 -0.374,-1.064 1.284,-1.297 1.857,-0.217 m 2.885,0.176 0.856,2.988 -0.452,0.405 -0.269,-0.229 -0.659,-0.492 -0.392,0.127 -0.459,0.09 -0.126,-0.045 -0.217,-0.14 -0.329,-0.266 -0.171,-1.754 1.536,-0.856 0.682,0.172 m 3.316,2.006 0.456,0.549 1.388,2.209 -0.712,0.455 -0.144,-0.017 -0.577,-0.168 -0.154,-0.09 -0.077,0.009 -1.229,0.785 -1.146,-0.389 -0.717,-1.956 0.452,-0.405 2.46,-0.982 m 3.624,-0.74 0.397,1.033 1.875,2.312 0.442,0.672 -0.911,-0.249 -1.38,0.375 -2.203,-0.645 -1.388,-2.209 3.168,-1.289 m 1.803,3.768 0.911,0.249 1.595,0.95 0.067,0.018 0.15,-0.058 0.049,0.004 0.92,0.464 0.279,0.199 0.663,0.545 0.428,0.807 -2.118,0.775 -0.555,0.225 -2.389,-4.178 m 0.645,4.827 0.649,1.289 0.974,1.812 0.472,0.144 1.267,0.158 -0.442,0.55 -0.775,-0.266 -0.68,-0.211 -0.316,0.117 -1.636,1.122 -0.451,-0.681 -0.568,-1.433 -0.343,-0.176 -0.166,-0.257 0.014,-0.054 0.351,-0.549 0.996,-0.871 0.347,-0.536 0.307,-0.158 m -2.025,-4.452 1.38,-0.375 2.389,4.178 -1.744,0.649 -0.307,0.158 -0.82,-0.108 -1.307,0.14 -0.023,0 -0.153,-0.163 -0.779,-1.18 -0.492,-0.555 0.004,-0.063 0.402,-0.887 0.568,-1.033 0.216,-0.261 0.666,-0.5 m -2.203,-0.645 2.203,0.645 -0.666,0.5 -0.216,0.261 -0.568,1.033 -0.402,0.887 -0.004,0.063 0.492,0.555 -0.425,0.577 -3.132,-0.465 -0.094,-1.117 0.27,-0.772 -0.437,-0.441 -0.05,-0.112 -0.009,-0.037 0.059,-0.599 0.086,-0.004 1.229,-0.785 0.077,-0.009 0.154,0.09 0.577,0.168 0.144,0.017 0.712,-0.455 m 0.414,4.521 0.212,2.907 -1.406,1.681 -1.45,-1.479 -1.705,-2.583 1.217,-0.991 3.132,0.465 m 0.425,-0.577 0.779,1.18 0.153,0.163 0.023,0 1.307,-0.14 0.82,0.108 -0.347,0.536 -0.996,0.871 -0.351,0.549 -0.014,0.054 0.166,0.257 -1.753,-0.094 -0.212,-2.907 0.425,-0.577 m 1.54,3.578 0.343,0.176 0.568,1.433 0.451,0.681 0.107,0.184 -0.315,0.046 -0.733,0.644 -0.109,0.217 -0.086,0.369 -0.073,0.213 -0.111,0.147 -1.056,0.767 -0.468,0.068 -0.195,0.238 -0.268,0.226 -0.226,-0.339 -0.033,-0.107 0.042,-0.478 0.04,-0.108 0.059,-0.041 0.013,-0.104 -0.007,-0.076 -0.034,-0.051 -1.721,-0.228 -0.221,0.022 -0.019,-0.05 -0.004,-0.131 0.117,-0.77 0.221,-0.244 0.293,-0.153 0.429,-0.342 0.09,-0.424 -0.02,-0.041 -0.079,-0.071 -0.154,-0.086 1.406,-1.681 1.753,0.094 m -7.22,1.095 2.611,-0.987 1.45,1.479 0.154,0.086 0.079,0.071 0.02,0.041 -0.09,0.424 -0.429,0.342 -0.293,0.153 -0.221,0.244 -0.117,0.77 0.004,0.131 0.019,0.05 -1.649,0.243 -1.217,0.343 -0.321,-3.39 m 0.906,-3.57 1.705,2.583 -2.611,0.987 -1.73,-0.973 -0.104,-0.91 1.483,-3.079 1.257,1.392 m -2.898,-2.334 1.055,-0.919 2.966,1.145 0.094,1.117 -1.217,0.991 -1.257,-1.392 -1.641,-0.942 m 2.794,-2.128 1.146,0.389 -0.086,0.004 -0.059,0.599 0.009,0.037 0.05,0.112 0.437,0.441 -0.27,0.772 -2.966,-1.145 1.739,-1.209 m -0.717,-1.956 0.717,1.956 -1.739,1.209 -0.383,-0.811 -0.123,-0.073 -0.874,-0.004 -0.256,0.032 -0.996,-0.199 -0.18,-0.113 -0.416,-0.522 1.799,-2.43 0.329,0.266 0.217,0.14 0.126,0.045 0.459,-0.09 0.392,-0.127 0.659,0.492 0.269,0.229 m -4.25,1.475 0.416,0.522 0.18,0.113 0.996,0.199 0.256,-0.032 0.874,0.004 0.123,0.073 0.383,0.811 -1.055,0.919 -1.644,-0.096 -0.529,-2.513 m 0.529,2.513 1.644,0.096 1.641,0.942 -1.483,3.079 -2.722,-1.574 -0.78,-0.446 1.7,-2.097 m -0.92,2.543 2.722,1.574 0.104,0.91 -1.659,2.276 -0.78,-0.982 -1.401,-0.803 1.014,-2.975 m 4.556,3.457 0.321,3.39 -2.817,0.888 -0.144,-0.614 -0.749,-2.361 1.659,-2.276 1.73,0.973 m -4.556,-3.457 -1.014,2.975 -1.682,-1.348 0.609,0.113 0.613,-1.32 0.306,-0.382 0.388,-0.484 0.78,0.446 m 0.391,-5.056 0.529,2.513 -1.7,2.097 -0.388,0.484 -3.006,-2.3 1.744,-1.433 0.171,-1.552 2.65,0.191 m -4.975,-2.087 3.169,-0.379 -0.844,2.275 -0.171,1.552 -1.92,-1.528 -0.234,-1.92 m 0.194,-3.719 0.112,0.185 2.489,2.091 0.374,1.064 -3.169,0.379 -0.059,-0.591 -0.131,-1.112 -0.662,0.076 -0.401,-1.005 -0.023,-0.186 1.47,-0.901 m -4.683,1.474 0.982,-0.14 1.983,-0.216 0.248,-0.217 0.023,0.186 0.401,1.005 0.662,-0.076 0.131,1.112 -4.209,0.1 -0.221,-1.754 m 4.43,1.654 0.059,0.591 0.234,1.92 -1.505,1.658 -2.542,0.248 -0.455,-4.317 4.209,-0.1 m 0.293,2.511 1.92,1.528 -1.744,1.433 -0.752,0.05 0.262,2.176 0.012,0.122 0.086,0.78 0.108,0.951 -0.995,1.387 -1.529,0.822 -2.577,0.188 0.351,-0.855 0.013,-0.167 0.086,-0.127 0.41,-0.473 1.009,-0.639 0.668,-1.069 0.366,-0.384 0.666,-0.837 0.063,-0.186 0.121,-0.504 0.38,-1.569 -0.429,-0.969 1.505,-1.658 m 0.176,2.961 3.006,2.3 -0.306,0.382 -0.613,1.32 -0.609,-0.113 -1.031,0.113 -0.731,0.077 -0.108,-0.951 -0.086,-0.78 -0.012,-0.122 -0.262,-2.176 0.752,-0.05 m 0.447,4.002 1.031,-0.113 1.682,1.348 1.401,0.803 -1.654,2.208 -2.767,-0.365 -0.09,-0.797 0.509,-0.231 0.09,-0.117 0.139,-1.501 -0.012,-0.428 -0.104,-0.627 -0.225,-0.18 m 4.114,2.038 0.78,0.982 0.749,2.361 -2.375,0.009 -0.88,0.109 0.072,-1.253 1.654,-2.208 m -4.114,-2.038 0.225,0.18 0.104,0.627 0.012,0.428 -0.139,1.501 -0.09,0.117 -0.509,0.231 0.09,0.797 -0.356,0.044 -1.063,-2.461 0.995,-1.387 0.731,-0.077 m -3.255,2.286 1.529,-0.822 1.063,2.461 -1.018,1.366 -0.248,-0.419 -0.483,-0.595 -0.689,-0.657 -0.154,-1.334 m 2.592,1.639 0.356,-0.044 2.767,0.365 -0.072,1.253 -1.304,0.347 -1.337,0.153 -0.244,-0.211 -0.617,0.066 -0.446,0.389 -0.113,-0.479 -0.008,-0.473 1.018,-1.366 m 3.931,1.465 0.386,3.277 -0.082,0.226 -0.742,0.081 -1.663,-0.558 -0.083,-2.57 1.304,-0.347 0.88,-0.109 m 0,0 2.375,-0.009 0.144,0.614 1.424,2.154 -1.772,1.591 -2.488,0.298 -0.121,-1.064 0.742,-0.081 0.082,-0.226 -0.386,-3.277 m 6.553,-0.626 1.208,3.227 -0.483,0.429 -1.045,0.837 -0.605,-0.346 -0.375,-0.085 -0.643,0.081 -0.45,-0.317 -0.217,-0.441 -1.424,-2.154 2.817,-0.888 1.217,-0.343 m 1.649,-0.243 0.221,-0.022 1.721,0.228 0.034,0.051 0.007,0.076 -0.013,0.104 -0.059,0.041 -0.04,0.108 -0.042,0.478 0.033,0.107 0.226,0.339 0.268,-0.226 0.195,-0.238 0.005,1.752 -0.727,-0.684 -0.162,-0.009 -0.162,0.134 -1.946,1.231 -1.208,-3.227 1.649,-0.243 m -4.259,3.628 0.217,0.441 0.45,0.317 0.643,-0.081 0.375,0.085 0.605,0.346 0.287,0.235 -0.112,0.329 -0.694,0.897 -0.078,0.974 -1.157,-0.212 -2.308,-1.74 1.772,-1.591 m 0.536,3.335 0,-0.004 1.157,0.212 1.429,2.578 0.082,0.649 -1.072,1.618 -2.516,0.298 -0.27,-2.277 0.253,0.348 0.108,-0.024 0.198,-0.126 0.68,-1.055 0.016,-0.143 -0.065,-2.074 m -2.978,2.493 2.978,-2.493 0.065,2.074 -0.016,0.143 -0.68,1.055 -0.198,0.126 -0.108,0.024 -0.253,-0.348 -1.91,-0.257 -0.40235,-0.15281 0.52435,-0.17119 m -1.818,-3.939 2.488,-0.298 2.308,1.74 0,0.004 -2.978,2.493 -2.4,-1.785 0.582,-2.154 m -1.784,-1.622 1.663,0.558 0.121,1.064 -0.582,2.154 -0.99,-0.626 -0.546,-0.091 -0.537,-0.202 -0.099,-0.077 -0.027,-0.095 -0.134,-0.262 -0.172,-0.22 -0.73,-0.469 -0.233,-0.056 -0.096,0.037 -0.352,-1.118 2.714,-0.597 m -2.727,-2.173 0.446,-0.389 0.617,-0.066 0.244,0.211 1.337,-0.153 0.083,2.57 -2.714,0.597 -0.013,-2.77 m 0,0 0.013,2.77 0.352,1.118 -2.015,0.727 -1.771,-0.154 -0.491,-4.096 3.799,-0.844 0.113,0.479 m -4.272,-3.769 2.577,-0.188 0.154,1.334 0.689,0.657 0.483,0.595 0.248,0.419 0.008,0.473 -3.799,0.844 -0.866,-0.334 -1.118,-2.488 1.624,-1.312 m -0.947,-3.402 1.83,-0.546 1.654,0.618 -0.668,1.069 -1.009,0.639 -0.41,0.473 -0.086,0.127 -0.013,0.167 -1.298,-2.547 m 2.109,-4.129 2.542,-0.248 0.429,0.969 -0.38,1.569 -0.121,0.504 -0.063,0.186 -0.666,0.837 -0.366,0.384 -1.654,-0.618 -0.197,-1.825 -0.173,0.022 -0.185,-1.699 0.834,-0.081 m -0.455,-4.317 0.455,4.317 -2.79,0.271 -1.329,-0.027 -0.149,-1.51 0.216,-0.022 -0.004,-1.745 -0.072,-0.586 3.673,-0.698 m -3.073,-2.529 2.798,0.334 0.054,0.441 0.221,1.754 -3.673,0.698 -0.956,-2.434 0.144,-0.477 1.412,-0.316 m 2.514,-4.925 0.234,1.707 0.406,0.311 0.027,0.04 -0.004,0.041 -0.226,0.388 -0.279,0.306 -0.126,0.595 0.252,1.871 -2.798,-0.334 -0.362,-0.549 0.033,-0.429 0.661,-2.876 0.213,-0.829 0.359,-0.045 1.61,-0.197 m -1.776,12.042 1.956,-0.19 0.185,1.699 0.173,-0.022 0.197,1.825 -1.83,0.546 -1.492,-0.234 -0.265,-1.177 -0.069,-0.617 0.755,-0.073 0.39,-1.757 m -0.811,3.624 1.492,0.234 1.298,2.547 -0.351,0.855 -1.624,1.312 -2.965,0.307 -0.194,-0.695 -0.604,-2.149 0.514,-0.045 1.632,-0.807 0.757,-0.834 0.045,-0.725 m 1.933,7.436 0.866,0.334 0.491,4.096 -3.452,0.428 -0.866,-2.997 -0.077,-0.27 3.038,-1.591 m 1.357,4.43 1.771,0.154 0.46,3.339 -2.29,0.28 -0.036,-0.311 -1.889,0.216 -0.779,-1.716 -0.689,-1.534 3.452,-0.428 m 3.786,-0.573 0.096,-0.037 0.233,0.056 0.73,0.469 0.172,0.22 0.134,0.262 0.027,0.095 0.099,0.077 0.537,0.202 0.546,0.091 -1.402,2.591 -2.032,0.599 -0.591,0.28 -0.104,-0.839 -0.46,-3.339 2.015,-0.727 m 2.574,1.435 0.99,0.626 2.4,1.785 -0.524,0.171 -1.924,2.195 -1.213,-0.185 -0.338,-0.171 -0.793,-1.83 1.402,-2.591 m -8.344,2.816 1.889,-0.216 0.036,0.311 2.29,-0.28 0.104,0.839 -0.685,1.347 -1.185,0.338 -1.115,0.591 -0.3,-1.78 -1.034,-1.15 m 4.91,0.374 0.234,3.909 -2.866,0.365 0.026,-0.037 0.09,-0.406 -0.108,-0.215 -0.266,-0.222 -0.716,-0.193 -0.068,-0.076 -0.023,-0.109 0.121,-0.46 1.115,-0.591 1.185,-0.338 0.685,-1.347 0.591,-0.28 m 0,0 2.032,-0.599 0.793,1.83 0.208,1.492 -0.186,0.284 -0.135,0.609 0.095,0.846 0.036,0.414 -0.568,0.064 -0.496,-0.157 -0.234,-0.283 -0.901,-0.646 -0.307,0.036 -0.103,0.019 -0.234,-3.909 m 3.163,1.402 1.213,0.185 1.013,1.731 -2.582,1.144 -0.095,-0.846 0.135,-0.609 0.186,-0.284 -0.208,-1.492 0.338,0.171 z m 0,0 0,0 m 3.539,-1.857 1.91,0.257 0.27,2.277 -1.739,1.779 -1.754,-0.54 -1.013,-1.731 1.924,-2.195 0.402,0.153 m -17.038,-30.306 1.578,2.664 -0.171,0.528 -0.014,0.108 1.239,-0.135 0.149,1.253 -0.144,0.477 -0.406,0.045 -4.398,0.483 -0.126,-0.443 0.391,-0.643 0.293,-1.204 -0.057,-0.487 0.238,-1.473 0.401,-1.033 1.027,-0.14 m 0,0 2.971,-0.373 0.027,0.193 -0.397,1.442 -0.247,0.51 -0.659,0.198 -0.117,0.694 -1.578,-2.664 m 3.003,-0.378 1.735,-0.203 -0.213,0.829 -0.661,2.876 -0.033,0.429 0.362,0.549 -1.412,0.316 -0.149,-1.253 -1.239,0.135 0.014,-0.108 0.171,-0.528 0.117,-0.694 0.659,-0.198 0.247,-0.51 0.397,-1.442 -0.027,-0.193 0.032,-0.005 m -0.772,5.318 -0.455,1.78 -0.086,0.261 -0.843,0.627 -0.554,0.317 -0.558,1.234 -0.789,0.081 -0.884,-3.001 -0.229,-0.816 4.398,-0.483 m 0.406,-0.045 0.956,2.434 0.072,0.586 0.004,1.745 -0.216,0.022 0.149,1.51 -2.223,0.261 0.019,0.216 -1.731,0.176 -0.721,-2.605 0.789,-0.081 0.558,-1.234 0.554,-0.317 0.843,-0.627 0.086,-0.261 0.455,-1.78 0.406,-0.045 m 0.965,6.297 1.329,0.027 -0.39,1.757 -0.755,0.073 0.069,0.617 -1.723,0.176 -0.594,0.149 -1.24,0.116 -0.221,-0.788 -0.41,-1.474 1.731,-0.176 -0.019,-0.216 2.223,-0.261 m -3.304,2.915 1.24,-0.116 0.594,-0.149 1.723,-0.176 0.265,1.177 -0.045,0.725 -0.757,0.834 -1.632,0.807 -0.514,0.045 -0.874,-3.147 m 4.637,5.684 1.118,2.488 -3.038,1.591 -1.045,-3.772 2.965,-0.307 m 8.912,-21.489 4.023,-0.586 -0.783,2.321 -0.271,0.328 -1.018,0.23 -0.045,-0.324 -0.383,-0.897 -0.308,-0.176 -0.305,0.023 -0.639,-0.361 -0.334,-0.32 0.063,-0.238 m 8.594,-1.307 -0.226,1.027 -0.956,0.743 -0.693,1.258 -0.172,0.974 -3.307,-0.96 0.783,-2.321 0.682,-0.109 3.889,-0.612" />
</svg>
