<?xml version="1.0" encoding="UTF-8" standalone="no"?>
<!-- Created with Inkscape (http://www.inkscape.org/) -->

<svg
   xmlns:dc="http://purl.org/dc/elements/1.1/"
   xmlns:cc="http://creativecommons.org/ns#"
   xmlns:rdf="http://www.w3.org/1999/02/22-rdf-syntax-ns#"
   xmlns:svg="http://www.w3.org/2000/svg"
   xmlns="http://www.w3.org/2000/svg"
   xmlns:sodipodi="http://sodipodi.sourceforge.net/DTD/sodipodi-0.dtd"
   xmlns:inkscape="http://www.inkscape.org/namespaces/inkscape"
   version="1.0"
   width="555.22198"
   height="351.66797"
   id="svg2"
   inkscape:version="0.48.1 r9760"
   sodipodi:docname="bethlehem.svg">
  <metadata
     id="metadata22">
    <rdf:RDF>
      <cc:Work
         rdf:about="">
        <dc:format>image/svg+xml</dc:format>
        <dc:type
           rdf:resource="http://purl.org/dc/dcmitype/StillImage" />
      </cc:Work>
    </rdf:RDF>
  </metadata>
  <defs
     id="defs20" />
  <sodipodi:namedview
     pagecolor="#ffffff"
     bordercolor="#666666"
     borderopacity="1"
     objecttolerance="10"
     gridtolerance="10"
     guidetolerance="10"
     inkscape:pageopacity="0"
     inkscape:pageshadow="2"
     inkscape:window-width="640"
     inkscape:window-height="480"
     id="namedview18"
     showgrid="false"
     inkscape:zoom="0.83029853"
     inkscape:cx="277.61099"
     inkscape:cy="175.83398"
     inkscape:window-x="0"
     inkscape:window-y="25"
     inkscape:window-maximized="0"
     inkscape:current-layer="svg2" />
  <path
     id="42095"
     style="font-size:12px;fill:#0000ff;fill-rule:nonzero;stroke:#000000;stroke-opacity:1;stroke-width:0.1;stroke-miterlimit:4;stroke-dasharray:none;stroke-linecap:butt;marker-start:none;stroke-linejoin:bevel"
     d="m 494.04698,114.413 0.915,1.078 0.032,0.076 -0.005,0.076 -0.324,0.993 -0.197,0.273 -0.146,0.02 -0.144,-0.014 -0.076,0.021 -0.164,0.385 0.1,0.778 0.238,0.92 0.064,0.117 -1.1,1.2 -0.734,-0.587 -1,-0.613 -1.28,-0.792 -0.127,-0.16 -0.171,-0.455 1.204,-0.625 2.915,-2.691 m -4.119,3.316 0.171,0.455 0.127,0.16 1.28,0.792 1,0.613 0.734,0.587 -1.099,1.815 -0.514,-0.269 -4.079,-2.173 1.113,-1.015 1.267,-0.965 m 1.108,-6.255 2.141,-0.652 0.009,1.364 1.402,0.586 0.324,-0.203 0.131,-0.184 0.054,0.067 -1.05,1.961 -2.915,2.691 -1.259,-1.451 0.569,-0.695 -1.51,-1.289 -0.307,-0.108 0.347,-0.598 0.699,-1.097 1.365,-0.392 m -9.091,-8.117 5.806,-1.258 1.19,4.49 -2.425,0.523 -1.388,0.275 -2.308,0.5 -0.031,-0.107 -1.226,-4.342 0.382,-0.081 m -4.226,0.87 3.844,-0.789 1.226,4.342 -0.685,1.604 -5.706,0.548 -0.59,0.038 -1.542,-5.053 3.453,-0.69 m 10.032,-2.128 1.153,-0.256 0.181,0.041 0.568,0.4 0.171,0.162 0.302,0.645 1.181,0.194 1.532,2.749 -0.704,2.127 -0.891,2.102 -0.208,1.211 -1.365,0.392 0.379,-0.28 0.157,-0.189 -1.266,-4.808 -1.19,-4.49 m -1.235,5.013 2.425,-0.523 1.266,4.808 -0.157,0.189 -0.379,0.28 -0.699,1.097 -0.311,-0.032 -0.132,-0.069 -0.08,-0.131 -0.229,-0.891 -0.731,-0.96 -0.571,-0.119 -0.569,-0.211 -0.235,-0.256 -0.076,-0.227 0.374,-1.121 -0.338,-0.162 0.121,-0.703 0.253,-0.871 0.068,-0.098 m -3.727,0.668 0.031,0.107 2.308,-0.5 1.388,-0.275 -0.068,0.098 -0.253,0.871 -0.121,0.703 0.338,0.162 -0.374,1.121 -0.139,0.105 -1.389,0.793 -2.556,0.635 0.15,-2.216 0.685,-1.604 m 10.05,-1.746 0.258,0.591 0.414,0.405 0.293,0.279 1.027,0.533 0.167,0.077 0.758,-0.041 0.423,-0.047 0.767,0.75 -0.569,0.41 -0.27,0.293 -0.23,0.473 -0.049,0.144 -0.117,0.5 -0.018,0.176 0.04,0.041 0.018,0.212 -0.058,0.388 -0.266,0.627 -0.384,0.54 -0.131,0.184 -0.324,0.203 -1.402,-0.586 -0.009,-1.364 -2.141,0.652 0.208,-1.211 0.891,-2.102 0.704,-2.127 m -6.935,10.895 2.248,-1.749 -0.122,-0.253 -0.378,-0.307 -0.045,-0.271 0.004,-0.112 0.028,-0.058 0.519,-0.618 0.039,-0.031 0.23,-0.082 0.198,0.113 0.307,0.108 1.51,1.289 -0.569,0.695 1.259,1.451 -1.204,0.625 -1.267,0.965 -2.757,-1.765 m -3.95,-5.329 2.556,-0.635 1.389,-0.793 0.139,-0.105 0.076,0.227 0.235,0.256 0.569,0.211 0.571,0.119 0.731,0.96 0.229,0.891 0.08,0.131 0.132,0.069 0.311,0.032 -0.347,0.598 -0.198,-0.113 -0.23,0.082 -0.039,0.031 -0.519,0.618 -0.028,0.058 -0.004,0.112 0.045,0.271 0.378,0.307 0.122,0.253 -2.248,1.749 -2.096,-0.041 -1.146,-2.177 -0.585,-0.847 -0.063,-0.299 -0.141,-1.036 0.081,-0.929 m 9.673,10.282 -1.027,2.955 -1.406,1.696 -3.143,-1.704 -3.24,-1.708 1.231,-0.519 0.459,-0.117 0.194,-0.099 1.547,-1.063 0.427,-0.527 0.014,-0.406 0.865,-0.681 4.079,2.173 m -7.819,-4.994 2.096,0.041 2.757,1.765 -1.113,1.015 -0.865,0.681 -0.014,0.406 -0.427,0.527 -1.547,1.063 -0.194,0.099 -0.459,0.117 -1.231,0.519 -1.064,-0.567 -1.856,-0.979 2.749,-2.132 0.622,-0.477 -0.005,-1.087 0.249,-0.48 0.302,-0.511 m -2.061,5.666 1.064,0.567 3.24,1.708 -1.329,1.086 -1.19,0.478 -1.131,0.78 -0.032,0.022 -1.771,-3.336 1.149,-1.305" />
</svg>
