<?xml version="1.0" encoding="UTF-8" standalone="no"?>
<!-- Created with Inkscape (http://www.inkscape.org/) -->

<svg
   xmlns:dc="http://purl.org/dc/elements/1.1/"
   xmlns:cc="http://creativecommons.org/ns#"
   xmlns:rdf="http://www.w3.org/1999/02/22-rdf-syntax-ns#"
   xmlns:svg="http://www.w3.org/2000/svg"
   xmlns="http://www.w3.org/2000/svg"
   xmlns:sodipodi="http://sodipodi.sourceforge.net/DTD/sodipodi-0.dtd"
   xmlns:inkscape="http://www.inkscape.org/namespaces/inkscape"
   version="1.0"
   width="555.22198"
   height="351.66797"
   id="svg2"
   inkscape:version="0.48.1 r9760"
   sodipodi:docname="california.svg">
  <metadata
     id="metadata14">
    <rdf:RDF>
      <cc:Work
         rdf:about="">
        <dc:format>image/svg+xml</dc:format>
        <dc:type
           rdf:resource="http://purl.org/dc/dcmitype/StillImage" />
      </cc:Work>
    </rdf:RDF>
  </metadata>
  <defs
     id="defs12" />
  <sodipodi:namedview
     pagecolor="#ffffff"
     bordercolor="#666666"
     borderopacity="1"
     objecttolerance="10"
     gridtolerance="10"
     guidetolerance="10"
     inkscape:pageopacity="0"
     inkscape:pageshadow="2"
     inkscape:window-width="640"
     inkscape:window-height="480"
     id="namedview10"
     showgrid="false"
     inkscape:zoom="0.83029853"
     inkscape:cx="277.61099"
     inkscape:cy="175.83398"
     inkscape:window-x="0"
     inkscape:window-y="25"
     inkscape:window-maximized="0"
     inkscape:current-layer="svg2" />
  <path
     id="06085-california"
     style="font-size:12px;fill:#ff0000;fill-rule:nonzero;stroke:#000000;stroke-opacity:1;stroke-width:0.1;stroke-miterlimit:4;stroke-dasharray:none;stroke-linecap:butt;marker-start:none;stroke-linejoin:bevel"
     d="m 31.8095,145.78321 -1.375,2.1875 0,0.15625 0.03125,0.0625 0.0625,0.15625 2.75,-1.90625 -0.0625,0 -1.25,-0.4375 -0.15625,-0.21875 z m -6.02652,-12.81821 0.122,-0.064 0.816,0.019 0.081,0.021 2.132,2.538 1.131,1.262 -0.36,0.938 -0.374,1.185 -0.028,0.1 0.068,0.107 0.167,0.207 0.167,0.277 0.058,0.143 -0.004,0.04 -0.595,0.581 -0.266,-0.031 -0.167,-0.086 -0.113,-0.108 -3.177,-3.646 0.527,-2.808 -0.031,-0.239 -0.113,-0.329 -0.041,-0.107 m 3.813,9.063 -1.077,-0.306 0,-0.009 0.013,-0.199 0.127,-0.735 0.117,-0.067 0.464,-0.091 0.388,0.027 0.185,0.046 0.068,0.1 0.071,0.22 -0.058,0.77 -0.058,0.186 -0.24,0.058 m 2.466,-4.061 0.87,0.527 0.5,0.145 2.127,0.517 0.144,0.015 0.131,-0.009 0.091,-0.059 0.081,-0.099 0.207,0.568 0.09,0.121 0.253,0.104 0.112,0.026 0.392,0.009 0.442,-0.125 0.239,-0.15 0.049,-0.089 0.028,-0.181 0.049,-0.08 0.072,-0.036 0.112,0 0.573,0.103 0.18,0.094 0.032,0.041 -0.708,3.497 -0.73,0.081 -3.565,0.095 -1.762,-1.812 -0.041,-0.301 -0.193,-0.604 -0.303,-0.424 -0.054,-0.031 -0.446,-0.009 -0.387,-0.284 -0.37,-0.843 1.28,-0.28 0.212,-0.1 0.275,-0.215 0.027,-0.086 -0.009,-0.126 m -1.028,1.934 0.446,0.009 0.054,0.031 0.303,0.424 0.193,0.604 0.041,0.301 1.762,1.812 3.565,-0.095 0.73,-0.081 -0.405,1.461 -0.555,2.019 0.072,0.154 0.55,0.838 -0.009,-0.01 -3.74,-1.067 -0.122,-0.014 -0.104,0.077 -0.077,0.036 -0.351,0.045 -0.18,-0.023 -1.236,-0.423 -0.161,-0.234 -0.185,-0.464 0.009,-2.263 -0.78,-2.263 0.18,-0.874 m -1.438,2.127 -0.018,0.005 -0.22,1.316 0.134,0.211 1.56,1.637 0.113,0.071 0.27,0.095 0.185,-0.049 0.005,-0.013 0.185,0.464 -1.371,2.204 -0.189,0.707 -0.068,0.175 -0.879,-0.243 -0.837,0.14 -0.082,0.51 0.027,0.536 -0.081,-0.131 -0.275,-0.451 -0.37,-0.69 -0.045,-0.127 0.023,-0.612 0.167,-3.344 0.31,-1.361 0.379,-1.356 1.077,0.306" />
</svg>
