<?xml version="1.0" encoding="UTF-8" standalone="no"?>
<!-- Created with Inkscape (http://www.inkscape.org/) -->

<svg
   xmlns:dc="http://purl.org/dc/elements/1.1/"
   xmlns:cc="http://creativecommons.org/ns#"
   xmlns:rdf="http://www.w3.org/1999/02/22-rdf-syntax-ns#"
   xmlns:svg="http://www.w3.org/2000/svg"
   xmlns="http://www.w3.org/2000/svg"
   xmlns:sodipodi="http://sodipodi.sourceforge.net/DTD/sodipodi-0.dtd"
   xmlns:inkscape="http://www.inkscape.org/namespaces/inkscape"
   version="1.0"
   width="555.22198"
   height="351.66797"
   id="svg2"
   inkscape:version="0.48.1 r9760"
   sodipodi:docname="centralgulfcoast.svg">
  <metadata
     id="metadata37">
    <rdf:RDF>
      <cc:Work
         rdf:about="">
        <dc:format>image/svg+xml</dc:format>
        <dc:type
           rdf:resource="http://purl.org/dc/dcmitype/StillImage" />
      </cc:Work>
    </rdf:RDF>
  </metadata>
  <defs
     id="defs35" />
  <sodipodi:namedview
     pagecolor="#ffffff"
     bordercolor="#666666"
     borderopacity="1"
     objecttolerance="10"
     gridtolerance="10"
     guidetolerance="10"
     inkscape:pageopacity="0"
     inkscape:pageshadow="2"
     inkscape:window-width="640"
     inkscape:window-height="480"
     id="namedview33"
     showgrid="false"
     inkscape:zoom="0.83029853"
     inkscape:cx="277.61099"
     inkscape:cy="175.83398"
     inkscape:window-x="0"
     inkscape:window-y="25"
     inkscape:window-maximized="0"
     inkscape:current-layer="svg2" />
  <path
     id="01005"
     style="font-size:12px;fill:#0000ff;fill-rule:nonzero;stroke:#000000;stroke-opacity:1;stroke-width:0.1;stroke-miterlimit:4;stroke-dasharray:none;stroke-linecap:butt;marker-start:none;stroke-linejoin:bevel"
     d="m 412.51498,245.271 0.03,0.964 -0.509,2.769 0.19,0.252 -0.104,-0.091 -0.185,-0.058 -0.062,0 -0.055,0.032 -0.289,0.365 -0.167,0.5 -0.058,0.099 -2.181,0.189 0.122,1.123 -3.611,0.415 0.618,-3.476 -0.009,-0.102 0.064,-0.312 0.496,-0.973 0.855,-0.321 0.888,-0.297 -0.072,-0.473 -0.094,-1.127 0.175,-0.112 1.649,-0.208 0.347,0.405 0.041,0.117 0.447,0.47 0.075,0.031 1.399,-0.181 m -10.178,1.286 0.446,-0.186 0.474,0.041 0.202,0.072 0.523,0.987 0.82,1.042 1.452,-0.159 -0.618,3.476 -0.445,0.049 -3.89,0.415 -0.96,-4.431 1.996,-1.306 m -1.996,1.306 0.96,4.431 0.13,1.028 -0.13,0.108 -0.415,0.044 0.127,1.155 -0.744,0.063 -0.185,-0.168 -0.086,-0.743 -0.046,-0.188 -0.203,0.017 -1.098,0.13 -1.082,0.136 -0.171,-1.673 0.554,-0.058 -0.049,-0.797 -0.347,-3.174 0.342,-1.154 1.113,-0.126 0.132,1.114 1.198,-0.145 m -7.23,0.78 4.445,-0.469 0.347,3.174 0.049,0.797 -0.554,0.058 0.171,1.673 -2.208,0.239 -1.506,0.126 -0.288,-0.217 -0.581,-1.094 -0.141,-1.542 -0.108,-1 0.374,-1.745 m -7.026,-3.276 0.292,-0.078 0.068,0.041 1.347,0.942 1.736,1.6 2.943,-0.284 0.64,1.055 -0.374,1.745 -1.96,0.203 -1.586,0.117 -2.917,0.297 -2.001,-1.925 0.451,-0.226 -0.136,-1.63 0.951,-1.676 0.091,-0.155 0.098,-0.036 0.189,-0.013 0.168,0.023 m 6.652,5.021 0.108,1 -0.067,0.009 -0.249,0.122 -0.923,0.509 -1.122,1.014 -0.032,0.234 -0.78,2.285 -0.667,0.748 -1.189,1.687 -0.073,0.176 -0.005,0.074 -0.685,0.079 -0.612,0.432 -0.109,0.045 -0.643,-0.166 -1.696,-0.537 -0.18,-0.118 -0.04,-0.076 -0.028,-0.135 0,-0.059 0.187,-0.468 1.008,-0.856 0.122,-0.045 0.134,-0.011 0.23,0.177 0.144,0.023 0.131,-0.077 0.231,-0.307 0.081,-0.392 -0.141,-1.261 -0.162,-1.728 0.393,-1.554 0.171,-0.207 2.917,-0.297 1.586,-0.117 1.96,-0.203 m -8.464,-1.308 2.001,1.925 -0.171,0.207 -0.393,1.554 0.162,1.728 0.141,1.261 -0.081,0.392 -0.231,0.307 -0.131,0.077 -0.144,-0.023 -0.23,-0.177 -0.134,0.011 -0.122,0.045 -1.008,0.856 -0.187,0.468 0,0.059 0.028,0.135 0.04,0.076 0.18,0.118 -1.874,1.514 -0.271,-0.743 0.153,-0.519 0.194,-0.261 0.22,-0.23 0.105,-0.396 0.031,-0.42 -0.014,-0.081 -0.31,-1.253 -0.428,-0.393 -0.406,-0.102 -0.455,-0.158 -0.149,-0.09 -0.563,-0.483 -0.195,-0.707 -0.013,-0.546 -0.153,-3.758 4.408,-0.393 m -8.519,-3.402 5.315,-0.465 -0.505,0.072 -0.281,0.176 -0.148,0.162 -0.824,3.074 0.05,0.474 0.054,0.13 0.08,0.089 0.09,0.051 0.28,0.032 0.153,3.758 -4.102,0.352 -0.261,-2.528 0.073,-4.323 0.026,-1.054 m 0.162,7.905 4.102,-0.352 0.013,0.546 0.195,0.707 0.563,0.483 0.149,0.09 0.455,0.158 0.406,0.102 0.428,0.393 0.31,1.253 0.014,0.081 -0.031,0.42 -0.105,0.396 -0.22,0.23 -0.194,0.261 -0.153,0.519 0.271,0.743 -0.258,0.415 -0.527,0.284 -2.24,0.316 -1.105,0.346 -1.122,0.089 -0.951,-7.48 m 19.445,0.532 0.431,4.255 -0.176,0.09 -0.5,-0.014 -0.089,-0.076 -0.037,-0.051 -0.012,-0.117 0.012,-0.563 0.018,-0.085 -7.27,0.692 0.005,-0.074 0.073,-0.176 1.189,-1.687 0.667,-0.748 0.78,-2.285 0.032,-0.234 1.122,-1.014 0.923,-0.509 0.249,-0.122 0.067,-0.009 0.141,1.542 0.581,1.094 0.288,0.217 1.506,-0.126 m 0.431,4.255 0.365,2.52 -1.058,0.08 -4.147,0.37 -4.795,0.455 -0.468,-3.159 0.643,0.166 0.109,-0.045 0.612,-0.432 0.685,-0.079 7.27,-0.692 -0.018,0.085 -0.012,0.563 0.012,0.117 0.037,0.051 0.089,0.076 0.5,0.014 0.176,-0.09 m -11.799,-0.271 1.696,0.537 0.468,3.159 -0.249,1.726 0.145,0.246 1.122,1.223 0.353,0.243 0.062,0.023 0.185,0.032 0.374,0.193 0.496,0.307 0.135,0.221 0.04,0.153 0.018,0.212 -0.112,2.817 -0.149,1.41 -0.712,0.321 -1.501,0.531 -1.573,0.397 -0.419,0.067 -1.379,0.087 -0.054,-0.072 0.572,-0.208 1.496,-0.956 -1.983,-4.025 -0.144,-0.202 -0.067,-0.054 -0.514,-0.185 -0.153,-0.049 -0.24,-0.461 -0.188,-0.455 0.021,-0.275 0.311,-1.216 0.47,-0.868 -0.329,-1.751 -0.24,-1.019 -0.09,-0.18 0.258,-0.415 1.874,-1.514 m -2.132,1.929 0.09,0.18 0.24,1.019 0.329,1.751 -0.47,0.868 -0.311,1.216 -0.021,0.275 0.188,0.455 0.24,0.461 -0.159,-0.055 -0.041,0.027 -0.508,0.54 -0.307,1.889 -0.969,1.87 -0.644,-0.206 -0.902,-0.018 -0.247,0.041 -0.117,0.04 -0.208,0.22 0,0.005 -0.572,-4.691 -0.414,-3.363 -0.191,-1.489 1.122,-0.089 1.105,-0.346 2.24,-0.316 0.527,-0.284 m 15.708,-6.152 1.082,-0.136 1.098,-0.13 0.203,-0.017 0.046,0.188 0.086,0.743 0.185,0.168 0.744,-0.063 0.338,3.181 0.328,2.538 -2.213,0.225 -3.309,0.317 -0.365,-2.52 -0.431,-4.255 2.208,-0.239 m 7.622,-1.997 0.558,5.413 -4.398,0.518 -0.338,-3.181 -0.127,-1.155 0.415,-0.044 0.13,-0.108 -0.13,-1.028 3.89,-0.415 m 0.445,-0.049 3.611,-0.415 0.428,3.908 0.045,0.369 -0.698,0.599 -0.167,0.015 -0.496,-0.046 -0.285,-0.077 -0.374,-0.089 -0.175,-0.009 -0.185,0.009 -0.257,0.085 -0.062,0.054 -0.389,0.978 -0.883,0.081 -0.558,-5.413 0.445,-0.049 m 0.113,5.462 0.883,-0.081 1.37,-0.144 1.086,-0.185 0.177,1.578 0.086,1.022 -0.11,0.019 -5.889,0.681 -1.673,0.166 -0.328,-2.538 4.398,-0.518 m 3.498,-5.877 -0.122,-1.123 2.181,-0.189 0.058,-0.099 0.167,-0.5 0.289,-0.365 0.055,-0.032 0.062,0 0.185,0.058 0.104,0.091 1.199,2.989 -0.136,2.749 -3.614,0.329 -0.428,-3.908 m 0.428,3.908 3.614,-0.329 -0.117,0.342 -0.076,0.334 0.153,0.915 0.112,0.261 0.095,0.054 0.095,0 0.082,0.023 0.521,0.573 0.082,0.147 0.119,0.257 0.323,0.934 -5.327,0.648 -0.086,-1.022 -0.177,-1.578 -1.086,0.185 -1.37,0.144 0.389,-0.978 0.062,-0.054 0.257,-0.085 0.185,-0.009 0.175,0.009 0.374,0.089 0.285,0.077 0.496,0.046 0.167,-0.015 0.698,-0.599 -0.045,-0.369 m 1.902,14.233 3.037,-0.329 1.339,2.807 0.131,1.754 -0.609,0.87 -0.166,-0.027 -0.983,0.965 -0.104,0.22 -1.05,0.086 -0.031,-1.284 -0.032,-0.14 -0.166,-0.275 -0.645,-0.813 -0.267,-0.255 -0.043,-0.036 -0.411,-3.543 m -0.465,-4.687 1.483,-0.154 0.839,-0.139 0.784,-0.587 1.816,-0.198 -0.527,1.204 -0.37,2.378 -0.523,1.854 -3.037,0.329 -0.465,-4.687 m -24.955,-3.074 4.795,-0.455 -0.668,0.553 -0.494,0.434 -0.078,0.134 -0.207,0.763 -0.035,0.189 0.135,0.964 0.036,0.213 0.171,0.463 0.568,1.362 1.394,2.528 0.824,0.5 1.803,-0.293 -2.565,0.798 -0.096,0.023 -0.067,0.017 -0.392,0.1 -0.26,0.05 -0.416,0.081 -1.725,0.41 -1.015,0.293 0.712,-0.321 0.149,-1.41 0.112,-2.817 -0.018,-0.212 -0.04,-0.153 -0.135,-0.221 -0.496,-0.307 -0.374,-0.193 -0.185,-0.032 -0.062,-0.023 -0.353,-0.243 -1.122,-1.223 -0.145,-0.246 0.249,-1.726 m 4.795,-0.455 4.147,-0.37 0.599,7.847 -1.297,0.333 -1.803,0.293 -0.824,-0.5 -1.394,-2.528 -0.568,-1.362 -0.171,-0.463 -0.036,-0.213 -0.135,-0.964 0.035,-0.189 0.207,-0.763 0.078,-0.134 0.494,-0.434 0.668,-0.553 m 8.514,-0.767 0.703,7.906 -4.471,0.338 -0.599,-7.847 1.058,-0.08 3.309,-0.317 m 2.213,-0.225 1.673,-0.166 0.365,3.705 2.127,-0.208 -0.141,0.088 -0.512,0.89 0.053,0.392 0.175,0.194 -0.383,1.87 -0.4,0.762 0.131,1.546 -4.598,-0.942 -0.703,-7.906 2.213,-0.225 m 1.673,-0.166 5.889,-0.681 -0.878,2.254 0.028,0.138 0,0.11 -0.117,0.887 -1.294,0.108 -0.033,-0.374 -0.202,-0.167 -0.771,0.072 -0.063,0.293 -0.067,0.857 -2.127,0.208 -0.365,-3.705 m 2.492,3.497 0.067,-0.857 0.063,-0.293 0.771,-0.072 0.202,0.167 0.033,0.374 1.294,-0.108 0.117,-0.887 0,-0.11 -0.028,-0.138 1.055,-0.105 0.852,0.479 0.279,2.794 -0.563,0.063 0.166,1.671 -0.671,0.073 -3.376,0.325 -1.195,0.518 -0.274,0.302 0.4,-0.762 0.383,-1.87 -0.175,-0.194 -0.053,-0.392 0.512,-0.89 0.141,-0.088 m 3.507,-4.197 5.327,-0.648 1.946,3.524 -0.59,1.433 -1.816,0.198 -0.784,0.587 -0.839,0.139 -1.483,0.154 -0.563,0.054 -0.279,-2.794 -0.852,-0.479 -1.055,0.105 0.878,-2.254 0.11,-0.019 m 1.761,5.387 0.465,4.687 0.411,3.543 -1.16,-0.352 -0.252,-0.104 -0.081,-0.053 -0.306,-0.218 -0.387,-0.356 -2.44,-1.415 -0.179,-0.098 -0.127,-0.072 -0.121,-0.068 -0.195,-0.095 -0.422,-0.216 -0.177,-0.086 -0.144,-0.068 -0.172,-0.071 -0.207,-0.096 -0.184,-0.066 -0.667,-0.244 -0.131,-1.546 0.274,-0.302 1.195,-0.518 3.376,-0.325 0.671,-0.073 -0.166,-1.671 0.563,-0.063 0.563,-0.054" />
</svg>
