<?xml version="1.0" encoding="UTF-8" standalone="no"?>
<!-- Created with Inkscape (http://www.inkscape.org/) -->

<svg
   xmlns:dc="http://purl.org/dc/elements/1.1/"
   xmlns:cc="http://creativecommons.org/ns#"
   xmlns:rdf="http://www.w3.org/1999/02/22-rdf-syntax-ns#"
   xmlns:svg="http://www.w3.org/2000/svg"
   xmlns="http://www.w3.org/2000/svg"
   xmlns:sodipodi="http://sodipodi.sourceforge.net/DTD/sodipodi-0.dtd"
   xmlns:inkscape="http://www.inkscape.org/namespaces/inkscape"
   version="1.0"
   width="555.22198"
   height="351.66797"
   id="svg2"
   inkscape:version="0.48.1 r9760"
   sodipodi:docname="centralpennsylvania.svg">
  <metadata
     id="metadata32">
    <rdf:RDF>
      <cc:Work
         rdf:about="">
        <dc:format>image/svg+xml</dc:format>
        <dc:type
           rdf:resource="http://purl.org/dc/dcmitype/StillImage" />
      </cc:Work>
    </rdf:RDF>
  </metadata>
  <defs
     id="defs30" />
  <sodipodi:namedview
     pagecolor="#ffffff"
     bordercolor="#666666"
     borderopacity="1"
     objecttolerance="10"
     gridtolerance="10"
     guidetolerance="10"
     inkscape:pageopacity="0"
     inkscape:pageshadow="2"
     inkscape:window-width="640"
     inkscape:window-height="480"
     id="namedview28"
     showgrid="false"
     inkscape:zoom="0.83029853"
     inkscape:cx="277.61099"
     inkscape:cy="175.83398"
     inkscape:window-x="0"
     inkscape:window-y="25"
     inkscape:window-maximized="0"
     inkscape:current-layer="svg2" />
  <path
     id="42041"
     style="font-size:12px;fill:#0000ff;fill-rule:nonzero;stroke:#000000;stroke-opacity:1;stroke-width:0.1;stroke-miterlimit:4;stroke-dasharray:none;stroke-linecap:butt;marker-start:none;stroke-linejoin:bevel"
     d="m 478.72698,126.177 0.795,1.198 -0.429,0.599 -1.186,0.992 -0.658,0.947 -0.243,0.369 -0.348,0.317 -0.675,0.279 -1.104,0.509 -0.532,0.761 -0.383,-0.73 -1.465,-1.672 -0.262,-0.415 0.104,-0.161 0.113,0.161 1.776,-1.303 3.525,-1.324 0.428,-0.162 0.544,-0.365 m -0.36,-7.261 -0.094,0.595 -0.104,1.135 0.081,0.343 -0.018,0.225 -0.045,0.172 -0.073,0.166 -0.359,0.64 -0.076,0.09 -0.032,-0.095 -0.055,-0.045 -0.991,-0.175 -0.676,-0.027 -0.375,0.226 -1.339,0.089 -0.941,-1.321 0.386,-0.233 2.108,-1.06 1.247,-0.532 1.036,-0.211 0.32,0.018 m -1.582,-3.084 1.465,-0.738 0.09,1.618 -0.094,1.343 0.022,0.027 0.538,-0.216 0.656,-0.316 0.289,0 0.207,0.117 0.992,0.707 1.69,1.069 -2.749,2.132 -0.405,0.126 -1.114,0.739 -0.447,0.176 -0.045,0.018 -0.112,-0.028 -0.157,-0.17 0.068,-0.154 0.076,-0.09 0.359,-0.64 0.073,-0.166 0.045,-0.172 0.018,-0.225 -0.081,-0.343 0.104,-1.135 0.094,-0.595 -0.253,-0.067 -0.323,-0.24 -0.316,-0.42 -0.113,-0.229 0.012,-0.162 -0.35,-1.412 -0.239,-0.554 m -2.519,-10.915 1.542,5.053 -0.044,0.107 -0.647,0.633 -2.167,0.512 -3.831,0.803 -1.235,-5.805 6.021,-1.223 0.361,-0.08 m -6.382,1.303 1.235,5.805 0.175,0.811 -3.683,0.761 -2.37,-1.442 -0.951,-4.862 4.282,-0.808 1.312,-0.265 m 8.514,3.712 5.706,-0.548 -0.15,2.216 -0.081,0.929 -1.203,0.69 -0.995,-0.023 -0.446,-0.058 -1.763,-0.993 -1.068,-2.213 m 1.852,5.162 0.915,0.032 0.442,0.959 0.496,0.194 0.748,1.091 0.081,0.166 0.018,0.838 -0.992,-0.707 -0.207,-0.117 -0.289,0 -0.656,0.316 -0.538,0.216 -0.022,-0.027 0.094,-1.343 -0.09,-1.618 m -2.442,-5.124 0.59,-0.038 1.068,2.213 1.763,0.993 0.446,0.058 0.995,0.023 -1.505,1.907 -0.915,-0.032 -1.465,0.738 -0.627,-0.003 -0.012,0.815 -1.525,0.554 -0.188,0.041 -3.223,-2.263 -1.149,-1.024 -0.667,-0.643 -0.1,-0.473 -0.175,-0.811 3.831,-0.803 2.167,-0.512 0.647,-0.633 0.044,-0.107 m -6.514,2.866 0.1,0.473 0.667,0.643 1.149,1.024 3.223,2.263 0.188,-0.041 0.069,0.32 -1.727,1.081 -1.532,0.64 -0.888,-0.941 -0.148,-0.292 -0.357,-0.19 -3.295,-0.934 -0.81,0.902 -0.677,-0.707 0.355,-3.48 3.683,-0.761 m 5.327,4.362 1.525,-0.554 0.012,-0.815 0.627,0.003 0.239,0.554 0.35,1.412 -0.012,0.162 0.113,0.229 0.316,0.42 0.323,0.24 0.253,0.067 -0.32,-0.018 -1.036,0.211 -1.247,0.532 -2.108,1.06 -0.386,0.233 -0.167,-0.496 0.658,-0.986 0.486,-1.163 0.443,-0.771 -0.069,-0.32 m -8.688,0.586 0.81,-0.902 3.295,0.934 0.357,0.19 0.148,0.292 0.888,0.941 1.532,-0.64 1.727,-1.081 -0.443,0.771 -0.486,1.163 -0.658,0.986 -2.732,2.092 -0.241,0.253 -2.174,0.721 -1.754,-0.293 -2.342,0.522 -0.168,-0.207 -0.013,-0.042 1.086,-2.257 0.108,-0.121 0.46,-0.405 0.54,-0.222 0.051,-0.058 0.116,-0.802 -0.013,-0.308 -0.094,-1.527 m 13.958,3.791 1.856,0.979 -1.149,1.305 1.771,3.336 0.032,-0.022 -1.293,1.284 -1.586,-1.082 -0.795,-1.198 -0.982,-0.19 -0.145,-0.076 -0.13,-0.244 -0.009,-0.045 0.072,-2.601 0.078,-0.585 0.157,0.17 0.112,0.028 0.045,-0.018 0.447,-0.176 1.114,-0.739 0.405,-0.126 m -1.164,4.602 -0.544,0.365 -0.428,0.162 -3.525,1.324 -1.776,1.303 -0.113,-0.161 -0.783,-1.046 0.161,-0.32 0.825,-1.321 0.726,-0.735 1.37,-1.262 1.032,-0.793 1.939,-1.257 -0.078,0.585 -0.072,2.601 0.009,0.045 0.13,0.244 0.145,0.076 0.982,0.19 m -1.048,-3.895 -0.068,0.154 -1.939,1.257 -1.032,0.793 -1.37,1.262 -0.726,0.735 -0.825,1.321 -0.161,0.32 -0.236,0.391 -0.752,-1.379 0.997,-1.983 0.896,-1.486 0.319,-0.312 0.587,-0.505 0.306,-0.23 0.536,-0.365 1.339,-0.089 0.375,-0.226 0.676,0.027 0.991,0.175 0.055,0.045 0.032,0.095 m -4.576,-1.844 0.167,0.496 0.941,1.321 -0.536,0.365 -0.306,0.23 -0.587,0.505 -0.319,0.312 -0.896,1.486 -0.997,1.983 -0.073,0.15 -0.639,0.188 -0.252,0.037 -0.104,-0.068 -0.51,-0.437 0.293,-1.884 0.068,-0.234 0.122,-0.32 0.284,-0.542 0.545,-1.198 0.067,-0.298 2.732,-2.092 m -6.901,2.773 1.754,0.293 2.174,-0.721 0.241,-0.253 -0.067,0.298 -0.545,1.198 -0.284,0.542 -0.122,0.32 -0.068,0.234 -0.293,1.884 0.51,0.437 0.104,0.068 0.252,-0.037 0.639,-0.188 0.073,-0.15 0.752,1.379 -1.049,2.88 -0.69,-0.401 -1.533,-0.116 -0.631,-0.307 -1.501,-1.47 0.636,-1.983 0.117,-0.478 0.019,-0.122 -0.009,-0.089 -0.28,-0.429 -0.532,-0.347 -0.523,-1.423 0.036,-0.149 0.104,-0.194 0.716,-0.676 m -2.342,0.522 2.342,-0.522 -0.716,0.676 -0.104,0.194 -0.036,0.149 0.523,1.423 0.532,0.347 0.28,0.429 0.009,0.089 -0.019,0.122 -0.117,0.478 -0.636,1.983 -0.066,0.352 -0.1,0.378 -1.56,-0.107 -1.833,-0.343 1.639,-5.562 -0.138,-0.086 m -1.501,5.648 1.833,0.343 1.56,0.107 0.1,-0.378 0.066,-0.352 1.501,1.47 -0.126,0.595 -0.31,1.889 -0.33,2.154 -0.27,0.861 -0.271,0.604 -4.146,0.765 0.229,-1.005 0.028,-0.373 -0.406,-3.178 0.375,-2.362 0.167,-1.14 m 5.06,1.19 0.631,0.307 1.533,0.116 0.69,0.401 -0.099,0.109 -0.055,0.094 -0.234,0.641 -0.041,0.73 -0.212,1.244 -0.121,0.455 -0.437,1.073 -0.235,0.419 -2.361,0.446 -0.366,0.068 0.271,-0.604 0.27,-0.861 0.33,-2.154 0.31,-1.889 0.126,-0.595 m 3.903,-2.056 0.236,-0.391 0.783,1.046 -0.104,0.161 0.262,0.415 1.465,1.672 0.383,0.73 0.685,2.839 -0.094,0.019 -6.099,1.154 0.235,-0.419 0.437,-1.073 0.121,-0.455 0.212,-1.244 0.041,-0.73 0.234,-0.641 0.055,-0.094 0.099,-0.109 1.049,-2.88 m 5.927,1.398 0.113,0.009 0.366,0.107 0.801,0.365 0.708,0.899 0.045,0.18 0.072,0.617 -0.158,0.581 0,0.053 0.275,1.375 -2.097,0.424 -2.342,0.464 -0.685,-2.839 0.532,-0.761 1.104,-0.509 0.675,-0.279 0.348,-0.317 0.243,-0.369 m 8.802,-5.084 3.143,1.704 -0.591,0.509 -0.063,2.073 0.036,0.329 0.049,0.226 0.126,0.346 -0.098,0.699 -0.154,0.568 -0.127,0.338 -0.567,0.73 -0.942,0.204 -0.063,0.013 0,-0.063 -0.054,-0.082 -1.735,-1.694 -1.871,-1.61 -0.225,-0.054 -0.265,0.036 -0.632,-0.026 -0.91,-0.618 1.293,-1.284 1.131,-0.78 1.19,-0.478 1.329,-1.086 m -6.529,2.546 1.586,1.082 0.91,0.618 0.632,0.026 0.265,-0.036 0.225,0.054 1.871,1.61 1.735,1.694 0.054,0.082 0,0.063 -3.178,0.666 -2.099,0.437 -2.052,0.428 -0.275,-1.375 0,-0.053 0.158,-0.581 -0.072,-0.617 -0.045,-0.18 -0.708,-0.899 -0.801,-0.365 -0.366,-0.107 -0.113,-0.009 0.658,-0.947 1.186,-0.992 0.429,-0.599 m 2.351,-14.846 0.141,1.036 0.063,0.299 0.585,0.847 1.146,2.177 -0.302,0.511 -0.249,0.48 0.005,1.087 -0.622,0.477 -1.69,-1.069 -0.018,-0.838 -0.081,-0.166 -0.748,-1.091 -0.496,-0.194 -0.442,-0.959 1.505,-1.907 1.203,-0.69" />
</svg>
