<?xml version="1.0" encoding="UTF-8" standalone="no"?>
<!-- Created with Inkscape (http://www.inkscape.org/) -->

<svg
   xmlns:dc="http://purl.org/dc/elements/1.1/"
   xmlns:cc="http://creativecommons.org/ns#"
   xmlns:rdf="http://www.w3.org/1999/02/22-rdf-syntax-ns#"
   xmlns:svg="http://www.w3.org/2000/svg"
   xmlns="http://www.w3.org/2000/svg"
   xmlns:sodipodi="http://sodipodi.sourceforge.net/DTD/sodipodi-0.dtd"
   xmlns:inkscape="http://www.inkscape.org/namespaces/inkscape"
   version="1.0"
   width="555.22198"
   height="351.66797"
   id="svg2"
   inkscape:version="0.48.1 r9760"
   sodipodi:docname="centralflorida.svg">
  <metadata
     id="metadata23">
    <rdf:RDF>
      <cc:Work
         rdf:about="">
        <dc:format>image/svg+xml</dc:format>
        <dc:type
           rdf:resource="http://purl.org/dc/dcmitype/StillImage" />
      </cc:Work>
    </rdf:RDF>
  </metadata>
  <defs
     id="defs21" />
  <sodipodi:namedview
     pagecolor="#ffffff"
     bordercolor="#666666"
     borderopacity="1"
     objecttolerance="10"
     gridtolerance="10"
     guidetolerance="10"
     inkscape:pageopacity="0"
     inkscape:pageshadow="2"
     inkscape:window-width="640"
     inkscape:window-height="480"
     id="namedview19"
     showgrid="false"
     inkscape:zoom="0.83029853"
     inkscape:cx="277.61099"
     inkscape:cy="175.83398"
     inkscape:window-x="0"
     inkscape:window-y="25"
     inkscape:window-maximized="0"
     inkscape:current-layer="svg2" />
  <path
     id="12009"
     style="font-size:12px;fill:#0000ff;fill-rule:nonzero;stroke:#000000;stroke-opacity:1;stroke-width:0.1;stroke-miterlimit:4;stroke-dasharray:none;stroke-linecap:butt;marker-start:none;stroke-linejoin:bevel"
     d="m 463.43498,283.118 0.257,-0.046 -0.396,-2.234 2.637,-0.438 2.059,2.181 0.022,0.027 0.088,0.089 0.016,0.028 0.821,1.497 0,0.104 -0.379,0.243 -0.104,0.144 -0.121,0.239 -0.009,0.063 -0.006,0.014 -0.036,0.193 -0.026,0.352 0.018,0.357 0.036,0.319 0.157,0.672 0.325,0.982 0.438,0.997 0.306,0.557 0.247,0.38 0.334,0.51 0.019,0.031 0.928,1.271 -0.059,0.081 -0.563,0.523 -4.074,0.653 -0.537,-3.312 0.072,-0.014 -0.315,-2.047 -0.221,-1.275 -1.934,-3.141 m -9.163,-7.82 2.606,-1.362 0.197,0.271 0.258,1.447 0.933,-0.157 0.045,-0.01 1.992,-0.36 -0.257,-1.38 0.474,-0.748 0.85,1.416 0.687,1.059 0.531,0.825 0.319,0.432 0.943,1.155 2.083,2.514 -2.637,0.438 0.396,2.234 -0.257,0.046 -0.73,-1.131 -0.37,-0.465 -0.829,-0.694 -0.112,0.252 -0.37,0.177 -0.068,0.009 -0.238,-0.042 -1.456,-0.329 -0.613,-0.481 0.063,-0.699 -0.136,-0.658 -0.027,-0.037 -0.455,-0.351 -0.472,-0.257 -0.759,-0.504 -2.064,-2.073 -0.527,-0.537 m -8.383,-0.843 2.001,-0.283 0.203,0.225 -0.023,0.139 0.821,0.361 0.829,-0.346 0.144,-0.091 0.009,-0.028 -0.057,-0.377 0.287,-0.343 0.235,-0.126 0.757,-0.298 1.803,0.099 0.315,0.708 0.555,0.675 0.504,0.528 0.527,0.537 0.446,2.717 -0.021,1.335 -3.309,0.5 -4.002,0.586 -2.664,-0.713 -0.31,-2.163 1.482,-0.221 -0.532,-3.421 m -0.64,5.805 2.664,0.713 0.473,0.572 1.425,1.28 0.009,0.054 -0.118,0.41 -0.04,0.04 -0.208,0.055 -0.225,0.306 -0.14,0.243 -0.041,0.117 -0.049,0.559 -1.739,0.275 -0.06,-0.365 -2.559,0.371 -0.185,-1.908 -0.072,-0.414 -0.077,-0.158 -1.487,-1.14 0.075,-0.135 0.114,-0.136 0.293,-0.284 0.212,-0.054 0.171,0.005 0.694,0.157 0.663,-0.391 0.198,-0.145 0.009,-0.027 m 2.664,0.713 4.002,-0.586 1.121,7.81 -1.044,0.585 -0.301,-2.113 -0.378,-0.591 -1.449,-0.359 -0.234,-0.14 -0.455,-0.509 -0.153,-0.208 -0.023,-0.253 0.049,-0.559 0.041,-0.117 0.14,-0.243 0.225,-0.306 0.208,-0.055 0.04,-0.04 0.118,-0.41 -0.009,-0.054 -1.425,-1.28 -0.473,-0.572 m 6.886,-5.138 2.064,2.073 0.759,0.504 0.472,0.257 0.455,0.351 0.027,0.037 0.136,0.658 -0.063,0.699 -0.342,1.269 -2.358,0.358 -0.158,0.021 -0.108,0.024 -0.109,0.103 0.849,5.472 -3.387,0.536 -1.121,-7.81 3.309,-0.5 0.021,-1.335 -0.446,-2.717 m 3.508,5.848 0.342,-1.269 0.613,0.481 1.456,0.329 0.238,0.042 0.068,-0.009 0.37,-0.177 0.112,-0.252 0.829,0.694 0.37,0.465 0.73,1.131 -3.768,0.631 -1.095,-0.222 -0.586,-0.517 -0.041,-0.285 0.362,-1.042 m 0,0 -0.362,1.042 0.041,0.285 0.586,0.517 1.095,0.222 3.768,-0.631 1.934,3.141 -8.946,1.402 -0.849,-5.472 0.109,-0.103 0.108,-0.024 0.158,-0.021 2.358,-0.358 m -1.884,5.978 0.17,1.113 2.619,1.852 0.802,0.623 2.511,2.299 0.337,0.481 0.587,0.874 0.081,0.317 0.099,0.45 -4.791,0.698 -5.58,0.844 -0.405,-2.768 -0.6,-3.881 -0.562,0.081 0.301,-1.862 1.044,-0.585 3.387,-0.536 m 0,0 8.946,-1.402 0.221,1.275 0.315,2.047 -0.072,0.014 0.537,3.312 0.315,2.285 -3.056,0.478 -0.099,-0.45 -0.081,-0.317 -0.587,-0.874 -0.337,-0.481 -2.511,-2.299 -0.802,-0.623 -2.619,-1.852 -0.17,-1.113 m -3.165,9.551 5.58,-0.844 0.591,3.867 -2.123,0.334 -1.24,0.23 -2.249,0.316 -0.559,-3.903 m 5.58,-0.844 4.791,-0.698 -0.226,1.136 1.25,2.117 1.135,0.876 0.974,0.972 -2.574,0.42 -0.952,1.298 0.181,1.118 -3.385,0.51 -0.603,-3.882 -0.591,-3.867 m 4.791,-0.698 3.056,-0.478 1.082,-0.184 0.179,1.068 1.11,-0.176 0.744,4.444 -1.871,3.497 -1.167,-3.07 -0.974,-0.972 -1.135,-0.876 -1.25,-2.117 0.226,-1.136 m 2.741,-2.763 4.074,-0.653 0.563,-0.523 0.059,-0.081 2.059,3.591 -4.069,0.659 -1.11,0.176 -0.179,-1.068 -1.082,0.184 -0.315,-2.285 m 2.686,2.993 4.069,-0.659 2.011,3.481 -0.974,0.157 0.113,0.726 -1.488,0.247 -2.987,0.492 -0.744,-4.444" />
</svg>
