<?xml version="1.0" encoding="UTF-8" standalone="no"?>
<!-- Created with Inkscape (http://www.inkscape.org/) -->

<svg
   xmlns:dc="http://purl.org/dc/elements/1.1/"
   xmlns:cc="http://creativecommons.org/ns#"
   xmlns:rdf="http://www.w3.org/1999/02/22-rdf-syntax-ns#"
   xmlns:svg="http://www.w3.org/2000/svg"
   xmlns="http://www.w3.org/2000/svg"
   xmlns:sodipodi="http://sodipodi.sourceforge.net/DTD/sodipodi-0.dtd"
   xmlns:inkscape="http://www.inkscape.org/namespaces/inkscape"
   version="1.0"
   width="555.22198"
   height="351.66797"
   id="svg2"
   inkscape:version="0.48.1 r9760"
   sodipodi:docname="centralnewyork.svg">
  <metadata
     id="metadata22">
    <rdf:RDF>
      <cc:Work
         rdf:about="">
        <dc:format>image/svg+xml</dc:format>
        <dc:type
           rdf:resource="http://purl.org/dc/dcmitype/StillImage" />
      </cc:Work>
    </rdf:RDF>
  </metadata>
  <defs
     id="defs20" />
  <sodipodi:namedview
     pagecolor="#ffffff"
     bordercolor="#666666"
     borderopacity="1"
     objecttolerance="10"
     gridtolerance="10"
     guidetolerance="10"
     inkscape:pageopacity="0"
     inkscape:pageshadow="2"
     inkscape:window-width="640"
     inkscape:window-height="480"
     id="namedview18"
     showgrid="false"
     inkscape:zoom="0.83029853"
     inkscape:cx="277.61099"
     inkscape:cy="175.83398"
     inkscape:window-x="0"
     inkscape:window-y="25"
     inkscape:window-maximized="0"
     inkscape:current-layer="svg2" />
  <path
     id="36015"
     style="font-size:12px;fill:#0000ff;fill-rule:nonzero;stroke:#000000;stroke-opacity:1;stroke-width:0.1;stroke-miterlimit:4;stroke-dasharray:none;stroke-linecap:butt;marker-start:none;stroke-linejoin:bevel"
     d="m 477.15898,100.612 0.56,3.615 -3.453,0.69 -0.361,0.08 -0.708,-3.528 -0.022,-0.113 1.145,-0.316 0.987,-0.202 0.118,0.501 0.481,0.116 0.414,-0.031 0.172,-0.235 -0.089,-0.432 0.756,-0.145 m 4.769,-26.655 2.83,0.969 1.902,5.964 -3.314,3.326 -2.171,-0.199 -0.767,-2.731 -0.382,-1.23 0.013,-1.204 1.708,-1.55 0.258,-0.609 -0.041,-0.793 -0.618,-0.298 0.582,-1.645 m 4.732,6.933 1.109,3.528 0.361,1.289 -0.51,1.573 -0.37,0.946 0.551,2.169 -0.307,0.18 -1.717,0.486 -1.176,-0.648 -0.036,-0.181 -0.338,-1.144 -1.15,-0.762 -0.577,-0.329 -0.221,-0.117 -0.463,-0.05 -0.953,0.424 -0.251,-2.114 -0.235,-0.027 0.232,-2.15 0.566,0.054 2.171,0.199 3.314,-3.326 m -6.873,7.224 1.076,0.14 0.953,-0.424 0.463,0.05 0.221,0.117 0.577,0.329 1.15,0.762 0.338,1.144 0.036,0.181 1.176,0.648 1.717,-0.486 -0.081,1.708 -1.203,0.343 -0.627,0.085 -3.597,1.024 -0.239,-0.839 -0.676,-2.483 -0.441,-1.226 -0.664,-0.897 -0.179,-0.176 m 2.199,5.621 3.597,-1.024 0.627,-0.085 1.203,-0.343 0.094,5.688 0.303,1.515 -1.064,0.229 -0.969,0.208 -0.672,-0.325 -1.18,0.022 -0.136,0.091 -0.113,-0.185 -0.612,-1.938 -1.078,-3.853 m -2.199,-5.621 0.179,0.176 0.664,0.897 0.441,1.226 0.676,2.483 -3.443,0.992 -0.031,-0.113 -0.288,-0.298 -0.65,-0.419 -0.851,0.226 -0.803,-1.938 -0.316,-1.163 0.005,-0.068 0.049,-0.058 0.167,-0.005 0.014,-0.013 -0.126,-0.545 -0.266,-0.997 1.41,-0.356 1.203,-0.604 1.159,0.333 0.807,0.244 m -6.202,3.412 -0.058,0.843 0.433,2.186 0.054,0.243 0.202,0.613 0.046,0.095 0.07,0.099 0.74,0.915 -0.081,1.032 -1.83,0.446 -1.289,-2.686 -0.338,-1.249 0.014,-0.063 0.022,-0.027 0.109,-0.054 -0.365,-1.784 2.271,-0.609 m 7.027,6.657 0.073,0.095 0.774,1.658 0.023,0.081 0.104,0.505 0.026,0.414 -0.266,0.073 0.599,2.348 -0.382,0.081 -3.844,0.789 -0.56,-3.615 2.317,-2.15 1.136,-0.279 m -5.54,-1.663 1.903,-0.442 0.036,0.104 1.771,-0.437 0.694,2.717 -2.317,2.15 -0.756,0.145 -0.676,0.117 -0.222,-1.131 -0.009,-0.226 -0.284,-1.1 -0.221,-0.865 0.081,-1.032 m -1.645,-10.177 0.41,1.478 0.483,0.5 0.792,-0.189 0.096,0.365 0.266,0.997 0.126,0.545 -0.014,0.013 -0.167,0.005 -0.049,0.058 -0.005,0.068 0.316,1.163 0.803,1.938 0.851,-0.226 0.65,0.419 0.288,0.298 0.031,0.113 0.478,1.857 -1.771,0.437 -0.036,-0.104 -1.903,0.442 -0.74,-0.915 -0.07,-0.099 -0.046,-0.095 -0.202,-0.613 -0.054,-0.243 -0.433,-2.186 0.058,-0.843 -0.91,-4.038 0.752,-1.145 m 4.26,-13.922 1.595,0.603 1.974,0.677 0.672,0.256 -0.582,1.645 0.618,0.298 0.041,0.793 -0.258,0.609 -1.708,1.55 -0.013,1.204 0.382,1.23 -1.875,0.216 -0.414,0.189 0.086,0.343 -1.649,0.203 -0.596,-1.524 0.636,-1.311 0.041,-0.072 -0.019,-0.194 -0.198,-0.514 -0.063,-0.081 -0.073,-0.023 -0.788,-0.067 -0.558,-0.235 -0.875,-0.63 -0.139,-0.361 -0.006,-0.148 0.019,-0.29 0.216,-0.914 2.061,-2.191 1.473,-1.261 m -1.131,9.816 1.649,-0.203 -0.086,-0.343 0.414,-0.189 1.875,-0.216 0.767,2.731 -0.566,-0.054 -0.232,2.15 0.235,0.027 0.251,2.114 -1.076,-0.14 -0.807,-0.244 -1.159,-0.333 -1.203,0.604 -1.41,0.356 -0.096,-0.365 -0.792,0.189 -0.483,-0.5 -0.41,-1.478 0.434,-0.487 1.135,-1.199 0.059,-0.036 0.374,-0.117 0.247,0.113 0.136,-0.009 0.306,-0.077 0.519,-0.325 0.054,-0.063 0.067,-0.171 0.032,-0.207 0.018,-0.199 -0.027,-0.333 -0.108,-0.627 -0.117,-0.369 m 5.191,10.659 0.239,0.839 1.078,3.853 -2.452,0.595 -1.136,0.279 -0.694,-2.717 -0.478,-1.857 3.443,-0.992 m 1.317,4.692 0.612,1.938 0.113,0.185 0.136,-0.091 1.18,-0.022 0.672,0.325 0.969,-0.208 1.064,-0.229 1.094,2.357 -1.153,0.256 -5.806,1.258 -0.599,-2.348 0.266,-0.073 -0.026,-0.414 -0.104,-0.505 -0.023,-0.081 -0.774,-1.658 -0.073,-0.095 2.452,-0.595" />
</svg>
