<?xml version="1.0" encoding="UTF-8" standalone="no"?>
<!-- Created with Inkscape (http://www.inkscape.org/) -->

<svg
   xmlns:dc="http://purl.org/dc/elements/1.1/"
   xmlns:cc="http://creativecommons.org/ns#"
   xmlns:rdf="http://www.w3.org/1999/02/22-rdf-syntax-ns#"
   xmlns:svg="http://www.w3.org/2000/svg"
   xmlns="http://www.w3.org/2000/svg"
   xmlns:sodipodi="http://sodipodi.sourceforge.net/DTD/sodipodi-0.dtd"
   xmlns:inkscape="http://www.inkscape.org/namespaces/inkscape"
   version="1.0"
   width="555.22198"
   height="351.66797"
   id="svg2"
   inkscape:version="0.48.1 r9760"
   sodipodi:docname="chicago.svg">
  <metadata
     id="metadata31">
    <rdf:RDF>
      <cc:Work
         rdf:about="">
        <dc:format>image/svg+xml</dc:format>
        <dc:type
           rdf:resource="http://purl.org/dc/dcmitype/StillImage" />
      </cc:Work>
    </rdf:RDF>
  </metadata>
  <defs
     id="defs29" />
  <sodipodi:namedview
     pagecolor="#ffffff"
     bordercolor="#666666"
     borderopacity="1"
     objecttolerance="10"
     gridtolerance="10"
     guidetolerance="10"
     inkscape:pageopacity="0"
     inkscape:pageshadow="2"
     inkscape:window-width="640"
     inkscape:window-height="480"
     id="namedview27"
     showgrid="false"
     inkscape:zoom="0.83029853"
     inkscape:cx="277.61099"
     inkscape:cy="175.83398"
     inkscape:window-x="0"
     inkscape:window-y="25"
     inkscape:window-maximized="0"
     inkscape:current-layer="svg2" />
  <path
     id="17085"
     style="font-size:12px;fill:#0000ff;fill-rule:nonzero;stroke:#000000;stroke-opacity:1;stroke-width:0.1;stroke-miterlimit:4;stroke-dasharray:none;stroke-linecap:butt;marker-start:none;stroke-linejoin:bevel"
     d="m 350.98798,114.741 0.325,4.003 -3.768,0.267 -0.397,-0.127 -0.175,-0.113 -0.163,-0.131 -0.009,-0.008 -0.271,-0.338 -0.007,-0.014 -0.132,-0.297 0,-0.082 0.054,-0.121 0.054,-0.365 -0.005,-0.049 -0.027,-0.042 -0.567,-0.657 -0.024,-0.023 -0.004,-0.004 -0.81,-0.564 -0.637,-0.329 -0.22,-0.158 -0.077,-0.08 -0.022,-0.065 -0.009,-0.072 0.004,-0.03 0.132,-0.226 2.027,-0.1 4.728,-0.275 m 0.843,-0.049 4.123,-0.213 0.321,3.856 -2.773,0.228 -2.189,0.181 -0.325,-4.003 0.843,-0.049 m 8.487,-0.455 0.337,4.43 -2.212,0.189 -0.049,-0.697 -2.119,0.176 -0.321,-3.856 0.338,-0.021 4.026,-0.221 m 1.55,-0.103 0.654,-0.045 0.356,4.394 -2.223,0.184 -0.337,-4.43 1.55,-0.103 m 4.457,-0.361 0.983,-0.099 0.374,4.421 -0.369,0.032 -3.326,0.27 -1.109,0.086 -0.356,-4.394 3.803,-0.316 m 0.983,-0.099 3.778,-0.261 0.004,0 0.045,0.256 0.027,1.131 -0.086,0.267 -0.036,0.045 -0.063,0.409 0,0.38 0.09,0.401 0.199,0.477 0.143,0.298 0.447,0.685 -4.174,0.333 -0.374,-4.421 m 0.374,4.421 4.174,-0.333 0.951,1.28 0.518,1.451 0.113,0.393 0.099,0.423 0.095,0.301 0.036,0.081 0.068,0.149 0.279,0.506 0.586,0.959 0.26,3.084 -2.536,0.225 -2.457,-2.028 -0.063,-0.569 1.064,-0.496 -0.325,-3.109 -0.14,-0.455 -0.951,0.095 -2.199,0.265 0.059,-2.19 0.369,-0.032 m -0.144,5.602 -0.284,-3.38 2.199,-0.265 0.951,-0.095 0.14,0.455 0.325,3.109 -1.064,0.496 -2.263,-0.32 -0.004,0 m -0.225,-5.57 -0.059,2.19 0.284,3.38 -3.24,0.325 -0.311,-5.625 3.326,-0.27 m -3.326,0.27 0.311,5.625 0.085,1.14 -3.213,0.289 -0.28,-3.412 -0.235,-3.372 2.223,-0.184 1.109,-0.086 m -7.712,-0.062 2.119,-0.176 0.049,0.697 2.212,-0.189 0.235,3.372 -3.993,0.338 -0.014,-0.19 -1.925,0.141 -0.639,0.049 -0.568,-0.338 -0.249,-3.476 2.773,-0.228 m -2.773,0.228 0.249,3.476 -4.435,0.307 -0.104,-1.349 -1.667,-1.986 3.768,-0.267 2.189,-0.181 m 0.249,3.476 0.568,0.338 0.256,4.101 -2.208,0.162 -3.097,0.185 0.163,-0.116 0.023,-0.041 0.027,-0.293 -0.005,-0.158 -0.022,-0.175 -0.126,-0.136 -0.159,-0.099 -0.188,-0.068 -0.186,-0.171 -0.144,-0.293 -0.108,-0.517 -0.009,-0.236 0.036,-0.248 0.744,-1.928 4.435,-0.307 m 0.568,0.338 0.639,-0.049 1.925,-0.141 0.014,0.19 3.993,-0.338 0.28,3.412 -1.083,0.099 -1.102,0.054 0.043,0.564 -4.453,0.31 -0.256,-4.101 m 6.851,3.074 3.213,-0.289 0.238,2.254 0.448,4.512 -3.323,0.278 0.167,2.309 -1.117,0.108 -1.275,-2.228 -0.208,-2.668 -0.328,-4.123 1.102,-0.054 1.083,-0.099 m 6.368,-1.754 0.004,0 0.37,3.381 -3.291,0.338 -0.238,-2.254 -0.085,-1.14 3.24,-0.325 m 0.004,0 2.263,0.32 0.063,0.569 2.457,2.028 2.536,-0.225 0.19,2.221 -4.674,0.483 0.046,0.427 -0.487,0.748 -1.673,0.186 -0.351,-3.376 -0.37,-3.381 m 0.37,3.381 0.351,3.376 0.023,1.14 -3.217,0.334 -0.448,-4.512 3.291,-0.338 m 7.292,3.24 0.185,2.015 -5.827,0.668 -1.11,0.131 -0.166,-1.538 -0.023,-1.14 1.673,-0.186 0.487,-0.748 -0.046,-0.427 4.674,-0.483 0.153,1.708 m -10.135,1.61 3.217,-0.334 0.166,1.538 0.519,4.867 -2.176,0.184 -1.114,0.099 -0.135,-0.693 -0.103,-1.127 -3.341,0.31 -0.189,-2.257 -0.167,-2.309 3.323,-0.278 m -5.756,-2.201 0.208,2.668 -1.894,0.141 0.054,-0.062 0.095,-0.051 0.057,-0.08 0.019,-0.086 0.017,-0.316 -1.318,0.086 -0.083,-1.109 1.303,-0.983 0.523,-0.288 0.117,-0.013 0.902,0.093 m 9.139,3.405 1.11,-0.131 0.68,6.589 1.776,-0.126 0.122,1.118 -5.129,0.432 -0.216,-2.831 2.176,-0.184 -0.519,-4.867 m 1.11,-0.131 5.827,-0.668 0.599,6.716 -3.97,0.415 -1.776,0.126 -0.68,-6.589" />
</svg>
