<?xml version="1.0" encoding="UTF-8" standalone="no"?>
<!-- Created with Inkscape (http://www.inkscape.org/) -->

<svg
   xmlns:dc="http://purl.org/dc/elements/1.1/"
   xmlns:cc="http://creativecommons.org/ns#"
   xmlns:rdf="http://www.w3.org/1999/02/22-rdf-syntax-ns#"
   xmlns:svg="http://www.w3.org/2000/svg"
   xmlns="http://www.w3.org/2000/svg"
   xmlns:sodipodi="http://sodipodi.sourceforge.net/DTD/sodipodi-0.dtd"
   xmlns:inkscape="http://www.inkscape.org/namespaces/inkscape"
   version="1.0"
   width="555.22198"
   height="351.66797"
   id="svg2"
   inkscape:version="0.48.1 r9760"
   sodipodi:docname="connecticut.svg">
  <metadata
     id="metadata16">
    <rdf:RDF>
      <cc:Work
         rdf:about="">
        <dc:format>image/svg+xml</dc:format>
        <dc:type
           rdf:resource="http://purl.org/dc/dcmitype/StillImage" />
      </cc:Work>
    </rdf:RDF>
  </metadata>
  <defs
     id="defs14" />
  <sodipodi:namedview
     pagecolor="#ffffff"
     bordercolor="#666666"
     borderopacity="1"
     objecttolerance="10"
     gridtolerance="10"
     guidetolerance="10"
     inkscape:pageopacity="0"
     inkscape:pageshadow="2"
     inkscape:window-width="640"
     inkscape:window-height="480"
     id="namedview12"
     showgrid="false"
     inkscape:zoom="0.83029853"
     inkscape:cx="277.61099"
     inkscape:cy="175.83398"
     inkscape:window-x="0"
     inkscape:window-y="25"
     inkscape:window-maximized="0"
     inkscape:current-layer="svg2" />
  <path
     id="09015"
     style="font-size:12px;fill:#0000ff;fill-rule:nonzero;stroke:#000000;stroke-opacity:1;stroke-width:0.1;stroke-miterlimit:4;stroke-dasharray:none;stroke-linecap:butt;marker-start:none;stroke-linejoin:bevel"
     d="m 521.90498,93.793 1.015,3.538 0.28,1.064 -0.65,0.113 -0.843,0.346 -1.983,0.199 -0.329,-0.163 -0.613,-0.351 0.366,-0.37 0.274,-0.324 -0.387,-0.627 -0.442,-0.252 -0.387,-1.551 0.194,-0.063 0.89,-0.225 -0.251,-0.869 0.397,-0.082 2.406,-0.572 0.063,0.189 m -2.866,0.465 0.251,0.869 -0.89,0.225 -0.194,0.063 0.387,1.551 0.442,0.252 0.387,0.627 -0.274,0.324 -0.366,0.37 -1.23,1.816 -0.054,-0.298 -0.032,-0.071 -1.775,-3.786 -0.433,-1.059 3.466,-0.821 0.315,-0.062 m 4.304,4.678 0.244,3.619 -1.194,0.334 -2.43,1.126 -0.509,0.199 -0.095,0.013 -0.094,-0.018 -2.177,-3.493 0.464,-0.361 1.23,-1.816 0.613,0.351 0.329,0.163 1.983,-0.199 0.843,-0.346 0.65,-0.113 0.143,0.541 m -8.901,2.51 0.329,1.005 0.685,0.708 0.348,-0.172 0.135,0.086 0.419,0.473 1.126,1.398 -0.496,-0.027 -0.315,0.076 -1.298,0.393 -0.811,0.341 -0.442,0.064 -0.208,-0.257 -0.076,0.031 -1.1,1.281 -0.149,0.208 -0.176,0.333 -0.012,0.049 0,0.014 -0.154,-0.096 -0.027,-0.061 -0.028,-0.614 0.023,-0.104 0.117,-0.27 0.032,-0.626 -1.676,-1.186 -0.758,-0.248 -0.351,-0.131 -0.122,-0.076 -0.082,-0.082 -0.021,-0.107 0.031,-0.172 1.722,-1.217 0.996,-1.244 2.339,0.23 m 2.646,-0.73 2.177,3.493 -1.781,0.735 -1.126,-1.398 -0.419,-0.473 -0.135,-0.086 -0.348,0.172 -0.685,-0.708 -0.329,-1.005 0.203,-0.703 0.761,-0.36 1.119,-0.37 0.563,0.703 m -6.878,-4.386 0.415,-0.094 0.031,0.964 1.298,-0.41 -0.053,2.245 -0.605,0.257 0.807,1.924 -0.996,1.244 -1.722,1.217 -0.031,0.172 0.021,0.107 0.082,0.082 0.122,0.076 -0.018,0.027 -0.135,0.004 -0.515,-0.138 -0.757,-0.262 -0.084,-0.148 -0.181,-0.298 -0.505,-1.06 -0.081,-0.094 -0.262,-0.054 -0.883,-4.904 4.052,-0.857 m 0.415,-0.094 4.633,-1.095 0.433,1.059 1.775,3.786 0.032,0.071 0.054,0.298 -0.464,0.361 -0.563,-0.703 -1.119,0.37 -0.761,0.36 -0.203,0.703 -2.339,-0.23 -0.807,-1.924 0.605,-0.257 0.053,-2.245 -1.298,0.41 -0.031,-0.964 m -3.278,7.64 -0.306,-1.785 0.262,0.054 0.081,0.094 0.505,1.06 0.181,0.298 0.084,0.148 0.757,0.262 0.515,0.138 0.135,-0.004 0.018,-0.027 0.351,0.131 0.758,0.248 1.676,1.186 -0.032,0.626 -0.117,0.27 -0.023,0.104 0.028,0.614 0.027,0.061 0.154,0.096 -0.65,0.176 -1.632,1.234 -2.239,1.901 -0.055,0.105 -0.028,0.139 -1.008,-1.297 0.702,-0.717 0.06,-0.059 0.306,-2.082 -0.158,-0.91 -0.352,-2.064" />
</svg>
