<?xml version="1.0" encoding="UTF-8" standalone="no"?>
<!-- Created with Inkscape (http://www.inkscape.org/) -->

<svg
   xmlns:dc="http://purl.org/dc/elements/1.1/"
   xmlns:cc="http://creativecommons.org/ns#"
   xmlns:rdf="http://www.w3.org/1999/02/22-rdf-syntax-ns#"
   xmlns:svg="http://www.w3.org/2000/svg"
   xmlns="http://www.w3.org/2000/svg"
   xmlns:sodipodi="http://sodipodi.sourceforge.net/DTD/sodipodi-0.dtd"
   xmlns:inkscape="http://www.inkscape.org/namespaces/inkscape"
   version="1.0"
   width="555.22198"
   height="351.66797"
   id="svg2"
   inkscape:version="0.48.1 r9760"
   sodipodi:docname="dallas.svg">
  <metadata
     id="metadata34">
    <rdf:RDF>
      <cc:Work
         rdf:about="">
        <dc:format>image/svg+xml</dc:format>
        <dc:type
           rdf:resource="http://purl.org/dc/dcmitype/StillImage" />
      </cc:Work>
    </rdf:RDF>
  </metadata>
  <defs
     id="defs32" />
  <sodipodi:namedview
     pagecolor="#ffffff"
     bordercolor="#666666"
     borderopacity="1"
     objecttolerance="10"
     gridtolerance="10"
     guidetolerance="10"
     inkscape:pageopacity="0"
     inkscape:pageshadow="2"
     inkscape:window-width="640"
     inkscape:window-height="480"
     id="namedview30"
     showgrid="false"
     inkscape:zoom="0.83029853"
     inkscape:cx="277.61099"
     inkscape:cy="175.83398"
     inkscape:window-x="0"
     inkscape:window-y="25"
     inkscape:window-maximized="0"
     inkscape:current-layer="svg2" />
  <path
     id="48277"
     style="font-size:12px;fill:#0000ff;fill-rule:nonzero;stroke:#000000;stroke-opacity:1;stroke-width:0.1;stroke-miterlimit:4;stroke-dasharray:none;stroke-linecap:butt;marker-start:none;stroke-linejoin:bevel"
     d="m 300.83798,228.699 0.067,6.359 -0.689,-0.126 -1.086,-0.739 -0.208,-0.09 -1.176,-0.369 -0.208,-0.032 -1.487,-0.108 -0.198,0.054 -0.834,0.388 0.144,-4.913 0.915,-0.343 0.004,-0.004 0.893,-0.465 0.78,-0.405 0.346,0.018 0.081,0.032 0.113,0.288 -0.003,0.086 -0.032,0.091 0.003,0.066 0,0.009 0.042,0.072 0.04,0.036 1.055,0.14 0.4,0.032 0.722,-0.036 0.005,0 0.311,-0.041 m -17.294,-1.086 0.541,1.112 0.175,0.196 0.108,0.075 1.006,0.308 0.518,-0.087 0.009,-0.004 1.068,-0.482 -0.036,0.207 0.009,0.159 0.009,0.062 0.009,0.031 1.095,0.735 0.099,0.068 0.014,0 0.546,-0.104 0.126,0.014 0.14,0.045 0,0.004 0.464,0.631 -0.072,4.272 -4.819,-0.13 -1.171,-0.153 0.058,-6.901 0.104,-0.058 m 11.619,1.51 -0.144,4.913 -0.013,0.672 -4.679,0.743 -0.955,-0.596 0.072,-4.272 0.103,0.141 1.591,-0.393 0.221,-0.059 0.194,-0.083 0.013,-0.016 0.1,-0.104 0.013,-0.017 0.005,-0.009 0.027,-0.086 0.031,-0.099 0.009,-0.036 0.005,-0.032 0.067,-0.311 0.09,-0.316 0.541,-0.125 1.199,-0.1 0.23,-0.017 0.145,-0.015 0.617,0.122 0.518,0.095 m -16.487,5.21 4.706,0.239 1.171,0.153 -0.162,5.409 -2.019,0.017 -3.944,-0.121 0.248,-5.697 m 5.877,0.392 4.819,0.13 0.955,0.596 -0.035,4.795 -2.367,-0.018 -3.534,-0.094 0.162,-5.409 m 10.453,-0.017 -0.028,2.465 -0.004,3.105 -0.771,1.843 -1.536,-0.018 -2.381,-0.046 0.006,-1.811 0.035,-4.795 4.679,-0.743 m 0.013,-0.672 0.834,-0.388 0.198,-0.054 1.487,0.108 0.208,0.032 1.176,0.369 0.208,0.09 1.086,0.739 0.689,0.126 0.022,0.033 -0.022,0.017 -2.42,0.243 -0.55,0.018 -0.257,0.108 -1.334,0.609 -0.482,0.563 -0.884,0.524 0.028,-2.465 0.013,-0.672 m -0.041,3.137 0.884,-0.524 0.482,-0.563 1.334,-0.609 0.257,-0.108 0.55,-0.018 2.42,-0.243 0.036,5.364 -3.84,0.049 -2.127,-0.243 0.004,-3.105 m 7.887,-2.244 0.037,4.596 -0.279,0.276 -1.682,0.671 -0.036,-5.364 0.022,-0.017 1.938,-0.162 m 3.398,0.296 -0.053,4.931 -0.604,-0.414 -0.572,-0.708 -0.145,-0.049 -0.635,-0.01 -0.194,0.003 -0.239,0.046 -0.919,0.501 -0.037,-4.596 3.398,0.296 m 0,0 0.673,0.442 1.027,0.765 0.05,5.041 -0.559,0.012 -0.158,-0.329 -1.086,-1 0.053,-4.931 m 1.7,1.207 0.027,0.124 0.09,0.072 0.361,0.071 4.043,0.023 0.023,-0.037 -0.037,-0.117 -0.031,-0.27 0.172,-0.306 0.337,-0.117 0.266,-0.06 0.969,0.155 0.225,0.116 0.091,0.203 0.068,3.259 0.04,1.789 -6.594,0.136 -0.05,-5.041 m 0.05,5.041 6.594,-0.136 0.045,2.434 -0.739,-0.275 -0.551,-0.067 -0.76,0.063 -1.285,0.166 -0.356,0.181 -1.326,0.012 -2.127,-1.252 -0.054,-1.114 0.559,-0.012 m -5.39,-1.672 0.279,-0.276 0.919,-0.501 0.239,-0.046 0.194,-0.003 0.635,0.01 0.145,0.049 0.572,0.708 0.604,0.414 1.086,1 -4.66,0.082 -0.013,-1.437 m 0.013,1.437 4.66,-0.082 0.158,0.329 0.054,1.114 0.027,1.816 -0.032,-0.063 -0.509,-0.058 -0.081,0.036 -0.644,0.896 -1.632,0.699 -0.176,0.018 -1.798,-0.405 -0.027,-4.3 m -0.013,-1.437 0.013,1.437 0.027,4.3 -0.099,0.201 -0.207,0.101 -0.078,0.009 -3.114,-0.78 -0.31,-0.136 -0.979,-0.877 -0.442,-0.429 -0.333,-3.106 3.84,-0.049 1.682,-0.671 m -9.952,8.526 6.801,0.015 -0.099,2.84 0.346,0.657 -6.801,1.032 -0.022,-0.086 -0.135,-0.744 -0.505,-0.752 -0.924,-1.118 -0.387,-0.464 -0.595,-0.542 -1.024,-0.473 -0.739,-0.391 4.084,0.026 m 1.532,-6.206 3.231,1.506 0.442,0.429 0.019,2.68 1.333,1.42 0.244,0.186 -6.801,-0.015 -0.004,-6.224 1.536,0.018 m 0.771,-1.843 2.127,0.243 0.333,3.106 -3.231,-1.506 0.771,-1.843 m -4.688,1.779 2.381,0.046 0.004,6.224 -4.084,-0.026 -0.833,-2.415 0.135,-3.476 2.397,-0.353 m 0.006,-1.811 -0.006,1.811 -2.397,0.353 0.036,-2.182 2.367,0.018 m -7.92,-0.095 2.019,-0.017 3.534,0.094 -0.036,2.182 -0.135,3.476 -5.508,-0.091 0.126,-5.644 m -0.654,5.625 0.528,0.019 5.508,0.091 0.833,2.415 0.739,0.391 -5.597,3.255 -2.047,-2.497 0.036,-3.674 m 2.011,6.171 5.597,-3.255 1.024,0.473 0.595,0.542 0.387,0.464 0.924,1.118 0.505,0.752 0.135,0.744 -4.836,2.785 -2.429,-0.257 -1.902,-3.366 m 18.749,-24.199 1.249,1.068 1.83,1.465 1.325,0.541 0.054,4.845 -0.673,-0.442 -3.398,-0.296 -1.938,0.162 -0.022,-0.033 -0.067,-6.359 0.158,-0.018 0.084,-0.009 0.284,-0.185 0.06,-0.058 0.058,-0.131 0.018,-0.13 -0.018,-0.112 0,-0.019 -0.041,-0.086 -0.004,-0.009 0.004,-0.013 0,-0.023 0.005,-0.018 0.229,-0.347 0.006,0 0.009,-0.004 0.036,-0.018 0.076,0.003 0.676,0.226 m 7.194,3.877 0.085,0.221 0.082,0.188 0.071,0.095 0.438,0.28 0.157,0.103 0.577,0.315 1.037,-0.526 0.054,-0.049 0.157,-0.019 0.6,-0.087 1.037,0.208 0.198,0.081 0.257,0.212 0.077,3.642 -0.091,-0.203 -0.225,-0.116 -0.969,-0.155 -0.266,0.06 -0.337,0.117 -0.172,0.306 0.031,0.27 0.037,0.117 -0.023,0.037 -4.043,-0.023 -0.361,-0.071 -0.09,-0.072 -0.027,-0.124 -1.027,-0.765 -0.054,-4.845 2.79,0.803" />
</svg>
