<?xml version="1.0" encoding="UTF-8" standalone="no"?>
<!-- Created with Inkscape (http://www.inkscape.org/) -->

<svg
   xmlns:dc="http://purl.org/dc/elements/1.1/"
   xmlns:cc="http://creativecommons.org/ns#"
   xmlns:rdf="http://www.w3.org/1999/02/22-rdf-syntax-ns#"
   xmlns:svg="http://www.w3.org/2000/svg"
   xmlns="http://www.w3.org/2000/svg"
   xmlns:sodipodi="http://sodipodi.sourceforge.net/DTD/sodipodi-0.dtd"
   xmlns:inkscape="http://www.inkscape.org/namespaces/inkscape"
   version="1.0"
   width="555.22198"
   height="351.66797"
   id="svg2"
   inkscape:version="0.48.1 r9760"
   sodipodi:docname="delaware.svg">
  <metadata
     id="metadata11">
    <rdf:RDF>
      <cc:Work
         rdf:about="">
        <dc:format>image/svg+xml</dc:format>
        <dc:type
           rdf:resource="http://purl.org/dc/dcmitype/StillImage" />
      </cc:Work>
    </rdf:RDF>
  </metadata>
  <defs
     id="defs9" />
  <sodipodi:namedview
     pagecolor="#ffffff"
     bordercolor="#666666"
     borderopacity="1"
     objecttolerance="10"
     gridtolerance="10"
     guidetolerance="10"
     inkscape:pageopacity="0"
     inkscape:pageshadow="2"
     inkscape:window-width="640"
     inkscape:window-height="480"
     id="namedview7"
     showgrid="false"
     inkscape:zoom="0.83029853"
     inkscape:cx="277.61099"
     inkscape:cy="175.83398"
     inkscape:window-x="0"
     inkscape:window-y="25"
     inkscape:window-maximized="0"
     inkscape:current-layer="svg2" />
  <path
     id="10005"
     style="font-size:12px;fill:#0000ff;fill-rule:nonzero;stroke:#000000;stroke-opacity:1;stroke-width:0.1;stroke-miterlimit:4;stroke-dasharray:none;stroke-linecap:butt;marker-start:none;stroke-linejoin:bevel"
     d="m 494.92198,145.268 -0.686,-2.443 1.359,-0.355 0.563,-0.51 0.034,-0.194 0.164,-0.387 0.784,-0.559 0.752,-0.419 0.081,0.347 0.108,0.13 0.898,0.718 0.508,0.387 0.357,0.139 0.266,0.05 0.198,-0.054 0.139,-0.108 0.023,-0.077 0.252,0.527 0.604,1.764 0.442,1.518 0.108,0.441 -2.861,0.625 -0.145,0.034 -0.379,0.086 -0.159,0.03 -0.137,0.027 -0.037,0.006 -0.502,0.094 -0.206,0.041 -0.586,0.112 -0.293,0.055 -0.036,0.004 -0.689,0.117 -0.303,0.05 -0.116,-0.407 -0.108,-0.369 -0.135,-0.486 -0.262,-0.934 m -0.64,-15.013 -0.352,1.249 -0.207,-0.04 -0.438,0.648 -0.17,0.433 0,0.066 0.035,0.122 0.045,0.11 0.509,1.234 1.096,1.501 -2.208,1.397 -0.284,-1.009 -1.158,-4.331 1.536,-1.87 1.835,0.066 -0.239,0.424 m -1.69,6.72 2.208,-1.397 0.852,0.505 0.433,0.555 0.081,0.117 0.238,0.612 0.028,0.212 0.991,2.02 0.469,0.802 -0.752,0.419 -0.784,0.559 -0.164,0.387 -0.034,0.194 -0.563,0.51 -1.359,0.355 -1.464,-5.214 -0.18,-0.636" />
</svg>
