<?xml version="1.0" encoding="UTF-8" standalone="no"?>
<!-- Created with Inkscape (http://www.inkscape.org/) -->

<svg
   xmlns:dc="http://purl.org/dc/elements/1.1/"
   xmlns:cc="http://creativecommons.org/ns#"
   xmlns:rdf="http://www.w3.org/1999/02/22-rdf-syntax-ns#"
   xmlns:svg="http://www.w3.org/2000/svg"
   xmlns="http://www.w3.org/2000/svg"
   xmlns:sodipodi="http://sodipodi.sourceforge.net/DTD/sodipodi-0.dtd"
   xmlns:inkscape="http://www.inkscape.org/namespaces/inkscape"
   version="1.0"
   width="555.22198"
   height="351.66797"
   id="svg2"
   inkscape:version="0.48.1 r9760"
   sodipodi:docname="easton.svg">
  <metadata
     id="metadata17">
    <rdf:RDF>
      <cc:Work
         rdf:about="">
        <dc:format>image/svg+xml</dc:format>
        <dc:type
           rdf:resource="http://purl.org/dc/dcmitype/StillImage" />
      </cc:Work>
    </rdf:RDF>
  </metadata>
  <defs
     id="defs15" />
  <sodipodi:namedview
     pagecolor="#ffffff"
     bordercolor="#666666"
     borderopacity="1"
     objecttolerance="10"
     gridtolerance="10"
     guidetolerance="10"
     inkscape:pageopacity="0"
     inkscape:pageshadow="2"
     inkscape:window-width="640"
     inkscape:window-height="480"
     id="namedview13"
     showgrid="false"
     inkscape:zoom="0.83029853"
     inkscape:cx="277.61099"
     inkscape:cy="175.83398"
     inkscape:window-x="0"
     inkscape:window-y="25"
     inkscape:window-maximized="0"
     inkscape:current-layer="svg2" />
  <path
     id="24047"
     style="font-size:12px;fill:#0000ff;fill-rule:nonzero;stroke:#000000;stroke-opacity:1;stroke-width:0.1;stroke-miterlimit:4;stroke-dasharray:none;stroke-linecap:butt;marker-start:none;stroke-linejoin:bevel"
     d="m 499.01498,146.808 2.861,-0.625 0.05,0.473 0.004,0.338 -0.009,0.461 -0.04,0.419 -0.393,2.957 -0.026,0.181 -0.032,0.125 -0.056,0.207 -0.033,0.149 -0.159,0.495 -3.672,1.249 0.558,-1.392 -0.316,-1.155 -0.918,-1.094 2.41,-0.681 0.302,-0.667 0.05,-0.303 -0.217,-0.607 -0.364,-0.53 m -3.831,-0.606 0.135,0.486 0.108,0.369 0.116,0.407 0.303,-0.05 0.689,-0.117 0.036,-0.004 0.293,-0.055 0.586,-0.112 0.206,-0.041 0.502,-0.094 0.037,-0.006 0.137,-0.027 0.159,-0.03 0.379,-0.086 0.145,-0.034 0.364,0.53 0.217,0.607 -0.05,0.303 -0.302,0.667 -2.41,0.681 -2.362,1.049 -0.587,-0.203 0.019,-0.968 0.306,-2.001 0.063,-0.118 0.208,-0.117 0.233,-0.212 0.47,-0.824 m -3.395,-4.025 0.095,0.306 -0.12,1.839 -0.101,0.405 0.032,0.045 0.527,0.443 0.27,0.062 -1.906,0.951 0.031,-0.058 -0.139,-0.253 -1.019,-0.811 -0.167,0.019 -0.545,0.193 -0.032,0.023 -0.103,0.238 0,0.131 0.158,0.149 0.017,0.131 -0.153,0.139 -0.112,-0.171 -0.114,-0.852 0.009,-0.28 0.192,-0.747 0.021,-0.032 0.261,-0.311 0.699,-0.054 2.199,-1.505 m 2.683,8.468 2.362,-1.049 0.918,1.094 0.316,1.155 -0.558,1.392 -0.33,0.645 -1.186,-0.032 -0.874,-1.952 -0.648,-1.253 m -1.818,2.001 0.33,-0.116 0.126,-0.262 0.054,-0.256 0.14,0.328 0.143,0.424 0.073,0.23 -0.045,0.071 -0.109,0.045 -0.148,-0.045 -0.274,-0.197 -0.29,-0.222 m 0.8,2.001 -0.109,-0.374 -0.077,-0.4 -0.006,-0.14 0.028,-0.094 0.185,-0.131 0.077,-0.028 0.09,0.023 0.329,0.139 0.067,0.055 0.023,0.121 -0.131,0.06 -0.022,0.391 0.067,0.271 0.018,0.243 -0.027,0.247 -0.271,0.077 -0.179,-0.179 -0.062,-0.281 m -1.665,-12.47 -2.199,1.505 -0.312,-3.304 0.672,-1.686 0.383,-0.486 0.329,-0.144 0.821,-0.231 1.289,-0.22 0.36,1.284 -1.343,3.282 m -1.753,-5.665 2.272,-0.546 0.284,1.009 0.18,0.636 -1.289,0.22 -0.821,0.231 -0.329,0.144 -0.383,0.486 -0.672,1.686 -0.418,0.199 -0.307,-0.009 -0.586,-0.599 -0.014,-0.262 0.036,-0.207 0.415,-1.93 0.113,-0.193 0.473,-0.636 1.046,-0.229 m 2.456,8.765 2.43,-0.009 0.262,0.934 -0.47,0.824 -0.233,0.212 -0.208,0.117 -0.063,0.118 -0.306,2.001 -0.019,0.968 -1.172,0.356 -1.366,0.204 -0.139,-0.045 -0.775,-0.473 -0.045,-0.033 -0.14,-0.252 -0.613,-1.204 -0.32,-0.707 0.083,-1.496 0.056,-0.095 0.222,-0.189 0.09,-0.05 0.82,-0.23 1.906,-0.951 m 0.162,7.369 -0.022,-0.018 -0.009,0.006 -0.086,-0.149 -0.072,-0.253 -0.072,-0.537 0.14,-0.171 0.221,-0.05 0.333,0.271 0.019,0.077 0.058,0.19 -0.054,0.256 -0.126,0.262 -0.33,0.116 m -4.849,-20.295 3.345,-0.716 1.158,4.331 -2.272,0.546 -1.169,-2.015 -2.004,-1.942 0.942,-0.204 m 3.984,9.826 1.343,-3.282 1.79,6.373 -2.43,0.009 -0.27,-0.062 -0.527,-0.443 -0.032,-0.045 0.101,-0.405 0.12,-1.839 -0.095,-0.306" />
</svg>
