<?xml version="1.0" encoding="UTF-8" standalone="no"?>
<!-- Created with Inkscape (http://www.inkscape.org/) -->

<svg
   xmlns:dc="http://purl.org/dc/elements/1.1/"
   xmlns:cc="http://creativecommons.org/ns#"
   xmlns:rdf="http://www.w3.org/1999/02/22-rdf-syntax-ns#"
   xmlns:svg="http://www.w3.org/2000/svg"
   xmlns="http://www.w3.org/2000/svg"
   xmlns:sodipodi="http://sodipodi.sourceforge.net/DTD/sodipodi-0.dtd"
   xmlns:inkscape="http://www.inkscape.org/namespaces/inkscape"
   version="1.0"
   width="555.22198"
   height="351.66797"
   id="svg2"
   inkscape:version="0.48.1 r9760"
   sodipodi:docname="eastcarolina.svg">
  <metadata
     id="metadata40">
    <rdf:RDF>
      <cc:Work
         rdf:about="">
        <dc:format>image/svg+xml</dc:format>
        <dc:type
           rdf:resource="http://purl.org/dc/dcmitype/StillImage" />
      </cc:Work>
    </rdf:RDF>
  </metadata>
  <defs
     id="defs38" />
  <sodipodi:namedview
     pagecolor="#ffffff"
     bordercolor="#666666"
     borderopacity="1"
     objecttolerance="10"
     gridtolerance="10"
     guidetolerance="10"
     inkscape:pageopacity="0"
     inkscape:pageshadow="2"
     inkscape:window-width="640"
     inkscape:window-height="480"
     id="namedview36"
     showgrid="false"
     inkscape:zoom="0.83029853"
     inkscape:cx="277.61099"
     inkscape:cy="175.83398"
     inkscape:window-x="0"
     inkscape:window-y="25"
     inkscape:window-maximized="0"
     inkscape:current-layer="svg2" />
  <path
     id="37095"
     style="font-size:12px;fill:#0000ff;fill-rule:nonzero;stroke:#000000;stroke-opacity:1;stroke-width:0.1;stroke-miterlimit:4;stroke-dasharray:none;stroke-linecap:butt;marker-start:none;stroke-linejoin:bevel"
     d="m 499.83498,183.641 1.848,0.749 -0.239,0.18 -0.447,0.658 -0.031,0.064 -0.279,0.739 0.04,0.148 -0.005,0.135 -0.057,0.415 -0.014,0.086 -0.05,0.094 -0.383,0.609 -0.64,0.699 -0.063,0.04 -2.614,0.253 -0.095,0.005 -0.848,-0.105 -0.68,-0.103 -0.175,-0.203 -0.357,-0.472 -0.329,-0.61 -0.041,-0.153 0,-0.054 0.032,-0.054 0.117,-0.068 0.844,-0.83 -1.849,-1.375 2.493,-0.418 3.822,-0.429 m 4.074,5.36 0.085,0.171 -0.193,0.108 -0.186,0.149 -0.463,0.374 -0.654,0.563 -0.288,0.253 -0.325,0.383 -0.153,0.225 -0.104,0.095 -0.031,-0.04 0.01,-0.051 0.161,-0.459 0.185,-0.265 0.654,-0.573 0.991,-0.794 0.311,-0.139 m -7.42,-16.356 2.571,-0.55 1.82,3.848 -0.202,0.1 -1.091,-2.268 -0.672,-0.738 -0.081,-0.032 -1.027,-0.049 -0.151,0.066 -0.033,0.046 -0.043,0.095 0.006,0.153 0.184,0.28 0.108,0.126 0.1,0.053 0.486,0.222 0.649,0.722 1.817,2.794 0.171,0.369 0.009,0.139 -0.063,0 -0.424,-0.175 -0.143,-0.095 -0.272,-0.275 -0.292,-0.378 -0.007,-0.032 -1.039,-1.456 -0.762,-0.577 -0.23,-0.09 -0.139,-0.013 -0.05,0.044 -1.226,-0.671 -1.893,-1.253 1.919,-0.405 m 3.346,10.996 0.026,-0.229 -0.17,-0.852 -0.185,-0.725 -0.104,-0.708 0.004,-0.365 0.023,-0.167 0.432,-0.821 0.077,-0.085 0.361,-0.238 0.198,-0.063 0.194,-0.037 0.112,0.004 0.455,0.126 0.361,0.334 0.73,1.029 0.119,0.193 0.484,1.541 0.011,0.059 0.018,0.901 -0.334,0.69 -0.207,0.113 -0.402,0.13 -0.355,-0.081 -1.848,-0.749 m 2.866,-4.069 0.185,0.085 0.184,0.145 0.24,0.248 0.184,0.315 0.14,0.509 -0.045,0.096 -0.041,0.008 -0.483,-0.086 -0.089,-0.067 -0.757,-1.104 -0.055,-0.095 -0.005,-0.027 0.077,-0.068 0.131,-0.026 0.154,0 0.18,0.067 m 1.208,9.429 0.189,-0.104 0.149,-0.099 0.816,-0.564 0.874,-0.648 0.024,-0.207 -0.047,-1.308 -0.062,-0.874 -0.109,-1.294 -0.131,-0.586 -0.094,-0.293 -0.135,-0.305 -0.162,-0.204 -0.128,-0.162 -0.522,-1.123 0.038,-0.045 0.057,0.009 0.019,0.005 0.021,0.027 0.267,0.325 0.103,0.167 0.311,0.594 0.184,0.428 0.253,0.568 0.081,0.555 0.019,0.166 0.094,0.789 0.089,1.154 0.043,0.942 -0.006,1.145 -0.054,0.118 -0.121,-0.005 -0.167,-0.014 -0.203,0.059 -0.297,0.112 -0.239,0.149 -1.069,0.694 -0.085,-0.171 m -3.029,-13.058 0.564,0.906 0.003,0.004 0.312,0.47 0.315,0.41 0.546,0.64 0.581,0.784 0.753,1.015 0.495,0.765 -0.048,0.149 -1.019,-1.135 -1.735,-2.097 -0.969,-1.811 0.202,-0.1 m -1.045,7.698 -3.822,0.429 -0.325,-1.14 0.208,-0.685 -0.167,-1.362 0.8,-0.573 0.551,-0.319 0.365,-0.144 1.164,-0.243 0.442,0.198 0.126,0.113 0.252,0.68 -0.023,0.167 -0.004,0.365 0.104,0.708 0.185,0.725 0.17,0.852 -0.026,0.229 m -7.496,-2.094 0.009,0.008 0.208,0.085 0.067,0.005 0.595,-0.162 0.987,-0.384 0.312,-0.21 0.107,-0.15 0.596,-0.307 0.099,0.038 0.103,0.089 0.307,0.324 0.167,1.362 -0.208,0.685 0.325,1.14 -2.493,0.418 -2.11,0.429 0.443,-2.204 0.486,-1.166 m 1.181,2.941 1.849,1.375 -0.844,0.83 -0.117,0.068 -0.032,0.054 0,0.054 0.041,0.153 0.329,0.61 0.357,0.472 0.175,0.203 -0.483,0.771 0.108,0.77 0,0.117 -0.089,0.487 -2.137,0.694 -0.607,-0.374 -3.449,-1.492 -0.632,-4.033 1.196,0.278 0.914,0.284 0.325,-0.206 0.986,-0.686 2.11,-0.429 m 0.094,-8.946 0.105,0.177 1.004,1.171 1.254,0.721 1.018,0.662 -2.156,1.033 -0.918,0.054 -0.419,-0.032 -0.229,-0.035 -0.118,-0.059 -0.04,-0.041 -0.509,-1.59 0.012,-1.499 0.996,-0.562 m -0.734,-1.604 0.694,0.428 2.06,0.946 1.527,0.929 0.784,0.55 0.312,0.351 -1.262,1.131 -1.018,-0.662 -1.254,-0.721 -1.004,-1.171 -0.105,-0.177 -0.734,-1.604 m -0.102,-0.509 1.792,-0.379 1.893,1.253 1.226,0.671 0.05,-0.044 0.139,0.013 0.23,0.09 0.762,0.577 1.039,1.456 0.007,0.032 -1.659,0.044 -0.312,-0.351 -0.784,-0.55 -1.527,-0.929 -2.06,-0.946 -0.694,-0.428 -0.608,-0.401 0.506,-0.108 m -0.506,0.108 0.608,0.401 0.734,1.604 -0.996,0.562 -1.244,0.99 -1.162,-0.61 -0.279,0 -0.92,-0.153 -0.288,-0.085 -0.158,-0.107 -0.038,-0.046 -0.174,-0.699 0.167,-0.077 0.175,-0.509 0.014,-0.126 -0.194,-0.289 3.755,-0.856 m -0.862,4.241 0.97,2.758 -0.041,1.011 -0.486,1.166 -0.744,0.415 -2.01,0.248 -0.118,-0.031 -1.653,-0.605 -0.123,-0.072 -1.541,-1.243 -0.094,-0.145 -0.014,-0.071 0.123,-1.267 0.643,-1.168 0.271,0 1.771,-0.315 1.095,-0.271 1.951,-0.41 m -2.893,-3.385 0.194,0.289 -0.014,0.126 -0.175,0.509 -0.167,0.077 0.174,0.699 0.038,0.046 0.158,0.107 0.288,0.085 0.92,0.153 0.279,0 1.162,0.61 0.036,0.684 -1.951,0.41 -1.095,0.271 -1.771,0.315 -0.271,0 0.199,-1.644 0.41,-1.461 -0.929,-0.803 2.497,-0.469 0.018,-0.004 m 2.857,2.701 1.244,-0.99 -0.012,1.499 0.509,1.59 0.04,0.041 0.118,0.059 0.229,0.035 0.419,0.032 0.918,-0.054 -2.459,1.23 -0.97,-2.758 -0.036,-0.684 m -5.818,4.115 0.014,0.071 0.094,0.145 1.541,1.243 0.123,0.072 1.653,0.605 0.118,0.031 2.01,-0.248 0.744,-0.415 -0.443,2.204 -0.986,0.686 -0.325,0.206 -0.914,-0.284 -1.196,-0.278 -2.023,-0.74 -0.995,-2.258 0.585,-1.04 m 0.41,3.298 2.023,0.74 0.632,4.033 -1.852,1.411 -1.09,-0.928 -2.863,-2.425 0.337,-0.397 1.105,-1.203 0.298,-0.384 0.216,-0.369 0.757,-0.572 0.437,0.094 m 2.655,4.773 3.449,1.492 -0.411,0.495 -0.135,0.32 -0.114,0.614 0.474,1.429 0.243,0.257 0.582,0.325 0.928,0.229 0.401,-0.054 0.181,-0.085 0.45,-0.465 0.653,0.42 0.073,0.067 -0.049,0.293 -0.194,0.617 -0.609,0.424 -1.951,0.869 -1.366,0.383 -0.293,-0.314 -0.392,-2.426 -0.189,-0.585 -0.064,-0.077 -0.117,-0.023 -0.392,0.239 -0.32,-0.171 -3.155,-1.257 -0.109,-0.014 0.574,-1.591 1.852,-1.411 m 6.174,-0.202 1.141,-0.009 0.207,0.063 0.153,0.22 0.096,0.221 0.04,0.199 -0.149,0.671 -0.294,1.252 -0.161,0.38 -0.571,1.14 -0.588,0.622 -0.45,0.465 -0.181,0.085 -0.401,0.054 -0.928,-0.229 -0.582,-0.325 -0.243,-0.257 -0.474,-1.429 0.114,-0.614 0.135,-0.32 0.411,-0.495 0.607,0.374 2.137,-0.694 0.089,-0.487 0,-0.117 -0.108,-0.77 m 0.462,4.137 0.044,0.086 0.185,0.197 0.423,-0.044 1.988,-0.216 0.306,1.541 2.105,-2.24 -0.519,1.244 -2.041,3.659 -0.527,0.324 -0.354,-0.121 -1.084,-0.211 -0.533,0.063 -0.444,0.09 -0.479,0.139 -0.892,0.326 -0.834,0.346 -0.091,0.04 -0.037,0.018 -0.27,0.132 -0.229,0.131 -0.392,0.225 -0.167,0.094 -0.924,-1.744 0.735,-0.384 1.366,-0.383 1.951,-0.869 0.609,-0.424 0.194,-0.617 0.049,-0.293 -0.073,-0.067 -0.653,-0.42 0.588,-0.622 m -10.526,2.74 1.069,-0.278 2.955,0 0.325,0.04 0.577,0.444 0.05,0.061 0.784,1.072 0.924,1.744 -3.695,3.366 -2.385,-3.235 -0.081,-0.15 -0.009,-0.081 -0.108,-2.42 -0.406,-0.563 m -5.526,-1.803 3.417,-0.5 1.488,1.961 0.621,0.342 0.406,0.563 0.108,2.42 0.009,0.081 0.081,0.15 -4.475,0.843 -0.13,0.166 -0.064,0.036 -0.749,-0.225 0.153,-2.214 -0.558,-2.23 -0.307,-1.393 m 6.99,-1.87 0.109,0.014 3.155,1.257 0.32,0.171 0.392,-0.239 0.117,0.023 0.064,0.077 0.189,0.585 0.392,2.426 0.293,0.314 -0.735,0.384 -0.784,-1.072 -0.05,-0.061 -0.577,-0.444 -0.325,-0.04 -2.955,0 -1.069,0.278 -0.621,-0.342 1.167,-1.069 0.689,-1.361 0.005,-0.085 -0.343,-0.893 0.567,0.077 m 0.574,-1.591 -0.574,1.591 -0.567,-0.077 0.343,0.893 -0.005,0.085 -0.689,1.361 -1.167,1.069 -1.488,-1.961 -0.185,-2.506 1.145,-0.184 0.19,0.216 0.093,-0.019 0.338,-0.152 0.645,-0.505 0.831,-0.739 1.09,0.928 m -3.953,-3.353 2.863,2.425 -0.831,0.739 -0.645,0.505 -0.338,0.152 -0.093,0.019 -0.19,-0.216 -1.145,0.184 -0.681,-2.55 1.06,-1.258 m -3.556,1.572 2.496,-0.314 0.681,2.55 0.185,2.506 -3.417,0.5 -1.685,-0.96 0.405,-0.591 0.816,-1.374 0.519,-2.317 m -4.241,4.367 2.501,-0.085 1.685,0.96 0.307,1.393 0.558,2.23 -0.153,2.214 0.749,0.225 0.064,-0.036 0.13,-0.166 -1.064,2.42 -3.21,-3.389 -1.712,-1.289 -0.076,-0.117 -0.334,-0.622 -0.253,-0.555 0,-0.095 0.19,-2.055 0.618,-1.033 m 5.841,6.735 4.475,-0.843 2.385,3.235 -1.695,2.295 -0.266,0 -0.726,-0.496 -0.167,-0.162 -0.045,-0.099 0.082,-0.127 -0.419,0.005 -0.812,0.387 -1.002,0.614 -1.436,-0.062 -1.082,-0.358 0.671,-0.991 -0.382,-0.203 -0.316,-0.04 -0.184,-0.113 -0.257,-0.321 -0.028,-0.062 0.14,-0.239 1.064,-2.42 m -6.459,-5.702 -0.19,2.055 0,0.095 0.253,0.555 0.334,0.622 0.076,0.117 1.712,1.289 -0.099,0.067 -0.288,0.072 -2.757,0.528 -0.434,0.112 -0.576,0.271 -1.654,-1.267 -1.159,-2.699 -0.027,-0.236 0.32,-0.143 1.857,-0.852 0.915,-0.492 0.311,-0.071 1.406,-0.023 m 2.185,4.733 3.21,3.389 -0.14,0.239 0.028,0.062 0.257,0.321 0.184,0.113 0.316,0.04 0.382,0.203 -0.671,0.991 -0.762,0.577 -1.158,0.085 -1.465,-0.414 -1.307,-0.279 -1.149,0.298 -0.221,0.04 -0.09,0 -0.441,-0.175 0.139,-0.275 0.103,-2.299 -0.04,-0.19 -1.329,-1.676 0.576,-0.271 0.434,-0.112 2.757,-0.528 0.288,-0.072 0.099,-0.067 m 9.439,5.656 -0.194,0.292 -0.18,0.393 -0.478,1.185 -0.077,0.307 -0.18,0.891 -0.017,0.109 -0.276,1.885 -0.207,-1.385 -0.05,-0.278 -0.216,-0.803 -0.622,-1.46 -0.858,-1.014 1.002,-0.614 0.812,-0.387 0.419,-0.005 -0.082,0.127 0.045,0.099 0.167,0.162 0.726,0.496 0.266,0 m -4.791,0.06 1.436,0.062 0.858,1.014 0.622,1.46 0.216,0.803 0.05,0.278 0.207,1.385 -0.753,0.685 -0.846,-0.072 -0.452,0.004 -0.428,0.054 -1.028,0.216 -1.063,0.334 -0.036,0.013 -0.004,0 -1.222,0.708 -0.303,0.248 -1.365,-0.974 0.15,-1.004 0.482,-1.772 0.266,-0.325 0.081,-0.03 0.121,-0.01 1.127,-0.388 1.262,-0.712 0.622,-1.977 m -1.082,-0.358 1.082,0.358 -0.622,1.977 -1.262,0.712 -1.127,0.388 -0.121,0.01 -0.081,0.03 -0.266,0.325 -0.482,1.772 -0.15,1.004 -5.219,-3.728 0.532,-0.883 0.627,-1.348 0.496,-0.485 0.441,0.175 0.09,0 0.221,-0.04 1.149,-0.298 1.307,0.279 1.465,0.414 1.158,-0.085 0.762,-0.577 m -9.374,-5.575 1.654,1.267 1.329,1.676 0.04,0.19 -0.103,2.299 -0.139,0.275 -0.496,0.485 -0.627,1.348 -0.532,0.883 -4.674,-3.406 -0.143,-0.099 0.71,-2.867 1.214,-0.172 0.567,-0.261 1.2,-1.618" />
</svg>
