<?xml version="1.0" encoding="UTF-8" standalone="no"?>
<!-- Created with Inkscape (http://www.inkscape.org/) -->

<svg
   xmlns:dc="http://purl.org/dc/elements/1.1/"
   xmlns:cc="http://creativecommons.org/ns#"
   xmlns:rdf="http://www.w3.org/1999/02/22-rdf-syntax-ns#"
   xmlns:svg="http://www.w3.org/2000/svg"
   xmlns="http://www.w3.org/2000/svg"
   xmlns:sodipodi="http://sodipodi.sourceforge.net/DTD/sodipodi-0.dtd"
   xmlns:inkscape="http://www.inkscape.org/namespaces/inkscape"
   version="1.0"
   width="555.22198"
   height="351.66797"
   id="svg2"
   inkscape:version="0.48.1 r9760"
   sodipodi:docname="easternmichigan.svg">
  <metadata
     id="metadata33">
    <rdf:RDF>
      <cc:Work
         rdf:about="">
        <dc:format>image/svg+xml</dc:format>
        <dc:type
           rdf:resource="http://purl.org/dc/dcmitype/StillImage" />
      </cc:Work>
    </rdf:RDF>
  </metadata>
  <defs
     id="defs31" />
  <sodipodi:namedview
     pagecolor="#ffffff"
     bordercolor="#666666"
     borderopacity="1"
     objecttolerance="10"
     gridtolerance="10"
     guidetolerance="10"
     inkscape:pageopacity="0"
     inkscape:pageshadow="2"
     inkscape:window-width="640"
     inkscape:window-height="480"
     id="namedview29"
     showgrid="false"
     inkscape:zoom="0.83029853"
     inkscape:cx="277.61099"
     inkscape:cy="175.83398"
     inkscape:window-x="0"
     inkscape:window-y="25"
     inkscape:window-maximized="0"
     inkscape:current-layer="svg2" />
  <path
     id="26031"
     style="font-size:12px;fill:#0000ff;fill-rule:nonzero;stroke:#000000;stroke-opacity:1;stroke-width:0.1;stroke-miterlimit:4;stroke-dasharray:none;stroke-linecap:butt;marker-start:none;stroke-linejoin:bevel"
     d="m 395.71998,74.507 -0.756,-6.382 0.18,0.262 2.456,1.176 0.762,-0.131 0.406,-0.167 1.072,0.253 0.112,0.085 -0.427,0.063 0.347,2.479 0.378,2.984 -1.086,0.136 -3.322,0.36 -0.122,-1.118 m 12.278,-0.482 -4.453,0.649 -3.295,0.455 -0.378,-2.984 -0.347,-2.479 0.427,-0.063 0.83,0.996 3.083,1.208 1.979,0.609 0.266,0.036 0.504,-0.059 0.145,-0.162 0.071,0.013 0.465,0.528 0.703,1.253 m -12.156,1.6 3.322,-0.36 0.501,4.412 -4.332,0.473 -0.472,-3.295 0.981,-1.23 m 7.703,-0.951 0.284,2.195 -0.041,0.09 -0.005,0.162 0.267,1.983 -4.385,0.573 -0.501,-4.412 1.086,-0.136 3.295,-0.455 m 4.453,-0.649 0.735,0.807 0.671,1.352 -0.044,0.049 -0.155,-0.017 -0.5,-0.131 -0.171,-0.095 -0.108,-0.14 -0.303,-0.063 -0.287,0.203 -0.062,0.095 -0.078,0.216 -0.004,0.045 0.108,0.527 0.122,0.478 0.067,0.14 0.063,0.095 0.081,0.072 0.325,0.266 0.738,0.473 -5.146,0.707 -0.267,-1.983 0.005,-0.162 0.041,-0.09 -0.284,-2.195 4.453,-0.649 m -12.665,6.125 4.332,-0.473 0.563,4.453 -4.399,0.482 -0.496,-4.462 m 4.332,-0.473 4.385,-0.573 0.586,4.453 -4.408,0.573 -0.563,-4.453 m 4.385,-0.573 5.146,-0.707 0.235,0.347 0.446,1.451 0.01,0.32 -0.067,2.326 -5.184,0.716 -0.586,-4.453 m -8.221,5.508 4.399,-0.482 0.563,4.444 -2.204,0.27 -2.235,0.257 -0.523,-4.489 m 8.807,-1.055 0.592,4.444 -2.584,0.329 -1.853,0.244 -0.563,-4.444 4.408,-0.573 m 0,0 5.184,-0.716 0.048,0.324 0.059,0.92 -0.113,1.095 -0.752,0.87 -0.171,-0.05 -0.15,0.005 -0.189,0.068 -0.071,0.049 -0.122,0.171 -0.099,0.19 -0.068,0.279 -0.041,0.834 -2.923,0.405 -0.592,-4.444 m -1.992,4.773 0.532,4.318 -1.844,0.19 0.023,0.189 -2.212,0.257 -0.556,-4.44 2.204,-0.27 1.853,-0.244 m 5.507,-0.734 0.027,0.482 0.005,0.329 -0.023,0.586 -0.779,0.919 -0.753,0.212 -0.221,0.027 -0.387,0 -0.162,0.122 -0.055,0.063 -0.18,0.257 -0.207,0.563 -0.023,0.104 -1.226,0.145 -0.149,-1.1 -1.114,0.144 -0.26,-2.119 2.584,-0.329 2.923,-0.405 m -9.008,5.688 2.212,-0.257 -0.023,-0.189 1.844,-0.19 0.404,3.3 0.114,1.117 -1.843,0.23 0.021,0.203 -2.203,0.27 -0.526,-4.484 m 3.761,-2.835 1.114,-0.144 0.149,1.1 1.226,-0.145 -0.068,1.97 1.402,1.348 1.14,0.455 0.203,1.514 -0.757,-0.095 -0.41,-0.324 -1.185,0.148 -0.676,-0.112 -0.37,-0.334 -1.092,0.118 -0.404,-3.3 -0.272,-2.199 m 10.202,2.858 -3.205,0.536 -0.114,-0.789 0.015,-0.063 0.102,-0.51 0.257,-0.82 1.109,-1.938 2.533,-1.613 0.464,-0.122 1.208,0.451 0.482,0.288 0.077,0.072 0.342,0.491 0.789,1.141 0.127,0.261 0.257,0.78 0.103,0.36 0.144,0.627 -4.69,0.848 m -3.319,-0.253 0.114,0.789 3.205,-0.536 0.585,4.475 -2.163,0.351 -0.834,1.28 0.018,0.127 -2.183,0.306 -0.459,-3.299 -0.203,-1.514 1.92,-1.979 m 3.319,0.253 4.69,-0.848 0.045,0.266 0.167,0.847 0.05,0.163 1.357,4.574 0.063,0.158 0.229,0.55 -4.56,0.825 -0.271,-1.673 -1.1,0.163 -0.085,-0.55 -0.585,-4.475 m -5.036,3.24 0.459,3.299 -2.022,1.42 -4.08,0.573 -0.555,-4.341 -0.021,-0.203 1.843,-0.23 -0.114,-1.117 1.092,-0.118 0.37,0.334 0.676,0.112 1.185,-0.148 0.41,0.324 0.757,0.095 m -8.401,1.221 2.203,-0.27 0.555,4.341 0.014,0.13 -4.372,0.518 -0.613,-4.457 2.213,-0.262 m 2.772,4.201 0.582,4.394 -2.232,0.352 -2.195,0.251 -0.527,-4.479 4.372,-0.518 m 4.066,-0.703 0.636,4.516 -2.197,0.334 -1.923,0.247 -0.582,-4.394 -0.014,-0.13 4.08,-0.573 m 2.022,-1.42 2.183,-0.306 0.657,4.394 -1.094,0.235 -1.1,0.17 0.176,1.133 -2.208,0.31 -0.636,-4.516 2.022,-1.42 m 2.183,-0.306 -0.018,-0.127 0.834,-1.28 2.163,-0.351 0.085,0.55 1.1,-0.163 0.271,1.673 0.576,3.326 -1.081,0.216 -3.273,0.55 -0.657,-4.394 m 4.435,0.302 4.56,-0.825 0.023,0.081 0.185,0.545 0.073,0.194 0.761,1.127 -0.063,3.605 -0.068,1.267 -0.041,0.315 -0.032,0.086 -0.473,0.766 -0.044,0.054 -0.159,0.046 -0.536,0.107 -0.517,-0.509 -0.034,-0.09 0.168,-0.405 0.176,-0.158 0.23,0.05 0.117,-0.164 0.036,-0.071 0.014,-0.112 -0.023,-0.122 -0.081,-0.095 -0.045,-0.022 -0.388,-0.095 -0.108,-0.023 -0.144,0.027 -0.225,0.123 -0.014,0.008 -0.05,-0.306 -0.442,-2.442 -2.28,0.364 -0.576,-3.326" />
</svg>
