<?xml version="1.0" encoding="UTF-8" standalone="no"?>
<!-- Created with Inkscape (http://www.inkscape.org/) -->

<svg
   xmlns:dc="http://purl.org/dc/elements/1.1/"
   xmlns:cc="http://creativecommons.org/ns#"
   xmlns:rdf="http://www.w3.org/1999/02/22-rdf-syntax-ns#"
   xmlns:svg="http://www.w3.org/2000/svg"
   xmlns="http://www.w3.org/2000/svg"
   xmlns:sodipodi="http://sodipodi.sourceforge.net/DTD/sodipodi-0.dtd"
   xmlns:inkscape="http://www.inkscape.org/namespaces/inkscape"
   version="1.0"
   width="555.22198"
   height="351.66797"
   id="svg2"
   inkscape:version="0.48.1 r9760"
   sodipodi:docname="easternoregon.svg">
  <metadata
     id="metadata27">
    <rdf:RDF>
      <cc:Work
         rdf:about="">
        <dc:format>image/svg+xml</dc:format>
        <dc:type
           rdf:resource="http://purl.org/dc/dcmitype/StillImage" />
      </cc:Work>
    </rdf:RDF>
  </metadata>
  <defs
     id="defs25" />
  <sodipodi:namedview
     pagecolor="#ffffff"
     bordercolor="#666666"
     borderopacity="1"
     objecttolerance="10"
     gridtolerance="10"
     guidetolerance="10"
     inkscape:pageopacity="0"
     inkscape:pageshadow="2"
     inkscape:window-width="640"
     inkscape:window-height="480"
     id="namedview23"
     showgrid="false"
     inkscape:zoom="0.83029853"
     inkscape:cx="277.61099"
     inkscape:cy="175.83398"
     inkscape:window-x="0"
     inkscape:window-y="25"
     inkscape:window-maximized="0"
     inkscape:current-layer="svg2" />
  <path
     id="53039"
     style="font-size:12px;fill:#0000ff;fill-rule:nonzero;stroke:#000000;stroke-opacity:1;stroke-width:0.1;stroke-miterlimit:4;stroke-dasharray:none;stroke-linecap:butt;marker-start:none;stroke-linejoin:bevel"
     d="m 81.13098,44.084 -0.672,2.552 -1.24,0 -1.352,0.166 -0.288,0.072 -0.469,0.356 -1.776,-0.108 -0.703,-0.122 -0.184,-0.121 -0.109,-0.158 -0.234,-0.441 -0.252,-0.177 -0.384,-0.094 -0.189,0.063 -0.388,0.185 -0.964,0.135 -0.793,0.122 -0.469,0.144 -0.194,-0.257 -3.272,-1.532 -0.311,-0.063 -0.617,-0.091 -0.614,-0.532 0.235,-0.667 -0.789,-0.261 0.28,-1.154 0.586,-2.095 0.766,0.207 0.856,0.23 2.353,0.635 0.721,0.226 4.142,1.131 6.324,1.649 m -19.219,0.077 0.253,-0.226 0.383,-0.198 0.532,-0.031 0.621,0.342 0.244,0.059 0.744,0.058 0.968,0.018 0.614,0.532 -0.523,1.443 -0.442,0.667 -0.771,2.866 -0.112,0.388 -1.893,-0.519 -0.379,-2.83 -0.239,-2.569 m 4.359,0.554 0.617,0.091 0.311,0.063 3.272,1.532 0.194,0.257 0.32,1.758 -0.018,0.085 -0.162,0.325 -0.527,0.933 -0.915,0.685 -0.005,1.708 1.253,1.623 0.428,0.423 1.397,0.379 0.028,0.198 0.278,3.372 -5.38,-1.452 -0.979,-0.288 -5.895,-1.622 0.433,-0.718 -0.374,-0.743 -0.014,-0.036 0.185,-0.888 0.022,-0.054 1.123,-2.177 0.049,-0.09 0.618,-0.519 1.893,0.519 0.112,-0.388 0.771,-2.866 0.442,-0.667 0.523,-1.443 m 4.394,1.943 0.469,-0.144 0.793,-0.122 0.964,-0.135 0.388,-0.185 0.252,0.279 0.767,0.956 0.635,1.095 0.158,1.199 -0.085,0.135 -0.109,0.023 -0.328,0.167 -1.082,0.586 -0.483,0.941 -0.423,0.889 0.32,0.829 -0.154,1.117 -0.311,0.289 -1.397,-0.379 -0.428,-0.423 -1.253,-1.623 0.005,-1.708 0.915,-0.685 0.527,-0.933 0.162,-0.325 0.018,-0.085 -0.32,-1.758 m 2.614,-0.586 0.189,-0.063 0.384,0.094 0.252,0.177 0.234,0.441 0.109,0.158 0.184,0.121 0.703,0.122 1.776,0.108 0.469,-0.356 0.288,-0.072 1.352,-0.166 0.014,0 -0.644,2.447 -0.348,1.217 -0.856,3.24 1.015,0.6 0.869,1.082 -0.28,1.081 -0.306,0.099 -6.219,-1.627 -0.028,-0.198 0.311,-0.289 0.154,-1.117 -0.32,-0.829 0.423,-0.889 0.483,-0.941 1.082,-0.586 0.328,-0.167 0.109,-0.023 0.085,-0.135 -0.158,-1.199 -0.635,-1.095 -0.767,-0.956 -0.252,-0.279 m 5.954,0.564 1.226,0 0.861,0.09 0.937,0.089 1.749,-0.216 0.509,0.032 -0.175,0.609 -0.825,3.272 1.631,0.419 0.64,1.298 -1.356,5.422 -0.428,1.05 -4.503,-1.113 -0.816,-1.186 0.306,-0.099 0.28,-1.081 -0.869,-1.082 -1.015,-0.6 0.856,-3.24 0.348,-1.217 0.644,-2.447 m 9.438,-0.113 8.663,2.077 0.166,0.041 -0.369,1.767 -0.762,0.397 -1.014,1.46 -0.528,2.181 -0.252,0.523 -0.712,0.405 -2.249,0.415 -1.636,-0.392 -0.775,-0.058 -0.258,1.099 0.177,0.852 0.964,0.23 -0.099,1.519 -0.261,1.063 -5.724,-1.401 0.428,-1.05 1.356,-5.422 -0.64,-1.298 -1.631,-0.419 0.825,-3.272 0.175,-0.609 0.51,0.031 1.352,0.185 0.248,0.127 0.23,0.058 0.392,0.027 0.32,-0.049 0.658,-0.19 0.193,-0.085 0.253,-0.212 m -28.183,8.262 5.895,1.622 0.979,0.288 5.38,1.452 -0.964,3.186 -3.93,-1.023 -0.293,1.073 -1.433,-0.383 -0.288,1.081 -1.055,-0.293 -6.526,-1.816 1.437,-3.511 0.798,-1.676 m -2.235,5.187 6.526,1.816 -0.591,2.145 -0.221,1.019 1.019,0.33 -0.577,2.163 1.217,0.369 0.879,0.239 -0.257,1.082 3.317,0.87 0.802,1.37 -0.283,1.081 0.194,0.068 3.051,0.776 -0.271,1.108 -3.903,-1.027 -5.792,-1.618 -0.135,-0.037 -3.092,-0.824 -6.021,-1.65 0.275,-0.446 0.302,-0.649 0.441,-1.217 1.245,-1.199 1.456,-1.839 0.121,-0.284 0.076,-0.595 0.141,-1.276 0.081,-1.775 m 13.525,1.361 -0.306,1.096 -0.113,0.486 3.245,0.829 0.925,0.956 -0.041,1.027 1.965,0.505 -1.122,4.354 -1.064,-0.27 -0.852,3.267 -1.086,-0.283 -3.051,-0.776 -0.194,-0.068 0.283,-1.081 -0.802,-1.37 -3.317,-0.87 0.257,-1.082 -0.879,-0.239 -1.217,-0.369 0.577,-2.163 -1.019,-0.33 0.221,-1.019 0.591,-2.145 1.055,0.293 0.288,-1.081 1.433,0.383 0.293,-1.073 3.93,1.023 m 0.686,-6.558 6.219,1.627 0.816,1.186 -0.32,1.271 -0.049,0.914 -1.677,6.459 -1.965,-0.505 0.041,-1.027 -0.925,-0.956 -3.245,-0.829 0.113,-0.486 0.306,-1.096 0.964,-3.186 -0.278,-3.372 m 7.035,2.813 4.503,1.113 5.724,1.401 2.321,1.059 0.041,0.253 -0.023,0.311 -0.086,0.519 -1.587,3.425 -0.139,0.212 -0.69,0.771 -0.541,0.473 -0.095,0.126 -1.162,1.83 -0.031,0.08 -0.059,0.294 2.379,0.554 -0.604,2.732 -3.235,-0.78 -0.672,-0.23 -1.37,-0.37 -0.275,1.1 -7.567,-1.875 1.122,-4.354 1.677,-6.459 0.049,-0.914 0.32,-1.271 m 17.632,-7.18 1.983,0.46 -0.293,0.703 -0.325,0.306 -0.239,1.059 0.019,2.317 0.134,1.176 0.163,0.901 0.117,0.352 0.347,0.081 0.244,0.618 0.094,0.396 0.104,1.38 1.866,0.419 -0.239,1.072 -2.641,-0.59 -0.257,1.091 -1.911,-0.437 -1.92,-0.478 -0.086,-0.032 -0.464,-0.36 -0.405,-0.505 -0.181,0.023 -0.829,0.455 -0.365,0.346 -2.321,-1.059 0.261,-1.063 0.099,-1.519 -0.964,-0.23 -0.177,-0.852 0.258,-1.099 0.775,0.058 1.636,0.392 2.249,-0.415 0.712,-0.405 0.252,-0.523 0.528,-2.181 1.014,-1.46 0.762,-0.397 m 0.369,-1.767 3.277,0.789 1.077,0.261 4.945,1.154 0.635,1.979 0.04,0.076 0.027,0.05 0.41,0.378 0.785,0.722 0.329,0.144 0.004,0.004 0.154,0.198 0.175,0.222 0,0.004 0.059,0.248 0.311,1.631 -0.036,0.163 -0.217,0.247 -0.865,0.884 -1.56,2.001 -0.306,0.645 -1.347,2.195 -4.291,-0.988 0.239,-1.072 -1.866,-0.419 -0.104,-1.38 -0.094,-0.396 -0.244,-0.618 -0.347,-0.081 -0.117,-0.352 -0.163,-0.901 -0.134,-1.176 -0.019,-2.317 0.239,-1.059 0.325,-0.306 0.293,-0.703 -1.983,-0.46 0.369,-1.767 m -5.453,12.52 0.365,-0.346 0.829,-0.455 0.181,-0.023 0.405,0.505 0.464,0.36 0.086,0.032 1.92,0.478 1.911,0.437 0.257,-1.091 2.641,0.59 4.291,0.988 -0.437,0.396 -0.285,0.262 -0.225,0.469 0.009,0.261 0.032,0.126 0.054,0.126 0.013,0.104 -0.009,0.009 -0.302,0.522 -0.211,0.226 -0.271,0.288 -0.491,0.528 -0.861,0.293 -0.221,0.049 -0.063,0.027 -0.212,0.19 -1.996,2.744 -0.113,0.226 -0.311,2.122 -2.6,-0.594 0.238,-1.091 -0.297,-0.437 -0.469,-0.491 -3.416,-0.78 -0.397,0.085 -0.225,0.14 -0.077,0.32 -0.726,0.64 -0.712,0.6 -0.41,0.099 -0.352,-0.086 -2.379,-0.554 0.059,-0.294 0.031,-0.08 1.162,-1.83 0.095,-0.126 0.541,-0.473 0.69,-0.771 0.139,-0.212 1.587,-3.425 0.086,-0.519 0.023,-0.311 -0.041,-0.253 m -1.993,8.848 0.352,0.086 0.41,-0.099 0.712,-0.6 0.726,-0.64 0.077,-0.32 0.225,-0.14 0.397,-0.085 3.416,0.78 0.469,0.491 0.297,0.437 -0.238,1.091 2.6,0.594 -0.023,0.068 -0.013,0.109 0.018,0.185 0.135,0.229 1.122,0.455 0.086,-0.04 0.049,0 0.357,0.126 0.094,0.059 0.478,0.946 0.009,0.018 0.031,0.099 -0.013,0.131 0,0.013 -0.005,0.005 -0.018,0.036 -0.013,0.027 -0.013,0.023 -0.456,0.559 -0.351,1.433 -0.438,0.829 -0.27,0.451 -0.996,2.416 -4.773,21.25 -10.898,-2.478 0.694,-2.849 0.05,-0.46 -0.068,-0.248 1.231,-5.381 0.558,-2.704 1.276,-5.485 0.825,-3.471 0.365,-1.51 0.139,-0.423 0.784,-3.281 0.604,-2.732 m -13.723,0.577 7.567,1.875 0.275,-1.1 1.37,0.37 0.672,0.23 3.235,0.78 -0.784,3.281 -0.139,0.423 -0.365,1.51 -0.825,3.471 -1.276,5.485 -0.558,2.704 -1.231,5.381 0.068,0.248 -0.05,0.46 -0.694,2.849 -5.395,-1.24 -5.061,-1.276 -0.33,-0.085 0.455,-1.794 0.352,-1.564 1.528,-6.147 -3.123,-0.785 -0.73,-0.162 -1.451,-0.365 0.558,-2.141 0.942,-3.259 0.658,-1.64 0.992,-3.358 0.067,-0.329 0.271,-1.108 1.086,0.283 0.852,-3.267 1.064,0.27 m -16.195,0.316 3.092,0.824 0.135,0.037 5.792,1.618 3.903,1.027 -0.067,0.329 -0.992,3.358 -0.658,1.64 -0.942,3.259 -0.558,2.141 1.451,0.365 0.73,0.162 3.123,0.785 -1.528,6.147 -0.352,1.564 -0.455,1.794 -5.908,-1.505 -2.66,-0.672 -0.365,-0.094 -3.38,-0.897 -0.013,-0.005 -1.713,-0.46 2.484,-9.406 -1.213,-0.356 -3.029,-0.83 0.581,-2.176 1.078,-3.84 0.365,-1.046 0.216,-0.514 0.883,-3.249 m -6.021,-1.65 6.021,1.65 -0.883,3.249 -0.216,0.514 -0.365,1.046 -1.078,3.84 -0.581,2.176 3.029,0.83 1.213,0.356 -2.484,9.406 -5.219,-1.46 -7.703,-2.294 1.541,-5.368 0.248,-0.758 1.785,-6.187 0.248,-0.884 1.812,0.221 1.609,-1.92 0.004,-1.046 -0.049,-0.238 -0.383,-0.992 -0.158,-0.212 -0.167,-0.077 1.776,-1.852" />
</svg>
