<?xml version="1.0" encoding="UTF-8" standalone="no"?>
<!-- Created with Inkscape (http://www.inkscape.org/) -->

<svg
   xmlns:dc="http://purl.org/dc/elements/1.1/"
   xmlns:cc="http://creativecommons.org/ns#"
   xmlns:rdf="http://www.w3.org/1999/02/22-rdf-syntax-ns#"
   xmlns:svg="http://www.w3.org/2000/svg"
   xmlns="http://www.w3.org/2000/svg"
   xmlns:sodipodi="http://sodipodi.sourceforge.net/DTD/sodipodi-0.dtd"
   xmlns:inkscape="http://www.inkscape.org/namespaces/inkscape"
   version="1.0"
   width="555.22198"
   height="351.66797"
   id="svg2"
   inkscape:version="0.48.1 r9760"
   sodipodi:docname="easttennessee.svg">
  <metadata
     id="metadata43">
    <rdf:RDF>
      <cc:Work
         rdf:about="">
        <dc:format>image/svg+xml</dc:format>
        <dc:type
           rdf:resource="http://purl.org/dc/dcmitype/StillImage" />
      </cc:Work>
    </rdf:RDF>
  </metadata>
  <defs
     id="defs41" />
  <sodipodi:namedview
     pagecolor="#ffffff"
     bordercolor="#666666"
     borderopacity="1"
     objecttolerance="10"
     gridtolerance="10"
     guidetolerance="10"
     inkscape:pageopacity="0"
     inkscape:pageshadow="2"
     inkscape:window-width="640"
     inkscape:window-height="480"
     id="namedview39"
     showgrid="false"
     inkscape:zoom="0.83029853"
     inkscape:cx="277.61099"
     inkscape:cy="175.83398"
     inkscape:window-x="0"
     inkscape:window-y="25"
     inkscape:window-maximized="0"
     inkscape:current-layer="svg2" />
  <path
     id="13083"
     style="font-size:12px;fill:#0000ff;fill-rule:nonzero;stroke:#000000;stroke-opacity:1;stroke-width:0.1;stroke-miterlimit:4;stroke-dasharray:none;stroke-linecap:butt;marker-start:none;stroke-linejoin:bevel"
     d="m 404.95598,208.061 -0.401,1.033 -0.238,1.473 0.057,0.487 -0.293,1.204 -0.391,0.643 -0.848,-2.997 -0.406,-1.577 1.388,-0.144 1.132,-0.122 m 32.284,-24.175 0.397,0.396 0,0.04 -0.798,1.348 0.157,0.31 0.703,0.732 0.343,0.293 0.181,-0.069 -1.212,2.267 -1.537,-0.445 -1.389,-1.055 0.144,-1.911 3.011,-1.906 m -6.959,2.009 0.568,-0.089 1.266,-0.249 0.614,-0.194 0.355,0.072 0.51,0.371 0.162,0.048 0.473,-0.062 -0.144,1.911 -0.316,0.667 -0.324,0.482 -0.446,0.288 -0.239,0.027 -0.401,0.144 -0.59,0.776 -0.591,-0.55 -0.108,-0.712 -0.235,-2.74 -0.03,-0.09 -0.709,0.207 0.185,-0.307 m -0.185,0.307 0.709,-0.207 0.03,0.09 0.235,2.74 0.108,0.712 0.591,0.55 0.022,0.739 -0.197,-0.189 0,-0.005 -0.155,-0.098 -0.049,0.008 -0.262,0.189 -0.181,0.131 -0.648,0.64 -0.91,0.852 -0.466,0.118 -0.666,-0.6 -1.145,-0.893 -0.897,-0.481 -0.404,-0.298 -0.073,-0.082 0.027,-0.307 0.749,-0.905 0.085,-0.009 0.113,-0.086 0.437,-0.391 0.239,-0.276 0.193,-0.346 0.231,-0.267 0.522,-0.333 0.19,-0.103 0.495,-0.145 1.077,-0.748 m 0.618,-2.497 -0.433,2.19 -0.185,0.307 -1.077,0.748 -0.495,0.145 -0.19,0.103 -0.522,0.333 -0.231,0.267 -0.193,0.346 -0.239,0.276 -0.437,0.391 -0.113,0.086 -0.085,0.009 -1.853,-0.365 -0.442,-1.325 1.118,-1.321 0.469,-0.558 0.496,-0.403 0.374,-0.265 0.045,-0.009 0.342,0.158 0.266,0.031 1.131,-0.824 2.254,-0.32 m 3.371,3.998 1.389,1.055 -1.839,1.37 -0.734,1.343 -1.11,-0.645 -0.022,-0.739 0.59,-0.776 0.401,-0.144 0.239,-0.027 0.446,-0.288 0.324,-0.482 0.316,-0.667 m -8.32,2.108 -0.027,0.307 0.073,0.082 0.404,0.298 0.897,0.481 1.145,0.893 0.666,0.6 -0.399,2.033 -2.868,1.427 -0.882,-2.249 0.455,-2.542 0.536,-1.33 m -0.536,1.33 -0.455,2.542 -1.15,-0.301 -2.104,-0.839 -0.713,-0.202 -0.013,-0.555 1.899,-1.478 2.536,0.833 m 1.285,-2.235 -0.749,0.905 -0.536,1.33 -2.536,-0.833 1.968,-1.767 1.853,0.365 m -3.407,-1.78 1.112,0.09 0.442,1.325 -1.968,1.767 -1.899,1.478 -0.806,-0.992 0.364,-2.407 2.755,-1.261 m 5.353,-3.101 -1.131,0.824 -0.266,-0.031 -0.342,-0.158 -0.045,0.009 -0.374,0.265 -0.496,0.403 -0.469,0.558 -1.118,1.321 -1.112,-0.09 -1.191,-2.258 4.971,-0.627 1.573,-0.216 m -8.621,1.073 2.077,-0.23 1.191,2.258 -2.755,1.261 -0.816,-0.215 -0.689,-0.744 -0.059,-0.032 -0.708,0.203 -0.288,0.13 -1.117,-2.077 0.581,-0.058 2.583,-0.496 m -2.047,2.631 0.288,-0.13 0.708,-0.203 0.059,0.032 0.689,0.744 0.816,0.215 -0.364,2.407 -2.183,-0.004 -0.779,-1 0.153,-0.181 0.113,-0.22 0.252,-1.29 0.248,-0.37 m 2.196,3.065 0.806,0.992 0.013,0.555 -0.991,2.109 -0.739,0.672 -0.149,0 -0.65,-0.325 -0.549,-0.04 -1.451,0.724 -0.158,0.51 -1.149,-1.055 -0.109,-0.161 0.181,-0.118 1.703,-1.681 -0.229,-0.401 -0.014,-0.166 1.095,-1.452 0.18,-0.167 0.027,0 2.183,0.004 m 4.786,2.889 0.882,2.249 0.045,0.245 -0.374,0.548 -1.789,1.416 -0.127,0.082 -1.473,0.152 -0.189,-0.004 -0.05,-0.005 -0.203,-1.563 -0.36,-0.171 -0.441,-0.662 -0.879,-1.52 0.991,-2.109 0.713,0.202 2.104,0.839 1.15,0.301 m -4.958,0.767 0.879,1.52 0.441,0.662 0.36,0.171 0.203,1.563 -2.816,1.784 -0.086,-0.03 0.177,-0.284 0.012,-0.05 -0.012,-0.013 -1.087,-0.582 -0.51,0.095 -1.086,-0.617 -0.086,-0.142 -0.085,-2.536 0.158,-0.51 1.451,-0.724 0.549,0.04 0.65,0.325 0.149,0 0.739,-0.672 m -4.845,0.486 1.149,1.055 0.085,2.536 -0.057,-0.093 -1.461,-0.428 -1.042,0.031 -0.072,0.015 -0.233,0.107 -0.298,0.171 -0.347,0.451 -0.64,-0.184 0.418,-0.393 0.177,-0.563 1.64,-2.57 0.487,-0.193 0.194,0.058 m 2.055,-5.146 0.779,1 -0.027,0 -0.18,0.167 -1.095,1.452 0.014,0.166 0.229,0.401 -1.703,1.681 -0.181,0.118 -0.942,-1.7 -1.198,-1.352 0.618,-0.77 3.686,-1.163 m -0.351,-4.138 1.117,2.077 -0.248,0.37 -0.252,1.29 -0.113,0.22 -0.153,0.181 -3.686,1.163 0.043,-0.749 0.434,-3.101 0.063,-1.131 0.352,-0.04 2.443,-0.28 m -8.087,0.816 5.292,-0.496 -0.063,1.131 -0.434,3.101 -0.043,0.749 -0.618,0.77 -0.375,-0.411 -1.054,-0.395 -0.482,-0.361 -1.077,-1.185 -0.555,-1.947 -0.667,-0.952 0.076,-0.004 m 4.134,5.255 1.198,1.352 -0.631,0.636 -0.343,0.305 -0.796,0.249 -1.497,1.045 -2.708,-2.92 -0.15,-0.663 0.279,-1.042 0.083,-0.107 1.577,-1.207 1.077,1.185 0.482,0.361 1.054,0.395 0.375,0.411 m -0.249,6.481 -0.418,0.393 -0.365,0.04 -1.24,-1.266 -0.712,-0.861 0.915,-1.2 1.497,-1.045 0.796,-0.249 0.343,-0.305 0.631,-0.636 0.942,1.7 0.109,0.161 -0.194,-0.058 -0.487,0.193 -1.64,2.57 -0.177,0.563 z m 0,0 0,0 m -0.418,0.393 0.64,0.184 0.044,0.068 0.014,0.14 0.434,0.689 1.067,1.866 0.094,0.879 -0.811,0.684 -0.184,0.276 -1.131,0.117 -0.492,0.194 -0.285,0.248 -1.793,-1.212 2.038,-4.093 0.365,-0.04 m 4.15,-0.07 0.086,0.142 1.086,0.617 0.51,-0.095 1.087,0.582 0.012,0.013 -0.012,0.05 -0.177,0.284 -0.423,2.312 -0.244,0.333 -0.395,0.325 -1.111,0.027 -0.85,0.748 -2.237,-0.758 0.811,-0.684 -0.094,-0.879 -1.067,-1.866 -0.434,-0.689 -0.014,-0.14 -0.044,-0.068 0.347,-0.451 0.298,-0.171 0.233,-0.107 0.072,-0.015 1.042,-0.031 1.461,0.428 0.057,0.093 z m -2.668,4.58 2.237,0.758 0.039,2.849 -3.123,0.384 -1.61,0.197 0.365,-3.353 0.285,-0.248 0.492,-0.194 1.131,-0.117 0.184,-0.276 m -3.885,-0.377 1.793,1.212 -0.365,3.353 -0.359,0.045 -1.735,0.203 -0.344,-0.717 -0.372,-1.019 0.093,-0.756 0.063,-0.235 0.424,-1.176 0.802,-0.91 m -1.707,-0.573 0.905,1.483 -0.424,1.176 -0.063,0.235 -0.093,0.756 0.372,1.019 0.344,0.717 -0.032,0.005 -2.971,0.373 -1.027,0.14 -1.132,0.122 0.649,-2.209 1.375,-2.857 0.78,-1.442 1.317,0.482 m 3.745,-3.52 -2.038,4.093 -0.802,0.91 -0.905,-1.483 0.931,-0.482 0.069,-0.045 1.068,-1.569 0.558,-1.906 0.041,-0.505 -0.032,-0.077 -0.13,-0.202 1.24,1.266 m -1.24,-1.266 0.13,0.202 0.032,0.077 -0.041,0.505 -0.558,1.906 -1.068,1.569 -0.069,0.045 -0.931,0.482 -1.317,-0.482 -0.153,-0.424 0.279,-1.077 0.6,-0.771 1.095,-1.911 1.289,-0.982 0.712,0.861 m -4.462,-4.522 1.957,-0.459 2.708,2.92 -0.915,1.2 -1.289,0.982 -0.789,0.19 -0.401,0.022 -0.573,-0.005 -0.487,-0.049 -1.243,0.194 0,-0.018 -0.225,-0.248 0.022,-0.068 -0.217,-2.411 0.006,-1.591 0.103,-0.076 0.861,-0.019 0.482,-0.564 m -1.032,4.995 1.243,-0.194 0.487,0.049 0.573,0.005 0.401,-0.022 0.789,-0.19 -1.095,1.911 -0.6,0.771 -0.279,1.077 0.153,0.424 -0.78,1.442 -2.362,-2.52 1.47,-2.753 m -1.47,2.753 2.362,2.52 -1.375,2.857 -0.009,-0.108 -0.157,-0.653 -0.157,-0.226 -0.424,-0.424 -0.267,-0.067 -0.892,-0.36 -0.122,-0.181 -0.806,-2.687 0.513,-0.071 1.334,-0.6 m -4.177,4.95 3.136,-1.592 0.122,0.181 0.892,0.36 0.267,0.067 0.424,0.424 0.157,0.226 0.157,0.653 0.009,0.108 -0.649,2.209 -1.388,0.144 -2.708,0.244 -0.419,-3.024 m 39.324,-23.262 1.834,-0.248 -0.266,0.353 -0.049,2.644 0.039,0.614 -0.215,0.072 -0.019,0 -0.161,0.008 -0.27,-0.086 -0.064,-0.148 -0.054,0.031 -0.013,0.01 -0.514,0.352 -0.474,0.531 -0.076,0.207 -0.108,0.311 -0.181,0.069 -0.343,-0.293 -0.703,-0.732 -0.157,-0.31 0.798,-1.348 0,-0.04 -0.397,-0.396 1.393,-1.601 m 0,0 -1.393,1.601 -3.011,1.906 -0.473,0.062 -0.162,-0.048 -0.51,-0.371 -0.355,-0.072 -0.614,0.194 -1.266,0.249 -0.568,0.089 0.433,-2.19 3.205,-0.478 0.513,-0.077 0.992,-0.135 2.158,-0.311 0.072,-0.302 0.979,-0.117" />
</svg>
