<?xml version="1.0" encoding="UTF-8" standalone="no"?>
<!-- Created with Inkscape (http://www.inkscape.org/) -->

<svg
   xmlns:dc="http://purl.org/dc/elements/1.1/"
   xmlns:cc="http://creativecommons.org/ns#"
   xmlns:rdf="http://www.w3.org/1999/02/22-rdf-syntax-ns#"
   xmlns:svg="http://www.w3.org/2000/svg"
   xmlns="http://www.w3.org/2000/svg"
   xmlns:sodipodi="http://sodipodi.sourceforge.net/DTD/sodipodi-0.dtd"
   xmlns:inkscape="http://www.inkscape.org/namespaces/inkscape"
   version="1.0"
   width="555.22198"
   height="351.66797"
   id="svg2"
   inkscape:version="0.48.1 r9760"
   sodipodi:docname="eauclaire.svg">
  <metadata
     id="metadata35">
    <rdf:RDF>
      <cc:Work
         rdf:about="">
        <dc:format>image/svg+xml</dc:format>
        <dc:type
           rdf:resource="http://purl.org/dc/dcmitype/StillImage" />
      </cc:Work>
    </rdf:RDF>
  </metadata>
  <defs
     id="defs33" />
  <sodipodi:namedview
     pagecolor="#ffffff"
     bordercolor="#666666"
     borderopacity="1"
     objecttolerance="10"
     gridtolerance="10"
     guidetolerance="10"
     inkscape:pageopacity="0"
     inkscape:pageshadow="2"
     inkscape:window-width="640"
     inkscape:window-height="480"
     id="namedview31"
     showgrid="false"
     inkscape:zoom="0.83029853"
     inkscape:cx="277.61099"
     inkscape:cy="175.83398"
     inkscape:window-x="0"
     inkscape:window-y="25"
     inkscape:window-maximized="0"
     inkscape:current-layer="svg2" />
  <path
     id="55123"
     style="font-size:12px;fill:#0000ff;fill-rule:nonzero;stroke:#000000;stroke-opacity:1;stroke-width:0.1;stroke-miterlimit:4;stroke-dasharray:none;stroke-linecap:butt;marker-start:none;stroke-linejoin:bevel"
     d="m 346.39098,99.12 0.067,1.168 0.081,1.122 -3.357,0.207 0.122,1.682 -5.013,0.265 -0.162,-0.996 -0.617,-2.889 3.326,-0.166 5.553,-0.393 m -8.032,-4.069 1.659,0.031 0.553,-0.036 0.126,1.844 0.141,2.623 -3.326,0.166 -0.226,-1.559 -1.347,-1.713 0.906,-0.045 0,-0.063 -0.068,-0.144 -0.085,-0.068 -0.059,-0.099 0.019,-0.248 0.012,-0.045 0.266,-0.379 1.099,-0.32 0.33,0.055 m 1.659,0.031 -0.064,-0.762 0.249,-0.239 0.446,-0.167 0.977,-0.063 3.214,-0.207 1.223,0 0.328,5.476 -5.553,0.393 -0.141,-2.623 -0.126,-1.844 -0.553,0.036 m 5.975,-2.641 3.774,-0.243 -0.898,1.726 -0.135,0.401 0.582,2.285 0.215,0.59 0.848,0.902 0.98,1.879 -4.901,0.307 -0.067,-1.168 -0.328,-5.476 -0.07,-1.203 m 6.586,-0.384 0.23,3.404 0.274,4.385 -1.724,0.135 -0.98,-1.879 -0.848,-0.902 -0.215,-0.59 -0.582,-2.285 0.135,-0.401 0.898,-1.726 1.64,-0.086 1.172,-0.055 m -9.316,-29.385 1.018,0.554 1.812,2.227 0.829,0.175 0.91,0.189 0.268,4.084 -1.037,0.068 -2.318,0.148 -0.049,-1.113 -0.095,-1.113 -1.162,-1.037 -1.131,0.063 -0.055,-1.492 -0.103,-1.839 -0.073,-1.077 1.186,0.163 m -4.552,0.009 0.085,0.022 0.077,0 0.036,-0.013 0.956,-0.582 0.211,-0.157 0.127,-0.136 1.149,0.221 0.725,0.473 0.073,1.077 0.103,1.839 0.055,1.492 1.131,-0.063 1.162,1.037 0.095,1.113 0.049,1.113 -3.366,0.194 -2.231,0.131 -0.023,-0.185 -0.09,-2.051 -0.324,-5.525 m 0,0 0.324,5.525 -5.62,0.253 -0.172,-3.529 -0.067,-1.1 -0.122,-3.061 0.127,0.01 0.229,-0.05 3.534,-1.461 0.077,-0.053 0.373,-0.275 0.113,-0.109 0.288,-0.36 0.262,-0.338 0.045,-0.036 0.852,-0.266 0.135,-0.023 0.162,0.055 0.483,0.373 0.296,0.343 0.037,0.068 0,0.063 -0.378,0.856 -0.56,0.784 -0.643,2.146 0.003,0.045 0.091,0.103 0.131,0.037 m -12.196,-0.442 0.202,0.14 0.248,0.022 0.267,-0.018 0.044,-0.027 0.041,-0.04 0.121,-0.316 -0.009,-0.144 -0.009,-0.009 -0.045,-0.05 0,-0.009 -0.031,-0.081 0.009,-0.095 0.05,-0.103 0.63,-0.429 0.24,-0.018 0.513,0.501 0.125,0.054 0.046,-0.032 0.248,0.167 0.135,0.077 0.105,0.045 0.17,0.027 1.087,-0.18 0.261,-0.073 2.091,-0.879 0.122,3.061 0.067,1.1 0.172,3.529 -4.471,0.189 -2.191,0.095 -0.121,-3.345 -0.117,-3.159 m 0.238,6.504 2.191,-0.095 0.085,2.236 0.154,-0.005 0.202,4.426 -1.118,0.045 -0.04,-1.104 -3.375,0.09 0.031,1.113 -3.224,0.09 0.367,-1.122 0.905,-1.812 0.112,-0.202 0.113,-0.149 0.448,-0.392 0.003,-0.005 1.875,-1.231 1.312,-0.819 -0.018,-0.505 -0.023,-0.559 m 2.191,-0.095 4.471,-0.189 0.41,6.679 -4.44,0.167 -0.202,-4.426 -0.154,0.005 -0.085,-2.236 m 4.471,-0.189 5.62,-0.253 0.09,2.051 0.023,0.185 2.231,-0.131 0.229,4.417 -7.783,0.41 -0.41,-6.679 m 11.33,1.658 2.318,-0.148 0.081,1.09 0.27,4.399 0.149,2.226 -0.753,0.037 -1.798,0.139 -1.213,0.118 -2.001,0.103 -0.19,-3.353 -0.229,-4.417 3.366,-0.194 m 2.818,7.567 0.199,3.367 -0.88,0.054 -0.496,0.406 0.045,0.744 -1.069,0.063 -5.547,0.347 -0.194,-3.358 2.177,-1.226 2.001,-0.103 1.213,-0.118 1.798,-0.139 0.753,-0.037 m -5.955,-2.956 0.19,3.353 -2.177,1.226 -5.597,0.28 -0.199,-4.449 7.783,-0.41 m -12.223,0.577 4.44,-0.167 0.199,4.449 -1.078,1.136 -4.466,0.171 -0.213,-5.544 1.118,-0.045 m -1.118,0.045 0.213,5.544 -5.544,0.207 0.139,-1.122 0.109,-0.099 0.012,-0.01 0.24,-0.297 0.342,-0.874 -0.18,-0.911 -0.445,-0.842 -0.713,-0.384 -0.18,0.028 -0.433,-0.073 -0.122,-0.094 -0.031,-0.253 -0.023,-0.342 -0.004,-0.085 0.012,-0.204 3.224,-0.09 -0.031,-1.113 3.375,-0.09 0.04,1.104 m 0.213,5.544 0.365,4.529 -5.721,0.158 0.07,-0.973 -0.196,-0.906 -0.224,-0.478 -0.028,-0.424 0.19,-1.699 5.544,-0.207 m 4.466,-0.171 0.342,4.529 0.104,2.227 -4.444,0.18 -0.103,-2.236 -0.365,-4.529 4.466,-0.171 m 1.078,-1.136 5.597,-0.28 0.324,5.598 -6.657,0.347 -0.342,-4.529 1.078,-1.136 m 5.791,3.078 5.547,-0.347 0.258,4.493 0.202,3.358 -1.108,0.095 -3.362,0.189 -1.173,-1.063 -0.054,-1.118 -0.18,-3.367 -0.13,-2.24 m 0.13,2.24 0.18,3.367 -2.23,0.108 -3.335,0.176 -1.114,0.045 -0.054,-1.122 -0.104,-2.227 6.657,-0.347 m -2.05,3.475 2.23,-0.108 0.054,1.118 1.173,1.063 3.362,-0.189 1.108,-0.095 0.171,2.272 0.07,1.203 -1.223,0 -3.214,0.207 -0.977,0.063 -0.446,0.167 -0.249,0.239 0.064,0.762 -1.659,-0.031 -0.126,-2.164 -0.113,0.004 -0.225,-4.511 m 0,0 0.225,4.511 0.113,-0.004 0.126,2.164 -0.33,-0.055 -1.099,0.32 -0.266,0.379 -0.012,0.045 -0.019,0.248 0.059,0.099 0.085,0.068 0.068,0.144 0,0.063 -0.906,0.045 -1.312,-0.451 0.054,-1.077 0.087,-1.812 -0.208,-4.511 3.335,-0.176 m -3.335,0.176 0.208,4.511 -0.087,1.812 -0.054,1.077 -2.907,-2.055 -2.154,-2.668 0.031,-0.361 0.32,-1.749 0.055,-0.238 0.057,-0.054 0.176,-0.09 3.241,-0.14 1.114,-0.045 m -5.612,-0.897 4.444,-0.18 0.054,1.122 -3.241,0.14 -0.176,0.09 -0.057,0.054 -0.055,0.238 -0.32,1.749 -0.031,0.361 -1.478,-0.563 -0.731,-1.091 1.591,-1.92 m -5.824,-2.078 5.721,-0.158 0.103,2.236 -1.591,1.92 -0.032,-0.049 -0.089,-0.077 -0.104,-0.05 -0.158,-0.036 -1.239,-0.049 -0.392,-0.046 -0.145,-0.067 -0.667,-0.663 -0.023,-0.126 -0.099,-0.126 -0.95,-0.807 -0.654,-0.378 0.319,-1.524" />
</svg>
