<?xml version="1.0" encoding="UTF-8" standalone="no"?>
<!-- Created with Inkscape (http://www.inkscape.org/) -->

<svg
   xmlns:dc="http://purl.org/dc/elements/1.1/"
   xmlns:cc="http://creativecommons.org/ns#"
   xmlns:rdf="http://www.w3.org/1999/02/22-rdf-syntax-ns#"
   xmlns:svg="http://www.w3.org/2000/svg"
   xmlns="http://www.w3.org/2000/svg"
   xmlns:sodipodi="http://sodipodi.sourceforge.net/DTD/sodipodi-0.dtd"
   xmlns:inkscape="http://www.inkscape.org/namespaces/inkscape"
   version="1.0"
   width="555.22198"
   height="351.66797"
   id="svg2"
   inkscape:version="0.48.1 r9760"
   sodipodi:docname="elcaminoreal.svg">
  <metadata
     id="metadata13">
    <rdf:RDF>
      <cc:Work
         rdf:about="">
        <dc:format>image/svg+xml</dc:format>
        <dc:type
           rdf:resource="http://purl.org/dc/dcmitype/StillImage" />
      </cc:Work>
    </rdf:RDF>
  </metadata>
  <defs
     id="defs11" />
  <sodipodi:namedview
     pagecolor="#ffffff"
     bordercolor="#666666"
     borderopacity="1"
     objecttolerance="10"
     gridtolerance="10"
     guidetolerance="10"
     inkscape:pageopacity="0"
     inkscape:pageshadow="2"
     inkscape:window-width="640"
     inkscape:window-height="480"
     id="namedview9"
     showgrid="false"
     inkscape:zoom="0.83029853"
     inkscape:cx="277.61099"
     inkscape:cy="175.83398"
     inkscape:window-x="0"
     inkscape:window-y="25"
     inkscape:window-maximized="0"
     inkscape:current-layer="svg2" />
  <path
     id="06085-elcaminoreal"
     style="font-size:12px;fill:#ff0000;fill-rule:nonzero;stroke:#000000;stroke-opacity:1;stroke-width:0.1;stroke-miterlimit:4;stroke-dasharray:none;stroke-linecap:butt;marker-start:none;stroke-linejoin:bevel"
     d="m 33.90325,146.28321 -0.09375,0.0937 -0.0625,0.0312 -0.375,0.0312 -0.09375,0 -2.75,1.90625 0.1875,0.40625 0.53125,1.0625 0.25,0.375 0.6875,0.625 0.4375,0.3125 0.875,0.90625 1.21875,2 0.0625,0.0937 -0.0625,0.25 0.875,-0.5 0.9375,0.1875 2,0.53125 -0.15625,-0.125 -0.0625,-0.1875 0,-0.0625 0.125,-0.5 0.28125,-0.125 0.1875,-0.34375 0.15625,-0.6875 -0.0625,-0.15625 -1.125,-1 -0.28125,-3.28125 0.03125,-0.6875 0.15625,-0.0625 -3.75,-1.0625 -0.125,-0.0312 z m -3.46427,1.68579 -0.004,0.143 0.022,0.072 0.271,0.569 0.527,1.068 0.257,0.368 0.69,0.606 0.432,0.31 0.87,0.92 1.203,1.991 0.068,0.113 -0.068,0.235 -0.639,-0.091 -1.794,0.086 -0.072,-0.406 -0.158,-0.747 -0.113,-0.279 -0.099,-0.19 -0.09,-0.122 -0.203,-0.181 -0.095,-0.021 -0.505,0.117 -0.451,-0.023 -0.233,-0.032 -0.163,-0.041 -0.081,-0.044 -0.032,-0.019 -0.143,-0.081 -0.109,-0.064 -0.392,-0.445 -0.388,-0.558 -0.292,-0.696 -0.244,-0.733 -0.027,-0.536 0.082,-0.51 0.837,-0.14 0.879,0.243 0.068,-0.175 0.189,-0.707 m 3.629,6.304 0.639,0.091 0.898,-0.505 0.919,0.195 2.005,0.539 -0.207,0.216 -0.072,0.1 -0.027,0.072 0.068,0.185 0.545,1.185 1.771,1.619 0.109,0.185 2.285,4.001 -0.97,2.02 -0.513,0.554 -0.501,0.735 -0.076,0.045 -0.055,0.004 -0.274,-0.108 -1.898,-1.599 -0.617,-0.753 -1.357,-2.737 -0.852,-2.312 -0.941,-1.695 -0.83,-1.378 -0.104,-0.397 0.055,-0.262 m 0,0 -0.055,0.262 0.104,0.397 0.83,1.378 0.941,1.695 0.852,2.312 1.357,2.737 0.617,0.753 1.898,1.599 0.274,0.108 0.055,-0.004 0.076,-0.045 0.501,-0.735 -0.275,1.346 0.045,0.728 0.635,0.915 2.042,2.497 0.627,1.744 -11.349,-3.107 -0.32,-0.467 -0.532,-0.983 0.018,-0.478 0.013,-0.23 0.023,-0.419 -0.059,-0.37 -0.009,-0.054 -1.194,-2.559 -0.266,-0.469 -0.513,-0.578 -0.145,-0.13 -0.004,0 -0.1,-0.014 -0.063,-0.036 -0.099,-0.125 -0.063,-0.14 -0.253,-0.586 -0.09,-0.212 -0.009,-0.203 0.33,-3.281 0.721,-0.256 0.022,0.008 0.163,0.004 0.125,-0.054 0.249,-0.184 0.153,-0.158 0.112,-0.135 0.194,-0.294 0.185,-0.368 0.496,-1.073 0.009,-0.149 -0.058,-0.469 -0.005,-0.032 1.794,-0.086 m -0.825,14.58 11.349,3.107 0.198,0.054 -0.568,2.199 1.109,1.649 1.203,2.475 0.437,1.289 1.122,0.298 1.204,1.415 0.496,1.506 -0.559,2.207 -0.194,0 -0.46,-0.118 -2.289,-1.802 -1.825,-1.465 -0.591,-0.554 -0.194,-0.23 -2.082,0.6 -0.676,0.379 -0.699,0.117 -0.531,-0.545 -0.573,-0.222 -1.609,-0.175 0.171,-0.312 0.014,-0.022 0.162,-0.36 0.131,-0.347 0.062,-0.213 0.046,-0.215 0.013,-0.059 0.005,-0.024 0.022,-0.287 0,-0.014 -0.031,-0.207 -0.045,-0.123 -0.094,-0.098 -0.312,-0.32 -0.045,-0.041 -0.09,-0.062 -0.933,-2.542 -1.726,-3.183 -1.136,-1.758 -0.176,-0.184 -0.103,-0.126 -0.163,-0.572 -0.04,-1.115" />
</svg>
