<?xml version="1.0" encoding="UTF-8" standalone="no"?>
<!-- Created with Inkscape (http://www.inkscape.org/) -->

<svg
   xmlns:dc="http://purl.org/dc/elements/1.1/"
   xmlns:cc="http://creativecommons.org/ns#"
   xmlns:rdf="http://www.w3.org/1999/02/22-rdf-syntax-ns#"
   xmlns:svg="http://www.w3.org/2000/svg"
   xmlns="http://www.w3.org/2000/svg"
   xmlns:sodipodi="http://sodipodi.sourceforge.net/DTD/sodipodi-0.dtd"
   xmlns:inkscape="http://www.inkscape.org/namespaces/inkscape"
   version="1.0"
   width="555.22198"
   height="351.66797"
   id="svg2"
   inkscape:version="0.48.1 r9760"
   sodipodi:docname="florida.svg">
  <metadata
     id="metadata33">
    <rdf:RDF>
      <cc:Work
         rdf:about="">
        <dc:format>image/svg+xml</dc:format>
        <dc:type
           rdf:resource="http://purl.org/dc/dcmitype/StillImage" />
      </cc:Work>
    </rdf:RDF>
  </metadata>
  <defs
     id="defs31" />
  <sodipodi:namedview
     pagecolor="#ffffff"
     bordercolor="#666666"
     borderopacity="1"
     objecttolerance="10"
     gridtolerance="10"
     guidetolerance="10"
     inkscape:pageopacity="0"
     inkscape:pageshadow="2"
     inkscape:window-width="640"
     inkscape:window-height="480"
     id="namedview29"
     showgrid="false"
     inkscape:zoom="0.83029853"
     inkscape:cx="277.61099"
     inkscape:cy="175.83398"
     inkscape:window-x="0"
     inkscape:window-y="25"
     inkscape:window-maximized="0"
     inkscape:current-layer="svg2" />
  <path
     id="12089"
     style="font-size:12px;fill:#0000ff;fill-rule:nonzero;stroke:#000000;stroke-opacity:1;stroke-width:0.1;stroke-miterlimit:4;stroke-dasharray:none;stroke-linecap:butt;marker-start:none;stroke-linejoin:bevel"
     d="m 454.19098,257.273 0.406,2.543 -0.726,-0.59 -0.167,-0.023 -1.257,-0.049 -0.775,0.333 -0.113,0.063 -0.235,0.225 -0.941,1.276 -2,2.785 -0.177,-1.131 0.058,-0.893 0.059,-0.882 -0.008,-0.862 -0.145,-0.396 -0.338,-0.442 -0.172,-0.261 -0.049,-0.266 0.096,-1.393 1.206,-0.703 0.469,0.316 1.718,0.369 1.297,0.144 0.686,-0.031 0.938,-0.113 0.17,-0.019 m -5.808,6.563 2,-2.785 0.941,-1.276 0.235,-0.225 0.113,-0.063 0.775,-0.333 1.257,0.049 0.167,0.023 0.726,0.59 0.212,0.14 0.194,0.162 0.311,1.014 0.131,0.766 0.121,0.46 0.126,0.366 0.104,0.254 -0.627,0.106 0.325,1.866 -1.159,0.198 -0.739,-0.234 -0.255,0 -0.601,0.252 -0.127,-0.884 -0.346,0.045 -0.307,0.068 -2.307,0.383 -1.109,0.162 -0.161,-1.104 m -4.644,-3.335 2.263,-0.139 0.324,1.807 0.109,0.288 0.207,0.297 0.229,0.18 0.073,0.015 1.262,-0.244 0.177,1.131 0.242,1.659 -1.027,0.153 -3.476,0.59 -0.834,-5.705 0.451,-0.032 m -1.83,0.131 1.379,-0.099 0.834,5.705 -0.432,2.6 -1.231,1.619 -1.753,-1.081 -0.658,-5.165 0.041,0.131 0.522,0.045 0.59,-0.289 0.069,-0.085 0.297,-0.771 -0.004,-0.117 -0.114,-0.308 -0.072,-0.103 -0.631,-0.666 -0.22,-0.257 -0.045,-0.357 0.004,-0.23 0.252,-0.486 1.172,-0.086 m -6.133,0.427 4.961,-0.341 -0.252,0.486 -0.004,0.23 0.045,0.357 0.22,0.257 0.631,0.666 0.072,0.103 0.114,0.308 0.004,0.117 -0.297,0.771 -0.069,0.085 -0.59,0.289 -0.522,-0.045 -0.041,-0.131 -1.915,-0.731 -0.56,-0.108 -0.887,-0.018 -0.415,0.135 -0.338,0.244 -0.031,0.049 -0.09,0.384 -0.555,-0.353 -0.072,-0.062 -0.311,-0.595 -0.518,-1.744 -0.496,-0.221 1.916,-0.132 m -2.449,0.163 0.533,-0.031 0.496,0.221 0.518,1.744 0.311,0.595 0.072,0.062 0.555,0.353 -0.627,1.703 -1.321,0.181 -1.13,0.152 -0.069,-0.562 -3.876,0.517 0.081,-0.621 0.636,-1.875 0.883,-0.951 0.316,-0.419 -0.099,-0.722 -0.099,-0.153 2.82,-0.194 m -4.285,0.289 1.465,-0.095 0.099,0.153 0.099,0.722 -0.316,0.419 -0.883,0.951 -0.636,1.875 -0.081,0.621 -1.537,3.047 -0.96,-0.028 -0.532,-4.334 0.23,-1.163 0.131,-1.969 2.921,-0.199 m -2.921,0.199 -0.131,1.969 -0.23,1.163 0.253,2.055 -1.834,0.221 -0.117,-0.361 -5.143,0.668 0.604,-1.218 0.69,-0.46 1.478,-0.748 0.225,-0.094 0.162,-0.144 0.051,-0.109 0.508,-1.514 0.451,-1.217 2.187,-0.154 0.846,-0.057 m -4.138,0.288 1.105,-0.077 -0.451,1.217 -0.508,1.514 -0.051,0.109 -0.162,0.144 -0.225,0.094 -1.478,0.748 -0.69,0.46 -3.489,-2.416 0.59,-1.433 0.014,0 5.345,-0.36 m -2.46,4.209 -0.604,1.218 -0.141,0.166 -0.081,0.306 0.974,1.708 0.479,0.622 0.35,0.244 0.727,0.428 -5.139,0.569 -0.135,0.566 -1.339,-2.807 0.523,-1.854 0.37,-2.378 0.527,-1.204 3.489,2.416 m -0.604,1.218 5.143,-0.668 0.117,0.361 1.834,-0.221 0.279,2.279 -1.875,0.267 -1.023,0.505 -0.175,0.095 -0.027,0.436 0.103,0.465 0.027,0.035 0.244,0.286 -2.339,-0.366 -0.727,-0.428 -0.35,-0.244 -0.479,-0.622 -0.974,-1.708 0.081,-0.306 0.141,-0.166 m 14.945,-1.375 0.581,4.655 0.325,0.916 0.374,-0.055 -0.767,2.137 -0.384,-0.096 -1.111,-0.449 -0.122,-0.105 -0.104,-0.121 -0.386,-0.528 0.004,-0.062 -0.077,-0.244 -0.131,-0.194 -0.573,-0.68 -0.508,-0.352 -0.091,-0.059 -1.222,-0.531 -0.662,-0.189 -1.036,-0.465 -0.722,-0.424 1.537,-3.047 3.876,-0.517 0.069,0.562 1.13,-0.152 m 1.321,-0.181 -0.045,0.031 -0.01,0.069 0.154,0.833 0.396,0.916 0.144,0.106 0.343,0.078 0.172,-0.112 0.045,-0.127 0.555,0.059 0.527,0.248 1.135,0.73 0.185,0.135 0.428,0.424 0.689,0.818 -0.337,0.862 -4.422,0.627 -0.374,0.055 -0.325,-0.916 -0.581,-4.655 1.321,-0.181 m 4.863,-1.658 0.658,5.165 -0.803,0.701 -0.689,-0.818 -0.428,-0.424 -0.185,-0.135 -1.135,-0.73 -0.527,-0.248 -0.555,-0.059 -0.045,0.127 -0.172,0.112 -0.343,-0.078 -0.144,-0.106 -0.396,-0.916 -0.154,-0.833 0.01,-0.069 0.045,-0.031 0.627,-1.703 0.09,-0.384 0.031,-0.049 0.338,-0.244 0.415,-0.135 0.887,0.018 0.56,0.108 1.915,0.731 m 7.55,1.437 0.076,0.181 -0.022,0.14 -0.33,0.644 -1.193,1.681 -0.699,0.379 -0.483,0.22 -1.257,-0.055 0.432,-2.6 3.476,-0.59 m 0,0 1.027,-0.153 0.802,5.404 -0.059,0.009 0.019,-0.148 -0.122,-0.253 -0.987,-0.933 -0.158,-0.041 -0.518,-0.054 -0.073,0.014 -0.126,0.072 -0.617,0.045 -1.411,-0.238 -0.117,-0.042 -0.311,-0.437 0.483,-0.22 0.699,-0.379 1.193,-1.681 0.33,-0.644 0.022,-0.14 -0.076,-0.181 m 5.142,-0.482 1.645,3.417 -2.389,0.401 -0.172,0.027 -1.018,0.728 -0.076,0.092 -0.049,0.229 -0.988,0.705 -0.266,0.134 -0.802,-5.404 -0.081,-0.555 1.109,-0.162 2.307,-0.383 0.307,-0.068 0.346,-0.045 0.127,0.884 m 0,0 0.601,-0.252 0.255,0 0.739,0.234 1.159,-0.198 -0.325,-1.866 0.627,-0.106 1.343,3.486 0.946,2.258 0.018,0.042 0.14,0.287 0.104,0.225 0.451,0.821 -3.353,1.149 -1.06,-2.663 -1.645,-3.417 m 2.705,6.08 3.353,-1.149 1.722,2.902 -0.474,0.748 0.257,1.38 -1.992,0.36 -0.045,0.01 -0.933,0.157 -0.258,-1.447 -0.197,-0.271 -1.433,-2.69 m -1.06,-2.663 1.06,2.663 1.433,2.69 -2.606,1.362 -0.504,-0.528 -0.555,-0.675 -0.315,-0.708 -1.803,-0.099 -0.757,0.298 -0.235,0.126 -0.287,0.343 -0.448,-3.147 0.059,-0.009 0.266,-0.134 0.988,-0.705 0.049,-0.229 0.076,-0.092 1.018,-0.728 0.172,-0.027 2.389,-0.401 m -10.695,0.255 1.257,0.055 0.311,0.437 0.117,0.042 1.411,0.238 0.617,-0.045 0.126,-0.072 0.073,-0.014 0.518,0.054 0.158,0.041 0.987,0.933 0.122,0.253 -0.019,0.148 0.448,3.147 0.057,0.377 -0.009,0.028 -0.144,0.091 -0.829,0.346 -0.821,-0.361 0.023,-0.139 -0.203,-0.225 -2.001,0.283 -2.93,-0.621 -0.5,-3.377 1.231,-1.619 m -3.787,1.239 0.803,-0.701 1.753,1.081 0.5,3.377 -3.172,0.102 -0.221,-2.997 0.337,-0.862 m -0.337,0.862 0.221,2.997 -0.397,1.722 -0.243,0.816 -0.478,0.861 -0.901,0.803 -0.202,-0.699 -0.389,-0.59 -0.221,-0.311 -0.27,-0.127 -0.266,0 -0.523,-0.238 -0.879,-0.451 -0.257,-0.144 -0.027,-0.072 -0.357,-1.803 0.767,-2.137 4.422,-0.627 m -18.339,-0.04 2.339,0.366 0.081,0.224 0.032,0.122 0.027,0.095 0.004,0.018 -0.01,0.144 -0.063,0.181 -0.058,0.04 -0.324,0.09 -0.514,-0.067 -0.122,-0.027 -0.119,-0.081 -0.111,-0.185 -0.649,0.238 -0.257,0.118 -1.609,1.243 -0.73,0.609 -0.635,0.469 -0.605,0.387 -1.211,0.388 -0.483,0.109 -0.4,-0.06 -0.329,0.041 -0.217,0.064 -1.042,0.391 0.104,-0.22 0.983,-0.965 0.166,0.027 0.609,-0.87 -0.131,-1.754 0.135,-0.566 5.139,-0.569 m 21.732,2.935 2.93,0.621 0.532,3.421 -1.482,0.221 0.31,2.163 -0.009,0.027 -0.198,0.145 -0.663,0.391 -0.694,-0.157 -0.171,-0.005 -0.212,0.054 -0.293,0.284 -0.114,0.136 -0.075,0.135 0.022,-0.432 -0.116,-0.343 -0.672,-1.105 -0.271,-0.117 -4.015,-1.135 0.901,-0.803 0.478,-0.861 0.243,-0.816 0.397,-1.722 3.172,-0.102" />
</svg>
