<?xml version="1.0" encoding="UTF-8" standalone="no"?>
<!-- Created with Inkscape (http://www.inkscape.org/) -->

<svg
   xmlns:dc="http://purl.org/dc/elements/1.1/"
   xmlns:cc="http://creativecommons.org/ns#"
   xmlns:rdf="http://www.w3.org/1999/02/22-rdf-syntax-ns#"
   xmlns:svg="http://www.w3.org/2000/svg"
   xmlns="http://www.w3.org/2000/svg"
   xmlns:sodipodi="http://sodipodi.sourceforge.net/DTD/sodipodi-0.dtd"
   xmlns:inkscape="http://www.inkscape.org/namespaces/inkscape"
   version="1.0"
   width="555.22198"
   height="351.66797"
   id="svg2"
   inkscape:version="0.48.1 r9760"
   sodipodi:docname="fonddulac.svg">
  <metadata
     id="metadata34">
    <rdf:RDF>
      <cc:Work
         rdf:about="">
        <dc:format>image/svg+xml</dc:format>
        <dc:type
           rdf:resource="http://purl.org/dc/dcmitype/StillImage" />
      </cc:Work>
    </rdf:RDF>
  </metadata>
  <defs
     id="defs32" />
  <sodipodi:namedview
     pagecolor="#ffffff"
     bordercolor="#666666"
     borderopacity="1"
     objecttolerance="10"
     gridtolerance="10"
     guidetolerance="10"
     inkscape:pageopacity="0"
     inkscape:pageshadow="2"
     inkscape:window-width="640"
     inkscape:window-height="480"
     id="namedview30"
     showgrid="false"
     inkscape:zoom="0.83029853"
     inkscape:cx="277.61099"
     inkscape:cy="175.83398"
     inkscape:window-x="0"
     inkscape:window-y="25"
     inkscape:window-maximized="0"
     inkscape:current-layer="svg2" />
  <path
     id="55075"
     style="font-size:12px;fill:#0000ff;fill-rule:nonzero;stroke:#000000;stroke-opacity:1;stroke-width:0.1;stroke-miterlimit:4;stroke-dasharray:none;stroke-linecap:butt;marker-start:none;stroke-linejoin:bevel"
     d="m 365.10498,71.244 2.131,0.573 0.171,0.139 0.014,0.01 0.023,0.022 0.27,0.333 0.09,2.326 0.798,3.836 0.005,0.009 0.08,0.265 0.041,0.068 0.712,0.753 0.009,0.004 0.234,0.04 0.41,0.064 -1.401,1.798 -1.705,-0.202 -1.639,-0.262 -0.072,-1.113 -1.974,-3.259 -1.109,0.055 -0.333,-4.44 2.234,-0.126 1.073,-0.023 -0.062,-0.87 m -5.86,-2.551 0.185,0.329 1.577,-0.167 2.623,0.329 0.02,0.005 0.224,0.036 0.343,0.166 0.212,0.141 0.139,0.089 0.265,0.379 0.028,0.041 0.013,0.045 -0.126,0.216 -0.144,0.203 -0.063,0.05 -0.158,0.202 -0.005,0.009 -0.013,0.045 0.058,0.113 0.009,0.005 0.344,0.279 0.076,0.018 0.122,0.032 0.009,0.004 0.122,-0.018 0.062,0.87 -1.073,0.023 -2.234,0.126 -2.259,0.171 -0.24,-3.313 -0.116,-0.428 m -2.289,-0.586 2.289,0.586 0.116,0.428 0.24,3.313 2.259,-0.171 0.333,4.44 -2.262,0.157 -2.25,0.171 -0.059,-1.113 -1.113,0.086 -0.415,-5.53 -0.085,-1.118 1.027,-0.072 -0.08,-1.177 m 5.237,8.596 1.109,-0.055 1.974,3.259 0.072,1.113 1.639,0.262 1.705,0.202 -0.059,0.014 -0.405,0.18 -0.055,0.045 -0.157,0.261 -1.086,2.835 -0.023,0.438 0.009,0.112 -2.312,0.171 -0.236,-2.221 -2.198,0.139 -0.099,-1.375 -0.118,-1.996 -1.432,0.108 -0.06,-1.126 -0.383,0.027 -0.147,-2.236 2.262,-0.157 m -4.683,4.867 -0.091,-1.149 3.102,-0.226 1.432,-0.108 0.118,1.996 0.099,1.375 -2.258,0.162 -0.077,-1.117 -2.24,0.171 -0.085,-1.104 m 0,0 0.085,1.104 2.24,-0.171 0.077,1.117 2.258,-0.162 2.198,-0.139 0.236,2.221 0.077,1.222 -3.313,0.19 -0.081,-1.132 -5.661,0.383 -0.32,-4.48 2.204,-0.153 m 3.858,5.382 3.313,-0.19 0.495,-0.068 0.302,3.701 0.046,0.743 -1.948,0.127 -3.091,0.256 -0.195,-2.898 -0.117,-1.577 1.195,-0.094 m 3.236,-1.412 2.312,-0.171 -0.095,0.189 -0.261,1.204 -0.004,0.081 0.369,0.325 0.329,0.085 0.248,-0.013 0.126,-0.09 0.099,-0.167 0.122,-0.28 0.012,-0.067 -0.048,-0.09 0.018,-0.045 0.288,-0.334 0.5,-0.405 0.415,-0.14 0.32,4.087 -0.558,0.046 -0.56,0.045 0.095,1.122 -1.428,0.113 -1.379,0.103 -0.046,-0.743 -0.302,-3.701 -0.495,0.068 -0.077,-1.222 m 4.75,4.169 2.051,-0.184 0.433,1.23 0.027,0.244 -0.027,0.234 -0.05,0.172 -0.162,0.279 -0.198,0.216 -0.329,0.194 -0.176,0.14 -0.217,0.243 -0.243,1.122 -0.076,0.401 -0.222,1.271 -2.87,0.266 -0.392,-4.502 1.428,-0.113 -0.095,-1.122 0.56,-0.045 0.558,-0.046 m -3.83,1.429 1.379,-0.103 0.392,4.502 -1.113,0.095 -2.281,-0.424 -0.325,-3.943 1.948,-0.127 m 4.641,4.133 0.429,1.596 0.067,1.032 -0.026,0.108 -0.663,1.83 -2.29,0.203 -1.122,0.085 -0.378,-4.493 1.113,-0.095 2.87,-0.266 m -3.983,0.361 0.378,4.493 -2.227,0.176 -0.022,-0.279 -0.073,-0.848 -3.388,0.235 -1.123,0.081 -0.252,-3.38 4.475,-0.311 -0.049,-0.591 2.281,0.424 m -2.606,-4.367 0.374,4.534 -4.475,0.311 -0.086,-1.132 -0.256,-3.344 1.352,-0.113 3.091,-0.256 m -4.187,3.713 0.086,1.132 0.252,3.38 -1.122,0.09 -1.119,0.099 -0.008,-0.153 -1.1,0.086 -0.112,-1.591 0.397,-0.631 0.22,-0.843 -0.104,-1.375 2.61,-0.194 m -0.256,-3.344 0.256,3.344 -2.61,0.194 -3.97,0.289 -0.23,-3.404 3.439,-0.207 3.115,-0.216 m -3.507,-5.431 5.661,-0.383 0.081,1.132 -1.195,0.094 0.117,1.577 0.195,2.898 -1.352,0.113 -3.115,0.216 -0.392,-5.647 m -5.693,0.343 5.693,-0.343 0.392,5.647 -3.439,0.207 -1.172,0.055 -0.109,-1.64 -0.13,-1.759 -1.082,0.068 -0.153,-2.235 m 6.846,8.626 0.104,1.375 -0.22,0.843 -0.397,0.631 0.112,1.591 -3.295,0.234 -0.274,-4.385 3.97,-0.289 m -11.159,-8.361 4.313,-0.265 0.153,2.235 1.082,-0.068 0.13,1.759 0.109,1.64 -1.64,0.086 -3.774,0.243 -0.171,-2.272 -0.202,-3.358 m 2.142,-5.76 5.619,-0.356 1.925,1.028 0.32,4.48 -5.693,0.343 -4.313,0.265 -0.258,-4.493 1.069,-0.063 -0.045,-0.744 0.496,-0.406 0.88,-0.054 m 5.321,-4.835 3.426,-0.212 1.113,-0.086 0.059,1.113 2.25,-0.171 0.147,2.236 0.383,-0.027 0.06,1.126 -3.102,0.226 0.091,1.149 -2.204,0.153 -1.925,-1.028 -0.298,-4.479 m 0,0 0.298,4.479 -5.619,0.356 -0.199,-3.367 -0.149,-2.226 3.348,-0.225 2.213,-0.149 0.108,1.132 m 3.011,-5.742 0.415,5.53 -3.426,0.212 -0.108,-1.132 -2.213,0.149 -3.348,0.225 -0.27,-4.399 6.116,-0.428 1.717,0.379 1.117,-0.536 m -8.262,-4.657 6.464,1.326 0.486,0.099 0.38,0.081 0.613,0.207 0.635,0.311 0.546,0.266 0.08,1.177 -1.027,0.072 0.085,1.118 -1.117,0.536 -1.717,-0.379 -6.116,0.428 -0.081,-1.09 1.037,-0.068 -0.268,-4.084 m 21.405,19.367 3.318,-0.274 -0.506,0.955 -0.216,0.708 -0.095,0.536 -0.333,2.416 -2.051,0.184 -0.32,-4.087 0.203,-0.438 m 0,0 0.086,-0.626 0.666,-1.212 0.217,-0.343 2.398,-2.754 1.668,-3.042 0.482,-0.42 0.297,-0.197 0.212,-0.005 0.098,0.023 0.055,0.054 0.086,0.153 0.013,0.414 -0.027,0.248 -0.464,1.835 -0.27,0.414 -0.794,1.808 -1.18,2.785 -0.225,0.591 -3.318,0.274" />
</svg>
