<?xml version="1.0" encoding="UTF-8" standalone="no"?>
<!-- Created with Inkscape (http://www.inkscape.org/) -->

<svg
   xmlns:dc="http://purl.org/dc/elements/1.1/"
   xmlns:cc="http://creativecommons.org/ns#"
   xmlns:rdf="http://www.w3.org/1999/02/22-rdf-syntax-ns#"
   xmlns:svg="http://www.w3.org/2000/svg"
   xmlns="http://www.w3.org/2000/svg"
   xmlns:sodipodi="http://sodipodi.sourceforge.net/DTD/sodipodi-0.dtd"
   xmlns:inkscape="http://www.inkscape.org/namespaces/inkscape"
   version="1.0"
   width="555.22198"
   height="351.66797"
   id="svg2"
   inkscape:version="0.48.1 r9760"
   sodipodi:docname="fortworth.svg">
  <metadata
     id="metadata30">
    <rdf:RDF>
      <cc:Work
         rdf:about="">
        <dc:format>image/svg+xml</dc:format>
        <dc:type
           rdf:resource="http://purl.org/dc/dcmitype/StillImage" />
      </cc:Work>
    </rdf:RDF>
  </metadata>
  <defs
     id="defs28" />
  <sodipodi:namedview
     pagecolor="#ffffff"
     bordercolor="#666666"
     borderopacity="1"
     objecttolerance="10"
     gridtolerance="10"
     guidetolerance="10"
     inkscape:pageopacity="0"
     inkscape:pageshadow="2"
     inkscape:window-width="640"
     inkscape:window-height="480"
     id="namedview26"
     showgrid="false"
     inkscape:zoom="0.83029853"
     inkscape:cx="277.61099"
     inkscape:cy="175.83398"
     inkscape:window-x="0"
     inkscape:window-y="25"
     inkscape:window-maximized="0"
     inkscape:current-layer="svg2" />
  <path
     id="48097"
     style="font-size:12px;fill:#0000ff;fill-rule:nonzero;stroke:#000000;stroke-opacity:1;stroke-width:0.1;stroke-miterlimit:4;stroke-dasharray:none;stroke-linecap:butt;marker-start:none;stroke-linejoin:bevel"
     d="m 283.43998,227.671 -0.058,6.901 -4.706,-0.239 -1.113,-0.059 0.131,-6.246 0.211,0.964 0.028,0.067 0.009,0.023 0,0.005 0.063,0.076 0.094,0.063 3.106,1.357 0.149,0.05 0.171,0.022 0.153,-0.049 0.108,-0.086 0.05,-0.067 1.604,-2.782 m -5.746,0.357 -0.131,6.246 -4.616,-0.085 -0.644,-0.442 0.126,-5.481 0.118,0.109 0.941,0.429 0.127,0.012 0.333,-0.099 0.532,-0.419 0.559,-0.581 0.365,-0.46 1.086,0.725 0.383,0.267 0.821,-0.221 m -6.59,-1.65 0.185,0.37 0.027,0.027 0.018,0.004 0.451,0.135 0.23,0 0.013,-0.004 0.37,-0.09 0.397,0.157 0.004,0.005 -0.095,0.689 -0.275,0.595 -0.126,5.481 -4.736,-0.108 0.098,-4.782 0.104,-3.489 0.428,-0.541 0.207,-0.117 0.406,0.091 1.65,0.518 0.644,1.059 m -5.309,-1.785 0.108,0.008 0.235,0.155 0.243,0.207 0.504,0.811 0.303,0.109 0.004,0.004 0.009,-0.009 0.568,-0.51 -0.104,3.489 -5.642,-0.135 0.153,-4.684 0.982,0.587 0.978,0.239 0.694,0.026 0.965,-0.297 m -3.772,4.129 5.642,0.135 -0.098,4.782 -0.014,0.916 -5.715,-0.181 0.185,-5.652 m -0.185,5.652 5.715,0.181 -0.194,5.025 -1.623,0.648 -4.042,-0.148 0.144,-5.706 m 5.729,-0.735 4.736,0.108 0.644,0.442 -0.152,5.602 -1.447,-0.058 -3.989,-0.153 0.194,-5.025 0.014,-0.916 m 5.38,0.55 4.616,0.085 1.113,0.059 -0.248,5.697 -1.568,-0.077 -4.065,-0.162 0.152,-5.602 m 3.913,5.764 1.568,0.077 3.944,0.121 -0.126,5.644 -0.528,-0.019 -5.021,-0.143 0.163,-5.68 m -5.512,-0.22 1.447,0.058 4.065,0.162 -0.163,5.68 -0.72,-0.014 -4.868,-0.14 0.239,-5.746 m -3.989,-0.153 3.989,0.153 -0.239,5.746 -0.032,0.614 -4.408,-0.127 -1.095,-0.054 0.162,-5.684 1.623,-0.648 m -5.665,0.5 4.042,0.148 -0.162,5.684 -5.629,-0.167 0.185,-5.719 1.564,0.054 m -1.749,5.665 5.629,0.167 1.095,0.054 -0.911,3.232 -4.127,2.253 -2.115,-0.086 0.23,-5.626 0.199,0.006 m 11.132,0.348 1.258,3.624 0.838,1.905 -1.546,0.865 -2.245,1.249 -0.45,-0.82 -0.843,0.481 -2.331,-4.199 0.911,-3.232 4.408,0.127 m 0.032,-0.614 4.868,0.14 -0.032,3.061 -3.61,1.037 -1.258,-3.624 0.032,-0.614 m 4.868,0.14 0.72,0.014 5.021,0.143 -0.036,3.674 -4.254,1.131 -1.505,-0.414 0.022,-1.487 0.032,-3.061 m -3.642,4.098 3.61,-1.037 -0.022,1.487 -2.75,1.455 -0.838,-1.905 m 5.093,0.864 4.254,-1.131 2.047,2.497 1.902,3.366 -2.344,1.348 -1.127,-2.005 -2.646,1.487 -0.364,-0.226 -0.131,-0.202 -1.731,-3.119 -0.059,-0.546 0.077,-0.671 0.122,-0.798 m -1.505,-0.414 1.505,0.414 -0.122,0.798 -0.077,0.671 0.059,0.546 1.731,3.119 0.131,0.202 0.364,0.226 -3.619,1.983 -1.748,-1.127 -2.52,-4.512 1.546,-0.865 2.75,-1.455 m -6.541,3.569 2.245,-1.249 2.52,4.512 -4.589,2.6 -1.014,0.591 -2.028,-3.507 3.408,-1.956 -0.542,-0.991 m -3.624,-4.538 2.331,4.199 0.843,-0.481 0.45,0.82 0.542,0.991 -3.408,1.956 -2.236,-0.274 -2.649,-4.958 4.127,-2.253 m -6.242,2.167 2.115,0.086 2.649,4.958 -1.004,0.135 -0.248,0.987 -1.803,1.207 -0.568,0.357 -1.096,0.266 -1.23,-0.122 0.343,-7.9 0.842,0.026" />
</svg>
