<?xml version="1.0" encoding="UTF-8" standalone="no"?>
<!-- Created with Inkscape (http://www.inkscape.org/) -->

<svg
   xmlns:dc="http://purl.org/dc/elements/1.1/"
   xmlns:cc="http://creativecommons.org/ns#"
   xmlns:rdf="http://www.w3.org/1999/02/22-rdf-syntax-ns#"
   xmlns:svg="http://www.w3.org/2000/svg"
   xmlns="http://www.w3.org/2000/svg"
   xmlns:sodipodi="http://sodipodi.sourceforge.net/DTD/sodipodi-0.dtd"
   xmlns:inkscape="http://www.inkscape.org/namespaces/inkscape"
   version="1.0"
   width="555.22198"
   height="351.66797"
   id="svg2"
   inkscape:version="0.48.1 r9760"
   sodipodi:docname="georgia.svg">
  <metadata
     id="metadata86">
    <rdf:RDF>
      <cc:Work
         rdf:about="">
        <dc:format>image/svg+xml</dc:format>
        <dc:type
           rdf:resource="http://purl.org/dc/dcmitype/StillImage" />
      </cc:Work>
    </rdf:RDF>
  </metadata>
  <defs
     id="defs84" />
  <sodipodi:namedview
     pagecolor="#ffffff"
     bordercolor="#666666"
     borderopacity="1"
     objecttolerance="10"
     gridtolerance="10"
     guidetolerance="10"
     inkscape:pageopacity="0"
     inkscape:pageshadow="2"
     inkscape:window-width="640"
     inkscape:window-height="480"
     id="namedview82"
     showgrid="false"
     inkscape:zoom="0.83029853"
     inkscape:cx="277.61099"
     inkscape:cy="175.83398"
     inkscape:window-x="0"
     inkscape:window-y="25"
     inkscape:window-maximized="0"
     inkscape:current-layer="svg2" />
  <path
     id="13073"
     style="font-size:12px;fill:#0000ff;fill-rule:nonzero;stroke:#000000;stroke-opacity:1;stroke-width:0.1;stroke-miterlimit:4;stroke-dasharray:none;stroke-linecap:butt;marker-start:none;stroke-linejoin:bevel"
     d="m 440.14298,220.474 1.234,1.077 1.042,0.441 -2.457,2.849 -0.193,-0.126 -0.964,-1.162 -0.708,-0.989 -0.176,-1.013 0.009,-0.171 0.095,-0.131 2.118,-0.775 m 2.276,1.518 0.175,0.163 0.091,0.086 0.505,0.478 0.715,0.834 0.253,0.977 0.7,0.991 -0.425,-0.103 -0.883,0.568 -1.037,0.009 -0.636,-0.244 -0.076,-0.152 -0.352,-0.204 -0.072,-0.005 -0.974,0.529 -0.995,-0.443 0.554,-0.635 2.457,-2.849 m -2.016,3.927 0.974,-0.529 0.072,0.005 0.352,0.204 0.076,0.152 0.636,0.244 1.037,-0.009 0.883,-0.568 0.425,0.103 1.003,0.758 1.799,0.843 0.884,0.486 -2.137,2.11 -0.099,-0.136 -0.113,-0.08 -0.463,-0.15 -0.362,-0.053 -2.324,0.819 -0.389,0.492 -0.139,0.857 0.046,0.086 -1.875,-0.033 0.144,-0.586 0.134,-0.784 -0.23,-0.887 -0.121,-0.366 -0.081,-0.319 0.018,-0.627 0.072,-0.567 0.221,-1.055 -0.293,-0.325 -0.09,-0.072 -0.06,-0.013 m 6.004,3.799 2.137,-2.11 2.05,3.619 0.465,1.884 -1.484,1.619 -3.452,-1.565 0.284,-3.447 m 4.652,3.393 1.127,0.451 0.207,0.077 0.96,0.793 1.144,2.321 0.14,0.685 -2.615,2.065 -0.76,-1.785 -1.687,-2.988 1.484,-1.619 m -8.495,-1.558 -0.046,-0.086 0.139,-0.857 0.389,-0.492 2.324,-0.819 0.362,0.053 0.463,0.15 0.113,0.08 0.099,0.136 -0.284,3.447 -1.636,0.799 -1.923,-2.411 m 3.559,1.612 3.452,1.565 1.687,2.988 -3.547,1.704 -2.236,-1.187 0.091,-0.31 0.17,-1.64 -0.748,-1.172 -0.685,-0.235 0.18,-0.914 1.636,-0.799 m 1.592,6.257 3.547,-1.704 0.76,1.785 0.231,0.264 0.897,0.799 1.249,0.834 0.5,1.312 0.361,1.095 -0.415,0.089 -0.067,-0.021 -1.236,-0.6 -0.816,-0.599 -0.116,-0.104 0.003,-0.036 -0.021,-0.09 -0.348,-0.83 -0.09,-0.152 -0.793,-0.272 -1.916,-0.644 -0.928,-0.423 -0.802,-0.703 m 6.922,-1.984 0.056,0.252 0.102,0.515 0.14,0.559 0.05,0.049 0.609,0.235 2.005,0.378 0.374,0.041 0.103,0.018 0.054,0.157 0,0.113 -0.04,0.198 -0.113,0.266 -1.807,2.912 -0.081,0.113 -0.506,0.58 -0.076,0.036 -0.247,-0.053 -0.361,-1.095 -0.5,-1.312 -1.249,-0.834 -0.897,-0.799 -0.231,-0.264 2.615,-2.065 m -12.073,-5.885 1.923,2.411 -0.18,0.914 -0.572,-0.194 -0.663,0.613 -0.261,0.65 -0.483,1.537 0.217,0.531 -1.961,-0.175 0.09,-0.506 0.023,-0.635 -0.104,-0.09 -0.95,-0.396 -0.284,-0.081 -1.623,0.041 1.83,-3.526 1.123,-1.127 1.875,0.033 m 1.743,3.325 0.685,0.235 0.748,1.172 -0.17,1.64 -0.091,0.31 -0.626,-0.039 -2.308,-0.181 -0.217,-0.531 0.483,-1.537 0.261,-0.65 0.663,-0.613 0.572,0.194 m -1.762,3.137 2.308,0.181 0.86,2.451 1.041,0.253 1.38,-0.176 -0.613,0.523 -1.132,3.119 -0.932,-0.356 -2.069,-0.821 -0.104,-2.961 -0.739,-2.213 m 2.308,0.181 0.626,0.039 2.236,1.187 0.802,0.703 -0.383,0.599 -1.38,0.176 -1.041,-0.253 -0.86,-2.451 m 3.281,2.528 0.383,-0.599 0.928,0.423 1.916,0.644 0.793,0.272 0.09,0.152 0.348,0.83 0.021,0.09 -0.003,0.036 0.116,0.104 0.816,0.599 1.236,0.6 0.067,0.021 -0.039,0.096 0.219,0.198 0.293,0.085 0.068,-0.04 0.017,-0.062 0.028,-0.019 0.108,-0.022 0.095,0.036 0.076,0.532 0.045,0.397 -0.185,0.72 -0.108,0.207 -0.063,0.014 -0.184,-0.131 -0.015,-0.356 -0.045,-0.09 -0.36,-0.297 -0.198,-0.095 -0.316,-0.103 -0.594,-0.024 -0.789,0.334 -0.28,-0.067 -0.536,-0.375 -0.356,-0.103 -0.09,0.004 -1.663,-0.598 -1.542,-1.191 -0.031,-0.139 -0.604,-1.226 -0.275,-0.334 0.613,-0.523 m -7.55,-2.884 1.961,0.175 0.739,2.213 0.104,2.961 -2.329,-0.355 -0.542,0.017 0.067,-5.011 m 0,0 -0.067,5.011 -0.654,0.248 -0.686,-0.622 -0.049,-0.082 -0.112,-0.197 -0.323,-1.018 -0.083,-0.686 -0.383,-1.289 -0.09,-0.256 -0.1,-0.015 2.547,-1.094 m -2.848,-1.667 1.623,-0.041 0.284,0.081 0.95,0.396 0.104,0.09 -0.023,0.635 -0.09,0.506 -2.547,1.094 -0.733,-0.044 0.432,-2.717 m 1.83,-3.526 -1.83,3.526 -0.311,-0.105 -0.095,-1.139 -1.392,-0.781 -0.874,-0.257 -0.997,0.239 0.018,-0.672 1.456,-0.86 0.316,0.154 1.179,-0.015 0.587,-0.274 0.902,-0.451 1.041,0.635 m -3.097,-4.317 0.298,0.508 0.176,0.235 0.437,0.334 0.392,0.202 0.032,-0.004 0.482,0.995 0.239,1.412 -0.902,0.451 -0.587,0.274 -1.179,0.015 -0.316,-0.154 -1.456,0.86 -0.153,-0.53 -0.288,-0.452 -0.18,-0.112 -0.484,-0.167 -0.58,-0.952 -0.005,-1.752 0.468,-0.068 1.056,-0.767 0.111,-0.147 0.073,-0.213 0.086,-0.369 0.109,-0.217 0.733,-0.644 0.315,-0.046 1.123,1.308 m 2.619,-2.804 0.32,-0.05 0.995,0.443 0.06,0.013 0.09,0.072 0.293,0.325 -0.221,1.055 -0.072,0.567 -0.018,0.627 0.081,0.319 0.121,0.366 0.23,0.887 -0.134,0.784 -0.144,0.586 -1.123,1.127 -1.041,-0.635 -0.239,-1.412 -0.482,-0.995 -0.032,0.004 -0.392,-0.202 -0.437,-0.334 -0.176,-0.235 -0.298,-0.508 0.861,-0.027 -0.086,-0.546 -0.036,-0.121 1.069,-1.181 0.369,-0.379 0.442,-0.55 m -3.849,1.312 1.636,-1.122 0.316,-0.117 0.68,0.211 0.775,0.266 -0.369,0.379 -1.069,1.181 0.036,0.121 0.086,0.546 -0.861,0.027 -1.123,-1.308 -0.107,-0.184 m 2.786,-5.589 -0.095,0.131 -0.009,0.171 0.176,1.013 0.708,0.989 0.964,1.162 0.193,0.126 -0.554,0.635 -0.32,0.05 -1.267,-0.158 -0.472,-0.144 -0.974,-1.812 -0.649,-1.289 1.744,-0.649 0.555,-0.225 m -10.15,11.934 1.045,-0.837 2.474,3.767 -2.687,2.083 -1.429,-2.578 0.078,-0.974 0.694,-0.897 0.112,-0.329 -0.287,-0.235 m 1.528,-1.266 1.946,-1.231 0.162,-0.134 0.162,0.009 0.727,0.684 0.58,0.952 0.484,0.167 0.18,0.112 0.288,0.452 0.153,0.53 -0.018,0.672 -2.673,1.983 -2.474,-3.767 0.483,-0.429 m 1.991,4.196 2.673,-1.983 0.997,-0.239 0.874,0.257 1.392,0.781 0.095,1.139 0.311,0.105 -0.432,2.717 -1.551,1.694 -1.059,0.78 -2.078,-3.312 -1.222,-1.939 m 1.222,1.939 -1.974,2.235 -1.853,-1.442 -0.082,-0.649 2.687,-2.083 1.222,1.939 m -4.899,2.411 0.364,2.173 0.141,1.153 -3.81,0.46 -0.95,-1.709 1.739,-1.779 2.516,-0.298 m 2.925,-0.176 -0.258,0.329 1.015,0.784 -0.068,0.604 -0.032,0.104 -0.27,0.297 -0.329,-0.257 -0.12,-0.027 -0.451,0.046 -0.195,0.131 -0.576,0.17 -1.277,0.168 -0.364,-2.173 1.072,-1.618 1.853,1.442 m 0,0 1.974,-2.235 2.078,3.312 1.059,-0.78 -0.356,0.844 -2.592,3.416 -1.776,-2.439 0.27,-0.297 0.032,-0.104 0.068,-0.604 -1.015,-0.784 0.258,-0.329 m 6.662,-1.397 0.733,0.044 0.1,0.015 0.09,0.256 0.383,1.289 0.083,0.686 0.323,1.018 0.112,0.197 0.049,0.082 0.686,0.622 -1.032,0.672 -3.434,-2.343 0.356,-0.844 1.551,-1.694 m -1.907,2.538 3.434,2.343 -1.88,1.6 -1.663,0.698 -2.087,-0.595 -0.396,-0.63 2.592,-3.416 m -4.368,0.977 1.776,2.439 0.396,0.63 -3.276,0.447 -1.442,0.103 -0.261,-2.235 -0.141,-1.153 1.277,-0.168 0.576,-0.17 0.195,-0.131 0.451,-0.046 0.12,0.027 0.329,0.257 m -9.321,-0.405 1.754,0.54 0.95,1.709 0.614,1.474 -4.511,0.503 0.066,0.551 -1.293,-1.068 -0.126,-2.151 -0.036,-0.414 2.582,-1.144 m -5.052,0.572 0.307,-0.036 0.901,0.646 0.234,0.283 0.496,0.157 0.568,-0.064 0.126,2.151 -1.613,0.815 -0.608,0.073 -0.149,-1.393 0.004,-0.938 -0.072,-0.87 -0.086,-0.733 -0.108,-0.091 m -0.103,0.019 0.103,-0.019 0.108,0.091 0.086,0.733 0.072,0.87 -0.004,0.938 0.149,1.393 -2.732,0.265 -1.79,-0.627 -0.03,-0.964 1.172,-2.315 2.866,-0.365 m 24.506,0.243 0.061,0.35 0.176,1.29 -0.964,0.13 0.221,1.637 -1.078,0.649 -2.271,0.334 -0.253,-1.853 1.88,-1.6 1.032,-0.672 0.654,-0.248 0.542,-0.017 m 2.329,0.355 2.069,0.821 -0.406,0.144 -0.41,0.676 0.572,3.858 -1.131,-0.608 -0.094,-0.185 -0.109,-0.117 -1.249,-0.618 -0.726,-0.189 -0.513,-0.266 -0.838,-0.464 -0.221,-1.637 0.964,-0.13 -0.176,-1.29 -0.061,-0.35 2.329,0.355 m 4.133,-1.942 0.275,0.334 0.604,1.226 0.031,0.139 1.542,1.191 1.663,0.598 0.09,-0.004 -1.546,2.335 -3.791,-2.7 1.132,-3.119 m 4.205,3.484 0.356,0.103 0.536,0.375 0.28,0.067 0.789,-0.334 0.594,0.024 0.316,0.103 0.198,0.095 0.36,0.297 0.045,0.09 0.015,0.356 -0.289,3.629 -0.181,0.04 -1.09,-0.135 -1.533,-0.294 -0.753,-0.455 -0.59,-0.558 -0.008,-0.041 -0.591,-1.027 1.546,-2.335 m 3.2,4.805 -1.388,3.844 -2.281,-0.938 -0.519,-0.021 -0.887,-0.272 -0.035,-0.049 -0.041,-0.153 0.073,-2.105 0.923,-1.749 0.008,0.041 0.59,0.558 0.753,0.455 1.533,0.294 1.09,0.135 0.181,-0.04 m -1.388,3.844 0.653,3.893 -0.17,0.019 -0.938,0.113 -0.686,0.031 -1.297,-0.144 -1.718,-0.369 -0.469,-0.316 -0.756,-2.83 0.053,-0.522 0.068,-0.109 0.194,-0.09 0.7,-0.221 0.603,-0.888 0.041,0.153 0.035,0.049 0.887,0.272 0.519,0.021 2.281,0.938 m -5.381,0.397 0.756,2.83 -1.206,0.703 -0.096,1.393 0.049,0.266 0.172,0.261 0.338,0.442 0.145,0.396 0.008,0.862 -0.059,0.882 -0.058,0.893 -1.262,0.244 -0.073,-0.015 -0.229,-0.18 -0.207,-0.297 -0.109,-0.288 -0.324,-1.807 0.311,-2.876 -0.32,-0.036 -2.664,0.329 -0.351,-2.794 3.11,-0.42 0.558,-0.077 0.095,-0.865 1.416,0.154 m -7.987,-4.332 2.016,0.397 1.837,2.235 2.065,2.488 -3.11,0.42 0.351,2.794 2.664,-0.329 0.32,0.036 -0.311,2.876 -2.263,0.139 -0.189,-0.383 -0.212,-1.144 -0.226,-1.488 -1.18,-1.695 -0.69,-0.514 -0.379,-0.383 -0.987,-1.684 0.141,-2.367 0.153,-1.398 m 9.678,0.397 -0.073,2.105 -0.603,0.888 -0.7,0.221 -0.194,0.09 -0.068,0.109 -0.053,0.522 -1.416,-0.154 -0.095,0.865 -0.558,0.077 -2.065,-2.488 1.014,0.136 0.032,0 1.807,-1.222 0.145,-0.162 0.026,-0.279 -0.648,-0.758 0.117,0.077 1.212,0.085 0.78,-0.226 0.514,-0.202 0.436,0.145 0.39,0.171 m -5.766,-1.762 1.131,0.608 1.186,1.104 0.648,0.758 -0.026,0.279 -0.145,0.162 -1.807,1.222 -0.032,0 -1.014,-0.136 -1.837,-2.235 0.8,-0.293 0.411,-0.55 -0.045,-0.324 0.59,-0.573 0.14,-0.022 m 1.375,-4.07 0.932,0.356 3.791,2.7 0.591,1.027 -0.923,1.749 -0.39,-0.171 -0.436,-0.145 -0.514,0.202 -0.78,0.226 -1.212,-0.085 -0.117,-0.077 -1.186,-1.104 -0.572,-3.858 0.41,-0.676 0.406,-0.144 m -4.904,2.231 0.838,0.464 0.513,0.266 0.726,0.189 1.249,0.618 0.109,0.117 0.094,0.185 -0.14,0.022 -0.59,0.573 0.045,0.324 -0.411,0.55 -0.8,0.293 -2.016,-0.397 -0.149,-1.136 -0.351,0.045 -0.195,-1.464 1.078,-0.649 m -5.265,-0.172 1.663,-0.698 0.253,1.853 2.271,-0.334 0.195,1.464 0.351,-0.045 0.149,1.136 -0.153,1.398 -2.056,0.279 -0.17,-0.166 -1.457,-0.299 -1.983,0.231 -0.154,-0.65 1.249,-2.794 -0.158,-1.375 m -5.363,-0.148 3.276,-0.447 2.087,0.595 0.158,1.375 -1.28,0.248 -0.622,0.297 -0.97,0.095 -0.688,-0.252 -0.617,-0.91 -0.898,0.108 -0.446,-1.109 m -1.442,0.103 1.442,-0.103 0.446,1.109 -0.238,2.168 -1.578,0.54 -0.411,-0.342 -0.328,-0.216 -0.095,-0.033 -0.856,0.1 -0.235,-1.767 -0.081,-0.509 -0.049,-0.032 1.983,-0.915 m -4.071,-1.775 3.81,-0.46 0.261,2.235 -1.983,0.915 -1.555,-0.378 0.081,-0.838 -0.614,-1.474 m 0.614,1.474 -0.081,0.838 -0.533,2.641 -2.993,0.743 -0.187,-0.874 -0.651,-2.294 -0.066,-0.551 4.511,-0.503 m -3.794,3.348 0.187,0.874 -1.656,0.208 -1.051,0.135 0.027,-0.099 0.036,-0.253 -0.036,-0.441 -0.492,-0.915 -0.383,-0.153 -0.189,-1.903 1.613,-0.815 1.293,1.068 0.651,2.294 z m -4.165,-2.474 0.608,-0.073 0.189,1.903 0.383,0.153 0.492,0.915 0.036,0.441 -0.036,0.253 -0.027,0.099 -2.948,0.369 -1.43932,0.10426 -0.32768,-1.95226 0.338,-1.947 2.732,-0.265 m -4.522,-0.362 1.79,0.627 -0.338,1.947 -1.961,0.195 0.509,-2.769 m -0.509,2.769 1.961,-0.195 0.32768,1.95921 1.43932,-0.11121 0.158,1.525 -1.497,0.25 -0.302,0.119 -0.212,0.068 -0.248,0.027 -0.238,-0.401 -1.199,-2.989 -0.19,-0.252 m 6.676,1.284 1.051,-0.135 0.508,2.347 -2.258,0.307 -2.091,-0.625 -0.158,-1.525 2.948,-0.369 m 2.707,-0.343 2.993,-0.743 0.56,2.618 -1.551,0.244 -3.15,0.436 -0.508,-2.347 1.656,-0.208 m 3.526,-3.384 1.555,0.378 0.049,0.032 0.081,0.509 0.235,1.767 0.856,-0.1 0.095,0.033 0.328,0.216 0.411,0.342 0.348,3.047 -3.773,0.433 -0.158,-1.398 -0.56,-2.618 0.533,-2.641 m 3.61,3.177 1.578,-0.54 1.965,1.27 -0.829,1.754 -0.817,0.401 -1.549,0.162 -0.348,-3.047 m 6.891,-2.294 -1.249,2.794 -2.099,0.23 -1.965,-1.27 0.238,-2.168 0.898,-0.108 0.617,0.91 0.688,0.252 0.97,-0.095 0.622,-0.297 1.28,-0.248 m -1.249,2.794 0.154,0.65 0.023,0.215 0.018,0.033 0.512,0.541 0.501,0.387 0.271,1.172 0.103,0.541 0.105,0.184 0.067,0.225 -0.008,0.05 -1.389,0.186 -0.194,1.225 0.05,0.379 -1.069,0.121 -0.257,-0.802 -0.901,-1.929 -0.175,-0.064 -0.597,-0.419 -0.071,-0.103 -0.071,-0.202 0,-0.406 0.829,-1.754 2.099,-0.23 m 5.82,0.605 -0.141,2.367 -3.271,0.445 -0.826,0.122 -0.103,-0.541 -0.271,-1.172 -0.501,-0.387 -0.512,-0.541 -0.018,-0.033 -0.023,-0.215 1.983,-0.231 1.457,0.299 0.17,0.166 2.056,-0.279 m -3.412,2.812 3.271,-0.445 0.987,1.684 0.379,0.383 0.69,0.514 1.18,1.695 0.226,1.488 0.212,1.144 0.189,0.383 -0.451,0.032 -1.379,0.099 -0.122,-1.271 -0.04,-0.067 -0.112,-0.112 -0.194,-0.079 -0.726,-0.045 -0.437,0.01 -0.221,0.031 -0.414,0.019 -0.293,-0.083 -0.158,-0.084 -0.316,-0.352 -0.162,-0.451 -0.126,-0.202 -1.429,-0.263 -0.554,-4.028 m 0.554,4.028 1.429,0.263 0.126,0.202 0.162,0.451 0.316,0.352 0.158,0.084 0.293,0.083 0.414,-0.019 0.221,-0.031 0.437,-0.01 0.726,0.045 0.194,0.079 0.112,0.112 0.04,0.067 0.122,1.271 -1.172,0.086 -4.961,0.341 0.892,-3.05 0.491,-0.326 m -3.818,-1.536 1.069,-0.121 0.329,0.937 1.5,-0.166 0.289,0.518 0.14,0.694 -0.892,3.05 -1.916,0.132 -0.533,0.031 -0.996,-0.537 -0.179,-0.134 -0.419,-0.615 0.008,-0.047 0.321,-0.677 0.287,-0.315 -0.99,-2.547 1.982,-0.203 m 2.438,-2.37 0.826,-0.122 0.554,4.028 -0.491,0.326 -0.14,-0.694 -0.289,-0.518 -1.5,0.166 -0.329,-0.937 -0.05,-0.379 0.194,-1.225 1.389,-0.186 0.008,-0.05 -0.067,-0.225 -0.105,-0.184 m -4.51,-1.555 0,0.406 0.071,0.202 0.071,0.103 0.597,0.419 0.175,0.064 0.901,1.929 0.257,0.802 -1.982,0.203 -1.168,-0.446 0.261,-3.281 0.817,-0.401 m -0.817,0.401 -0.261,3.281 -1.7,0.748 -2.988,-0.13 -0.373,-3.304 3.773,-0.433 1.549,-0.162 m 0.907,3.727 0.99,2.547 -0.287,0.315 -0.321,0.677 -0.008,0.047 0.419,0.615 0.179,0.134 0.996,0.537 -2.82,0.194 -1.465,0.095 -0.551,-4.859 1.7,-0.748 1.168,0.446 m -5.856,0.172 2.988,0.13 0.551,4.859 -2.921,0.199 -0.846,0.057 -0.344,-3.086 -0.22,-0.212 -0.148,-0.185 -0.163,-0.352 -0.136,-1.267 1.239,-0.143 m -1.239,0.143 0.136,1.267 0.163,0.352 0.148,0.185 0.22,0.212 0.344,3.086 -2.187,0.154 -1.105,0.077 -0.564,-4.984 2.845,-0.349 m -2.845,0.349 0.564,4.984 -5.345,0.36 -0.117,-0.257 0.017,-0.203 0.158,-0.333 0.433,-0.28 0.344,-0.635 0.085,-0.654 -0.198,-1.92 0.193,-0.473 2.046,-0.375 0.38,-0.036 1.44,-0.178 m -5.972,0.796 2.106,-0.207 -0.193,0.473 0.198,1.92 -0.085,0.654 -0.344,0.635 -0.433,0.28 -0.158,0.333 -0.017,0.203 0.117,0.257 -0.014,0 -1.946,-3.524 -0.323,-0.934 1.092,-0.09 m 0.475,-5.628 2.091,0.625 0.225,2.25 0,0.031 -0.685,0.139 -2.331,0.226 0.225,2.357 -1.092,0.09 -0.119,-0.257 -0.082,-0.147 -0.521,-0.573 -0.082,-0.023 -0.095,0 -0.095,-0.054 -0.112,-0.261 -0.153,-0.915 0.076,-0.334 0.117,-0.342 0.136,-2.749 0.238,0.401 0.248,-0.027 0.212,-0.068 0.302,-0.119 1.497,-0.25 m 2.316,2.875 1.361,2.171 -2.046,0.375 -2.106,0.207 -0.225,-2.357 2.331,-0.226 0.685,-0.139 0,-0.031 m 2.033,-2.557 3.15,-0.436 -0.567,1.136 -1.326,1.031 -1.315,1.885 -0.06,0.094 -0.165,0.442 -0.009,0.54 -0.38,0.036 -1.361,-2.171 -0.225,-2.25 2.258,-0.307 m 4.701,-0.68 0.531,4.702 -1.239,0.143 -2.845,0.349 -1.44,0.178 0.009,-0.54 0.165,-0.442 0.06,-0.094 1.315,-1.885 1.326,-1.031 0.567,-1.136 1.551,-0.244" />
</svg>
