<?xml version="1.0" encoding="UTF-8" standalone="no"?>
<!-- Created with Inkscape (http://www.inkscape.org/) -->

<svg
   xmlns:dc="http://purl.org/dc/elements/1.1/"
   xmlns:cc="http://creativecommons.org/ns#"
   xmlns:rdf="http://www.w3.org/1999/02/22-rdf-syntax-ns#"
   xmlns:svg="http://www.w3.org/2000/svg"
   xmlns="http://www.w3.org/2000/svg"
   xmlns:sodipodi="http://sodipodi.sourceforge.net/DTD/sodipodi-0.dtd"
   xmlns:inkscape="http://www.inkscape.org/namespaces/inkscape"
   version="1.0"
   width="555.22198"
   height="351.66797"
   id="svg2"
   inkscape:version="0.48.1 r9760"
   sodipodi:docname="idaho.svg">
  <metadata
     id="metadata42">
    <rdf:RDF>
      <cc:Work
         rdf:about="">
        <dc:format>image/svg+xml</dc:format>
        <dc:type
           rdf:resource="http://purl.org/dc/dcmitype/StillImage" />
      </cc:Work>
    </rdf:RDF>
  </metadata>
  <defs
     id="defs40" />
  <sodipodi:namedview
     pagecolor="#ffffff"
     bordercolor="#666666"
     borderopacity="1"
     objecttolerance="10"
     gridtolerance="10"
     guidetolerance="10"
     inkscape:pageopacity="0"
     inkscape:pageshadow="2"
     inkscape:window-width="640"
     inkscape:window-height="480"
     id="namedview38"
     showgrid="false"
     inkscape:zoom="0.83029853"
     inkscape:cx="277.61099"
     inkscape:cy="175.83398"
     inkscape:window-x="0"
     inkscape:window-y="25"
     inkscape:window-maximized="0"
     inkscape:current-layer="svg2" />
  <path
     id="16081"
     style="font-size:12px;fill:#0000ff;fill-rule:nonzero;stroke:#000000;stroke-opacity:1;stroke-width:0.1;stroke-miterlimit:4;stroke-dasharray:none;stroke-linecap:butt;marker-start:none;stroke-linejoin:bevel"
     d="m 154.55498,86.419 -0.96,6.171 -0.68,-0.514 -0.762,-0.974 -0.009,-0.13 -0.13,-0.221 -1.434,-0.239 0.635,-3.84 3.34,-0.253 m -8.617,-0.685 1.276,0.217 1.203,0.779 1.253,0.208 1.474,-0.216 0.035,-0.009 0.036,-0.041 -0.635,3.84 -2.073,-0.401 0.063,-0.366 -2.735,-1.716 -0.032,0.018 -0.199,-0.014 -0.103,-0.095 0.099,-0.559 0.338,-1.645 m -6.468,-1.708 0.199,-1.099 4.912,0.865 -0.189,1.099 1.636,0.289 -0.09,0.554 -0.338,1.645 -0.099,0.559 0.103,0.095 0.199,0.014 0.032,-0.018 2.735,1.716 -0.063,0.366 -8.212,-1.402 -1.636,-0.239 0.811,-4.444 m -2.136,-3.826 -0.591,3.33 2.727,0.496 -0.811,4.444 -0.203,1.05 -1.284,0.97 -1.109,-0.204 -0.194,1.046 -0.279,1.037 -0.55,-0.099 -3.268,-0.595 0.194,-1.055 -2.515,-0.473 0.185,-0.983 0.203,-0.139 -0.068,-0.528 -0.356,-1.145 -0.045,-0.081 -0.239,-0.112 -0.189,-0.005 -0.501,0.153 0.032,-0.072 0.396,-0.419 0.893,-0.478 1.546,-0.509 0.955,-0.965 0.226,-1.352 0.157,-1.501 0.072,-0.36 0.785,-2.141 0.874,0.162 2.957,0.528 m -5.206,-20.138 0.185,0.194 0.874,1.235 0.05,0.162 0.103,1.023 -0.008,0.383 -0.117,0.212 -0.023,0.766 0.013,1.01 1.411,5.246 1.496,2.082 0.307,-0.076 0.32,0.252 0.383,0.428 0.172,0.266 0.197,0.618 0.262,1.122 0,0.099 -0.054,0.099 -0.036,0.027 -0.013,1.609 0.107,0.609 0.249,0.36 0.734,0.821 0.234,0.085 0.185,-0.103 0.09,-0.14 0.005,-0.032 0.054,0.262 -0.334,1.861 -1.099,-0.193 -0.541,-0.149 -2.957,-0.528 0.05,-0.545 -0.032,-0.549 -0.126,-0.393 -0.464,-1.33 -0.063,-0.166 -0.041,-0.063 -0.117,-0.023 -0.09,0.068 -0.144,0.175 -0.135,0.1 -0.055,0.013 -0.32,-0.09 -0.117,-0.045 -0.955,-0.514 -1.289,-0.816 -2.538,-3.718 -0.022,-1.095 0.049,-0.456 -0.175,-0.293 -0.924,0.672 -0.384,0.302 -0.27,0.401 -0.208,0.514 -0.211,0.442 -0.036,0.049 -0.699,0.595 -0.279,0.185 -0.816,0.081 -0.054,-0.018 -0.266,-0.315 -1.479,-1.925 -0.072,-0.207 -0.013,-0.167 0.225,-0.757 0.523,-0.644 0.528,-1.023 0.31,-1.186 0.095,-0.591 0.14,-0.694 0.148,-0.36 0.122,-0.126 0.176,-0.086 0.897,-1.285 -0.392,-0.834 -0.464,-0.626 -0.325,-0.46 -0.005,-0.049 0.063,-0.46 0.054,-0.261 0.073,-0.145 0.058,-0.04 0.127,0.018 0.09,0.095 0.076,0.144 0.127,0.126 0.459,0.243 0.893,-0.558 0.396,-0.298 0.397,0.054 0.356,0.09 0.113,0.05 0.662,1.046 0.081,0.315 0,0.005 0.37,0.058 1.767,-0.811 1.113,-0.974 0.793,-0.455 m -15.373,14.774 0.108,-0.067 0.288,-0.266 0.167,-0.189 0.203,-0.325 0.054,-0.095 0.162,-0.73 -0.031,-0.405 -0.059,-0.122 -0.027,-0.014 -0.054,0.036 -0.216,-0.072 -0.05,-0.238 -0.022,-0.217 0.008,-0.356 0.311,-0.365 1.646,-1.402 0.441,-0.207 0.153,0.049 0.28,0.244 0.293,0.401 0.387,0.135 0.095,-0.018 1.415,-0.829 -0.225,0.757 0.013,0.167 0.072,0.207 1.479,1.925 0.266,0.315 0.054,0.018 0.816,-0.081 0.279,-0.185 0.699,-0.595 0.036,-0.049 0.211,-0.442 0.208,-0.514 0.27,-0.401 0.384,-0.302 0.924,-0.672 0.175,0.293 -0.049,0.456 0.022,1.095 2.538,3.718 1.289,0.816 0.955,0.514 0.117,0.045 0.32,0.09 0.055,-0.013 0.135,-0.1 0.144,-0.175 0.09,-0.068 0.117,0.023 0.041,0.063 0.063,0.166 0.464,1.33 0.126,0.393 0.032,0.549 -0.05,0.545 -0.874,-0.162 -0.785,2.141 -0.072,0.36 -0.157,1.501 -0.226,1.352 -0.955,0.965 -1.546,0.509 -0.893,0.478 -0.396,0.419 -0.032,0.072 -0.077,-0.306 -0.089,-0.203 -0.257,-0.5 -0.127,-0.171 -0.72,-0.888 -2.421,-2.637 -0.351,-0.261 -1.339,-0.392 -1.041,0.076 -0.758,-0.847 -1.04,-1.069 -0.546,-0.108 -0.135,0.023 -0.343,0.126 -0.112,0.058 -0.437,0.312 -0.149,-0.185 0.261,-0.262 0.037,-0.107 -0.041,-2.128 -0.041,-0.212 -1.478,-2.249 -0.482,-0.541 m -5.584,-11.317 0.008,-0.072 0.144,-0.28 0.194,-0.243 1.398,-0.189 11.434,2.339 -0.176,0.086 -0.122,0.126 -0.148,0.36 -0.14,0.694 -0.095,0.591 -0.31,1.186 -0.528,1.023 -0.523,0.644 -1.415,0.829 -0.095,0.018 -0.387,-0.135 -0.293,-0.401 -0.28,-0.244 -0.153,-0.049 -0.441,0.207 -1.646,1.402 -0.311,0.365 -0.008,0.356 0.022,0.217 0.05,0.238 0.216,0.072 0.054,-0.036 0.027,0.014 0.059,0.122 0.031,0.405 -0.162,0.73 -0.054,0.095 -0.203,0.325 -0.167,0.189 -0.288,0.266 -0.108,0.067 -1.222,0.748 -0.501,0.167 -0.437,0.014 -5.412,-1.163 -0.339,0.797 -0.883,0.068 0.473,-2.185 0.537,0.112 0.477,-2.204 -0.045,-0.009 0,-1.172 0.312,-2.51 0.36,-1.001 0.126,-0.279 0.433,-0.659 0.13,0.078 0.081,0 0.195,-0.231 0.505,-1.221 -0.374,-0.667 m 7.477,17.001 0.437,-0.312 0.112,-0.058 0.343,-0.126 0.135,-0.023 0.546,0.108 1.04,1.069 0.758,0.847 1.041,-0.076 1.339,0.392 0.351,0.261 2.421,2.637 0.72,0.888 0.127,0.171 0.257,0.5 0.089,0.203 0.077,0.306 0.501,-0.153 0.189,0.005 0.239,0.112 0.045,0.081 0.356,1.145 0.068,0.528 -0.203,0.139 -0.185,0.983 2.515,0.473 -0.194,1.055 3.268,0.595 -0.406,2.213 -2.177,-0.397 -0.617,3.349 -0.14,1.104 -0.32,1.749 -0.108,0.09 -0.055,0.005 -0.477,-0.262 -0.14,-0.198 -0.248,-0.41 -0.487,-0.149 -0.567,-0.041 0.424,-2.294 0.549,0.104 0.821,-4.467 -2.772,-0.523 -6.085,-1.163 0.117,-0.585 0.018,-1.055 -0.301,-0.171 -1.384,-3.692 0.045,-0.946 0.072,-1.001 -0.009,-0.586 -0.023,-0.189 -0.027,-0.094 -0.067,-0.086 -1.456,-0.424 -0.942,-0.658 0.37,-0.973 m 21.647,8.189 -0.451,2.569 3.84,0.672 2.461,1.185 1.988,1.443 -0.181,1.045 -0.392,2.294 -4.385,-0.766 -5.499,-0.947 -0.108,0.014 -0.752,0.266 -0.144,0.311 -0.023,0.063 0,0.086 -0.811,1.018 -1.781,-0.316 0.577,-3.163 0.406,-2.213 0.55,0.099 0.279,-1.037 0.194,-1.046 1.109,0.204 1.284,-0.97 0.203,-1.05 1.636,0.239 m 8.212,1.402 2.073,0.401 1.434,0.239 0.13,0.221 0.009,0.13 0.762,0.974 0.68,0.514 -0.369,2.366 -0.6,3.786 -5.066,-0.825 0.392,-2.294 0.181,-1.045 -1.988,-1.443 -2.461,-1.185 -3.84,-0.672 0.451,-2.569 8.212,1.402 m -28.295,0.487 2.023,0.382 6.085,1.163 -0.834,4.463 -0.676,1 -1.56,-0.306 -1.081,-0.212 -0.843,-0.546 -1.789,-0.545 -0.149,-0.221 0.067,-0.343 -2.118,-0.418 0.875,-4.417 m 8.108,1.545 2.772,0.523 -0.821,4.467 -0.549,-0.104 -0.424,2.294 -0.447,-0.045 -0.387,0.063 -0.149,0.086 -0.072,0.059 -0.69,0.892 -0.149,0.216 -0.13,0.113 -0.388,0.122 -0.063,0.014 -0.121,-0.019 -2.002,-0.6 0.55,-2.924 1.56,0.306 0.676,-1 0.834,-4.463 m 19.24,5.774 5.066,0.825 -1.058,6.482 -1.051,0.162 -0.766,-0.375 0.112,-0.239 0.068,-0.179 0.086,-0.321 -0.005,-0.086 -0.117,-0.265 -3.376,-0.537 -0.333,0.216 -0.018,0.307 0.031,1.727 -2.591,-0.442 0.063,-0.371 0.004,-0.571 -0.018,-1.691 -0.018,-0.193 -0.252,-1.182 -0.82,-0.139 -0.077,0.045 -0.049,0.072 -0.177,0.091 -0.112,0.009 -0.077,-0.054 -0.175,-0.731 -0.014,-0.14 0.023,-0.364 0.288,-1.434 0.189,-0.446 0.027,-0.05 0.762,-0.892 4.385,0.766 m 4.008,7.307 -1.051,6.551 -4.34,-0.676 -0.622,-1.337 -0.032,-0.073 -0.054,-1.221 0.032,-0.23 0.189,-0.458 0.41,-0.867 0.099,-1.279 -0.031,-1.727 0.018,-0.307 0.333,-0.216 3.376,0.537 0.117,0.265 0.005,0.086 -0.086,0.321 -0.068,0.179 -0.112,0.239 0.766,0.375 1.051,-0.162 m -7.96,-0.032 2.591,0.442 -0.099,1.279 -0.41,0.867 -0.189,0.458 -0.032,0.23 0.054,1.221 0.032,0.073 0.622,1.337 -5.674,-0.918 0.378,-2.211 0.365,0.066 0.149,-0.881 -0.23,-0.431 -0.189,-0.256 0.865,0.273 0.401,0.32 0.821,0.141 0.36,-2.037 0.185,0.027 m -0.433,-8.041 -0.762,0.892 -0.027,0.05 -0.189,0.446 -0.288,1.434 -0.023,0.364 0.014,0.14 0.175,0.731 0.077,0.054 0.112,-0.009 0.177,-0.091 0.049,-0.072 0.077,-0.045 0.82,0.139 0.252,1.182 0.018,0.193 0.018,1.691 -0.004,0.571 -0.063,0.371 -0.185,-0.027 -0.36,2.037 -0.821,-0.141 -0.401,-0.32 -0.865,-0.273 -0.23,-0.159 -0.87,-0.892 -0.369,-0.433 0,-0.932 -0.794,-0.839 0.469,-0.824 0.18,-0.667 0.045,-0.276 -0.676,-3.592 -0.216,-0.618 -0.257,-0.288 -0.122,-0.022 -1.104,0.432 -0.383,-0.414 0,-0.086 0.023,-0.063 0.144,-0.311 0.752,-0.266 0.108,-0.014 5.499,0.947 m -8.541,-2.668 -0.577,3.163 1.781,0.316 0.811,-1.018 0.383,0.414 1.104,-0.432 0.122,0.022 0.257,0.288 0.216,0.618 0.676,3.592 -0.045,0.276 -0.18,0.667 -0.469,0.824 -0.73,-0.131 -0.194,1.114 -1.455,-0.258 -0.199,1.114 -3.245,-0.564 0.581,-3.326 -1.708,-0.919 -0.383,0.045 0.32,-1.749 0.14,-1.104 0.617,-3.349 2.177,0.397 m 4.079,8.73 0.794,0.839 0,0.932 0.369,0.433 0.87,0.892 0.23,0.159 0.189,0.256 0.23,0.431 -0.149,0.881 -0.365,-0.066 -0.378,2.211 -0.515,-0.082 -0.689,-0.178 -0.005,0 -1.992,-0.344 -2.429,-0.42 -2.745,-0.464 0.762,-4.205 3.245,0.564 0.199,-1.114 1.455,0.258 0.194,-1.114 0.73,0.131 m -14.013,-2.989 2.002,0.6 0.121,0.019 0.063,-0.014 0.388,-0.122 0.13,-0.113 0.149,-0.216 0.69,-0.892 0.072,-0.059 0.149,-0.086 0.387,-0.063 0.447,0.045 0.567,0.041 0.487,0.149 0.248,0.41 0.14,0.198 0.477,0.262 0.055,-0.005 0.108,-0.09 0.383,-0.045 1.708,0.919 -0.581,3.326 -0.762,4.205 -3.777,-0.639 -0.275,-0.045 -3.132,-0.533 -0.298,-0.049 -0.802,-0.14 -0.112,-0.022 -0.753,-0.18 -0.627,-0.158 -2.244,-0.442 0.838,-4.287 0.036,-0.35 0.14,-0.753 2.069,0.117 0.486,-0.942 0.361,-0.054 0.662,0.008 m -9.297,-6.81 0.134,-0.054 0.258,0.054 0.328,0.108 0.379,0.794 0.005,0.063 -0.253,1.086 0.496,0.928 0.64,0.591 1.235,0.55 0.117,0.122 1.122,0.73 0.577,0.216 1.483,0.803 0.446,0.387 0.05,0.104 0.437,0.441 1.181,-0.121 -0.361,0.054 -0.486,0.942 -2.069,-0.117 -0.14,0.753 -0.036,0.35 -0.838,4.287 -2.028,-0.401 -2.47,-0.559 -1.411,-0.284 -1.167,-0.184 1.996,-9.817 0.375,-1.826 m 3.934,1.601 2.118,0.418 -0.067,0.343 0.149,0.221 1.789,0.545 0.843,0.546 1.081,0.212 -0.55,2.924 -0.662,-0.008 -1.181,0.121 -0.437,-0.441 -0.05,-0.104 -0.446,-0.387 -1.483,-0.803 -0.577,-0.216 -1.122,-0.73 -0.117,-0.122 0.712,-2.519 m -3.646,-5.328 4.521,0.911 -0.875,4.417 -0.712,2.519 -1.235,-0.55 -0.64,-0.591 -0.496,-0.928 0.253,-1.086 -0.005,-0.063 -0.379,-0.794 -0.328,-0.108 -0.258,-0.054 -0.134,0.054 0.288,-3.727 m 2.587,-8.194 0.942,0.658 1.456,0.424 0.067,0.086 0.027,0.094 0.023,0.189 0.009,0.586 -0.072,1.001 -0.045,0.946 1.384,3.692 0.301,0.171 -0.018,1.055 -0.117,0.585 -2.023,-0.382 -4.521,-0.911 0.441,-2.181 0.636,-2.962 0.974,-2.325 0.126,-0.235 0.288,-0.414 0.122,-0.077 m -19.011,-1.712 0.306,0.193 1.101,1.271 0.225,0.28 0.058,0.194 0.068,0.4 -0.014,0.23 -0.081,0.492 0.018,0.067 1.33,2.475 0.59,0.379 0.735,0.08 0.067,0.05 0.113,0.149 0.176,0.626 -0.018,0.122 -0.117,0.176 -0.072,0.257 0.004,0.036 0.216,0.392 0.293,0.464 0.217,0.257 0.144,0.131 0.027,0.126 0.401,0.811 0.857,0.992 0.594,0.622 0.113,0.049 1.889,0.397 3.217,0.91 -0.179,0.668 -0.149,0.319 -0.221,1.059 3.853,0.785 -1.996,9.817 -13.742,-2.917 -1.082,-0.248 -3.642,-0.834 -0.072,-0.027 4.773,-21.25 m 19.232,0.554 0.149,0.185 -0.37,0.973 -0.122,0.077 -0.288,0.414 -0.126,0.235 -0.974,2.325 -0.636,2.962 -0.441,2.181 -0.288,3.727 -0.375,1.826 -3.853,-0.785 0.221,-1.059 0.149,-0.319 0.179,-0.668 -3.217,-0.91 -1.889,-0.397 -0.113,-0.049 -0.594,-0.622 -0.857,-0.992 -0.401,-0.811 -0.027,-0.126 2.641,0.555 0.505,-2.178 0.212,-0.996 0.604,-2.871 0.108,0.049 0.519,0.064 0.729,-0.027 1.276,-0.482 0.225,-0.104 0.261,-0.244 0.406,-0.559 0.442,-0.531 1.018,-0.952 0.19,-0.094 2.109,-0.234 1.911,0.414 0.717,0.023 m -14.207,-1.113 2.096,0.459 1.131,1.781 1.01,1.609 0.059,-0.059 -0.604,2.871 -0.212,0.996 -0.505,2.178 -2.641,-0.555 -0.144,-0.131 -0.217,-0.257 -0.293,-0.464 -0.216,-0.392 -0.004,-0.036 0.072,-0.257 0.117,-0.176 0.018,-0.122 -0.176,-0.626 -0.113,-0.149 -0.067,-0.05 -0.735,-0.08 0.424,-1.402 0.392,-0.658 0.162,-0.735 0.095,-1.01 -0.131,-0.545 0.482,-2.19 m -4.029,-1.857 2.213,1.464 1.816,0.393 -0.482,2.19 0.131,0.545 -0.095,1.01 -0.162,0.735 -0.392,0.658 -0.424,1.402 -0.59,-0.379 -1.33,-2.475 -0.018,-0.067 0.081,-0.492 0.014,-0.23 -0.068,-0.4 -0.058,-0.194 -0.225,-0.28 -1.101,-1.271 -0.306,-0.193 0.996,-2.416 m 9.14,-6.184 0.045,0.009 -0.477,2.204 -0.537,-0.112 -0.473,2.185 -0.55,-0.117 -0.937,4.286 -0.018,0.063 -0.068,-0.018 -2.096,-0.459 -1.816,-0.393 0.487,-2.203 1.271,0.292 1.315,-0.838 0.244,-1.086 0.843,0.189 0.118,-0.297 0.306,-1.014 0.171,-0.843 0.203,-0.518 0.536,-0.915 1.433,-0.415 m 7.352,3.655 0.482,0.541 1.478,2.249 0.041,0.212 0.041,2.128 -0.037,0.107 -0.261,0.262 -0.717,-0.023 -1.911,-0.414 -2.109,0.234 -0.19,0.094 -1.018,0.952 -0.442,0.531 -0.406,0.559 -0.261,0.244 -0.225,0.104 -1.276,0.482 -0.729,0.027 -0.519,-0.064 -0.108,-0.049 -0.059,0.059 -1.01,-1.609 -1.131,-1.781 0.068,0.018 0.018,-0.063 0.937,-4.286 0.55,0.117 0.883,-0.068 0.339,-0.797 5.412,1.163 0.437,-0.014 0.501,-0.167 1.222,-0.748 m -14.977,-0.743 4.015,0.901 -0.244,1.086 -1.315,0.838 -1.271,-0.292 -0.487,2.203 -2.213,-1.464 0.27,-0.451 0.438,-0.829 0.351,-1.433 0.456,-0.559 m 1.987,-8.668 2.38,0.55 -0.483,2.218 0.05,0.653 0.342,1.713 0.781,0.694 0.306,0.162 0.829,0.181 -0.536,0.915 -0.203,0.518 -0.171,0.843 -0.306,1.014 -0.118,0.297 -0.843,-0.189 -4.015,-0.901 0.013,-0.023 0.013,-0.027 0.018,-0.036 0.005,-0.005 0,-0.013 0.013,-0.131 -0.031,-0.099 -0.009,-0.018 -0.478,-0.946 -0.094,-0.059 -0.357,-0.126 -0.049,0 -0.086,0.04 -1.122,-0.455 -0.135,-0.229 -0.018,-0.185 0.013,-0.109 0.023,-0.068 0.311,-2.122 0.113,-0.226 1.996,-2.744 0.212,-0.19 0.063,-0.027 0.221,-0.049 0.861,-0.293 0.491,-0.528 m 2.979,-4.984 3.101,0.676 0.045,0.234 0.09,0.789 -0.013,0.59 -0.127,0.298 -0.062,0.04 -0.032,0.126 1.425,0.325 0.374,0.667 -0.505,1.221 -0.195,0.231 -0.081,0 -0.13,-0.078 -0.433,0.659 -0.126,0.279 -0.36,1.001 -0.312,2.51 0,1.172 -1.433,0.415 -0.829,-0.181 -0.306,-0.162 -0.781,-0.694 -0.342,-1.713 -0.05,-0.653 0.483,-2.218 -2.38,-0.55 0.271,-0.288 0.211,-0.226 0.302,-0.522 0.009,-0.009 -0.013,-0.104 -0.054,-0.126 -0.032,-0.126 -0.009,-0.261 0.225,-0.469 0.285,-0.262 0.437,-0.396 1.347,-2.195 m 43.805,17.866 -0.325,1.929 -0.802,-0.131 -0.834,0.207 -0.676,0.645 -0.139,0.816 -0.19,0.825 -0.599,0.473 -1.289,0.915 -1.114,-0.194 -4.912,-0.865 -0.199,1.099 -2.727,-0.496 0.591,-3.33 0.541,0.149 1.099,0.193 0.334,-1.861 -0.054,-0.262 0.108,-0.482 0.131,-0.203 0.356,-0.378 0.608,-0.144 3.223,0.802 1.37,-0.514 2.51,0.257 1.817,0.518 1.172,0.032 m 2.586,-2.177 0.433,0.428 0.74,1.451 0.401,1.158 0.104,0.307 0.734,0.681 -0.992,6.264 -3.34,0.253 -0.036,0.041 -0.035,0.009 -1.474,0.216 -1.253,-0.208 -1.203,-0.779 -1.276,-0.217 0.09,-0.554 -1.636,-0.289 0.189,-1.099 1.114,0.194 1.289,-0.915 0.599,-0.473 0.19,-0.825 0.139,-0.816 0.676,-0.645 0.834,-0.207 0.802,0.131 0.325,-1.929 1.559,-1.79 1.027,-0.387" />
</svg>
