<?xml version="1.0" encoding="UTF-8" standalone="no"?>
<!-- Created with Inkscape (http://www.inkscape.org/) -->

<svg
   xmlns:dc="http://purl.org/dc/elements/1.1/"
   xmlns:cc="http://creativecommons.org/ns#"
   xmlns:rdf="http://www.w3.org/1999/02/22-rdf-syntax-ns#"
   xmlns:svg="http://www.w3.org/2000/svg"
   xmlns="http://www.w3.org/2000/svg"
   xmlns:sodipodi="http://sodipodi.sourceforge.net/DTD/sodipodi-0.dtd"
   xmlns:inkscape="http://www.inkscape.org/namespaces/inkscape"
   version="1.0"
   width="555.22198"
   height="351.66797"
   id="svg2"
   inkscape:version="0.48.1 r9760"
   sodipodi:docname="indianapolis.svg">
  <metadata
     id="metadata69">
    <rdf:RDF>
      <cc:Work
         rdf:about="">
        <dc:format>image/svg+xml</dc:format>
        <dc:type
           rdf:resource="http://purl.org/dc/dcmitype/StillImage" />
      </cc:Work>
    </rdf:RDF>
  </metadata>
  <defs
     id="defs67" />
  <sodipodi:namedview
     pagecolor="#ffffff"
     bordercolor="#666666"
     borderopacity="1"
     objecttolerance="10"
     gridtolerance="10"
     guidetolerance="10"
     inkscape:pageopacity="0"
     inkscape:pageshadow="2"
     inkscape:window-width="640"
     inkscape:window-height="480"
     id="namedview65"
     showgrid="false"
     inkscape:zoom="0.83029853"
     inkscape:cx="277.61099"
     inkscape:cy="175.83398"
     inkscape:window-x="0"
     inkscape:window-y="25"
     inkscape:window-maximized="0"
     inkscape:current-layer="svg2" />
  <path
     id="18171"
     style="font-size:12px;fill:#0000ff;fill-rule:nonzero;stroke:#000000;stroke-opacity:1;stroke-width:0.1;stroke-miterlimit:4;stroke-dasharray:none;stroke-linecap:butt;marker-start:none;stroke-linejoin:bevel"
     d="m 376.00298,139.233 4.204,-0.365 0.149,1.411 -1.203,0.776 -0.239,0.198 -1.554,1.632 -0.132,0.251 -0.009,0.068 0.05,0.121 0.306,0.329 -1.239,-0.156 -0.333,-4.265 m 4.082,-1.491 3.143,-0.294 0.70702,-0.0628 0.19798,1.67176 0.266,2.818 -3.863,0.365 -0.18,-1.961 -0.149,-1.411 -0.122,-1.126 m 0.451,4.498 0.334,3.389 -3.223,0.302 -0.072,-2.277 -0.306,-0.329 -0.05,-0.121 0.009,-0.068 0.132,-0.251 1.554,-1.632 0.239,-0.198 1.203,-0.776 0.18,1.961 m 3.863,-0.365 0.045,0.464 0.334,3.308 0.072,0.748 -3.078,0.276 -0.902,-1.042 -0.334,-3.389 3.863,-0.365 m -0.266,-2.818 3.096,-0.306 0.645,-0.063 0.059,0.559 0.297,0.162 0.365,-0.041 0.216,2.042 0.05,0.456 -4.417,0.473 -0.045,-0.464 -0.266,-2.818 m 8.153,-0.135 0.226,2.061 -3.701,0.427 -0.216,-2.042 3.655,-0.811 0.036,0.365 m 2.755,-0.311 0.45,3.904 0.185,1.694 -2.79,0.334 -0.374,-3.56 -0.226,-2.061 2.755,-0.311 m 3.479,-0.387 0.117,0.932 0.384,2.966 -3.53,0.393 -0.45,-3.904 1.302,-0.139 2.177,-0.248 m 0.117,0.932 4.024,-0.509 0.398,3.944 -3.81,0.451 -0.228,-0.92 -0.384,-2.966 m -9.826,2.254 3.701,-0.427 0.374,3.56 -0.712,0.289 -2.956,0.329 -0.357,-3.295 -0.05,-0.456 m 0.05,0.456 0.357,3.295 -0.835,0.107 -3.605,0.379 -0.334,-3.308 4.417,-0.473 m -0.478,3.402 0.384,3.778 -0.095,0.009 -1.271,0.153 0.041,0.378 -1.88,0.185 -0.166,-0.365 -0.294,-1.249 -0.171,-1.771 -0.081,0.009 -0.072,-0.748 3.605,-0.379 m 3.791,-0.436 0.18,2.987 0.077,0.763 -2.916,0.364 -0.748,0.1 -0.384,-3.778 0.835,-0.107 2.956,-0.329 m 3.502,-0.623 0.026,2.078 -0.229,1.177 -3.119,0.355 -0.18,-2.987 0.712,-0.289 2.79,-0.334 m -0.185,-1.694 3.53,-0.393 0.228,0.92 0.127,2.812 -0.784,0.099 -2.89,0.334 -0.026,-2.078 -0.185,-1.694 m 7.568,0.076 0.117,1.141 0.274,2.46 -2.136,0.407 -1.474,0.157 -0.094,-0.942 -0.37,0.04 -0.127,-2.812 3.81,-0.451 m -1.745,4.008 2.136,-0.407 0.235,2.056 0.068,0.585 -2.174,0.199 -0.265,-2.433 m -2.722,-0.646 0.784,-0.099 0.37,-0.04 0.094,0.942 1.474,-0.157 0.265,2.433 -2.573,0.307 -0.414,-3.386 m -2.89,0.334 2.89,-0.334 0.527,4.314 -3.263,0.37 -0.383,-3.173 0.229,-1.177 m -3.348,1.532 3.119,-0.355 0.383,3.173 -0.397,1.388 -2.627,0.32 -0.401,-3.763 -0.077,-0.763 m 0.077,0.763 0.401,3.763 -1.311,0.175 -1.637,0.204 -0.369,-3.778 2.916,-0.364 m -2.916,0.364 0.369,3.778 -1.275,0.157 -2.465,0.139 -0.713,-1.527 0.131,-1.722 1.88,-0.185 -0.041,-0.378 1.271,-0.153 0.095,-0.009 0.748,-0.1 m -7.743,-2.275 3.078,-0.276 0.081,-0.009 0.171,1.771 0.294,1.249 0.166,0.365 -0.131,1.722 -2.492,0.202 -0.88,-1.636 -0.287,-3.388 m -0.902,-1.042 0.902,1.042 0.287,3.388 -1.833,0.145 -1.803,0.153 -0.104,-1.006 0.085,-2.307 -0.179,-0.356 -0.127,-0.167 -0.451,-0.59 3.223,-0.302 m -3.295,-1.975 0.072,2.277 0.451,0.59 0.127,0.167 0.179,0.356 -0.085,2.307 0.104,1.006 -1.47,0.14 -0.329,-3.569 -0.288,-3.43 1.239,0.156 m 2.651,6.55 0.094,1.131 -0.378,0.022 0.296,3.39 -3.591,0.32 0.46,-2.885 -0.154,-1.685 1.47,-0.14 1.803,-0.153 m 0,0 1.833,-0.145 0.88,1.636 0.134,1.7 -1.094,0.095 0.203,2.262 -1.844,0.122 -0.1,-1.127 -0.296,-3.39 0.378,-0.022 -0.094,-1.131 m 2.713,1.491 2.492,-0.202 0.713,1.527 -0.284,2.408 -3.678,0.324 -0.203,-2.262 1.094,-0.095 -0.134,-1.7 m 3.205,1.325 2.465,-0.139 1.009,3.696 0.081,0.748 -3.614,0.343 -0.225,-2.24 0.284,-2.408 m 3.74,-0.296 1.637,-0.204 0.45,3.795 -2.353,0.262 -1.009,-3.696 1.275,-0.157 m 5.575,-0.699 0.288,2.835 -1.022,0.929 -2.754,0.526 -0.45,-3.795 1.311,-0.175 2.627,-0.32 m 0.397,-1.388 3.263,-0.37 0.28,2.388 -1.307,1.1 -2.345,1.105 -0.288,-2.835 0.397,-1.388 m 7.897,-1.804 0.288,2.804 -2.426,0.257 -2.216,0.761 -0.28,-2.388 -0.113,-0.928 2.573,-0.307 2.174,-0.199 m -2.138,3.061 2.426,-0.257 0.297,2.579 -0.459,1.036 -2.39,1.356 0.126,-4.714 m 0,0 -0.126,4.714 -0.003,0.243 -0.645,0.281 -2.394,0.278 -0.355,-3.655 1.307,-1.1 2.216,-0.761 m -3.523,1.861 0.355,3.655 -0.919,0.112 -0.18,0.408 -0.1,0.305 -0.315,0.505 -0.712,0.193 -1.095,0.222 -0.401,-3.366 1.022,-0.929 2.345,-1.105 m -6.121,2.56 2.754,-0.526 0.401,3.366 -0.825,1.045 -3.88,0.024 -0.722,-2.899 -0.081,-0.748 2.353,-0.262 m -5.886,1.353 3.614,-0.343 0.722,2.899 -0.23,1.008 -3.723,0.397 -0.275,-2.825 -0.108,-1.136 m -3.903,-1.916 3.678,-0.324 0.225,2.24 0.108,1.136 -2.195,0.219 -1.929,0.186 -1.415,0.081 -0.316,-3.416 1.844,-0.122 m -1.944,-1.005 0.1,1.127 0.316,3.416 -2.908,0.339 0.059,-0.081 0.072,-0.204 0.027,-0.411 -0.716,-1.279 -0.469,-0.551 -0.203,-0.693 0.131,-1.343 3.591,-0.32 m 0.416,4.543 1.415,-0.081 -0.288,0.23 -0.843,1.171 -0.176,0.348 -0.135,1.058 0.45,1.975 -0.117,0.185 -0.131,0.131 -0.172,0.153 -0.129,0.035 -0.546,-0.368 -0.067,-0.019 -0.663,0.104 -0.365,0.131 -2.637,1.779 0.717,-2.064 0.194,-0.528 0.789,-1.009 0.08,-0.067 0.099,-0.181 0.141,-0.82 0.004,-0.315 -0.384,-0.825 -0.022,-0.036 -0.041,-0.005 -0.081,-0.643 2.908,-0.339 m 1.415,-0.081 1.929,-0.186 0.297,5.194 -1.491,0.008 -1.727,-0.234 -0.45,-1.975 0.135,-1.058 0.176,-0.348 0.843,-1.171 0.288,-0.23 m 1.929,-0.186 2.195,-0.219 0.275,2.825 0.211,2.073 -2.384,0.515 -0.297,-5.194 m 6.193,2.209 0.351,3.431 0.036,0.374 -1.433,0.112 -2.29,0.251 -0.176,-1.698 -0.211,-2.073 3.723,-0.397 m 0.23,-1.008 3.88,-0.024 0.644,2.196 0.023,0.179 -0.144,0.393 -0.167,0.213 -0.622,0.084 -0.437,0.221 0.081,0.911 -0.379,0.044 -2.222,0.171 -0.536,0.051 -0.351,-3.431 0.23,-1.008 m 5.8,-1.291 0.081,0.708 0.222,0.284 0.323,0.343 0.298,0.163 0.387,0.144 0.113,0.938 -2.7,0.883 -0.644,-2.196 0.825,-1.045 1.095,-0.222 m 2.226,-1.523 2.394,-0.278 0.347,2.866 -1.393,-0.483 -0.698,2.095 -1.452,-0.097 -0.113,-0.938 -0.387,-0.144 -0.298,-0.163 -0.323,-0.343 -0.222,-0.284 -0.081,-0.708 0.712,-0.193 0.315,-0.505 0.1,-0.305 0.18,-0.408 0.919,-0.112 m 3.039,-0.559 3.388,-0.013 0.136,0.563 -2.182,1.475 -1.64,1.122 -0.347,-2.866 0.645,-0.281 m 0.003,-0.243 2.39,-1.356 0.995,1.586 -3.388,0.013 0.003,-0.243 m -3.844,4.905 1.452,0.097 0.031,0.813 -1.839,2.082 -1.401,1.352 0.221,-0.829 -0.55,-0.649 -1.582,0.179 -0.288,-0.067 -0.01,-0.094 -0.081,-0.911 0.437,-0.221 0.622,-0.084 0.167,-0.213 0.144,-0.393 -0.023,-0.179 2.7,-0.883 m -3.966,2.884 0.01,0.094 0.288,0.067 1.582,-0.179 0.55,0.649 -0.221,0.829 -0.938,1.546 -0.013,-0.099 -0.645,-0.907 -0.207,-0.171 -0.41,-0.302 -0.032,0 -0.221,-0.356 -0.122,-1.127 0.379,-0.044 m -0.379,0.044 0.122,1.127 0.221,0.356 0.032,0 0.41,0.302 0.207,0.171 0.645,0.907 0.013,0.099 -0.248,2.267 -0.487,0.166 -0.301,0.099 -1.456,-0.072 -0.072,-0.009 -0.438,-0.172 -0.455,-0.301 -0.049,-0.031 -0.023,-0.036 -0.059,-0.09 -0.072,-0.252 -0.009,-0.023 -0.004,-0.059 -0.004,-0.09 0,-0.023 0.031,-0.364 -0.226,-3.801 2.222,-0.171 m -2.758,0.222 0.536,-0.051 0.226,3.801 -2.033,1.306 0.199,-0.679 -0.163,-1.426 -1.177,-0.662 -1.09,0.153 -0.185,-1.705 2.29,-0.251 1.433,-0.112 -0.036,-0.374 m -3.863,-0.961 0.176,1.698 0.185,1.705 0.028,0.194 -1.136,0.095 0.062,0.568 -2.262,0.239 -0.59,-0.325 -0.338,-3.651 1.491,-0.008 2.384,-0.515 m -5.602,0.289 1.727,0.234 0.338,3.651 -2.457,0.055 -0.154,-1.736 -0.085,-0.036 -0.531,0.09 -0.14,0.05 -0.591,-0.713 -0.22,-0.365 -0.077,-0.878 0.365,-0.131 0.663,-0.104 0.067,0.019 0.546,0.368 0.129,-0.035 0.172,-0.153 0.131,-0.131 0.117,-0.185 m -4.827,2.131 2.637,-1.779 0.077,0.878 0.22,0.365 0.591,0.713 0.14,-0.05 0.531,-0.09 0.085,0.036 0.205,2.308 -1.498,0.144 0.032,0.464 -2.218,0.157 -2.744,-0.567 1.942,-2.579 m -1.942,2.579 2.744,0.567 0.181,3.476 -2.286,0.181 -0.901,1.419 -0.509,-1.141 0.483,-0.018 0.017,-0.003 0.022,-0.015 0.006,-0.009 0.027,-0.055 0.144,-2.987 0.058,-1.352 0.014,-0.063 m 2.744,0.567 2.218,-0.157 0.005,0.568 0.089,1.127 0.235,-0.023 0.099,1.217 -2.465,0.744 -0.181,-3.476 m 3.633,-1.337 2.457,-0.055 0.59,0.325 -0.451,1.216 -1.708,2.579 -0.017,0.049 0.049,0.622 -0.361,-0.252 -1.546,-0.415 -0.099,-1.217 -0.235,0.023 -0.089,-1.127 -0.005,-0.568 -0.032,-0.464 1.498,-0.144 -0.051,-0.572 m 5.309,0.031 0.033,2.7 -1.569,1.04 -0.627,0.587 -0.753,1.36 -1.473,-0.982 -0.049,-0.622 0.017,-0.049 1.708,-2.579 0.451,-1.216 2.262,-0.239 m 1.046,-0.857 1.09,-0.153 1.177,0.662 0.163,1.426 -0.199,0.679 -0.059,0.008 -0.207,0.038 -0.054,0.031 -0.041,0.058 -0.017,0.141 0.076,0.77 -0.658,1.5 -0.28,0.217 -0.134,0.045 -0.077,-0.005 -1.793,-1.86 -0.033,-2.7 -0.062,-0.568 1.136,-0.095 -0.028,-0.194" />
</svg>
