<?xml version="1.0" encoding="UTF-8" standalone="no"?>
<!-- Created with Inkscape (http://www.inkscape.org/) -->

<svg
   xmlns:dc="http://purl.org/dc/elements/1.1/"
   xmlns:cc="http://creativecommons.org/ns#"
   xmlns:rdf="http://www.w3.org/1999/02/22-rdf-syntax-ns#"
   xmlns:svg="http://www.w3.org/2000/svg"
   xmlns="http://www.w3.org/2000/svg"
   xmlns:sodipodi="http://sodipodi.sourceforge.net/DTD/sodipodi-0.dtd"
   xmlns:inkscape="http://www.inkscape.org/namespaces/inkscape"
   version="1.0"
   width="555.22198"
   height="351.66797"
   id="svg2"
   inkscape:version="0.48.1 r9760"
   sodipodi:docname="iowa.svg">
  <metadata
     id="metadata107">
    <rdf:RDF>
      <cc:Work
         rdf:about="">
        <dc:format>image/svg+xml</dc:format>
        <dc:type
           rdf:resource="http://purl.org/dc/dcmitype/StillImage" />
      </cc:Work>
    </rdf:RDF>
  </metadata>
  <defs
     id="defs105" />
  <sodipodi:namedview
     pagecolor="#ffffff"
     bordercolor="#666666"
     borderopacity="1"
     objecttolerance="10"
     gridtolerance="10"
     guidetolerance="10"
     inkscape:pageopacity="0"
     inkscape:pageshadow="2"
     inkscape:window-width="640"
     inkscape:window-height="480"
     id="namedview103"
     showgrid="false"
     inkscape:zoom="0.83029853"
     inkscape:cx="277.61099"
     inkscape:cy="175.83398"
     inkscape:window-x="0"
     inkscape:window-y="25"
     inkscape:window-maximized="0"
     inkscape:current-layer="svg2" />
  <path
     id="19197"
     style="font-size:12px;fill:#0000ff;fill-rule:nonzero;stroke:#000000;stroke-opacity:1;stroke-width:0.1;stroke-miterlimit:4;stroke-dasharray:none;stroke-linecap:butt;marker-start:none;stroke-linejoin:bevel"
     d="m 312.59598,111.168 4.454,-0.117 0.112,4.548 -4.47,0.099 -0.023,-1.123 -0.073,-3.407 m 8.677,-7.902 0.103,3.161 -4.434,0.13 -0.081,-3.16 4.182,-0.121 0.23,-0.01 m -26.457,12.598 1.123,-0.008 0.004,0.938 0.37,0.183 0.31,0 0,3.416 -6.522,-0.048 0.118,-0.798 -0.289,-0.541 -0.112,-1.484 0.067,-0.179 -0.004,-0.199 -0.04,-0.149 -0.1,-0.139 -0.126,-0.049 -0.324,-0.023 -0.339,-0.934 5.864,0.014 m 39.645,-13.12 0.094,2.051 0.068,-0.005 0.145,3.371 -4.473,0.182 -0.062,-1.687 -0.149,-3.723 3.264,-0.139 1.113,-0.05 m -17.6,0.653 0.081,3.16 -4.431,0.108 -0.072,-3.164 3.006,-0.068 1.416,-0.036 m -4.192,11.178 0.045,2.236 0.379,-0.004 0.076,3.393 -2.217,0.051 -2.213,0.049 -0.059,-3.426 -0.432,0.004 -0.014,-1.109 -0.023,-1.113 4.458,-0.081 m 8.95,22.437 0.131,4.084 -2.695,0.125 -1.78,0.049 -0.104,-4.128 4.448,-0.13 m 11.935,-8.412 2.966,-0.129 0.158,0.225 0.248,0.888 0.14,3.393 -2.218,0.1 -2.218,0.085 -0.193,-4.502 1.117,-0.06 m -14.387,0.777 0.126,4.294 -2.216,0.054 -2.236,0.046 -0.117,-4.544 4.443,0.15 m 8.984,3.989 2.222,-0.096 0.144,3.412 -4.457,0.176 -0.132,-3.402 2.223,-0.09 m 2.366,3.316 4.462,-0.207 0.046,1.136 0.147,2.784 -2.208,0.006 -2.299,0.162 -0.148,-3.881 m -20.043,-2.758 2.195,-0.036 0.067,3.372 -4.421,0.049 -0.054,-3.353 2.213,-0.032 m -2.159,3.385 0.063,4.268 -1.563,0.019 -2.755,-0.014 -0.009,-1.979 -0.148,0 -0.028,-2.25 4.44,-0.044 m 20.336,-18.712 0.225,5.636 -4.472,0.168 -0.20642,-5.63034 4.45342,-0.17366 m -8.825,1.45 0.13,4.489 -1.108,0.026 -3.348,0.082 -0.113,-4.485 2.239,-0.055 2.2,-0.057 m -31.762,-13.26 6.72,0.05 0.032,4.512 -6.251,-0.01 0.653,-2.254 0.149,-0.397 0.027,-0.089 -0.361,-1.298 -0.089,-0.042 -0.672,-0.003 -0.208,-0.469 m 9.664,18.114 4.439,-0.027 0.031,3.389 0.501,-0.004 0.014,1.261 -1.1,0.006 -3.299,0.013 -0.005,-1.249 -0.577,0.005 -0.004,-3.394 m 44.58,-0.104 1.072,-0.058 3.21,-0.091 1.306,0.384 -0.149,1.405 -0.5,0.672 -0.572,0.667 -1.821,0.902 -0.776,0.198 -0.329,0.009 -0.139,-0.018 -1.195,-1.811 -0.107,-2.259 m -43.021,-8.96 4.48,-0.023 0.009,1.115 0.55,0 0.027,3.429 -2.213,0.014 -2.213,0.014 -0.014,-3.427 -0.617,0.005 -0.009,-1.127 m 9.028,21.472 4.421,-0.049 0.077,4.196 -2.109,0.066 -2.326,0.055 -0.063,-4.268 m 16.089,-12.908 4.472,-0.168 0.186,4.58 -1.101,0.045 -3.308,0.126 -0.249,-4.583 m -26.09,5.138 3.299,-0.013 0.031,4.492 -2.195,0.018 -4.538,0.01 -0.676,-0.406 -0.144,-2.623 -0.419,-1.478 4.642,0 m 20.534,-4.977 0.311,4.608 0.008,0.207 -4.443,-0.15 -0.032,-1.144 -0.238,-0.564 -0.081,-2.848 1.127,-0.027 3.348,-0.082 m -15.126,-13.277 4.435,-0.04 0.054,3.411 0.023,1.113 -4.467,0.045 -0.045,-4.529 m -8.906,0.064 0,4.515 -5.864,-0.014 -0.342,-0.901 -0.244,-0.392 -0.311,-0.289 -0.247,-0.189 0.378,-1.73 0.379,-1.01 6.251,0.01 m 13.264,-4.598 0.077,4.494 -4.435,0.04 -0.05,-4.476 4.408,-0.058 m -4.205,30.602 0.028,2.25 0.148,0 0.009,1.979 -2.803,-0.018 -1.668,-0.014 -0.009,-0.968 -0.113,-1.452 -0.014,-1.749 4.422,-0.028 m -5.286,-33.676 0.622,0 0.017,3.173 -4.444,-0.013 0.005,-3.137 3.8,-0.023 m -3.805,3.16 4.444,0.013 0.028,4.475 -4.44,0.024 -0.032,-4.512 m 47.631,20.219 1.195,1.811 -0.59,0.005 -1.352,0.369 -0.362,0.131 -0.103,0.067 -0.009,0.005 0,0.004 -0.068,0.096 -0.009,0.025 -0.134,0.551 -0.114,0.442 -2.785,0.108 -0.049,-1.131 -0.09,-2.272 4.47,-0.211 m -40.771,6.962 2.204,-0.012 0.027,3.347 -4.422,0.028 -0.004,-3.345 2.195,-0.018 m 24.284,-0.562 0.132,3.402 -4.441,0.154 -0.116,-3.404 2.213,-0.072 2.212,-0.08 m -29.305,-13.063 0,4.517 -4.466,-0.031 -1.267,-2.353 -0.789,-2.181 6.522,0.048 m 29.049,-17.284 0.121,3.723 -4.399,0.149 -0.121,-3.715 4.399,-0.157 m -26.223,30.927 0.004,3.345 -4.244,0.018 -0.429,-1.884 0.131,-1.469 4.538,-0.01 m 22.568,-14.062 2.221,-0.081 0.166,4.508 -4.448,0.135 -0.13,-4.489 2.191,-0.073 m 1.536,9.051 0.163,4.511 -2.213,0.072 -2.21,0.063 -0.126,-4.294 -0.008,-0.207 4.394,-0.145 m 1.1,-0.041 3.308,-0.126 0.19,4.508 -2.223,0.09 -2.212,0.08 -0.163,-4.511 1.1,-0.041 m -9.929,0.243 0.117,4.544 -2.172,0.117 -2.195,0.036 -0.082,-4.497 4.332,-0.2 m -26.821,-25.554 1.36,0.009 3.736,0.013 1.79,0.005 -0.005,3.137 -6.72,-0.05 -0.161,-3.114 m 31.39,29.998 2.21,-0.063 0.116,3.404 -4.448,0.13 -0.094,-3.417 2.216,-0.054 m 17.633,-4.087 1.109,-0.045 0.049,1.131 2.785,-0.108 0,0.004 -0.275,1.101 0.01,0.107 0.004,0.009 0.653,0.785 0.308,0.153 0.129,-0.018 0.078,0.036 0.082,0.085 0.454,0.744 -0.009,0.311 -4.07,0.189 -1.167,-1.091 -0.14,-3.393 m 0.608,-11.362 0.195,4.525 0.053,1.131 -4.448,0.184 -0.244,-5.669 2.227,-0.064 2.217,-0.107 m -2.509,19.389 3.001,-0.131 2.957,1.366 -0.677,0.794 -0.315,0.008 -0.257,0.019 -0.077,0.004 -0.004,0 -0.51,0.179 -0.014,0.009 -0.058,0.033 -0.244,0.139 -0.086,0.054 -0.03,0.033 -0.036,0.035 -0.036,0.041 -0.41,0.63 -0.015,0.096 0.032,0.108 0.199,0.094 0.162,0.235 0.054,0.157 0.008,0.13 -0.026,1.16 -0.004,0.008 -0.023,0.113 -0.103,0.086 -0.014,0.008 -0.298,0.105 -0.639,-0.046 -0.407,-0.329 -0.982,-1.208 -0.036,-0.09 0.032,-0.262 -0.023,-0.085 -0.771,-0.582 -0.203,-0.127 -0.147,-2.784 m -22.586,-34.11 0.072,3.164 0.085,4.503 -4.439,0.077 -0.077,-4.494 -0.049,-3.178 1.826,-0.031 2.582,-0.041 m 16.623,25.312 3.375,-0.153 0.193,4.502 -2.257,0.108 -2.222,0.096 -0.19,-4.508 1.101,-0.045 m 10.685,-10.695 2.199,-0.109 0.182,3.39 0.058,1.136 -4.457,0.212 -0.195,-4.525 2.213,-0.104 m -1.965,5.76 0.163,3.389 0.09,2.272 -1.109,0.045 -0.248,-0.888 -0.158,-0.225 -2.966,0.129 -0.22,-4.538 4.448,-0.184 m -2.934,9.199 0.131,3.398 -4.462,0.207 -0.144,-3.412 2.257,-0.108 2.218,-0.085 m -14.892,-8.541 4.448,-0.135 0.249,4.583 -1.1,0.041 -4.394,0.145 -0.311,-4.608 1.108,-0.026 m 25.944,-7.869 0.567,0.657 0.027,0.042 0.005,0.049 -0.054,0.365 -0.054,0.121 0,0.082 0.132,0.297 0.007,0.014 0.271,0.338 0.009,0.008 0.163,0.131 0.175,0.113 0.397,0.127 1.667,1.986 -7.084,0.402 -0.182,-3.39 2.21,-0.113 -0.059,-1.135 1.803,-0.094 m -17.024,7.566 4.458,-0.171 0.22,4.538 -1.117,0.06 -3.375,0.153 -0.186,-4.58 m -29.589,-8.396 0.009,1.127 0.617,-0.005 0.014,3.427 -3.304,0.007 0,-3.416 -0.31,0 -0.37,-0.183 -0.004,-0.938 3.348,-0.019 m 8.87,-4.592 4.439,-0.077 0.073,3.407 -4.458,0.081 -0.054,-3.411 m 18.489,-8.172 3.438,-0.14 0.149,3.723 -4.44,0.176 -0.121,-3.723 0.974,-0.036 m 10.42,29.904 1.167,1.091 -0.207,3.412 -3.001,0.131 -0.046,-1.136 -0.131,-3.398 2.218,-0.1 m -39.338,-8.076 0.004,3.394 0.577,-0.005 0.005,1.249 -4.642,0 -1.344,-2.28 -0.171,-2.38 4.466,0.031 1.105,-0.009 m 23.905,-9.42 0.384,4.493 -2.191,0.073 -2.2,0.057 -0.464,-4.505 4.471,-0.118 m -4.691,-8.924 0.108,4.494 -4.454,0.117 -0.085,-4.503 4.431,-0.108 m 0.22,9.042 0.464,4.505 -2.239,0.055 -2.218,0.041 -0.076,-3.393 -0.379,0.004 -0.022,-1.113 4.47,-0.099 m -10.56,9.23 3.33,-0.06 0.064,3.395 0.374,0 0.022,1.263 -4.412,0.063 -0.017,-1.273 -0.425,-0.563 -0.045,-2.807 1.109,-0.018 m 19.511,-9.487 0.307,3.342 -2.21868,0.0875 0.0367,1.12148 -2.221,0.081 -0.384,-4.493 4.48,-0.139 m -17.374,4.958 2.213,-0.049 0.094,4.497 -1.114,0.021 -3.33,0.06 -0.063,-4.498 2.2,-0.031 m -13.53,17.099 4.244,-0.018 0.014,1.749 0.113,1.452 0.009,0.968 -3.813,-0.04 -0.87,-2.579 0.303,-1.532 m 21.841,-26.348 4.457,-0.122 0.126,4.552 -4.471,0.118 -0.112,-4.548 m 4.344,-4.07 4.399,-0.149 0.145,3.958 -4.431,0.139 -0.113,-3.948 m 8.901,1.362 4.473,-0.182 0.242,5.67 -4.483,0.217 -0.141,-3.43 -0.091,-2.275 m -22.264,-4.77 0.049,3.178 -4.408,0.058 -0.049,-3.172 0.568,-0.009 3.84,-0.055 m 31.455,10.016 2.204,-0.492 1.221,0.234 0.473,0.113 0.108,0.053 0.068,0.068 0.6,1.091 0.103,0.325 0.006,0.073 -0.036,0.062 -0.132,0.226 -0.004,0.03 0.009,0.072 0.022,0.065 0.077,0.08 0.22,0.158 0.637,0.329 0.81,0.564 0.004,0.004 0.024,0.023 -1.803,0.094 0.059,1.135 -2.21,0.113 -2.199,0.109 -0.261,-4.529 m -40.275,-9.912 4.412,-0.04 0.049,3.172 -4.444,0.041 -0.017,-3.173 m 43.092,30.202 0.009,0.032 0.036,0.112 0.049,0.348 -0.039,1.05 -0.082,0.383 -0.054,0.081 -0.279,0.158 -0.104,0.102 -0.753,1.074 -0.036,0.167 -0.067,1.46 -2.957,-1.366 0.207,-3.412 4.07,-0.189 m -7.293,-20.048 4.476,-0.242 0.261,4.529 -2.213,0.104 -2.217,0.107 -0.054,-0.996 -0.163,-1.239 -0.063,-1.28 -0.027,-0.983 m -22.274,23.429 4.435,-0.118 0.104,4.128 -2.114,0.087 -2.348,0.099 -0.077,-4.196 m 17.781,-0.578 0.148,3.881 -1.658,0.108 -2.79,0.189 -0.157,-4.002 4.457,-0.176 m -16.144,-12.011 0.081,2.848 0.238,0.564 0.032,1.144 -4.332,0.2 -0.022,-1.263 -0.374,0 -0.064,-3.395 1.114,-0.021 3.327,-0.077 m -12.233,-4.299 0.027,4.502 -4.439,0.027 -1.105,0.009 0,-4.517 3.304,-0.007 2.213,-0.014 m 39.988,1.027 7.084,-0.402 0.104,1.349 -0.744,1.928 -0.676,0.758 -1.306,-0.384 -3.21,0.091 -1.072,0.058 -0.122,-2.262 -0.058,-1.136 m -3.346,-13.413 0.2,1.226 0.211,0.986 0.861,1.912 0.117,0.243 0.761,0.505 0.262,0.121 0.496,0.118 -2.204,0.492 -4.476,0.242 -0.242,-5.67 4.014,-0.175 m -39.554,-1.136 4.444,-0.041 0.05,4.476 -4.466,0.04 -0.028,-4.475 m 17.849,26.875 0.094,3.417 -4.435,0.118 -0.067,-3.372 2.172,-0.117 2.236,-0.046 m 13.156,-27.069 0.062,1.687 0.091,2.275 -4.448,0.172 -0.145,-3.958 4.44,-0.176 m -30.977,4.669 0.031,4.512 -3.348,0.019 -1.123,0.008 0,-4.515 4.44,-0.024 m 17.686,-4.768 4.434,-0.13 0.018,0.554 0.113,3.948 -4.457,0.122 -0.108,-4.494 m 25.244,15.978 0.122,2.262 0.107,2.259 -4.47,0.211 -0.216,-4.52 4.457,-0.212 m -36.206,6.955 0.064,4.493 -2.196,0.023 -2.204,0.012 -0.031,-4.492 1.1,-0.006 3.267,-0.03 m -1.627,-9.132 2.186,-0.027 0.063,4.498 -1.109,0.018 -3.326,0.027 -0.027,-4.502 2.213,-0.014 m -0.586,-4.544 4.467,-0.045 0.014,1.109 0.432,-0.004 0.059,3.426 -2.2,0.031 -2.186,0.027 -0.027,-3.429 -0.55,0 -0.009,-1.115 m 17.74,-4.885 4.431,-0.139 0.122,3.43 0.053,1.122 -4.48,0.139 -0.126,-4.552 m -17.785,0.356 0.045,4.529 -4.48,0.023 -0.031,-4.512 4.466,-0.04 m 31.288,2.546 0.027,0.983 0.063,1.28 0.163,1.239 0.054,0.996 -2.227,0.064 -2.217,0.118 -0.072,-1.916 -0.177,-0.288 -0.097,-2.259 4.483,-0.217 m -9.072,-3.041 4.448,-0.172 0.141,3.43 -4.467,0.172 -0.122,-3.43 m -10.551,9.369 0.113,4.485 -1.127,0.027 -3.327,0.077 -0.094,-4.497 2.217,-0.051 2.218,-0.041 m 15.14,-6.111 0.097,2.259 0.177,0.288 0.072,1.916 -2.222,0.086 -2.231,0.087 -0.307,-3.342 -0.053,-1.122 4.467,-0.172 m 2.563,4.345 0.244,5.669 -4.458,0.171 -0.225,-5.636 2.222,-0.086 2.217,-0.118 m -30.923,6.481 3.326,-0.027 0.045,2.807 0.425,0.563 0.017,1.273 -3.267,0.03 -0.014,-1.261 -0.501,0.004 -0.031,-3.389 m 23.893,11.984 0.157,4.002 -0.744,0.041 -3.723,0.195 -0.131,-4.084 4.441,-0.154 m 12.069,-34.29 0.162,0.996 -0.009,0.663 1.001,0.704 0.217,0.275 0.283,0.455 -0.036,0.161 -0.72,1.213 -0.245,0.951 -4.014,0.175 -0.145,-3.371 -0.068,0.005 -0.094,-2.051 3.668,-0.176 m -29.868,31.388 0.054,3.353 -4.44,0.044 -0.027,-3.347 2.196,-0.023 2.217,-0.027 m 2.131,-4.529 0.082,4.497 -2.213,0.032 -2.217,0.027 -0.064,-4.493 4.412,-0.063" />
</svg>
