<?xml version="1.0" encoding="UTF-8" standalone="no"?>
<!-- Created with Inkscape (http://www.inkscape.org/) -->

<svg
   xmlns:dc="http://purl.org/dc/elements/1.1/"
   xmlns:cc="http://creativecommons.org/ns#"
   xmlns:rdf="http://www.w3.org/1999/02/22-rdf-syntax-ns#"
   xmlns:svg="http://www.w3.org/2000/svg"
   xmlns="http://www.w3.org/2000/svg"
   xmlns:sodipodi="http://sodipodi.sourceforge.net/DTD/sodipodi-0.dtd"
   xmlns:inkscape="http://www.inkscape.org/namespaces/inkscape"
   version="1.0"
   width="555.22198"
   height="351.66797"
   id="svg2"
   inkscape:version="0.48.1 r9760"
   sodipodi:docname="kansas.svg">
  <metadata
     id="metadata54">
    <rdf:RDF>
      <cc:Work
         rdf:about="">
        <dc:format>image/svg+xml</dc:format>
        <dc:type
           rdf:resource="http://purl.org/dc/dcmitype/StillImage" />
      </cc:Work>
    </rdf:RDF>
  </metadata>
  <defs
     id="defs52" />
  <sodipodi:namedview
     pagecolor="#ffffff"
     bordercolor="#666666"
     borderopacity="1"
     objecttolerance="10"
     gridtolerance="10"
     guidetolerance="10"
     inkscape:pageopacity="0"
     inkscape:pageshadow="2"
     inkscape:window-width="640"
     inkscape:window-height="480"
     id="namedview50"
     showgrid="false"
     inkscape:zoom="0.83029853"
     inkscape:cx="277.61099"
     inkscape:cy="175.83398"
     inkscape:window-x="0"
     inkscape:window-y="25"
     inkscape:window-maximized="0"
     inkscape:current-layer="svg2" />
  <path
     id="20131"
     style="font-size:12px;fill:#0000ff;fill-rule:nonzero;stroke:#000000;stroke-opacity:1;stroke-width:0.1;stroke-miterlimit:4;stroke-dasharray:none;stroke-linecap:butt;marker-start:none;stroke-linejoin:bevel"
     d="m 293.38698,149.108 2.186,0 0,4.517 -2.434,1.131 -2.005,-0.004 0.013,-5.648 2.24,0.004 m -4.443,-0.017 2.203,0.013 -0.013,5.648 -3.385,-0.019 -2.218,-0.017 0.059,-5.653 3.354,0.028 m -8.889,-0.1 4.449,0.059 1.086,0.013 -0.059,5.653 -1.505,-0.014 -4.047,-0.055 0.013,-1.131 0.063,-4.525 m -0.135,9.046 0.059,-3.39 4.047,0.055 -0.072,4.498 -0.031,1.145 -4.052,-0.045 0.049,-2.263 m 4.034,1.163 0.072,-4.498 1.505,0.014 2.218,0.017 -1.271,1.379 -0.122,0.203 -0.004,0.519 0.487,0.896 0.491,0.767 0.933,0.864 0.658,0.289 0.712,0.212 -1.123,1.673 0,-0.38 -0.784,-0.009 -2.695,-0.219 0.027,-1.701 -1.104,-0.026 m 9.185,0.099 -0.036,1.172 -0.013,-0.103 -0.279,-0.587 -0.144,-0.184 -0.235,-0.095 -1.185,-0.095 -0.672,0.162 -0.523,0.536 -0.104,-0.026 -0.252,-0.158 -0.063,-0.059 -0.712,-0.212 -0.658,-0.289 -0.933,-0.864 -0.491,-0.767 -0.487,-0.896 0.004,-0.519 0.122,-0.203 1.271,-1.379 3.385,0.019 2.005,0.004 0,4.543 m 4.602,-2.645 -0.176,2.641 -4.426,0.004 0,-4.543 2.434,-1.131 2.218,-0.01 -0.05,3.039 m 4.616,-1.515 1.338,1.472 -2.086,0.02 -3.868,0.023 0.05,-3.039 2.213,-0.013 2.744,0.361 -0.391,1.176 m -4.616,1.515 3.868,-0.023 0.017,2.47 -0.067,1.307 0.018,1.1 -1.38,0.162 -0.143,0.009 -0.176,-0.045 -0.316,-0.19 -0.126,-0.144 -0.199,-0.085 -0.139,-0.024 -0.202,0.024 -0.434,0.157 -0.897,-2.077 0.176,-2.641 m 3.868,-0.023 2.086,-0.02 1.776,2.814 -1.064,0 -0.068,0.956 0.014,1.789 -1.465,0.131 -1.311,-0.793 -0.018,-1.1 0.067,-1.307 -0.017,-2.47 m 5.769,3.303 -0.046,0.605 0.014,0.901 -1.528,0.023 -0.852,-0.217 -0.153,0.005 -0.131,0.045 -0.063,0.054 -0.266,0.82 -0.014,-1.789 0.068,-0.956 1.064,0 1.907,0.509 m -3.025,2.236 0.266,-0.82 0.063,-0.054 0.131,-0.045 0.153,-0.005 0.852,0.217 1.528,-0.023 0.032,2.56 0.004,1.415 -4.467,0.05 -0.027,-3.164 1.465,-0.131 m -2.776,-0.662 1.311,0.793 0.027,3.164 -4.439,0.036 -0.005,-1.708 -0.009,-2.421 0.434,-0.157 0.202,-0.024 0.139,0.024 0.199,0.085 0.126,0.144 0.316,0.19 0.176,0.045 0.143,-0.009 1.38,-0.162 m -8.438,-2.209 4.426,-0.004 0.897,2.077 0.009,2.421 -4.443,0.014 -0.925,-3.336 0.036,-1.172 m -0.036,1.172 0.925,3.336 0.004,1.703 -4.061,-0.014 -1.479,-1.703 0.018,-2.258 1.123,-1.673 0.063,0.059 0.252,0.158 0.104,0.026 0.523,-0.536 0.672,-0.162 1.185,0.095 0.235,0.095 0.144,0.184 0.279,0.587 0.013,0.103 m -9.18,-0.126 0.031,-1.145 1.104,0.026 -0.027,1.701 2.695,0.219 0.784,0.009 0,0.38 -0.018,2.258 -3.875,-0.031 -0.694,-3.417 m 0,0 0.694,3.417 -0.433,3.384 -4.417,-0.054 0.068,-4.53 0.036,-2.262 4.052,0.045 m 0.261,6.801 1.099,1.14 -0.018,2.264 -0.184,-0.006 -0.045,1.285 -0.018,2.136 -3.147,-0.058 -2.185,-1.149 0.081,-5.666 4.417,0.054 m 4.308,-3.353 1.479,1.703 -0.023,2.83 -4.665,-0.04 -1.099,-1.14 0.433,-3.384 3.875,0.031 m -3.209,4.493 4.665,0.04 -0.049,4.535 -1.672,1.117 -3.209,-0.013 0.018,-2.136 0.045,-1.285 0.184,0.006 0.018,-2.264 m 4.688,-2.79 4.061,0.014 -0.041,3.958 -0.085,3.421 -4.007,-0.028 0.049,-4.535 0.023,-2.83 m 8.5,-1.703 0.005,1.708 -0.05,3.952 -4.435,0.015 0.041,-3.958 -0.004,-1.703 4.443,-0.014 m 0.005,1.708 4.439,-0.036 -0.044,4.534 -4.445,0.027 0,-0.573 0.05,-3.952 m 8.906,-0.086 0.014,3.39 0.013,1.154 -4.538,0.04 0.044,-4.534 4.467,-0.05 m 0.027,4.544 0.054,4.271 0.005,0.303 -4.675,0.045 0,-1.136 0.1,-1.74 -0.022,-1.703 4.538,-0.04 m -8.983,0.067 4.445,-0.027 0.022,1.703 -0.1,1.74 0,1.136 -4.452,0.027 0.009,-2.876 0.095,0 -0.019,-1.703 m 0,-0.573 0,0.573 0.019,1.703 -0.095,0 -0.009,2.876 -4.44,-0.013 0.005,-1.703 0.085,-3.421 4.435,-0.015 m 4.367,5.125 4.675,-0.045 0.031,4.728 -4.763,0.04 -0.01,-0.751 0.067,-3.972 m 4.706,4.683 0.063,4.015 0.004,0.338 -4.66,0.036 -0.135,-0.572 -0.035,-3.777 4.763,-0.04 m -4.593,4.389 4.66,-0.036 0.059,4.422 -3.984,0.032 -0.672,0.004 -0.063,-4.422 m -0.113,-9.072 -0.067,3.972 -4.431,0.026 0.046,-3.971 4.452,-0.027 m -0.067,3.972 0.01,0.751 0.035,3.777 -4.407,0.032 -0.046,0 -0.023,-4.534 4.431,-0.026 m -4.362,4.56 4.407,-0.032 0.135,0.572 0.063,4.422 -3.42,0.032 -1.173,0.004 -0.003,-0.815 0.031,-2.659 -0.04,-1.524 m -4.463,-8.518 4.44,0.013 -0.046,3.971 -4.408,-0.009 0.014,-3.975 m -0.014,3.975 4.408,0.009 0.023,4.534 -4.431,-0.023 0,-4.52 m 0,4.52 4.431,0.023 0.046,0 0.04,1.524 -0.031,2.659 0.003,0.815 -2.704,0.014 -1.812,0.005 -0.003,-3.903 0.03,-1.137 m 0.019,-10.198 -0.005,1.703 -0.014,3.975 0,1.698 -5.723,-0.058 0.063,-6.229 1.672,-1.117 4.007,0.028 m -0.019,7.376 0,2.822 -0.03,1.137 -5.707,-0.059 0,-2.258 0.014,-1.7 5.723,0.058 m -5.737,3.9 5.707,0.059 0.003,3.903 -0.373,0 -5.369,-0.019 0.032,-3.943 m -3.132,-10.2 3.209,0.013 -0.063,6.229 -0.014,1.7 -6.373,-0.045 0.077,-5.684 0.017,-2.271 3.147,0.058 m -3.241,7.897 6.373,0.045 0,2.258 -0.032,3.943 -2.294,-0.013 -4.065,-0.04 0.018,-6.193 m -6.648,-0.087 6.648,0.087 -0.018,6.193 -3.218,-0.04 -3.475,-0.06 0.045,-5.038 0.018,-1.142 m 1.172,-5.682 5.553,0.085 -0.077,5.684 -6.648,-0.087 0.059,-3.376 1.113,-2.306 m 3.385,-3.335 2.185,1.149 -0.017,2.271 -5.553,-0.085 0.063,-3.39 3.322,0.055 m 15.887,-23.65 4.399,-0.017 0.032,4.511 -2.213,0.013 -2.218,0.01 0,-4.517 m 4.399,-0.017 0.311,0 0.005,0.121 0.063,0.091 1.19,1.077 0.482,0.31 0.243,0.09 0.189,0.072 0.036,0.013 0.045,-0.004 0.375,-0.036 0.073,-0.027 0.058,-0.054 0.008,-0.009 0.338,-0.383 0.825,1.037 0.081,0.383 0.077,0.356 -0.207,0.461 -0.208,0.036 -0.712,0.63 -0.04,0.046 -0.339,0.495 -0.117,0.167 -2.744,-0.361 -0.032,-4.511" />
</svg>
