<?xml version="1.0" encoding="UTF-8" standalone="no"?>
<!-- Created with Inkscape (http://www.inkscape.org/) -->

<svg
   xmlns:dc="http://purl.org/dc/elements/1.1/"
   xmlns:cc="http://creativecommons.org/ns#"
   xmlns:rdf="http://www.w3.org/1999/02/22-rdf-syntax-ns#"
   xmlns:svg="http://www.w3.org/2000/svg"
   xmlns="http://www.w3.org/2000/svg"
   xmlns:sodipodi="http://sodipodi.sourceforge.net/DTD/sodipodi-0.dtd"
   xmlns:inkscape="http://www.inkscape.org/namespaces/inkscape"
   version="1.0"
   width="555.22198"
   height="351.66797"
   id="svg2"
   inkscape:version="0.48.1 r9760"
   sodipodi:docname="kentucky.svg">
  <metadata
     id="metadata58">
    <rdf:RDF>
      <cc:Work
         rdf:about="">
        <dc:format>image/svg+xml</dc:format>
        <dc:type
           rdf:resource="http://purl.org/dc/dcmitype/StillImage" />
      </cc:Work>
    </rdf:RDF>
  </metadata>
  <defs
     id="defs56" />
  <sodipodi:namedview
     pagecolor="#ffffff"
     bordercolor="#666666"
     borderopacity="1"
     objecttolerance="10"
     gridtolerance="10"
     guidetolerance="10"
     inkscape:pageopacity="0"
     inkscape:pageshadow="2"
     inkscape:window-width="640"
     inkscape:window-height="480"
     id="namedview54"
     showgrid="false"
     inkscape:zoom="0.83029853"
     inkscape:cx="277.61099"
     inkscape:cy="175.83398"
     inkscape:window-x="0"
     inkscape:window-y="25"
     inkscape:window-maximized="0"
     inkscape:current-layer="svg2" />
  <path
     id="21007"
     style="font-size:12px;fill:#0000ff;fill-rule:nonzero;stroke:#000000;stroke-opacity:1;stroke-width:0.1;stroke-miterlimit:4;stroke-dasharray:none;stroke-linecap:butt;marker-start:none;stroke-linejoin:bevel"
     d="m 365.46898,182.511 1.465,3.421 -2.898,0.347 -0.365,-0.47 -0.481,-1.081 2.279,-2.217 m 1.501,3.52 0.167,2.243 -3.187,0.078 -0.59,-0.311 -0.005,-0.005 0,-0.297 0.005,-0.005 0.284,-0.162 0.006,-0.004 0.386,-1.289 2.898,-0.347 0.036,0.099 m -1.446,-3.538 3.872,1.646 0.865,0.643 0.062,1.041 -3.353,0.208 -0.036,-0.099 -1.465,-3.421 0.055,-0.018 m 4.799,3.33 0.185,2.487 0.221,3.232 -0.279,0.018 -3.079,0.222 -0.234,-3.508 -0.167,-2.243 3.353,-0.208 m -0.062,-1.041 2.516,0.329 0.968,1.415 0.603,1.519 -3.84,0.265 -0.185,-2.487 -0.062,-1.041 m 0.247,3.528 3.84,-0.265 0.486,0.856 0.37,2.33 -4.475,0.311 -0.221,-3.232 m 0.618,-8.581 1.951,3.205 -0.3,2.177 -2.516,-0.329 -0.865,-0.643 0.743,0.079 0.076,-0.013 0.235,-0.104 0.121,-0.334 0.149,-0.716 -0.288,-0.64 -0.126,-0.121 -0.136,-0.077 -0.428,-0.514 -0.087,-0.279 0.006,-0.086 0,-0.005 0.289,-1.27 0.053,-0.127 0.131,-0.17 0.091,-0.064 0.072,-0.055 0.175,-0.08 0.063,-0.027 0.591,0.193 m 4.233,-1.33 1.446,1.191 -2.777,2.84 -0.951,0.504 -1.951,-3.205 0.256,-0.341 0.172,-0.159 0.009,-0.004 0.049,-0.032 0.244,-0.148 0.022,-0.004 0.064,-0.019 0.175,-0.049 0.212,-0.045 1.407,-0.298 0.103,-0.023 0.193,-0.22 0,-0.208 1.327,0.22 m -1.313,-4.055 0.901,-1.419 2.241,3.249 -1.829,2.225 -1.327,-0.22 -0.805,-0.834 -0.082,-0.148 -0.216,-0.586 -0.006,-0.014 -0.053,-0.292 -0.005,-0.014 0.014,-0.09 0.054,-0.144 0.013,-0.028 0.082,-0.139 0.163,-0.307 0.008,-0.005 0.469,-0.341 0.122,-0.132 0.076,-0.139 0.049,-0.131 0.131,-0.491 m 5.652,-2.344 1.546,0.415 -0.815,2.885 -0.839,0.54 -2.402,0.334 -2.241,-3.249 2.286,-0.181 2.465,-0.744 m -0.108,3.84 1.308,0.892 -1.136,1.182 -1.249,0.653 -1.799,1.403 0.091,-0.38 -1.446,-1.191 1.829,-2.225 2.402,-0.334 m -2.876,4.13 1.574,2.486 -0.371,1.957 -1.414,0.672 -1.123,-1.312 -0.797,-1.325 -0.555,-0.018 2.777,-2.84 -0.091,0.38 m -3.637,2.964 0.951,-0.504 0.555,0.018 0.797,1.325 1.123,1.312 -2.758,1.441 -0.968,-1.415 0.3,-2.177 m 4.84,1.479 0.794,0.396 0.071,3.191 -0.048,1.104 -1.627,0.19 0.004,-0.397 -1.676,-0.032 -0.601,0.036 -0.486,-0.856 -0.603,-1.519 2.758,-1.441 1.414,-0.672 m 3.891,-2.366 0.85,1.031 -0.264,5.639 -3.119,0.325 -0.541,0.062 0.048,-1.104 -0.071,-3.191 -0.794,-0.396 0.371,-1.957 1.666,0.429 1.164,-0.451 0.69,-0.387 m -0.91,-5.315 1.013,2.241 -0.735,1.154 0.122,0.721 0.676,0.834 -0.166,0.365 -0.69,0.387 -1.164,0.451 -1.666,-0.429 -1.574,-2.486 1.799,-1.403 1.249,-0.653 1.136,-1.182 m -0.469,-1.432 3.88,1.239 -0.442,1.932 -1.956,0.502 -1.013,-2.241 -1.308,-0.892 0.839,-0.54 m 0.815,-2.885 0.361,0.252 1.473,0.982 0.753,-1.36 0.627,-0.587 -0.042,0.41 0.789,-0.013 0.618,0.64 0.432,0.6 0.006,0.703 -0.401,0.414 -0.56,1.154 -0.991,0.929 -3.88,-1.239 0.815,-2.885 m 5.017,1.627 1.96,0.803 0.586,1.207 0.022,2.209 -1.279,1.23 -0.649,0.288 -0.753,1.137 -2.281,-2.445 0.442,-1.932 0.991,-0.929 0.56,-1.154 0.401,-0.414 m -2.394,4.429 2.281,2.445 -0.248,1.892 -1.127,0.211 -2.115,0.059 -0.85,-1.031 0.166,-0.365 -0.676,-0.834 -0.122,-0.721 0.735,-1.154 1.956,-0.502 m -1.209,4.607 2.115,-0.059 0.432,5.413 -0.554,0.064 -2.257,0.221 0.264,-5.639 m 3.242,-0.27 2.803,0.635 0.789,1.447 -1.254,3.178 -3.033,0.364 -0.432,-5.413 1.127,-0.211 m 2.929,-4.547 1.546,0.819 0.902,1.881 -0.685,0.188 -1.537,0.045 -0.352,2.249 -2.803,-0.635 0.248,-1.892 0.753,-1.137 0.649,-0.288 1.279,-1.23 m 2.448,2.7 3.046,1.107 -0.37,1.699 -0.323,0.06 -0.587,0.68 -0.306,0.487 -1.009,1.063 0.012,-0.405 -1.892,-0.108 -0.356,-0.654 -0.789,-1.447 0.352,-2.249 1.537,-0.045 0.685,-0.188 m -0.902,-1.881 3.133,-0.513 1.253,2.069 -0.438,1.432 -3.046,-1.107 -0.902,-1.881 m -1.568,-3.028 0.302,-0.459 0.216,-0.248 0.231,-0.126 0.044,-0.005 0.275,0.131 0.121,0.125 0.01,0.05 1.009,0.383 0.844,-0.464 0.112,-0.082 1.045,0.398 0.275,-0.109 0.176,-0.098 0.194,0.017 0.645,0.771 0.162,0.636 -0.96,1.595 -3.133,0.513 -1.546,-0.819 -0.022,-2.209 m -0.987,-3.53 0.077,0.005 0.134,-0.045 0.28,-0.217 0.658,-1.5 -0.076,-0.77 0.017,-0.141 0.041,-0.058 0.054,-0.031 0.207,-0.038 3.737,2.845 -0.978,2.785 -0.112,0.082 -0.844,0.464 -1.009,-0.383 -0.01,-0.05 -0.121,-0.125 -0.275,-0.131 -0.044,0.005 -0.231,0.126 -0.216,0.248 -0.302,0.459 -0.586,-1.207 0.172,0.066 -0.736,-1.726 0.063,-0.567 0.1,-0.096 m -3.362,-0.82 1.569,-1.04 1.793,1.86 -0.1,0.096 -0.063,0.567 0.736,1.726 -0.172,-0.066 -1.96,-0.803 -0.006,-0.703 -0.432,-0.6 -0.618,-0.64 -0.789,0.013 0.042,-0.41 m 4.813,-1.983 2.033,-1.306 -0.031,0.364 0,0.023 0.004,0.09 0.004,0.059 0.009,0.023 0.072,0.252 0.059,0.09 0.023,0.036 0.049,0.031 0.455,0.301 0.438,0.172 0.072,0.009 1.456,0.072 0.301,-0.099 0.393,1.552 -0.235,0.779 -1.424,0.405 -3.737,-2.845 0.059,-0.008 m 5.431,-0.049 0.117,0.095 2.272,2.195 0.69,0.969 -0.605,1.167 -0.423,0.532 -0.681,0.937 -0.031,1.369 -1.573,0.038 -0.162,-0.636 -0.645,-0.771 -0.194,-0.017 -0.176,0.098 -0.275,0.109 -1.045,-0.398 0.978,-2.785 1.424,-0.405 0.235,-0.779 -0.393,-1.552 0.487,-0.166 m 1.339,7.264 2.411,-0.026 0.04,3.137 -0.567,0.217 -3.164,0.374 -1.253,-2.069 0.96,-1.595 1.573,-0.038 m 1.884,3.328 -0.288,0.45 0.094,0.361 0.185,0.523 0.176,0.789 0.342,2.118 -2.258,1.794 -2.223,-2.53 0.37,-1.699 0.438,-1.432 3.164,-0.374 m -3.972,3.505 2.223,2.53 0.135,1.217 -2.348,0.099 -2.127,0.076 -0.108,-1.632 1.009,-1.063 0.306,-0.487 0.587,-0.68 0.323,-0.06 m -4.461,1.123 0.356,0.654 1.892,0.108 -0.012,0.405 0.108,1.632 -1.542,0.379 -2.056,0 1.254,-3.178 m 8.942,-0.387 1.492,0.144 1.915,2.403 -3.601,0.346 -1.929,0.118 -0.135,-1.217 2.258,-1.794 m 0.058,-4.458 1.727,0.762 1.005,2.123 -1.298,1.717 -1.492,-0.144 -0.342,-2.118 -0.176,-0.789 -0.185,-0.523 -0.094,-0.361 0.288,-0.45 0.567,-0.217 m -0.04,-3.137 0.676,-0.698 0.005,0.369 0.031,0.113 1.182,0.776 0.571,0.724 0.946,1.344 -1.644,1.271 -1.727,-0.762 -0.04,-3.137 m -0.671,-3.979 0.144,0.027 0.703,0.307 0.094,0.066 0.23,0.906 -0.212,0.243 -0.018,0.199 -0.018,0.401 0.028,0.244 0.514,0.18 0.039,-0.028 0.348,-0.423 0.689,1.088 -1.194,0.071 -0.676,0.698 -2.411,0.026 0.031,-1.369 0.681,-0.937 0.423,-0.532 0.605,-1.167 m 4.804,-3.669 0.261,0.937 -2.258,2.439 -0.955,2.415 -0.348,0.423 -0.039,0.028 -0.514,-0.18 -0.028,-0.244 0.018,-0.401 0.018,-0.199 0.212,-0.243 -0.23,-0.906 -0.094,-0.066 -0.703,-0.307 -0.144,-0.027 -0.69,-0.969 0.171,0.01 0.437,-0.172 0.321,-0.231 0.576,-0.703 0.014,-0.027 -0.095,-0.085 0.82,-1.38 3.25,-0.112 m -2.83,-1.6 -0.42,1.712 -0.82,1.38 0.095,0.085 -0.014,0.027 -0.576,0.703 -0.321,0.231 -0.437,0.172 -0.171,-0.01 -2.272,-2.195 0.297,-0.421 0.302,-0.224 1.543,-0.744 1.576,0 1.218,-0.716 m -2.466,-3.155 1.839,1.042 0.636,1.729 -0.009,0.384 -1.218,0.716 -1.576,0 -1.543,0.744 -0.302,0.224 -0.297,0.421 -0.117,-0.095 0.248,-2.267 0.938,-1.546 1.401,-1.352 m 3.07,-1.809 0.504,1.705 -0.342,0.667 -0.266,0.117 -0.374,-0.027 -0.379,0.113 -0.171,0.068 -0.091,0.061 -0.112,0.147 -1.839,-1.042 1.839,-2.082 1.231,0.273 m -0.564,-3.181 1.88,1.812 -1.316,1.369 -1.231,-0.273 -0.031,-0.813 0.698,-2.095 m 1.393,0.483 1.64,-1.122 1.055,1.199 -1.293,1 -0.915,0.252 -1.88,-1.812 1.393,0.483 m 0.487,1.329 0.915,-0.252 2.393,2.866 -1.24,0.42 -2.88,0.04 -0.504,-1.705 1.316,-1.369 m -0.812,3.074 2.88,-0.04 0.049,2.699 -0.643,1.285 -3.385,-1.069 -0.636,-1.729 0.112,-0.147 0.091,-0.061 0.171,-0.068 0.379,-0.113 0.374,0.027 0.266,-0.117 0.342,-0.667 m -1.099,2.875 3.385,1.069 -0.564,0.915 -3.25,0.112 0.42,-1.712 0.009,-0.384 m 3.714,15.573 -0.398,0.4 0.384,0.488 0.067,0.04 0.085,0.018 0.137,-0.054 -0.487,3.051 -1.425,0.258 -1.915,-2.403 1.298,-1.717 2.254,-0.081 m -39.924,7.291 2.429,0.587 0.42,0.158 0.779,0.91 -5.251,0.379 -0.726,0.103 0.798,-1.789 1.551,-0.348 m -3.602,2.236 -0.229,-0.328 -0.014,-0.014 -0.112,-0.239 -0.004,-0.009 -0.01,-0.054 -0.01,-0.041 0.01,-0.045 0.014,-0.059 0.013,-0.049 0.017,-0.023 0.118,-0.158 0.064,-0.04 0.189,-0.026 0.288,0.045 0.158,0.045 0.027,0.018 0.022,0.018 0.014,0.009 0.066,0.103 0.006,0.013 0.063,0.149 0.032,0.14 0,0.005 0.004,0.022 0,0.055 -0.009,0.035 -0.032,0.127 -0.013,0.049 -0.016,0.032 -0.101,0.19 -0.555,0.03 m 3.998,-4.024 3.187,-0.078 0.234,3.508 -0.112,0.009 -0.077,0.004 -0.779,-0.91 -0.42,-0.158 -2.429,-0.587 0.396,-1.788" />
</svg>
