<?xml version="1.0" encoding="UTF-8" standalone="no"?>
<!-- Created with Inkscape (http://www.inkscape.org/) -->

<svg
   xmlns:dc="http://purl.org/dc/elements/1.1/"
   xmlns:cc="http://creativecommons.org/ns#"
   xmlns:rdf="http://www.w3.org/1999/02/22-rdf-syntax-ns#"
   xmlns:svg="http://www.w3.org/2000/svg"
   xmlns="http://www.w3.org/2000/svg"
   xmlns:sodipodi="http://sodipodi.sourceforge.net/DTD/sodipodi-0.dtd"
   xmlns:inkscape="http://www.inkscape.org/namespaces/inkscape"
   version="1.0"
   width="555.22198"
   height="351.66797"
   id="svg2"
   inkscape:version="0.48.1 r9760"
   sodipodi:docname="lexington.svg">
  <metadata
     id="metadata78">
    <rdf:RDF>
      <cc:Work
         rdf:about="">
        <dc:format>image/svg+xml</dc:format>
        <dc:type
           rdf:resource="http://purl.org/dc/dcmitype/StillImage" />
      </cc:Work>
    </rdf:RDF>
  </metadata>
  <defs
     id="defs76" />
  <sodipodi:namedview
     pagecolor="#ffffff"
     bordercolor="#666666"
     borderopacity="1"
     objecttolerance="10"
     gridtolerance="10"
     guidetolerance="10"
     inkscape:pageopacity="0"
     inkscape:pageshadow="2"
     inkscape:window-width="640"
     inkscape:window-height="480"
     id="namedview74"
     showgrid="false"
     inkscape:zoom="0.83029853"
     inkscape:cx="277.61099"
     inkscape:cy="175.83398"
     inkscape:window-x="0"
     inkscape:window-y="25"
     inkscape:window-maximized="0"
     inkscape:current-layer="svg2" />
  <path
     id="21077"
     style="font-size:12px;fill:#0000ff;fill-rule:nonzero;stroke:#000000;stroke-opacity:1;stroke-width:0.1;stroke-miterlimit:4;stroke-dasharray:none;stroke-linecap:butt;marker-start:none;stroke-linejoin:bevel"
     d="m 405.00998,157.401 1.42,0.862 -1.163,0.887 -1.384,0.925 -1.055,-1.199 2.182,-1.475 m 1.32,-3.014 0.496,3.501 -0.396,0.375 -1.42,-0.862 -0.136,-0.563 -0.995,-1.586 0.459,-1.036 1.992,0.171 m 1.127,-0.411 1.321,3.62 -1.1,0.324 -0.852,-0.032 -0.496,-3.501 1.127,-0.411 m 1.956,0.721 1.095,1.794 -1.73,1.105 -1.321,-3.62 1.956,0.721 m 1.19,2.385 0.645,3.145 -2.633,0.839 -0.937,-3.146 1.1,-0.324 1.73,-1.105 0.095,0.591 m -3.777,0.806 0.852,0.032 0.937,3.146 -0.725,0.743 -0.198,0.29 -0.307,-0.091 -0.193,-0.085 -1.655,-1.474 -0.27,-1.299 1.163,-0.887 0.396,-0.375 m -2.943,2.187 1.384,-0.925 0.27,1.299 1.655,1.474 0.193,0.085 0.307,0.091 -1.408,1.748 -1.301,0.094 -2.393,-2.866 1.293,-1 m 0.198,10.059 0.374,2.74 0.018,0.622 -2.284,0.267 -0.776,-0.195 -0.442,-0.41 -0.383,-0.522 2.258,-2.439 1.235,-0.063 m -3.493,2.502 0.383,0.522 0.442,0.41 0.776,0.195 2.284,-0.267 0.036,1.123 -0.148,1.734 -0.618,-0.446 -2.257,0.024 -0.948,0.089 -0.197,0.084 -0.019,0.035 -0.689,-1.088 0.955,-2.415 m -0.266,3.503 0.019,-0.035 0.197,-0.084 0.948,-0.089 2.257,-0.024 0.618,0.446 -0.771,1.442 -1.727,1.741 -0.946,-1.344 -0.571,-0.724 -1.182,-0.776 -0.031,-0.113 -0.005,-0.369 1.194,-0.071 m 3.268,1.656 1.42,1.466 -0.383,0.843 -0.64,1.271 -0.346,0.517 -0.163,0.957 -2.254,0.081 -1.005,-2.123 1.644,-1.271 1.727,-1.741 m 0.163,5.946 -0.235,-0.315 -0.009,-0.064 0.054,-0.035 0.374,0.157 0.843,0.495 0.504,-0.472 0.276,0.477 0.411,1.105 -0.027,0.171 0.008,0.198 0.028,0.122 0.265,0.766 0.049,0.104 0.117,0.063 0.217,0.045 -3.164,0.199 -0.198,0.035 0.487,-3.051 m 1.257,-4.48 1.546,0.73 0.847,1.455 -2.119,2.061 -0.504,0.472 -0.843,-0.495 -0.374,-0.157 -0.054,0.035 0.009,0.064 0.235,0.315 -0.137,0.054 -0.085,-0.018 -0.067,-0.04 -0.384,-0.488 0.398,-0.4 0.163,-0.957 0.346,-0.517 0.64,-1.271 0.383,-0.843 m 5.205,3.556 -0.157,0.812 -0.649,1.022 -0.821,1.817 -0.076,0.004 -1.884,0.086 -0.217,-0.045 -0.117,-0.063 -0.049,-0.104 -0.265,-0.766 -0.028,-0.122 -0.008,-0.198 0.027,-0.171 -0.411,-1.105 -0.276,-0.477 2.119,-2.061 2.812,1.371 m -2.019,-4.615 2.06,-1.429 2.448,2.015 -0.397,2.568 -2.092,1.461 -2.812,-1.371 -0.847,-1.455 1.64,-1.789 m -3.687,-3.583 1.935,-0.262 -0.01,1.055 0.158,0.509 0.608,0.406 0.789,0.302 0.257,0.761 -0.05,0.812 -1.64,1.789 -1.546,-0.73 -1.42,-1.466 0.771,-1.442 0.148,-1.734 m 2.713,-2.516 0.992,0.911 -1.77,1.343 -1.935,0.262 -0.036,-1.123 -0.018,-0.622 2.767,-0.771 m -0.91,-3.258 1.033,1.294 0.004,0.608 -0.127,1.356 -2.767,0.771 -0.374,-2.74 0.032,0.037 0.073,0.008 0.125,-0.067 1.204,-0.789 0.797,-0.478 m -2.52,-1.785 1.61,-0.027 0.91,1.812 -0.797,0.478 -1.204,0.789 -0.125,0.067 -0.073,-0.008 -0.032,-0.037 -1.235,0.063 -0.261,-0.937 0.564,-0.915 0.643,-1.285 m 1.191,-3.119 1.301,-0.094 0.393,2.005 -1.275,1.181 -1.61,0.027 -0.049,-2.699 1.24,-0.42 m 2.907,-2.132 1.473,2.57 0.524,0.924 -2.087,1.45 -1.123,-0.901 -0.393,-2.005 1.408,-1.748 0.198,-0.29 m -1.213,4.043 1.123,0.901 -0.177,1.498 -0.278,1.888 -1.033,-1.294 -0.91,-1.812 1.275,-1.181 m 3.21,-0.549 1.38,1.671 -0.232,2.326 -0.914,0.699 -2.498,-1.748 0.177,-1.498 2.087,-1.45 m -2.264,2.948 2.498,1.748 -0.784,1.108 -0.374,0.569 -0.027,0.017 -0.154,-0.058 -0.32,-0.397 -0.04,-0.302 -0.735,-0.42 -0.149,0.051 -0.189,0.18 -0.004,-0.608 0.278,-1.888 m -0.274,2.496 0.189,-0.18 0.149,-0.051 0.735,0.42 0.04,0.302 0.32,0.397 0.154,0.058 0.027,-0.017 0.374,-0.569 2.154,2.759 -0.915,0.808 -2.362,-1.66 -0.992,-0.911 0.127,-1.356 m 0.865,2.267 2.362,1.66 -0.32,2.099 -2.06,1.429 0.05,-0.812 -0.257,-0.761 -0.789,-0.302 -0.608,-0.406 -0.158,-0.509 0.01,-1.055 1.77,-1.343 m 4.093,8.342 0.639,0.096 -0.282,2.045 0.022,0.181 0.594,1.28 0.298,0.365 0.654,0.609 -0.352,0.04 -5.292,0.496 0.821,-1.817 0.649,-1.022 0.157,-0.812 2.092,-1.461 m 0.703,-7.467 -0.031,0.148 0.049,0.329 0.194,0.347 0.303,0.424 0.278,0.671 0.158,0.618 -1.257,2.362 -2.448,-2.015 0.32,-2.099 0.915,-0.808 1.519,0.023 m -1.975,-4.589 2.637,0.18 0.365,3.71 -1.027,0.699 -1.519,-0.023 -2.154,-2.759 0.784,-1.108 0.914,-0.699 m -1.672,-4.921 2.335,-1.447 2.444,2.042 -0.893,1.126 -1.982,0.874 -1.38,-1.671 -0.524,-0.924 m 2.363,-3.84 0.743,1.143 -0.771,1.25 -2.335,1.447 -1.473,-2.57 0.725,-0.743 2.633,-0.839 0.478,0.312 m 17.456,9.067 2.275,-1.072 -0.004,0.009 0.019,0.063 0.377,0.581 2.052,1.38 0.003,0 0.732,0.266 0.4,-0.091 0.393,-0.117 -2.962,3.56 -0.379,0.489 -1.523,0.859 -0.396,0.284 -0.113,0.077 -0.402,-0.361 -0.333,-0.211 -0.06,0 -0.282,0.23 -0.289,0.013 -0.459,-0.401 0.198,-0.207 0.095,-0.077 0.171,-0.23 0.473,-1.131 0.198,-0.816 -0.008,-0.283 -0.171,-0.402 -0.297,-0.293 -0.195,-1.857 0.045,-0.067 0.171,-0.104 0.271,-0.091 m 1.229,-2.487 1.046,1.415 -2.275,1.072 -0.839,-0.346 -0.009,-2.086 1.032,-1.019 1.045,0.964 m -4.551,-4.385 1.883,-0.311 -0.252,1.103 0,0.004 0.04,0.113 0.091,0.226 0,0.01 0.181,0.161 0.193,0.042 0.027,0.008 1.586,1.514 0.014,0.018 0.004,0.01 0,0.072 -0.261,0.451 -1.032,1.019 -0.703,-0.091 -0.6,-0.212 -1.049,-0.532 -1.222,-0.256 -0.039,0.004 -0.173,0.148 -0.045,0.09 -0.086,0.28 -0.409,-0.509 0.671,-2.294 1.181,-1.068 m -4.165,-2.84 0.793,0.194 0.415,0.144 1.5,0.667 0.988,0.194 0.469,1.641 -1.181,1.068 -0.167,0.089 -0.316,0.005 -0.775,-0.158 -0.41,-0.297 -0.77,-0.428 -0.244,-0.05 -0.532,1.051 -1.185,-1.51 0.63,-0.14 0.402,-0.23 0.041,-0.094 -0.109,-0.527 0.451,-1.619 m 3.358,-1.338 1.608,0.626 -1.27,1.911 -0.988,-0.194 -1.5,-0.667 -0.415,-0.144 -0.793,-0.194 0.956,-3.038 0,-0.005 0.179,-0.081 0.834,-0.378 0.272,-0.119 0.012,-0.003 0.051,0 0.103,0.045 0.046,0.05 0.013,0.023 0.027,0.04 0.017,0.031 0.005,0.018 0.004,0.018 0.019,0.077 0.008,0.091 0,0.013 0.005,0.006 -0.01,0.156 0.095,0.406 0.28,0.843 0.023,0.05 0.067,0.143 0.081,0.095 0.01,0.014 0.216,0.144 0.045,0.023 m 2.478,1.604 0.212,2.263 -1.883,0.311 -0.469,-1.641 1.27,-1.911 0.87,0.978 m -4.88,-3.304 -0.956,3.038 -0.451,1.619 0.109,0.527 -0.041,0.094 -0.402,0.23 -0.63,0.14 -1.217,-0.654 -2.126,-1.605 -0.241,-1.424 0.054,-0.455 0.077,-0.126 0.104,-0.072 0.784,-0.343 0.123,-0.027 0.085,0.009 0.014,0 0.404,0.099 1.074,0.258 0.027,0.013 0.337,0.158 0.024,0.008 0.571,0.428 2.277,-1.915 m -5.955,1.965 0.241,1.424 -0.754,0.379 -1.289,0.793 -0.766,-0.373 -0.775,-1.232 0.581,-2.361 0.342,0.045 0.122,0.045 0.063,0.051 0.879,0.91 0.78,0.387 0.576,-0.068 m -2.762,-1.37 -0.581,2.361 -1.627,0.727 -0.478,-0.312 -0.645,-3.145 1.852,0.527 1.479,-0.158 m -0.581,2.361 0.775,1.232 -0.406,0.747 -1.253,-0.109 -0.743,-1.143 1.627,-0.727 m 3.584,0.433 2.126,1.605 -0.36,0.671 -0.1,0.569 0.094,0.234 -0.432,0.657 -0.171,0.186 -0.524,0.428 -0.017,0.126 -0.067,0.104 -0.437,-0.515 -0.335,-0.644 -0.247,-0.189 -0.108,-0.059 -0.974,-0.049 -0.045,0.003 -0.076,0.088 -1.542,-1.669 0.406,-0.747 0.766,0.373 1.289,-0.793 0.754,-0.379 m -3.215,1.546 1.542,1.669 -1.122,1.514 -2.444,-2.042 0.771,-1.25 1.253,0.109 m 1.542,1.669 0.076,-0.088 0.045,-0.003 0.974,0.049 0.108,0.059 0.247,0.189 0.335,0.644 0.437,0.515 0.067,-0.104 0.017,-0.126 1.596,1.582 -2.518,1.009 -0.086,-0.174 -0.667,-0.808 -0.582,-0.537 -0.113,-0.099 -0.522,-0.081 -0.536,-0.513 1.122,-1.514 m 5.016,-0.956 1.185,1.51 -0.054,1.014 -1.563,1.279 -0.682,-0.13 -1.596,-1.582 0.524,-0.428 0.171,-0.186 0.432,-0.657 -0.094,-0.234 0.1,-0.569 0.36,-0.671 1.217,0.654 m 4.399,1.298 -0.671,2.294 -2.597,-1.068 0.054,-1.014 0.532,-1.051 0.244,0.05 0.77,0.428 0.41,0.297 0.775,0.158 0.316,-0.005 0.167,-0.089 m -0.671,2.294 0.409,0.509 0.028,1.374 -0.434,-0.193 -0.468,-0.095 -0.4,0 -0.028,0.028 -1.177,1.779 0.185,0.718 -0.838,-0.781 -1.063,-0.36 -0.555,-0.253 -0.139,-0.216 0.32,-2.299 1.563,-1.279 2.597,1.068 m -4.842,0.081 0.682,0.13 -0.32,2.299 -1.303,0.649 -1.538,-1.019 -0.039,-1.05 2.518,-1.009 m -5.024,-1.203 0.536,0.513 0.522,0.081 0.113,0.099 0.582,0.537 0.667,0.808 0.086,0.174 0.039,1.05 -2,0.09 -1.438,-2.226 0.893,-1.126 m -0.893,1.126 1.438,2.226 -0.203,1.244 -0.812,-0.09 -2.637,-0.18 0.232,-2.326 1.982,-0.874 m 1.438,2.226 2,-0.09 1.538,1.019 -0.586,1.506 -0.145,0.022 -1.082,-0.27 -0.805,-0.054 -0.689,-0.464 -0.434,-0.425 0.203,-1.244 m 4.841,0.28 0.139,0.216 0.555,0.253 1.063,0.36 0.838,0.781 0.207,0.536 -1.477,-0.198 -0.267,0.157 -0.054,0.09 -0.026,0.122 0.012,0.082 -0.027,0.166 -0.13,0.27 -0.072,0.099 -0.31,0.17 -0.344,-0.188 -1.996,-0.761 0.586,-1.506 1.303,-0.649 m 4.917,-0.627 0.896,1.748 0.563,2.94 -0.261,-0.18 -3.313,-1.735 -0.207,-0.536 -0.185,-0.718 1.177,-1.779 0.028,-0.028 0.4,0 0.468,0.095 0.434,0.193 m 3.889,-0.805 0.009,2.086 -0.031,-0.028 -0.848,-0.211 -0.302,-0.008 -0.32,0.117 -1.172,0.603 -0.329,-0.006 -0.896,-1.748 -0.028,-1.374 0.086,-0.28 0.045,-0.09 0.173,-0.148 0.039,-0.004 1.222,0.256 1.049,0.532 0.6,0.212 0.703,0.091 m 0.009,2.086 0.839,0.346 -0.271,0.091 -0.171,0.104 -0.045,0.067 0.195,1.857 0.297,0.293 0.171,0.402 0.008,0.283 -0.198,0.816 -0.473,1.131 -0.171,0.23 -0.095,0.077 -0.194,-0.086 -0.226,-0.131 -0.054,-0.055 -0.184,-0.54 0.022,-0.351 -0.05,-0.423 -0.093,-0.145 -0.74,-0.41 -1.006,-0.149 -0.563,-2.94 0.329,0.006 1.172,-0.603 0.32,-0.117 0.302,0.008 0.848,0.211 0.031,0.028 m -8.708,2.262 0.344,0.188 0.31,-0.17 0.072,-0.099 0.13,-0.27 0.027,-0.166 -0.012,-0.082 0.026,-0.122 0.054,-0.09 0.267,-0.157 1.477,0.198 3.313,1.735 -1.599,1.5 -0.776,-0.017 -2.19,1.081 -1.185,0.419 -0.605,-2.167 0.347,-1.781 m -1.996,-0.761 1.996,0.761 -0.347,1.781 -0.432,-0.149 -0.479,0.031 -0.121,0.176 -0.595,0.311 -0.802,0.194 -0.203,-0.04 -0.234,-0.096 -0.239,-0.18 -0.243,-0.296 1.554,-2.471 0.145,-0.022 m -3.967,-1.281 0.812,0.09 0.434,0.425 0.689,0.464 0.805,0.054 1.082,0.27 -1.554,2.471 -1.903,-0.064 -0.365,-3.71 m 0.365,3.71 1.903,0.064 0.243,0.296 1.293,2.051 -1.438,1.469 -2.077,-0.644 -0.158,-0.618 -0.278,-0.671 -0.303,-0.424 -0.194,-0.347 -0.049,-0.329 0.031,-0.148 1.027,-0.699 m 5.251,0.113 0.605,2.167 0.342,0.956 -0.405,-0.036 -1.524,-0.752 -0.83,-0.037 -1.293,-2.051 0.239,0.18 0.234,0.096 0.203,0.04 0.802,-0.194 0.595,-0.311 0.121,-0.176 0.479,-0.031 0.432,0.149 m 4.756,0.684 1.621,2.525 -0.288,0.54 -0.176,0.456 -0.017,0.09 0.261,0.501 0.013,0.625 -0.027,0.145 -0.034,0.049 -0.46,0.365 -0.036,0.005 -0.123,-0.1 -0.644,-0.171 0.014,-0.563 -0.159,-0.536 -0.41,-0.716 -0.387,-0.339 -1.114,-0.698 -0.856,-0.496 -0.758,1.018 -0.229,-0.261 -0.342,-0.956 1.185,-0.419 2.19,-1.081 0.776,0.017 m 1.86,-1.32 1.006,0.149 0.74,0.41 0.093,0.145 0.05,0.423 -0.022,0.351 0.184,0.54 0.054,0.055 0.226,0.131 0.194,0.086 -0.198,0.207 -0.677,0.23 -0.698,0.486 -0.19,0.244 -0.202,0.203 -0.397,0.315 -0.219,-0.003 -0.183,-0.127 -1.621,-2.525 1.599,-1.5 0.261,0.18 m 2.327,2.497 0.459,0.401 0.289,-0.013 0.282,-0.23 0.06,0 0.333,0.211 0.402,0.361 -2.668,3.29 -0.785,-0.432 -1.519,0.82 -0.306,-0.384 0.123,0.1 0.036,-0.005 0.46,-0.365 0.034,-0.049 0.027,-0.145 -0.013,-0.625 -0.261,-0.501 0.017,-0.09 0.176,-0.456 0.288,-0.54 0.183,0.127 0.219,0.003 0.397,-0.315 0.202,-0.203 0.19,-0.244 0.698,-0.486 0.677,-0.23 m -4.097,3.853 0.644,0.171 0.306,0.384 1.519,-0.82 0.785,0.432 -0.041,0.977 -0.212,0.371 -2.042,1.686 -2.141,1.212 -1.036,0.554 -0.684,-2.929 2.902,-2.038 m -3.67,-2.33 0.758,-1.018 0.856,0.496 1.114,0.698 0.387,0.339 0.41,0.716 0.159,0.536 -0.014,0.563 -2.902,2.038 -0.272,-0.532 -0.496,-3.836 m -2.988,-1.086 0.83,0.037 1.524,0.752 0.405,0.036 0.229,0.261 0.496,3.836 -0.847,-0.113 -0.225,0 -0.424,-0.076 -0.437,-0.14 -0.302,-0.126 -0.022,-0.091 -0.14,-0.162 -0.131,-0.117 -0.329,-0.094 -0.883,-0.113 -0.127,0.014 -0.063,-0.33 -0.284,-0.423 -0.532,-0.329 -0.306,-0.338 0.13,-1.015 1.438,-1.469 m -3.515,0.825 2.077,0.644 -0.13,1.015 0.306,0.338 0.532,0.329 0.284,0.423 0.063,0.33 -2.077,1.554 -2.07,0.393 -0.639,-0.096 0.397,-2.568 1.257,-2.362 m -1.015,5.026 2.07,-0.393 0.441,1.285 1.289,1.496 0.888,0.411 -0.378,1.343 -0.581,0.058 -2.443,0.28 -0.654,-0.609 -0.298,-0.365 -0.594,-1.28 -0.022,-0.181 0.282,-2.045 m 4.147,-1.947 0.127,-0.014 0.883,0.113 0.329,0.094 0.131,0.117 0.14,0.162 0.022,0.091 0.302,0.126 0.437,0.14 0.424,0.076 0.225,0 0.23,0.181 0.05,0.099 -0.063,0.271 -0.627,0.698 -0.425,0.4 -0.958,0.983 -0.686,1.209 -0.888,-0.411 -1.289,-1.496 -0.441,-1.285 2.077,-1.554 m 3.867,1.018 0.272,0.532 0.684,2.929 -2.077,1.114 -2.583,0.496 0.378,-1.343 0.686,-1.209 0.958,-0.983 0.425,-0.4 0.627,-0.698 0.063,-0.271 -0.05,-0.099 -0.23,-0.181 0.847,0.113" />
</svg>
