<?xml version="1.0" encoding="UTF-8" standalone="no"?>
<!-- Created with Inkscape (http://www.inkscape.org/) -->

<svg
   xmlns:dc="http://purl.org/dc/elements/1.1/"
   xmlns:cc="http://creativecommons.org/ns#"
   xmlns:rdf="http://www.w3.org/1999/02/22-rdf-syntax-ns#"
   xmlns:svg="http://www.w3.org/2000/svg"
   xmlns="http://www.w3.org/2000/svg"
   xmlns:sodipodi="http://sodipodi.sourceforge.net/DTD/sodipodi-0.dtd"
   xmlns:inkscape="http://www.inkscape.org/namespaces/inkscape"
   version="1.0"
   width="555.22198"
   height="351.66797"
   id="svg2"
   inkscape:version="0.48.1 r9760"
   sodipodi:docname="longisland.svg">
  <metadata
     id="metadata12">
    <rdf:RDF>
      <cc:Work
         rdf:about="">
        <dc:format>image/svg+xml</dc:format>
        <dc:type
           rdf:resource="http://purl.org/dc/dcmitype/StillImage" />
      </cc:Work>
    </rdf:RDF>
  </metadata>
  <defs
     id="defs10" />
  <sodipodi:namedview
     pagecolor="#ffffff"
     bordercolor="#666666"
     borderopacity="1"
     objecttolerance="10"
     gridtolerance="10"
     guidetolerance="10"
     inkscape:pageopacity="0"
     inkscape:pageshadow="2"
     inkscape:window-width="640"
     inkscape:window-height="480"
     id="namedview8"
     showgrid="false"
     inkscape:zoom="0.83029853"
     inkscape:cx="277.61099"
     inkscape:cy="175.83398"
     inkscape:window-x="0"
     inkscape:window-y="25"
     inkscape:window-maximized="0"
     inkscape:current-layer="svg2" />
  <path
     id="36103"
     style="font-size:12px;fill:#0000ff;fill-rule:nonzero;stroke:#000000;stroke-opacity:1;stroke-width:0.1;stroke-miterlimit:4;stroke-dasharray:none;stroke-linecap:butt;marker-start:none;stroke-linejoin:bevel"
     d="m 511.13798,115.22 -1.64,-3.795 -0.011,-0.248 0.051,-0.073 0.771,-0.288 1.766,0.226 5.765,-2.668 1.45,-1.687 0.547,-0.284 2.619,0.884 -0.117,0.289 -2.304,2.001 -0.622,0.478 -4.957,3.596 -0.785,0.473 -0.555,0.33 -0.274,0.145 -0.203,0.097 -1.501,0.524 m 0,0 -3.051,1.045 -0.77,-2.704 2.181,-2.136 1.64,3.795 m -4.907,-1.321 0.878,-0.31 0.208,-0.028 0.77,2.704 -1.685,0.667 0.094,-1.153 -0.325,-0.735 -0.243,-0.063 0.145,-0.127 0.175,-0.869 -0.017,-0.086 m -1.001,1.704 0.698,-0.622 0.243,0.063 0.325,0.735 -0.094,1.153 -0.618,-0.036 -0.423,-0.635 -0.131,-0.658" />
</svg>
