<?xml version="1.0" encoding="UTF-8" standalone="no"?>
<!-- Created with Inkscape (http://www.inkscape.org/) -->

<svg
   xmlns:dc="http://purl.org/dc/elements/1.1/"
   xmlns:cc="http://creativecommons.org/ns#"
   xmlns:rdf="http://www.w3.org/1999/02/22-rdf-syntax-ns#"
   xmlns:svg="http://www.w3.org/2000/svg"
   xmlns="http://www.w3.org/2000/svg"
   xmlns:sodipodi="http://sodipodi.sourceforge.net/DTD/sodipodi-0.dtd"
   xmlns:inkscape="http://www.inkscape.org/namespaces/inkscape"
   version="1.0"
   width="555.22198"
   height="351.66797"
   id="svg2"
   inkscape:version="0.48.1 r9760"
   sodipodi:docname="losangeles.svg">
  <metadata
     id="metadata14">
    <rdf:RDF>
      <cc:Work
         rdf:about="">
        <dc:format>image/svg+xml</dc:format>
        <dc:type
           rdf:resource="http://purl.org/dc/dcmitype/StillImage" />
      </cc:Work>
    </rdf:RDF>
  </metadata>
  <defs
     id="defs12" />
  <sodipodi:namedview
     pagecolor="#ffffff"
     bordercolor="#666666"
     borderopacity="1"
     objecttolerance="10"
     gridtolerance="10"
     guidetolerance="10"
     inkscape:pageopacity="0"
     inkscape:pageshadow="2"
     inkscape:window-width="640"
     inkscape:window-height="480"
     id="namedview10"
     showgrid="false"
     inkscape:zoom="0.83029853"
     inkscape:cx="277.61099"
     inkscape:cy="175.83398"
     inkscape:window-x="0"
     inkscape:window-y="25"
     inkscape:window-maximized="0"
     inkscape:current-layer="svg2" />
  <path
     id="06065-losangeles"
     style="font-size:12px;fill:#ff0000;fill-rule:nonzero;stroke:#000000;stroke-opacity:1;stroke-width:0.1;stroke-miterlimit:4;stroke-dasharray:none;stroke-linecap:butt;marker-start:none;stroke-linejoin:bevel"
     d="m 66.281,200.75326 -1.3125,1.125 -0.375,0.65625 0.6875,1.53125 0.3125,0.8125 0.59375,0.25 0.5,0.6875 -1.375,1.34375 -0.0625,0.375 1.5,0.34375 1.125,1 -0.03125,0.21875 4.21875,1.03125 0.90625,0.1875 0.6875,-7.6875 -0.9375,-0.0312 -3.0625,-0.6875 -1.40625,-0.5 -0.0625,-0.21875 -0.40625,-0.0937 -1.5,-0.34375 z m 4.37498,-22.48826 2.601,0.626 16.635,3.677 0.947,-0.004 2.068,3.106 0.713,1.063 0.265,0.393 3.823,5.72 1.41,2.099 -0.324,1.434 -0.018,0.18 0.009,0.068 0.568,1.478 0.717,1.126 0.036,0.519 0.666,2.804 0.658,0.789 0.573,0.638 0.496,0.867 -0.036,0.559 -0.023,0.018 -1.352,0.78 -0.911,0.374 -1.329,0.509 -7.193,-1.443 -1.361,-0.067 -0.74,0.243 -5.291,-1.122 -7.59,-1.604 -2.619,-0.46 -1.347,-0.051 -3.074,-0.684 -1.379,-0.514 -0.09,-0.216 -0.406,-0.095 -1.492,-0.338 -1.32,1.141 -0.352,0.638 -0.915,-1.215 -0.086,-0.122 -0.049,-0.203 0.018,-0.09 0.27,-0.33 0.749,-0.364 0.239,-0.397 0.599,-1.001 0.693,-1.5 0.095,-0.631 0.24,-1.46 0.319,-1.718 0.686,-2.974 0.36,0.089 2.191,-9.379 0.135,-1.519 0.099,-0.369 0.419,-1.068 m -32.275,16.082 1.884,0.152 0.843,0.771 -0.028,0.428 -0.008,0.081 -0.045,0.014 -1.538,0.18 -0.139,0.008 -0.41,-0.418 -0.077,-0.135 -0.482,-1.081 m 5.264,0.589 0.397,0.28 1.046,0.347 0.036,-0.022 0.017,-0.01 0.027,-0.013 0.041,-0.022 0.054,-0.032 0.032,-0.013 0.284,0.018 0.342,0.253 0.072,0.107 -0.004,0.005 -0.004,0.009 -0.01,0.008 -0.347,0.271 -0.099,0.081 -0.072,0.01 -1.771,0.031 -0.384,-0.091 -0.374,-0.148 -0.004,0 -0.14,-0.069 -0.316,-0.147 -0.283,-0.208 -0.023,-0.076 -0.207,-1.172 0.072,-0.091 0.063,0.019 0.555,0.22 1,0.455 m -6.134,-13.899 1.609,0.175 0.573,0.222 0.531,0.545 0.699,-0.117 0.676,-0.379 2.082,-0.6 0.194,0.23 0.591,0.554 1.825,1.465 2.289,1.802 0.46,0.118 0.194,0 0.311,0.078 -1.411,5.61 -0.198,0.632 -0.086,0.076 -0.298,0.207 -0.752,-0.689 -0.568,-0.247 -0.577,-0.082 -0.157,0.003 -0.023,0 -0.617,-0.03 -1.299,-0.41 -0.446,-0.451 -0.762,-0.55 -0.306,-0.121 -0.793,-0.294 -0.663,-0.176 -0.771,-0.162 -0.883,-0.112 -1.05,-0.181 -1.352,-1.766 0.085,-1.024 0.663,-3.402 0.23,-0.924 m 12.034,4.093 0.595,0.216 1.023,0.477 0.14,0.334 0.049,0.351 2.601,1.199 0.969,0.239 0.978,6.901 -0.068,0.472 -0.631,1.006 -1.244,-0.307 -0.829,0.347 -1.028,0.446 -0.135,0.361 -1.415,-1.068 -1.555,-2.705 -1.064,-1.37 -0.248,-0.315 -0.131,-0.059 0.298,-0.207 0.086,-0.076 0.198,-0.632 1.411,-5.61 m 4.804,28.97 -0.802,-0.031 -0.509,-0.627 -0.068,-0.108 -0.248,-0.789 -0.225,-1.41 0.284,0.095 1.478,2.577 0.122,0.262 -0.032,0.031 m -0.545,-8.779 -0.045,-0.033 -0.009,-0.093 0.009,-0.018 0.049,0.013 0.551,0.185 0.617,0.496 0.5,0.401 0.379,0.32 0.487,1.009 0.04,0.104 0.027,0.216 -0.049,0.117 -0.149,0.087 -0.009,0.004 -0.086,0 -1.298,-0.613 -0.086,-0.077 -0.928,-2.118 m 13.648,-14.81 -0.686,2.974 -0.319,1.718 -0.24,1.46 -0.095,0.631 -0.693,1.5 -0.599,1.001 -0.239,0.397 -0.749,0.364 -0.27,0.33 -0.018,0.09 0.049,0.203 0.086,0.122 -1.415,-0.325 -0.122,-0.027 -0.482,-0.031 -1.136,0.977 -0.577,0.726 -0.275,0.486 -0.802,0.109 -0.843,-0.018 -0.388,-0.153 -0.193,-0.109 -0.753,-0.486 -0.135,-0.112 -0.081,-0.455 0.076,-0.081 0.244,-0.181 0.126,-0.027 0.063,-0.13 0.067,-0.325 -0.08,-0.595 -0.05,-0.289 -0.027,-0.162 -0.058,-0.334 -0.104,-0.406 -0.145,-0.391 -0.013,-0.028 -0.018,-0.041 -0.005,-0.008 -0.112,-0.221 -0.023,-0.031 -0.085,-0.122 -0.028,-0.04 -0.031,-0.028 -0.181,-0.171 -0.261,-0.103 -1.032,-0.217 -0.811,-0.108 -0.428,0.036 -1.596,-0.708 0.135,-0.361 1.028,-0.446 0.829,-0.347 1.244,0.307 0.631,-1.006 0.068,-0.472 -0.978,-6.901 -0.045,-0.374 12.575,2.939 m -3.773,10.79 0.915,1.215 0.671,1.525 0.312,0.838 0.599,0.225 0.514,0.713 -1.379,1.347 -0.077,0.37 -1.244,1.284 -0.068,-0.274 -0.18,-0.365 -0.112,-0.163 -1.979,-2.483 -1.591,-1.947 -0.388,-0.479 0.275,-0.486 0.577,-0.726 1.136,-0.977 0.482,0.031 0.122,0.027 1.415,0.325" />
</svg>
