<?xml version="1.0" encoding="UTF-8" standalone="no"?>
<!-- Created with Inkscape (http://www.inkscape.org/) -->

<svg
   xmlns:dc="http://purl.org/dc/elements/1.1/"
   xmlns:cc="http://creativecommons.org/ns#"
   xmlns:rdf="http://www.w3.org/1999/02/22-rdf-syntax-ns#"
   xmlns:svg="http://www.w3.org/2000/svg"
   xmlns="http://www.w3.org/2000/svg"
   xmlns:sodipodi="http://sodipodi.sourceforge.net/DTD/sodipodi-0.dtd"
   xmlns:inkscape="http://www.inkscape.org/namespaces/inkscape"
   version="1.0"
   width="555.22198"
   height="351.66797"
   id="svg2"
   inkscape:version="0.48.1 r9760"
   sodipodi:docname="louisiana.svg">
  <metadata
     id="metadata34">
    <rdf:RDF>
      <cc:Work
         rdf:about="">
        <dc:format>image/svg+xml</dc:format>
        <dc:type
           rdf:resource="http://purl.org/dc/dcmitype/StillImage" />
      </cc:Work>
    </rdf:RDF>
  </metadata>
  <defs
     id="defs32" />
  <sodipodi:namedview
     pagecolor="#ffffff"
     bordercolor="#666666"
     borderopacity="1"
     objecttolerance="10"
     gridtolerance="10"
     guidetolerance="10"
     inkscape:pageopacity="0"
     inkscape:pageshadow="2"
     inkscape:window-width="640"
     inkscape:window-height="480"
     id="namedview30"
     showgrid="false"
     inkscape:zoom="0.83029853"
     inkscape:cx="277.61099"
     inkscape:cy="175.83398"
     inkscape:window-x="0"
     inkscape:window-y="25"
     inkscape:window-maximized="0"
     inkscape:current-layer="svg2" />
  <path
     id="22051"
     style="font-size:12px;fill:#0000ff;fill-rule:nonzero;stroke:#000000;stroke-opacity:1;stroke-width:0.1;stroke-miterlimit:4;stroke-dasharray:none;stroke-linecap:butt;marker-start:none;stroke-linejoin:bevel"
     d="m 357.24798,273.855 0.393,0.06 1.554,0.324 -0.032,2.109 0.753,1.024 0.6,0.608 -0.446,0.766 -0.209,0.865 0.124,0.419 0.36,0.483 0.22,0.256 0.447,0.762 0.058,0.244 0.163,1.929 -0.555,0.185 -0.68,-0.298 -0.901,-1.329 0.066,-0.241 -0.009,-0.13 -0.13,-0.905 -0.031,-0.099 -0.118,-0.072 -0.369,-0.086 -0.284,0.013 0.162,-0.5 0.063,-0.198 0.185,-1.072 -0.681,-0.406 -0.342,-0.528 -0.072,-0.211 -0.113,-0.641 -0.027,-0.446 -0.149,-2.885 m 3.114,12.972 0.01,0.01 0.311,-0.06 0.243,-0.274 0.649,-0.5 0.095,0.013 0.019,0.037 -0.01,0.031 -0.058,0.094 -0.709,0.527 -0.608,0.632 -0.105,0.108 -0.003,0.004 0.166,-0.622 m -18.7,-22.066 5.079,-0.239 -0.157,0.892 -0.324,1.487 -0.446,0.766 -0.114,0.153 -0.162,0.506 -0.021,0.423 0.026,0.302 -0.288,-0.063 -0.344,-0.92 -0.211,-0.315 -0.058,-0.027 -1.781,-0.334 -1.217,-0.635 -0.067,-0.036 -0.082,-0.077 -0.026,-0.072 -0.072,-1.424 0.265,-0.387 m -0.986,-0.533 0.753,0.609 -1.027,-0.266 0.274,-0.343 m 19.84,13.752 1.109,0.275 0.157,0.329 0.247,0.429 0.141,0.166 0.072,0.013 0.122,-0.045 1.654,0.441 0.167,0.177 0.793,0.715 1.226,0.294 0.311,0.248 0.068,0.099 -0.208,-0.126 -0.355,-0.193 -0.97,-0.045 -0.221,0.13 -0.356,0.301 -0.09,0.311 -0.112,1.064 0.008,0.063 0.082,0.091 0.329,0.216 2.09,1.104 0.334,-0.022 0.871,-0.041 2.33,0.672 0.599,0.744 0.302,0.418 0.455,0.262 0.42,-0.189 0.08,0.031 0.082,0.077 0.193,0.393 0,0.012 -0.036,0.176 0,0.009 -0.203,0.465 -0.351,0.797 -1.023,0.609 -0.722,-0.446 -1.554,0.04 -1.244,-1.438 -0.033,-0.032 -0.152,-0.147 -0.018,-0.019 -0.123,-0.086 0,-0.004 -0.048,-0.018 -0.334,-0.122 -0.244,-0.09 -1.563,-0.573 -0.248,-0.068 -0.045,-0.012 -0.239,-0.05 -0.094,-0.023 -0.019,0 -0.049,-0.005 -0.236,-0.017 -0.332,-0.028 -0.635,-0.572 0.143,-0.248 0.041,-0.09 0,-0.121 -0.014,-0.068 -0.248,-0.865 -0.007,-0.037 -0.074,-0.036 -0.103,-0.053 -0.145,0.031 -0.148,0.063 -0.283,0.176 -0.177,0.216 -0.14,0.199 -0.257,0.026 -0.108,-0.072 -0.148,-0.157 -0.163,-1.929 -0.058,-0.244 -0.447,-0.762 -0.22,-0.256 -0.36,-0.483 -0.124,-0.419 0.209,-0.865 0.446,-0.766 m 1.609,-1.452 0.068,0.284 0.108,0.275 0.072,0.123 0.113,0.075 1.586,0.808 0.357,0.048 0.252,-0.03 0.269,-0.122 0.163,-0.131 0.063,-0.203 0.127,-0.816 -0.015,-0.311 0.831,-0.924 0.387,-0.189 0.464,0.144 0.293,0.24 -0.239,0.134 -0.073,0.073 -0.107,0.103 0.009,0.217 0.018,0.157 0.658,0.717 0.126,0.095 0.532,0.274 0.126,0.069 -0.747,1.248 -0.433,0.639 -0.641,0.243 -0.5,-0.192 -1.172,-0.042 -0.19,0.06 0.046,0.378 0.063,0.113 0.559,0.306 0.267,0.113 0.188,0.036 0.263,-0.018 0.549,0.473 0.031,0.076 -0.013,0.05 -0.068,-0.099 -0.311,-0.248 -1.226,-0.294 -0.793,-0.715 -0.167,-0.177 -1.654,-0.441 -0.122,0.045 -0.072,-0.013 -0.141,-0.166 -0.247,-0.429 -0.157,-0.329 0.5,-1.727 m -2.93,-2.289 1.236,0.469 1.045,-0.627 0.258,-0.1 2.175,0.172 0.619,0.202 0.072,0.045 -0.479,0.569 -1.495,0.96 -0.501,0.599 -0.5,1.727 -1.109,-0.275 -0.6,-0.608 -0.753,-1.024 0.032,-2.109 m -5.521,-10.099 2.209,-0.141 0.081,1.221 0.347,0.289 0.802,1.91 0.005,0.23 0.523,6.266 -0.393,-0.06 -1.416,-0.623 -0.206,-0.048 -0.14,-0.063 -0.131,-0.107 -0.378,-0.389 -0.866,-1.199 -0.27,-0.676 -0.122,-2.1 -0.256,-4.503 0.211,-0.007 m 0.901,14.242 -0.166,-1.178 -0.018,-0.238 0.117,-0.19 0.478,-0.198 0.923,-0.703 1.339,-2.02 0.149,2.885 0.027,0.446 0.113,0.641 0.072,0.211 0.342,0.528 0.681,0.406 -0.185,1.072 -0.063,0.198 -0.162,0.5 -1.248,0.064 -0.136,-0.032 -0.103,-0.139 -0.004,-0.078 -0.578,-0.744 -0.973,-1.036 -0.605,-0.395 m 1.257,-5.15 1.416,0.623 -1.339,2.02 -0.923,0.703 -0.478,0.198 -0.117,0.19 0.018,0.238 0.166,1.178 -1.293,0.107 -0.094,-0.198 -0.154,-0.586 -0.22,-1.077 0.297,-0.212 0.194,-2.209 0.631,0.299 0.121,0.021 0.113,-0.017 0.136,-0.086 0.147,-0.154 0.14,-0.215 0.168,-0.371 0.071,-0.062 0.253,-0.136 0.747,-0.254 m -5.917,-4.36 3.804,-0.222 0.122,2.1 0.27,0.676 0.866,1.199 0.378,0.389 0.131,0.107 0.14,0.063 0.206,0.048 -0.747,0.254 -0.253,0.136 -0.071,0.062 -0.168,0.371 -0.14,0.215 -0.147,0.154 -0.136,0.086 -0.113,0.017 -0.121,-0.021 -0.631,-0.299 -0.605,0.613 -0.045,0.024 -0.054,-0.015 -0.239,-0.162 -2.028,-1.893 -0.896,-0.725 -0.211,-0.528 -0.037,-1.782 0.725,-0.867 m 3.548,-4.725 0.256,4.503 -3.804,0.222 0.631,-0.939 0,-0.942 -0.054,-0.721 -0.221,-1.117 0.334,-0.839 2.858,-0.167 m -5.441,0.312 2.583,-0.145 -0.334,0.839 0.221,1.117 0.054,0.721 0,0.942 -4.474,0.42 -0.114,0.085 -0.329,0.654 -0.086,-0.041 -0.026,-0.302 0.021,-0.423 0.162,-0.506 0.114,-0.153 0.446,-0.766 0.324,-1.487 0.157,-0.892 1.281,-0.063 m 2.524,3.474 -0.631,0.939 -0.725,0.867 0.037,1.782 0.211,0.528 0.896,0.725 -1.42,0.379 -1.347,0.05 -1.938,-4.111 0.329,-0.654 0.114,-0.085 4.474,-0.42 m -0.212,4.841 2.028,1.893 0.239,0.162 0.054,0.015 0.045,-0.024 0.605,-0.613 -0.064,0.712 -3.515,1.483 -1.586,0.131 0.774,-3.38 1.42,-0.379 m 2.907,2.145 -0.13,1.497 -0.297,0.212 0.22,1.077 0.154,0.586 0.094,0.198 -2.574,-0.062 -0.982,-2.025 3.515,-1.483 m 1.334,3.463 0.605,0.395 0.973,1.036 0.578,0.744 0.004,0.078 0.103,0.139 0.136,0.032 1.248,-0.064 0.284,-0.013 0.369,0.086 0.118,0.072 0.031,0.099 0.13,0.905 0.009,0.13 -0.066,0.241 0.901,1.329 0.68,0.298 0.014,1.46 -0.667,0.82 0.337,0.658 -0.166,0.622 -0.123,0.121 -0.03,0.036 -0.721,0.596 -0.037,0.031 -0.03,0.019 -0.511,0.274 -1.329,0.442 -0.063,-0.004 0,-0.01 -0.013,-0.067 0.266,-0.163 0.238,-0.044 0.127,-0.023 0.107,-0.055 0.276,-0.134 0.053,-0.032 0.199,-0.225 -0.014,-0.238 -0.478,-0.948 -0.189,-0.257 -0.359,-0.482 -0.2,-0.145 -0.382,0.06 -0.216,0.288 -0.203,0.739 0.283,-1.416 -0.068,-0.602 -0.067,-0.191 -0.161,-0.17 -2.115,-2.172 -2.767,-2.638 -0.149,-0.018 -0.076,0.036 -1.961,0.888 1.225,-2.518 2.574,0.062 1.293,-0.107 m -5.092,2.563 1.961,-0.888 0.076,-0.036 0.149,0.018 2.767,2.638 2.115,2.172 0.161,0.17 0.067,0.191 0.068,0.602 -0.283,1.416 -1.713,-0.004 -0.915,1.023 0.13,0.712 -2.281,0.51 -5.051,-2.371 -0.281,-0.221 -0.381,-0.402 0.017,-0.093 0.617,-0.338 0.758,-0.438 0.107,-0.122 -0.043,-0.253 -0.155,-0.392 -0.068,-0.148 -0.045,-0.045 -0.599,-0.483 2.028,-2.037 0.794,-1.181 m -5.36,-2.84 1.151,1.637 1.852,0.856 1.32,0.6 0.243,0.928 -2.028,2.037 -0.248,0 -0.473,-0.09 -2.222,-0.482 -0.091,-0.437 -0.067,-0.365 -0.153,-0.487 -0.825,-1.28 -0.131,-0.09 -1.175,-0.032 -0.168,0.023 -1.37,0.401 1.776,-1.682 0.906,-1.32 1.703,-0.217 m -3.488,-6.822 0.613,-0.023 0.708,0.672 0.153,0.365 0.049,0.252 0.028,0.675 -0.024,0.155 0.024,0.075 0.063,0.177 0.397,0.661 0.143,0.118 0.145,0.068 0.229,0.018 0.352,-0.032 0.208,0.042 0.193,0.085 1.163,1.672 0.121,0.293 0.01,0.17 -1.334,0.073 -1.943,-0.564 -0.1,-0.035 -0.4,-0.086 -0.319,0.014 -0.15,0.04 -0.207,0.126 -1.564,0.536 -0.488,0.009 -0.58,-3.781 0.631,-0.388 0.668,-0.293 0.558,0.199 0.085,0.067 1.488,-0.072 -0.474,-0.676 -0.446,-0.612 m 3.488,6.822 2.412,-0.314 0.094,0.243 0.609,1.158 0.166,0.162 0.488,0.095 0.117,0 0.229,0.121 0.14,0.145 0.086,0.167 0.009,0.486 -0.027,0.83 -1.32,-0.6 -1.852,-0.856 -1.151,-1.637 m 5.603,-1.703 0.982,2.025 -1.225,2.518 -0.794,1.181 -0.243,-0.928 0.027,-0.83 -0.009,-0.486 -0.086,-0.167 -0.14,-0.145 -0.229,-0.121 -0.117,0 -0.488,-0.095 -0.166,-0.162 -0.609,-1.158 -0.094,-0.243 0.311,-0.713 1.294,-0.545 1.586,-0.131 m -6.08,-5.251 0.374,0.279 1.226,1.331 0.433,0.545 1.888,-0.103 1.347,-0.05 -0.774,3.38 -1.294,0.545 -1.636,-0.352 -0.01,-0.17 -0.121,-0.293 -1.163,-1.672 -0.193,-0.085 -0.208,-0.042 -0.352,0.032 -0.229,-0.018 -0.145,-0.068 -0.143,-0.118 -0.397,-0.661 -0.063,-0.177 -0.024,-0.075 0.024,-0.155 -0.028,-0.675 -0.049,-0.252 -0.153,-0.365 -0.708,-0.672 2.398,-0.109 m -5.219,11.633 0.833,-0.302 0.267,-0.058 0.374,0.054 1.767,0.78 0.03,0.049 -0.02,0.085 -0.624,0.871 -0.131,0.081 -0.437,0.135 -0.189,-0.054 -2.163,-1.036 -0.171,-0.185 0.464,-0.42 m 6.783,-6.058 1.636,0.352 -0.311,0.713 -2.412,0.314 -1.703,0.217 -0.906,1.32 -1.776,1.682 -1.103,-1.018 -0.069,-2.961 0.139,-0.506 0.488,-0.009 1.564,-0.536 0.207,-0.126 0.15,-0.04 0.319,-0.014 0.4,0.086 0.1,0.035 1.943,0.564 1.334,-0.073 m -8.758,-2.699 1.673,-0.969 0.58,3.781 -0.139,0.506 -1.154,-0.465 -0.712,-0.496 -0.927,-0.306 -0.83,-0.041 1.509,-2.01 m 8.803,-5.039 0.288,0.063 0.086,0.041 1.938,4.111 -1.888,0.103 -0.433,-0.545 -1.226,-1.331 -0.374,-0.279 1.609,-2.163 m -4.853,-4.417 1.027,0.266 -0.032,0.311 0.072,1.424 0.026,0.072 0.082,0.077 0.067,0.036 1.217,0.635 1.781,0.334 0.058,0.027 0.211,0.315 0.344,0.92 -1.609,2.163 -2.398,0.109 -0.613,0.023 0.122,-0.474 0.054,-1.753 -0.05,-0.433 -0.393,-0.969 -0.426,-0.725 -0.164,-0.127 0.624,-2.231 m 21.119,-0.941 1.185,-0.081 0.023,0.4 -0.136,0.681 -0.111,0.248 -0.069,0.009 -0.09,0.013 -0.026,0.028 -0.145,0.603 -0.167,0.824 -0.134,0.68 -0.123,0.921 -4.61,-0.307 -0.005,-0.23 -0.802,-1.91 -0.347,-0.289 -0.081,-1.221 0.969,-0.059 4.669,-0.31 m -4.403,4.019 4.61,0.307 1.852,2.551 0.019,0.017 0.072,0.073 0.69,1.402 0.017,0.239 -0.103,0.261 -0.028,0.108 0.009,0.069 0.353,0.67 0.108,0.208 0.242,0.283 0.082,0.095 0.028,0.018 0.04,0.027 0.027,0.019 0.021,-0.005 0.515,-0.031 -1.072,0.44 -0.072,-0.045 -0.619,-0.202 -2.175,-0.172 -0.258,0.1 -1.045,0.627 -1.236,-0.469 -1.554,-0.324 -0.523,-6.266" />
</svg>
