<?xml version="1.0" encoding="UTF-8" standalone="no"?>
<!-- Created with Inkscape (http://www.inkscape.org/) -->

<svg
   xmlns:dc="http://purl.org/dc/elements/1.1/"
   xmlns:cc="http://creativecommons.org/ns#"
   xmlns:rdf="http://www.w3.org/1999/02/22-rdf-syntax-ns#"
   xmlns:svg="http://www.w3.org/2000/svg"
   xmlns="http://www.w3.org/2000/svg"
   xmlns:sodipodi="http://sodipodi.sourceforge.net/DTD/sodipodi-0.dtd"
   xmlns:inkscape="http://www.inkscape.org/namespaces/inkscape"
   version="1.0"
   width="555.22198"
   height="351.66797"
   id="svg2"
   inkscape:version="0.48.1 r9760"
   sodipodi:docname="maryland.svg">
  <metadata
     id="metadata19">
    <rdf:RDF>
      <cc:Work
         rdf:about="">
        <dc:format>image/svg+xml</dc:format>
        <dc:type
           rdf:resource="http://purl.org/dc/dcmitype/StillImage" />
      </cc:Work>
    </rdf:RDF>
  </metadata>
  <defs
     id="defs17" />
  <sodipodi:namedview
     pagecolor="#ffffff"
     bordercolor="#666666"
     borderopacity="1"
     objecttolerance="10"
     gridtolerance="10"
     guidetolerance="10"
     inkscape:pageopacity="0"
     inkscape:pageshadow="2"
     inkscape:window-width="640"
     inkscape:window-height="480"
     id="namedview15"
     showgrid="false"
     inkscape:zoom="0.83029853"
     inkscape:cx="277.61099"
     inkscape:cy="175.83398"
     inkscape:window-x="0"
     inkscape:window-y="25"
     inkscape:window-maximized="0"
     inkscape:current-layer="svg2" />
  <path
     id="24021"
     style="font-size:12px;fill:#0000ff;fill-rule:nonzero;stroke:#000000;stroke-opacity:1;stroke-width:0.1;stroke-miterlimit:4;stroke-dasharray:none;stroke-linecap:butt;marker-start:none;stroke-linejoin:bevel"
     d="m 475.03198,134.987 2.342,-0.464 -0.387,1.041 0.817,0.741 1.208,0.883 0.009,0.027 -0.036,0.396 -0.203,1.479 -0.008,0.009 -2.48,2.267 -2.393,-0.839 0.184,-1.762 0.023,-1.208 0.078,-0.938 0.025,-0.14 0.353,-0.228 0.081,-0.137 0.148,-0.4 0.145,-0.708 0.094,-0.019 m 6.491,-1.316 -0.181,2.547 -0.157,1.019 0.383,1.343 -2.786,0.51 0.203,-1.479 0.036,-0.396 -0.009,-0.027 -1.208,-0.883 -0.817,-0.741 0.387,-1.041 2.097,-0.424 2.052,-0.428 m 0,0 2.099,-0.437 0.325,1.348 0.095,0.225 0.405,0.605 0.262,0.207 0.202,-0.041 0.582,0.176 0.59,0.446 0.884,1.051 0.049,0.116 -0.049,0 -0.167,0.077 -0.234,0.78 -0.098,0.563 0.17,0.086 0.056,-0.019 -0.011,0.095 -0.031,0.105 -0.267,0.45 -0.139,0.167 -0.608,-0.059 -0.284,-0.055 -0.019,-0.002 -0.009,-1.539 -1.856,0 0.188,1.222 0.767,0.253 -0.713,0.459 -2.144,-1.37 -0.383,-1.343 0.157,-1.019 0.181,-2.547 m 5.277,-1.103 0.063,-0.013 2.004,1.942 0.385,1.127 0.014,0.058 -0.965,1.135 -0.379,0.448 -0.406,0.445 -0.266,-0.175 -0.234,-0.168 -0.049,-0.116 -0.884,-1.051 -0.59,-0.446 -0.582,-0.176 -0.202,0.041 -0.262,-0.207 -0.405,-0.605 -0.095,-0.225 -0.325,-1.348 3.178,-0.666 m -5.232,6.012 2.144,1.37 -1.095,1.694 -0.536,-0.269 -0.162,0.121 -0.424,0.023 -0.113,-0.036 -2.068,-1.407 -0.474,-0.486 -0.198,-0.258 -0.009,-0.03 0.018,-0.069 0.123,-0.134 0.008,-0.009 2.786,-0.51 m 3.767,0.975 0.019,0.002 1.198,1.141 0.586,1.077 0.067,0.14 -0.359,1.006 -0.249,0.797 -0.365,1.635 0.087,0.286 0.066,0.113 0.289,0.238 -0.686,0.03 -0.374,-0.536 -0.248,0.028 -0.27,0.234 -0.049,0.108 -0.365,-2.149 -0.37,-0.825 -1.695,-1.236 1.095,-1.694 0.713,-0.459 0.91,0.064 m 0,0 -0.91,-0.064 -0.767,-0.253 -0.188,-1.222 1.856,0 0.009,1.539 m 3.597,11.204 -3.114,-1.764 -0.109,-0.459 -0.662,-2.682 0.049,-0.108 0.27,-0.234 0.248,-0.028 0.374,0.536 0.686,-0.03 0.004,0.171 0.059,0.27 0.513,1.745 0.046,0.126 0.157,0.289 0.19,0.252 0.446,0.324 0.834,0.672 0.036,0.067 0.045,0.267 -0.072,0.586 m -20.093,-14.599 6.099,-1.154 -0.145,0.708 -0.148,0.4 -0.081,0.137 -0.353,0.228 -0.025,0.14 -0.078,0.938 -0.023,1.208 -0.184,1.762 -0.387,0.045 -1.461,-2.006 -2.228,-1.23 -0.166,-0.184 -0.45,-0.326 -0.361,-0.135 -0.364,-0.04 -0.334,-0.009 -0.059,0.022 -0.068,0.077 -0.256,0.405 -0.348,0.641 -0.117,0.014 -0.523,-0.104 -0.301,-1.091 2.361,-0.446 m -8.061,1.496 -0.782,3.426 -1.834,2.213 -1.614,1.937 -1.059,-6.612 0.821,-0.148 4.468,-0.816 m 5.334,-0.982 0.366,-0.068 0.301,1.091 -1.032,1.767 -1.879,0.103 -1.19,-0.473 -1.618,2.227 -1.064,-0.239 0.782,-3.426 1.188,-0.217 4.146,-0.765" />
</svg>
