<?xml version="1.0" encoding="UTF-8" standalone="no"?>
<!-- Created with Inkscape (http://www.inkscape.org/) -->

<svg
   xmlns:dc="http://purl.org/dc/elements/1.1/"
   xmlns:cc="http://creativecommons.org/ns#"
   xmlns:rdf="http://www.w3.org/1999/02/22-rdf-syntax-ns#"
   xmlns:svg="http://www.w3.org/2000/svg"
   xmlns="http://www.w3.org/2000/svg"
   xmlns:sodipodi="http://sodipodi.sourceforge.net/DTD/sodipodi-0.dtd"
   xmlns:inkscape="http://www.inkscape.org/namespaces/inkscape"
   version="1.0"
   width="555.22198"
   height="351.66797"
   id="svg2"
   inkscape:version="0.48.1 r9760"
   sodipodi:docname="massachusetts.svg">
  <metadata
     id="metadata17">
    <rdf:RDF>
      <cc:Work
         rdf:about="">
        <dc:format>image/svg+xml</dc:format>
        <dc:type
           rdf:resource="http://purl.org/dc/dcmitype/StillImage" />
      </cc:Work>
    </rdf:RDF>
  </metadata>
  <defs
     id="defs15" />
  <sodipodi:namedview
     pagecolor="#ffffff"
     bordercolor="#666666"
     borderopacity="1"
     objecttolerance="10"
     gridtolerance="10"
     guidetolerance="10"
     inkscape:pageopacity="0"
     inkscape:pageshadow="2"
     inkscape:window-width="640"
     inkscape:window-height="480"
     id="namedview13"
     showgrid="false"
     inkscape:zoom="0.83029853"
     inkscape:cx="277.61099"
     inkscape:cy="175.83398"
     inkscape:window-x="0"
     inkscape:window-y="25"
     inkscape:window-maximized="0"
     inkscape:current-layer="svg2" />
  <path
     id="25007"
     style="font-size:12px;fill:#0000ff;fill-rule:nonzero;stroke:#000000;stroke-opacity:1;stroke-width:0.1;stroke-miterlimit:4;stroke-dasharray:none;stroke-linecap:butt;marker-start:none;stroke-linejoin:bevel"
     d="m 534.83198,97.543 1.529,0.27 0.121,0.293 0.13,0.541 -0.009,0.077 -2.69,0.982 -0.28,-0.238 0.365,-1.145 0.1,-0.167 0.279,-0.343 0.35,-0.382 0.055,0.004 0.05,0.108 m -0.717,-0.419 -0.77,0.974 -0.226,0.256 -0.631,0.496 -0.329,0.104 -0.089,-0.018 0.436,-0.446 0.848,-0.933 0.41,-0.469 0.351,0.036 m -6.088,-16.55 0.067,0.27 0.347,0.829 0.54,1.037 0.559,0.248 -0.901,1.87 -0.612,1.786 -0.456,-0.181 -0.748,-0.951 -1.045,-0.622 -0.919,-0.617 -0.358,-0.861 0.06,-0.136 0.509,-1.022 0.122,-0.127 0.22,-0.189 0.667,-0.568 0.869,-0.645 0.004,0 0.074,-0.031 0.063,-0.032 0.274,-0.018 0.664,-0.04 m 0.211,7.554 0.898,0.32 -0.893,2.497 -2.407,2.127 -1.182,-0.122 -0.274,-1.798 0.623,-0.46 0.463,-0.414 0.222,-0.699 -0.127,-0.271 -0.22,-0.288 -0.118,-0.185 0.501,-0.338 0.157,-0.022 0.23,0.022 0.027,0.018 0.455,0.356 1.645,-0.743 m 0.898,0.32 0.878,-0.271 0.46,0.067 0.091,0.01 0.076,0.05 0.512,0.342 1.16,1.289 1.68,2.217 0.162,0.37 0.06,0.627 -0.659,1.429 -1.388,1.636 -1.005,-1.547 -0.428,-0.297 -0.959,-0.374 -0.808,-1.47 -0.725,-1.581 0.893,-2.497 m -3.3,4.624 2.407,-2.127 0.725,1.581 0.808,1.47 0.959,0.374 0.428,0.297 1.005,1.547 -0.171,-0.01 -0.428,0.063 -0.175,0.23 -0.105,0.136 -0.017,0.031 0.031,0.419 0.044,0.153 0.145,0.298 -0.829,0.775 -0.785,0.235 -1.288,-2.042 -0.392,-0.365 -1.078,-0.6 -1.284,-2.465 m 1.735,-6.639 0.456,0.181 0.211,1.514 -1.645,0.743 -0.049,-1.014 0.387,-0.247 0.37,-0.344 0.216,-0.486 0.054,-0.347 m 6.644,6.716 0.063,0.067 0.19,0.135 0.274,0.153 0.248,0.1 0.605,0.063 0.363,-0.023 0.965,-0.099 1.303,-0.802 0.482,-0.325 0.316,-0.283 0.097,-0.212 0.02,-0.109 -0.113,-0.374 -0.176,-0.46 -0.081,-0.18 -0.297,-0.423 -0.963,-1.127 -0.15,-0.104 -0.167,-0.063 -0.266,-0.063 -0.067,0.014 -0.126,0.071 -0.069,0.064 -0.054,0.095 -0.031,0.157 0.009,0.068 -0.532,-0.207 -0.031,-0.037 0.036,-0.13 0.095,-0.104 0.162,-0.09 0.157,-0.05 0.278,-0.027 0.447,0.023 0.353,0.077 0.269,0.117 0.312,0.216 0.297,0.297 0.374,0.433 0.298,0.428 0.446,0.771 0.213,0.424 0.306,0.833 0.178,0.618 0.032,0.284 -0.148,1.231 -0.09,0.089 -0.031,-0.856 -0.022,-0.072 -0.046,-0.081 -0.239,-0.113 -0.112,-0.027 -0.068,0.014 -2.867,1.279 -0.121,0.055 -2.088,1.807 -0.333,0.433 -0.351,-0.036 -0.208,-2.51 0.659,-1.429 m 5.899,5.282 0.085,-0.045 0.15,-0.172 0.108,-0.202 0.072,-0.262 -0.044,-0.261 -0.051,-0.09 -0.099,-0.091 -0.091,-0.072 -0.053,-0.045 -0.009,-0.049 0.167,0.036 0.198,0.175 0.856,0.97 0.051,0.18 -0.006,0.135 -0.004,0.027 -0.068,0.09 -0.221,0.167 -0.122,0.054 -0.765,0.176 -0.207,0.04 -0.533,-0.036 -0.906,-0.18 -0.121,-0.054 -0.086,-0.072 -0.05,-0.104 0.14,-0.036 0.122,0.027 0.054,0.018 0.473,-0.018 0.671,-0.175 0.289,-0.131 m -15.613,-15.049 0.358,0.861 0.919,0.617 1.045,0.622 0.748,0.951 -0.054,0.347 -0.216,0.486 -0.37,0.344 -0.387,0.247 0.049,1.014 -0.455,-0.356 -0.027,-0.018 -0.23,-0.022 -0.157,0.022 -0.501,0.338 0.118,0.185 0.22,0.288 0.127,0.271 -0.222,0.699 -0.463,0.414 -0.623,0.46 -0.802,-0.127 -0.298,-0.098 -0.252,-0.235 -0.64,-1.613 0.289,-0.568 0.112,-0.366 -0.036,-0.72 -0.067,-0.703 -0.145,-0.267 -1.375,-0.559 -0.369,-0.045 -0.751,-0.094 -0.15,0.135 -0.465,0.108 -0.694,-0.707 -0.04,-0.09 2.28,-0.51 0.14,-0.031 0.04,-0.009 3.111,-0.717 0.233,-0.554" />
</svg>
