<?xml version="1.0" encoding="UTF-8" standalone="no"?>
<!-- Created with Inkscape (http://www.inkscape.org/) -->

<svg
   xmlns:dc="http://purl.org/dc/elements/1.1/"
   xmlns:cc="http://creativecommons.org/ns#"
   xmlns:rdf="http://www.w3.org/1999/02/22-rdf-syntax-ns#"
   xmlns:svg="http://www.w3.org/2000/svg"
   xmlns="http://www.w3.org/2000/svg"
   xmlns:sodipodi="http://sodipodi.sourceforge.net/DTD/sodipodi-0.dtd"
   xmlns:inkscape="http://www.inkscape.org/namespaces/inkscape"
   version="1.0"
   width="555.22198"
   height="351.66797"
   id="svg2"
   inkscape:version="0.48.1 r9760"
   sodipodi:docname="michigan.svg">
  <metadata
     id="metadata18">
    <rdf:RDF>
      <cc:Work
         rdf:about="">
        <dc:format>image/svg+xml</dc:format>
        <dc:type
           rdf:resource="http://purl.org/dc/dcmitype/StillImage" />
      </cc:Work>
    </rdf:RDF>
  </metadata>
  <defs
     id="defs16" />
  <sodipodi:namedview
     pagecolor="#ffffff"
     bordercolor="#666666"
     borderopacity="1"
     objecttolerance="10"
     gridtolerance="10"
     guidetolerance="10"
     inkscape:pageopacity="0"
     inkscape:pageshadow="2"
     inkscape:window-width="640"
     inkscape:window-height="480"
     id="namedview14"
     showgrid="false"
     inkscape:zoom="0.83029853"
     inkscape:cx="277.61099"
     inkscape:cy="175.83398"
     inkscape:window-x="0"
     inkscape:window-y="25"
     inkscape:window-maximized="0"
     inkscape:current-layer="svg2" />
  <path
     id="26099"
     style="font-size:12px;fill:#0000ff;fill-rule:nonzero;stroke:#000000;stroke-opacity:1;stroke-width:0.1;stroke-miterlimit:4;stroke-dasharray:none;stroke-linecap:butt;marker-start:none;stroke-linejoin:bevel"
     d="m 415.72298,103.168 2.28,-0.364 0.442,2.442 0.05,0.306 -0.919,3.16 -1.997,0.32 -0.937,-5.648 1.081,-0.216 m -1.081,0.216 0.937,5.648 -4.38,0.746 -1.05,0.178 -0.798,-4.484 -0.176,-1.133 1.1,-0.17 1.094,-0.235 3.273,-0.55 m -5.291,2.088 0.798,4.484 -4.382,0.658 -0.09,0.008 -0.731,-4.506 2.197,-0.334 2.208,-0.31 m -6.328,0.891 1.923,-0.247 0.731,4.506 -4.326,0.572 -0.56,-4.479 2.232,-0.352 m 2.654,4.259 0.09,-0.008 0.568,4.533 -2.194,0.258 -3.274,0.437 -0.626,-4.521 1.11,-0.127 4.326,-0.572 m 5.522,-0.844 0.71,4.477 -2.212,0.329 -3.362,0.563 -0.568,-4.533 4.382,-0.658 1.05,-0.178 m 4.38,-0.746 1.997,-0.32 -0.077,0.693 -0.035,0.122 -0.217,0.519 -0.31,0.207 -0.262,0.131 -0.239,0.064 -0.036,0.007 -0.411,0.212 -0.13,0.14 -0.127,0.257 -0.207,0.703 0.004,0.044 0,0.042 0.055,0.744 -0.068,1.176 -0.167,0.761 -1.068,-0.662 -0.081,-0.036 -1.185,0.171 -1.106,0.248 -0.71,-4.477 4.38,-0.746 m -11.438,6.373 0.602,4.719 -0.364,0.058 -3.854,0.59 -0.279,-0.801 -0.487,-4.027 1.108,-0.102 3.274,-0.437 m 5.556,-0.821 0.699,4.602 -1.109,0.194 -4.544,0.744 -0.602,-4.719 2.194,-0.258 3.362,-0.563 m 2.212,-0.329 1.106,-0.248 1.185,-0.171 0.081,0.036 1.068,0.662 -1.073,1.367 -0.513,0.918 -0.406,0.739 -0.04,0.078 -0.014,0.058 0.017,0.996 -2.924,0.496 -0.699,-4.602 2.212,-0.329" />
</svg>
