<?xml version="1.0" encoding="UTF-8" standalone="no"?>
<!-- Created with Inkscape (http://www.inkscape.org/) -->

<svg
   xmlns:dc="http://purl.org/dc/elements/1.1/"
   xmlns:cc="http://creativecommons.org/ns#"
   xmlns:rdf="http://www.w3.org/1999/02/22-rdf-syntax-ns#"
   xmlns:svg="http://www.w3.org/2000/svg"
   xmlns="http://www.w3.org/2000/svg"
   xmlns:sodipodi="http://sodipodi.sourceforge.net/DTD/sodipodi-0.dtd"
   xmlns:inkscape="http://www.inkscape.org/namespaces/inkscape"
   version="1.0"
   width="555.22198"
   height="351.66797"
   id="svg2"
   inkscape:version="0.48.1 r9760"
   sodipodi:docname="milwaukee.svg">
  <metadata
     id="metadata27">
    <rdf:RDF>
      <cc:Work
         rdf:about="">
        <dc:format>image/svg+xml</dc:format>
        <dc:type
           rdf:resource="http://purl.org/dc/dcmitype/StillImage" />
      </cc:Work>
    </rdf:RDF>
  </metadata>
  <defs
     id="defs25" />
  <sodipodi:namedview
     pagecolor="#ffffff"
     bordercolor="#666666"
     borderopacity="1"
     objecttolerance="10"
     gridtolerance="10"
     guidetolerance="10"
     inkscape:pageopacity="0"
     inkscape:pageshadow="2"
     inkscape:window-width="640"
     inkscape:window-height="480"
     id="namedview23"
     showgrid="false"
     inkscape:zoom="0.83029853"
     inkscape:cx="277.61099"
     inkscape:cy="175.83398"
     inkscape:window-x="0"
     inkscape:window-y="25"
     inkscape:window-maximized="0"
     inkscape:current-layer="svg2" />
  <path
     id="55131"
     style="font-size:12px;fill:#0000ff;fill-rule:nonzero;stroke:#000000;stroke-opacity:1;stroke-width:0.1;stroke-miterlimit:4;stroke-dasharray:none;stroke-linecap:butt;marker-start:none;stroke-linejoin:bevel"
     d="m 366.55998,100.125 1.122,-0.085 0.108,1.325 -0.121,0.956 0.175,2.258 -3.316,0.238 -0.186,-2.262 0.158,-0.013 -0.167,-2.241 2.227,-0.176 m 1.122,-0.085 2.29,-0.203 0.063,0.649 -0.099,0.419 -0.154,0.357 -0.23,0.401 -0.071,0.157 -0.059,0.181 -0.032,0.144 -0.19,1.564 0.033,0.184 0.171,0.487 0.045,0.068 -1.605,0.131 -0.175,-2.258 0.121,-0.956 -0.108,-1.325 m 1.767,4.408 0.992,4.448 -2.277,0.189 -0.32,-4.506 1.605,-0.131 m -1.605,0.131 0.32,4.506 -2.221,0.199 -2.208,0.167 -0.307,-4.566 1.1,-0.068 3.316,-0.238 m -8.842,0.621 4.426,-0.315 0.307,4.566 -2.218,0.171 -2.228,0.113 -0.287,-4.535 m 0.725,-5.71 1.123,-0.081 3.388,-0.235 0.073,0.848 0.022,0.279 0.167,2.241 -0.158,0.013 0.186,2.262 -1.1,0.068 -4.426,0.315 -0.085,-1.121 -0.312,-4.499 1.122,-0.09 m 4.008,9.961 2.208,-0.167 0.248,2.988 0.134,1.501 -3.803,0.316 -0.654,0.045 -0.351,-4.512 2.218,-0.171 m 4.429,-0.366 2.277,-0.189 0.401,2.232 -1.854,0.144 -1.748,0.149 0.064,0.757 -1.113,0.094 -0.248,-2.988 2.221,-0.199 m -1.973,3.187 1.113,-0.094 -0.064,-0.757 1.748,-0.149 1.854,-0.144 0.244,2.285 -3.778,0.261 -0.983,0.099 -0.134,-1.501 m -4.674,-2.65 0.351,4.512 -1.55,0.103 -4.026,0.221 -0.342,-4.457 3.339,-0.266 2.228,-0.113 m -2.6,-5.543 0.085,1.121 0.287,4.535 -3.339,0.266 -4.422,0.139 -0.292,-4.506 1.027,-1.196 3.336,-0.242 0.013,0.166 2.408,-0.189 0.897,-0.094 m -2.539,-4.467 1.1,-0.086 0.008,0.153 1.119,-0.099 0.312,4.499 -0.897,0.094 -2.408,0.189 -0.013,-0.166 -3.336,0.242 -0.072,-0.103 0.023,-0.176 0.374,-0.617 0.086,-0.027 0.135,0.017 0.099,-0.031 0.226,-0.112 0.171,-0.154 -0.141,-2.299 -0.063,-0.053 -1.266,-0.374 -0.476,-0.528 1.724,-0.135 3.295,-0.234 m -4.85,10.528 4.422,-0.139 0.342,4.457 -0.338,0.021 -4.123,0.213 -0.266,-3.988 -0.037,-0.564 m -5.507,0.919 5.544,-0.355 0.266,3.988 -0.843,0.049 -4.728,0.275 -0.239,-3.957 m -2.515,-4.515 2.194,-0.505 0.321,5.02 0.239,3.957 -2.027,0.1 0.036,-0.062 -0.006,-0.073 -0.103,-0.325 -0.6,-1.091 -0.068,-0.068 -0.108,-0.053 -0.473,-0.113 -1.221,-0.234 -0.496,-0.118 -0.262,-0.121 -0.761,-0.505 -0.117,-0.243 -0.861,-1.912 -0.211,-0.986 0.91,-0.141 0.076,-0.03 2.862,-1.835 0.676,-0.662 m 7.73,-0.91 0.292,4.506 0.037,0.564 -5.544,0.355 -0.321,-5.02 2.242,0.343 3.294,-0.748 m -12.945,-2.07 5.013,-0.265 0.202,3.245 -0.676,0.662 -2.862,1.835 -0.076,0.03 -0.91,0.141 -0.2,-1.226 0.245,-0.951 0.72,-1.213 0.036,-0.161 -0.283,-0.455 -0.217,-0.275 -1.001,-0.704 0.009,-0.663 m 8.248,-2.154 1.11,-0.081 0.301,5.02 -0.008,0.033 -2.242,-0.343 -2.194,0.505 -0.202,-3.245 -0.122,-1.682 3.357,-0.207 m -0.081,-1.122 4.901,-0.307 0.476,0.528 1.266,0.374 0.063,0.053 0.141,2.299 -0.171,0.154 -0.226,0.112 -0.099,0.031 -0.135,-0.017 -0.086,0.027 -0.374,0.617 -0.023,0.176 0.072,0.103 -1.027,1.196 -3.294,0.748 0.008,-0.033 -0.301,-5.02 -1.11,0.081 -0.081,-1.122" />
</svg>
