<?xml version="1.0" encoding="UTF-8" standalone="no"?>
<!-- Created with Inkscape (http://www.inkscape.org/) -->

<svg
   xmlns:dc="http://purl.org/dc/elements/1.1/"
   xmlns:cc="http://creativecommons.org/ns#"
   xmlns:rdf="http://www.w3.org/1999/02/22-rdf-syntax-ns#"
   xmlns:svg="http://www.w3.org/2000/svg"
   xmlns="http://www.w3.org/2000/svg"
   xmlns:sodipodi="http://sodipodi.sourceforge.net/DTD/sodipodi-0.dtd"
   xmlns:inkscape="http://www.inkscape.org/namespaces/inkscape"
   version="1.0"
   width="555.22198"
   height="351.66797"
   id="svg2"
   inkscape:version="0.48.1 r9760"
   sodipodi:docname="minnesota.svg">
  <metadata
     id="metadata94">
    <rdf:RDF>
      <cc:Work
         rdf:about="">
        <dc:format>image/svg+xml</dc:format>
        <dc:type
           rdf:resource="http://purl.org/dc/dcmitype/StillImage" />
      </cc:Work>
    </rdf:RDF>
  </metadata>
  <defs
     id="defs92" />
  <sodipodi:namedview
     pagecolor="#ffffff"
     bordercolor="#666666"
     borderopacity="1"
     objecttolerance="10"
     gridtolerance="10"
     guidetolerance="10"
     inkscape:pageopacity="0"
     inkscape:pageshadow="2"
     inkscape:window-width="640"
     inkscape:window-height="480"
     id="namedview90"
     showgrid="false"
     inkscape:zoom="0.83029853"
     inkscape:cx="277.61099"
     inkscape:cy="175.83398"
     inkscape:window-x="0"
     inkscape:window-y="25"
     inkscape:window-maximized="0"
     inkscape:current-layer="svg2" />
  <path
     id="27099"
     style="font-size:12px;fill:#0000ff;fill-rule:nonzero;stroke:#000000;stroke-opacity:1;stroke-width:0.1;stroke-miterlimit:4;stroke-dasharray:none;stroke-linecap:butt;marker-start:none;stroke-linejoin:bevel"
     d="m 324.23798,98.652 2.245,0.108 0.163,4.313 -0.974,0.036 -4.399,0.157 -0.23,0.01 -0.143,-4.511 0.035,0 3.303,-0.113 m -3.338,0.113 0.143,4.511 -4.182,0.121 -1.416,0.036 -0.108,-4.511 2.244,-0.058 3.319,-0.099 m -5.563,0.157 0.108,4.511 -3.006,0.068 -2.582,0.041 -0.082,-4.493 4.453,-0.1 1.109,-0.027 m -5.562,0.127 0.082,4.493 -1.826,0.031 -3.84,0.055 -0.054,-4.499 4.507,-0.063 1.131,-0.017 m -5.683,0.08 0.045,0 0.054,4.499 -0.568,0.009 -4.412,0.04 -0.622,0 -0.01,-4.494 5.513,-0.054 m -11.083,0.05 5.476,0.004 0.094,0 0.01,4.494 -3.8,0.023 -1.79,-0.005 0.01,-4.516 m -3.728,-0.018 3.615,0.018 0.113,0 -0.01,4.516 -3.736,-0.013 0.018,-4.521 m 0.027,-4.489 3.457,0.013 0.14,0 -0.009,4.494 -3.615,-0.018 0.027,-4.489 m 7.941,0.018 1.213,-0.013 0.023,4.506 -5.476,-0.004 -0.113,0 0.009,-4.494 4.344,0.005 m 1.213,-0.013 3.268,-0.01 2.317,1.1 0.045,3.362 -5.513,0.054 -0.094,0 -0.023,-4.506 m 5.585,1.09 4.539,-0.072 0.058,3.371 -4.507,0.063 -0.045,0 -0.045,-3.362 m 10.073,-1.316 0.108,4.498 -4.453,0.1 -1.131,0.017 -0.058,-3.371 -0.059,-2.014 0.378,0.13 1.915,0.911 0.113,0.089 0.276,0.158 0.269,0.082 0.081,-0.01 0.388,-0.189 0.014,-0.09 -0.104,-0.82 2.263,0.509 m 2.244,-0.054 1.096,-0.036 0.121,4.503 -2.244,0.058 -1.109,0.027 -0.108,-4.498 2.244,-0.054 m 4.426,-0.135 0.145,4.503 -0.035,0 -3.319,0.099 -0.121,-4.503 3.33,-0.099 m 0.05,0 3.345,-0.099 0.053,4.489 -3.303,0.113 -0.145,-4.503 0.05,0 m 3.345,-0.099 1.179,-0.027 2.137,-0.081 0.05,1.127 2.218,-0.086 0.139,3.357 -3.425,0.307 -2.245,-0.108 -0.053,-4.489 m 7.535,-0.262 2.907,2.055 1.312,0.451 1.347,1.713 -4.142,0.198 -3.236,0.135 -0.139,-3.357 1.951,-1.195 m -3.632,-3.231 1.478,0.563 2.154,2.668 -1.951,1.195 -2.218,0.086 -0.05,-1.127 -2.137,0.081 -0.076,-2.249 1.064,-1.159 1.736,-0.058 m -4.629,-3.187 0.95,0.807 0.099,0.126 0.023,0.126 0.667,0.663 0.145,0.067 0.392,0.046 1.239,0.049 0.158,0.036 0.104,0.05 0.089,0.077 0.032,0.049 0.731,1.091 -1.736,0.058 -1.064,1.159 0.076,2.249 -1.179,0.027 -3.345,0.099 -0.095,-3.557 -0.013,-0.558 1.09,-0.406 1.164,-0.04 0.508,-1.127 -0.035,-1.091 m -7.202,2.421 2.23,-0.064 2.258,0.865 0.095,3.557 -0.05,0 -3.33,0.099 -1.096,0.036 -0.107,-4.493 m -3.552,0.09 3.552,-0.09 0.107,4.493 -2.244,0.054 -2.263,-0.509 -0.022,-0.379 0.442,-1.32 0.279,-1.127 0.149,-1.122 m -0.149,1.122 -0.279,1.127 -0.442,1.32 0.022,0.379 0.104,0.82 -0.014,0.09 -0.388,0.189 -0.081,0.01 -0.269,-0.082 -0.276,-0.158 -0.113,-0.089 -1.915,-0.911 -0.378,-0.13 -0.843,-0.866 -0.221,-0.216 -0.108,-0.077 -1.952,-0.987 -0.391,-0.194 -0.295,-0.09 1.443,-0.013 6.396,-0.122 m -7.839,0.135 0.295,0.09 0.391,0.194 1.952,0.987 0.108,0.077 0.221,0.216 0.843,0.866 0.059,2.014 -4.539,0.072 -2.317,-1.1 0.005,-1.122 2.226,-0.031 -0.032,-2.79 0.788,0.527 m -0.788,-0.527 0.032,2.79 -2.226,0.031 -0.005,1.122 -3.268,0.01 -1.213,0.013 -0.031,-4.48 2.155,-0.005 -0.009,-2.023 4.565,2.542 m -6.68,3.966 -4.344,-0.005 -0.14,0 -0.126,-5.606 4.494,0 0.085,1.131 0.031,4.48 m -4.61,-5.611 0.126,5.606 -3.457,-0.013 0.028,-4.48 0.008,-1.131 3.295,0.018 m -3.281,-2.272 5.522,0.009 1.017,-1.113 0,-0.577 2.336,2.353 1.131,0.703 0.009,2.023 -2.155,0.005 -0.085,-1.131 -4.494,0 -3.295,-0.018 0.014,-2.254 m 3.191,-4.782 0.609,0.316 2.739,2.785 0,0.577 -1.017,1.113 -5.522,-0.009 0.014,-5.981 1.145,0.243 0.387,0.176 0.085,0.186 0.924,0.373 0.636,0.221 m 14.644,3.565 0.076,2.258 -1.208,0.022 0.036,2.254 0.063,1.114 -1.443,0.013 -0.788,-0.527 -4.565,-2.542 -1.131,-0.703 -0.014,-1.776 2.15,-0.022 4.484,-0.055 2.34,-0.036 m 4.547,2.173 2.245,0.946 -1.28,1.285 -0.149,1.122 -6.396,0.122 -0.063,-1.114 -0.036,-2.254 1.208,-0.022 0.018,1.127 0.334,-0.004 1.898,-0.037 -0.01,-1.009 1.114,-0.14 1.117,-0.022 m -2.312,-3.34 2.226,-0.032 0.086,3.372 -1.117,0.022 -1.114,0.14 0.01,1.009 -1.898,0.037 -0.334,0.004 -0.018,-1.127 -0.076,-2.258 2.235,-1.167 m 2.226,-0.032 2.245,-0.041 0.018,1.123 2.258,-0.059 0.027,1.122 -0.189,0 -0.339,0.141 -0.463,0.734 -0.009,0.189 0.063,0.117 -0.225,0.302 -0.771,0.604 -0.243,0.1 -0.041,-0.014 -2.245,-0.946 -0.086,-3.372 m 4.548,2.145 1.753,0.127 0.041,0.947 0.121,1.117 0.366,-0.009 0.004,1.122 -2.23,0.064 -3.552,0.09 1.28,-1.285 0.041,0.014 0.243,-0.1 0.771,-0.604 0.225,-0.302 -0.063,-0.117 0.009,-0.189 0.463,-0.734 0.339,-0.141 0.189,0 m -0.072,-5.696 2.672,2.641 0.506,1.884 -1.353,1.298 -1.753,-0.127 -0.027,-1.122 -2.258,0.059 -0.018,-1.123 0.117,-1.307 0.816,-1.554 0.126,-0.104 1.087,-0.554 0.085,0.009 m 3.178,4.525 1.447,-0.077 2.05,1.817 0.654,0.378 0.035,1.091 -0.508,1.127 -1.164,0.04 -1.09,0.406 0.013,0.558 -2.258,-0.865 -0.004,-1.122 -0.366,0.009 -0.121,-1.117 -0.041,-0.947 1.353,-1.298 m 1.289,-5.314 2.478,-0.072 -0.139,1.122 -0.19,1.699 0.028,0.424 0.224,0.478 0.196,0.906 -0.07,0.973 -0.319,1.524 -2.05,-1.817 -0.104,-3.006 -0.054,-2.231 m -27.439,2.29 7.202,-0.027 0.009,3.367 -2.15,0.022 0.014,1.776 -2.336,-2.353 -2.739,-2.785 m 7.099,-3.385 1.117,-0.004 3.343,-0.046 0.015,1.118 0.121,5.602 -4.484,0.055 -0.009,-3.367 -0.103,-3.358 m 4.475,1.068 2.077,-0.031 0.861,-0.01 0.527,0.55 1.114,-0.036 0.117,3.926 -2.235,1.167 -2.34,0.036 -0.121,-5.602 m 4.579,0.473 1.907,-1.821 1.653,1.032 0.915,0.523 0.131,0.032 0.766,-0.027 0.803,0.022 0.559,0.573 -1.087,0.554 -0.126,0.104 -0.816,1.554 -0.117,1.307 -2.245,0.041 -2.226,0.032 -0.117,-3.926 m 6.724,-3.696 0.059,1.857 0.036,2.182 -0.085,-0.009 -0.559,-0.573 -0.803,-0.022 -0.766,0.027 -0.131,-0.032 -0.915,-0.523 -1.653,-1.032 -0.965,-1.744 3.529,-0.086 2.253,-0.045 m 0.059,1.857 0.545,0 2.605,-0.08 1.303,-0.01 0.05,1.483 0.054,2.231 -1.849,1.199 -2.672,-2.641 -0.036,-2.182 m 2.708,4.823 1.849,-1.199 0.104,3.006 -1.447,0.077 -0.506,-1.884 m 3.224,-9.064 -0.367,1.122 -0.012,0.204 0.004,0.085 0.023,0.342 0.031,0.253 0.122,0.094 0.433,0.073 0.18,-0.028 0.713,0.384 0.445,0.842 0.18,0.911 -0.342,0.874 -0.24,0.297 -0.012,0.01 -0.109,0.099 -2.478,0.072 -0.05,-1.483 -0.081,-1.686 -1.091,-0.161 -0.063,-2.227 2.714,-0.077 m -2.714,0.077 0.063,2.227 1.091,0.161 0.081,1.686 -1.303,0.01 -2.605,0.08 -0.545,0 -0.059,-1.857 -0.085,-2.258 3.362,-0.049 m -6.062,-6.437 2.348,-0.107 0.929,-0.014 0.027,0.847 -0.009,0.338 0.041,1.848 -0.357,0.374 -0.4,0.014 0.035,1.374 0.086,1.812 0.085,2.258 -2.253,0.045 -0.117,-3.38 -0.072,-1.307 -0.347,-0.752 -0.046,0 -0.053,-2.232 0.103,-1.118 m -4.156,6.112 -0.743,-0.591 3.092,-0.085 2.222,-0.027 0.117,3.38 -3.529,0.086 -1.159,-2.763 m -3.357,0.068 3.357,-0.068 1.159,2.763 0.965,1.744 -1.907,1.821 -1.114,0.036 -0.527,-0.55 -0.861,0.01 -2.077,0.031 -0.015,-1.118 -3.343,0.046 -0.018,-2.228 -0.077,0 -0.017,-2.239 0,-0.185 4.475,-0.063 m -4.475,0.248 0.017,2.239 0.077,0 0.018,2.228 -1.117,0.004 -4.473,0.027 -0.008,-2.231 -0.095,0 -0.009,-2.249 5.59,-0.018 m -5.59,0.018 0.009,2.249 0.095,0 0.008,2.231 -3.352,0.009 -1.132,-0.014 0.009,-2.226 -0.107,0 0,-2.245 4.47,-0.004 m 0.112,4.48 4.473,-0.027 0.103,3.358 -7.202,0.027 -0.609,-0.316 -0.117,-3.033 3.352,-0.009 m -9.856,-2.272 5.274,0.041 0.107,0 -0.009,2.226 1.132,0.014 0.117,3.033 -0.636,-0.221 -0.924,-0.373 -0.085,-0.186 -0.387,-0.176 -1.145,-0.243 -0.149,-0.744 -0.172,-0.396 -0.297,-0.239 -0.87,-0.424 -1.325,-1.469 -0.631,-0.843 m 2.371,-5.593 2.803,0.018 0.1,3.371 0,2.245 -5.274,-0.041 -0.162,-0.207 -0.036,-0.05 0.126,-0.432 0.031,-0.072 0.014,-0.014 0.018,-0.023 0.014,-0.018 0.824,-0.662 0.312,-0.203 0.347,-0.189 0.184,-0.185 0.631,-0.937 0.014,-0.032 0.009,-0.018 0.009,-0.027 0.009,-0.064 0.022,-0.117 0.032,-0.279 0.04,-0.342 0.005,-0.014 0,-0.027 0.05,-0.563 -0.122,-1.118 m 2.812,-1.1 4.448,0.009 0.01,2.24 0.099,0 0.004,2.236 -4.47,0.004 -0.1,-3.371 0.009,-1.118 m 10.056,-0.009 0.095,4.291 0,0.185 -5.59,0.018 -0.004,-2.236 -0.099,0 -0.01,-2.24 5.608,-0.018 m 3.677,-3.416 0.703,0.252 0.19,7.392 -4.475,0.063 -0.095,-4.291 -0.118,-3.375 3.795,-0.041 m 0.703,0.252 0.253,0.23 0.726,0.32 0.089,0.022 0.425,-0.153 0.175,-0.112 0.063,-0.109 0.302,-0.022 0.69,0.464 0.059,0.095 0.022,0.131 -0.271,0.45 -0.009,0.681 0.014,0.428 5.062,-0.095 0.053,2.232 0.046,0 0.347,0.752 0.072,1.307 -2.222,0.027 -3.092,0.085 0.743,0.591 -3.357,0.068 -0.19,-7.392 m 2.804,0.866 0.081,-0.023 0.045,-0.135 -0.009,-0.532 -0.086,-3.24 -0.144,-0.614 -0.018,-0.756 0.005,-1.483 5.034,-0.068 0.027,1.875 -0.274,0.942 0.103,4.255 0.004,0.031 0.028,0.027 0.103,0.067 -0.103,1.118 -5.062,0.095 -0.014,-0.428 0.009,-0.681 0.271,-0.45 m 11.219,-9.894 0.053,3.336 0.005,1.113 0.026,0.636 0.028,0.477 0.072,0.302 0.067,1.934 0.114,3.353 -3.39,0.153 0.009,-0.338 -0.027,-0.847 -0.929,0.014 -2.348,0.107 -0.103,-0.067 -0.028,-0.027 -0.004,-0.031 -0.103,-4.255 0.274,-0.942 -0.027,-1.875 -0.059,-2.921 6.37,-0.122 m -3.025,11.304 3.39,-0.153 0.057,2.276 -0.789,0.032 0.109,3.218 -3.362,0.049 -0.086,-1.812 -0.035,-1.374 0.4,-0.014 0.357,-0.374 -0.041,-1.848 m 3.276,-3.506 6.811,-0.217 0.121,3.345 0.023,0.559 0.018,0.505 -1.312,0.819 -1.875,1.231 -0.003,0.005 -0.448,0.392 -0.113,0.149 -0.112,0.202 -0.905,1.812 -2.714,0.077 -0.109,-3.218 0.789,-0.032 -0.057,-2.276 -0.114,-3.353 m -0.198,-4.462 4.692,-0.149 2.064,-0.054 0.136,1.289 0.117,3.159 -6.811,0.217 -0.067,-1.934 -0.072,-0.302 -0.028,-0.477 -0.026,-0.636 -0.005,-1.113 m -0.969,-23.811 0.933,0.004 6.116,3.385 0.225,-0.157 1.794,-0.131 0.23,0.419 0.393,0.82 0.04,0.063 0.072,0.1 1.581,0.536 0.203,4.89 0.054,1.091 0.213,2.713 0.278,7.437 -0.404,0.202 -0.361,0.266 -1.51,1.294 -0.23,0.212 -0.068,0.085 0.06,0.18 0.225,0.352 0.36,0.428 0.099,0.054 -0.046,0.032 -0.125,-0.054 -0.513,-0.501 -0.24,0.018 -0.63,0.429 -0.05,0.103 -0.009,0.095 0.031,0.081 0,0.009 0.045,0.05 0.009,0.009 0.009,0.144 -0.121,0.316 -0.041,0.04 -0.044,0.027 -0.267,0.018 -0.248,-0.022 -0.202,-0.14 -0.136,-1.289 -2.064,0.054 -4.692,0.149 -0.053,-3.336 -0.033,-1.063 -0.144,-1.803 -0.054,-1.555 -0.121,-2.979 -0.153,-1.483 -0.055,-1.302 -0.004,-0.893 -0.019,-0.491 -0.098,-1.172 -0.087,-0.586 -0.075,-2.231 -0.024,-2.199 -0.049,-2.718 m -26.713,24.838 4.799,0.027 4.197,-0.054 0.112,4.481 0.118,3.375 -5.608,0.018 -4.448,-0.009 0.01,-2.24 -0.136,0 0.004,-4.48 0.952,-1.118 m -5.427,1.096 4.475,0.022 -0.004,4.48 0.136,0 -0.01,2.24 -0.009,1.118 -2.803,-0.018 0.167,-0.469 0.022,-0.081 0.018,-0.261 -0.027,-0.226 -0.343,-2.704 -1.239,-2.984 -0.383,-1.113 0,-0.004 m 14.324,-6.707 0,1.163 0.017,0.924 0.063,0.149 0.019,2.226 0,1.122 -4.197,0.054 -4.799,-0.027 -0.167,-5.561 1.127,-0.005 4.561,-0.009 3.376,-0.036 m 3.439,4.44 0.036,2.231 0.098,3.033 0.433,0.32 -3.795,0.041 -0.112,-4.481 0,-1.122 3.34,-0.022 m 0.928,-7.793 2.227,-0.478 0.287,0.207 0.546,0.154 0.217,-0.126 1.568,-0.744 0.203,0.031 0.135,0.122 0.342,0.599 0.023,0.23 -0.017,0.036 0,0.32 0.072,0.194 0.103,0.108 0.758,0.514 0.238,0.149 0.1,-0.055 0.216,-0.189 0.004,-0.049 0.171,0.013 0.645,0.122 0.085,0.045 0.131,6.441 -5.034,0.068 -0.005,1.483 0.018,0.756 0.144,0.614 0.086,3.24 0.009,0.532 -0.045,0.135 -0.081,0.023 -0.022,-0.131 -0.059,-0.095 -0.69,-0.464 -0.302,0.022 -0.063,0.109 -0.175,0.112 -0.425,0.153 -0.089,-0.022 -0.726,-0.32 -0.253,-0.23 -0.703,-0.252 -0.433,-0.32 -0.098,-3.033 -0.036,-2.231 1.126,-0.009 -0.018,-2.227 -0.107,-4.421 -0.073,-1.136 m -4.521,0.018 4.521,-0.018 0.073,1.136 0.107,4.421 0.018,2.227 -1.126,0.009 -3.34,0.022 -0.019,-2.226 -0.063,-0.149 -0.017,-0.924 0,-1.163 -0.154,-3.335 m 18.322,-6.495 0.004,0.893 0.055,1.302 0.153,1.483 0.121,2.979 0.054,1.555 0.144,1.803 0.033,1.063 -6.37,0.122 -0.072,-3.52 -0.085,-0.045 -0.645,-0.122 -0.171,-0.013 -0.004,0.049 -0.216,0.189 -0.1,0.055 -0.238,-0.149 -0.758,-0.514 -0.103,-0.108 -0.072,-0.194 0,-0.32 0.017,-0.036 -0.023,-0.23 -0.342,-0.599 -0.135,-0.122 -0.203,-0.031 -1.568,0.744 -0.217,0.126 -0.546,-0.154 -0.287,-0.207 -0.005,-1.447 -0.067,-1.613 -0.032,-2.074 5.62,-0.121 -0.014,-0.672 6.072,-0.072 m 17.699,-4.57 0.149,1.622 0.158,2.416 0.256,5.242 -0.194,0.117 -0.684,0.766 -0.238,0.28 -1.087,1.505 -1.412,1.695 -0.171,0.184 -0.356,0.24 -0.473,0.257 -1.109,1.14 -0.275,0.301 -0.483,0.578 -0.278,-7.437 -0.213,-2.713 -0.054,-1.091 -0.203,-4.89 0.489,-0.077 0.238,0.054 0.009,0.014 0.031,0.054 0.126,0.622 -0.063,0.28 -0.031,0.081 0.004,0.031 0.627,0.184 1.347,0.316 1.389,-0.099 0.332,-0.058 0.204,-0.073 0.134,-0.072 0.006,0 1.825,-1.469 m 0,0 0.46,-0.383 0.775,-0.379 0.334,0 0.031,0.009 0.041,0.05 0.347,0.77 0.148,0.424 0,0.009 0.279,0.564 0.091,0.085 1.573,-0.293 3.415,-0.27 0.353,-0.018 0.393,0.072 0.156,0.036 0.451,0.18 0.244,0.334 0.044,0.104 -0.018,0.175 0.041,0.09 0.226,0.163 0.64,0.306 0.211,0.014 0.216,-0.104 1.66,-0.306 1.446,-0.185 -0.013,0.121 -0.032,0.036 -0.496,0.388 -0.144,0.108 -1.861,1.095 -1.189,0.65 -0.677,0.369 -0.636,0.275 -0.779,0.261 -0.6,0.212 -1.654,0.694 -0.816,0.348 -1.686,1.103 -1.113,0.925 -1.298,1.248 -0.256,-5.242 -0.158,-2.416 -0.149,-1.622 m -37.522,-3.344 1.132,-0.005 0.027,2.222 6.788,-0.104 0.198,6.666 0.032,2.074 0.067,1.613 0.005,1.447 -2.227,0.478 -4.521,0.018 -0.04,-3.336 -0.099,-2.55 -0.325,-1.885 -3.087,0.014 -0.104,-1.952 -0.005,-2.456 -0.076,-0.004 -0.014,-0.55 0,-1.659 2.249,-0.031 m -2.041,7.756 -0.009,-1.104 3.087,-0.014 0.325,1.885 0.099,2.55 0.04,3.336 0.154,3.335 -3.376,0.036 -0.05,-4.471 0,-2.218 -0.134,0 -0.091,-0.207 -0.045,-3.128 m 0.27,5.553 0.05,4.471 -4.561,0.009 0,-4.457 4.511,-0.023 m -4.511,0.023 0,4.457 -1.127,0.005 -5.589,-0.023 -0.045,-1.118 -0.158,-3.353 6.919,0.032 m -3.769,-8.65 0.145,2.696 0,1.483 1.136,1.121 4.507,0 1.118,-1.126 -0.005,-1.118 1.109,0.018 0.045,3.128 0.091,0.207 0.134,0 0,2.218 -4.511,0.023 -6.919,-0.032 -0.302,-2.222 -1.135,-2.592 -0.839,-3.024 -0.203,-0.784 0,-0.031 5.629,0.035 m -5.706,-4.773 6.712,0.05 6.796,0.072 0,1.659 0.014,0.55 0.076,0.004 0.005,2.456 -3.539,0.028 -1.577,-0.014 -0.648,-0.027 -2.133,-0.005 -5.629,-0.035 0.005,-0.262 0.284,-1.095 -0.055,-3.074 -0.202,-0.248 -0.068,-0.036 -0.041,-0.023 m 13.603,4.791 0.104,1.952 0.009,1.104 -1.109,-0.018 -0.005,-0.365 -6.751,0.005 -0.145,-2.696 2.133,0.005 0.648,0.027 1.577,0.014 3.539,-0.028 m -0.996,3.038 0.005,1.118 -1.118,1.126 -4.507,0 -1.136,-1.121 0,-1.483 6.751,-0.005 0.005,0.365 m -13.102,-13.661 7.08,0.072 -0.014,3.602 0.136,1.234 0.005,0.974 -6.712,-0.05 0.632,-1.753 -0.379,-0.861 -0.167,-0.496 -0.622,-2.032 -0.05,-0.27 0.01,-0.19 0.04,-0.189 0.041,-0.041 m 16.378,0.072 -0.022,0.221 0.036,0.622 0.189,0.365 0.397,0.244 0.145,0.036 0.099,0 0.671,-0.14 0.085,-0.036 0.19,-0.113 0.212,-0.22 0.04,2.649 -2.181,0.018 0.013,2.205 -2.249,0.031 -6.796,-0.072 -0.005,-0.974 -0.136,-1.234 0.014,-3.602 9.298,0 m 0,0 1.456,-0.013 -0.017,-2.366 -0.009,-0.83 -0.009,-1.329 -0.005,-0.365 0,-0.014 1.677,0.163 0.414,0.247 0.731,0.519 0.468,2.388 0.217,1.537 0.549,2.822 0.401,0.365 0.139,0.126 0.574,0.32 0.247,0.136 0.014,0.013 0.122,0.009 0.436,0.045 0.33,-0.145 0.086,4.336 -6.788,0.104 -0.027,-2.222 -1.132,0.005 -0.013,-2.205 2.181,-0.018 -0.04,-2.649 -0.212,0.22 -0.19,0.113 -0.085,0.036 -0.671,0.14 -0.099,0 -0.145,-0.036 -0.397,-0.244 -0.189,-0.365 -0.036,-0.622 0.022,-0.221 m 7.821,7.964 -0.086,-4.336 0.121,-0.049 0.235,-0.018 0.694,0.009 0.154,0.027 0.265,0.144 0.081,0.162 0.005,0.086 0.009,0.257 0,0.005 0.053,0.036 0.177,0.045 0.847,0.049 0.635,-0.009 1.834,0.158 0.055,0.045 0.108,0.198 0.144,0.402 0.018,0.116 -0.045,0.334 -0.058,0.099 0,0.059 0.031,0.045 0.181,0.131 0.329,0 0.815,-0.027 1.014,-0.194 0.663,-0.23 0.054,-0.063 0.031,-0.144 -0.003,-0.072 -0.042,-0.086 -0.045,-0.167 0.015,-0.059 1,-0.468 0.793,-0.23 0.41,-0.009 0.243,0.216 0.307,-0.009 0.018,0 0.464,-0.049 0.049,2.718 0.024,2.199 0.075,2.231 0.087,0.586 0.098,1.172 0.019,0.491 -6.072,0.072 0.014,0.672 -5.62,0.121 -0.198,-6.666 m 22.778,57.515 3.236,-0.135 0.204,4.476 -3.264,0.139 -3.438,0.14 -0.163,-4.313 3.425,-0.307 m 7.378,-0.333 0.226,1.559 0.617,2.889 -3.668,0.176 -1.113,0.05 -0.204,-4.476 4.142,-0.198" />
</svg>
