<?xml version="1.0" encoding="UTF-8" standalone="no"?>
<!-- Created with Inkscape (http://www.inkscape.org/) -->

<svg
   xmlns:dc="http://purl.org/dc/elements/1.1/"
   xmlns:cc="http://creativecommons.org/ns#"
   xmlns:rdf="http://www.w3.org/1999/02/22-rdf-syntax-ns#"
   xmlns:svg="http://www.w3.org/2000/svg"
   xmlns="http://www.w3.org/2000/svg"
   xmlns:sodipodi="http://sodipodi.sourceforge.net/DTD/sodipodi-0.dtd"
   xmlns:inkscape="http://www.inkscape.org/namespaces/inkscape"
   version="1.0"
   width="555.22198"
   height="351.66797"
   id="svg2"
   inkscape:version="0.48.1 r9760"
   sodipodi:docname="missouri.svg">
  <metadata
     id="metadata58">
    <rdf:RDF>
      <cc:Work
         rdf:about="">
        <dc:format>image/svg+xml</dc:format>
        <dc:type
           rdf:resource="http://purl.org/dc/dcmitype/StillImage" />
      </cc:Work>
    </rdf:RDF>
  </metadata>
  <defs
     id="defs56" />
  <sodipodi:namedview
     pagecolor="#ffffff"
     bordercolor="#666666"
     borderopacity="1"
     objecttolerance="10"
     gridtolerance="10"
     guidetolerance="10"
     inkscape:pageopacity="0"
     inkscape:pageshadow="2"
     inkscape:window-width="640"
     inkscape:window-height="480"
     id="namedview54"
     showgrid="false"
     inkscape:zoom="0.83029853"
     inkscape:cx="277.61099"
     inkscape:cy="175.83398"
     inkscape:window-x="0"
     inkscape:window-y="25"
     inkscape:window-maximized="0"
     inkscape:current-layer="svg2" />
  <path
     id="29133"
     style="font-size:12px;fill:#0000ff;fill-rule:nonzero;stroke:#000000;stroke-opacity:1;stroke-width:0.1;stroke-miterlimit:4;stroke-dasharray:none;stroke-linecap:butt;marker-start:none;stroke-linejoin:bevel"
     d="m 361.70998,185.598 1.961,0.211 0.365,0.47 -0.386,1.289 -0.006,0.004 -0.284,0.162 -0.005,0.005 0,0.297 0.005,0.005 0.59,0.311 -0.396,1.788 -1.551,0.348 -2.181,-2.938 1.888,-1.952 m -1.925,-2.979 0.258,0.369 0.626,1.172 0.36,0.883 0.681,0.555 -1.888,1.952 -1.749,0.248 -0.036,-0.695 -0.158,-0.441 -0.221,-0.537 -0.163,-0.262 -0.207,-0.278 -0.197,-1.195 2.694,-1.771 m -4.064,-4.305 3.465,0.199 0.009,0.117 0.064,0.258 0.004,0.003 0.288,0.537 0.189,0.283 0.267,0.262 0.126,0.158 0.162,0.365 0.004,0.01 0.005,0.021 0.058,0.217 0.005,0.014 -0.005,0.017 -0.04,0.397 -0.041,0.122 -0.008,0.013 -0.01,0.009 -0.009,0.013 -0.117,0.06 -0.369,0.099 0.017,1.131 -2.694,1.771 -1.027,0.063 -0.343,-6.139 m -1.006,-3.528 2.723,0.756 1.748,2.894 0,0.077 -3.465,-0.199 -2.889,0.208 -0.036,-0.578 0.341,-0.404 1.578,-2.754 m 1.006,3.528 0.343,6.139 -0.948,0.045 0.064,0.946 -0.596,0.222 -0.946,0.05 -0.027,-0.582 -1.15,0.063 -0.125,-2.967 0.734,-0.007 -0.108,-2.98 -0.13,-0.721 2.889,-0.208 m 0.343,6.139 1.027,-0.063 0.197,1.195 0.207,0.278 0.163,0.262 0.221,0.537 0.158,0.441 0.036,0.695 -0.13,0.009 0.238,3.005 -2.651,0.15 -1.942,0.098 0.091,-0.158 0.027,-0.252 -0.127,-0.46 -0.333,-0.639 -0.094,-0.068 -0.069,-0.027 -0.355,-0.784 -0.501,-1.321 1.411,-1.635 0.946,-0.05 0.596,-0.222 -0.064,-0.946 0.948,-0.045 m -0.534,6.509 0.177,3.118 0.342,5.053 -3.407,0.243 -0.823,0.054 1.593,-2.772 1.127,-0.991 0.072,-0.113 0.109,-0.297 -0.067,-1.024 -0.1,-0.134 -0.919,-1.298 -0.406,0.013 -0.275,0.018 0.635,-1.772 1.942,-0.098 m -3.303,-3.611 0.501,1.321 0.355,0.784 0.069,0.027 0.094,0.068 0.333,0.639 0.127,0.46 -0.027,0.252 -0.091,0.158 -0.635,1.772 -3.655,0.208 -1.118,-4.012 -0.248,-1.483 4.295,-0.194 m -3.267,-4.958 3.376,-0.163 0.125,2.967 1.15,-0.063 0.027,0.582 -1.411,1.635 -4.295,0.194 -1.117,-1.55 -0.041,-0.884 0.387,-0.649 -0.013,-0.788 -0.045,-0.569 1.857,-0.712 m 3.836,-4.449 0.036,0.578 0.13,0.721 0.108,2.98 -0.734,0.007 -3.376,0.163 -0.095,-4.236 3.931,-0.213 m -0.935,-5.763 2.854,2.605 -1.578,2.754 -0.463,-0.343 -0.441,0.418 -1.953,-1.762 -0.824,-0.796 1.293,-1.417 -0.982,-0.73 1.582,-1.112 0.512,0.383 m -4.375,0.414 2.281,0.315 0.982,0.73 -1.293,1.417 0.824,0.796 1.953,1.762 0.441,-0.418 0.463,0.343 -0.341,0.404 -3.931,0.213 -1.181,-1.123 -0.198,-4.439 m -1.249,-5.008 0.113,-0.207 1.316,-0.329 1.857,-0.103 0.635,1.185 0.077,0.293 -0.028,0.036 -0.045,0.09 -0.147,0.5 -0.019,0.054 -0.009,0.131 0.019,0.541 0.135,0.58 0.117,0.289 0.185,0.253 0.032,0.045 0.026,0.028 0.848,0.825 -1.582,1.112 -2.281,-0.315 -1.501,-1.578 0.252,-3.43 m 5.919,-4.763 -0.726,0.886 -0.5,0.015 -0.406,0.306 -0.248,0.514 0.157,1.013 0.127,0.687 0.415,0.215 -0.045,0.159 -0.695,1.807 -0.077,-0.293 -0.635,-1.185 -1.857,0.103 -1.316,0.329 -0.113,0.207 -0.085,-2.243 0.234,-0.105 0.293,-0.459 0.131,-0.099 0.072,-0.024 0.86,0.051 0.15,-0.014 0.163,-0.091 0.066,-0.126 -0.009,-0.148 0.505,-1.091 0.235,-0.429 0.067,-0.075 0.073,-0.032 0.107,0 0.357,0.067 0.149,-0.013 0.112,-0.094 0.063,-0.1 0.078,-0.175 0.017,-0.154 0.721,-0.063 0.099,0.103 0.618,0.37 0.171,0.064 0.243,-0.163 0.171,-0.014 0.163,0.105 0.095,0.189 m -3.444,-1.902 1.775,0.432 0.257,0.078 0.252,0.121 0.19,0.112 0.978,0.591 0.041,0.072 0.009,0.076 -0.036,0.298 -0.022,0.122 -0.095,-0.189 -0.163,-0.105 -0.171,0.014 -0.243,0.163 -0.171,-0.064 -0.618,-0.37 -0.099,-0.103 -0.721,0.063 -0.017,0.154 -0.078,0.175 -0.063,0.1 -0.112,0.094 -0.149,0.013 -0.357,-0.067 -0.107,0 -0.073,0.032 -0.067,0.075 -0.235,0.429 -0.505,1.091 0.009,0.148 -0.066,0.126 -0.163,0.091 -0.15,0.014 -0.86,-0.051 -0.072,0.024 -0.131,0.099 -0.293,0.459 -0.234,0.105 -2.254,1.315 -0.166,-4.2 2.867,-0.979 2.113,-0.558 m 2.718,2.788 0.206,1.038 -0.661,1.712 -0.415,-0.215 -0.127,-0.687 -0.157,-1.013 0.248,-0.514 0.406,-0.306 0.5,-0.015 m -7.532,2.949 2.254,-1.315 0.085,2.243 -0.252,3.43 -3.172,0.171 -2.732,0.064 -0.059,-1.582 -0.144,-2.309 -0.126,-2.464 0.442,-0.139 0.112,0.012 0.838,0.681 0.063,0.122 2.691,1.086 m 2.087,4.358 1.501,1.578 0.198,4.439 -4.602,0.181 -0.269,-6.027 3.172,-0.171 m 1.699,6.017 1.181,1.123 0.095,4.236 -1.857,0.712 -0.181,0.023 -0.293,-1.874 -0.099,-2.439 -1.932,0.094 -1.971,0.307 -0.057,-1.421 0.512,-0.58 4.602,-0.181 m -5.057,2.182 1.971,-0.307 1.932,-0.094 0.099,2.439 0.293,1.874 0.181,-0.023 0.045,0.569 0.013,0.788 -0.387,0.649 0.041,0.884 -2.461,-0.46 -0.744,-0.992 -1.077,-3.064 -0.371,0.009 -0.049,-1.123 -1.044,0.009 -0.042,-1.14 1.6,-0.018 m 1.727,6.319 2.461,0.46 1.117,1.55 0.248,1.483 -2.313,0.108 -1.594,-0.04 -0.74,0.022 -1.136,-0.726 -0.072,-2.627 1.095,-0.063 0.934,-0.167 m -0.821,3.583 0.74,-0.022 1.594,0.04 2.313,-0.108 1.118,4.012 -2.142,0.116 -3.514,0.199 -0.109,-4.237 m -5.588,-0.573 4.452,-0.153 1.136,0.726 0.109,4.237 -2.885,0.153 -0.441,0.013 -2.287,0.082 -0.062,-1.375 0.018,-2.371 -0.04,-1.312 m -0.204,-6.941 4.421,-0.116 0.371,-0.009 1.077,3.064 0.744,0.992 -0.934,0.167 -1.095,0.063 0.072,2.627 -4.452,0.153 -0.073,-2.082 -0.131,-4.859 m 4.829,-3.809 0.057,1.421 -1.6,0.018 0.042,1.14 1.044,-0.009 0.049,1.123 -4.421,0.116 -1.098,0.033 -0.1,-2.268 -0.551,0.022 -0.081,-2.501 2.803,-0.094 2.232,-0.086 0.032,1.131 1.592,-0.046 m -2.489,-6.543 2.732,-0.064 0.269,6.027 -0.512,0.58 -1.592,0.046 -0.032,-1.131 -2.232,0.086 -0.278,-4.72 1.645,-0.824 m -0.329,-6.355 0.126,2.464 0.144,2.309 0.059,1.582 -1.645,0.824 -0.964,0.032 -0.226,-1.75 -0.203,-5.393 2.208,-0.181 0.501,0.113 m 0.856,-3.863 0.757,-0.018 0.568,0.739 0.749,0.735 1.05,-0.031 0.166,4.2 -2.691,-1.086 -0.063,-0.122 -0.838,-0.681 -0.112,-0.012 -0.442,0.139 -0.501,-0.113 -0.054,-1.763 1.5,-0.053 -0.089,-1.934 m 5.255,-3.29 0.464,1.582 -0.008,0.162 -0.271,0.419 -0.01,0.041 0.025,0.09 0,0.005 0.536,1.437 -2.867,0.979 -1.05,0.031 -0.749,-0.735 -0.568,-0.739 -0.757,0.018 -0.054,-1.91 0.743,-0.027 -0.036,-1.15 1.781,-0.055 2.821,-0.148 m -4.794,-4.616 2.375,2.466 2.419,2.15 -2.821,0.148 -1.781,0.055 0.036,1.15 -0.743,0.027 -1.478,0.035 -0.401,-2.271 -0.299,-1.705 2.44,-2.041 0.253,-0.014 m -0.515,5.996 0.054,1.91 0.089,1.934 -1.5,0.053 0.054,1.763 -2.208,0.181 -0.068,0.009 -0.081,-4.625 2.182,-1.19 1.478,-0.035 m -10.525,-2.241 5.869,-0.135 0,0.193 1.469,-0.049 1.308,-0.004 0.401,2.271 -2.182,1.19 -4.733,0.139 -0.04,-2.284 -2.083,-0.004 -0.009,-1.317 m 5.712,-4.273 3.938,-0.54 1.39,1.058 -0.253,0.014 -2.44,2.041 0.299,1.705 -1.308,0.004 -1.469,0.049 0,-0.193 -0.157,-4.138 m 2.37,-3.852 0.983,2.383 0.585,0.929 -3.938,0.54 -1.303,0.05 -0.099,-3.768 3.772,-0.134 m -0.63,-3.917 -0.06,0.631 0.69,3.286 -3.772,0.134 -1.104,0.032 -0.149,-3.993 4.395,-0.09 m -2.309,-4.446 0.203,0.127 0.771,0.582 0.023,0.085 -0.032,0.262 0.036,0.09 0.982,1.208 0.407,0.329 0.639,0.046 -0.72,1.717 -4.395,0.09 -0.017,-0.568 -0.105,-3.962 2.208,-0.006 m -2.208,0.006 0.105,3.962 -3.886,0.13 -0.046,-0.568 -0.13,-3.254 1.658,-0.108 2.299,-0.162 m -3.781,4.092 3.886,-0.13 0.017,0.568 0.149,3.993 -3.29,0.098 -0.605,-1.081 -0.157,-3.448 m 4.052,4.431 1.104,-0.032 0.099,3.768 -3.335,0.081 0.018,0.767 -1.113,0.027 -0.063,-4.513 3.29,-0.098 m 2.506,3.686 0.157,4.138 -5.869,0.135 -0.04,-3.348 0.019,0 1.113,-0.027 -0.018,-0.767 3.335,-0.081 1.303,-0.05 m -3.58,7.878 4.733,-0.139 0.081,4.625 -0.486,-0.037 -0.325,0.037 -1.298,0.554 -0.089,0.058 -0.073,0.081 -0.072,0.132 -0.798,0.757 -0.397,0.296 -2.159,-0.851 -0.076,-0.717 0.509,-0.892 0.055,-1.897 0.193,-1.88 0.054,-0.121 0.148,-0.006 m 4.814,4.486 0.068,-0.009 0.203,5.393 -2.403,0.092 -1.41,0.076 -1.722,0.024 -0.009,-0.564 1.735,-3.134 0.397,-0.296 0.798,-0.757 0.072,-0.132 0.073,-0.081 0.089,-0.058 1.298,-0.554 0.325,-0.037 0.486,0.037 m 0.271,5.384 0.226,1.75 0.04,1.334 -1.439,0.041 -1.212,0.072 -0.428,0.199 -0.816,0.383 -1.658,-0.005 -0.036,-1.884 -0.163,0 -0.049,-1.698 1.722,-0.024 1.41,-0.076 2.403,-0.092 m 0.226,1.75 0.964,-0.032 0.278,4.72 -2.803,0.094 0.081,2.501 -2.235,0.05 -0.14,-5.304 0.816,-0.383 0.428,-0.199 1.212,-0.072 1.439,-0.041 -0.04,-1.334 m -3.715,7.333 2.235,-0.05 0.551,-0.022 0.1,2.268 1.098,-0.033 0.131,4.859 -2.051,0.072 -1.27,-0.013 -1.105,0.036 -1.659,0.027 -0.049,-2.064 -0.068,-0.473 -0.103,-2.831 -0.04,-1.712 2.23,-0.064 m -5.115,-10.537 0.92,0 -0.009,1.091 1.59,0.18 0.559,-0.189 0.009,0.564 0.049,1.698 0.163,0 0.036,1.884 -2.227,0.023 -0.905,0.018 -0.582,-0.366 -0.189,-0.185 -0.283,-0.564 -0.015,-0.374 -0.095,-0.4 -0.379,-0.537 -0.562,-0.099 0.612,-2.735 1.308,-0.009 m 0.851,-4.084 1.785,1.181 2.159,0.851 -1.735,3.134 -0.559,0.189 -1.59,-0.18 0.009,-1.091 -0.92,0 0.851,-4.084 m 0.545,-6.62 2.083,0.004 0.04,2.284 -0.148,0.006 -0.054,0.121 -0.193,1.88 -0.055,1.897 -0.509,0.892 0.076,0.717 -1.785,-1.181 -1.122,-2.334 -0.613,-0.613 1.132,-3.66 1.148,-0.013 m 29.996,36.272 -0.736,2.019 -0.91,2.466 -2.339,0.176 -0.342,-5.053 0.496,0 1.581,-0.1 0.758,-0.292 0.747,-0.135 0.204,0.086 0.541,0.833 m -1.961,-6.674 1.749,-0.248 2.181,2.938 -0.798,1.789 -0.698,0.069 0.101,-0.19 0.016,-0.032 0.013,-0.049 0.032,-0.127 0.009,-0.035 0,-0.055 -0.004,-0.022 0,-0.005 -0.032,-0.14 -0.063,-0.149 -0.006,-0.013 -0.066,-0.103 -0.014,-0.009 -0.022,-0.018 -0.027,-0.018 -0.158,-0.045 -0.288,-0.045 -0.189,0.026 -0.064,0.04 -0.118,0.158 -0.017,0.023 -0.013,0.049 -0.014,0.059 -0.01,0.045 0.01,0.041 0.01,0.054 0.004,0.009 0.112,0.239 0.014,0.014 0.229,0.328 0.082,2.096 -0.541,-0.833 -0.204,-0.086 -0.747,0.135 -0.758,0.292 -1.581,0.1 -0.496,0 -0.177,-3.118 2.651,-0.15 -0.238,-3.005 0.13,-0.009" />
</svg>
