<?xml version="1.0" encoding="UTF-8" standalone="no"?>
<!-- Created with Inkscape (http://www.inkscape.org/) -->

<svg
   xmlns:dc="http://purl.org/dc/elements/1.1/"
   xmlns:cc="http://creativecommons.org/ns#"
   xmlns:rdf="http://www.w3.org/1999/02/22-rdf-syntax-ns#"
   xmlns:svg="http://www.w3.org/2000/svg"
   xmlns="http://www.w3.org/2000/svg"
   xmlns:sodipodi="http://sodipodi.sourceforge.net/DTD/sodipodi-0.dtd"
   xmlns:inkscape="http://www.inkscape.org/namespaces/inkscape"
   version="1.0"
   width="555.22198"
   height="351.66797"
   id="svg2"
   inkscape:version="0.48.1 r9760"
   sodipodi:docname="mississippi.svg">
  <metadata
     id="metadata90">
    <rdf:RDF>
      <cc:Work
         rdf:about="">
        <dc:format>image/svg+xml</dc:format>
        <dc:type
           rdf:resource="http://purl.org/dc/dcmitype/StillImage" />
      </cc:Work>
    </rdf:RDF>
  </metadata>
  <defs
     id="defs88" />
  <sodipodi:namedview
     pagecolor="#ffffff"
     bordercolor="#666666"
     borderopacity="1"
     objecttolerance="10"
     gridtolerance="10"
     guidetolerance="10"
     inkscape:pageopacity="0"
     inkscape:pageshadow="2"
     inkscape:window-width="640"
     inkscape:window-height="480"
     id="namedview86"
     showgrid="false"
     inkscape:zoom="0.83029853"
     inkscape:cx="277.61099"
     inkscape:cy="175.83398"
     inkscape:window-x="0"
     inkscape:window-y="25"
     inkscape:window-maximized="0"
     inkscape:current-layer="svg2" />
  <path
     id="28163"
     style="font-size:12px;fill:#0000ff;fill-rule:nonzero;stroke:#000000;stroke-opacity:1;stroke-width:0.1;stroke-miterlimit:4;stroke-dasharray:none;stroke-linecap:butt;marker-start:none;stroke-linejoin:bevel"
     d="m 354.16098,238.077 4.385,1.431 -0.685,1.757 -0.108,0.171 -0.617,0.442 -3.169,1.799 -0.401,0.094 -1.072,0.924 -1.881,-1.335 -0.062,-0.558 0.504,-0.068 0.104,-0.108 0.013,-0.167 -0.338,-1.019 -0.292,-0.293 -0.293,-0.233 -0.203,-0.05 -0.018,-0.28 1.05,-1.185 2.227,-0.139 -0.059,-1.11 0.915,-0.073 m 8.162,-15.467 0.288,3.809 -2.785,0.184 -0.027,-0.382 -1.667,0.093 -0.274,-3.438 2.203,-0.509 2.262,0.243 m 5.288,11.006 2.946,-0.226 0.357,4.653 -1.095,0.076 -4.359,0.248 -0.144,-2.29 1.114,-0.085 -0.076,-1.137 1.035,-1.22 0.222,-0.019 m -20.896,26.416 0.709,0.294 0.598,4.133 -1.281,0.063 -5.079,0.239 0.267,-2.015 0.162,-0.672 0.104,-0.229 1.406,-1.307 1.478,-0.609 0.357,-0.126 0.45,-0.081 0.775,0.26 0.054,0.05 m 19.368,-32.184 1.676,-0.131 0.334,2.276 -0.713,0.429 -3.06,1.166 -1.338,0.1 -0.24,-3.39 3.341,-0.45 m 9.572,23.207 0.261,2.528 0.429,3.362 -4.29,0.361 -1.118,0.084 -0.371,-5.038 0.357,-0.053 4.732,-1.244 m -30.991,-19.183 4.831,-0.257 0.691,3.326 0.28,2.241 -2.224,1.267 -2.617,0.089 0.315,-0.356 0.009,-0.009 0.338,-1.403 0,-0.011 -0.031,-0.98 -0.28,-0.297 -0.365,-0.662 -0.541,-1.547 0.555,-0.162 0.13,-0.257 -0.085,-0.301 -0.446,-0.301 -0.546,-0.372 -0.014,-0.008 m 1.907,12.25 1.433,-0.058 0.113,2.001 1.09,-0.339 0.921,-1.766 0.485,-0.6 1.881,1.335 -1.689,3.755 -0.263,0.315 -0.536,0.635 -1.132,1 -0.298,-0.04 -0.946,-0.294 -1.1,-1.285 1.257,-0.156 -0.076,-1.861 -1.203,-1.28 -0.009,-0.023 -0.046,-0.072 -0.031,-0.045 0,-0.014 -0.019,-0.207 0.245,-0.825 -0.077,-0.176 m 10.181,15.303 2.244,0.045 0.082,1.315 0.19,0.744 0.428,0.528 0.806,0.509 0.807,0.13 0.212,0.934 -4.669,0.31 -0.284,-4.503 0.184,-0.012 m 9.623,-42.773 3.714,-0.258 0.076,1.136 -0.788,1.935 -4.463,0.134 -0.108,-1.5 -0.071,-1.132 1.64,-0.315 m -12.9,-2.555 1.088,1.707 0.157,2.2 0.031,0.563 -1.113,0.081 0.096,1.1 -1.034,0.072 -1.879,-1.208 -0.144,-1.501 1.622,-2.583 1.176,-0.431 m 20.111,-3.168 1.712,-0.141 1.182,1.248 -0.108,4.053 -0.036,1.546 -1.83,0.143 -0.694,-3.745 -0.226,-3.104 m -6.842,0.54 2.034,-0.158 1.333,2.997 -0.022,2.086 -3.714,0.258 -0.203,-2.808 0.554,-0.04 0.145,-0.578 -0.127,-1.757 m -12.181,4.335 1.027,-0.17 1.969,-0.645 1.979,-0.127 0.085,1.122 0.568,0.091 0.113,1.573 -0.555,0.035 -5.029,0.321 -0.157,-2.2 m 1.135,7.261 2.16,-0.189 0.274,3.438 0.036,0.587 0.027,0.374 -1.077,0.247 -1.15,0.082 0.068,1.136 -0.42,-0.838 -0.139,-0.266 -2.866,0.143 -0.123,-2.258 -0.067,-1.127 2.772,-0.166 0.573,-0.036 -0.068,-1.127 m -3.21,2.456 0.123,2.258 0.351,6.234 -1.101,0.068 0.051,0.757 -1.726,0.103 -0.691,-3.326 -0.062,-1.122 1.118,-0.062 -0.253,-4.805 2.19,-0.105 m 19.593,38.545 0.175,2.253 0.06,0.749 -3.858,0.284 -0.051,0.387 -1.122,0.077 -0.229,-3.373 2.24,-0.156 2.785,-0.221 m -10.438,-16.234 4.426,-0.319 0.446,5.425 -0.92,0.131 -2.731,0.397 -1.068,-3.381 -0.153,-2.253 m 0.153,2.253 1.068,3.381 -1.109,0.153 -2.384,0.32 -1.609,0.217 -1.411,-3.759 5.445,-0.312 m -11.33,-12.903 0.612,2.217 -1.05,1.185 0.018,0.28 0.203,0.05 0.293,0.233 0.292,0.293 0.338,1.019 -0.013,0.167 -0.104,0.108 -0.504,0.068 -2.614,0.135 -0.108,-2.268 0.063,-0.189 0.054,-0.008 0.076,-0.058 0.05,-0.083 0.184,-1.004 -0.014,-0.878 2.224,-1.267 m 10.825,5.327 0.054,0.739 4.403,-0.292 0.321,4.557 -4.426,0.319 -0.893,-4.669 0.541,-0.654 m -0.541,0.654 0.893,4.669 0.153,2.253 -5.445,0.312 -0.279,-0.798 0.392,-1.826 0.658,-0.951 0.739,-1.05 -0.063,-0.221 0.005,-0.166 0.04,-0.096 0.59,-0.657 1.515,-1.393 0.563,-0.067 0.239,-0.009 m -5.999,-24.596 0.198,2.394 0.672,0.734 0.077,1.37 0.068,1.127 -0.573,0.036 -2.772,0.166 -0.14,-2.451 0.551,-0.022 -0.132,-2.101 1.034,-0.072 -0.096,-1.1 1.113,-0.081 m 19.061,-4.534 0.694,3.745 -2.25,0.158 -2.091,-0.406 -0.076,-1.136 0.022,-2.086 3.701,-0.275 m -4.435,5.432 0.287,3.75 -3.334,0.256 -1.208,-1.045 -0.208,-2.827 4.463,-0.134 m -15.965,40.167 3.156,-0.195 0.284,4.503 -0.969,0.059 -2.209,0.141 -0.262,-4.508 m 17.525,-2.242 1.118,-0.084 0.504,5.598 -0.478,1.162 -2.785,0.221 -0.091,-1.167 -0.193,-1.6 -0.292,-3.975 2.217,-0.155 m -4.061,5.766 0.18,1.287 0.229,3.373 -1.532,0.104 -0.681,0.428 0.085,1.312 -1.09,0.815 -0.487,0.032 -1.852,-2.551 0.123,-0.921 0.134,-0.68 0.167,-0.824 0.145,-0.603 0.026,-0.028 0.09,-0.013 0.069,-0.009 0.111,-0.248 0.136,-0.681 -0.023,-0.4 0.816,-0.06 3.354,-0.333 m -12.156,-45.152 5.029,-0.321 0.312,4.684 -2.203,0.509 -2.16,0.189 -0.077,-1.37 -0.672,-0.734 -0.198,-2.394 -0.031,-0.563 m 13.373,11.989 0.365,-0.05 3.334,-0.265 0.064,0.761 0.245,2.826 -1.544,0.125 -2.946,0.226 -0.231,-3.194 0.713,-0.429 m 4.008,3.272 3.897,-0.326 -0.076,3.868 -0.015,0.807 -4.993,0.429 -0.357,-4.653 1.544,-0.125 m -6.298,9.685 4.353,-0.32 0.347,4.549 -4.434,0.334 -0.321,-4.557 0.055,-0.006 m -0.343,-4.583 4.359,-0.248 0.337,4.511 -4.353,0.32 -0.343,-4.583 m -2.678,-9.496 0.2,2.817 1.338,-0.1 -0.622,2.307 -2.051,0.145 -0.113,-1.514 -0.738,0.058 -0.758,-0.135 -0.239,-3.367 2.983,-0.211 m 13.446,-6.328 -0.01,0.369 -0.104,4.083 -2.726,1.452 0.177,-0.32 -0.064,-0.077 -2.336,0.175 -0.135,-1.685 -0.248,-3.407 1.845,-0.334 3.601,-0.256 m -16.05,-10.623 3.056,-0.198 0.275,1.284 0.419,0.617 0.252,3.385 0.555,-0.041 0.071,1.132 -1.108,-0.27 -1.371,-0.316 -0.931,0.044 -1.092,0.091 -0.113,-1.573 -0.568,-0.091 -0.085,-1.122 -0.198,-2.88 0.838,-0.062 m 2.97,46.016 0.374,5.553 -0.816,0.06 -1.185,0.081 -0.212,-0.934 -0.807,-0.13 -0.806,-0.509 -0.428,-0.528 -0.19,-0.744 -0.082,-1.315 0.848,-0.758 1.488,-0.09 -0.049,-0.567 1.865,-0.119 m -4.602,-18.428 2.537,-0.231 0.208,3.232 -0.541,0.654 -0.239,0.009 -0.563,0.067 -1.515,1.393 -0.59,0.657 -0.04,0.096 -0.005,0.166 0.063,0.221 -1.375,0.077 -0.558,-0.054 -0.063,-1.036 -0.398,0.021 -1.833,0.104 -0.068,-1.113 0.401,-0.094 3.169,-1.799 0.617,-0.442 0.108,-0.171 0.685,-1.757 m 14.842,-11.061 2.726,-1.452 -0.057,2.745 -0.059,3.199 -3.897,0.326 -0.245,-2.826 1.532,-1.992 m -16.938,26.245 0.302,4.733 -0.184,0.012 -3.156,0.195 -0.937,0.058 -0.189,-3.381 -1.14,0.068 -0.055,-1.127 5.359,-0.558 m -3.839,-26.913 2.866,-0.143 0.139,0.266 0.42,0.838 0.121,0.572 0.281,0.176 0.026,0.135 0.157,2.488 -0.355,0.572 -0.391,0.019 0.067,1.081 -1.66,0.496 -1.32,-0.266 -0.351,-6.234 m 17.554,-10.249 2.091,0.406 0.371,4.863 -1.845,0.334 -1.118,0.082 -0.287,-3.75 0.788,-1.935 m -4.705,20.837 0.343,4.583 -0.055,0.006 -4.403,0.292 -0.054,-0.739 -0.208,-3.232 -0.04,-0.586 1.835,-0.13 2.582,-0.194 m -7.698,15.789 1.609,-0.217 0.104,1.726 0.261,1.349 0.108,1.698 -0.848,0.758 -2.244,-0.045 -0.302,-4.733 1.312,-0.536 m 12.394,-11.526 5.675,-0.455 -0.077,3.503 -0.026,1.054 -5.225,0.447 -0.347,-4.549 m -4.787,15.153 0.087,1.127 1.131,-0.081 0.289,4.327 -3.354,0.333 -0.374,-5.553 0.739,-0.048 1.482,-0.105 m -5.62,-40.1 0.555,-0.035 1.092,-0.091 0.931,-0.044 1.371,0.316 1.108,0.27 0.108,1.5 0.208,2.827 -2.799,0.184 -2.262,-0.243 -0.312,-4.684 m 11.165,20.36 4.993,-0.429 -0.076,4.561 -5.675,0.455 -0.337,-4.511 1.095,-0.076 m -0.348,14.309 0.371,5.038 -2.217,0.155 -2.774,0.198 -0.351,-4.674 0.92,-0.131 4.051,-0.586 m -25.176,0.983 2.564,-0.031 1.894,0.356 0.027,0.152 0.004,0.145 0.086,0.225 1.068,-0.063 0.058,1.131 0.055,1.127 -4.556,0.258 -2.448,-1.65 1.248,-1.65 m 13.981,0.604 2.384,-0.32 0.135,2.127 0.649,0.374 0.294,0.144 0.396,0.05 0.392,0.23 0.199,0.316 0.067,1.028 -0.739,0.048 -1.865,0.119 0.049,0.567 -1.488,0.09 -0.108,-1.698 -0.261,-1.349 -0.104,-1.726 m 11.132,-6.76 0.42,5.12 -0.357,0.053 -4.051,0.586 -0.446,-5.425 4.434,-0.334 m 1.753,19.14 5.216,-0.404 0.572,4.691 -0.009,0.189 -0.794,0.51 -0.089,0.032 -2.786,-0.099 -0.208,-0.046 -0.752,-0.424 -0.396,-0.234 -0.694,-3.466 -0.06,-0.749 m 4.08,-48.684 -0.108,4.908 -3.601,0.256 -0.371,-4.863 2.25,-0.158 1.83,-0.143 m -28.094,20.814 0.014,0.878 -0.184,1.004 -0.05,0.083 -0.076,0.058 -0.054,0.008 -0.063,0.189 0.108,2.268 2.614,-0.135 0.062,0.558 -0.485,0.6 -0.921,1.766 -1.09,0.339 -0.113,-2.001 -1.433,0.058 -0.343,-0.107 -0.027,-0.023 -0.103,-0.09 -0.023,-0.018 -0.012,-0.024 -0.034,-0.04 -0.012,-0.022 -0.064,-0.154 -0.865,-3.92 -0.018,-0.104 0.113,-0.41 0.355,-0.573 0.087,-0.099 2.617,-0.089 m 4.72,-4.436 1.32,0.266 0.145,2.168 -0.347,0.64 -0.063,0.045 -0.122,-0.023 -0.288,-0.179 -0.135,-0.181 -0.046,0.013 -0.026,0.042 -0.038,0.215 0.05,0.428 0.024,0.068 0.522,0.433 0.203,0.129 -0.915,0.073 0.059,1.11 -2.227,0.139 -0.612,-2.217 -0.28,-2.241 1.726,-0.103 -0.051,-0.757 1.101,-0.068 m 1.32,0.266 1.66,-0.496 4.65,1.248 -2.046,4.477 -4.385,-1.431 -0.203,-0.129 -0.522,-0.433 -0.024,-0.068 -0.05,-0.428 0.038,-0.215 0.026,-0.042 0.046,-0.013 0.135,0.181 0.288,0.179 0.122,0.023 0.063,-0.045 0.347,-0.64 -0.145,-2.168 m -1.788,10.416 1.072,-0.924 0.068,1.113 1.833,-0.104 0.398,-0.021 0.063,1.036 0.558,0.054 1.375,-0.077 -0.739,1.05 -0.658,0.951 -0.392,1.826 0.279,0.798 -5.309,0.328 -0.237,-2.275 1.689,-3.755 m 19.822,22.373 0.694,3.466 -0.839,0.212 -1.767,0.458 -2.168,0.624 -0.694,-0.478 -0.257,-3.534 1.122,-0.077 0.051,-0.387 3.858,-0.284 m -8.736,3.439 0.487,-0.032 1.09,-0.815 -0.085,-1.312 0.681,-0.428 1.532,-0.104 0.257,3.534 -1.87,2.61 -0.515,0.031 -0.021,0.005 -0.027,-0.019 -0.04,-0.027 -0.028,-0.018 -0.082,-0.095 -0.242,-0.283 -0.108,-0.208 -0.353,-0.67 -0.009,-0.069 0.028,-0.108 0.103,-0.261 -0.017,-0.239 -0.69,-1.402 -0.072,-0.073 -0.019,-0.017 m -5.448,-44.193 1.667,-0.093 0.027,0.382 2.785,-0.184 0.171,2.452 -2.983,0.211 -3.642,0.23 -0.121,-0.572 -0.068,-1.136 1.15,-0.082 1.077,-0.247 -0.027,-0.374 -0.036,-0.587 m 13.923,30.992 4.29,-0.361 0.522,4.118 0.191,1.489 -4.499,0.352 -0.504,-5.598 m 0.504,5.598 4.499,-0.352 0.414,3.363 -5.216,0.404 -0.175,-2.253 0.478,-1.162 m -25.969,-6.269 4.556,-0.258 1.14,-0.068 0.189,3.381 -3.84,0.217 -1.211,0.419 -0.709,-0.294 -0.125,-3.397 m 22.13,0.91 0.292,3.975 0.193,1.6 0.091,1.167 -2.24,0.156 -0.18,-1.287 -0.289,-4.327 -1.131,0.081 -0.087,-1.127 0.577,-0.04 2.774,-0.198 m -9.38,-45.563 0.198,2.88 -1.979,0.127 -1.969,0.645 -1.027,0.17 -1.088,-1.707 -0.265,-1.74 6.13,-0.375 m 6.255,41.087 0.351,4.674 -0.577,0.04 -1.482,0.105 -0.067,-1.028 -0.199,-0.316 -0.392,-0.23 -0.396,-0.05 -0.294,-0.144 -0.649,-0.374 -0.135,-2.127 1.109,-0.153 2.731,-0.397 m -9.244,-2.672 1.411,3.759 -1.312,0.536 -5.359,0.558 -0.058,-1.131 0.009,-3.394 5.309,-0.328 m -5.53,-31.785 1.879,1.208 0.132,2.101 -0.551,0.022 0.14,2.451 0.067,1.127 -2.19,0.105 -0.121,-1.7 -1.695,0.067 -1.195,0.072 -0.036,-0.126 0.153,-0.319 0.479,-0.987 1.01,-1.812 0.553,-0.108 0.555,-0.114 0.459,-0.22 0.365,-0.32 0.023,-0.018 0.01,-0.023 0.076,-0.248 -0.113,-1.158 m 20.209,7.928 0.135,1.685 2.336,-0.175 0.064,0.077 -0.177,0.32 -1.532,1.992 -0.064,-0.761 -3.334,0.265 -0.365,0.05 -0.334,-2.276 3.271,-1.177 m 4.698,20.192 -0.073,4.323 -4.732,1.244 -0.42,-5.12 5.225,-0.447 m -24.923,1.718 0.237,2.275 -0.009,3.394 -1.068,0.063 -0.086,-0.225 -0.004,-0.145 -0.027,-0.152 -1.894,-0.356 -2.564,0.031 2.24,-3.269 0.946,0.294 0.298,0.04 1.132,-1 0.536,-0.635 0.263,-0.315 m 16.575,-18.028 0.231,3.194 -0.222,0.019 -1.035,1.22 0.076,1.137 -1.114,0.085 -1.618,-2.182 0.622,-2.307 3.06,-1.166 m 2.284,-7.207 1.118,-0.082 0.248,3.407 -3.271,1.177 -1.676,0.131 -0.051,-0.947 0.555,-0.046 -0.257,-3.384 3.334,-0.256 m -13.507,6.097 3.642,-0.23 0.239,3.367 0.758,0.135 0.738,-0.058 0.113,1.514 -1.055,0.991 -4.65,-1.248 -0.067,-1.081 0.391,-0.019 0.355,-0.572 -0.157,-2.488 -0.026,-0.135 -0.281,-0.176 m 6.166,-6.702 2.799,-0.184 1.208,1.045 0.257,3.384 -0.555,0.046 0.051,0.947 -3.341,0.45 -0.131,-1.879 -0.288,-3.809 m -15.036,1.455 1.195,-0.072 1.695,-0.067 0.121,1.7 0.253,4.805 -1.118,0.062 0.062,1.122 -4.831,0.257 -0.148,-0.409 0.788,-0.317 0.189,-0.162 0.028,-0.139 0,-0.013 -0.302,-0.244 -0.319,-0.239 -0.064,-0.114 -0.014,-0.026 0.059,-0.293 0.856,-3.687 2.083,-1.049 0.063,-0.433 -0.113,-0.28 -0.478,-0.383 -0.005,-0.019 m 17.565,-12.457 1.892,-0.139 0.127,1.757 -0.145,0.578 -0.554,0.04 0.203,2.808 -1.64,0.315 -0.555,0.041 -0.252,-3.385 -0.419,-0.617 -0.275,-1.284 1.618,-0.114 m -1.154,22.287 1.618,2.182 0.144,2.29 -2.582,0.194 -1.835,0.13 0.04,0.586 -2.537,0.231 2.046,-4.477 1.055,-0.991 2.051,-0.145 m -10.286,25.737 0.262,4.508 -0.211,0.007 -2.858,0.167 -2.583,0.145 -0.598,-4.133 1.211,-0.419 3.84,-0.217 0.937,-0.058 m 19.998,-48.691 0.176,-0.012 0.226,3.104 -3.701,0.275 -1.333,-2.997 0.383,-0.032 4.249,-0.338 m -29.268,44.044 2.448,1.65 0.125,3.397 -0.054,-0.05 -0.775,-0.26 -0.45,0.081 -0.357,0.126 -1.478,0.609 -1.406,1.307 -0.104,0.229 -0.162,0.672 0.266,-1.389 0.41,-3.361 0.004,-0.009 0.041,-0.087 0.027,-0.053 1.176,-2.362 0.008,-0.01 0.173,-0.296 0.108,-0.194" />
</svg>
