<?xml version="1.0" encoding="UTF-8" standalone="no"?>
<!-- Created with Inkscape (http://www.inkscape.org/) -->

<svg
   xmlns:dc="http://purl.org/dc/elements/1.1/"
   xmlns:cc="http://creativecommons.org/ns#"
   xmlns:rdf="http://www.w3.org/1999/02/22-rdf-syntax-ns#"
   xmlns:svg="http://www.w3.org/2000/svg"
   xmlns="http://www.w3.org/2000/svg"
   xmlns:sodipodi="http://sodipodi.sourceforge.net/DTD/sodipodi-0.dtd"
   xmlns:inkscape="http://www.inkscape.org/namespaces/inkscape"
   version="1.0"
   width="555.22198"
   height="351.66797"
   id="svg2"
   inkscape:version="0.48.1 r9760"
   sodipodi:docname="nebraska.svg">
  <metadata
     id="metadata101">
    <rdf:RDF>
      <cc:Work
         rdf:about="">
        <dc:format>image/svg+xml</dc:format>
        <dc:type
           rdf:resource="http://purl.org/dc/dcmitype/StillImage" />
      </cc:Work>
    </rdf:RDF>
  </metadata>
  <defs
     id="defs99" />
  <sodipodi:namedview
     pagecolor="#ffffff"
     bordercolor="#666666"
     borderopacity="1"
     objecttolerance="10"
     gridtolerance="10"
     guidetolerance="10"
     inkscape:pageopacity="0"
     inkscape:pageshadow="2"
     inkscape:window-width="640"
     inkscape:window-height="480"
     id="namedview97"
     showgrid="false"
     inkscape:zoom="0.83029853"
     inkscape:cx="277.61099"
     inkscape:cy="175.83398"
     inkscape:window-x="0"
     inkscape:window-y="25"
     inkscape:window-maximized="0"
     inkscape:current-layer="svg2" />
  <path
     id="31185"
     style="font-size:12px;fill:#0000ff;fill-rule:nonzero;stroke:#000000;stroke-opacity:1;stroke-width:0.1;stroke-miterlimit:4;stroke-dasharray:none;stroke-linecap:butt;marker-start:none;stroke-linejoin:bevel"
     d="m 280.25798,135.421 -0.063,4.524 -4.435,-0.081 -0.014,0 0.082,-4.515 4.43,0.072 m -8.685,-13.697 -0.009,2.257 -0.054,2.25 -4.372,-0.104 -0.068,0 0.113,-4.517 4.39,0.114 m -4.678,22.458 4.349,0.114 0.045,0 -0.113,4.519 -2.262,-0.053 -2.177,-0.059 0.126,-4.525 0.032,0.004 m 13.615,-25.699 3.322,0.05 1.843,1.144 -0.035,2.258 -1.862,-0.022 -3.326,-0.046 0.058,-3.384 m 8.722,8.753 3.096,0.023 1.344,2.28 0.419,1.478 -3.764,-0.004 -0.924,-1.159 -0.09,-0.234 -0.086,-0.311 0.005,-2.073 m -26.497,-1.249 4.335,0.14 0.068,0 -0.126,4.493 -4.345,-0.135 0.068,-4.498 m 23.851,-6.48 3.633,0.04 -0.118,0.798 0.789,2.181 -2.691,0.392 -2.559,-0.983 0.035,-2.258 0.911,-0.17 m -39.257,1.31 5.508,0.293 -0.184,4.489 -4.269,-0.198 -1.248,-0.072 0.193,-4.512 m 32.799,23.649 -0.073,4.525 -4.439,-0.071 0.094,-4.53 4.418,0.076 m 3.65,-22.553 -0.054,4.511 -2.226,-0.027 -1.109,-0.017 0.063,-4.513 3.326,0.046 m -60.801,-14.535 -0.094,1.31 0.022,0.993 0.081,0.504 -0.347,4.494 0.334,0.027 -0.347,4.48 0.401,0.036 -0.086,1.123 -6.192,-0.479 1.091,-12.908 5.137,0.42 m 44.035,23.242 0.072,0 -0.171,4.512 -4.44,-0.145 0.194,-4.502 4.345,0.135 m -30.689,-22.27 -0.077,1.848 0.045,0.93 -0.098,2.956 0.089,1.487 -0.306,4.485 0.324,0.027 -0.648,1.091 -5.819,-0.338 -0.194,-0.01 -0.104,-0.765 -0.238,-0.398 0.252,-4.502 -0.226,-0.014 0.262,-3.726 -0.126,-0.754 0.202,-2.775 6.662,0.458 m 48.361,27.133 -0.067,4.522 -4.422,-0.06 0.063,-4.524 4.426,0.062 m -61.743,-15.138 0.366,0.036 -0.375,3.926 -6.521,-0.514 0.338,-3.927 6.192,0.479 m 61.842,9.847 4.178,0.812 1.371,2.645 0.076,1.884 -1.402,0.37 0.005,-0.375 -4.305,-0.045 0.077,-5.291 m 5.549,3.457 3.903,-0.009 0.676,0.406 -0.131,1.469 -0.216,-0.154 -0.073,-0.012 -1.324,-0.082 -0.217,0.005 -0.423,0.158 -0.095,0.062 -0.216,0.204 -0.1,0.135 -0.149,0.117 -0.288,0.144 -0.261,0.099 -0.086,-0.013 -0.712,-0.406 -0.14,-0.127 -0.072,-0.112 -0.076,-1.884 m -10.137,6.296 4.422,0.06 -0.018,2.266 -0.054,2.258 -4.417,-0.063 0.067,-4.521 m -17.523,-18.47 -4.075,-0.122 0.162,-4.52 -0.117,0 0.136,-3.844 0.711,0.152 0.523,0.059 0.19,-0.026 0.333,-0.123 2.069,-0.751 0.081,-0.037 0.095,-0.081 0.076,0.708 -0.04,4.453 -0.144,4.132 m 30.72,24.244 4.48,-0.018 2.411,3.39 -0.311,0 -4.399,0.017 -2.186,0 0.005,-3.389 m -46.36,-2.312 5.472,0.253 -0.158,4.524 -5.345,-0.256 -0.195,-0.014 0.226,-4.507 m 31.062,-11.736 2.232,-0.771 -0.068,4.521 -4.43,-0.072 0.013,-1.651 2.253,-2.027 m 2.295,-5.291 1.109,0.017 -0.073,4.738 -1.099,-0.235 -2.232,0.771 -1,-0.825 -1.181,-1.727 0.046,-2.803 4.43,0.064 m -4.377,-4.571 0.086,-4.515 3.313,0.049 1.099,1.14 -0.058,3.384 -4.44,-0.058 m -17.929,17.727 2.191,0.266 2.307,0.212 -0.135,4.024 -4.408,-0.162 -0.113,-0.005 0.158,-4.335 m -23.121,-5.311 0.004,-0.017 7.744,0.46 -0.199,3.971 -0.946,-0.055 -6.851,-0.405 0.045,-0.677 0.203,-3.277 m 53.999,11.472 3.881,0.013 0.55,0.009 -0.005,3.389 -2.24,-0.004 -2.203,-0.013 0.017,-3.394 m 5.945,-6.766 0.87,2.579 0.545,0.793 -3.479,0.013 -3.867,-0.005 0.013,-3.393 5.918,0.013 m -19.227,5.459 0.031,0 -0.094,4.53 -1.082,-0.024 -3.358,-0.081 0.113,-4.519 4.39,0.094 m 17.163,-2.074 3.479,-0.013 0.127,-0.275 0.365,0.324 -0.212,0.379 -0.112,0.104 0.054,0.229 0.635,1.596 0.681,0.663 0.026,0.067 -0.003,0.023 0,0.018 -0.01,0.234 0,0.036 -4.48,0.018 -0.55,-0.009 0,-3.394 m -21.373,-12.701 1.844,0.041 0.455,-0.184 1.614,-0.357 0.531,0.004 1.181,1.727 -0.036,1.113 -1.375,-0.009 -1.469,0.153 -0.852,0.18 -0.415,0.173 -1.193,-0.024 -0.199,-0.004 0.054,-1.681 -0.122,-0.006 -0.049,0 0.031,-1.126 m -41.83,-8.789 0.194,0.01 -0.162,2.1 -0.032,0.689 0.014,0.231 0.062,0.377 0.212,0.749 -0.22,3.209 -7.022,-0.501 0.247,-3.383 0.375,-3.926 6.332,0.445 m 41.848,9.915 0.122,0.006 -0.054,1.681 0.199,0.004 1.193,0.024 0.415,-0.173 0.852,-0.18 1.469,-0.153 1.375,0.009 0.036,-1.113 1,0.825 -2.253,2.027 -0.081,0.15 -0.279,0.375 -0.154,0.174 -0.121,0.095 -0.501,0.239 -0.211,0.076 -0.014,0 -0.054,-0.084 -0.365,0.254 -1.204,0.961 -1.018,1.015 -0.478,0.563 0.014,-2.262 0.112,-4.513 m -29.746,-5.741 2.456,0.149 1.685,0.117 1.254,0.063 1.248,0.072 -0.239,4.485 -5.345,-0.297 -1.321,-0.081 0.262,-4.508 m 34.271,-3.191 4.44,0.058 -0.063,4.513 -4.43,-0.064 0.022,-2.259 0.031,-2.248 m -13.34,-0.334 0.112,0.004 -0.144,4.503 -4.448,-0.157 0.171,-4.484 0.234,0.012 4.075,0.122 m -14.288,3.926 4.269,0.198 0.139,0.009 -0.203,4.494 -4.444,-0.216 0.239,-4.485 m -0.239,4.485 4.444,0.216 0.14,0.059 -0.054,1.641 -0.086,1.297 -0.077,1.506 0.136,0.004 -0.19,4.494 -5.386,-0.254 -4.561,-0.21 0.199,-3.971 0.09,-5.079 5.345,0.297 m 36.561,5.597 4.305,0.045 -0.005,0.375 -0.018,3.015 -0.013,3.393 -4.376,-0.04 0.018,-2.266 0.067,-4.522 0.022,0 m -12.97,-24.036 1.324,0.6 1.028,0.887 0.203,0.09 0.167,0.027 0.157,-0.008 0.478,-0.072 0.126,-0.078 0.266,-0.242 0.198,-0.284 1.087,-0.401 0.824,0.107 1.902,-0.125 -0.085,5.395 -3.313,-0.049 -4.412,-0.086 0.054,-4.202 -0.004,-1.559 m -49.178,16.798 -0.446,5.079 -1.852,-0.143 -4.615,-0.378 0.437,-5.067 6.476,0.509 m 31.46,-18.924 6.242,0.262 2.628,0.094 -0.108,2.505 -0.095,0.081 -0.081,0.037 -2.069,0.751 -0.333,0.123 -0.19,0.026 -0.523,-0.059 -0.711,-0.152 -0.082,0.031 -0.175,0 -0.695,-0.122 -2.591,-0.757 -0.541,-0.22 -0.18,-0.104 -0.587,-0.523 0.091,-1.973 m -18.087,19.861 5.548,0.326 1.321,0.081 -0.09,5.079 -7.744,-0.46 0.14,-2.821 0.825,-2.205 m 31.081,10.592 -0.117,4.408 -0.032,-0.004 -4.417,-0.14 0.135,-4.024 0.082,0.031 1.383,0.117 1.186,0.04 0.397,-0.076 0.373,-0.176 0.703,-0.14 0.307,-0.036 m 25.83,2.542 0,3.394 -3.881,-0.013 0.014,-3.386 3.867,0.005 m -12.714,2.15 4.417,0.063 -0.041,4.521 -4.449,-0.059 0.073,-4.525 m -13.044,-13.846 4.354,0.121 0.049,0 -0.112,4.513 -4.205,-0.113 -0.257,-0.009 0.171,-4.512 m -25.276,-10.149 5.521,0.346 -0.193,4.512 -1.254,-0.063 -1.685,-0.117 -2.456,-0.149 -0.185,-0.009 0.252,-4.52 m 20.972,-8.289 0.072,-0.058 0.816,-0.349 1.627,-0.676 0.108,-0.026 0.148,0.004 0.113,0.037 0.23,0.235 0.956,0.549 0.847,0.293 1.541,0.522 1.015,0.189 1.487,0.104 -0.054,4.202 -0.113,4.516 -4.39,-0.114 -4.399,-0.131 -0.112,-0.004 0.144,-4.132 0.04,-4.453 -0.076,-0.708 m -21.256,30.923 5.328,0.298 0.18,0.004 -0.226,4.507 -5.543,-0.297 0.261,-4.512 m 5.548,-4.256 -0.22,4.554 -5.328,-0.298 -0.189,-0.008 0.23,-4.513 0.946,0.055 4.561,0.21 m 10.966,5.027 4.408,0.162 -0.148,4.53 -4.386,-0.158 -0.023,0 0.149,-4.534 m 17.79,-8.527 -0.082,4.515 -4.394,-0.09 -0.045,0 0.054,-2.258 0.478,-0.563 1.018,-1.015 1.204,-0.961 0.365,-0.254 0.054,0.084 0.014,0 0.211,-0.076 0.501,-0.239 0.121,-0.095 0.154,-0.174 0.279,-0.375 0.081,-0.15 -0.013,1.651 m -8.658,-0.208 4.205,0.113 -0.014,2.262 -0.054,2.258 -4.263,-0.121 0.126,-4.512 m 4.34,-8.91 -0.041,3.384 -0.031,1.126 -4.354,-0.121 -0.072,0 0.126,-4.493 4.372,0.104 m -35.858,-5.057 0.648,-1.091 5.508,0.388 -0.252,4.52 -5.35,-0.31 -0.789,-0.046 0.235,-3.461 m 22.431,18.362 -0.158,4.335 -4.417,-0.181 0.046,-1.134 1.113,0.053 0.139,-3.398 3.277,0.325 m 4.557,-13.554 0.144,-4.503 4.399,0.131 -0.113,4.517 -4.335,-0.14 -0.095,-0.005 m -26.988,-4.808 -0.235,3.461 0.789,0.046 -0.275,4.501 -0.825,2.205 -5.341,-0.361 -0.058,-2.835 0.22,-3.209 -0.212,-0.749 -0.062,-0.377 -0.014,-0.231 0.032,-0.689 0.162,-2.1 5.819,0.338 m 53.323,21.137 -0.014,3.386 -0.017,3.394 -3.354,-0.028 -1.086,-0.013 0.041,-4.521 0.054,-2.258 4.376,0.04 m -36.471,1.349 1.004,0.03 4.417,0.181 0.113,0.005 -0.149,4.534 -5.39,-0.216 -0.153,-0.01 0.158,-4.524 m -5.432,-4.811 5.386,0.254 2.348,0.108 -0.139,3.398 -1.113,-0.053 -0.046,1.134 -1.004,-0.03 -5.472,-0.253 -0.18,-0.004 0.22,-4.554 m 19.791,5.329 -0.126,4.525 -3.34,-0.104 -1.099,-0.031 0.148,-4.53 4.417,0.14 m 13.332,-4.233 -0.067,4.521 -4.418,-0.076 -0.031,0 0.081,-4.526 4.435,0.081 m -38.86,3.152 0.189,0.008 -0.261,4.512 -0.852,-0.045 -6.274,-0.389 0.284,-4.488 6.914,0.402 m 47.626,-12.093 1.366,0.009 3.764,0.004 0.144,2.623 -3.903,0.009 -1.371,-2.645 m -0.784,-4.53 1.055,0.762 -0.005,2.073 0.086,0.311 0.09,0.234 0.924,1.159 -1.366,-0.009 -4.178,-0.812 0,-0.013 0.032,-3.742 3.362,0.037 m -4.273,-13.223 1.975,0.738 0.77,0.487 0.104,0.235 0.054,0.216 -0.036,0.152 -0.005,0.118 0.028,0.117 0.676,1.005 -0.884,3.188 -0.911,0.17 -1.843,-1.144 0.072,-5.282 m -54.139,17.775 5.341,0.361 -0.14,2.821 -0.004,0.017 -5.498,-0.368 0.301,-2.831 m 22.883,3.583 7.716,0.312 -0.09,4.881 -2.191,-0.266 -3.277,-0.325 -2.348,-0.108 0.19,-4.494 m -29.671,-27.231 4.728,0.365 1.956,0.149 -0.202,2.775 0.126,0.754 -0.262,3.726 -6.35,-0.441 -0.334,-0.027 0.347,-4.494 -0.081,-0.504 -0.022,-0.993 0.094,-1.31 m 64.493,8.941 1.821,0.465 0.324,0.023 0.126,0.049 0.1,0.139 0.04,0.149 0.004,0.199 -0.067,0.179 0.112,1.484 0.289,0.541 -3.633,-0.04 0.884,-3.188 m -29.278,9.506 4.448,0.157 0.095,0.005 -0.068,4.498 -0.194,4.502 -2.109,-0.066 -7.716,-0.312 -0.136,-0.004 0.077,-1.506 0.086,-1.297 0.054,-1.641 -0.14,-0.059 0.203,-4.494 5.4,0.217 m 25.586,-3.912 1.862,0.022 2.559,0.983 -0.022,3.556 -3.362,-0.037 -1.091,-0.013 0.054,-4.511 m -0.054,4.511 1.091,0.013 -0.032,3.742 -0.139,-0.004 -0.131,0.036 -1.443,0.698 -1.009,0.23 -0.636,-0.004 0.073,-4.738 2.226,0.027 m -7.978,13.44 0.014,0 -0.081,4.526 -4.39,-0.094 -0.045,0 0.108,-4.522 4.394,0.09 m -46.039,-11.673 0.058,2.835 -0.301,2.831 -0.312,-0.018 -7.04,-0.515 0.446,-5.079 0.127,-0.555 7.022,0.501 m 6.616,-19.841 0,0 1.942,0.127 2.344,0.18 3.736,0.194 3.016,0.158 3.407,0.158 1.83,0.086 0.672,0.031 0.748,0.037 -0.091,1.973 0.059,5.359 -0.198,4.502 -0.951,-0.045 -5.508,-0.293 -5.521,-0.346 -5.508,-0.388 -0.324,-0.027 0.306,-4.485 -0.089,-1.487 0.098,-2.956 -0.045,-0.93 0.077,-1.848 m -1.609,29.829 6.851,0.405 -0.23,4.513 -6.914,-0.402 0.293,-4.516 m 44.782,-26.231 0.586,-0.077 0.893,0.036 0.671,0.081 1.091,0.929 1.167,0.334 -0.072,5.282 -3.322,-0.05 -1.099,-1.14 0.085,-5.395 m 10.912,23.585 0.072,0.112 0.14,0.127 0.712,0.406 0.086,0.013 0.261,-0.099 0.288,-0.144 0.149,-0.117 0.1,-0.135 0.216,-0.204 0.095,-0.062 0.423,-0.158 0.217,-0.005 1.324,0.082 0.073,0.012 0.216,0.154 0.429,1.884 -0.303,1.532 -5.918,-0.013 0.018,-3.015 1.402,-0.37 m -10.15,-0.112 0.068,-4.521 1.099,0.235 0.636,0.004 1.009,-0.23 1.443,-0.698 0.131,-0.036 0.139,0.004 0,0.013 -0.077,5.291 -0.022,0 -4.426,-0.062 m 10.632,-12.895 1.267,2.353 0.171,2.38 -3.096,-0.023 -1.055,-0.762 0.022,-3.556 2.691,-0.392 m -30.526,12.395 2.109,0.066 4.44,0.145 0.257,0.009 -0.126,4.512 -0.032,0.121 -0.307,0.036 -0.703,0.14 -0.373,0.176 -0.397,0.076 -1.186,-0.04 -1.383,-0.117 -0.082,-0.031 -2.307,-0.212 0.09,-4.881 m -1.586,-21.932 -0.136,3.844 0.117,0 -0.162,4.52 -0.234,-0.012 -4.575,-0.186 0.198,-4.502 -0.059,-5.359 0.587,0.523 0.18,0.104 0.541,0.22 2.591,0.757 0.695,0.122 0.175,0 0.082,-0.031 m 4.11,-3.312 7.107,0.208 1.741,1.562 0.004,1.559 -1.487,-0.104 -1.015,-0.189 -1.541,-0.522 -0.847,-0.293 -0.956,-0.549 -0.23,-0.235 -0.113,-0.037 -0.148,-0.004 -0.108,0.026 -1.627,0.676 -0.816,0.349 -0.072,0.058 0.108,-2.505 m -33.249,11.149 -6.332,-0.445 -0.366,-0.036 0.086,-1.123 -0.401,-0.036 0.347,-4.48 6.35,0.441 0.226,0.014 -0.252,4.502 0.238,0.398 0.104,0.765 m 41.925,3.155 4.417,0.076 -0.022,2.259 -0.046,2.803 -0.531,-0.004 -1.614,0.357 -0.455,0.184 -1.844,-0.041 0.041,-3.384 0.054,-2.25 m -18.727,-2.871 0.951,0.045 4.575,0.186 -0.171,4.484 -5.4,-0.217 -0.139,-0.009 0.184,-4.489 m -29.905,3.197 -0.247,3.383 -0.127,0.555 -6.476,-0.509 0.329,-3.943 6.521,0.514 m 13.274,0.374 5.35,0.31 0.185,0.009 -0.262,4.508 -5.548,-0.326 0.275,-4.501 m 39.806,-2.872 -0.031,2.248 -4.417,-0.076 0.009,-2.257 0.113,-4.516 4.412,0.086 -0.086,4.515 m -9,17.965 0.032,-0.121 4.263,0.121 0.045,0 -0.108,4.522 -4.349,-0.114 0.117,-4.408" />
</svg>
