<?xml version="1.0" encoding="UTF-8" standalone="no"?>
<!-- Created with Inkscape (http://www.inkscape.org/) -->

<svg
   xmlns:dc="http://purl.org/dc/elements/1.1/"
   xmlns:cc="http://creativecommons.org/ns#"
   xmlns:rdf="http://www.w3.org/1999/02/22-rdf-syntax-ns#"
   xmlns:svg="http://www.w3.org/2000/svg"
   xmlns="http://www.w3.org/2000/svg"
   xmlns:sodipodi="http://sodipodi.sourceforge.net/DTD/sodipodi-0.dtd"
   xmlns:inkscape="http://www.inkscape.org/namespaces/inkscape"
   version="1.0"
   width="555.22198"
   height="351.66797"
   id="svg2"
   inkscape:version="0.48.1 r9760"
   sodipodi:docname="newark.svg">
  <metadata
     id="metadata15">
    <rdf:RDF>
      <cc:Work
         rdf:about="">
        <dc:format>image/svg+xml</dc:format>
        <dc:type
           rdf:resource="http://purl.org/dc/dcmitype/StillImage" />
      </cc:Work>
    </rdf:RDF>
  </metadata>
  <defs
     id="defs13" />
  <sodipodi:namedview
     pagecolor="#ffffff"
     bordercolor="#666666"
     borderopacity="1"
     objecttolerance="10"
     gridtolerance="10"
     guidetolerance="10"
     inkscape:pageopacity="0"
     inkscape:pageshadow="2"
     inkscape:window-width="640"
     inkscape:window-height="480"
     id="namedview11"
     showgrid="false"
     inkscape:zoom="0.83029853"
     inkscape:cx="277.61099"
     inkscape:cy="175.83398"
     inkscape:window-x="0"
     inkscape:window-y="25"
     inkscape:window-maximized="0"
     inkscape:current-layer="svg2" />
  <path
     id="34041"
     style="font-size:12px;fill:#0000ff;fill-rule:nonzero;stroke:#000000;stroke-opacity:1;stroke-width:0.1;stroke-miterlimit:4;stroke-dasharray:none;stroke-linecap:butt;marker-start:none;stroke-linejoin:bevel"
     d="m 495.09698,112.452 2.443,1.925 -0.798,1.835 -0.093,0.247 -0.42,0.807 -0.077,0.104 -0.549,0.551 -0.947,1.057 -0.211,0.361 -0.105,-0.203 -0.064,-0.117 -0.238,-0.92 -0.1,-0.778 0.164,-0.385 0.076,-0.021 0.144,0.014 0.146,-0.02 0.197,-0.273 0.324,-0.993 0.005,-0.076 -0.032,-0.076 -0.915,-1.078 1.05,-1.961 m 5.391,-2.632 -0.95,1.78 -1.998,2.777 -2.443,-1.925 -0.054,-0.067 0.384,-0.54 0.266,-0.627 0.058,-0.388 -0.018,-0.212 -0.04,-0.041 0.018,-0.176 0.117,-0.5 0.049,-0.144 0.23,-0.473 0.27,-0.293 0.569,-0.41 3.542,1.239 m 1.411,0.478 0.225,0.068 -0.212,1.536 0.974,0.366 0.419,0.295 0.23,0.309 0.392,0.689 0.014,0.068 -0.059,0.477 -0.045,0.045 -1.569,-0.667 -0.576,-1.27 -0.622,0.004 -0.618,-0.032 -0.914,-0.586 0.95,-1.78 1.411,0.478 m -2.361,1.302 0.914,0.586 0.618,0.032 0.622,-0.004 0.576,1.27 -0.483,2.218 -0.648,1.018 -0.523,0.456 -0.504,-1.095 -0.019,-0.082 -0.068,-0.112 -0.031,-0.019 -1.501,0.852 -1.749,-0.508 0.798,-1.835 1.998,-2.777 m 2.586,-1.234 3.411,1.02 0.015,1.057 -0.04,0.488 -0.258,1.171 -1.483,0.514 0.068,-0.465 0.045,-0.045 0.059,-0.477 -0.014,-0.068 -0.392,-0.689 -0.23,-0.309 -0.419,-0.295 -0.974,-0.366 0.212,-1.536 m 3.128,3.736 -0.091,1.212 -0.13,0.37 -0.969,0.762 0.144,-0.447 -0.437,-1.383 1.483,-0.514 m -2.984,-0.618 1.569,0.667 -0.068,0.465 0.437,1.383 -2.421,-0.297 0.483,-2.218" />
</svg>
