<?xml version="1.0" encoding="UTF-8" standalone="no"?>
<!-- Created with Inkscape (http://www.inkscape.org/) -->

<svg
   xmlns:dc="http://purl.org/dc/elements/1.1/"
   xmlns:cc="http://creativecommons.org/ns#"
   xmlns:rdf="http://www.w3.org/1999/02/22-rdf-syntax-ns#"
   xmlns:svg="http://www.w3.org/2000/svg"
   xmlns="http://www.w3.org/2000/svg"
   xmlns:sodipodi="http://sodipodi.sourceforge.net/DTD/sodipodi-0.dtd"
   xmlns:inkscape="http://www.inkscape.org/namespaces/inkscape"
   version="1.0"
   width="555.22198"
   height="351.66797"
   id="svg2"
   inkscape:version="0.48.1 r9760"
   sodipodi:docname="newjersey.svg">
  <metadata
     id="metadata22">
    <rdf:RDF>
      <cc:Work
         rdf:about="">
        <dc:format>image/svg+xml</dc:format>
        <dc:type
           rdf:resource="http://purl.org/dc/dcmitype/StillImage" />
      </cc:Work>
    </rdf:RDF>
  </metadata>
  <defs
     id="defs20" />
  <sodipodi:namedview
     pagecolor="#ffffff"
     bordercolor="#666666"
     borderopacity="1"
     objecttolerance="10"
     gridtolerance="10"
     guidetolerance="10"
     inkscape:pageopacity="0"
     inkscape:pageshadow="2"
     inkscape:window-width="640"
     inkscape:window-height="480"
     id="namedview18"
     showgrid="false"
     inkscape:zoom="0.83029853"
     inkscape:cx="277.61099"
     inkscape:cy="175.83398"
     inkscape:window-x="0"
     inkscape:window-y="25"
     inkscape:window-maximized="0"
     inkscape:current-layer="svg2" />
  <path
     id="34009"
     style="font-size:12px;fill:#0000ff;fill-rule:nonzero;stroke:#000000;stroke-opacity:1;stroke-width:0.1;stroke-miterlimit:4;stroke-dasharray:none;stroke-linecap:butt;marker-start:none;stroke-linejoin:bevel"
     d="m 501.21298,134.709 3.143,-0.393 -0.411,0.636 -0.122,0.217 -0.139,0.346 -0.221,0.599 -0.243,0.858 0,0.04 0.004,0.008 0.013,0.014 -0.365,1.303 -0.265,0.644 -0.339,0.582 -0.5,0.279 -0.126,0.036 -0.297,0.032 -0.046,-0.023 -0.063,-0.077 -0.014,-0.806 0.018,-0.199 0.05,-0.27 0.19,-0.739 0.022,-0.157 0.009,-0.195 -0.023,-0.401 -0.053,-0.19 -0.222,-0.162 -0.098,-0.013 0.098,-1.969 m 0,0 -0.098,1.969 -1.965,-0.01 -0.677,-0.156 -1.301,-0.448 -1.169,-0.652 -0.058,-0.063 -0.162,-0.199 0.153,-1.028 0.956,-1.581 1.789,0.951 0.014,-0.063 0,-0.267 -0.118,-1.126 0.893,0.519 1.743,2.154 m -6.931,-4.454 4.295,1.781 0.118,1.126 0,0.267 -0.014,0.063 -1.789,-0.951 -0.956,1.581 -0.153,1.028 -2.074,-2.533 -0.098,-0.298 0.319,-0.815 0.352,-1.249 m 2.022,-1.672 0.385,-0.55 0.374,0.193 0.527,0.384 1.401,1.537 1.248,0.983 -0.769,1.425 -0.893,-0.519 -4.295,-1.781 0.239,-0.424 1.783,-1.248 m 9.69,2.727 -1.638,3.006 -3.143,0.393 -1.743,-2.154 0.769,-1.425 1.01,-1.844 0.136,0.072 0.553,0.284 0.714,0.704 0.892,0.414 0.239,0.072 0.432,0.086 0.582,-0.15 1.197,0.542 m -9.305,-3.277 0.734,-1.365 3.826,2.618 -1.01,1.844 -1.248,-0.983 -1.401,-1.537 -0.527,-0.384 -0.374,-0.193 m 3.47,-4.06 1.329,-0.185 0.501,0.671 0.189,0.257 2.267,3.255 0.519,2.249 -0.032,0.315 -0.135,0.233 -0.582,0.15 -0.432,-0.086 -0.239,-0.072 -0.892,-0.414 -0.714,-0.704 -0.553,-0.284 -0.136,-0.072 -3.826,-2.618 0.622,-0.906 2.114,-1.789 m 1.83,0.486 1.126,-1.501 1.371,-0.271 0.802,0.573 0.324,-0.009 1.281,-0.197 -0.005,0.239 0.055,1.054 0.017,0.293 0.076,0.892 0.199,1.433 0.05,0.482 -0.008,0.051 -0.205,0.981 -0.547,1.924 -0.237,0.601 -0.294,0.306 -1.197,-0.542 0.135,-0.233 0.032,-0.315 -0.519,-2.249 -2.267,-3.255 -0.189,-0.257 m 1.912,-5.489 1.589,-0.054 0.443,-0.618 -0.009,-0.027 0.031,-0.037 0.068,0 0.13,0.06 0.249,0.32 0.268,0.852 0.073,0.3 0.006,0.024 0.081,0.603 0.022,0.262 0.014,0.555 0.027,1.844 -1.281,0.197 -0.324,0.009 -0.802,-0.573 -1.371,0.271 -1.126,1.501 -0.501,-0.671 -0.373,-0.505 0.5,-0.37 0.58,-0.685 0,-0.032 -0.053,-0.094 1.759,-3.132 m -4.769,1.542 0.387,0.563 0.632,-0.361 0.289,0.032 0.057,0.107 1.645,1.249 0.053,0.094 0,0.032 -0.58,0.685 -0.5,0.37 0.373,0.505 -1.329,0.185 -2.6,-1.997 0.094,0 0.679,-0.244 0.285,-0.896 0.515,-0.324 m -2.39,-4.3 1.749,0.508 0.063,0.046 0.072,0.135 0.361,1.02 -0.108,0.838 -0.067,0.107 -0.162,0.69 0.422,0.875 0.06,0.081 -0.515,0.324 -0.285,0.896 -0.679,0.244 -0.094,0 -0.064,-0.036 -0.937,-0.568 -0.73,-1.469 -1.383,-0.564 0.211,-0.361 0.947,-1.057 0.549,-0.551 0.077,-0.104 0.42,-0.807 0.093,-0.247 m 4.395,0.508 0.198,0.961 -0.369,0.265 -0.059,0.072 -0.063,0.186 0.014,0.094 0.252,0.27 0.244,0.198 0.189,0.065 0.018,0.318 -0.888,1.552 -0.117,0.135 -0.059,0.017 -0.057,-0.107 -0.289,-0.032 -0.632,0.361 -0.387,-0.563 -0.06,-0.081 -0.422,-0.875 0.162,-0.69 0.067,-0.107 0.108,-0.838 -0.361,-1.02 -0.072,-0.135 -0.063,-0.046 1.501,-0.852 0.031,0.019 0.068,0.112 0.019,0.082 0.504,1.095 0.523,-0.456 m 2.641,0.461 0.009,0.072 0.023,0.153 -0.009,0.211 -0.023,0.054 -0.063,0 -0.067,0.006 -0.136,0.157 -0.004,0.099 0.112,0.256 -0.138,0.312 -0.006,0.014 -0.013,0.144 0.099,0.202 0.077,0.077 0.257,0.032 0.005,0 -1.759,3.132 -1.645,-1.249 0.059,-0.017 0.117,-0.135 0.888,-1.552 -0.018,-0.318 -0.189,-0.065 -0.244,-0.198 -0.252,-0.27 -0.014,-0.094 0.063,-0.186 0.059,-0.072 0.369,-0.265 0.248,-0.037 1.236,-0.442 0.446,-0.013 0.108,0.005 0.405,-0.013 m -1.993,-1.479 2.421,0.297 -0.144,0.447 -0.194,0.013 -0.045,0.015 -0.022,0.035 -0.09,0.189 0.067,0.483 -0.405,0.013 -0.108,-0.005 -0.446,0.013 -1.236,0.442 -0.248,0.037 -0.198,-0.961 0.648,-1.018" />
</svg>
