<?xml version="1.0" encoding="UTF-8" standalone="no"?>
<!-- Created with Inkscape (http://www.inkscape.org/) -->

<svg
   xmlns:dc="http://purl.org/dc/elements/1.1/"
   xmlns:cc="http://creativecommons.org/ns#"
   xmlns:rdf="http://www.w3.org/1999/02/22-rdf-syntax-ns#"
   xmlns:svg="http://www.w3.org/2000/svg"
   xmlns="http://www.w3.org/2000/svg"
   xmlns:sodipodi="http://sodipodi.sourceforge.net/DTD/sodipodi-0.dtd"
   xmlns:inkscape="http://www.inkscape.org/namespaces/inkscape"
   version="1.0"
   width="555.22198"
   height="351.66797"
   id="svg2"
   inkscape:version="0.48.1 r9760"
   sodipodi:docname="newyork.svg">
  <metadata
     id="metadata18">
    <rdf:RDF>
      <cc:Work
         rdf:about="">
        <dc:format>image/svg+xml</dc:format>
        <dc:type
           rdf:resource="http://purl.org/dc/dcmitype/StillImage" />
      </cc:Work>
    </rdf:RDF>
  </metadata>
  <defs
     id="defs16" />
  <sodipodi:namedview
     pagecolor="#ffffff"
     bordercolor="#666666"
     borderopacity="1"
     objecttolerance="10"
     gridtolerance="10"
     guidetolerance="10"
     inkscape:pageopacity="0"
     inkscape:pageshadow="2"
     inkscape:window-width="640"
     inkscape:window-height="480"
     id="namedview14"
     showgrid="false"
     inkscape:zoom="0.83029853"
     inkscape:cx="277.61099"
     inkscape:cy="175.83398"
     inkscape:window-x="0"
     inkscape:window-y="25"
     inkscape:window-maximized="0"
     inkscape:current-layer="svg2" />
  <path
     id="36085"
     style="font-size:12px;fill:#0000ff;fill-rule:nonzero;stroke:#000000;stroke-opacity:1;stroke-width:0.1;stroke-miterlimit:4;stroke-dasharray:none;stroke-linecap:butt;marker-start:none;stroke-linejoin:bevel"
     d="m 504.54398,117.784 -0.04,0.018 -0.091,0.127 -0.142,0.126 -0.041,-0.004 -0.145,0.153 -0.091,0.055 -0.067,0.107 -0.231,0.094 -0.053,-0.036 -0.019,-0.063 0.019,-0.072 0.053,-0.105 -0.012,-0.152 0.023,-0.117 0.194,-0.226 0.044,-0.202 -0.032,-0.248 0.028,-0.117 -0.008,-0.127 0.053,-0.198 0.084,-0.185 0.136,-0.103 0.248,-0.131 0.301,-0.158 0.105,-0.018 0.077,0.077 0.072,0.212 0.197,0.225 -0.026,0.14 -0.36,0.707 -0.231,0.231 -0.045,-0.01 m 1.687,-3.885 0.017,0.086 -0.175,0.869 -0.145,0.127 -0.698,0.622 -0.069,-0.289 0.091,-1.212 0.258,-1.171 0.603,0.301 0.118,0.667 m -0.681,-1.456 1.374,0.163 0.185,0.983 -0.878,0.31 -0.118,-0.667 -0.603,-0.301 0.04,-0.488 m -3.584,-14.643 0.186,2.209 0.531,1.73 0.203,0.414 0.319,1.875 -0.91,0.338 -0.684,0.136 -0.586,-0.019 -0.695,-0.252 -0.996,0.69 -0.419,-0.622 -1.046,-0.455 -0.923,-0.429 0.189,-0.482 0.369,-0.847 0.194,-0.581 -2.131,-0.681 -1.321,-0.401 2.614,-2.632 1.501,0.383 0.727,-0.09 1.482,-0.19 0.081,-1.004 0.419,-0.136 0.928,0.392 -0.032,0.654 m -10.659,5.485 2.939,-2.862 1.321,0.401 2.131,0.681 -0.194,0.581 -0.369,0.847 -0.189,0.482 0.923,0.429 1.046,0.455 0.419,0.622 -0.329,0.293 -0.18,0.388 -0.248,0.649 -2.564,0.725 -0.068,0.054 -0.009,0.031 0.117,0.488 0.126,0.282 -0.423,0.047 -0.758,0.041 -0.167,-0.077 -1.027,-0.533 -0.293,-0.279 -0.414,-0.405 -0.258,-0.591 -1.532,-2.749 m 16.04,0.591 0.352,2.064 -3.966,1.541 0,-0.039 -0.338,-1.443 0.298,-0.731 3.2,-1.271 0.454,-0.121 m -4.142,0.152 0.19,1.971 0.338,1.443 -1.834,2.856 -1.411,-0.478 -3.542,-1.239 -0.767,-0.75 -0.126,-0.282 -0.117,-0.488 0.009,-0.031 0.068,-0.054 2.564,-0.725 0.248,-0.649 0.18,-0.388 0.329,-0.293 0.996,-0.69 0.695,0.252 0.586,0.019 0.684,-0.136 0.91,-0.338 m 2.953,-6.841 0.883,4.904 0.306,1.785 -0.454,0.121 -3.2,1.271 -0.298,0.731 -0.19,-1.971 -0.319,-1.875 -0.203,-0.414 -0.531,-1.73 -0.186,-2.209 0.127,-0.055 0.121,0.005 1.526,0.365 0.475,0.131 1.79,-0.063 0.063,-0.974 0.09,-0.022 m -2.425,10.294 0.312,0.654 0.576,0.789 0.514,0.581 0.059,0.148 0.341,1.733 -3.411,-1.02 -0.225,-0.068 1.834,-2.856 0,0.039 m 0,0 3.966,-1.541 0.158,0.91 -0.306,2.082 -0.06,0.059 -0.702,0.717 1.008,1.297 -0.873,1.601 -1.374,-0.163 -0.015,-1.057 -0.341,-1.733 -0.059,-0.148 -0.514,-0.581 -0.576,-0.789 -0.312,-0.654" />
</svg>
