<?xml version="1.0" encoding="UTF-8" standalone="no"?>
<!-- Created with Inkscape (http://www.inkscape.org/) -->

<svg
   xmlns:dc="http://purl.org/dc/elements/1.1/"
   xmlns:cc="http://creativecommons.org/ns#"
   xmlns:rdf="http://www.w3.org/1999/02/22-rdf-syntax-ns#"
   xmlns:svg="http://www.w3.org/2000/svg"
   xmlns="http://www.w3.org/2000/svg"
   xmlns:sodipodi="http://sodipodi.sourceforge.net/DTD/sodipodi-0.dtd"
   xmlns:inkscape="http://www.inkscape.org/namespaces/inkscape"
   version="1.0"
   width="555.22198"
   height="351.66797"
   id="svg2"
   inkscape:version="0.48.1 r9760"
   sodipodi:docname="northerncalifornia.svg">
  <metadata
     id="metadata33">
    <rdf:RDF>
      <cc:Work
         rdf:about="">
        <dc:format>image/svg+xml</dc:format>
        <dc:type
           rdf:resource="http://purl.org/dc/dcmitype/StillImage" />
      </cc:Work>
    </rdf:RDF>
  </metadata>
  <defs
     id="defs31" />
  <sodipodi:namedview
     pagecolor="#ffffff"
     bordercolor="#666666"
     borderopacity="1"
     objecttolerance="10"
     gridtolerance="10"
     guidetolerance="10"
     inkscape:pageopacity="0"
     inkscape:pageshadow="2"
     inkscape:window-width="640"
     inkscape:window-height="480"
     id="namedview29"
     showgrid="false"
     inkscape:zoom="0.83029853"
     inkscape:cx="277.61099"
     inkscape:cy="175.83398"
     inkscape:window-x="0"
     inkscape:window-y="25"
     inkscape:window-maximized="0"
     inkscape:current-layer="svg2" />
  <path
     id="06049"
     style="font-size:12px;fill:#0000ff;fill-rule:nonzero;stroke:#000000;stroke-opacity:1;stroke-width:0.1;stroke-miterlimit:4;stroke-dasharray:none;stroke-linecap:butt;marker-start:none;stroke-linejoin:bevel"
     d="m 53.55198,90.859 5.219,1.46 1.713,0.46 0.013,0.005 3.38,0.897 0.365,0.094 2.66,0.672 -2.637,10.186 -12.431,-3.3 -1.068,-0.283 0.843,-3.079 1.172,-4.354 -0.045,-0.027 -0.014,-0.04 0.492,-1.812 0.089,-0.311 0.249,-0.568 m 10.713,13.774 -1.028,4.002 -1.158,4.611 -0.581,2.248 -0.185,0.726 -0.005,0.013 -0.631,2.399 -0.973,3.65 -0.198,0.735 -1.438,-0.175 0.536,-0.64 0.482,-1.426 0.095,-0.364 0.009,-0.393 -0.482,-2.09 -0.28,-0.366 -2.19,-2.569 -1.659,-1.243 -0.361,-0.095 -0.346,0.104 -0.978,0.784 -0.082,0.301 -0.202,0.046 -0.356,-0.095 -0.924,-0.824 -0.117,-0.321 0.644,-2.385 -2.51,-0.666 0.374,-1.185 1.203,-4.354 0.018,-0.433 0.892,-3.295 12.431,3.3 m -13.499,-3.583 1.068,0.283 -0.892,3.295 -0.018,0.433 -1.203,4.354 -0.374,1.185 -1.596,-0.442 -1.965,-0.612 -1.37,-0.272 -1.546,-0.22 -0.834,-0.045 -0.928,0.032 -1.244,-0.083 -0.33,-0.088 -0.933,-0.298 -0.612,-0.415 -2.268,-0.307 -1.081,-0.013 -1.352,0.031 -0.83,0.096 0.14,-0.46 1.172,-0.951 1.541,-0.712 1.659,-2.092 2.587,-3.146 0.063,-0.009 0.356,-0.13 1.087,-0.965 0.09,-0.13 0.067,-0.113 0.14,-0.51 -0.027,-0.122 -0.157,-0.171 -0.19,-0.135 1.947,0.523 2.673,0.775 5.16,1.434 m -18.222,-5.157 0.46,0.37 0.442,0.428 0.712,1.068 1.298,1.37 0.757,0.384 0.185,0.027 0.216,-0.171 0.117,-0.208 -0.086,-0.599 1.411,-1.461 2.024,-0.797 1.14,0.703 -0.234,1.311 0.19,0.135 0.157,0.171 0.027,0.122 -0.14,0.51 -0.067,0.113 -0.09,0.13 -1.087,0.965 -0.356,0.13 -0.063,0.009 -2.587,3.146 -1.659,2.092 -1.541,0.712 -1.172,0.951 -0.14,0.46 0.609,0.693 0.049,0.111 -0.008,0.133 -0.122,0.576 -0.05,0.045 -0.184,0.65 -0.212,1.762 0.031,0.241 -5.755,-1.683 0.094,-0.307 2.641,-8.865 0.293,-1.492 1.041,-0.838 0.312,-0.275 0.707,-0.721 0.049,-0.627 -0.049,-0.085 0.018,-0.42 0.298,-0.59 0.166,-0.225 0.158,-0.154 m -1.587,-3.213 1.479,0.437 0.18,0.257 -0.072,2.519 -0.158,0.154 -0.166,0.225 -0.298,0.59 -0.018,0.42 0.049,0.085 -0.049,0.627 -0.707,0.721 -0.312,0.275 -1.041,0.838 -0.293,1.492 -2.641,8.865 -4.511,-1.347 -0.217,-0.382 -1.915,-3.656 -0.059,-0.162 0.243,-2.335 0.032,-0.059 0.82,-1.181 0.577,-0.744 0.221,-0.248 0.397,-0.423 0.59,-0.573 0.694,-0.739 0.384,-0.405 0.292,-0.352 0.384,-0.554 0.418,-0.735 0.204,-0.469 -0.05,-0.288 1.212,-2.88 0.916,-2.123 1.658,0.486 1.055,0.343 -0.199,0.667 0.374,0.5 0.527,0.154 m -8.558,16.158 4.511,1.347 -0.094,0.307 5.755,1.683 0.045,0.138 -0.031,0.418 -0.104,0.235 -0.347,0.203 -0.293,0.596 0,0.58 0.041,0.064 -0.298,2.865 -0.058,0.186 -0.172,0.441 -0.486,0.028 -0.835,-0.276 -0.414,0.085 -0.279,0.609 -0.077,0.195 -0.108,0.359 0.054,1.773 -0.086,0.54 -0.419,0.468 -0.428,0.131 -0.221,0.415 -0.221,0.519 -0.054,0.184 -0.022,0.109 0.167,0.739 0.554,1.455 0.248,0.398 0.82,0.931 -2.475,-0.752 -2.92,-0.239 -1.334,-0.014 -0.388,0.024 -0.46,-0.824 -0.689,-1.49 0.55,-5.677 0.031,-0.221 0.022,-0.1 0.186,-0.463 0.216,-0.474 0.225,-0.328 0.126,-0.186 0.172,-0.179 0.063,-0.086 0.036,-0.05 0.009,-0.01 0.225,-0.347 0.018,-0.09 0.194,-1.297 0.031,-0.321 -0.004,-2.009 -0.009,-0.033 -0.433,-1.153 -0.238,-0.622 -0.302,-0.784 m 25.352,1.32 -0.05,0.171 -0.068,0.861 -0.004,0.086 0.036,0.126 0.032,0.031 0.672,0.326 0.085,0.016 0.117,0.605 -0.297,0.888 -0.072,0.113 -0.036,0.036 -0.852,0.582 -0.136,0.261 -0.121,0.072 -0.617,0.117 -0.483,-0.131 -1.744,1.081 -0.415,0.303 -0.148,0.157 -0.077,0.155 -0.077,0.233 -0.301,0.158 -0.28,-0.019 -2.267,-0.612 -0.401,0.459 -0.059,0.375 0.127,0.221 -8.433,-2.42 -0.041,-0.064 0,-0.58 0.293,-0.596 0.347,-0.203 0.104,-0.235 0.031,-0.418 -0.045,-0.138 -0.031,-0.241 0.212,-1.762 0.184,-0.65 0.05,-0.045 0.122,-0.576 0.008,-0.133 -0.049,-0.111 -0.609,-0.693 0.83,-0.096 1.352,-0.031 1.081,0.013 2.268,0.307 0.612,0.415 0.933,0.298 0.33,0.088 1.244,0.083 0.928,-0.032 0.834,0.045 1.546,0.22 1.37,0.272 1.965,0.612 m 0,0 1.596,0.442 2.51,0.666 -0.644,2.385 0.117,0.321 0.924,0.824 0.356,0.095 0.202,-0.046 0.082,-0.301 0.978,-0.784 0.346,-0.104 0.361,0.095 1.659,1.243 2.19,2.569 0.28,0.366 0.482,2.09 -0.009,0.393 -0.095,0.364 -0.482,1.426 -0.536,0.64 -2.853,-0.758 -1.988,-0.495 -1.83,-1.434 -0.469,0.135 -0.256,0.181 -0.127,0.467 -0.924,0.588 -0.783,0.356 -0.736,-1.582 -1.419,-2.583 0.803,-2.326 0.211,-0.211 0.049,-0.176 -0.013,-0.308 -0.118,-0.612 -0.301,-0.085 0.852,-0.582 0.036,-0.036 0.072,-0.113 0.297,-0.888 -0.117,-0.605 -0.085,-0.016 -0.672,-0.326 -0.032,-0.031 -0.036,-0.126 0.004,-0.086 0.068,-0.861 0.05,-0.171 m -15.869,4.251 8.433,2.42 0.491,1.194 0.396,2.577 -0.013,0.051 -0.838,1.777 -8.091,-2.29 0.307,-0.827 0.112,-0.355 0.329,-1.275 -1.424,-0.407 0.298,-2.865 m 8.433,2.42 -0.127,-0.221 0.059,-0.375 0.401,-0.459 2.267,0.612 0.28,0.019 0.301,-0.158 0.077,-0.233 0.077,-0.155 0.148,-0.157 0.415,-0.303 1.744,-1.081 0.483,0.131 0.617,-0.117 0.121,-0.072 0.136,-0.261 0.301,0.085 0.118,0.612 0.013,0.308 -0.049,0.176 -0.211,0.211 -0.803,2.326 1.419,2.583 0.736,1.582 -3.616,2.149 -0.392,0.199 -0.996,0.072 -1.253,-0.069 -2.686,-0.855 0.456,-0.95 0.838,-1.777 0.013,-0.051 -0.396,-2.577 -0.491,-1.194 m -8.055,3.309 -0.397,0.431 -0.198,0.334 0.081,0.388 0.546,0.811 0.347,0.347 0.955,1.632 -0.036,0.905 0.343,1.308 0.045,0.103 0.478,0.568 -0.739,0.599 0.04,0.65 -0.112,0.171 -1.155,0.978 -1.708,0.022 -1.203,-2.822 -0.82,-0.931 -0.248,-0.398 -0.554,-1.455 -0.167,-0.739 0.022,-0.109 0.054,-0.184 0.221,-0.519 0.221,-0.415 0.428,-0.131 0.419,-0.468 0.086,-0.54 -0.054,-1.773 0.108,-0.359 0.077,-0.195 0.279,-0.609 0.414,-0.085 0.835,0.276 0.486,-0.028 0.172,-0.441 0.058,-0.186 1.424,0.407 -0.329,1.275 -0.112,0.355 -0.307,0.827 m 8.091,2.29 -0.456,0.95 -0.789,1.442 -0.095,0.622 0.29,0.594 0.342,1.533 -0.379,0.752 -4.84,-1.356 -0.478,-0.568 -0.045,-0.103 -0.343,-1.308 0.036,-0.905 -0.955,-1.632 -0.347,-0.347 -0.546,-0.811 -0.081,-0.388 0.198,-0.334 0.397,-0.431 8.091,2.29 m 2.23,1.805 -0.063,0.036 -0.171,0.362 -0.058,0.193 -0.447,2.674 0.014,1.342 0.139,-0.149 0.24,-0.189 0.675,-0.094 0.217,-0.006 0.424,0.132 -0.235,0.883 -0.532,-0.14 -0.802,2.363 -1.136,-0.33 -1.582,-2.989 0.379,-0.752 -0.342,-1.533 -0.29,-0.594 0.095,-0.622 0.789,-1.442 2.686,0.855 m 6.257,-2.351 0.783,-0.356 -0.964,3.081 -0.27,-0.13 -0.235,-0.036 -0.537,0.058 -0.824,0.433 -0.879,0.609 -0.261,0.415 -0.672,2.461 -1.428,0.117 -0.424,-0.132 -0.217,0.006 -0.675,0.094 -0.24,0.189 -0.139,0.149 -0.014,-1.342 0.447,-2.674 0.058,-0.193 0.171,-0.362 0.063,-0.036 1.253,0.069 0.996,-0.072 0.392,-0.199 3.616,-2.149 m 0.783,-0.356 0.924,-0.588 0.127,-0.467 0.256,-0.181 0.469,-0.135 1.83,1.434 1.988,0.495 2.853,0.758 1.438,0.175 -0.92,3.484 -4.678,-1.235 -0.127,-0.072 -0.211,-0.248 -0.072,-0.608 -0.203,-0.253 -0.712,-0.229 -0.154,0.022 -0.342,0.166 -0.144,0.123 -0.032,0.039 -1.271,0.316 -1.623,-0.13 -0.225,0.058 -0.135,0.157 0.964,-3.081 m 8.965,4.975 -0.437,1.618 -6.143,-1.593 -0.374,0.016 -0.51,0.117 -1.365,0.636 -0.712,0.355 -0.469,0.243 -0.469,0.352 -0.086,0.091 -0.076,0.198 -0.086,0.126 -0.622,0.617 -0.324,0.054 -1.352,-0.455 -0.104,-0.05 -0.478,-0.409 0.672,-2.461 0.261,-0.415 0.879,-0.609 0.824,-0.433 0.537,-0.058 0.235,0.036 0.27,0.13 0.135,-0.157 0.225,-0.058 1.623,0.13 1.271,-0.316 0.032,-0.039 0.144,-0.123 0.342,-0.166 0.154,-0.022 0.712,0.229 0.203,0.253 0.072,0.608 0.211,0.248 0.127,0.072 4.678,1.235 m -15.035,2.033 1.428,-0.117 0.478,0.409 0.104,0.05 1.352,0.455 0.324,-0.054 0.622,-0.617 0.086,-0.126 0.076,-0.198 0.086,-0.091 0.469,-0.352 0.469,-0.243 0.712,-0.355 1.365,-0.636 0.51,-0.117 0.374,-0.016 6.143,1.593 -0.482,1.897 -0.162,0.672 -0.136,0.568 -1.361,-0.347 -0.122,0.095 -0.04,0.152 -0.14,0.06 -0.207,0.049 -0.568,-0.049 -2.15,-0.081 -0.532,0.446 -0.239,0.107 -0.482,0.091 -0.081,0 -0.122,-0.073 -0.595,-0.59 -0.139,-0.161 -0.082,-0.137 -0.112,-0.252 -0.311,-0.321 -0.234,-0.138 -0.068,-0.027 -0.433,-0.023 -1.357,0.221 -1.063,0.302 -0.212,0.176 -0.275,0.599 -1.23,1.469 -3.232,-1.184 0.802,-2.363 0.532,0.14 0.235,-0.883 m -9.127,-1.569 4.84,1.356 1.582,2.989 0.04,1.271 0.375,0.663 0.014,0.059 -0.014,0.134 -0.437,1.781 -0.491,1.014 -0.195,0.117 -0.658,0.285 -0.982,-0.281 0.613,-2.176 0.108,-0.46 0,-0.04 -0.104,-0.172 -3.412,-0.681 -0.455,-0.076 0.005,-0.942 -0.014,-0.266 -0.117,-0.744 -0.495,-2.636 -0.942,-0.596 0.739,-0.599 m -11.994,-1.383 0.388,-0.024 1.334,0.014 2.92,0.239 2.475,0.752 1.203,2.822 -0.166,0.555 -0.032,0.847 0.396,1.087 0.69,2.442 0.122,1.042 0.009,0.302 -0.023,0.297 -0.311,0.505 -0.392,-0.072 0.018,0.076 -0.996,0.275 -1.131,-1.262 -2.132,-2.538 -0.081,-0.021 -0.816,-0.019 -0.122,0.064 -0.639,-2.273 -2.087,-3.993 -0.627,-1.117 m 11.255,1.982 0.942,0.596 0.495,2.636 0.117,0.744 0.014,0.266 -0.005,0.942 -0.05,0.055 -0.455,0.856 -0.018,0.085 -0.004,0.063 0.221,0.667 0.045,0.293 0.009,0.108 -0.013,0.23 -0.014,0.113 -0.045,0.107 -1.366,-0.382 -0.545,1.564 -0.027,0.112 0.036,0.105 0.054,0.076 0.036,0.005 0.022,0.058 -0.044,0.117 -2.047,-0.59 0.392,0.072 0.311,-0.505 0.023,-0.297 -0.009,-0.302 -0.122,-1.042 -0.69,-2.442 -0.396,-1.087 0.032,-0.847 0.166,-0.555 1.708,-0.022 1.155,-0.978 0.112,-0.171 -0.04,-0.65 m -2.642,8.826 2.047,0.59 0.044,-0.117 -0.022,-0.058 -0.036,-0.005 -0.054,-0.076 -0.036,-0.105 0.027,-0.112 0.545,-1.564 1.366,0.382 0.045,-0.107 0.014,-0.113 0.013,-0.23 -0.009,-0.108 -0.045,-0.293 -0.221,-0.667 0.004,-0.063 0.018,-0.085 0.455,-0.856 0.05,-0.055 0.455,0.076 3.412,0.681 0.104,0.172 0,0.04 -0.108,0.46 -0.613,2.176 0.982,0.281 -0.825,1.385 -1.104,1.137 -0.959,0.095 -0.586,-0.247 -0.081,0.099 -0.091,0.059 -0.131,0.009 -0.144,-0.015 -2.127,-0.517 -0.5,-0.145 -0.87,-0.527 -1.001,-1.501 -0.018,-0.076 m 10.939,-4.75 3.232,1.184 0.405,2.858 -0.698,2.641 -0.816,-0.022 -0.694,0.239 -0.068,0.009 -1.785,-0.208 -0.486,-0.121 -0.186,-0.176 -0.121,-0.279 -0.176,-0.074 -0.229,0 -1.087,1.151 -0.437,0.567 -0.032,-0.041 -0.18,-0.094 -0.573,-0.103 -0.112,0 -0.072,0.036 -0.049,0.08 -0.028,0.181 -0.049,0.089 -0.239,0.15 -0.442,0.125 -0.392,-0.009 -0.112,-0.026 -0.253,-0.104 -0.09,-0.121 -0.207,-0.568 0.586,0.247 0.959,-0.095 1.104,-1.137 0.825,-1.385 0.658,-0.285 0.195,-0.117 0.491,-1.014 0.437,-1.781 0.014,-0.134 -0.014,-0.059 -0.375,-0.663 -0.04,-1.271 1.136,0.33 m 15.387,-0.384 0.51,1.933 0.112,0.24 0.014,0.248 -0.068,0.359 -0.05,0.077 -0.807,0.718 -0.247,0.18 -1.33,0.662 -2.334,1.299 -0.559,0.089 -1.975,-0.089 -0.716,-0.082 -0.447,-0.113 -2.92,-0.987 -0.933,-0.108 -0.405,-2.858 1.23,-1.469 0.275,-0.599 0.212,-0.176 1.063,-0.302 1.357,-0.221 0.433,0.023 0.068,0.027 0.234,0.138 0.311,0.321 0.112,0.252 0.082,0.137 0.139,0.161 0.595,0.59 0.122,0.073 0.081,0 0.482,-0.091 0.239,-0.107 0.532,-0.446 2.15,0.081 0.568,0.049 0.207,-0.049 0.14,-0.06 0.04,-0.152 0.122,-0.095 1.361,0.347 m -22.801,-45.873 2.641,0.739 0.023,0.005 0.689,0.143 0.983,0.357 0.405,0.121 0.239,0.068 3.124,0.883 1.239,0.307 1.131,0.306 0.293,0.095 0.514,0.158 7.703,2.294 -0.249,0.568 -0.089,0.311 -0.492,1.812 0.014,0.04 0.045,0.027 -1.172,4.354 -0.843,3.079 -5.16,-1.434 -2.673,-0.775 -1.947,-0.523 0.234,-1.311 -1.14,-0.703 -2.024,0.797 -1.411,1.461 0.086,0.599 -0.117,0.208 -0.216,0.171 -0.185,-0.027 -0.757,-0.384 -1.298,-1.37 -0.712,-1.068 -0.442,-0.428 -0.46,-0.37 0.072,-2.519 -0.18,-0.257 -1.479,-0.437 0.249,-0.172 0.45,-0.522 0.055,-0.158 -0.086,-0.829 -0.086,-0.298 0.73,-3.376 0.915,-0.815 0.654,-0.063 0.423,-0.551 0.307,-0.513 m -6.342,-1.889 3.552,1.118 2.79,0.771 -0.307,0.513 -0.423,0.551 -0.654,0.063 -0.915,0.815 -0.73,3.376 0.086,0.298 0.086,0.829 -0.055,0.158 -0.45,0.522 -0.249,0.172 -0.527,-0.154 -0.374,-0.5 0.199,-0.667 -1.055,-0.343 -1.658,-0.486 0.161,-1.077 0.036,-0.735 0.014,-1.442 -0.004,-0.122 -0.023,-0.153 -0.05,-0.167 0.221,-2.123 0.329,-1.217" />
</svg>
