<?xml version="1.0" encoding="UTF-8" standalone="no"?>
<!-- Created with Inkscape (http://www.inkscape.org/) -->

<svg
   xmlns:dc="http://purl.org/dc/elements/1.1/"
   xmlns:cc="http://creativecommons.org/ns#"
   xmlns:rdf="http://www.w3.org/1999/02/22-rdf-syntax-ns#"
   xmlns:svg="http://www.w3.org/2000/svg"
   xmlns="http://www.w3.org/2000/svg"
   xmlns:sodipodi="http://sodipodi.sourceforge.net/DTD/sodipodi-0.dtd"
   xmlns:inkscape="http://www.inkscape.org/namespaces/inkscape"
   version="1.0"
   width="555.22198"
   height="351.66797"
   id="svg2"
   inkscape:version="0.48.1 r9760"
   sodipodi:docname="northdakota.svg">
  <metadata
     id="metadata62">
    <rdf:RDF>
      <cc:Work
         rdf:about="">
        <dc:format>image/svg+xml</dc:format>
        <dc:type
           rdf:resource="http://purl.org/dc/dcmitype/StillImage" />
      </cc:Work>
    </rdf:RDF>
  </metadata>
  <defs
     id="defs60" />
  <sodipodi:namedview
     pagecolor="#ffffff"
     bordercolor="#666666"
     borderopacity="1"
     objecttolerance="10"
     gridtolerance="10"
     guidetolerance="10"
     inkscape:pageopacity="0"
     inkscape:pageshadow="2"
     inkscape:window-width="640"
     inkscape:window-height="480"
     id="namedview58"
     showgrid="false"
     inkscape:zoom="0.83029853"
     inkscape:cx="277.61099"
     inkscape:cy="175.83398"
     inkscape:window-x="0"
     inkscape:window-y="25"
     inkscape:window-maximized="0"
     inkscape:current-layer="svg2" />
  <path
     id="38105"
     style="font-size:12px;fill:#0000ff;fill-rule:nonzero;stroke:#000000;stroke-opacity:1;stroke-width:0.1;stroke-miterlimit:4;stroke-dasharray:none;stroke-linecap:butt;marker-start:none;stroke-linejoin:bevel"
     d="m 224.02298,34.705 10.01,0.798 -0.081,1.104 -0.153,2.213 0.496,0.031 -0.234,3.178 -0.366,-0.194 -1.982,-0.27 -0.884,0.076 -0.108,0.077 -0.226,0.235 -0.157,0.216 -0.005,0.022 0.018,0.028 0.131,0.058 0.072,0.077 0.004,0.054 -0.018,0.072 -0.067,0.072 -0.406,0.149 -0.595,0.162 -1.262,0.234 -0.112,-0.009 -0.455,-0.401 -0.195,-0.324 -0.022,-0.397 -0.153,-0.293 -0.568,-0.189 -0.18,0.036 -0.176,0.09 -0.27,0.207 -0.005,0.059 0.027,0.058 0.18,0.176 -0.252,0.37 -0.766,0.586 -0.55,0.302 -0.307,0.063 -1.041,-0.604 0.401,-5.012 0.257,-3.11 m 33.884,12.232 2.249,0.091 4.494,0.175 -0.072,2.227 0.27,0.013 -0.036,1.091 -0.117,3.335 -1.888,-0.067 -4.868,-0.194 0.189,-4.435 -0.32,-0.014 0.099,-2.222 m -18.325,-9.933 0.148,-2.218 0.776,-1.063 1.117,0.076 -0.067,1.104 1.541,0.095 -0.198,3.322 6.765,0.397 -0.059,1.112 0.203,1.168 0.005,2.312 0.225,1.01 0.108,0.005 -0.121,2.221 -7.865,-0.437 -0.054,-1.501 -0.248,-0.766 0.279,-4.453 -0.301,-2.258 -2.254,-0.126 m 33.852,1.55 3.381,0.086 6.652,0.117 0.068,0.036 0.202,0.248 0.055,3.074 -0.284,1.095 -6.576,-0.122 -3.385,-0.076 0.059,-2.231 -0.212,-0.73 0.04,-1.497 m 7.139,11.291 5.107,0.058 0.302,2.222 0.158,3.353 -5.463,-0.086 -0.104,-5.547 m -17.37,-17.42 4.516,0.153 -0.086,2.294 -0.026,1.293 0.252,0.01 -0.067,2.217 -0.077,2.217 -1.988,-0.067 -2.537,-0.095 0.077,-2.218 0.085,-2.213 -0.288,-0.008 0.139,-3.583 m -0.396,21.377 1.888,0.067 6.761,0.212 0.252,1.109 -0.085,3.349 0.247,0.004 -0.112,4.475 -5.323,-0.144 -3.678,-0.144 0.189,-4.48 -0.306,-0.009 0.167,-4.439 m 13.278,-4.043 0.897,0.018 3.591,0.068 0.104,5.547 -2.249,-0.049 -2.249,-0.049 -0.094,-5.535 m -37.004,6.909 0.402,0.401 -0.212,3.376 -0.077,1.109 -7.392,-0.492 -2.699,-0.202 0.347,-4.485 1.753,0.131 4.489,0.306 0.023,-0.369 3.366,0.225 m -13.331,3.934 3.353,0.258 2.699,0.202 -0.297,4.472 -0.631,-0.037 -9.384,-0.738 0.289,-3.34 2.172,0.184 0.095,-1.14 1.704,0.139 m 22.738,5.964 0.103,-0.46 0.92,-0.852 0.378,-0.126 0.126,0.113 0.352,0.072 0.911,0.058 0.225,-0.071 0.969,-0.38 0.077,0.154 0.171,0.451 0.063,0.239 0.005,0.387 -0.14,1.177 -0.037,0.121 -0.139,0.284 -0.167,0.171 -0.248,0.37 -0.108,0.257 -0.004,0.149 0.09,0.802 0.036,0.13 0.807,1.565 -2.046,-0.104 -0.203,-0.009 -0.073,-0.005 -1.081,-0.054 -0.816,-0.045 -2.614,-0.144 -0.919,-0.05 -0.523,-0.031 -1.127,-0.063 -1.362,-0.086 -1.293,-0.076 -1.086,-0.068 -0.145,-0.009 -0.022,-0.004 -0.058,-0.005 0.09,-1.397 0.798,-0.068 0.589,0.198 1.335,0.469 0.893,0.185 0.026,0.004 0.712,-0.212 1.921,-0.874 0.842,-0.594 0.915,-0.713 0.857,-0.856 m 8.292,-19.683 1.127,0.054 -0.099,2.222 0.32,0.014 -0.189,4.435 -0.708,-0.027 -4.934,-0.234 0.184,-3.782 0.045,-0.654 0.767,0.037 0.103,-2.218 3.384,0.153 m 18.741,20.706 6.499,0.117 0.19,0.005 -0.041,2.888 0.072,0.798 0.189,0.78 -6.756,-0.122 -0.266,-0.009 0.113,-4.457 m -17.898,-29.594 0.1,-2.212 -0.32,-0.014 0.158,-3.57 5.642,0.226 -0.139,3.583 0.288,0.008 -0.085,2.213 -5.644,-0.234 m 28.891,25.285 0.383,1.113 1.239,2.984 0.343,2.704 0.027,0.226 -0.018,0.261 -0.022,0.081 -0.167,0.469 0.122,1.118 -5.991,-0.059 -0.189,-0.78 -0.072,-0.798 0.041,-2.888 -0.19,-0.005 0.064,-4.462 4.43,0.036 m -44.891,-29.481 0.163,-2.443 4.497,0.266 -0.207,3.557 0.262,2.235 3.385,0.198 -0.059,1.105 -6.765,-0.397 0.198,-3.322 -1.541,-0.095 0.067,-1.104 m 33.745,29.31 3.137,0.072 3.579,0.063 -0.064,4.462 -6.499,-0.117 -0.257,-0.005 0.104,-4.475 m -1.934,-24.555 -0.04,1.497 0.212,0.73 -0.059,2.231 -1.127,-0.023 -0.063,2.218 -0.897,-0.023 -0.04,1.357 -0.866,-0.041 -1.081,-1.001 -1.681,-0.184 -0.307,0.067 -1.785,-2.005 -0.063,-0.086 0.09,-2.749 1.988,0.067 0.077,-2.217 5.642,0.162 m -15.811,-0.559 5.644,0.234 -0.077,2.218 -3.07,-0.121 -0.193,4.466 0.315,0.014 -0.086,2.222 -2.249,-0.091 -1.127,-0.054 -0.044,-1.487 -0.199,-0.753 0.018,-2.979 -0.157,-1.501 0.094,-2.209 1.131,0.041 m 19.111,-5.192 6.197,0.099 -0.041,0.041 -0.04,0.189 -0.01,0.19 0.05,0.27 0.622,2.032 0.167,0.496 0.379,0.861 -0.632,1.753 0.041,0.023 -6.652,-0.117 0.045,-2.231 -0.194,-0.005 0.068,-3.601 m -27.12,22.599 0.14,2.24 -7.333,-0.392 0.203,-3.331 4.466,0.261 0.023,-0.302 1.208,-0.297 0.311,-0.027 0.252,0.067 0.203,0.086 0.293,0.225 0.153,0.199 0.032,0.072 0.049,1.199 m 23.933,-12.39 3.385,0.076 -0.045,2.227 0.184,0.005 0,0.018 -0.089,4.439 -0.897,-0.018 -4.521,-0.109 -0.162,-2.231 0.018,-0.878 0.04,-1.357 0.897,0.023 0.063,-2.218 1.127,0.023 m -33.965,-6.008 2.254,0.126 0.301,2.258 -0.279,4.453 0.248,0.766 0.054,1.501 -4.489,-0.288 -0.077,1.144 -2.181,-0.991 -0.036,-0.041 -0.018,-0.063 -0.037,-0.378 0.023,-0.181 0.086,-0.338 0.031,-0.063 0.311,-0.374 0.19,-0.117 0.144,-0.131 0.13,-0.176 0.113,-0.229 0.005,-0.068 -0.028,-0.041 -1.243,-1.216 -0.65,-0.479 -0.373,-0.049 0.234,-3.178 -0.496,-0.031 0.153,-2.213 5.63,0.397 m -0.099,20.065 2.938,0.181 7.333,0.392 0.014,0.239 0.203,0.842 0.54,1.988 0.392,0.775 0.438,0.433 0.622,0.315 0.518,0.424 0.172,0.302 0.247,0.55 -0.275,0.415 -0.081,0.162 -0.135,0.572 0.009,0.113 0.054,0.148 -0.969,0.38 -0.225,0.071 -0.911,-0.058 -0.352,-0.072 -0.126,-0.113 -0.378,0.126 -0.92,0.852 -0.103,0.46 -0.145,-1.132 -2.239,-0.121 0.189,-3.322 -3.732,-0.226 0.068,-1.117 -3.358,-0.203 0.212,-3.376 m -0.464,-7.657 0.193,0.099 2.497,0.964 0.572,0.171 0.126,-0.022 0.204,-0.103 0.437,-0.271 0.306,-0.099 2.24,-0.189 0.158,0 0.072,0.032 0.487,0.504 -0.018,0.077 -0.073,0.081 -0.328,0.167 -0.082,0.072 -0.153,0.175 -0.031,0.095 0.013,0.09 0.699,1.947 0.775,0.676 -0.023,0.302 -4.466,-0.261 -0.203,3.331 -2.938,-0.181 -0.402,-0.401 0.266,-4.07 -0.536,-0.031 0.208,-3.155 m 11.006,-2.867 3.371,0.185 -0.103,2.218 -0.767,-0.037 -0.045,0.654 -0.184,3.782 -0.668,-0.037 -0.113,2.182 -1.902,-0.09 -0.049,-1.199 -0.032,-0.072 -0.153,-0.199 -0.293,-0.225 -0.203,-0.086 -0.252,-0.067 -0.311,0.027 -1.208,0.297 -0.775,-0.676 -0.699,-1.947 -0.013,-0.09 0.031,-0.095 0.153,-0.175 0.082,-0.072 0.328,-0.167 0.073,-0.081 0.018,-0.077 -0.487,-0.504 -0.072,-0.032 -0.158,0 -2.24,0.189 -0.306,0.099 -0.437,0.271 -0.204,0.103 -0.126,0.022 -0.572,-0.171 -2.497,-0.964 -0.193,-0.099 -0.429,-0.532 -0.036,-0.054 -0.018,-0.063 0.149,-1.781 0.036,-0.094 0.004,-0.081 -0.022,-0.068 -0.091,-0.058 -0.477,-0.212 -0.126,-0.023 -0.064,0.031 -0.063,0.059 -0.288,0.428 0.077,-1.144 4.489,0.288 7.865,0.437 m -15.964,-4.516 0.373,0.049 0.65,0.479 1.243,1.216 0.028,0.041 -0.005,0.068 -0.113,0.229 -0.13,0.176 -0.144,0.131 -0.19,0.117 -0.311,0.374 -0.031,0.063 -0.086,0.338 -0.023,0.181 0.037,0.378 0.018,0.063 0.036,0.041 -0.14,1.911 -3.998,-0.298 -0.324,4.418 -4.99,-0.393 -3.326,-0.288 0.077,-0.861 0.653,-7.635 1.041,0.604 0.307,-0.063 0.55,-0.302 0.766,-0.586 0.252,-0.37 -0.18,-0.176 -0.027,-0.058 0.005,-0.059 0.27,-0.207 0.176,-0.09 0.18,-0.036 0.568,0.189 0.153,0.293 0.022,0.397 0.195,0.324 0.455,0.401 0.112,0.009 1.262,-0.234 0.595,-0.162 0.406,-0.149 0.067,-0.072 0.018,-0.072 -0.004,-0.054 -0.072,-0.077 -0.131,-0.058 -0.018,-0.028 0.005,-0.022 0.157,-0.216 0.226,-0.235 0.108,-0.077 0.884,-0.076 1.982,0.27 0.366,0.194 m 24.694,25.037 7.531,0.27 0.307,0.014 -0.163,4.413 -6.413,-0.244 -1.46,-0.067 0.198,-4.386 m -2.263,-29.112 -0.094,2.209 0.157,1.501 -0.018,2.979 0.199,0.753 0.044,1.487 -3.384,-0.153 -3.371,-0.185 0.121,-2.221 -0.108,-0.005 -0.225,-1.01 -0.005,-2.312 -0.203,-1.168 0.118,-2.217 0.058,-1.109 2.267,0.113 3.372,0.171 -0.05,1.118 1.122,0.049 m 2.114,24.6 4.151,0.176 3.678,0.144 -0.149,4.462 -7.531,-0.27 -0.149,-4.512 m 13.152,0.464 3.61,0.091 -0.104,4.475 -8.671,-0.234 -0.307,-0.014 0.149,-4.462 5.323,0.144 m -14.527,-9.437 0.708,0.027 4.868,0.194 -0.167,4.439 0.306,0.009 -0.189,4.48 -4.151,-0.176 -1.474,-0.067 0.248,-4.467 -0.351,-0.013 0.202,-4.426 m -18.037,7.973 0.406,0.031 -0.018,3.007 0.207,1.555 -0.063,0.928 -4.471,-0.302 0.072,-0.991 -3.822,-0.248 0.297,-4.472 7.392,0.492 m 36.891,-11.795 0.094,5.535 -4.471,-0.104 -0.252,-1.109 0.108,-4.431 4.521,0.109 m -36.814,10.686 3.358,0.203 -0.068,1.117 3.732,0.226 -0.189,3.322 2.239,0.121 0.145,1.132 -0.857,0.856 -0.915,0.713 -0.842,0.594 -1.921,0.874 -0.712,0.212 -0.026,-0.004 -0.893,-0.185 -1.335,-0.469 -0.589,-0.198 -0.798,0.068 0.126,-1.952 0.063,-0.928 -0.207,-1.555 0.018,-3.007 -0.406,-0.031 0.077,-1.109 m 44.237,-17.235 -0.005,0.262 0,0.031 0.203,0.784 0.839,3.024 1.135,2.592 -5.107,-0.058 -3.591,-0.068 0.089,-4.439 0,-0.018 -0.184,-0.005 0.045,-2.227 6.576,0.122 m -57.547,8.401 -0.365,4.467 0.51,0.041 -0.356,4.483 -1.704,-0.139 -0.095,1.14 -2.172,-0.184 0.108,-1.29 0.748,-8.806 3.326,0.288 m 38.851,-1.077 6.725,0.207 -0.081,3.34 -6.761,-0.212 0.117,-3.335 m -7.68,11.953 1.474,0.067 0.149,4.512 -0.198,4.386 -5.567,-0.271 -0.112,-0.004 -0.807,-1.565 -0.036,-0.13 -0.09,-0.802 0.004,-0.149 0.108,-0.257 0.248,-0.37 0.167,-0.171 0.139,-0.284 0.037,-0.121 0.14,-1.177 -0.005,-0.387 -0.063,-0.239 -0.171,-0.451 -0.077,-0.154 -0.054,-0.148 -0.009,-0.113 0.135,-0.572 0.081,-0.162 0.275,-0.415 -0.247,-0.55 -0.172,-0.302 -0.518,-0.424 5.169,0.253 m 7.518,-15.284 6.752,0.216 0.162,2.231 -0.027,1.091 -6.725,-0.207 0.036,-1.091 -0.27,-0.013 0.072,-2.227 m -27.056,-0.239 0.288,-0.428 0.063,-0.059 0.064,-0.031 0.126,0.023 0.477,0.212 0.091,0.058 0.022,0.068 -0.004,0.081 -0.036,0.094 -0.149,1.781 0.018,0.063 0.036,0.054 0.429,0.532 -0.208,3.155 0.536,0.031 -0.266,4.07 -3.366,-0.225 -0.023,0.369 -4.489,-0.306 0.333,-4.458 -0.585,-0.044 0.324,-4.418 3.998,0.298 0.14,-1.911 2.181,0.991 m -13.183,-16.91 9.505,0.761 -0.27,3.543 0.468,0.032 -0.081,1.113 -10.01,-0.798 0.388,-4.651 m 42.182,37.296 8.671,0.234 0.257,0.005 -0.113,4.457 -6.449,-0.193 -2.529,-0.09 0.163,-4.413 m 1.126,-34.772 9.015,0.225 -0.068,3.601 0.194,0.005 -0.045,2.231 -3.381,-0.086 -5.642,-0.162 0.067,-2.217 -0.252,-0.01 0.026,-1.293 0.086,-2.294 m 12.958,22.814 5.463,0.086 0.045,1.118 0.013,1.631 0.374,1.226 0.109,0.298 -0.172,2.803 0.005,0.722 0,0.004 -4.43,-0.036 -3.579,-0.063 0.081,-4.48 -0.189,-1.303 0.031,-2.055 2.249,0.049 m -23.446,-1.811 -0.202,4.426 0.351,0.013 -0.248,4.467 -5.169,-0.253 -0.622,-0.315 -0.438,-0.433 -0.392,-0.775 -0.54,-1.988 -0.203,-0.842 -0.014,-0.239 -0.14,-2.24 1.902,0.09 0.113,-2.182 0.668,0.037 4.934,0.234 m -15.608,-19.782 -1.117,-0.076 -0.776,1.063 -0.148,2.218 -5.63,-0.397 0.081,-1.104 0.081,-1.113 -0.468,-0.032 0.27,-3.543 7.87,0.541 -0.163,2.443 m -10.749,31.698 -0.32,4.305 -9.424,-0.748 0.36,-4.295 9.384,0.738 m 15.409,-33.875 11.278,0.577 -0.158,3.57 0.32,0.014 -0.1,2.212 -1.131,-0.041 -1.122,-0.049 0.05,-1.118 -3.372,-0.171 -2.267,-0.113 -0.058,1.109 -3.385,-0.198 -0.262,-2.235 0.207,-3.557 m -20.322,19.989 4.99,0.393 0.585,0.044 -0.333,4.458 -1.753,-0.131 -0.347,4.485 -3.353,-0.258 0.356,-4.483 -0.51,-0.041 0.365,-4.467 m 37.229,-11.164 2.537,0.095 -0.09,2.749 0.063,0.086 1.785,2.005 0.307,-0.067 1.681,0.184 1.081,1.001 0.866,0.041 -0.018,0.878 -6.752,-0.216 -4.494,-0.175 0.086,-2.222 -0.315,-0.014 0.193,-4.466 3.07,0.121 m 12.989,14.847 2.249,0.049 -0.031,2.055 0.189,1.303 -0.081,4.48 -3.137,-0.072 -3.61,-0.091 0.112,-4.475 -0.247,-0.004 0.085,-3.349 4.471,0.104 m -45.305,10.203 0.631,0.037 3.822,0.248 -0.072,0.991 4.471,0.302 -0.216,3.349 -0.018,0 -8.456,-0.586 -0.482,-0.036 0.32,-4.305 m 60.9,-8.878 0.167,5.561 -0.952,1.118 -4.475,-0.022 -0.005,-0.722 0.172,-2.803 -0.109,-0.298 -0.374,-1.226 -0.013,-1.631 5.589,0.023" />
</svg>
