<?xml version="1.0" encoding="UTF-8" standalone="no"?>
<!-- Created with Inkscape (http://www.inkscape.org/) -->

<svg
   xmlns:dc="http://purl.org/dc/elements/1.1/"
   xmlns:cc="http://creativecommons.org/ns#"
   xmlns:rdf="http://www.w3.org/1999/02/22-rdf-syntax-ns#"
   xmlns:svg="http://www.w3.org/2000/svg"
   xmlns="http://www.w3.org/2000/svg"
   xmlns:sodipodi="http://sodipodi.sourceforge.net/DTD/sodipodi-0.dtd"
   xmlns:inkscape="http://www.inkscape.org/namespaces/inkscape"
   version="1.0"
   width="555.22198"
   height="351.66797"
   id="svg2"
   inkscape:version="0.48.1 r9760"
   sodipodi:docname="northernindiana.svg">
  <metadata
     id="metadata39">
    <rdf:RDF>
      <cc:Work
         rdf:about="">
        <dc:format>image/svg+xml</dc:format>
        <dc:type
           rdf:resource="http://purl.org/dc/dcmitype/StillImage" />
      </cc:Work>
    </rdf:RDF>
  </metadata>
  <defs
     id="defs37" />
  <sodipodi:namedview
     pagecolor="#ffffff"
     bordercolor="#666666"
     borderopacity="1"
     objecttolerance="10"
     gridtolerance="10"
     guidetolerance="10"
     inkscape:pageopacity="0"
     inkscape:pageshadow="2"
     inkscape:window-width="640"
     inkscape:window-height="480"
     id="namedview35"
     showgrid="false"
     inkscape:zoom="0.83029853"
     inkscape:cx="277.61099"
     inkscape:cy="175.83398"
     inkscape:window-x="0"
     inkscape:window-y="25"
     inkscape:window-maximized="0"
     inkscape:current-layer="svg2" />
  <path
     id="18091"
     style="font-size:12px;fill:#0000ff;fill-rule:nonzero;stroke:#000000;stroke-opacity:1;stroke-width:0.1;stroke-miterlimit:4;stroke-dasharray:none;stroke-linecap:butt;marker-start:none;stroke-linejoin:bevel"
     d="m 381.20798,122.016 2.866,-0.275 0.414,4.219 -1.126,0.112 -0.518,0.446 -0.197,0.758 -0.064,0.171 -0.168,0.316 -0.22,0.347 -0.284,0.185 -1.058,0.577 -0.615,-6.121 0.97,-0.735 m 7.261,-0.734 0.411,3.628 -2.174,0.23 -1.72,0.203 0.057,0.558 -0.555,0.059 -0.414,-4.219 2.84,-0.293 1.555,-0.166 m 3.835,-0.396 0.38,3.037 0.135,1.113 -3.876,0.428 -0.474,-4.182 2.582,-0.262 1.253,-0.134 m 3.498,-0.402 0.91,-0.098 0.369,3.001 -4.397,0.536 -0.38,-3.037 3.498,-0.402 m 4.444,-0.513 0.279,0.801 0.266,2.137 -3.71,0.478 -0.369,-3.001 3.534,-0.415 m -25.042,10.347 2.348,-0.896 0.352,3.889 0.028,0.055 0.054,0.022 0.224,2.262 -2.505,0.221 -0.316,-3.538 -0.185,-2.015 m 5.649,-1.446 0.076,0.838 0.319,3.358 -1.406,2.43 -1.632,0.152 -0.224,-2.262 -0.054,-0.022 -0.028,-0.055 -0.352,-3.889 0.519,-0.352 0.226,-0.324 0.545,-0.316 0.108,-0.022 0.194,0.049 0.522,0.181 0.744,0.472 0.085,0.024 0.276,-0.154 0.082,-0.108 m 4.19,-2.971 0.338,3.381 -4.452,0.428 -0.076,-0.838 1.058,-0.577 0.284,-0.185 0.22,-0.347 0.168,-0.316 0.064,-0.171 0.197,-0.758 0.518,-0.446 1.126,-0.112 0.555,-0.059 m 3.9,-0.437 0.179,3.417 -3.741,0.401 -0.338,-3.381 -0.057,-0.558 1.72,-0.203 2.174,-0.23 0.063,0.554 m 0,0 3.876,-0.428 0.215,1.835 0.068,0.527 0.091,0.973 -0.326,0.037 0.208,1.699 -2.51,0.321 -1.443,-1.547 -0.179,-3.417 m 8.138,-2.077 0.402,3.384 -1.104,0.127 -2.204,0.22 -0.032,-0.374 -1.109,0.127 -0.215,-1.835 -0.135,-1.113 4.397,-0.536 m 0,0 3.71,-0.478 0.162,1.343 0.243,1.997 -3.713,0.522 -0.402,-3.384 m -11.7,5.895 0.329,3.385 -1.095,0.094 -3.367,0.307 -0.319,-3.358 4.452,-0.428 m 0,0 3.741,-0.401 1.443,1.547 0.054,0.563 -2.024,1.383 -2.885,0.293 -0.329,-3.385 m 7.653,-2.411 1.109,-0.127 0.032,0.374 2.204,-0.22 0.112,3.37 -2.965,0.371 -0.451,-0.532 -0.208,-1.699 0.326,-0.037 -0.091,-0.973 -0.068,-0.527 m 8.19,-0.384 0.406,3.399 0.105,0.861 -2.602,0.365 -2.52,0.297 -0.122,-1.141 -0.112,-3.37 1.104,-0.127 3.713,-0.522 0.028,0.238 m -16.609,6.274 0.226,2.262 -1.609,0.137 -0.04,0.053 -0.037,0.091 -0.049,1.068 0.122,1.076 -3.143,0.294 -0.243,-2.244 1.406,-2.43 3.367,-0.307 m 1.095,-0.094 2.885,-0.293 0.505,4.475 -2.024,0.23 -0.167,-1.699 -1.519,-0.406 -0.549,0.049 -0.226,-2.262 1.095,-0.094 m 4.909,-1.676 0.54,4.488 0.727,-0.086 0.125,1.114 -2.911,0.342 -0.505,-4.475 2.024,-1.383 m 2.456,-0.884 0.451,0.532 0.546,4.502 -2.186,0.252 -0.727,0.086 -0.54,-4.488 -0.054,-0.563 2.51,-0.321 m 0.451,0.532 2.965,-0.371 0.122,1.141 0.397,3.389 -1.105,0.132 -1.833,0.211 -0.546,-4.502 m 3.087,0.77 2.52,-0.297 0.573,4.502 -1.281,0.162 -2.38,0.276 -0.14,-1.122 1.105,-0.132 -0.397,-3.389 m 5.122,-0.662 0.304,2.506 0.236,2.01 -2.569,0.351 -0.573,-4.502 2.602,-0.365 m -23.525,4.903 1.632,-0.152 0.365,3.37 -4.204,0.365 -0.015,-0.184 -0.283,-3.178 2.505,-0.221 m 8.866,1.429 0.153,1.672 -3.096,0.306 -0.1986,-1.67168 -0.7064,0.0627 -0.122,-1.076 0.049,-1.068 0.037,-0.091 0.04,-0.053 1.609,-0.137 0.549,-0.049 1.519,0.406 0.167,1.699 m 2.024,-0.23 2.911,-0.342 0.239,2.05 -3.655,0.811 -0.365,0.041 -0.297,-0.162 -0.059,-0.559 -0.645,0.063 -0.153,-1.672 2.024,-0.23 m 4.972,-1.708 1.833,-0.211 0.14,1.122 0.298,2.42 -1.302,0.139 -2.755,0.311 -0.036,-0.365 -0.239,-2.05 -0.125,-1.114 2.186,-0.252 m 1.973,0.911 2.38,-0.276 0.095,2.448 -2.177,0.248 -0.298,-2.42 m 6.23,-0.789 0.319,2.836 0.067,0.548 -4.024,0.509 -0.117,-0.932 -0.095,-2.448 1.281,-0.162 2.569,-0.351 m -27.674,-11.958 2.978,0.83 0.492,4.935 -0.519,0.352 -2.348,0.896 -0.153,-1.708 -0.45,-5.305 m 5.637,-0.554 0.615,6.121 -0.082,0.108 -0.276,0.154 -0.085,-0.024 -0.744,-0.472 -0.522,-0.181 -0.194,-0.049 -0.108,0.022 -0.545,0.316 -0.226,0.324 -0.492,-4.935 2.659,-1.384" />
</svg>
