<?xml version="1.0" encoding="UTF-8" standalone="no"?>
<!-- Created with Inkscape (http://www.inkscape.org/) -->

<svg
   xmlns:dc="http://purl.org/dc/elements/1.1/"
   xmlns:cc="http://creativecommons.org/ns#"
   xmlns:rdf="http://www.w3.org/1999/02/22-rdf-syntax-ns#"
   xmlns:svg="http://www.w3.org/2000/svg"
   xmlns="http://www.w3.org/2000/svg"
   xmlns:sodipodi="http://sodipodi.sourceforge.net/DTD/sodipodi-0.dtd"
   xmlns:inkscape="http://www.inkscape.org/namespaces/inkscape"
   version="1.0"
   width="555.22198"
   height="351.66797"
   id="svg2"
   inkscape:version="0.48.1 r9760"
   sodipodi:docname="northernmichigan.svg">
  <metadata
     id="metadata23">
    <rdf:RDF>
      <cc:Work
         rdf:about="">
        <dc:format>image/svg+xml</dc:format>
        <dc:type
           rdf:resource="http://purl.org/dc/dcmitype/StillImage" />
      </cc:Work>
    </rdf:RDF>
  </metadata>
  <defs
     id="defs21" />
  <sodipodi:namedview
     pagecolor="#ffffff"
     bordercolor="#666666"
     borderopacity="1"
     objecttolerance="10"
     gridtolerance="10"
     guidetolerance="10"
     inkscape:pageopacity="0"
     inkscape:pageshadow="2"
     inkscape:window-width="640"
     inkscape:window-height="480"
     id="namedview19"
     showgrid="false"
     inkscape:zoom="0.83029853"
     inkscape:cx="277.61099"
     inkscape:cy="175.83398"
     inkscape:window-x="0"
     inkscape:window-y="25"
     inkscape:window-maximized="0"
     inkscape:current-layer="svg2" />
  <path
     id="26013"
     style="font-size:12px;fill:#0000ff;fill-rule:nonzero;stroke:#000000;stroke-opacity:1;stroke-width:0.1;stroke-miterlimit:4;stroke-dasharray:none;stroke-linecap:butt;marker-start:none;stroke-linejoin:bevel"
     d="m 364.01298,56.731 0.154,1.88 0.451,-0.032 0.022,0.009 0.091,1.086 -1.101,0.104 0.266,3.317 -5.016,0.397 -0.42,-5.53 1.033,-1.199 0.91,-0.185 -0.179,0.802 -0.015,0.699 0.015,0.072 0.102,0.248 0.118,0.243 0.211,-0.018 0.032,-0.09 0.149,-0.248 0.433,-0.604 0.956,-1.023 0.752,-0.518 0.099,-0.032 0.099,0.05 0.838,0.572 m -4.52,-4.439 1.879,-0.153 0.095,1.104 0.622,-0.054 -1.686,3.389 -0.91,0.185 -1.033,1.199 0.42,5.53 -2.776,0.212 -0.14,-1.884 -0.089,-1.456 1.108,-0.072 -0.078,-1.095 -0.608,0.045 -0.261,-3.421 0.207,-0.712 0.117,-0.194 0.614,-0.572 0.955,-0.889 0.224,-0.202 1.34,-0.96 m -2.33,-10.479 0.064,-0.122 0.016,-0.031 0.136,-0.163 0.36,-0.23 0.559,-0.301 1.063,-0.289 0.05,0.13 -0.004,0.127 -1.275,1.537 -0.739,0.662 -1.989,1.695 -1.793,0.933 -0.288,0.081 -0.294,-0.077 -0.405,-0.229 -0.203,-0.298 0.064,-0.162 0.26,-0.343 0.289,-0.293 0.7,-0.473 0.846,-0.504 1.92,-1.204 0.663,-0.446 m 2.33,10.479 0.414,-0.731 0.326,-0.428 0.243,-0.189 1.441,-0.942 0.302,-0.139 1.226,-0.338 0.533,-0.091 0.436,-0.027 1.127,-0.027 0.405,0.127 0.24,0.13 0.139,0.104 0.086,0.428 -0.008,0.063 -0.889,0.289 -0.104,-0.009 -1.198,0.252 -1.321,1.848 -0.247,0.32 -0.555,0.257 -0.622,0.054 -0.095,-1.104 -1.879,0.153 m -0.613,11.2 5.016,-0.397 0.18,2.218 0.353,4.219 -0.212,-0.141 -0.343,-0.166 -0.224,-0.036 -0.02,-0.005 -2.623,-0.329 -1.577,0.167 -0.185,-0.329 -2.289,-0.586 -0.546,-0.266 -0.22,-3.028 -0.086,-1.109 2.776,-0.212 m 5.133,-6.761 1.275,-0.072 0.795,0.208 0.283,0.081 1.393,0.753 0.369,0.342 0.077,0.378 0.094,0.284 1.957,2.484 0.076,0.085 0.145,0.117 0.143,0.068 0.37,0.081 0.469,0.005 1.159,-0.18 0.099,-0.027 0.405,4.308 -1.122,0.104 0.194,2.231 -1.118,0.099 -2.235,0.189 -0.289,-3.344 -4.476,0.388 -0.18,-2.218 -0.266,-3.317 1.101,-0.104 -0.091,-1.086 -0.022,-0.009 -0.451,0.032 -0.154,-1.88 m 0.063,8.582 4.476,-0.388 0.289,3.344 0.095,1.122 -0.712,0.064 0.192,2.253 -1.18,0.109 -2.131,-0.573 -0.122,0.018 -0.009,-0.004 -0.122,-0.032 -0.076,-0.018 -0.344,-0.279 -0.009,-0.005 -0.058,-0.113 0.013,-0.045 0.005,-0.009 0.158,-0.202 0.063,-0.05 0.144,-0.203 0.126,-0.216 -0.013,-0.045 -0.028,-0.041 -0.265,-0.379 -0.139,-0.089 -0.353,-4.219 m 4.765,2.956 2.235,-0.189 0.199,0.726 0.279,0.351 0.392,4.467 0.572,-0.054 -0.166,0.649 -0.288,0.928 -0.826,1.871 -0.585,0.946 -0.56,1.722 -0.41,-0.064 -0.234,-0.04 -0.009,-0.004 -0.712,-0.753 -0.041,-0.068 -0.08,-0.265 -0.005,-0.009 -0.798,-3.836 -0.09,-2.326 -0.27,-0.333 -0.023,-0.022 -0.014,-0.01 -0.171,-0.139 1.18,-0.109 -0.192,-2.253 0.712,-0.064 -0.095,-1.122 m 4.281,-2.623 4.471,-0.432 1.122,-0.099 0.32,2.226 0.298,1.1 0.171,1.771 -0.487,0.122 -0.261,-1.28 -2.227,0.978 -1.654,0.694 -0.103,-0.496 -0.086,-0.23 -0.176,-0.257 -0.131,-0.077 -0.112,0.032 -0.072,0.045 -0.094,0.167 -1.362,3.146 -0.216,0.496 -0.005,0.018 -0.572,0.054 -0.392,-4.467 -0.279,-0.351 -0.199,-0.726 1.118,-0.099 -0.194,-2.231 1.122,-0.104 m 10.7,-5.548 -4.439,0.451 0.221,2.231 -2.232,0.202 0.221,2.232 -4.471,0.432 -0.405,-4.308 0.324,-0.289 0.509,-0.284 0.077,0.004 0.288,0.05 0.126,0.117 0.195,0.397 0.612,0.496 0.082,0.049 0.229,0.018 2.308,-0.604 1.613,-1.451 1.677,-1.347 2.294,-0.636 0.533,-0.126 0.238,2.366 m 0,0 0.356,3.331 0.365,3.533 -0.477,0.311 -1.357,-0.076 -0.208,0.005 -0.906,0.139 -0.207,0.076 -0.495,0.271 -0.302,0.379 -0.063,0.121 -0.005,0.703 -0.099,0.708 -0.099,0.113 -0.645,0.446 -0.14,0.063 -0.036,-0.009 -0.171,-1.771 -0.298,-1.1 -0.32,-2.226 -1.122,0.099 -0.221,-2.232 2.232,-0.202 -0.221,-2.231 4.439,-0.451 m 0,0 -0.238,-2.366 0.616,0.049 0.398,0.005 1.451,-0.122 0.396,-0.04 0.289,-0.054 0.24,-0.086 0.944,-0.536 1.11,-0.667 0.739,6.517 -5.589,0.631 -0.356,-3.331 m 19.299,4.246 0.045,-0.045 0.076,-0.194 -0.017,-0.176 -0.113,-0.239 -0.211,-0.04 -0.167,-0.194 -0.154,-0.375 0.064,-0.071 0.032,-0.005 1.59,-0.144 0.086,0.009 0.415,0.112 1.053,1.073 0.074,0.09 0.013,0.05 -0.239,0.748 -0.05,0.081 -0.072,0.073 -0.31,0.121 -1.529,-0.004 -0.289,-0.208 -0.13,-0.171 -0.148,-0.167 -0.019,-0.189 0,-0.135 m -13.354,-1.546 -0.739,-6.517 0.558,-0.167 1.213,-0.099 0.302,0.383 -0.09,0.216 -0.041,0.198 -0.004,0.162 0.004,2.047 0.026,0.153 0.06,0.131 0.166,0.189 0.082,0.054 0.095,0.032 1.703,0.261 1.948,-0.396 1.393,-0.586 0.202,-0.18 1.947,-0.745 0.491,0.037 0.094,0.013 0.122,0.149 0.077,0.167 -0.031,1.713 0.014,2.464 1.09,1.087 0.392,0.374 0.379,0.239 0.852,0.329 0.206,0.031 0.109,0.356 -0.077,0.289 -1.222,-0.031 -0.662,-0.023 -0.144,-0.059 -0.09,-0.054 -1.136,-0.031 -0.32,-0.996 -1.05,-0.996 -6.675,0.793 -0.135,-1.118 -1.109,0.131 m -5.589,0.631 5.589,-0.631 1.109,-0.131 0.135,1.118 6.675,-0.793 1.05,0.996 0.32,0.996 1.136,0.031 -1.889,0.519 -1.893,-0.411 -1.744,0.988 -2.56,-0.541 -1.091,-0.329 -1.902,-0.388 -0.694,-0.036 -0.136,0.009 -0.643,0.135 -0.109,0.041 -0.077,0.054 -0.152,0.167 -0.496,0.693 -0.091,0.294 -0.283,0.482 -0.072,0.094 -0.289,0.118 -1.528,0.058 -0.365,-3.533 m -28.142,-7.608 0.261,3.421 0.608,-0.045 0.078,1.095 -1.108,0.072 0.089,1.456 0.14,1.884 0.086,1.109 -3.345,0.243 -0.158,-2.213 -3.348,0.234 -1.168,-1.055 -0.131,-2.213 -0.235,0.019 0.335,-0.415 0.144,-0.117 0.351,-0.207 0.617,-0.194 0.41,-0.064 0.118,0.018 0.166,0.063 1.808,-0.306 0.19,-0.067 0.369,-0.199 3.181,-2.006 0.542,-0.513 m -8.231,4.007 0.235,-0.019 0.131,2.213 1.168,1.055 3.348,-0.234 0.158,2.213 3.345,-0.243 0.22,3.028 -0.635,-0.311 -0.613,-0.207 -0.38,-0.081 -0.486,-0.099 -6.464,-1.326 -0.91,-0.189 -0.829,-0.175 -1.812,-2.227 -1.018,-0.554 0.595,-0.483 0.176,-0.099 1.429,-0.573 0.554,-0.157 0.482,-0.203 0.145,-0.086 0.274,-0.261 0.649,-0.645 0.238,-0.337" />
</svg>
