<?xml version="1.0" encoding="UTF-8" standalone="no"?>
<!-- Created with Inkscape (http://www.inkscape.org/) -->

<svg
   xmlns:dc="http://purl.org/dc/elements/1.1/"
   xmlns:cc="http://creativecommons.org/ns#"
   xmlns:rdf="http://www.w3.org/1999/02/22-rdf-syntax-ns#"
   xmlns:svg="http://www.w3.org/2000/svg"
   xmlns="http://www.w3.org/2000/svg"
   xmlns:sodipodi="http://sodipodi.sourceforge.net/DTD/sodipodi-0.dtd"
   xmlns:inkscape="http://www.inkscape.org/namespaces/inkscape"
   version="1.0"
   width="555.22198"
   height="351.66797"
   id="svg2"
   inkscape:version="0.48.1 r9760"
   sodipodi:docname="northwesttexas.svg">
  <metadata
     id="metadata89">
    <rdf:RDF>
      <cc:Work
         rdf:about="">
        <dc:format>image/svg+xml</dc:format>
        <dc:type
           rdf:resource="http://purl.org/dc/dcmitype/StillImage" />
      </cc:Work>
    </rdf:RDF>
  </metadata>
  <defs
     id="defs87" />
  <sodipodi:namedview
     pagecolor="#ffffff"
     bordercolor="#666666"
     borderopacity="1"
     objecttolerance="10"
     gridtolerance="10"
     guidetolerance="10"
     inkscape:pageopacity="0"
     inkscape:pageshadow="2"
     inkscape:window-width="640"
     inkscape:window-height="480"
     id="namedview85"
     showgrid="false"
     inkscape:zoom="0.83029853"
     inkscape:cx="277.61099"
     inkscape:cy="175.83398"
     inkscape:window-x="0"
     inkscape:window-y="25"
     inkscape:window-maximized="0"
     inkscape:current-layer="svg2" />
  <path
     id="48487"
     style="font-size:12px;fill:#0000ff;fill-rule:nonzero;stroke:#000000;stroke-opacity:1;stroke-width:0.1;stroke-miterlimit:4;stroke-dasharray:none;stroke-linecap:butt;marker-start:none;stroke-linejoin:bevel"
     d="m 259.49398,222.118 -0.013,0.298 -0.009,0.28 0.184,1 0,0.004 0.005,0.006 0.135,0.04 0.216,0.067 0.397,0.09 0.198,-0.009 0.428,-0.008 0.978,0.077 0.014,0 0.149,0.075 -0.153,4.684 -5.567,-0.189 0.122,-3.255 0.158,-4.056 0.347,0.329 0.356,0.031 0.081,-0.035 0.009,0 0.014,-0.023 0.004,-0.01 0.455,-0.815 0.464,0.252 0.528,0.284 0.5,0.87 0,0.013 m 2.529,6.604 -0.185,5.652 -5.553,-0.207 0.135,-4.332 0.036,-1.302 5.567,0.189 m -9.182,-9.06 0.55,0.713 0.266,0.315 0.739,0.703 0.325,0.077 0.09,0 0.41,-0.004 0.411,-0.519 0.058,-0.022 0.117,0.017 0.505,0.059 0.162,0.068 0.262,0.153 -0.158,4.056 -0.041,0.126 -0.121,0.126 -0.636,0.105 -2.74,-0.884 -1.929,-1.491 0.045,-1.132 0.14,-3.236 1.545,0.77 m -1.73,3.598 1.929,1.491 2.74,0.884 0.636,-0.105 0.121,-0.126 0.041,-0.126 -0.122,3.255 -0.036,1.302 -0.027,-0.167 -0.153,-0.279 -0.541,-0.383 -1.636,-0.361 -1.438,-0.279 -1.712,-0.072 -0.555,-0.028 0.234,-5.096 0.104,-0.113 0.297,-0.028 0.118,0.231 m 5.309,6.575 -0.135,4.332 -5.553,-0.194 0.181,-5.679 1.712,0.072 1.438,0.279 1.636,0.361 0.541,0.383 0.153,0.279 0.027,0.167 m -11.069,-1.789 5.007,0.22 0.555,0.028 -0.181,5.679 -5.638,-0.262 0.257,-5.665 m 0.311,-6.195 1.05,0.056 4.444,0.221 -0.045,1.132 -0.118,-0.231 -0.297,0.028 -0.104,0.113 -0.234,5.096 -5.007,-0.22 0.311,-6.195 m 1.334,-5.565 4.372,0.208 -0.072,2.398 -0.14,3.236 -4.444,-0.221 0.284,-5.621 m -1.028,-5.71 5.639,0.262 -0.086,1.974 -0.153,3.682 -4.372,-0.208 -1.316,-0.067 0.288,-5.643 m 0.257,-5.656 5.621,0.257 -0.239,5.661 -5.639,-0.262 0.257,-5.656 m 5.855,-5.408 -0.095,2.266 -0.139,3.399 -5.621,-0.257 0.275,-5.671 5.58,0.263 m -5.368,-6.014 5.58,0.249 -0.212,5.765 -5.58,-0.263 -0.068,-0.004 0.28,-5.747 m -4.196,-0.211 4.196,0.211 -0.28,5.747 -5.575,-0.297 0.311,-5.728 1.348,0.067 m -1.659,5.692 0,-0.031 5.575,0.297 0.068,0.004 -0.275,5.671 -5.675,-0.284 0.005,-0.081 0.302,-5.576 m -0.307,5.657 5.675,0.284 -0.257,5.656 -5.724,-0.274 0.306,-5.666 m 5.418,5.94 -0.288,5.643 -4.25,-0.216 -1.533,-0.082 0.347,-5.619 5.724,0.274 m -0.288,5.643 1.316,0.067 -0.284,5.621 -1.05,-0.056 -4.539,-0.21 0.307,-5.638 4.25,0.216 m -5.567,5.373 1.01,0.049 4.539,0.21 -0.311,6.195 -5.562,-0.252 0.324,-6.202 m -0.324,6.202 5.562,0.252 -0.257,5.665 -5.58,-0.271 0.275,-5.646 m 5.305,5.917 5.638,0.262 -0.216,5.656 -1.672,-0.068 -4.034,-0.225 0.284,-5.625 m 5.638,0.262 5.553,0.194 -0.194,5.72 -1.519,-0.055 -4.056,-0.203 0.216,-5.656 m 5.553,0.194 5.553,0.207 -0.144,5.706 -1.564,-0.054 -4.039,-0.139 0.194,-5.72 m -1.713,5.665 1.519,0.055 4.039,0.139 -0.185,5.719 -0.199,-0.006 -5.39,-0.188 0.216,-5.719 m -5.728,-0.271 1.672,0.068 4.056,0.203 -0.216,5.719 -0.189,-0.009 -5.594,-0.333 0.271,-5.648 m -4.034,-0.225 4.034,0.225 -0.271,5.648 -5.566,-0.288 0.329,-5.661 1.474,0.076 m 3.763,5.873 -0.306,5.683 -0.906,-0.037 -4.683,-0.256 0.329,-5.678 5.566,0.288 m 5.594,0.333 -0.235,5.602 -0.901,-0.045 -4.764,-0.207 0.306,-5.683 5.594,0.333 m 0.189,0.009 5.39,0.188 -0.23,5.626 -0.842,-0.026 -4.742,-0.195 0.235,-5.602 0.189,0.009 m -0.424,5.593 4.742,0.195 -0.343,7.9 -0.541,-0.131 -2.118,-0.053 -0.996,-0.154 -0.712,-0.139 -1.271,-1.146 0.338,-6.517 0.901,0.045 m -5.665,-0.252 4.764,0.207 -0.338,6.517 -4.264,-0.22 -1.302,-1.516 0.234,-5.025 0.906,0.037 m -7.288,-0.397 1.699,0.104 4.683,0.256 -0.234,5.025 -6.446,-0.346 0.298,-5.039 m -0.298,5.039 6.446,0.346 1.302,1.516 -0.32,6.346 -6.323,-0.275 0.234,-5.638 -3.263,-0.217 -3.033,-0.176 0.022,-0.356 4.412,0.158 0.141,-1.843 0.382,0.139 m 12.012,2.082 1.271,1.146 -0.212,5.218 -5.643,-0.238 0.32,-6.346 4.264,0.22 m -7.599,-23.905 -0.284,5.625 -1.474,-0.076 -4.115,-0.298 0.293,-5.522 5.58,0.271 m -9.37,23.725 3.033,0.176 3.263,0.217 -0.234,5.638 -3.016,-0.099 -3.443,-0.144 0.397,-5.788 m 0.437,-7.202 0.874,0.049 3.944,0.212 -0.298,5.039 -0.382,-0.139 -0.141,1.843 -4.412,-0.158 0.072,-1.217 0.343,-5.629 m 1.289,-5.634 5.557,0.321 -0.329,5.678 -1.699,-0.104 -3.944,-0.212 0.41,-5.637 0.005,-0.046 m 1.771,-5.638 4.115,0.298 -0.329,5.661 -5.557,-0.321 0.32,-5.629 1.451,-0.009 m 0.293,-5.522 -0.293,5.522 -1.451,0.009 -4.138,-0.203 0.334,-5.607 5.548,0.279 m -5.882,5.328 4.138,0.203 -0.32,5.629 -0.005,0.046 -5.561,-0.334 0.311,-5.638 1.437,0.094 m 3.813,5.878 -0.41,5.637 -0.874,-0.049 -4.683,-0.274 0.406,-5.648 5.561,0.334 m -5.967,5.314 4.683,0.274 -0.343,5.629 -5.561,-0.333 0.337,-5.615 0.884,0.045 m -1.221,5.57 5.561,0.333 -0.072,1.217 -0.022,0.356 -0.397,5.788 -5.526,-0.33 0.456,-7.364 m -5.932,-0.374 0.338,0.019 5.594,0.355 -0.456,7.364 -5.773,-0.451 0.297,-7.287 m -17.776,-5.859 2.794,0.229 4.314,0.338 -0.36,4.494 -3.093,-0.247 -0.234,-0.514 -0.541,-0.785 -0.108,-0.022 -0.216,0.045 -0.009,0.026 -0.027,0.023 -0.1,0.005 -0.238,-0.054 -0.086,-0.113 -1.455,-2.092 -0.641,-1.333 m 10.042,-0.334 2.88,0.229 -0.401,5.595 -5.773,-0.429 0.36,-4.494 0.64,0.051 0.563,0.039 0.767,0.059 0.612,0.049 0.267,0.019 0.085,-1.118 m 2.479,5.824 0.347,0.021 -0.329,4.611 -0.784,0.051 -0.469,-0.469 -0.311,-0.276 -0.347,-0.208 -0.69,-0.288 -0.645,0.033 -0.405,-0.009 -0.261,-0.028 -0.559,-0.126 -3.02,-1 -0.139,-0.145 -0.127,-0.226 -0.108,-0.648 0.027,-0.772 0.063,-0.442 -0.067,-0.273 -0.181,-0.29 -0.861,-0.192 3.093,0.247 5.773,0.429 m 0.347,0.021 4.908,0.348 -0.297,7.287 -0.965,-0.076 -0.347,-1.352 -0.099,-0.249 -0.031,-0.053 -0.141,-0.135 -0.531,-0.46 -0.144,-0.113 -1.352,-0.775 -0.14,0.005 -1.19,0.184 0.329,-4.611 m 5.625,-5.246 -0.379,5.613 -0.338,-0.019 -4.908,-0.348 -0.347,-0.021 0.401,-5.595 5.571,0.37 m 0,0 0.82,0.054 4.732,0.299 -0.337,5.615 -5.594,-0.355 0.379,-5.613 m -8.036,-6.211 9.226,0.636 -0.37,5.629 -0.82,-0.054 -5.571,-0.37 -2.88,-0.229 0.415,-5.612 m 9.226,0.636 0.089,0.005 5.563,0.32 -0.406,5.648 -0.884,-0.045 -4.732,-0.299 0.37,-5.629 m -8.807,-6.273 5.048,0.369 4.156,0.279 -0.308,5.63 -0.089,-0.005 -9.226,-0.636 0.419,-5.637 m 10.628,0.729 4.142,0.231 -0.311,5.638 -5.563,-0.32 0.308,-5.63 1.424,0.081 m -5.192,-5.908 -0.388,5.548 -5.048,-0.369 0.496,-5.535 4.94,0.356 m 0,0 5.548,0.355 -0.356,5.553 -1.424,-0.081 -4.156,-0.279 0.388,-5.548 m 11.105,0.626 -0.334,5.607 -1.437,-0.094 -4.142,-0.231 0.356,-5.553 5.557,0.271 m -3.867,-40.609 -0.379,5.769 -9.068,-0.631 0.244,-3.407 0.157,-2.078 0.424,-0.252 8.622,0.599 m 1.339,0.087 4.195,0.265 -0.338,5.76 -5.575,-0.343 0.379,-5.769 1.339,0.087 m 9.73,0.581 -0.311,5.728 0,0.031 -5.562,-0.315 0.338,-5.76 5.535,0.316 m -20.516,4.47 9.068,0.631 -0.356,5.544 -9.136,-0.571 0.117,-1.511 0.307,-4.093 m 9.068,0.631 5.575,0.343 -0.324,5.594 0,0.049 -5.616,-0.347 0.009,-0.095 0.356,-5.544 m 5.575,0.343 5.562,0.315 -0.302,5.576 -5.584,-0.297 0.324,-5.594 m -5.931,5.201 -0.009,0.095 -0.414,5.656 -4.783,-0.374 -2.221,-0.112 -2.137,-0.149 0.428,-5.687 9.136,0.571 m -0.009,0.095 5.616,0.347 -0.338,5.666 -5.692,-0.357 0.414,-5.656 m 5.616,0.347 0,-0.049 5.584,0.297 -0.005,0.081 -0.306,5.666 -5.611,-0.329 0.338,-5.666 m -15.594,10.312 0.198,-2.673 0.225,-2.965 2.137,0.149 2.221,0.112 4.783,0.374 -0.383,5.643 -3.746,-0.244 -5.435,-0.396 m 9.564,-5.003 5.692,0.357 -0.401,5.637 -3.881,-0.248 -1.793,-0.103 0.383,-5.643 m 5.692,0.357 5.611,0.329 -0.347,5.619 -4.007,-0.211 -1.658,-0.1 0.401,-5.637 m -15.256,4.646 5.435,0.396 -0.388,5.617 -0.946,-0.069 -4.534,-0.323 0.433,-5.621 m 9.181,0.64 1.793,0.103 -0.351,5.634 -0.978,-0.063 -4.598,-0.301 0.388,-5.617 3.746,0.244 m 1.793,0.103 3.881,0.248 1.658,0.1 -0.324,5.634 -0.987,-0.059 -4.579,-0.289 0.351,-5.634 m 5.539,0.348 4.007,0.211 1.533,0.082 -0.307,5.638 -1.01,-0.049 -4.547,-0.248 0.324,-5.634 m -12.412,4.853 -0.447,6.311 -4.592,-0.324 0.496,-6.175 0.009,-0.135 4.534,0.323 m 0,0 0.946,0.069 4.598,0.301 -0.357,6.324 -5.634,-0.383 0.447,-6.311 m 5.544,0.37 0.978,0.063 4.579,0.289 -0.352,6.237 -5.562,-0.265 0.357,-6.324 m 6.544,0.411 4.547,0.248 -0.324,6.202 -5.562,-0.272 0.352,-6.237 0.987,0.059 m -17.127,5.206 4.592,0.324 -0.17,5.661 -4.94,-0.356 0.221,-2.353 0.297,-3.276 m 4.592,0.324 5.634,0.383 -0.256,5.633 -5.548,-0.355 0.17,-5.661 m 5.634,0.383 5.562,0.265 -0.261,5.639 -5.557,-0.271 0.256,-5.633 m 5.562,0.265 5.562,0.272 -0.275,5.646 -5.548,-0.279 0.261,-5.639" />
</svg>
