<?xml version="1.0" encoding="UTF-8" standalone="no"?>
<!-- Created with Inkscape (http://www.inkscape.org/) -->

<svg
   xmlns:dc="http://purl.org/dc/elements/1.1/"
   xmlns:cc="http://creativecommons.org/ns#"
   xmlns:rdf="http://www.w3.org/1999/02/22-rdf-syntax-ns#"
   xmlns:svg="http://www.w3.org/2000/svg"
   xmlns="http://www.w3.org/2000/svg"
   xmlns:sodipodi="http://sodipodi.sourceforge.net/DTD/sodipodi-0.dtd"
   xmlns:inkscape="http://www.inkscape.org/namespaces/inkscape"
   version="1.0"
   width="555.22198"
   height="351.66797"
   id="svg2"
   inkscape:version="0.48.1 r9760"
   sodipodi:docname="northwesternpennsylvania.svg">
  <metadata
     id="metadata21">
    <rdf:RDF>
      <cc:Work
         rdf:about="">
        <dc:format>image/svg+xml</dc:format>
        <dc:type
           rdf:resource="http://purl.org/dc/dcmitype/StillImage" />
      </cc:Work>
    </rdf:RDF>
  </metadata>
  <defs
     id="defs19" />
  <sodipodi:namedview
     pagecolor="#ffffff"
     bordercolor="#666666"
     borderopacity="1"
     objecttolerance="10"
     gridtolerance="10"
     guidetolerance="10"
     inkscape:pageopacity="0"
     inkscape:pageshadow="2"
     inkscape:window-width="640"
     inkscape:window-height="480"
     id="namedview17"
     showgrid="false"
     inkscape:zoom="0.83029853"
     inkscape:cx="277.61099"
     inkscape:cy="175.83398"
     inkscape:window-x="0"
     inkscape:window-y="25"
     inkscape:window-maximized="0"
     inkscape:current-layer="svg2" />
  <path
     id="42033"
     style="font-size:12px;fill:#0000ff;fill-rule:nonzero;stroke:#000000;stroke-opacity:1;stroke-width:0.1;stroke-miterlimit:4;stroke-dasharray:none;stroke-linecap:butt;marker-start:none;stroke-linejoin:bevel"
     d="m 463.85998,117.162 1.396,-0.085 0.677,0.707 0.094,1.527 0.013,0.308 -0.116,0.802 -0.051,0.058 -0.54,0.222 -0.46,0.405 -0.108,0.121 -1.086,2.257 0.013,0.042 0.168,0.207 0.138,0.086 -4.314,0.802 -0.454,-2.312 -0.481,-2.664 -0.011,-0.373 0.005,-0.028 0.162,-0.793 0.537,-0.085 0.496,-0.689 0.847,-0.172 3.075,-0.343 m -9.453,0.396 1.06,-0.305 0.188,-0.199 1.051,-0.307 2.353,0.879 0.315,0.375 0.068,0.365 -0.537,0.085 -0.162,0.793 -0.005,0.028 0.011,0.373 0.481,2.664 -3.925,0.636 -0.317,-1.781 -0.581,-3.606 m -2.671,-0.243 0.733,-0.131 -0.108,-0.634 0.397,-0.073 1.442,-0.185 0.207,1.266 0.581,3.606 -0.846,0.767 -1.037,0.418 -0.694,0.249 -0.18,0.054 -0.289,-0.023 -0.203,-0.031 -1.041,-0.658 -0.225,-0.527 -0.032,-0.117 -0.247,-0.87 -0.045,-0.023 0.247,-1.104 0.161,-0.338 0.181,-0.271 0.438,-0.414 0.1,-0.017 0.567,-0.295 -0.107,-0.649 m -5.189,5.067 -0.126,2.848 -3.438,0.62 -0.114,-0.62 -0.465,-2.889 2.48,-0.447 1.077,0.005 0.586,0.483 m 14.698,-9.641 1.996,-0.586 2.37,1.442 -0.355,3.48 -1.396,0.085 -0.205,-1.193 -0.374,-1.002 -1.572,0.293 -0.464,-2.519 m -5.116,0.658 1.208,-0.207 1.465,-0.299 0.491,-0.129 1.28,-0.262 0.672,0.239 0.464,2.519 1.572,-0.293 0.374,1.002 0.205,1.193 -3.075,0.343 -0.847,0.172 -0.496,0.689 -0.068,-0.365 -0.315,-0.375 -2.353,-0.879 -1.051,0.307 -0.188,0.199 -0.178,-1.055 0.218,-0.437 0.825,-0.127 0.081,-0.495 -0.284,-1.74 m -5.255,0.928 5.255,-0.928 0.284,1.74 -0.081,0.495 -0.825,0.127 -0.218,0.437 0.178,1.055 -1.06,0.305 -0.207,-1.266 -1.442,0.185 -0.397,0.073 0.108,0.634 -0.733,0.131 -0.127,-0.689 -0.46,-0.794 -0.275,-1.505 m 0,0 0.275,1.505 0.46,0.794 0.127,0.689 0.107,0.649 -0.567,0.295 -0.1,0.017 -0.438,0.414 -0.181,0.271 -0.161,0.338 -0.247,1.104 -2.899,0.514 -0.694,-4.074 0.343,-0.366 1.027,-1.343 2.015,-0.545 -0.018,-0.085 0.951,-0.177 m -9.239,3.354 4.921,-0.838 0.694,4.074 -0.703,1.465 -0.586,-0.483 -1.077,-0.005 -2.48,0.447 -0.017,-0.104 -0.752,-4.556 m 19.706,-10.2 0.949,-0.188 0.951,4.862 -1.996,0.586 -0.672,-0.239 -1.28,0.262 -0.491,0.129 -1.465,0.299 -1.208,0.207 -0.41,-2.65 0.258,-0.055 0.026,-0.134 -0.257,-1.434 -0.135,-0.568 0.415,-0.072 2.604,-0.506 2.711,-0.499 m -7.069,1.303 1.339,-0.226 0.135,0.568 0.257,1.434 -0.026,0.134 -0.258,0.055 0.41,2.65 -5.255,0.928 -0.951,0.177 -0.496,-2.894 -0.311,-1.912 5.156,-0.914 m -4.845,2.826 0.496,2.894 0.018,0.085 -2.015,0.545 -1.027,1.343 -0.343,0.366 -4.921,0.838 -0.024,-0.14 -0.734,-4.48 5.742,-0.978 2.142,-0.385 0.666,-0.088 m -0.311,-1.912 0.311,1.912 -0.666,0.088 -2.142,0.385 -5.742,0.978 -0.268,-1.636 1.657,-1.045 2.185,-1.812 1.731,-1.416 0.91,-0.667 0.055,0.342 0.248,1.43 0.297,1.689 1.28,-0.221 0.144,-0.027" />
</svg>
