<?xml version="1.0" encoding="UTF-8" standalone="no"?>
<!-- Created with Inkscape (http://www.inkscape.org/) -->

<svg
   xmlns:dc="http://purl.org/dc/elements/1.1/"
   xmlns:cc="http://creativecommons.org/ns#"
   xmlns:rdf="http://www.w3.org/1999/02/22-rdf-syntax-ns#"
   xmlns:svg="http://www.w3.org/2000/svg"
   xmlns="http://www.w3.org/2000/svg"
   xmlns:sodipodi="http://sodipodi.sourceforge.net/DTD/sodipodi-0.dtd"
   xmlns:inkscape="http://www.inkscape.org/namespaces/inkscape"
   version="1.0"
   width="555.22198"
   height="351.66797"
   id="svg2"
   inkscape:version="0.48.1 r9760"
   sodipodi:docname="northcarolina.svg">
  <metadata
     id="metadata48">
    <rdf:RDF>
      <cc:Work
         rdf:about="">
        <dc:format>image/svg+xml</dc:format>
        <dc:type
           rdf:resource="http://purl.org/dc/dcmitype/StillImage" />
      </cc:Work>
    </rdf:RDF>
  </metadata>
  <defs
     id="defs46" />
  <sodipodi:namedview
     pagecolor="#ffffff"
     bordercolor="#666666"
     borderopacity="1"
     objecttolerance="10"
     gridtolerance="10"
     guidetolerance="10"
     inkscape:pageopacity="0"
     inkscape:pageshadow="2"
     inkscape:window-width="640"
     inkscape:window-height="480"
     id="namedview44"
     showgrid="false"
     inkscape:zoom="0.83029853"
     inkscape:cx="277.61099"
     inkscape:cy="175.83398"
     inkscape:window-x="0"
     inkscape:window-y="25"
     inkscape:window-maximized="0"
     inkscape:current-layer="svg2" />
  <path
     id="37195"
     style="font-size:12px;fill:#0000ff;fill-rule:nonzero;stroke:#000000;stroke-opacity:1;stroke-width:0.1;stroke-miterlimit:4;stroke-dasharray:none;stroke-linecap:butt;marker-start:none;stroke-linejoin:bevel"
     d="m 480.97698,184.854 0.977,0.581 0.47,0.947 0.729,0.559 -0.337,0.397 -1.06,1.258 -2.496,0.314 -0.667,-0.107 -0.546,-1.02 -0.447,-0.477 3.377,-2.452 m 3.994,-2.605 0.995,2.258 -0.437,-0.094 -0.757,0.572 -0.216,0.369 -0.298,0.384 -1.105,1.203 -0.729,-0.559 -0.47,-0.947 -0.977,-0.581 0.172,-1.149 0.422,-2.128 0.028,-0.626 1.384,0.433 0.555,0.298 0.179,0.386 1.041,0.24 0.213,-0.059 m -6.275,-5.417 0.045,-0.081 2.425,-0.041 1.024,0.55 0.184,0.816 2.263,1.532 0.878,0.373 0.104,0.019 0.06,-0.058 -0.123,1.267 -0.585,1.04 -0.213,0.059 -1.041,-0.24 -0.179,-0.386 -0.555,-0.298 -1.384,-0.433 -3.254,-0.031 0.351,-4.088 m 7.306,-1.966 0.929,0.803 -0.41,1.461 -0.199,1.644 -0.643,1.168 -0.06,0.058 -0.104,-0.019 -0.878,-0.373 -2.263,-1.532 -0.184,-0.816 -1.024,-0.55 -2.425,0.041 -0.045,0.081 -0.112,-0.483 1.338,-0.256 4.755,-0.938 1.325,-0.289 m -4.403,6.085 -0.028,0.626 -0.422,2.128 -0.172,1.149 -3.377,2.452 -0.851,-0.992 1.596,-5.394 3.254,0.031 m -3.254,-0.031 -1.596,5.394 -0.027,-0.13 -0.338,-0.456 -0.361,-0.301 -1.402,-0.788 -0.743,-0.231 -0.59,-0.14 0.144,-2.055 1.708,-1.523 3.205,0.23 m -1.24,-4.278 1.479,-0.293 0.112,0.483 -0.351,4.088 -3.205,-0.23 -0.838,-3.511 2.803,-0.537 m -4.146,0.807 1.343,-0.27 0.838,3.511 -1.708,1.523 -0.14,-0.076 -0.252,-1.204 -0.365,-1.956 -0.086,-0.837 0.027,-0.253 0.343,-0.438 m -2.804,0.523 2.804,-0.523 -0.343,0.438 -0.027,0.253 0.086,0.837 0.365,1.956 0.252,1.204 0.14,0.076 -0.144,2.055 -2.177,-0.253 -0.924,-2.005 -0.658,-3.916 0.626,-0.122 m 0.956,6.043 2.177,0.253 0.59,0.14 0.743,0.231 1.402,0.788 0.361,0.301 0.338,0.456 0.027,0.13 -1.065,1.082 -1.446,1.61 -1.419,1.987 -2.267,-0.437 -0.888,-0.194 0.342,-3.128 -0.021,-0.329 0.774,-0.131 0.603,-0.784 0.232,-0.401 0.116,-0.329 0.045,-0.595 -0.644,-0.65 m 6.489,3.291 0.447,0.477 0.546,1.02 0.667,0.107 -0.519,2.317 -0.816,1.374 -0.405,0.591 -2.501,0.085 -2.2,-2.284 1.419,-1.987 1.446,-1.61 1.065,-1.082 0.851,0.992 m -7.413,-5.296 0.924,2.005 0.644,0.65 -0.045,0.595 -0.116,0.329 -0.232,0.401 -0.603,0.784 -0.774,0.131 -1.119,0.262 -0.201,-4.922 1.522,-0.235 m -4.12,-3.29 3.462,-0.626 0.658,3.916 -1.522,0.235 -2.071,0.333 -0.527,-3.858 m 0.527,3.858 2.071,-0.333 0.201,4.922 -2.411,0.257 -0.915,-4.679 1.054,-0.167 m -0.356,9.618 0.257,-0.126 0.739,-0.522 0.465,-0.407 0.436,-0.67 0.185,-0.06 0.208,-0.018 0.28,0.078 0.107,0.048 0.2,0.131 1.008,0.794 -1.69,3.141 -2.195,-2.389 m 4.314,-1.64 2.267,0.437 2.2,2.284 -0.618,1.033 -1.406,0.023 -0.311,0.071 -0.915,0.492 -1.857,0.852 -0.32,0.143 -1.159,-1.306 1.69,-3.141 0.429,-0.888 m -0.567,-3.651 0.021,0.329 -0.342,3.128 0.888,0.194 -0.429,0.888 -1.008,-0.794 -0.2,-0.131 -0.107,-0.048 -0.28,-0.078 -0.208,0.018 -0.185,0.06 -0.436,0.67 -0.465,0.407 -0.739,0.522 -0.257,0.126 -2.109,0.405 -0.595,-4.222 2.921,-0.955 2.411,-0.257 1.119,-0.262 m -3.795,11.561 0.31,-0.564 0.645,-1.082 0.495,-0.59 0.352,-0.306 1.627,0.203 1.159,2.699 -1.2,1.618 -0.567,0.261 -1.214,0.172 -1.607,-2.411 m 0.048,-6.27 2.195,2.389 1.159,1.306 0.027,0.236 -1.627,-0.203 -0.352,0.306 -0.495,0.59 -0.645,1.082 -0.31,0.564 -1.875,-1.262 -0.266,-0.117 -0.244,-0.198 -0.591,-0.691 -0.153,-0.247 -0.031,-0.162 -1.086,-2.759 2.185,-0.429 2.109,-0.405 m -3.505,-9.037 2.807,-0.414 0.915,4.679 -2.921,0.955 -0.121,-0.721 -0.668,-4.391 -0.012,-0.108 m 3.334,-4.439 0.527,3.858 -1.054,0.167 -2.807,0.414 -0.438,-3.759 0.41,-0.076 1.289,-0.229 1.258,-0.231 0.815,-0.144 m 1.73,22.157 -0.71,2.867 -2.736,-1.821 0.549,-0.703 0.163,-0.347 0.148,-0.749 -0.095,-0.149 -0.041,-0.157 0.054,-0.51 0.172,-0.184 0.379,-0.343 0.51,-0.315 1.607,2.411 m -8.202,-2.592 0.365,-0.018 0.231,-0.049 1.077,-0.473 0.549,-0.37 1.447,-0.112 1.051,-0.059 1.875,1.262 -0.51,0.315 -0.379,0.343 -0.172,0.184 -0.054,0.51 0.041,0.157 0.095,0.149 -0.148,0.749 -0.163,0.347 -0.549,0.703 -2.493,0.406 0.501,-1.082 0.102,-0.244 0,-0.068 -0.778,-1.861 -0.298,-0.482 -0.19,-0.235 -0.167,0 -0.134,0.081 -0.208,0.221 -0.032,0.131 -0.026,0.036 -0.063,0.055 -0.055,0.009 -0.274,-0.028 -0.492,-0.193 -0.122,-0.271 -0.027,-0.113 m 2.349,-5.255 1.086,2.759 0.031,0.162 0.153,0.247 0.591,0.691 0.244,0.198 0.266,0.117 -1.051,0.059 -1.447,0.112 -0.549,0.37 -1.077,0.473 -0.231,0.049 -0.365,0.018 0.149,-0.302 0.019,-0.117 -0.015,-0.076 -0.5,-2.33 -0.193,-0.402 -0.483,-0.766 -0.063,-0.04 -0.798,-0.405 1.191,-0.222 3.042,-0.595 m 1.469,-5.372 0.121,0.721 0.595,4.222 -2.185,0.429 -3.042,0.595 -0.7,-5.345 5.211,-0.622 m -5.823,-3.71 5.155,-0.681 0.668,4.391 -5.211,0.622 -0.153,-1.158 -0.459,-3.174 m 2.632,-4.201 2.073,-0.347 0.438,3.759 0.012,0.108 -5.155,0.681 -0.537,-3.668 3.169,-0.533 m -0.627,18.538 0.027,0.113 0.122,0.271 0.492,0.193 0.274,0.028 0.055,-0.009 0.063,-0.055 0.026,-0.036 0.032,-0.131 0.208,-0.221 0.134,-0.081 0.167,0 0.19,0.235 0.298,0.482 0.778,1.861 0,0.068 -0.102,0.244 -0.501,1.082 -4.093,0.593 -0.368,-4.966 2.198,0.329 m -2.198,-0.329 0.368,4.966 -2.509,0.372 -2.25,0.332 -0.212,-0.04 -0.005,-0.122 -0.072,-1.316 -0.739,-0.744 2.574,-3.141 0.513,0.22 2.332,-0.527 m -0.844,-3.899 -1.488,4.426 -0.513,-0.22 -1.32,-0.559 -1.312,-1.551 -0.401,-1.144 -0.014,-0.086 0.009,-0.094 0.487,-0.077 4.552,-0.695 m 0,0 1.158,-0.21 0.798,0.405 0.063,0.04 0.483,0.766 0.193,0.402 0.5,2.33 0.015,0.076 -0.019,0.117 -0.149,0.302 -2.198,-0.329 -2.332,0.527 1.488,-4.426 m -2.024,-5.854 3.52,-1.081 0.153,1.158 0.7,5.345 -1.191,0.222 -0.423,-0.929 -1.573,-1.565 -1.348,-0.089 0.104,-1.15 0.388,-0.262 0.092,-0.761 -0.052,-0.356 -0.121,-0.338 -0.06,-0.09 -0.189,-0.104 m -1.188,-3.602 4.249,-0.653 0.459,3.174 -3.52,1.081 -1.188,-0.767 0.039,-2.573 -0.039,-0.262 m 3.712,-4.321 0.537,3.668 -4.249,0.653 -0.492,-3.722 3.938,-0.554 0.266,-0.045 m -5.966,0.788 1.762,-0.189 0.492,3.722 0.039,0.262 -0.112,-0.081 -0.217,-0.068 -0.95,-0.162 -0.61,0.009 -1.509,0.514 -0.883,0.55 -1.299,-1.965 0.338,-2.163 0.654,-0.068 2.295,-0.361 m 2.293,3.795 -0.039,2.573 -2.017,0.267 -1.946,0.257 -0.279,-2.335 0.883,-0.55 1.509,-0.514 0.61,-0.009 0.95,0.162 0.217,0.068 0.112,0.081 m -2.056,2.84 2.017,-0.267 1.188,0.767 0.189,0.104 0.06,0.09 0.121,0.338 0.052,0.356 -0.092,0.761 -0.388,0.262 -0.104,1.15 -2.785,-0.992 -0.258,-2.569 m 0.258,2.569 2.785,0.992 1.348,0.089 1.573,1.565 0.423,0.929 -1.158,0.21 -4.552,0.695 -0.041,-0.23 -0.067,-0.243 -0.595,-1.623 0.085,-0.717 0.199,-1.667 m -1.704,5.075 1.636,-0.518 -0.009,0.094 0.014,0.086 0.401,1.144 1.312,1.551 1.32,0.559 -2.574,3.141 -0.838,-0.856 -1.565,-0.69 0.393,-3.384 -0.09,-1.127 m -0.5,-7.387 1.946,-0.257 0.258,2.569 -0.199,1.667 -0.085,0.717 0.595,1.623 0.067,0.243 0.041,0.23 -0.487,0.077 -1.636,0.518 -0.256,-0.748 0.175,-0.924 -0.496,-0.645 -0.379,-0.379 -1.343,-0.779 0.317,-3.547 1.482,-0.365" />
</svg>
