<?xml version="1.0" encoding="UTF-8" standalone="no"?>
<!-- Created with Inkscape (http://www.inkscape.org/) -->

<svg
   xmlns:dc="http://purl.org/dc/elements/1.1/"
   xmlns:cc="http://creativecommons.org/ns#"
   xmlns:rdf="http://www.w3.org/1999/02/22-rdf-syntax-ns#"
   xmlns:svg="http://www.w3.org/2000/svg"
   xmlns="http://www.w3.org/2000/svg"
   xmlns:sodipodi="http://sodipodi.sourceforge.net/DTD/sodipodi-0.dtd"
   xmlns:inkscape="http://www.inkscape.org/namespaces/inkscape"
   version="1.0"
   width="555.22198"
   height="351.66797"
   id="svg2"
   inkscape:version="0.48.1 r9760"
   sodipodi:docname="ohio.svg">
  <metadata
     id="metadata56">
    <rdf:RDF>
      <cc:Work
         rdf:about="">
        <dc:format>image/svg+xml</dc:format>
        <dc:type
           rdf:resource="http://purl.org/dc/dcmitype/StillImage" />
      </cc:Work>
    </rdf:RDF>
  </metadata>
  <defs
     id="defs54" />
  <sodipodi:namedview
     pagecolor="#ffffff"
     bordercolor="#666666"
     borderopacity="1"
     objecttolerance="10"
     gridtolerance="10"
     guidetolerance="10"
     inkscape:pageopacity="0"
     inkscape:pageshadow="2"
     inkscape:window-width="640"
     inkscape:window-height="480"
     id="namedview52"
     showgrid="false"
     inkscape:zoom="0.83029853"
     inkscape:cx="277.61099"
     inkscape:cy="175.83398"
     inkscape:window-x="0"
     inkscape:window-y="25"
     inkscape:window-maximized="0"
     inkscape:current-layer="svg2" />
  <path
     id="39171"
     style="font-size:12px;fill:#0000ff;fill-rule:nonzero;stroke:#000000;stroke-opacity:1;stroke-width:0.1;stroke-miterlimit:4;stroke-dasharray:none;stroke-linecap:butt;marker-start:none;stroke-linejoin:bevel"
     d="m 400.52498,120.772 3.854,-0.59 0.892,2.773 0.094,0.742 -4.412,0.555 -0.162,-1.343 -0.266,-2.137 m 4.218,-0.648 4.544,-0.744 0.361,2.997 -4.377,0.578 -0.892,-2.773 0.364,-0.058 m 5.653,-0.938 2.924,-0.496 2.885,1.028 -2.325,0.386 -1.47,0.217 -1.171,1.678 -0.261,0.486 -0.934,0.798 -0.279,0.036 -0.117,-0.942 -0.361,-2.997 1.109,-0.194 m 5.809,0.532 1.033,0.244 2.065,0.121 0.319,-0.131 1.064,0.645 0.274,0.175 -2.402,0.803 -1.085,0.162 -2.579,0.347 -0.085,-0.564 -0.717,0.109 -0.212,-1.525 2.325,-0.386 m 4.755,1.054 0.857,0.735 0.613,0.287 0.451,0.141 0.144,0.018 0.171,-0.022 0.185,-0.094 0.262,-0.176 0.733,-0.52 0.32,1.853 -4.772,0.595 -0.308,-1.795 -1.004,0.146 -0.054,-0.365 2.402,-0.803 m 6.879,-1.162 0.27,1.996 0.901,-0.127 0.135,0.975 -0.878,0.324 -1.646,1.862 0.121,0.946 -1.581,0.198 -0.465,-2.79 -0.32,-1.853 3.463,-1.531 m 4.313,-2.289 1.049,0.643 0.438,2.84 -0.004,0 -1.971,0.271 0.163,0.364 0.293,0.528 -1.14,0.18 -1.835,0.307 -0.135,-0.975 -0.901,0.127 -0.27,-1.996 0.066,0.059 0.046,0.027 0.207,0.063 0.591,0.017 1.252,-0.239 0.055,-0.026 0.239,-0.207 0.662,-0.61 0.279,-0.305 0.821,-0.953 0.095,-0.115 m 4.146,-3.588 0.279,1.793 -0.919,0.239 -0.049,0.888 -1.641,0.256 0.135,0.912 -0.902,0.143 -1.049,-0.643 0.356,-0.609 0.441,-0.514 0.293,-0.316 0.563,-0.514 2.064,-1.365 0.429,-0.27 m -3.097,4.231 0.902,-0.143 -0.135,-0.912 1.641,-0.256 0.049,-0.888 0.919,-0.239 0.438,2.736 0.334,1.969 -3.71,0.573 -0.438,-2.84 m -27.836,5.733 1.082,-0.135 0.425,3.375 -1.081,0.141 -0.073,-0.563 -1.182,-0.438 -3.312,0.41 -0.028,-0.238 -0.243,-1.997 4.412,-0.555 m 0.426,3.381 -0.281,2.325 -3.88,0.483 -0.406,-3.399 3.312,-0.41 1.182,0.438 0.073,0.563 m 3.857,-4.701 0.117,0.942 0.429,3.173 -3.322,0.445 -0.425,-3.375 -1.082,0.135 -0.094,-0.742 4.377,-0.578 m 4.232,-2.273 0.212,1.525 0.369,3.178 0.14,1.126 -4.407,0.559 -0.429,-3.173 0.279,-0.036 0.934,-0.798 0.261,-0.486 1.171,-1.678 1.47,-0.217 m 0.212,1.525 0.717,-0.109 0.085,0.564 2.579,-0.347 1.085,-0.162 0.054,0.365 1.004,-0.146 0.384,2.242 -5.539,0.771 -0.369,-3.178 m 5.908,2.407 0.564,3.308 -2.708,0.419 -2.948,0.415 -0.307,-2.245 -0.14,-1.126 5.539,-0.771 m -0.076,-0.447 4.772,-0.595 0.465,2.79 -0.788,1.068 -2.803,0.366 -1.006,0.126 -0.64,-3.755 m 11.056,-1.442 0.531,3.71 -4.233,0.585 -0.536,-0.856 -0.121,-0.946 1.646,-1.862 0.878,-0.324 1.835,-0.307 m 2.655,-1.343 0.696,4.625 -2.287,1.324 -0.533,-0.896 -0.531,-3.71 1.14,-0.18 -0.293,-0.528 -0.163,-0.364 1.971,-0.271 m 0.004,0 3.71,-0.573 0.45,2.742 -0.531,2.001 -2.937,0.455 -0.696,-4.625 0.004,0 m 8.765,1.537 0.465,2.889 -5.43,0.833 -0.171,-1.089 0.531,-2.001 4.588,-0.736 0.017,0.104 m -40.774,7.545 3.88,-0.483 0.771,1.623 -0.265,2.313 -0.57,0.071 -3.407,-0.157 -0.304,-2.506 -0.105,-0.861 m 8.564,-3.394 0.414,3.187 -1.099,0.149 -1.083,0.333 0.05,0.379 -1.077,0.333 -1.118,0.153 -0.771,-1.623 0.281,-2.325 1.081,-0.141 3.322,-0.445 m 0,0 4.407,-0.559 0.307,2.245 -0.624,2.362 -3.506,0.433 -0.17,-1.294 -0.414,-3.187 m 0.414,3.187 0.17,1.294 0.29,2.257 -1.465,0.194 -1.863,0.068 -0.048,-0.375 -1.676,0.222 0.265,-2.313 1.118,-0.153 1.077,-0.333 -0.05,-0.379 1.083,-0.333 1.099,-0.149 m 0.17,1.294 3.506,-0.433 0.191,-0.024 0.203,1.502 0.558,0.108 0.2,-0.018 0.323,2.334 -0.978,0.149 -0.022,-0.068 -3.108,0.14 -0.409,-0.066 -0.464,-3.624 m 4.13,-2.795 2.948,-0.415 0.521,3.737 -2.941,0.608 -0.2,0.018 -0.558,-0.108 -0.203,-1.502 -0.191,0.024 0.624,-2.362 m 6.662,-0.96 0.49,3.664 -1.249,0.257 -2.434,0.361 -0.521,-3.737 2.708,-0.419 1.006,-0.126 m 0,0 2.803,-0.366 0.144,-0.017 0.229,1.455 0.392,0.88 0.627,0.977 0.343,2.209 -2.754,0.459 -1.294,-1.933 -0.49,-3.664 m 5.172,-1.632 0.536,0.856 0.646,4.16 -0.717,1.42 -1.099,0.334 -0.343,-2.209 -0.627,-0.977 -0.392,-0.88 -0.229,-1.455 -0.144,0.017 0.788,-1.068 1.581,-0.198 m 4.769,0.271 0.533,0.896 0.464,3.164 -4.584,0.685 -0.646,-4.16 4.233,-0.585 m 2.82,-0.428 2.937,-0.455 0.523,3.339 -1.074,0.153 -0.342,0.253 0.094,0.82 -0.739,0.1 -3.159,0.707 -0.527,-3.593 2.287,-1.324 m 8.538,-0.199 0.114,0.62 0.446,2.724 -1.312,0.955 -1.902,0.086 -2.424,-1.302 -0.352,-2.25 5.43,-0.833 m -2.654,4.385 1.902,-0.086 0.878,2.336 -0.225,2.767 -0.104,0.405 -1.744,0.253 -0.333,-2.763 0.031,-0.081 -0.072,-0.559 -0.739,0.094 0.406,-2.366 m -2.424,-1.302 2.424,1.302 -0.406,2.366 -3.182,0.384 -0.212,-1.695 -0.554,0.062 -0.131,-1.093 0.739,-0.1 -0.094,-0.82 0.342,-0.253 1.074,-0.153 m -2.061,1.326 0.131,1.093 0.554,-0.062 0.406,3.26 -0.198,0.142 -0.361,0.05 0.144,1.164 -2.762,0.333 -0.226,-1.897 -0.932,0.108 -0.113,-0.956 0.378,-0.045 -0.289,-2.375 0.109,-0.108 3.159,-0.707 m -3.222,0.278 0.063,0.429 -0.109,0.108 0.289,2.375 -0.378,0.045 -4.61,0.536 -0.556,-1.388 0.717,-1.42 4.584,-0.685 m -5.301,2.105 0.556,1.388 0.296,2.808 -1.631,0.212 -1.105,0.095 -0.022,-0.244 -2.7,0.221 -0.055,-0.942 0.956,-0.077 -0.171,-2.009 0.023,-0.659 2.754,-0.459 1.099,-0.334 m -6.396,-0.883 1.249,-0.257 1.294,1.933 -0.023,0.659 0.171,2.009 -0.956,0.077 -2.82,-0.716 -0.05,-0.659 0.284,-2.145 0.942,-0.148 -0.091,-0.753 m 0,0 0.091,0.753 -0.942,0.148 -0.284,2.145 0.05,0.659 -2.218,0.171 -1.749,-0.573 -0.323,-2.334 2.941,-0.608 2.434,-0.361 m -6.03,3.452 0.978,-0.149 1.749,0.573 0.107,0.888 0.249,1.676 0.73,-0.089 0.198,1.293 -0.288,0.504 -2.897,0.344 -0.663,-1.461 -0.163,-3.579 m -3.539,0.006 0.409,0.066 3.108,-0.14 0.022,0.068 0.163,3.579 -1.726,0.063 -0.582,-0.168 -2.259,0.118 -0.225,-2.721 1.09,-0.865 m -5.226,-1.258 1.676,-0.222 0.048,0.375 1.863,-0.068 1.465,-0.194 0.174,1.367 -1.09,0.865 -3.038,0.405 -0.215,0.026 -0.615,1.425 -0.107,0.324 -0.731,-4.232 0.57,-0.071 m -0.57,0.071 0.731,4.232 -0.005,0.005 -3.578,0.452 -0.319,-2.836 -0.236,-2.01 3.407,0.157 m 0.731,4.232 0.107,-0.324 0.615,-1.425 0.215,-0.026 3.038,-0.405 0.225,2.721 0.064,1.164 -4.002,0.324 -0.267,-2.024 0.005,-0.005 m 21.586,-4.232 4.61,-0.536 0.113,0.956 0.932,-0.108 0.226,1.897 -0.424,0.144 0.085,0.784 -0.081,0.053 -0.351,0.042 -4.593,0.492 -0.221,-0.916 -0.296,-2.808 m 12.046,-1.429 0.739,-0.094 0.072,0.559 -0.031,0.081 0.333,2.763 -3.34,0.392 -1.176,-0.396 -0.144,-1.164 0.361,-0.05 0.198,-0.142 -0.194,-1.565 3.182,-0.384 m 1.068,-18.92 0.734,4.48 -4.596,0.721 -0.438,-2.736 -0.279,-1.793 4.311,-2.308 0.268,1.636 m 0.734,4.48 0.024,0.14 0.752,4.556 -4.588,0.736 -0.45,-2.742 -0.334,-1.969 4.596,-0.721" />
</svg>
