<?xml version="1.0" encoding="UTF-8" standalone="no"?>
<!-- Created with Inkscape (http://www.inkscape.org/) -->

<svg
   xmlns:dc="http://purl.org/dc/elements/1.1/"
   xmlns:cc="http://creativecommons.org/ns#"
   xmlns:rdf="http://www.w3.org/1999/02/22-rdf-syntax-ns#"
   xmlns:svg="http://www.w3.org/2000/svg"
   xmlns="http://www.w3.org/2000/svg"
   xmlns:sodipodi="http://sodipodi.sourceforge.net/DTD/sodipodi-0.dtd"
   xmlns:inkscape="http://www.inkscape.org/namespaces/inkscape"
   version="1.0"
   width="555.22198"
   height="351.66797"
   id="svg2"
   inkscape:version="0.48.1 r9760"
   sodipodi:docname="olympia.svg">
  <metadata
     id="metadata27">
    <rdf:RDF>
      <cc:Work
         rdf:about="">
        <dc:format>image/svg+xml</dc:format>
        <dc:type
           rdf:resource="http://purl.org/dc/dcmitype/StillImage" />
      </cc:Work>
    </rdf:RDF>
  </metadata>
  <defs
     id="defs25" />
  <sodipodi:namedview
     pagecolor="#ffffff"
     bordercolor="#666666"
     borderopacity="1"
     objecttolerance="10"
     gridtolerance="10"
     guidetolerance="10"
     inkscape:pageopacity="0"
     inkscape:pageshadow="2"
     inkscape:window-width="640"
     inkscape:window-height="480"
     id="namedview23"
     showgrid="false"
     inkscape:zoom="0.83029853"
     inkscape:cx="277.61099"
     inkscape:cy="175.83398"
     inkscape:window-x="0"
     inkscape:window-y="25"
     inkscape:window-maximized="0"
     inkscape:current-layer="svg2" />
  <path
     id="53057"
     style="font-size:12px;fill:#0000ff;fill-rule:nonzero;stroke:#000000;stroke-opacity:1;stroke-width:0.1;stroke-miterlimit:4;stroke-dasharray:none;stroke-linecap:butt;marker-start:none;stroke-linejoin:bevel"
     d="m 82.06398,9.655 0.008,1.667 -1.289,-0.523 -0.793,-0.013 -0.969,0.316 -0.086,0.076 -0.117,0.226 -0.486,1.645 0.446,0.513 -4.187,-1.149 -0.631,-0.189 -2.168,-0.609 -4.534,-1.275 -0.154,-0.424 -0.292,-1.87 0.274,-0.054 0.023,-0.014 0.816,-1.456 -0.113,-0.338 -0.244,-0.333 0.19,0.018 2.885,0.807 7.198,2.059 2.843,0.771 0.478,-0.018 0.902,0.167 m -34.976,0.243 -0.094,-0.248 -0.018,-1.149 0.225,-2.217 0.785,-2.809 0.067,-0.044 0.085,-0.023 0.533,0.153 0.297,0.262 0.275,0.243 0.329,0.334 0.104,0.108 0.64,0.766 2.56,2.429 0.531,0.333 0.915,0.411 3.557,1.555 1.766,0.401 1.235,0.45 0.879,0.555 -0.802,2.844 -4.71,-1.379 -0.64,-0.324 -1.326,-0.465 -3.141,-0.942 -2.091,-0.649 -0.514,-0.18 -1.447,-0.415 m 0,0 1.447,0.415 0.514,0.18 2.091,0.649 3.141,0.942 1.326,0.465 0.64,0.324 4.71,1.379 0.802,-2.844 1.122,-0.158 0.442,0.014 0.198,0.054 0.465,0.69 -0.379,2.361 -1.203,1.19 -0.235,0.505 -0.045,0.139 0.045,0.068 -2.163,1.185 -4.661,-1.383 -0.328,1.095 -4.567,-1.379 -0.608,-0.397 -1.911,-0.581 0.028,-0.153 0.053,-0.523 0.05,-0.609 0.04,-1.406 -0.013,-0.112 -0.23,-1.019 -0.049,-0.09 -0.37,-0.699 -0.009,-0.009 -0.013,-0.018 -0.149,-0.18 -0.181,-0.095 m 0.843,4.913 1.911,0.581 0.608,0.397 4.567,1.379 -0.961,3.186 -0.5,2.2 0.045,0.018 2.398,0.676 -0.703,3.691 -1.794,-0.513 -2.01,-0.622 -2.132,-0.604 -2.046,-0.659 0.112,-1.117 0.33,-0.185 0.374,0.212 1.559,-0.144 0.212,-0.045 0.013,-0.005 -0.09,-0.194 -1.018,-1.235 -0.294,-0.234 -0.337,-0.126 -0.627,-4.39 0.004,-0.158 0.077,-0.626 0.302,-1.483 m 7.086,2.357 0.328,-1.095 4.661,1.383 -0.185,0.045 -0.054,0.036 -0.681,0.623 -0.126,0.139 0.374,0.109 0.374,0.076 1.262,0.401 -0.595,1.979 -0.13,0.383 -0.145,0.212 -0.171,0.144 -0.185,0.113 -0.081,0.09 -0.076,0.167 -0.014,0.067 0.05,0.803 -0.37,0.215 -0.262,0.104 -1.915,0.406 -1.077,-0.32 -2.398,-0.676 -0.045,-0.018 0.5,-2.2 0.961,-3.186 m 7.152,-0.897 1.613,-1.064 0.366,-0.77 0.352,0.148 0.13,0.212 0.027,0.343 -0.175,1.204 -0.686,2.438 -0.207,0.96 -0.654,1.271 -2.393,-0.704 0.428,-1.424 -1.262,-0.401 -0.374,-0.076 -0.374,-0.109 0.126,-0.139 0.681,-0.623 0.054,-0.036 0.185,-0.045 2.163,-1.185 m 13.9,3.39 0.203,0.581 -0.095,0.198 -0.523,0.473 -0.027,0.055 -0.032,0.197 -0.089,0.767 -0.974,0.104 -1.668,1 -1.117,0.902 -0.027,0.153 -0.171,2.957 -0.028,0.581 -0.306,-0.108 -1.018,-0.739 -0.586,-0.568 -1.186,-0.591 -0.108,-0.031 -0.05,-0.009 -0.067,0.027 -0.297,0.144 -0.028,0.041 -1.018,-0.375 -0.735,-0.414 -2.123,-1.839 -0.505,-0.897 0.762,-0.059 0.126,-0.058 0.145,-0.532 0.008,-0.122 0.005,-1.072 0.369,-2.664 0.374,-1.073 2.709,0.793 4.138,1.141 1.09,0.279 0.307,0.059 2.542,0.699 m -8.811,-9.321 4.534,1.275 2.168,0.609 0.631,0.189 4.187,1.149 0.095,1.159 -0.149,0.703 -0.153,0.527 -0.717,0.234 -0.05,-0.008 -0.649,0.054 -0.365,0.126 -0.667,1.307 -0.121,1.108 0.067,0.889 -2.542,-0.699 -0.307,-0.059 -1.09,-0.279 -4.138,-1.141 -2.709,-0.793 0.005,-0.027 0.099,-0.284 1.248,-1.582 0.271,-0.022 0.252,0.032 0.204,-0.095 0.049,-0.059 0.148,-0.491 -0.008,-0.181 -0.343,-0.36 -0.356,-0.739 -0.081,-0.374 -0.005,-0.023 0.095,-0.316 0.09,-0.279 -0.076,-0.739 0,-0.32 0.383,-0.491 m -1.654,-1.88 0.045,-0.036 0.081,-0.036 0.058,0.041 0.028,0.063 0.058,0.158 0.316,1.081 0.04,0.149 -0.018,0.126 -0.018,0.028 -0.185,0.112 -0.081,0.018 -0.176,-0.041 -0.054,-0.022 -0.09,-0.198 -0.067,-0.059 -0.127,-0.041 -0.176,0.005 -0.085,0.045 -0.302,0.23 -0.225,0.261 -0.05,0.208 0.554,1.546 0.19,0.36 0.108,0.018 0.171,0.095 0.559,0.924 0.162,0.581 -0.085,0.374 -0.145,0.28 -0.315,0.23 -0.302,-0.036 -0.816,-1.628 -0.193,-0.775 -0.177,-0.622 -0.531,-1.342 0.243,-0.654 1.235,-1.524 0.18,0 0.19,0.081 m -2.263,-0.919 0.054,-0.451 0.176,-0.437 0.203,-0.266 0.405,0.013 0.654,-0.017 -0.126,0.297 -0.046,0.108 -0.486,0.924 -0.095,0.059 -0.531,-0.099 -0.077,-0.032 -0.131,-0.099 m -0.924,-2.916 -0.018,0.667 0.248,0.703 0.189,0.703 -0.265,0.248 -0.244,-0.189 -0.554,-0.595 -0.136,-0.208 -0.049,-0.13 -0.045,-0.221 -0.109,-0.838 0.018,-0.077 0.1,-0.113 0.198,-0.144 0.23,0.049 0.437,0.145 m 2.655,0.599 -0.077,0.005 -0.194,0.135 -0.009,0.045 -0.036,0.248 -0.004,0.14 0.036,0.058 -1.632,0.131 -0.108,-0.442 -0.126,-0.649 0,-0.207 0.342,-0.248 0.749,-0.468 0.22,-0.028 0.203,0.041 0.145,0.076 0.306,0.275 0.618,0.663 0.004,0.018 -0.149,0.103 -0.288,0.104 m -4.53,15.085 2.393,0.704 -0.261,0.514 0.82,0.743 0.505,0.897 2.123,1.839 0.735,0.414 1.018,0.375 0.028,-0.041 0.297,-0.144 0.067,-0.027 0.05,0.009 0.108,0.031 1.186,0.591 0.586,0.568 1.018,0.739 0.306,0.108 -0.103,0.406 -1.38,1.496 -0.085,1.537 -0.018,0.045 -0.086,0.09 -2.605,-0.716 -0.176,0.045 -0.117,0.058 -0.365,0.23 -0.139,0.135 -1.722,-0.622 -1.352,-0.653 -1.244,-1.38 -0.253,-0.117 -0.302,-0.252 -0.243,-0.36 -0.87,-1.686 -0.212,-0.487 -0.067,-0.793 -0.559,-1.762 -0.05,-0.803 0.014,-0.067 0.076,-0.167 0.081,-0.09 0.185,-0.113 0.171,-0.144 0.145,-0.212 0.13,-0.383 0.167,-0.555 m -4.543,2.939 1.077,0.32 1.915,-0.406 0.262,-0.104 0.37,-0.215 0.559,1.762 0.067,0.793 0.212,0.487 0.87,1.686 0.243,0.36 0.302,0.252 0.253,0.117 1.244,1.38 -6.216,-1.799 -1.969,-0.581 0.108,-0.361 0.703,-3.691 m -2.497,3.178 1.794,0.513 -0.108,0.361 1.969,0.581 6.216,1.799 1.352,0.653 1.722,0.622 0.139,-0.135 0.365,-0.23 0.117,-0.058 0.176,-0.045 2.605,0.716 0.316,0.843 0.04,0.383 -1.032,3.561 -0.135,0.243 -0.036,0.009 -0.063,-0.013 -1.028,-0.285 -6.193,-1.694 -1.55,-0.464 -5.061,-1.474 -0.69,-0.199 -1.091,-0.284 -1.208,-0.342 0.356,-1.167 0.248,-0.906 0.212,-0.911 0.568,-2.077 m -6.188,-1.885 2.046,0.659 2.132,0.604 2.01,0.622 -0.568,2.077 -0.212,0.911 -0.248,0.906 -0.356,1.167 -1.23,-0.356 -1.916,-0.604 -0.369,1.176 -1.456,0.235 -0.266,-0.158 -1.027,-1.406 0.685,-2.028 0.153,0.455 0.198,0.099 0.104,-0.009 0.455,-0.05 0.568,-0.441 0.076,-0.167 0.532,-1.812 0.041,-0.761 -0.735,0.233 -0.153,0.023 -0.135,-0.13 -0.406,-0.474 -0.045,-0.076 -0.022,-0.032 -0.023,-0.067 0.167,-0.596 m 14.404,9.709 -1.198,4.092 -0.807,0.325 -0.802,0.311 -0.266,-0.127 -0.158,-0.162 -0.203,-0.099 -0.41,-0.063 -1.374,0.293 -1.375,0.703 0.067,-0.212 0.081,-1.226 -0.252,-1.405 -0.086,-0.339 -1.455,-1.784 -0.424,-0.176 -0.46,0.085 0.73,-2.637 1.091,0.284 0.69,0.199 5.061,1.474 1.55,0.464 m 6.193,1.694 -1.176,4.269 -0.766,-0.207 -0.586,2.095 -0.28,1.154 0.789,0.261 -0.235,0.667 -0.968,-0.018 -0.744,-0.058 -0.244,-0.059 -0.621,-0.342 -0.532,0.031 -0.383,0.198 -0.253,0.226 -3.2,0.446 0.708,-2.506 0.59,-1.942 0.51,-1.817 1.198,-4.092 6.193,1.694 m -12.786,3.579 1.375,-0.703 1.374,-0.293 0.41,0.063 0.203,0.099 0.158,0.162 0.266,0.127 0.802,-0.311 0.807,-0.325 -0.51,1.817 -0.59,1.942 -0.708,2.506 -0.149,0.005 -0.018,0 -0.248,-0.063 -0.008,-0.005 -0.294,-0.144 -2.501,-1.541 -0.239,-0.181 -0.459,-0.482 -0.176,-0.225 -0.009,-0.316 0.086,-0.234 0.193,-0.325 0.235,-1.573 m -6.522,-7.82 0.369,-1.176 1.916,0.604 1.23,0.356 1.208,0.342 -0.73,2.637 -1.392,-0.058 -0.068,-0.023 -0.378,-0.59 0.197,-0.577 -0.094,-0.302 -0.131,-0.234 -0.036,-0.059 -0.027,-0.014 -0.05,-0.031 -0.581,-0.032 -1.433,-0.843 m 33.771,-26.501 0.249,0.698 0.125,0.536 0.248,2.471 -0.022,0.149 -0.766,0.558 -0.144,0.041 -0.902,-0.167 -0.478,0.018 -2.843,-0.771 -7.198,-2.059 -2.885,-0.807 -0.19,-0.018 -0.026,-0.946 -0.803,-1.186 -0.748,-1.667 -0.144,-0.663 0.005,-0.045 0.081,-0.127 0.234,-0.184 0.243,-0.14 0.176,-0.099 2.907,0.834 2.542,0.725 2.858,0.861 5.192,1.37 2.289,0.618 M 63.84098,0 l 0.054,0.014 0.402,0.117 0.026,0.338 -0.067,0.023 -0.451,-0.163 0.036,-0.329" />
</svg>
