<?xml version="1.0" encoding="UTF-8" standalone="no"?>
<!-- Created with Inkscape (http://www.inkscape.org/) -->

<svg
   xmlns:dc="http://purl.org/dc/elements/1.1/"
   xmlns:cc="http://creativecommons.org/ns#"
   xmlns:rdf="http://www.w3.org/1999/02/22-rdf-syntax-ns#"
   xmlns:svg="http://www.w3.org/2000/svg"
   xmlns="http://www.w3.org/2000/svg"
   xmlns:sodipodi="http://sodipodi.sourceforge.net/DTD/sodipodi-0.dtd"
   xmlns:inkscape="http://www.inkscape.org/namespaces/inkscape"
   version="1.0"
   width="555.22198"
   height="351.66797"
   id="svg2"
   inkscape:version="0.48.1 r9760"
   sodipodi:docname="oregon.svg">
  <metadata
     id="metadata26">
    <rdf:RDF>
      <cc:Work
         rdf:about="">
        <dc:format>image/svg+xml</dc:format>
        <dc:type
           rdf:resource="http://purl.org/dc/dcmitype/StillImage" />
      </cc:Work>
    </rdf:RDF>
  </metadata>
  <defs
     id="defs24" />
  <sodipodi:namedview
     pagecolor="#ffffff"
     bordercolor="#666666"
     borderopacity="1"
     objecttolerance="10"
     gridtolerance="10"
     guidetolerance="10"
     inkscape:pageopacity="0"
     inkscape:pageshadow="2"
     inkscape:window-width="640"
     inkscape:window-height="480"
     id="namedview22"
     showgrid="false"
     inkscape:zoom="0.83029853"
     inkscape:cx="277.61099"
     inkscape:cy="175.83398"
     inkscape:window-x="0"
     inkscape:window-y="25"
     inkscape:window-maximized="0"
     inkscape:current-layer="svg2" />
  <path
     id="41057"
     style="font-size:12px;fill:#0000ff;fill-rule:nonzero;stroke:#000000;stroke-opacity:1;stroke-width:0.1;stroke-miterlimit:4;stroke-dasharray:none;stroke-linecap:butt;marker-start:none;stroke-linejoin:bevel"
     d="m 49.88698,38.942 -0.261,0.874 -0.806,0.735 -1.231,2.168 -0.059,0.176 0.185,0.049 -0.419,1.492 -0.365,1.204 -2.803,-0.834 -0.523,1.721 0.531,0.163 -0.13,0.396 -2.439,-0.748 0.316,-0.568 0.036,-0.067 0.004,-0.009 0.257,-0.487 0.018,-0.036 0.073,-0.167 0.202,-0.501 1.974,-5.606 0.172,-0.582 0.036,-0.234 0,-0.086 -0.018,-0.676 2.136,0.645 -0.009,0.131 0.027,0.013 2.006,0.568 1.09,0.266 m 3.534,1.807 -0.288,0.983 0.351,0.78 0.505,0.928 0.167,0.108 -0.163,1.244 -1.501,1.122 -0.328,-0.193 -0.551,-0.794 -0.504,-0.59 -0.528,-0.536 -2.866,-0.857 -0.185,-0.049 0.059,-0.176 1.231,-2.168 0.806,-0.735 0.261,-0.874 2.853,0.843 0.681,0.964 m 1.469,0.347 -0.193,0.325 -0.086,0.234 0.009,0.316 0.176,0.225 0.459,0.482 0.239,0.181 2.501,1.541 0.294,0.144 0.008,0.005 0.248,0.063 0.018,0 0.149,-0.005 3.2,-0.446 0.239,2.569 -7.166,-2.024 -0.181,-0.004 0.018,0.338 -0.829,-0.248 0.163,-1.244 -0.167,-0.108 -0.505,-0.928 -0.351,-0.78 0.288,-0.983 1.469,0.347 m -0.897,3.696 0.829,0.248 -0.018,-0.338 0.181,0.004 7.166,2.024 0.379,2.83 -0.618,0.519 -0.049,0.09 -1.123,2.177 -0.022,0.054 -0.185,0.888 0.014,0.036 0.374,0.743 -2.349,-0.657 -3.492,-0.947 -0.862,-0.717 -1.23,-2.221 -0.468,-1.082 0.099,-0.167 0.14,-0.185 0.08,-0.027 0.136,-0.162 0.108,-0.172 0.306,-0.775 -0.324,-0.293 -0.437,-0.126 -0.181,0.14 0.045,-0.762 1.501,-1.122 m -1.546,1.884 0.181,-0.14 0.437,0.126 0.324,0.293 -0.306,0.775 -0.108,0.172 -0.136,0.162 -0.08,0.027 -0.14,0.185 -0.099,0.167 0.468,1.082 1.23,2.221 0.862,0.717 3.492,0.947 2.349,0.657 -0.433,0.718 -0.798,1.676 -1.487,-0.419 -0.613,-0.199 -0.974,-0.703 -1.036,-0.757 -0.329,-0.167 -2.763,-1.109 -1.384,-0.36 -1.068,0.153 -1.163,-0.248 -0.847,-0.41 -0.018,-0.081 0.198,-0.951 0.271,-0.554 0.469,-0.55 0.044,-0.013 0.744,-1.258 0.118,-0.433 0.513,-0.202 0.203,-0.407 0.14,-0.477 -0.005,-0.185 0.996,-0.784 0.748,0.329 m -4.732,-3.732 2.866,0.857 0.528,0.536 0.504,0.59 0.551,0.794 0.328,0.193 -0.045,0.762 -0.748,-0.329 -0.996,0.784 0.005,0.185 -0.14,0.477 -0.203,0.407 -0.513,0.202 -5.716,-1.712 -0.531,-0.163 0.523,-1.721 2.803,0.834 0.365,-1.204 0.419,-1.492 m -3.709,4.142 0.13,-0.396 5.716,1.712 -0.118,0.433 -0.744,1.258 -0.044,0.013 -0.469,0.55 -0.271,0.554 -0.198,0.951 0.018,0.081 -0.158,0.352 -3.984,-1.195 -0.893,-0.266 -0.117,-0.279 1.132,-3.768 m 0,0 -1.132,3.768 0.117,0.279 0.893,0.266 -0.234,0.961 -0.785,2.622 -0.567,-0.179 -1.407,0.779 -0.121,0.347 -0.032,0.428 -3.033,-0.82 0.342,-0.645 0.505,-1.032 0.054,-0.135 0.776,-2.159 1.406,-3.524 0.779,-1.704 2.439,0.748 m 3.862,5.508 0.429,1.014 -1.731,1.023 -0.83,2.466 0.059,0.698 0.013,0.054 0.028,0.022 -1.519,-0.441 -1.988,-0.528 -1.591,-0.545 0.032,-0.428 0.121,-0.347 1.407,-0.779 0.567,0.179 0.785,-2.622 0.234,-0.961 3.984,1.195 m -10.163,2.943 3.033,0.82 1.591,0.545 1.988,0.528 1.519,0.441 0.121,0.027 0.054,0.068 0.014,0.063 -0.058,0.564 -0.127,0.374 0.338,0.135 1.956,0.568 0.14,-0.455 0.095,-0.266 0.441,-0.262 0.938,0.235 0.536,0.315 0.207,0.19 0.33,0.356 0.337,0.27 0.618,0.374 1.046,0.473 0.125,0.036 0.415,-0.167 0.05,-0.076 -0.032,-0.045 0.005,-0.05 0.081,-0.108 2.664,0.694 2.042,0.563 -0.141,1.276 -0.076,0.595 -0.121,0.284 -1.456,1.839 -1.245,1.199 -0.441,1.217 -0.302,0.649 -0.275,0.446 -1.776,1.852 -3.304,-0.951 -2.176,-0.572 0.374,-1.339 -1.204,-0.351 -1,-0.252 -0.018,0.022 -0.122,-0.027 -0.946,-0.288 -0.028,-0.897 0.632,-2.159 -1.875,-0.559 -0.983,-0.699 -0.446,-0.401 -0.577,-1.001 0.045,-0.153 -0.235,-0.5 -0.364,-0.226 -1.101,-0.338 -1.167,0.717 -0.279,-0.041 -0.969,-0.288 -0.829,-0.27 1.938,-4.994 m 10.321,-3.295 0.847,0.41 1.163,0.248 1.068,-0.153 1.384,0.36 2.763,1.109 0.329,0.167 1.036,0.757 0.974,0.703 0.613,0.199 1.487,0.419 -1.437,3.511 -0.081,1.775 -2.042,-0.563 -2.664,-0.694 -0.081,0.108 -0.005,0.05 0.032,0.045 -0.05,0.076 -0.415,0.167 -0.125,-0.036 -1.046,-0.473 -0.618,-0.374 -0.337,-0.27 -0.33,-0.356 -0.207,-0.19 -0.536,-0.315 -0.938,-0.235 -0.441,0.262 -0.095,0.266 -0.14,0.455 -1.956,-0.568 -0.338,-0.135 0.127,-0.374 0.058,-0.564 -0.014,-0.063 -0.054,-0.068 -0.121,-0.027 -0.028,-0.022 -0.013,-0.054 -0.059,-0.698 0.83,-2.466 1.731,-1.023 -0.429,-1.014 0.158,-0.352 m 4.313,18.862 0.167,0.077 0.158,0.212 0.383,0.992 0.049,0.238 -0.004,1.046 -1.609,1.92 -1.812,-0.221 -0.248,0.884 -1.072,-0.302 -1.65,0.297 -1.321,0.599 -1.379,0.78 -2.014,-0.316 -0.947,-0.225 -0.356,-0.112 -0.879,0.365 -0.027,0.094 -0.095,-0.329 -0.194,-0.153 -0.834,-0.252 -0.351,0 -0.076,0.121 -0.505,0.05 -0.334,-0.148 -0.41,-0.226 -1.455,-0.834 0.152,-0.55 -0.842,-0.328 0.058,-0.456 0.636,-2.132 0.157,0.049 0.514,-0.333 0.74,-0.527 0.617,-2.123 0.108,-2.326 -0.338,-2.479 -1.343,-0.432 -1.713,-0.528 1.497,-2.965 0.829,0.27 0.969,0.288 0.279,0.041 1.167,-0.717 1.101,0.338 0.364,0.226 0.235,0.5 -0.045,0.153 0.577,1.001 0.446,0.401 0.983,0.699 1.875,0.559 -0.632,2.159 0.028,0.897 0.946,0.288 0.122,0.027 0.018,-0.022 1,0.252 1.204,0.351 -0.374,1.339 2.176,0.572 3.304,0.951 m -2.916,5.148 -1.785,6.187 -0.248,0.758 -1.541,5.368 -0.514,-0.158 -0.293,-0.095 -1.131,-0.306 -1.239,-0.307 -3.124,-0.883 -0.239,-0.068 -0.405,-0.121 -0.983,-0.357 -0.689,-0.143 -0.023,-0.005 2.569,-8.69 0.027,-0.094 0.879,-0.365 0.356,0.112 0.947,0.225 2.014,0.316 1.379,-0.78 1.321,-0.599 1.65,-0.297 1.072,0.302 m -9.645,1.18 -2.569,8.69 -2.641,-0.739 -2.79,-0.771 -0.054,-0.342 -0.013,-0.352 0.626,-1.32 0.216,-0.307 0.23,-0.36 0.049,-0.33 -0.09,-1.077 -0.351,-0.513 -0.383,-0.23 0.148,-1.867 0.041,0.032 0.492,0.185 0.351,0.022 0.185,-0.112 0.852,-1.046 0.04,-0.067 0,-0.05 -0.054,-0.14 0.005,-0.063 1.401,-1.424 0.167,-0.126 0.04,-0.014 -0.152,0.55 1.455,0.834 0.41,0.226 0.334,0.148 0.505,-0.05 0.076,-0.121 0.351,0 0.834,0.252 0.194,0.153 0.095,0.329 m -4.944,-2.649 -0.338,-0.1 -0.739,-0.031 -0.144,0.437 -0.141,0.103 -0.698,0.37 -1.303,-0.135 -0.036,-0.068 0.068,-0.915 0.149,-0.626 0.099,-0.347 0.081,-0.122 0.045,-0.721 -0.406,-1.06 -0.027,-0.058 -1.996,-0.618 4.822,-7.396 1.713,0.528 1.343,0.432 0.338,2.479 -0.108,2.326 -0.617,2.123 -0.74,0.527 -0.514,0.333 -0.157,-0.049 -0.636,2.132 -0.058,0.456 m 0,0 0.842,0.328 -0.04,0.014 -0.167,0.126 -1.401,1.424 -0.005,0.063 0.054,0.14 0,0.05 -0.04,0.067 -0.852,1.046 -0.185,0.112 -0.351,-0.022 -0.492,-0.185 -0.041,-0.032 -0.148,1.867 0.383,0.23 0.351,0.513 0.09,1.077 -0.049,0.33 -0.23,0.36 -0.216,0.307 -0.626,1.32 0.013,0.352 0.054,0.342 -3.552,-1.118 -0.356,-0.748 -0.419,-1.271 0.095,-2.754 0.32,-1.063 0.266,-0.712 0.067,-0.154 0.144,-3.506 0.005,-1.181 1.1,-1.213 1.996,0.618 0.027,0.058 0.406,1.06 -0.045,0.721 -0.081,0.122 -0.099,0.347 -0.149,0.626 -0.068,0.915 0.036,0.068 1.303,0.135 0.698,-0.37 0.141,-0.103 0.144,-0.437 0.739,0.031 0.338,0.1 m 17.762,-40.317 0.46,-0.085 0.424,0.176 1.455,1.784 0.086,0.339 0.252,1.405 -0.081,1.226 -0.067,0.212 -0.235,1.573 -1.469,-0.347 -0.681,-0.964 -2.853,-0.843 1.317,-4.534 1.392,0.058 m -1.392,-0.058 -1.317,4.534 -1.09,-0.266 -2.006,-0.568 -0.027,-0.013 0.009,-0.131 -2.136,-0.645 1.203,-2.681 0.108,-0.402 0.077,-0.378 0.036,-0.469 0.005,-0.085 3.524,-0.483 0.401,-0.144 0.045,-0.131 0.581,0.032 0.05,0.031 0.027,0.014 0.036,0.059 0.131,0.234 0.094,0.302 -0.197,0.577 0.378,0.59 0.068,0.023" />
</svg>
