<?xml version="1.0" encoding="UTF-8" standalone="no"?>
<!-- Created with Inkscape (http://www.inkscape.org/) -->

<svg
   xmlns:dc="http://purl.org/dc/elements/1.1/"
   xmlns:cc="http://creativecommons.org/ns#"
   xmlns:rdf="http://www.w3.org/1999/02/22-rdf-syntax-ns#"
   xmlns:svg="http://www.w3.org/2000/svg"
   xmlns="http://www.w3.org/2000/svg"
   xmlns:sodipodi="http://sodipodi.sourceforge.net/DTD/sodipodi-0.dtd"
   xmlns:inkscape="http://www.inkscape.org/namespaces/inkscape"
   version="1.0"
   width="555.22198"
   height="351.66797"
   id="svg2"
   inkscape:version="0.48.1 r9760"
   sodipodi:docname="pennsylvania.svg">
  <metadata
     id="metadata13">
    <rdf:RDF>
      <cc:Work
         rdf:about="">
        <dc:format>image/svg+xml</dc:format>
        <dc:type
           rdf:resource="http://purl.org/dc/dcmitype/StillImage" />
      </cc:Work>
    </rdf:RDF>
  </metadata>
  <defs
     id="defs11" />
  <sodipodi:namedview
     pagecolor="#ffffff"
     bordercolor="#666666"
     borderopacity="1"
     objecttolerance="10"
     gridtolerance="10"
     guidetolerance="10"
     inkscape:pageopacity="0"
     inkscape:pageshadow="2"
     inkscape:window-width="640"
     inkscape:window-height="480"
     id="namedview9"
     showgrid="false"
     inkscape:zoom="0.83029853"
     inkscape:cx="277.61099"
     inkscape:cy="175.83398"
     inkscape:window-x="0"
     inkscape:window-y="25"
     inkscape:window-maximized="0"
     inkscape:current-layer="svg2" />
  <path
     id="42045"
     style="font-size:12px;fill:#0000ff;fill-rule:nonzero;stroke:#000000;stroke-opacity:1;stroke-width:0.1;stroke-miterlimit:4;stroke-dasharray:none;stroke-linecap:butt;marker-start:none;stroke-linejoin:bevel"
     d="m 494.31298,126.361 1.05,0.96 0.941,1.262 -1.783,1.248 -1.835,-0.066 1.627,-3.404 m -3.713,-1.524 0.55,-0.062 1,0.409 0.032,0.041 0.102,0.135 0.952,0.753 1.077,0.248 -1.627,3.404 -1.536,1.87 -3.345,0.716 0.567,-0.73 0.127,-0.338 0.154,-0.568 0.098,-0.699 -0.126,-0.346 -0.049,-0.226 -0.036,-0.329 0.063,-2.073 0.591,-0.509 1.406,-1.696 m 1.541,-2.686 5.268,2.57 -0.996,1.095 -0.549,-0.365 -0.554,0.852 0.513,0.396 -0.46,0.622 -1.05,-0.96 -1.077,-0.248 -0.952,-0.753 -0.102,-0.135 -0.032,-0.041 -1,-0.409 -0.55,0.062 1.027,-2.955 0.514,0.269 m 2.304,-2.812 1.383,0.564 0.73,1.469 0.937,0.568 0.064,0.036 2.6,1.997 -2.114,1.789 -0.636,-1.041 -5.268,-2.57 1.099,-1.815 1.1,-1.2 0.105,0.203 m 3.6,6.423 -0.622,0.906 -0.734,1.365 -0.385,0.55 -0.941,-1.262 0.46,-0.622 -0.513,-0.396 0.554,-0.852 0.549,0.365 0.996,-1.095 0.636,1.041" />
</svg>
