<?xml version="1.0" encoding="UTF-8" standalone="no"?>
<!-- Created with Inkscape (http://www.inkscape.org/) -->

<svg
   xmlns:dc="http://purl.org/dc/elements/1.1/"
   xmlns:cc="http://creativecommons.org/ns#"
   xmlns:rdf="http://www.w3.org/1999/02/22-rdf-syntax-ns#"
   xmlns:svg="http://www.w3.org/2000/svg"
   xmlns="http://www.w3.org/2000/svg"
   xmlns:sodipodi="http://sodipodi.sourceforge.net/DTD/sodipodi-0.dtd"
   xmlns:inkscape="http://www.inkscape.org/namespaces/inkscape"
   version="1.0"
   width="555.22198"
   height="351.66797"
   id="svg2"
   inkscape:version="0.48.1 r9760"
   sodipodi:docname="pittsburgh.svg">
  <metadata
     id="metadata19">
    <rdf:RDF>
      <cc:Work
         rdf:about="">
        <dc:format>image/svg+xml</dc:format>
        <dc:type
           rdf:resource="http://purl.org/dc/dcmitype/StillImage" />
      </cc:Work>
    </rdf:RDF>
  </metadata>
  <defs
     id="defs17" />
  <sodipodi:namedview
     pagecolor="#ffffff"
     bordercolor="#666666"
     borderopacity="1"
     objecttolerance="10"
     gridtolerance="10"
     guidetolerance="10"
     inkscape:pageopacity="0"
     inkscape:pageshadow="2"
     inkscape:window-width="640"
     inkscape:window-height="480"
     id="namedview15"
     showgrid="false"
     inkscape:zoom="0.83029853"
     inkscape:cx="277.61099"
     inkscape:cy="175.83398"
     inkscape:window-x="0"
     inkscape:window-y="25"
     inkscape:window-maximized="0"
     inkscape:current-layer="svg2" />
  <path
     id="42003"
     style="font-size:12px;fill:#0000ff;fill-rule:nonzero;stroke:#000000;stroke-opacity:1;stroke-width:0.1;stroke-miterlimit:4;stroke-dasharray:none;stroke-linecap:butt;marker-start:none;stroke-linejoin:bevel"
     d="m 451.28398,126.844 0.004,0.008 0.393,2.903 0.027,0.208 -0.009,0.066 -0.514,2.602 -0.09,0.229 -0.478,0.324 -1.042,-0.278 -2.266,-0.942 -2.02,-1.573 1.07,-1.438 0.711,-0.658 -0.167,-0.771 4.381,-0.68 m 4.021,-3.899 3.925,-0.636 0.454,2.312 -0.891,4.504 -1.763,0.112 -2.37,-0.144 -0.643,-0.257 -0.024,-0.023 -0.135,-0.42 0.067,-0.169 0.546,-1.119 1.144,-2.424 -0.31,-1.736 m 4.379,1.676 4.314,-0.802 -1.639,5.562 -0.167,1.14 -0.879,0.162 -1.263,0.19 -0.193,-0.274 -0.338,-0.141 -1.248,0.225 0.522,-1.558 0.891,-4.504 m -4.696,-3.457 0.317,1.781 0.31,1.736 -1.144,2.424 -0.546,1.119 -2.637,-1.372 -0.004,-0.008 -1.09,-6.418 0.247,0.87 0.032,0.117 0.225,0.527 1.041,0.658 0.203,0.031 0.289,0.023 0.18,-0.054 0.694,-0.249 1.037,-0.418 0.846,-0.767 m -4.794,-0.738 1.09,6.418 -4.381,0.68 -0.482,-2.294 0.126,-2.848 0.703,-1.465 2.899,-0.514 0.045,0.023 m -7.211,5.424 3.438,-0.62 0.482,2.294 0.167,0.771 -0.711,0.658 -1.07,1.438 -1.518,0.252 -0.342,-2.069 -0.446,-2.724 m 10.942,2.374 -0.067,0.169 0.135,0.42 0.024,0.023 0.643,0.257 2.37,0.144 1.763,-0.112 -0.522,1.558 -1.732,3.54 -1.689,-0.884 -0.1,-0.052 -0.243,-0.062 -0.235,0.069 -2.284,0.566 -1.281,0.239 -0.09,-0.915 0.478,-0.324 0.09,-0.229 0.514,-2.602 0.009,-0.066 -0.027,-0.208 -0.393,-2.903 2.637,1.372 m -8.636,2.167 2.02,1.573 2.266,0.942 1.042,0.278 0.09,0.915 -0.851,2.039 -1.827,-0.005 -1.078,0.008 -0.112,0.014 -1.986,1.091 -0.413,-2.528 -0.498,-3.07 -0.171,-1.005 1.518,-0.252 m 16.903,0.13 -0.375,2.362 0.406,3.178 -0.028,0.373 -0.229,1.005 -5.656,1.033 -0.208,-0.14 -0.338,-1.51 0.077,-0.631 0.45,-1.302 0.248,-0.666 1.732,-3.54 1.248,-0.225 0.338,0.141 0.193,0.274 1.263,-0.19 0.879,-0.162 m -11.485,3.578 1.281,-0.239 2.284,-0.566 0.235,-0.069 0.243,0.062 0.1,0.052 1.689,0.884 -0.248,0.666 -0.45,1.302 -0.077,0.631 0.338,1.51 0.208,0.14 -0.821,0.148 -2.791,0.492 -1.477,0.252 -1.365,-3.226 0.851,-2.039 m -5.854,3.147 1.986,-1.091 0.112,-0.014 1.078,-0.008 1.827,0.005 1.365,3.226 -4.908,0.82 -0.955,0.154 -0.505,-3.092" />
</svg>
