<?xml version="1.0" encoding="UTF-8" standalone="no"?>
<!-- Created with Inkscape (http://www.inkscape.org/) -->

<svg
   xmlns:dc="http://purl.org/dc/elements/1.1/"
   xmlns:cc="http://creativecommons.org/ns#"
   xmlns:rdf="http://www.w3.org/1999/02/22-rdf-syntax-ns#"
   xmlns:svg="http://www.w3.org/2000/svg"
   xmlns="http://www.w3.org/2000/svg"
   xmlns:sodipodi="http://sodipodi.sourceforge.net/DTD/sodipodi-0.dtd"
   xmlns:inkscape="http://www.inkscape.org/namespaces/inkscape"
   version="1.0"
   width="555.22198"
   height="351.66797"
   id="svg2"
   inkscape:version="0.48.1 r9760"
   sodipodi:docname="province-3.svg">
  <metadata
     id="metadata292">
    <rdf:RDF>
      <cc:Work
         rdf:about="">
        <dc:format>image/svg+xml</dc:format>
        <dc:type
           rdf:resource="http://purl.org/dc/dcmitype/StillImage" />
      </cc:Work>
    </rdf:RDF>
  </metadata>
  <defs
     id="defs290" />
  <sodipodi:namedview
     pagecolor="#ffffff"
     bordercolor="#666666"
     borderopacity="1"
     objecttolerance="10"
     gridtolerance="10"
     guidetolerance="10"
     inkscape:pageopacity="0"
     inkscape:pageshadow="2"
     inkscape:window-width="640"
     inkscape:window-height="480"
     id="namedview288"
     showgrid="false"
     inkscape:zoom="0.83029853"
     inkscape:cx="277.61099"
     inkscape:cy="175.83398"
     inkscape:window-x="0"
     inkscape:window-y="25"
     inkscape:window-maximized="0"
     inkscape:current-layer="svg2" />
  <path
     id="54109"
     style="font-size:12px;fill:#0000ff;fill-rule:nonzero;stroke:#000000;stroke-opacity:1;stroke-width:0.1;stroke-miterlimit:4;stroke-dasharray:none;stroke-linecap:butt;marker-start:none;stroke-linejoin:bevel"
     d="m 438.56098,166.857 0.928,-0.175 0.589,0.027 0.358,0.378 1.122,1.461 1.417,1.285 -0.723,1.243 -1.546,-0.356 -1.51,-0.073 -1.275,0.159 -0.875,-0.027 -0.509,-0.465 0.316,-1.514 0.505,-0.338 0.427,-0.342 -0.553,-0.425 0.109,-0.31 1.22,-0.528 m -0.737,-20.322 1.44,0.748 -0.405,1.154 -2.471,2.474 -1.767,-0.64 -0.184,-1.081 0.405,-0.893 1.289,-1.641 0.627,-0.766 0.103,-0.089 0.09,-0.028 0.113,0.009 0.253,0.14 0.072,0.077 0.435,0.536 m 1.035,1.902 1.64,1.78 -0.905,1.662 -0.61,0.347 -0.752,-0.211 -0.858,0.172 -0.986,-1.276 2.471,-2.474 m 7.454,-8.253 0.423,1.037 -0.599,2.307 -0.41,0.6 -0.767,-0.153 -3.497,-1.497 0.888,-1.64 3.007,-0.5 0.955,-0.154 m 1.725,12.652 0.663,0.05 1.18,0.229 1.313,2.015 -0.316,1.856 -0.725,0.817 -0.24,-0.085 0.181,1.545 -0.847,-0.406 -1.906,-0.887 -0.515,-0.726 -0.441,-0.987 0.195,-0.379 1.458,-3.042 m -19.623,7.351 2.74,1.983 -0.082,0.37 0.272,1.108 0.045,0.062 0.346,0.366 0.285,0.717 -0.743,1.109 -0.867,1.217 -1.045,-0.964 0.261,-0.451 0,-0.072 -0.004,-0.01 -0.014,-0.018 -1.586,-1.514 -0.027,-0.008 -0.193,-0.042 -0.181,-0.161 0,-0.01 -0.091,-0.226 -0.04,-0.113 0,-0.004 0.252,-1.103 -0.212,-2.263 0.884,0.027 m 20.395,-12.282 0.693,-0.234 1.754,1.887 0.1,1.39 -0.069,1.261 -1.086,0.208 -0.321,0.698 -1.18,-0.229 -0.253,-0.496 -0.003,-1.406 0.009,-0.135 0.035,-0.042 0.068,-0.012 0.185,-0.398 0.162,-0.547 -0.053,-1.394 -0.041,-0.551 m -7.347,-5.427 3.497,1.497 -2.315,2.429 -1.281,-0.54 -1.559,-1.028 0.869,-1.357 0.789,-1.001 m 11.871,2.988 1.11,-0.729 1.875,0.401 0.248,0.239 0.923,-0.171 0.708,0.473 0.496,0.928 0.004,0.348 -0.022,0.368 -0.1,0.438 -0.22,0.342 -1.376,0.073 -2.955,-0.311 -0.586,-0.902 -0.105,-1.497 m -1.748,-2.626 0.469,0.143 0.293,1.744 -2.524,1.186 -0.627,-1.885 2.389,-1.188 m -5.183,21.727 1.713,1.533 0.063,0.212 -0.068,0.23 -0.712,1.956 -0.609,1.811 -0.012,-0.018 -2.683,-1.662 0.112,-0.591 0.04,-0.117 0.768,-1.1 0.306,-0.058 0.104,0.018 0.334,0.135 0.102,0.103 0,0.145 0.064,0.014 0.131,-0.1 0.009,-0.04 -0.014,-0.086 -0.338,-1.032 -0.388,-0.397 -0.126,-0.077 -0.081,-0.017 1.285,-0.862 m -9.029,-12.38 0.858,-0.172 0.752,0.211 0.61,-0.347 0.706,0.826 0.122,0.577 0.897,1.893 0.802,0.293 -0.92,1.257 -0.27,-0.013 -2.46,0.167 -0.686,-0.743 -0.411,-3.949 m 3.99,-6.323 1.281,0.54 1.126,2.253 -1.965,1.628 -1.307,-0.068 -1.64,-1.78 0.405,-1.154 0.032,-0.279 0.04,-0.171 0.059,-0.091 1.275,-0.487 0.694,-0.391 m 16.992,2.239 0.094,0.078 -0.892,0.734 -0.495,0.613 -0.208,0.446 0,0.018 0.175,0.329 0.081,0.036 0.15,0.117 0.027,0.073 -0.018,0.176 -0.159,0.459 -0.509,0.982 -0.215,0.249 -0.036,-0.189 -1.38,-0.488 -0.217,-0.041 -0.054,0.041 -0.297,1.271 -0.032,0.224 -0.067,1.038 -1.429,1.451 -1.091,0.185 -0.906,1.081 0.316,-1.856 -1.313,-2.015 0.321,-0.698 1.086,-0.208 0.069,-1.261 -0.1,-1.39 1.794,-0.648 0.027,-0.103 0.009,-0.375 0.121,-1.068 0.036,-0.09 0.195,-0.311 0.586,0.902 2.955,0.311 1.376,-0.073 m -18.682,15.969 0.793,0.117 0.951,0.852 0.064,0.041 2.257,0.031 1.379,0.316 0.081,0.017 0.126,0.077 0.388,0.397 0.338,1.032 0.014,0.086 -0.009,0.04 -0.131,0.1 -0.064,-0.014 0,-0.145 -0.102,-0.103 -0.334,-0.135 -0.104,-0.018 -0.306,0.058 -0.768,1.1 -0.04,0.117 -0.112,0.591 -1.12,1.204 -1.417,-1.285 -1.122,-1.461 -0.358,-0.378 -0.589,-0.027 0.185,-2.61 m -3.637,-7.851 -0.487,0.685 -1.091,2.551 -0.009,0.96 -1.401,-0.433 -0.271,-1.275 -0.347,-1.704 0.982,-0.793 1.763,-0.572 0.861,0.581 m 19.452,-17.601 1.059,6.612 0.019,0.145 -0.248,-0.239 -1.875,-0.401 -1.11,0.729 -0.986,-0.739 -0.293,-1.744 -0.15,-0.586 0.763,-2.002 0.085,-0.977 -0.055,-0.306 2.791,-0.492 m 0.898,13.793 -0.06,0.968 -0.017,1.068 -0.05,0.911 -0.266,0.947 -0.617,0.959 -0.005,0.045 0,0.014 0.243,0.491 -1.199,2.858 -1.446,0.347 -0.573,0.357 -0.419,0.057 -0.553,-0.031 -1.127,-0.703 -0.204,-1.438 -0.181,-1.545 0.24,0.085 0.725,-0.817 0.906,-1.081 1.091,-0.185 1.429,-1.451 0.067,-1.038 0.032,-0.224 0.297,-1.271 0.054,-0.041 0.217,0.041 1.38,0.488 0.036,0.189 m -15.023,-6.549 -0.694,0.391 -1.275,0.487 -0.059,0.091 -0.04,0.171 -0.032,0.279 -1.44,-0.748 1.981,-1.699 1.559,1.028 m 17.086,2.317 2.444,1.464 0.874,0.532 -1.014,3.913 -0.699,1.009 -1.727,-0.293 -0.612,-0.907 -0.189,-0.189 -0.203,-0.09 -0.997,-0.239 0.06,-0.968 0.215,-0.249 0.509,-0.982 0.159,-0.459 0.018,-0.176 -0.027,-0.073 -0.15,-0.117 -0.081,-0.036 -0.175,-0.329 0,-0.018 0.208,-0.446 0.495,-0.613 0.892,-0.734 m -15.68,-13.549 1.67,0.086 0.3,1.838 -2.1,0.122 0.026,-1.641 0.104,-0.405 m 3.81,21.246 -0.195,0.379 0.441,0.987 0.515,0.726 1.906,0.887 -0.811,1.037 -1.344,1.631 -0.189,0.195 -1.735,-0.041 -0.807,-1.059 -0.296,-0.244 -0.16,-0.063 -0.576,0.036 -0.209,0.23 0.011,0.176 -0.04,0.036 -0.072,0 -0.812,-0.257 -0.847,-0.356 0.004,-0.005 2.867,-2.443 0.797,-0.968 -0.108,-0.19 -0.581,-0.072 2.241,-0.622 m 20.199,-18.181 0.523,0.104 0.117,-0.014 0.348,-0.641 0.256,-0.405 0.068,-0.077 0.059,-0.022 0.334,0.009 0.364,0.04 0.361,0.135 0.45,0.326 0.166,0.184 -1.062,0.541 -0.023,0.058 -0.36,2.692 -1.33,-0.735 -1.303,-0.428 1.032,-1.767 m -18.663,28.403 3.753,-0.095 0.889,0.695 -0.581,0.703 -0.316,0.654 0.23,0.427 -1.153,1.019 -0.293,0.248 -0.483,-0.694 -1.014,0.802 -0.104,0.082 -1.253,0.941 -1.001,-0.573 0.609,-1.811 0.712,-1.956 0.068,-0.23 -0.063,-0.212 m 4.582,-26.988 0.055,0.306 -0.085,0.977 -0.763,2.002 0.15,0.586 -0.469,-0.143 -1.172,-0.645 -0.491,-0.433 -0.77,-0.591 -1.889,0.299 -0.528,-0.249 -0.423,-1.037 4.908,-0.82 1.477,-0.252 m -21.42,26.79 1.095,-0.568 -0.042,0.167 0.744,1.511 0.573,1.081 1.217,0.977 0.247,-0.112 0.343,-0.15 0.658,-0.053 0.74,0.045 -0.316,1.514 -0.653,0.582 -0.455,-0.271 -0.393,0.117 -0.4,0.091 -0.732,-0.266 -0.003,0 -2.052,-1.38 -0.377,-0.581 -0.019,-0.063 0.004,-0.009 -1.046,-1.415 0.867,-1.217 m 32.59,-26.335 -2.443,4.381 -3.263,-0.653 1.834,-2.213 1.064,0.239 1.618,-2.227 1.19,0.473 m -19.773,29.062 2.683,1.662 -0.929,1.948 -2.354,1.136 -1.582,-1.105 0.339,-1.194 0.723,-1.243 1.12,-1.204 m -7.558,1.685 0.509,0.465 0.875,0.027 1.275,-0.159 1.51,0.073 1.546,0.356 -0.339,1.194 -0.374,0.752 -0.883,0.808 -0.008,0.009 -0.442,0.406 -0.032,0.018 -1.181,0.234 -0.675,-0.401 -1.146,-0.414 -0.117,-0.06 -0.004,0 -0.848,-0.739 -0.87,-1.235 -0.072,-0.193 0.027,-0.086 0.455,-0.41 0.141,-0.063 0.653,-0.582 m -3.083,-17.013 -0.014,0.031 0.099,0.153 1.353,1.509 0.284,0.646 -1.763,0.572 -0.982,0.793 0.347,1.704 -1.848,-1.272 0.189,-0.041 0.059,-0.012 0.022,-0.024 0.056,-0.045 0.025,-0.027 0.041,-0.067 0.013,-0.063 0.005,-0.076 0.005,-0.045 0,-0.018 -0.014,-0.09 -0.258,-1.051 -0.003,-0.004 0.13,-2.083 0.226,-1.235 0.031,-0.18 0.46,-0.779 0.171,-0.09 0.153,0.008 0.005,0 0.73,0.398 0.195,0.242 0.247,0.37 0.036,0.1 0,0.676 m 11.286,-16.745 0.618,3.782 -3.007,0.5 -0.108,-1.735 0.397,-2.425 2.1,-0.122 m 1.996,4.665 0.528,0.249 1.889,-0.299 0.77,0.591 0.491,0.433 1.172,0.645 -2.389,1.188 -3.06,-0.5 0.599,-2.307 m -11.88,23.081 -0.257,0.28 -0.149,0.225 0,0.067 0.036,0.05 1.226,0.261 0.419,-0.045 0.406,0.14 1.429,1.081 0.469,0.366 0.126,0.13 -1.22,0.528 -0.109,0.31 0.553,0.425 -0.427,0.342 -0.505,0.338 -0.74,-0.045 -0.658,0.053 -0.343,0.15 -0.247,0.112 -1.217,-0.977 -0.573,-1.081 -0.744,-1.511 0.042,-0.167 2.483,-1.032 m -1.807,-4.318 1.401,0.433 1.036,1.37 -0.63,2.515 -2.483,1.032 -1.095,0.568 0.743,-1.109 -0.285,-0.717 -0.346,-0.366 -0.045,-0.062 -0.272,-1.108 0.082,-0.37 1.894,-2.186 m 12.728,-12.412 3.033,0.333 0.041,0.551 0.053,1.394 -0.162,0.547 -0.185,0.398 -0.068,0.012 -0.035,0.042 -0.009,0.135 0.003,1.406 0.253,0.496 -0.663,-0.05 0.041,-0.149 -0.026,-0.244 -0.374,-0.783 -0.596,-0.266 -0.54,0.113 -0.117,-0.127 -0.194,-0.419 -1.605,-2.262 1.15,-1.127 m -9.74,8.649 1.748,-0.085 0.686,0.743 2.46,-0.167 0.27,0.013 -0.774,0.852 0.486,1.199 0.451,1.397 -0.004,0.005 -0.893,4.011 -0.793,-0.117 -0.181,-0.451 -0.739,-1.1 -1.722,-1.126 -0.207,-0.013 -0.261,0.071 -1.078,0.334 -1.036,-1.37 0.009,-0.96 1.091,-2.551 0.487,-0.685 m 36.016,-17.655 1.461,2.006 -0.596,2.614 -2.321,-1.301 0.009,-0.2 0.018,-0.077 0.46,-1.188 0.06,-0.137 0.188,-0.126 0.528,-0.802 0.085,-0.18 0.108,-0.609 m -35.665,12.345 0.986,1.276 0.411,3.949 -1.748,0.085 -0.861,-0.581 -0.284,-0.646 -1.353,-1.509 -0.099,-0.153 0.014,-0.031 0.329,-0.086 1.045,-0.744 0.024,-0.108 -0.24,-1.038 -0.108,-0.126 -0.226,-0.151 -0.112,-0.082 -0.108,-0.141 -0.049,-0.176 0,-0.112 0.612,-0.266 1.767,0.64 m 9.749,-7.383 3.06,0.5 0.627,1.885 -0.321,1.758 -0.693,0.234 -3.033,-0.333 -0.05,-3.444 0.41,-0.6 m 15.288,0.42 0.883,0.352 1.492,0.283 0.893,0.099 0.622,-0.099 0.083,-0.063 0.363,0.036 0.266,0.163 0.356,0.288 -0.276,0.473 -0.008,0.492 -0.018,0.09 -0.316,0.699 -0.946,0.892 -0.032,-0.005 -0.041,-0.063 -0.04,-0.067 -0.514,0.487 -0.044,0.071 -0.023,0.036 -0.131,0.406 -0.383,1.303 -1.843,0.356 -0.874,-0.532 0.355,-1.18 -0.283,-1.326 -0.155,-0.447 0.294,-1.558 0.265,-1.051 0.055,-0.135 m -17.996,-15.374 0.342,2.069 0.171,1.005 -0.947,0.217 -0.878,-2.336 1.312,-0.955 m 20.439,10.993 1.879,-0.103 1.303,0.428 0.113,1.411 -0.027,2.46 -0.036,0.208 -0.15,0.351 -0.152,0.278 -0.303,0.299 -0.112,0.108 -0.356,-0.288 -0.266,-0.163 -0.363,-0.036 -0.083,0.063 -0.622,0.099 -0.893,-0.099 -1.492,-0.283 -0.883,-0.352 2.443,-4.381 m -13.774,19.696 0.204,1.438 1.127,0.703 0.553,0.031 0.419,-0.057 0.573,-0.357 1.446,-0.347 -0.698,1.591 -1.849,3.74 -3.753,0.095 -1.713,-1.533 -1.235,-2.888 1.735,0.041 0.189,-0.195 1.344,-1.631 0.811,-1.037 0.847,0.406 m 8.068,-15.968 3.263,0.653 -0.055,0.135 -0.265,1.051 -0.294,1.558 0.155,0.447 0.283,1.326 -0.355,1.18 -2.444,-1.464 -0.094,-0.078 0.22,-0.342 0.1,-0.438 0.022,-0.368 -0.004,-0.348 -0.496,-0.928 -0.708,-0.473 -0.923,0.171 -0.019,-0.145 1.614,-1.937 m -14.391,5.362 0.856,0.042 1.605,2.262 -0.033,-0.004 -0.102,0.049 -0.487,0.253 -0.269,0.179 -1.498,1.556 -0.96,0.959 -0.438,-1.622 -0.243,-1.47 -0.053,-0.085 -0.343,-0.491 1.965,-1.628 m 1.397,13.022 1.235,2.888 -1.285,0.862 -1.379,-0.316 -2.257,-0.031 -0.064,-0.041 -0.951,-0.852 0.893,-4.011 0.847,0.356 0.812,0.257 0.072,0 0.04,-0.036 -0.011,-0.176 0.209,-0.23 0.576,-0.036 0.16,0.063 0.296,0.244 0.807,1.059 m -0.208,-17.704 0.767,0.153 0.05,3.444 -1.15,1.127 -0.856,-0.042 -1.126,-2.253 2.315,-2.429 m -2.839,11.493 0.403,-0.797 1.815,1.829 0.581,0.072 0.108,0.19 -0.797,0.968 -2.867,2.443 -0.451,-1.397 -0.486,-1.199 0.774,-0.852 0.92,-1.257 m -0.315,-5.183 0.343,0.491 0.053,0.085 0.243,1.47 0.438,1.622 -0.359,0.718 -0.403,0.797 -0.802,-0.293 -0.897,-1.893 -0.122,-0.577 -0.706,-0.826 0.905,-1.662 1.307,0.068 m -10.876,7.152 1.848,1.272 0.271,1.275 -1.894,2.186 -2.74,-1.983 1.592,-0.63 0.099,-0.064 0.053,-0.068 0.028,-0.076 0.018,-0.086 0.018,-0.094 0.045,-0.924 0.004,-0.027 0.004,-0.564 0.654,-0.217 m 13.012,-25.789 0.498,3.07 -1.67,-0.086 0.225,-2.767 0.947,-0.217 m 2.29,19.313 0.194,0.419 0.117,0.127 0.54,-0.113 0.596,0.266 0.374,0.783 0.026,0.244 -0.041,0.149 -1.458,3.042 -2.241,0.622 -1.815,-1.829 0.359,-0.718 0.96,-0.959 1.498,-1.556 0.269,-0.179 0.487,-0.253 0.102,-0.049 0.033,0.004 m -6.558,13.111 -0.185,2.61 -0.928,0.175 -0.126,-0.13 -0.469,-0.366 -1.429,-1.081 -0.406,-0.14 -0.419,0.045 -1.226,-0.261 -0.036,-0.05 0,-0.067 0.149,-0.225 0.257,-0.28 0.63,-2.515 1.078,-0.334 0.261,-0.071 0.207,0.013 1.722,1.126 0.739,1.1 0.181,0.451 m 30.151,-26.736 2.228,1.23 -0.108,0.609 -0.085,0.18 -0.528,0.802 -0.188,0.126 -0.06,0.137 -0.46,1.188 -0.018,0.077 -0.009,0.2 -2.217,-1.258 0.36,-2.692 0.023,-0.058 1.062,-0.541 m -16.491,8.13 0.105,1.497 -0.195,0.311 -0.036,0.09 -0.121,1.068 -0.009,0.375 -0.027,0.103 -1.794,0.648 -1.754,-1.887 0.321,-1.758 2.524,-1.186 0.986,0.739 m 26.993,-1.117 0.551,-0.897 0.513,0.266 1.173,0.604 -1.074,1.686 -0.072,-0.64 -0.265,-0.515 -0.451,-0.198 -0.375,-0.306 m 8.605,6.41 0.473,1.234 -0.527,1.149 -3.705,-0.748 -0.395,-0.532 -0.515,-0.896 0.004,-0.24 0.536,-1.644 0.087,-0.077 0.346,-0.049 0.185,-0.015 0.397,0.054 3.114,1.764 m -7.68,-3.57 0.596,1.072 0.157,-0.338 0.026,-0.1 0.046,-0.058 0.13,-0.089 0.317,-0.149 1.027,-0.177 1.221,0.285 0.039,0.072 0.245,0.685 0.5,0.149 0.153,-0.005 0.109,0.459 -0.397,-0.054 -0.185,0.015 -0.346,0.049 -0.087,0.077 -0.536,1.644 -0.004,0.24 0.515,0.896 0.052,0.329 0,0.167 -0.022,0.1 -3.867,-0.618 -0.104,-0.023 -0.378,-0.184 -0.217,-0.374 -0.27,-0.838 0.026,-0.411 0.154,-0.554 0.406,-0.731 0.437,-0.541 0.257,-0.995 m 0.829,-5.814 0.536,0.269 1.695,1.236 0.37,0.825 0.365,2.149 0.662,2.682 -0.153,0.005 -0.5,-0.149 -0.245,-0.685 -0.039,-0.072 -1.221,-0.285 -1.027,0.177 -0.317,0.149 -0.13,0.089 -0.046,0.058 -0.026,0.1 -0.157,0.338 -0.596,-1.072 0.243,-1.124 -0.005,-0.057 1.074,-1.686 -1.173,-0.604 0.69,-2.343 m -3.307,-2.276 -0.123,0.134 -0.018,0.069 0.009,0.03 0.198,0.258 0.474,0.486 2.068,1.407 0.113,0.036 0.424,-0.023 0.162,-0.121 -0.69,2.343 -0.513,-0.266 -0.551,0.897 -2.347,-1.176 -0.469,0.053 -0.483,0.023 -0.355,-0.023 -0.019,-0.008 -0.639,-0.429 -0.063,-0.045 -0.006,0 -0.057,-0.076 -0.069,-0.22 -0.003,-0.01 0.012,-0.117 0.024,-0.162 0.004,-0.059 0.041,-0.108 0.396,-0.626 2.48,-2.267 m 5.561,15.81 -0.018,-0.1 0.486,-0.626 0.045,0.023 0.807,0.676 0.573,0.603 0.217,0.036 1.166,0.181 1.586,1.366 -1.203,0.87 -1.506,-0.806 -2.153,-2.223 m -11.394,-5.944 0.896,0.91 0.614,0.965 0.851,1.103 0.091,0.09 0.157,0.055 0.134,0.017 0.917,-0.067 0.27,0.505 -0.806,0.253 -0.159,-0.082 -0.472,-0.144 -0.92,0.238 -0.536,0.186 -0.758,0.5 -0.897,0.676 -1.892,-2.565 0.567,0.036 1.032,-1.568 0.911,-1.108 m 10.704,12.051 0.762,0.221 2.064,0.005 0.753,0.5 0.63,0.54 -1.383,1.47 -3.016,-0.888 -0.626,-0.477 0.816,-1.371 m -5.238,0 0.122,1.872 -0.613,-0.236 -1.212,-0.202 -1.244,0.036 -0.009,0.063 -0.032,0.068 -0.076,0.063 -0.167,0.044 -0.081,0.005 -0.857,-0.154 -0.108,-0.094 -1.086,-0.996 0.572,-2.186 0.492,0.077 0.794,0.459 0.261,0.275 1.528,0.924 1.716,-0.018 m -9.049,-12.209 1.266,-1.6 0.479,0.356 0.819,0.815 0.203,0.361 0.059,0.058 0.135,0.095 0.427,0.122 0.195,-0.049 -0.911,1.108 -1.032,1.568 -0.567,-0.036 -1.282,-1.013 0.209,-1.785 m 1.6,9.659 2.658,0.833 -0.572,2.186 -0.661,0.888 -2.76,-0.888 1.335,-3.019 m 26.552,-5.229 3.672,-1.249 -0.347,0.984 -0.789,1.297 -0.279,0.055 -0.082,0.058 -0.026,0.032 -0.032,0.035 -0.063,0.077 -0.04,0.064 -0.041,0.063 -0.037,0.058 -0.139,0.289 -0.18,0.476 -0.298,1.362 -0.035,0.248 -0.258,2.872 0.041,0.112 -0.514,0.23 -0.883,0.068 -0.068,-0.046 -0.041,-0.095 0.014,-0.031 0.059,-0.041 0.081,-0.135 -0.053,-0.523 -0.569,-0.23 -0.975,0.29 -0.058,-0.109 -0.012,-0.068 0.062,-0.495 0.091,-0.321 0.672,-2.001 0.468,-0.689 0.162,-0.217 0.047,-0.094 0.17,-0.506 0.008,-0.157 -0.058,-1.018 0.33,-0.645 m -14.055,9.627 3.016,0.888 0.613,1.925 -0.961,-0.145 -3.163,-0.32 0.048,-0.807 0.447,-1.541 m -5.048,-1.848 1.001,0.005 1.51,0.833 0.527,0.19 1.172,0.325 0.212,0.018 0.626,0.477 -0.447,1.541 -1.864,-0.504 0.126,-0.794 -0.05,-0.415 -0.333,-0.5 -0.293,-0.188 -0.108,-0.032 -0.221,0.103 -0.581,0.283 -0.56,0.502 -0.595,0.028 -0.122,-1.872 m 10.16,-6.417 0.171,0.13 1.028,0.523 0.266,0.05 0.329,0.017 0.081,0.014 0.09,0.018 0.022,0.004 0.848,0.288 0.346,0.222 0.005,0.743 -0.121,1.943 -0.177,0.175 -2.258,-1.658 -1.586,-1.366 0.956,-1.103 m -5.35,-2.132 0.514,0.748 0.964,0.354 0.383,0.042 0.96,-0.112 1.131,-0.181 0.132,0.018 0.036,0.009 0.883,0.766 0.095,0.077 0.202,0.316 0.05,0.095 -0.956,1.103 -1.166,-0.181 -0.217,-0.036 -0.573,-0.603 -0.807,-0.676 -0.045,-0.023 -0.486,0.626 0.018,0.1 -1.452,-0.829 0.334,-1.613 m -4.448,0.806 -0.374,0.135 -0.51,-0.289 -0.064,-0.283 0.172,-0.127 0.126,-0.084 0.253,0.044 0.189,0.04 0.172,0.172 0.036,0.392 m -9.758,4.665 0.221,-0.023 0.234,0.1 0.063,0.158 -0.068,0.391 -0.126,0.181 -0.405,0.116 -0.122,-0.004 -0.086,-0.139 -0.018,-0.108 0.032,-0.249 0.058,-0.188 0.217,-0.235 m -4.769,-4.593 0.428,0.346 0.149,0.236 0.004,0.198 -0.541,0.477 -0.248,0.073 -0.04,-0.036 -0.086,-0.564 0.045,-0.216 0.239,-0.469 0.05,-0.045 m 5.057,-10.52 0.212,0.015 0.419,0.207 -0.419,1.014 -0.329,-0.257 -0.135,-0.523 0.018,-0.208 0.084,-0.266 0.15,0.018 m 8.01352,3.9875 -0.14453,0.0234 -0.0703,0.13671 -0.0742,0.12891 0.22265,0.0898 0.0977,0.0898 0.0586,-0.043 0.0625,-0.0352 0.0352,-0.0156 0.0586,0.0859 0.004,0.0703 0.11719,0.0274 0.16406,0.0664 0.0703,-0.19922 -0.0586,-0.14062 -0.13281,-0.0352 -0.0664,-0.0312 0,-0.0742 -0.0742,-0.043 -0.26953,-0.10156 z m -0.28852,0.2865 0.221,0.093 0.09,0.077 0.081,0.069 0.009,0.391 -0.491,0.496 -0.266,-0.117 -0.076,-0.216 0.021,-0.139 0.199,-0.447 0.203,-0.212 0.009,0.005 m 3.038,-1.763 -0.604,0.293 -0.343,-0.447 0.343,-0.279 0.072,0.05 0.532,0.383 m -2.082,-2.163 2.347,1.176 -0.892,0.537 0.023,0.017 -0.343,0.279 0.343,0.447 0.604,-0.293 0.487,0.352 -0.234,0.545 0.563,0.113 0.617,-0.281 -0.243,1.124 -0.257,0.995 -0.884,0.135 -3.627,-2.05 1.496,-3.096 z m 0.234,2.506 -0.121,0.211 0,0.158 0.31,0.217 0.347,-0.059 0.238,-0.149 -0.053,-0.383 -0.068,-0.099 -0.315,-0.049 -0.338,0.153 m 3.204,-0.311 0.072,0.64 0.005,0.057 -0.617,0.281 -0.563,-0.113 0.234,-0.545 0.104,-0.204 0.765,-0.116 m 9.339,15.684 0.821,-0.455 0.604,0.127 0.062,0.022 0.086,0.062 0.231,0.302 0.217,0.411 0.174,0.536 0.059,0.216 0,0.154 -0.19,0.784 -0.341,-0.177 -1.127,-0.598 -0.596,-1.384 m 0,0 0.596,1.384 -0.073,0 -0.163,0.329 -0.045,0.185 0.136,0.13 0.595,0.501 0.428,0.298 0.045,0.049 -0.117,0.072 -0.621,0.356 -0.664,0.301 -1.96,-1.441 -0.672,-0.541 0.419,-0.483 0.081,-0.176 0.024,-0.108 0,-0.062 -0.051,-0.122 -0.262,-0.275 -0.04,-0.108 -0.041,-0.973 2.385,0.684 m -3.109,-2.74 1.405,1.338 0.389,0.317 0.098,0.036 1.168,-0.06 1.289,0.221 0.031,0.045 -0.027,0.096 -0.237,0.243 -0.186,0.049 -0.821,0.455 -2.385,-0.684 -1.293,-1.398 0.569,-0.658 m 0.346,-0.374 1.203,-0.87 2.258,1.658 0.474,0.523 0.122,0.154 0.004,0.059 -0.807,0.211 -1.411,-0.447 -0.559,-0.315 -1.284,-0.973 m -5.602,-0.18 0.108,-0.095 0.238,0.158 0.974,1.379 1.835,0.626 1.456,1.01 0.266,0.406 0.017,0.045 -0.017,0.383 -0.045,0.072 -0.753,-0.5 -2.064,-0.005 -0.762,-0.221 -0.581,-0.31 -1.285,-0.488 -0.381,-0.166 -0.367,-0.663 1.361,-1.631 m 0,0 0.915,-1.155 0.685,0.993 0.415,0.514 0.716,0.428 0.424,-0.082 0.47,-0.189 0.383,-0.037 0.133,0.082 0.461,0.464 0.085,0.194 1.293,1.398 0.041,0.973 0.04,0.108 0.262,0.275 0.051,0.122 0,0.062 -0.024,0.108 -0.081,0.176 -0.419,0.483 -0.388,-0.393 -0.63,-0.54 0.045,-0.072 0.017,-0.383 -0.017,-0.045 -0.266,-0.406 -1.456,-1.01 -1.835,-0.626 -0.974,-1.379 -0.238,-0.158 -0.108,0.095 m 0.491,-3.678 1.452,0.829 2.153,2.223 1.16,1.18 -0.569,0.658 -0.085,-0.194 -0.461,-0.464 -0.133,-0.082 -0.383,0.037 -0.47,0.189 -0.424,0.082 -0.716,-0.428 -0.415,-0.514 -0.685,-0.993 -0.928,-2.266 0.504,-0.257 m -1.739,9.821 -1.046,0.271 -0.622,-0.736 -0.352,-0.576 0.56,-0.502 0.581,-0.283 0.221,-0.103 0.108,0.032 0.293,0.188 0.333,0.5 0.05,0.415 -0.126,0.794 m -1.086,-10.362 2.321,0.798 0.928,2.266 -0.915,1.155 -1.361,1.631 -3.453,-1.997 2.046,-3.786 0.434,-0.067 m 0.139,-1.379 3.02,0.307 -0.334,1.613 -0.504,0.257 -2.321,-0.798 0.139,-1.379 m -3.11,5.106 0.491,0.126 3.453,1.997 0.367,0.663 0.381,0.166 1.285,0.488 0.581,0.31 -0.816,1.371 -0.212,-0.018 -1.172,-0.325 -0.527,-0.19 -1.51,-0.833 -1.001,-0.005 -1.716,0.018 0.396,-3.768 m -5.459,-0.609 2.543,-0.274 2.916,0.883 -0.396,3.768 -1.528,-0.924 -0.261,-0.275 -0.794,-0.459 -0.492,-0.077 -2.658,-0.833 0.67,-1.809 m -1.112,-1.617 1.807,-0.87 0.897,-0.676 0.758,-0.5 0.536,-0.186 0.92,-0.238 0.472,0.144 0.159,0.082 -1.894,3.587 -2.543,0.274 -1.724,-0.355 0.612,-1.262 m 6.355,-2.497 1.014,0.576 0.51,0.289 0.374,-0.135 0.855,0.333 -2.046,3.786 -0.491,-0.126 -2.916,-0.883 1.894,-3.587 0.806,-0.253 m 0,0 -0.27,-0.505 0.657,-2.068 2.37,0.234 0.569,1.956 -0.139,1.379 -0.434,0.067 -0.855,-0.333 -0.036,-0.392 -0.172,-0.172 -0.189,-0.04 -0.253,-0.044 -0.126,0.084 -0.172,0.127 0.064,0.283 -1.014,-0.576 m -4.971,-7.59 3.177,0.324 -0.347,1.385 0.032,0.139 2.113,2.7 0.383,0.469 -0.657,2.068 -0.917,0.067 -0.134,-0.017 -0.157,-0.055 -0.091,-0.09 -0.851,-1.103 -0.614,-0.965 -0.896,-0.91 -0.195,0.049 -0.427,-0.122 -0.135,-0.095 -0.059,-0.058 -0.203,-0.361 -0.819,-0.815 -0.479,-0.356 0.951,-1.735 0.325,-0.519 m 3.177,0.324 1.407,0.992 3.627,2.05 -0.483,1.885 -2.37,-0.234 -0.383,-0.469 -2.113,-2.7 -0.032,-0.139 0.347,-1.385 z m 1.947,1.822 -0.009,-0.005 -0.203,0.212 -0.199,0.447 -0.021,0.139 0.076,0.216 0.266,0.117 0.491,-0.496 -0.009,-0.391 -0.081,-0.069 0.135,-0.067 0.181,-0.162 0,-0.085 -0.073,-0.046 -0.26,-0.086 -0.145,0.014 -0.058,0.099 -0.091,0.163 z m 0.618,0.26 0.189,0.073 0.085,-0.198 -0.054,-0.131 -0.13,-0.041 -0.181,0.194 0.019,0.091 0.072,0.012 m 2.685,-3.01 0.375,0.306 0.451,0.198 0.265,0.515 -0.765,0.116 -0.104,0.204 -0.487,-0.352 -0.532,-0.383 -0.072,-0.05 -0.023,-0.017 0.892,-0.537 m -6.813,-3.777 0.387,-0.045 2.393,0.839 -0.396,0.626 -0.041,0.108 -0.004,0.059 -0.024,0.162 -0.012,0.117 0.003,0.01 0.069,0.22 0.057,0.076 0.006,0 0.063,0.045 0.639,0.429 0.019,0.008 0.355,0.023 0.483,-0.023 0.469,-0.053 -1.496,3.096 -1.407,-0.992 -3.177,-0.324 1.018,-1.767 0.596,-2.614 m 4.7,5.107 0.338,-0.153 0.315,0.049 0.068,0.099 0.053,0.383 -0.238,0.149 -0.347,0.059 -0.31,-0.217 0,-0.158 0.121,-0.211 m -7.617,-3.794 2.321,1.301 -1.018,1.767 -0.325,0.519 -1.587,-0.452 0.609,-3.135 m -0.609,3.135 1.587,0.452 -0.951,1.735 -1.266,1.6 -1.167,-0.722 0.282,-2.403 1.515,-0.662 m -2.938,-5.128 1.33,0.735 2.217,1.258 -0.609,3.135 -1.515,0.662 -2.366,-0.202 0.276,-0.473 0.112,-0.108 0.303,-0.299 0.152,-0.278 0.15,-0.351 0.036,-0.208 0.027,-2.46 -0.113,-1.411 z m 2.249,2.933 -0.15,-0.018 -0.084,0.266 -0.018,0.208 0.135,0.523 0.329,0.257 0.419,-1.014 -0.419,-0.207 -0.212,-0.015 m -0.826,2.857 -0.282,2.403 -0.66,1.173 -0.297,0.387 -0.418,-0.089 -0.28,0.738 -0.317,1.14 -2.608,-1.613 0.383,-1.303 0.131,-0.406 0.023,-0.036 0.044,-0.071 0.514,-0.487 0.04,0.067 0.041,0.063 0.032,0.005 0.946,-0.892 0.316,-0.699 0.018,-0.09 0.008,-0.492 2.366,0.202 m -0.282,2.403 1.167,0.722 -0.209,1.785 -0.76,2.149 -0.198,0.749 -0.533,-0.01 -0.157,-0.048 -0.752,-0.304 -0.795,-0.409 0.265,-1.285 0.317,-1.14 0.28,-0.738 0.418,0.089 0.297,-0.387 0.66,-1.173 m 0.958,2.507 1.282,1.013 1.892,2.565 -1.807,0.87 -2.127,-2.299 0.76,-2.149 m -0.958,2.898 0.198,-0.749 2.127,2.299 -0.612,1.262 -3.125,-0.649 1.412,-2.163 m -1.412,2.163 3.125,0.649 1.724,0.355 -0.67,1.809 -1.335,3.019 0.028,0.402 -0.014,0.048 -0.05,0.045 -0.063,0.04 -0.537,0.073 -0.467,0.135 -0.23,0.267 -0.032,0.085 -2.683,-3.664 0.379,-0.329 0.136,-0.239 0,-0.118 -0.117,-0.495 0.058,-0.653 0.063,-0.361 0.685,-1.068 z m 2.232,2.285 -0.217,0.235 -0.058,0.188 -0.032,0.249 0.018,0.108 0.086,0.139 0.122,0.004 0.405,-0.116 0.126,-0.181 0.068,-0.391 -0.063,-0.158 -0.234,-0.1 -0.221,0.023 m -7.243,-7.761 1.843,-0.356 2.608,1.613 -0.265,1.285 0.795,0.409 0.752,0.304 0.157,0.048 0.533,0.01 -1.412,2.163 -0.685,1.068 -1.731,-0.992 -1.532,-0.644 -2.077,-0.995 1.014,-3.913 z m 2.474,3.168 -0.05,0.045 -0.239,0.469 -0.045,0.216 0.086,0.564 0.04,0.036 0.248,-0.073 0.541,-0.477 -0.004,-0.198 -0.149,-0.236 -0.428,-0.346 m -16.811,26.615 0.004,-0.005 0.091,-0.081 0.108,-0.149 0.328,-0.085 0.312,0.053 -0.131,0.375 -0.195,0.342 0.01,0.117 0.014,0.167 -0.095,0.113 -0.203,0.049 -0.271,-0.329 -0.062,-0.117 -0.015,-0.14 0.036,-0.22 0.069,-0.09 m -12.007,3.055 -0.992,0.135 0.509,-1.022 0.337,-0.203 0.263,-0.018 0.171,0.081 0.081,0.252 -0.022,0.279 -0.347,0.496 m 34.118,-16.243 -0.518,2.069 -1.329,0.82 -2.47,-2.52 1.235,-1.708 0.414,-0.212 2.668,1.551 m -19.2,7.536 -0.059,0.049 -0.21,-0.229 -0.087,-0.163 -0.041,-0.148 0.037,-0.145 0.204,-0.216 0.215,-0.145 0.099,-0.017 0.09,-0.014 0.08,-0.026 0.087,-0.069 0.211,0.054 0.091,0.244 -0.081,0.154 -0.384,0.476 -0.252,0.195 m -20.359,4.399 0.014,-0.09 0.199,0.099 0.094,0.093 0.019,0.271 -0.231,0.497 -0.356,0.104 -0.306,-0.267 0.037,-0.226 0.174,-0.319 0.231,-0.145 0.125,-0.017 m 28.129,-0.956 0.074,-0.072 0.526,0.103 0.247,0.663 -0.049,0.23 -0.22,0.122 -0.641,-0.329 -0.193,-0.186 0.211,-0.487 0.045,-0.044 m -2.645,-7.342 -0.027,0.059 -0.009,0.594 0.085,0.149 -0.666,-0.019 -0.06,-0.657 0.677,-0.126 m 0,0 0.022,-0.045 0.437,-0.365 0.663,0.103 0.248,0.135 0.045,0.042 0.05,0.153 -0.178,0.648 -0.192,0.329 -0.179,0.172 -0.092,-0.005 -0.743,-0.306 -0.032,-0.059 -0.085,-0.149 0.009,-0.594 0.027,-0.059 m 9.171,-2.699 -1.009,1.171 -0.622,-0.36 -0.302,-1.311 0.766,-0.232 1.167,0.732 m -4.33,-4.512 -0.312,0.347 -0.162,0.108 -0.18,-0.153 -0.108,-0.353 0.153,-0.219 0.266,-0.078 0.378,0.086 -0.035,0.262 m 0.333,0.306 0,-0.018 0.229,-0.234 0.33,-0.023 0.028,0.383 -0.163,0.55 -0.05,0.095 -0.157,0.171 -0.154,-0.023 -0.158,-0.193 -0.09,-0.514 0.023,-0.113 0.162,-0.081 m 4.074,-5.188 0.039,-0.027 0.264,-0.013 0.143,0.243 0.004,0.073 -0.04,0.284 -0.054,0.136 -0.437,0.12 -0.343,-0.148 -0.063,-0.153 0,-0.06 0.159,-0.243 0.229,-0.226 0.099,0.014 m -1.442,-0.932 0.017,-0.033 0.113,0.033 0.091,0.13 0.094,0.199 -0.013,0.265 -0.068,0.177 -0.189,0.197 -0.366,-0.009 -0.238,-0.117 -0.1,-0.175 0.028,-0.226 0.067,-0.212 0.564,-0.229 m -3.218,-2.285 0.699,-1.009 2.077,0.995 1.532,0.644 1.731,0.992 -0.063,0.361 -0.058,0.653 0.117,0.495 0,0.118 -0.136,0.239 -0.379,0.329 -0.769,1.578 -0.338,0.55 -0.776,-0.038 -0.17,0.042 -0.132,0.072 -0.609,0.37 -0.32,-0.248 -1.721,-0.829 -1.631,-0.848 -0.509,-1.154 0.666,-0.766 0.176,-0.554 -0.037,-0.135 0.045,-0.186 0.519,-1.545 0.086,-0.126 z m 3.218,2.285 -0.564,0.229 -0.067,0.212 -0.028,0.226 0.1,0.175 0.238,0.117 0.366,0.009 0.189,-0.197 0.068,-0.177 0.013,-0.265 -0.094,-0.199 -0.091,-0.13 -0.113,-0.033 -0.017,0.033 z m 1.442,0.932 -0.099,-0.014 -0.229,0.226 -0.159,0.243 0,0.06 0.063,0.153 0.343,0.148 0.437,-0.12 0.054,-0.136 0.04,-0.284 -0.004,-0.073 -0.143,-0.243 -0.264,0.013 -0.039,0.027 m -4.66,-3.217 -0.086,0.126 -0.519,1.545 -0.045,0.186 0.037,0.135 -0.176,0.554 -0.666,0.766 -0.533,-0.148 -1.487,-0.04 -0.469,-0.176 -0.496,-0.231 -0.243,-0.491 0,-0.014 0.005,-0.045 0.617,-0.959 0.266,-0.947 0.05,-0.911 0.017,-1.068 0.997,0.239 0.203,0.09 0.189,0.189 0.612,0.907 1.727,0.293 m 5.52,3.817 2.683,3.664 -1.384,2.641 -0.414,0.212 -0.321,0.008 -0.942,-1.432 -0.265,-0.292 -1.036,-0.938 -0.043,-0.037 -0.688,-0.292 -0.33,0.193 -0.054,-1.153 0.609,-0.37 0.132,-0.072 0.17,-0.042 0.776,0.038 0.338,-0.55 0.769,-1.578 m -2.74,3.727 0.33,-0.193 0.688,0.292 0.043,0.037 1.036,0.938 0.265,0.292 0.942,1.432 0.321,-0.008 -1.235,1.708 -0.587,0.569 -1.167,-0.732 -2.858,-1.486 0.118,0 0.22,-0.181 0.317,-0.316 0.166,-0.225 0.213,-1 0.133,-0.446 0.096,-0.212 0.221,-0.365 0.098,-0.108 0.64,0.004 m -3.726,-3.078 1.631,0.848 1.721,0.829 0.32,0.248 0.054,1.153 -0.64,-0.004 -0.098,0.108 -0.221,0.365 -0.096,0.212 -0.133,0.446 -0.213,1 -0.166,0.225 -0.317,0.316 -0.22,0.181 -0.118,0 -0.422,1.185 -2.268,-2.641 -0.009,-1.429 1.195,-3.042 z m 1.199,3.633 0.035,-0.262 -0.378,-0.086 -0.266,0.078 -0.153,0.219 0.108,0.353 0.18,0.153 0.162,-0.108 0.312,-0.347 z m 0.333,0.306 -0.162,0.081 -0.023,0.113 0.09,0.514 0.158,0.193 0.154,0.023 0.157,-0.171 0.05,-0.095 0.163,-0.55 -0.028,-0.383 -0.33,0.023 -0.229,0.234 0,0.018 m -5.026,-5.688 0.496,0.231 0.469,0.176 1.487,0.04 0.533,0.148 0.509,1.154 -1.195,3.042 -0.356,0.419 -2.046,-0.289 -0.081,-0.054 -0.509,-0.639 -0.023,-0.009 -0.672,0.036 -0.509,0.194 0.698,-1.591 1.199,-2.858 m -1.13,6.161 0.148,-0.134 0.361,0.076 0.049,0.108 0.076,0.621 -0.333,0.267 -0.18,-0.117 -0.138,-0.131 0.017,-0.69 m -0.767,-1.712 0.509,-0.194 0.672,-0.036 0.023,0.009 0.509,0.639 0.081,0.054 2.046,0.289 0.356,-0.419 0.009,1.429 -1.507,-0.238 -0.242,0.288 0.027,0.058 -0.049,0.185 -0.122,0.226 -0.347,0.531 -0.78,0.852 -0.185,0.172 -0.206,-0.054 -0.92,0.918 -0.653,-0.153 -0.181,-0.121 -0.889,-0.695 1.849,-3.74 z m 0.767,1.712 -0.017,0.69 0.138,0.131 0.18,0.117 0.333,-0.267 -0.076,-0.621 -0.049,-0.108 -0.361,-0.076 -0.148,0.134 m 10.153,3.733 0.587,-0.569 2.47,2.52 -0.378,2.487 -1.98,-0.161 -0.284,-0.231 -1.505,-0.392 -0.87,0.19 -0.243,0.302 -0.614,0.828 1.186,-4.163 0.622,0.36 1.009,-1.171 m -4.552,1.351 0.027,-0.144 0.464,-0.095 0.281,0.181 -0.136,0.55 -0.424,0.058 -0.152,-0.062 -0.226,-0.244 0.013,-0.244 0.153,0 m 0.527,-3.569 2.858,1.486 -0.766,0.232 0.302,1.311 -1.186,4.163 -1.491,0.443 -2.952,-1.907 -0.189,-1.068 0.504,-0.639 -0.149,-0.741 0.857,-1.036 0.103,-0.103 0.177,-0.055 0.076,0.023 0.145,0.109 0.185,0.188 0.342,0.023 0.049,-0.018 0.05,-0.041 0.513,-0.839 0.15,-0.346 0.422,-1.185 z m -0.527,3.569 -0.153,0 -0.013,0.244 0.226,0.244 0.152,0.062 0.424,-0.058 0.136,-0.55 -0.281,-0.181 -0.464,0.095 -0.027,0.144 m -2.163,-5.025 2.268,2.641 -0.15,0.346 -0.513,0.839 -0.05,0.041 -0.049,0.018 -0.342,-0.023 -0.185,-0.188 -0.145,-0.109 -0.076,-0.023 -0.177,0.055 -0.103,0.103 -0.857,1.036 0.149,0.741 -0.504,0.639 -2.516,-1.067 0.217,-0.308 0.568,-1.433 -0.758,-0.923 -0.076,-0.176 0.094,-0.135 0.185,-0.172 0.78,-0.852 0.347,-0.531 0.122,-0.226 0.049,-0.185 -0.027,-0.058 0.242,-0.288 1.507,0.238 m -3.205,2.074 -0.094,0.135 0.076,0.176 0.758,0.923 -0.568,1.433 -0.217,0.308 -0.54,0.509 -0.631,0.265 -0.446,0.428 -0.096,0.163 -1.662,0.617 -0.653,-1.316 0.293,-0.248 1.153,-1.019 -0.23,-0.427 0.316,-0.654 0.581,-0.703 0.181,0.121 0.653,0.153 0.92,-0.918 0.206,0.054 m 2.66,5.11 2.952,1.907 -0.054,2.466 -0.96,0.914 -0.527,0.185 -1.759,-0.126 -0.667,0.513 -2.127,-0.666 0.542,-3.399 0.784,-0.725 0.621,0.229 0.225,0.037 0.081,-0.045 0.353,-0.402 0.536,-0.888 m -2.705,-2.135 2.516,1.067 0.189,1.068 -0.536,0.888 -0.353,0.402 -0.081,0.045 -0.225,-0.037 -0.621,-0.229 -0.784,0.725 -0.483,0.207 -0.027,-0.216 -0.361,-1.288 -0.594,-0.61 -0.353,-0.657 0.096,-0.163 0.446,-0.428 0.631,-0.265 0.54,-0.509 z m 0.794,1.324 -0.677,0.126 0.06,0.657 0.666,0.019 0.032,0.059 0.743,0.306 0.092,0.005 0.179,-0.172 0.192,-0.329 0.178,-0.648 -0.05,-0.153 -0.045,-0.042 -0.248,-0.135 -0.663,-0.103 -0.437,0.365 -0.022,0.045 m -0.689,2.605 -0.542,3.399 -1.969,2.478 -2.186,-2.578 0.797,-0.825 0.708,-0.224 0.757,-0.348 0.455,-0.27 0.027,-0.078 0.479,-0.724 0.991,-0.623 0.483,-0.207 m -1.818,-2.564 0.353,0.657 0.594,0.61 0.361,1.288 0.027,0.216 -0.991,0.623 -0.479,0.724 -0.027,0.078 -0.455,0.27 -0.757,0.348 -0.708,0.224 -0.536,-1.18 0.252,-0.195 0.384,-0.476 0.081,-0.154 -0.091,-0.244 -0.211,-0.054 -0.087,0.069 -0.08,0.026 -0.09,0.014 -0.802,-1.041 1.6,-1.186 1.662,-0.617 m -3.262,1.803 0.802,1.041 -0.099,0.017 -0.215,0.145 -0.204,0.216 -0.037,0.145 0.041,0.148 0.087,0.163 0.21,0.229 0.059,-0.049 0.536,1.18 -0.797,0.825 -0.965,0.852 -2.14,-2.213 0.432,-1.045 2.29,-1.654 m -2.908,-1.944 1.001,0.573 1.253,-0.941 0.104,-0.082 1.014,-0.802 0.483,0.694 0.653,1.316 -1.6,1.186 -2.29,1.654 -1.559,-1.668 0.929,-1.948 0.012,0.018 m 2.326,6.856 -2.907,1.42 -2.132,0.906 -1.573,-2.244 0.809,-1.001 0.566,-0.469 1.064,0.059 0.852,-0.324 1.181,-0.56 2.14,2.213 m -5.621,-3.79 2.354,-1.136 1.559,1.668 -0.432,1.045 -1.181,0.56 -0.852,0.324 -1.064,-0.059 -0.566,0.469 -0.809,1.001 -0.698,-0.65 0.293,-0.672 1.131,-1.695 0.265,-0.855 m -0.991,3.872 1.573,2.244 -3.244,2.136 -0.127,0.082 -1.118,-1.875 -1.663,-1.582 0.514,-0.465 0.797,-0.176 1.2,-0.532 0.603,-0.257 0.767,-0.225 0.698,0.65 m -0.591,-4.977 1.582,1.105 -0.265,0.855 -1.131,1.695 -0.293,0.672 -0.767,0.225 -0.603,0.257 -1.2,0.532 -0.797,0.176 -1.578,-2.182 0.257,-0.31 1,-0.645 0.2,-0.554 0.675,0.401 1.181,-0.234 0.032,-0.018 0.442,-0.406 0.008,-0.009 0.883,-0.808 0.374,-0.752 m -6.484,-1.645 0.455,0.271 -0.141,0.063 -0.455,0.41 -0.027,0.086 0.072,0.193 0.87,1.235 0.848,0.739 0.004,0 0.117,0.06 1.146,0.414 -0.2,0.554 -1,0.645 -0.257,0.31 -0.91,0.398 -0.112,0.085 -0.068,0.212 -0.018,0.176 0.004,0.292 -0.09,0.154 -0.383,0.275 -0.654,0.09 -0.076,-0.014 -2.087,-3.088 2.962,-3.56 m 1.432,4.98 1.578,2.182 -0.514,0.465 -1.122,1.004 -1.497,0.735 -1.988,1.826 -1.067,-2.038 0.622,-1.329 1.681,-1.177 0.076,0.014 0.654,-0.09 0.383,-0.275 0.09,-0.154 -0.004,-0.292 0.018,-0.176 0.068,-0.212 0.112,-0.085 0.91,-0.398 m -4.394,-1.42 2.087,3.088 -1.681,1.177 -0.167,0.171 -0.153,0.072 -1.186,-0.698 -0.203,-0.213 -0.784,-1.001 -0.211,-0.964 0.396,-0.284 1.523,-0.859 0.379,-0.489 m -2.298,1.632 0.211,0.964 0.784,1.001 0.203,0.213 1.186,0.698 0.153,-0.072 0.167,-0.171 -0.622,1.329 -1.433,0.127 -0.712,0.121 -0.168,0.055 -1.077,0.766 -0.171,0.301 0,0.14 -1.343,-1.128 0.041,-0.977 2.668,-3.29 0.113,-0.077 z m -0.186,2.89 -0.125,0.017 -0.231,0.145 -0.174,0.319 -0.037,0.226 0.306,0.267 0.356,-0.104 0.231,-0.497 -0.019,-0.271 -0.094,-0.093 -0.199,-0.099 -0.014,0.09 m 30.239,1.04 -3.169,0.533 -0.266,0.045 -0.113,-0.861 -0.185,-0.568 -0.076,-0.135 -0.153,-0.166 -0.266,-0.492 -0.134,-0.699 0,-0.045 0.112,-0.131 0.391,-0.149 0.667,-0.513 1.759,0.126 0.527,-0.185 0.96,-0.914 -0.054,4.154 z m -2.11,-1.996 -0.045,0.044 -0.211,0.487 0.193,0.186 0.641,0.329 0.22,-0.122 0.049,-0.23 -0.247,-0.663 -0.526,-0.103 -0.074,0.072 m -3.876,-1.338 2.127,0.666 -0.391,0.149 -0.112,0.131 0,0.045 0.134,0.699 0.266,0.492 0.153,0.166 0.076,0.135 0.185,0.568 0.113,0.861 -3.938,0.554 -1.762,0.189 -0.231,-0.598 0.046,-0.236 0.138,-0.517 0.055,-0.028 0.117,-0.008 0.347,0.193 0.081,0.014 0.144,-0.069 0.162,-0.13 0.321,-0.798 1.969,-2.478 m -4.155,-0.1 2.186,2.578 -0.321,0.798 -0.162,0.13 -0.144,0.069 -0.081,-0.014 -0.347,-0.193 -0.117,0.008 -0.055,0.028 -0.138,0.517 -0.046,0.236 0.231,0.598 -2.295,0.361 -0.834,-0.902 -0.01,-0.117 0.195,-0.342 0.131,-0.375 -0.312,-0.053 -0.328,0.085 -0.108,0.149 -0.091,0.081 -0.004,0.005 -1.222,-1.375 2.907,-1.42 0.965,-0.852 m -3.872,2.272 1.222,1.375 -0.069,0.09 -0.036,0.22 0.015,0.14 0.062,0.117 0.271,0.329 0.203,-0.049 0.095,-0.113 -0.014,-0.167 0.834,0.902 -0.654,0.068 -4.615,0.559 -3.322,0.334 0.266,-0.353 0.366,-0.41 3.244,-2.136 2.132,-0.906 m -8.284,-0.333 1.663,1.582 1.118,1.875 0.127,-0.082 -0.366,0.41 -1.834,0.248 -0.979,0.117 -0.072,0.302 -2.158,0.311 0.347,-0.496 0.022,-0.279 -0.081,-0.252 -0.171,-0.081 -0.263,0.018 -0.337,0.203 -0.509,1.022 -0.513,0.077 -0.601,-1.41 1.988,-1.826 1.497,-0.735 1.122,-1.004 m -9.235,3.037 0,-0.14 0.171,-0.301 1.077,-0.766 0.168,-0.055 0.712,-0.121 1.433,-0.127 1.067,2.038 0.601,1.41 -3.205,0.478 -2.254,0.32 -1.573,0.216 0.234,-1.104 0.402,-0.365 1.167,-1.483 m 0,0 -1.167,1.483 -0.402,0.365 -0.234,1.104 -4.971,0.627 -2.077,0.23 2.077,-1.114 1.036,-0.554 2.141,-1.212 2.042,-1.686 0.212,-0.371 1.343,1.128 m 53.383,-14.859 0.017,-0.037 0.505,0.247 0.062,0.317 -0.179,0.531 -0.419,-0.108 -0.343,0.023 -0.329,-0.208 0.058,-0.378 0.208,-0.149 0.072,-0.049 0.123,-0.077 0.097,-0.045 0.041,0.009 0.077,-0.054 0.01,-0.022 m 5.011,-0.753 1.605,-0.221 0.789,0.874 -1.47,2.168 -0.906,0.87 -0.271,-0.686 -0.964,-0.67 -0.036,0.048 -0.271,0 -0.824,-0.301 -0.05,-0.032 -0.036,-0.049 -0.004,-0.037 1.477,-2.109 0.961,0.145 m 2.934,-0.487 1.875,1.195 0.668,1.401 -0.077,0.229 -0.077,0 -0.117,-0.053 -2.29,-1.51 -0.086,-0.082 -0.072,-0.73 0.176,-0.45 m -10.713,1.484 2.14,0.143 -0.058,0.378 0.329,0.208 0.343,-0.023 0.455,2.267 -1.925,1.903 -0.432,-0.136 -2.565,-0.748 0.437,-2.786 1.276,-1.206 m -5.54,2.982 -0.347,-2.262 4.611,0.486 -0.437,2.786 -1.226,-0.216 -2.601,-0.794 m 0.262,-4.474 0.103,0.102 0.222,-0.021 0.26,-0.163 0.363,-0.325 0.414,-0.28 0.643,-0.058 0.271,0.037 0.045,0.031 0.329,0.27 0.207,0.343 -0.18,0.031 -0.018,0.023 0.05,0.437 0.054,0.221 1.369,0.987 0.069,0.023 0.121,-0.005 0.054,-0.031 0.013,-0.028 -0.009,-0.176 0.181,-0.234 0.05,-0.022 0.432,0.013 0.235,0.317 -1.276,1.206 -4.611,-0.486 -0.213,-0.911 0.822,-1.301 m -0.262,4.474 2.601,0.794 0.361,3.172 -4.963,-0.564 0.05,-2.496 1.951,-0.906 m -6.07,0.005 1.329,-0.82 2.79,1.721 -0.05,2.496 -1.108,2.764 -0.199,-0.081 -0.327,-0.365 -0.011,-0.027 -0.041,-1.239 -0.896,-1.38 -1.865,-0.582 0.378,-2.487 m 5.51,-3.178 0.213,0.911 0.347,2.262 -1.951,0.906 -2.79,-1.721 0.518,-2.069 1.434,0.504 2.229,-0.793 m 22.423,-6.926 0.975,-0.29 0.569,0.23 0.053,0.523 -0.081,0.135 -0.059,0.041 -0.014,0.031 0.041,0.095 0.068,0.046 0.883,-0.068 0.514,-0.23 0.049,0.094 0.005,0.212 -0.677,3.362 -0.102,0.19 -0.113,0.199 -0.003,0.013 -0.443,0.685 -0.015,0.027 -0.073,0.098 -0.08,0.072 -0.057,0 -0.614,-0.053 -0.64,-0.879 -0.266,-0.635 -0.062,-0.406 -0.032,-0.378 0.004,-0.185 0.049,-1.371 0.045,-0.888 0.032,-0.293 0.044,-0.377 m -2.96,9.279 0.605,-0.405 0.806,1.122 -0.982,0.379 -0.447,-0.672 0.018,-0.424 m 1.411,0.717 0.59,-0.366 1.82,3.458 -1.919,0.405 -1.792,0.379 -0.128,-4.169 0.447,0.672 0.982,-0.379 m -11.732,-4.107 0.5,-0.107 0.05,-0.005 0.297,0.158 0.104,0.112 -0.068,0.253 -0.405,0.328 -0.256,-0.188 -0.222,-0.551 m -0.694,1.222 -0.18,-0.333 -0.046,-0.207 0.072,-0.123 0.172,-0.202 0.221,-0.031 0.126,0.103 0.018,0.135 -0.022,0.073 0.059,0.347 -0.01,0.022 -0.077,0.054 -0.041,-0.009 -0.097,0.045 -0.123,0.077 -0.072,0.049 m 6.351,5.657 0.306,0.725 -0.005,0.023 -0.565,0.153 -0.251,-0.31 -0.086,-0.321 0.01,-0.189 0.135,-0.072 0.217,0.009 0.239,-0.018 m -5.918,1.18 0.108,0.38 -0.014,0.174 -0.411,0.267 -0.242,-0.032 -0.163,-0.423 -0.013,-0.087 0.067,-0.171 0.464,-0.202 0.118,0.009 0.086,0.085 m -18.092,5.59 -1.289,0.229 -0.28,-0.487 -0.355,-0.216 0.004,-0.041 0.085,-0.139 0.266,-0.334 1.299,-0.203 0.567,0.595 0.036,0.108 -0.031,0.068 -0.302,0.42 m 8.389,-16.722 0.04,0.721 -0.668,1.907 -0.779,2.275 -1.434,-0.504 -2.668,-1.551 1.384,-2.641 0.032,-0.085 0.23,-0.267 0.467,-0.135 0.537,-0.073 0.063,-0.04 0.05,-0.045 0.014,-0.048 -0.028,-0.402 2.76,0.888 m 0,0 0.661,-0.888 1.086,0.996 -0.103,2.701 -0.822,1.301 -2.229,0.793 0.779,-2.275 0.668,-1.907 -0.04,-0.721 m 6.146,0.515 -1.645,2.23 -0.207,-0.343 -0.329,-0.27 -0.045,-0.031 -0.271,-0.037 -0.643,0.058 -0.414,0.28 -0.363,0.325 -0.26,0.163 -0.222,0.021 -0.103,-0.102 0.103,-2.701 0.108,0.094 0.857,0.154 0.081,-0.005 0.167,-0.044 0.076,-0.063 0.032,-0.068 0.009,-0.063 1.244,-0.036 1.212,0.202 0.613,0.236 m 0,0 0.595,-0.028 0.352,0.576 0.622,0.736 1.046,-0.271 1.864,0.504 -0.048,0.807 -0.113,0.127 -0.5,0.107 -0.257,0.947 -0.017,0.037 -0.059,-0.347 0.022,-0.073 -0.018,-0.135 -0.126,-0.103 -0.221,0.031 -0.172,0.202 -0.072,0.123 0.046,0.207 0.18,0.333 -0.208,0.149 -2.14,-0.143 -0.235,-0.317 -0.432,-0.013 -0.05,0.022 -0.181,0.234 0.009,0.176 -0.013,0.028 -0.054,0.031 -0.121,0.005 -0.069,-0.023 -1.369,-0.987 -0.054,-0.221 -0.05,-0.437 0.018,-0.023 0.18,-0.031 1.645,-2.23 m 10.781,1.973 0.014,0.059 -0.108,0.085 -0.185,0.063 -0.342,0.04 -0.217,-0.012 -0.112,-0.095 -0.077,-0.104 -0.108,-0.613 0.212,-0.198 0.085,0.112 0.054,0.064 0.302,0.018 0.118,-0.032 0.27,0.229 0.094,0.384 m -1.456,-2.579 0.388,0.393 0.672,0.541 -0.442,0.982 -0.085,-0.112 -0.212,0.198 0.108,0.613 0.077,0.104 0.112,0.095 0.217,0.012 0.342,-0.04 0.185,-0.063 0.108,-0.085 -0.014,-0.059 0.708,0.329 -0.176,0.45 -1.153,-0.184 -1.605,0.221 -0.613,-1.925 1.383,-1.47 m 4.418,3.873 -0.19,-0.731 0.028,-0.212 -0.019,-0.175 -0.009,-0.051 0.595,-0.066 0.505,0.48 0.127,0.38 -1.037,0.375 m -3.8,-1.957 0.442,-0.982 1.96,1.441 -0.031,0.101 0.121,0.09 0.244,0.072 0.753,-0.28 0.049,0.023 0.072,0.323 0.009,0.051 0.019,0.175 -0.028,0.212 0.19,0.731 -0.379,0.23 -1.875,-1.195 -0.708,-0.329 -0.094,-0.384 -0.27,-0.229 -0.118,0.032 -0.302,-0.018 -0.054,-0.064 m 3.8,1.957 1.037,-0.375 0.648,1.032 -0.405,0.695 -0.991,0.279 -0.668,-1.401 0.379,-0.23 m 2.574,1.793 1.505,-0.338 0.202,-0.027 0.068,0.01 0.13,0.061 0.077,0.132 2.068,3.903 0.164,0.406 -2.571,0.55 -1.82,-3.458 0.415,-0.297 -0.238,-0.942 m 0,0 0.238,0.942 -0.415,0.297 -0.59,0.366 -0.806,-1.122 1.573,-0.483 m -2.178,0.888 -0.018,0.424 0.128,4.169 -0.506,0.108 -3.755,0.856 -0.018,0.004 -0.058,-1.315 2.948,-4.21 0.04,-0.023 0.441,-0.174 0.798,0.161 m -4.664,3.489 0.004,-3.827 1.47,-2.168 2.392,2.345 -0.441,0.174 -0.04,0.023 -2.948,4.21 -0.131,-0.032 -0.306,-0.725 m -5.157,-6.986 0.113,-0.127 3.163,0.32 -1.477,2.109 -2.132,2.006 -0.455,-2.267 0.419,0.108 0.179,-0.531 -0.062,-0.317 -0.505,-0.247 0.257,-0.947 0.222,0.551 0.256,0.188 0.405,-0.328 0.068,-0.253 -0.104,-0.112 -0.297,-0.158 -0.05,0.005 m 5.157,6.986 -0.239,0.018 -0.217,-0.009 -0.135,0.072 -0.01,0.189 0.086,0.321 0.251,0.31 0.565,-0.153 0.005,-0.023 0.131,0.032 0.058,1.315 -2.497,0.469 -1.325,0.289 -1.762,-1.807 4.187,-3.98 0.906,-0.87 -0.004,3.827 m -3.358,-4.684 0.004,0.037 0.036,0.049 0.05,0.032 0.824,0.301 0.271,0 0.036,-0.048 0.964,0.67 0.271,0.686 -4.187,3.98 -0.636,-0.054 -0.982,-1.451 -0.708,-0.293 1.925,-1.903 2.132,-2.006 m -8.28,2.809 1.226,0.216 2.565,0.748 0.473,2.304 -0.708,2.375 -1.338,0.256 -1.479,0.293 -0.378,-3.02 -0.361,-3.172 m 6.549,2.898 1.762,1.807 -4.755,0.938 0.708,-2.375 -0.473,-2.304 0.432,0.136 0.708,0.293 0.982,1.451 0.636,0.054 z m -0.829,0.157 -0.086,-0.085 -0.118,-0.009 -0.464,0.202 -0.067,0.171 0.013,0.087 0.163,0.423 0.242,0.032 0.411,-0.267 0.014,-0.174 -0.108,-0.38 m -5.359,0.117 0.378,3.02 -2.803,0.537 -1.343,0.27 -2.804,0.523 0.501,-2.15 1.108,-2.764 4.963,0.564 m -11.39,-1.635 1.98,0.161 1.865,0.582 0.896,1.38 0.041,1.239 0.011,0.027 0.327,0.365 0.199,0.081 -0.501,2.15 -0.626,0.122 -3.462,0.626 -0.815,0.144 0.085,-6.877 m -3.516,0.697 0.614,-0.828 0.243,-0.302 0.87,-0.19 1.505,0.392 0.284,0.231 -0.085,6.877 -1.258,0.231 0.302,-0.42 0.031,-0.068 -0.036,-0.108 -0.567,-0.595 -1.299,0.203 -0.266,0.334 -0.085,0.139 -0.004,0.041 0.355,0.216 0.28,0.487 -0.41,0.076 -2.073,0.347 0.054,-4.154 0.054,-2.466 1.491,-0.443 m -10.537,-45.84 0.004,0.008 0.393,2.903 0.027,0.208 -0.009,0.066 -0.514,2.602 -0.09,0.229 -0.478,0.324 -1.042,-0.278 -2.266,-0.942 -2.02,-1.573 1.07,-1.438 0.711,-0.658 -0.167,-0.771 4.381,-0.68 m 4.021,-3.899 3.925,-0.636 0.454,2.312 -0.891,4.504 -1.763,0.112 -2.37,-0.144 -0.643,-0.257 -0.024,-0.023 -0.135,-0.42 0.067,-0.169 0.546,-1.119 1.144,-2.424 -0.31,-1.736 m 4.379,1.676 4.314,-0.802 -1.639,5.562 -0.167,1.14 -0.879,0.162 -1.263,0.19 -0.193,-0.274 -0.338,-0.141 -1.248,0.225 0.522,-1.558 0.891,-4.504 m -4.696,-3.457 0.317,1.781 0.31,1.736 -1.144,2.424 -0.546,1.119 -2.637,-1.372 -0.004,-0.008 -1.09,-6.418 0.247,0.87 0.032,0.117 0.225,0.527 1.041,0.658 0.203,0.031 0.289,0.023 0.18,-0.054 0.694,-0.249 1.037,-0.418 0.846,-0.767 m -4.794,-0.738 1.09,6.418 -4.381,0.68 -0.482,-2.294 0.126,-2.848 0.703,-1.465 2.899,-0.514 0.045,0.023 m -7.211,5.424 3.438,-0.62 0.482,2.294 0.167,0.771 -0.711,0.658 -1.07,1.438 -1.518,0.252 -0.342,-2.069 -0.446,-2.724 m 10.942,2.374 -0.067,0.169 0.135,0.42 0.024,0.023 0.643,0.257 2.37,0.144 1.763,-0.112 -0.522,1.558 -1.732,3.54 -1.689,-0.884 -0.1,-0.052 -0.243,-0.062 -0.235,0.069 -2.284,0.566 -1.281,0.239 -0.09,-0.915 0.478,-0.324 0.09,-0.229 0.514,-2.602 0.009,-0.066 -0.027,-0.208 -0.393,-2.903 2.637,1.372 m -8.636,2.167 2.02,1.573 2.266,0.942 1.042,0.278 0.09,0.915 -0.851,2.039 -1.827,-0.005 -1.078,0.008 -0.112,0.014 -1.986,1.091 -0.413,-2.528 -0.498,-3.07 -0.171,-1.005 1.518,-0.252 m 16.903,0.13 -0.375,2.362 0.406,3.178 -0.028,0.373 -0.229,1.005 -5.656,1.033 -0.208,-0.14 -0.338,-1.51 0.077,-0.631 0.45,-1.302 0.248,-0.666 1.732,-3.54 1.248,-0.225 0.338,0.141 0.193,0.274 1.263,-0.19 0.879,-0.162 m -11.485,3.578 1.281,-0.239 2.284,-0.566 0.235,-0.069 0.243,0.062 0.1,0.052 1.689,0.884 -0.248,0.666 -0.45,1.302 -0.077,0.631 0.338,1.51 0.208,0.14 -0.821,0.148 -2.791,0.492 -1.477,0.252 -1.365,-3.226 0.851,-2.039 m -5.854,3.147 1.986,-1.091 0.112,-0.014 1.078,-0.008 1.827,0.005 1.365,3.226 -4.908,0.82 -0.955,0.154 -0.505,-3.092 m 49.46,-10.885 1.05,0.96 0.941,1.262 -1.783,1.248 -1.835,-0.066 1.627,-3.404 m -3.713,-1.524 0.55,-0.062 1,0.409 0.032,0.041 0.102,0.135 0.952,0.753 1.077,0.248 -1.627,3.404 -1.536,1.87 -3.345,0.716 0.567,-0.73 0.127,-0.338 0.154,-0.568 0.098,-0.699 -0.126,-0.346 -0.049,-0.226 -0.036,-0.329 0.063,-2.073 0.591,-0.509 1.406,-1.696 m 1.541,-2.686 5.268,2.57 -0.996,1.095 -0.549,-0.365 -0.554,0.852 0.513,0.396 -0.46,0.622 -1.05,-0.96 -1.077,-0.248 -0.952,-0.753 -0.102,-0.135 -0.032,-0.041 -1,-0.409 -0.55,0.062 1.027,-2.955 0.514,0.269 m 2.304,-2.812 1.383,0.564 0.73,1.469 0.937,0.568 0.064,0.036 2.6,1.997 -2.114,1.789 -0.636,-1.041 -5.268,-2.57 1.099,-1.815 1.1,-1.2 0.105,0.203 m 3.6,6.423 -0.622,0.906 -0.734,1.365 -0.385,0.55 -0.941,-1.262 0.46,-0.622 -0.513,-0.396 0.554,-0.852 0.549,0.365 0.996,-1.095 0.636,1.041 m -34.185,-8.6 1.396,-0.085 0.677,0.707 0.094,1.527 0.013,0.308 -0.116,0.802 -0.051,0.058 -0.54,0.222 -0.46,0.405 -0.108,0.121 -1.086,2.257 0.013,0.042 0.168,0.207 0.138,0.086 -4.314,0.802 -0.454,-2.312 -0.481,-2.664 -0.011,-0.373 0.005,-0.028 0.162,-0.793 0.537,-0.085 0.496,-0.689 0.847,-0.172 3.075,-0.343 m -9.453,0.396 1.06,-0.305 0.188,-0.199 1.051,-0.307 2.353,0.879 0.315,0.375 0.068,0.365 -0.537,0.085 -0.162,0.793 -0.005,0.028 0.011,0.373 0.481,2.664 -3.925,0.636 -0.317,-1.781 -0.581,-3.606 m -2.671,-0.243 0.733,-0.131 -0.108,-0.634 0.397,-0.073 1.442,-0.185 0.207,1.266 0.581,3.606 -0.846,0.767 -1.037,0.418 -0.694,0.249 -0.18,0.054 -0.289,-0.023 -0.203,-0.031 -1.041,-0.658 -0.225,-0.527 -0.032,-0.117 -0.247,-0.87 -0.045,-0.023 0.247,-1.104 0.161,-0.338 0.181,-0.271 0.438,-0.414 0.1,-0.017 0.567,-0.295 -0.107,-0.649 m -5.189,5.067 -0.126,2.848 -3.438,0.62 -0.114,-0.62 -0.465,-2.889 2.48,-0.447 1.077,0.005 0.586,0.483 m 14.698,-9.641 1.996,-0.586 2.37,1.442 -0.355,3.48 -1.396,0.085 -0.205,-1.193 -0.374,-1.002 -1.572,0.293 -0.464,-2.519 m -5.116,0.658 1.208,-0.207 1.465,-0.299 0.491,-0.129 1.28,-0.262 0.672,0.239 0.464,2.519 1.572,-0.293 0.374,1.002 0.205,1.193 -3.075,0.343 -0.847,0.172 -0.496,0.689 -0.068,-0.365 -0.315,-0.375 -2.353,-0.879 -1.051,0.307 -0.188,0.199 -0.178,-1.055 0.218,-0.437 0.825,-0.127 0.081,-0.495 -0.284,-1.74 m -5.255,0.928 5.255,-0.928 0.284,1.74 -0.081,0.495 -0.825,0.127 -0.218,0.437 0.178,1.055 -1.06,0.305 -0.207,-1.266 -1.442,0.185 -0.397,0.073 0.108,0.634 -0.733,0.131 -0.127,-0.689 -0.46,-0.794 -0.275,-1.505 m 0,0 0.275,1.505 0.46,0.794 0.127,0.689 0.107,0.649 -0.567,0.295 -0.1,0.017 -0.438,0.414 -0.181,0.271 -0.161,0.338 -0.247,1.104 -2.899,0.514 -0.694,-4.074 0.343,-0.366 1.027,-1.343 2.015,-0.545 -0.018,-0.085 0.951,-0.177 m -9.239,3.354 4.921,-0.838 0.694,4.074 -0.703,1.465 -0.586,-0.483 -1.077,-0.005 -2.48,0.447 -0.017,-0.104 -0.752,-4.556 m 19.706,-10.2 0.949,-0.188 0.951,4.862 -1.996,0.586 -0.672,-0.239 -1.28,0.262 -0.491,0.129 -1.465,0.299 -1.208,0.207 -0.41,-2.65 0.258,-0.055 0.026,-0.134 -0.257,-1.434 -0.135,-0.568 0.415,-0.072 2.604,-0.506 2.711,-0.499 m -7.069,1.303 1.339,-0.226 0.135,0.568 0.257,1.434 -0.026,0.134 -0.258,0.055 0.41,2.65 -5.255,0.928 -0.951,0.177 -0.496,-2.894 -0.311,-1.912 5.156,-0.914 m -4.845,2.826 0.496,2.894 0.018,0.085 -2.015,0.545 -1.027,1.343 -0.343,0.366 -4.921,0.838 -0.024,-0.14 -0.734,-4.48 5.742,-0.978 2.142,-0.385 0.666,-0.088 m -0.311,-1.912 0.311,1.912 -0.666,0.088 -2.142,0.385 -5.742,0.978 -0.268,-1.636 1.657,-1.045 2.185,-1.812 1.731,-1.416 0.91,-0.667 0.055,0.342 0.248,1.43 0.297,1.689 1.28,-0.221 0.144,-0.027 m 25.916,25.289 2.342,-0.464 -0.387,1.041 0.817,0.741 1.208,0.883 0.009,0.027 -0.036,0.396 -0.203,1.479 -0.008,0.009 -2.48,2.267 -2.393,-0.839 0.184,-1.762 0.023,-1.208 0.078,-0.938 0.025,-0.14 0.353,-0.228 0.081,-0.137 0.148,-0.4 0.145,-0.708 0.094,-0.019 m 6.491,-1.316 -0.181,2.547 -0.157,1.019 0.383,1.343 -2.786,0.51 0.203,-1.479 0.036,-0.396 -0.009,-0.027 -1.208,-0.883 -0.817,-0.741 0.387,-1.041 2.097,-0.424 2.052,-0.428 m 0,0 2.099,-0.437 0.325,1.348 0.095,0.225 0.405,0.605 0.262,0.207 0.202,-0.041 0.582,0.176 0.59,0.446 0.884,1.051 0.049,0.116 -0.049,0 -0.167,0.077 -0.234,0.78 -0.098,0.563 0.17,0.086 0.056,-0.019 -0.011,0.095 -0.031,0.105 -0.267,0.45 -0.139,0.167 -0.608,-0.059 -0.284,-0.055 -0.019,-0.002 -0.009,-1.539 -1.856,0 0.188,1.222 0.767,0.253 -0.713,0.459 -2.144,-1.37 -0.383,-1.343 0.157,-1.019 0.181,-2.547 m 5.277,-1.103 0.063,-0.013 2.004,1.942 0.385,1.127 0.014,0.058 -0.965,1.135 -0.379,0.448 -0.406,0.445 -0.266,-0.175 -0.234,-0.168 -0.049,-0.116 -0.884,-1.051 -0.59,-0.446 -0.582,-0.176 -0.202,0.041 -0.262,-0.207 -0.405,-0.605 -0.095,-0.225 -0.325,-1.348 3.178,-0.666 m -5.232,6.012 2.144,1.37 -1.095,1.694 -0.536,-0.269 -0.162,0.121 -0.424,0.023 -0.113,-0.036 -2.068,-1.407 -0.474,-0.486 -0.198,-0.258 -0.009,-0.03 0.018,-0.069 0.123,-0.134 0.008,-0.009 2.786,-0.51 m 3.767,0.975 0.019,0.002 1.198,1.141 0.586,1.077 0.067,0.14 -0.359,1.006 -0.249,0.797 -0.365,1.635 0.087,0.286 0.066,0.113 0.289,0.238 -0.686,0.03 -0.374,-0.536 -0.248,0.028 -0.27,0.234 -0.049,0.108 -0.365,-2.149 -0.37,-0.825 -1.695,-1.236 1.095,-1.694 0.713,-0.459 0.91,0.064 m 0,0 -0.91,-0.064 -0.767,-0.253 -0.188,-1.222 1.856,0 0.009,1.539 m 3.597,11.204 -3.114,-1.764 -0.109,-0.459 -0.662,-2.682 0.049,-0.108 0.27,-0.234 0.248,-0.028 0.374,0.536 0.686,-0.03 0.004,0.171 0.059,0.27 0.513,1.745 0.046,0.126 0.157,0.289 0.19,0.252 0.446,0.324 0.834,0.672 0.036,0.067 0.045,0.267 -0.072,0.586 m -20.093,-14.599 6.099,-1.154 -0.145,0.708 -0.148,0.4 -0.081,0.137 -0.353,0.228 -0.025,0.14 -0.078,0.938 -0.023,1.208 -0.184,1.762 -0.387,0.045 -1.461,-2.006 -2.228,-1.23 -0.166,-0.184 -0.45,-0.326 -0.361,-0.135 -0.364,-0.04 -0.334,-0.009 -0.059,0.022 -0.068,0.077 -0.256,0.405 -0.348,0.641 -0.117,0.014 -0.523,-0.104 -0.301,-1.091 2.361,-0.446 m -8.061,1.496 -0.782,3.426 -1.834,2.213 -1.614,1.937 -1.059,-6.612 0.821,-0.148 4.468,-0.816 m 5.334,-0.982 0.366,-0.068 0.301,1.091 -1.032,1.767 -1.879,0.103 -1.19,-0.473 -1.618,2.227 -1.064,-0.239 0.782,-3.426 1.188,-0.217 4.146,-0.765 m 32.903,10.134 2.861,-0.625 0.05,0.473 0.004,0.338 -0.009,0.461 -0.04,0.419 -0.393,2.957 -0.026,0.181 -0.032,0.125 -0.056,0.207 -0.033,0.149 -0.159,0.495 -3.672,1.249 0.558,-1.392 -0.316,-1.155 -0.918,-1.094 2.41,-0.681 0.302,-0.667 0.05,-0.303 -0.217,-0.607 -0.364,-0.53 m -3.831,-0.606 0.135,0.486 0.108,0.369 0.116,0.407 0.303,-0.05 0.689,-0.117 0.036,-0.004 0.293,-0.055 0.586,-0.112 0.206,-0.041 0.502,-0.094 0.037,-0.006 0.137,-0.027 0.159,-0.03 0.379,-0.086 0.145,-0.034 0.364,0.53 0.217,0.607 -0.05,0.303 -0.302,0.667 -2.41,0.681 -2.362,1.049 -0.587,-0.203 0.019,-0.968 0.306,-2.001 0.063,-0.118 0.208,-0.117 0.233,-0.212 0.47,-0.824 m -3.395,-4.025 0.095,0.306 -0.12,1.839 -0.101,0.405 0.032,0.045 0.527,0.443 0.27,0.062 -1.906,0.951 0.031,-0.058 -0.139,-0.253 -1.019,-0.811 -0.167,0.019 -0.545,0.193 -0.032,0.023 -0.103,0.238 0,0.131 0.158,0.149 0.017,0.131 -0.153,0.139 -0.112,-0.171 -0.114,-0.852 0.009,-0.28 0.192,-0.747 0.021,-0.032 0.261,-0.311 0.699,-0.054 2.199,-1.505 m 2.683,8.468 2.362,-1.049 0.918,1.094 0.316,1.155 -0.558,1.392 -0.33,0.645 -1.186,-0.032 -0.874,-1.952 -0.648,-1.253 m -1.818,2.001 0.33,-0.116 0.126,-0.262 0.054,-0.256 0.14,0.328 0.143,0.424 0.073,0.23 -0.045,0.071 -0.109,0.045 -0.148,-0.045 -0.274,-0.197 -0.29,-0.222 m 0.8,2.001 -0.109,-0.374 -0.077,-0.4 -0.006,-0.14 0.028,-0.094 0.185,-0.131 0.077,-0.028 0.09,0.023 0.329,0.139 0.067,0.055 0.023,0.121 -0.131,0.06 -0.022,0.391 0.067,0.271 0.018,0.243 -0.027,0.247 -0.271,0.077 -0.179,-0.179 -0.062,-0.281 m -1.665,-12.47 -2.199,1.505 -0.312,-3.304 0.672,-1.686 0.383,-0.486 0.329,-0.144 0.821,-0.231 1.289,-0.22 0.36,1.284 -1.343,3.282 m -1.753,-5.665 2.272,-0.546 0.284,1.009 0.18,0.636 -1.289,0.22 -0.821,0.231 -0.329,0.144 -0.383,0.486 -0.672,1.686 -0.418,0.199 -0.307,-0.009 -0.586,-0.599 -0.014,-0.262 0.036,-0.207 0.415,-1.93 0.113,-0.193 0.473,-0.636 1.046,-0.229 m 2.456,8.765 2.43,-0.009 0.262,0.934 -0.47,0.824 -0.233,0.212 -0.208,0.117 -0.063,0.118 -0.306,2.001 -0.019,0.968 -1.172,0.356 -1.366,0.204 -0.139,-0.045 -0.775,-0.473 -0.045,-0.033 -0.14,-0.252 -0.613,-1.204 -0.32,-0.707 0.083,-1.496 0.056,-0.095 0.222,-0.189 0.09,-0.05 0.82,-0.23 1.906,-0.951 m 0.162,7.369 -0.022,-0.018 -0.009,0.006 -0.086,-0.149 -0.072,-0.253 -0.072,-0.537 0.14,-0.171 0.221,-0.05 0.333,0.271 0.019,0.077 0.058,0.19 -0.054,0.256 -0.126,0.262 -0.33,0.116 m -4.849,-20.295 3.345,-0.716 1.158,4.331 -2.272,0.546 -1.169,-2.015 -2.004,-1.942 0.942,-0.204 m 3.984,9.826 1.343,-3.282 1.79,6.373 -2.43,0.009 -0.27,-0.062 -0.527,-0.443 -0.032,-0.045 0.101,-0.405 0.12,-1.839 -0.095,-0.306 m 3.133,3.091 -0.686,-2.443 1.359,-0.355 0.563,-0.51 0.034,-0.194 0.164,-0.387 0.784,-0.559 0.752,-0.419 0.081,0.347 0.108,0.13 0.898,0.718 0.508,0.387 0.357,0.139 0.266,0.05 0.198,-0.054 0.139,-0.108 0.023,-0.077 0.252,0.527 0.604,1.764 0.442,1.518 0.108,0.441 -2.861,0.625 -0.145,0.034 -0.379,0.086 -0.159,0.03 -0.137,0.027 -0.037,0.006 -0.502,0.094 -0.206,0.041 -0.586,0.112 -0.293,0.055 -0.036,0.004 -0.689,0.117 -0.303,0.05 -0.116,-0.407 -0.108,-0.369 -0.135,-0.486 -0.262,-0.934 m -0.64,-15.013 -0.352,1.249 -0.207,-0.04 -0.438,0.648 -0.17,0.433 0,0.066 0.035,0.122 0.045,0.11 0.509,1.234 1.096,1.501 -2.208,1.397 -0.284,-1.009 -1.158,-4.331 1.536,-1.87 1.835,0.066 -0.239,0.424 m -1.69,6.72 2.208,-1.397 0.852,0.505 0.433,0.555 0.081,0.117 0.238,0.612 0.028,0.212 0.991,2.02 0.469,0.802 -0.752,0.419 -0.784,0.559 -0.164,0.387 -0.034,0.194 -0.563,0.51 -1.359,0.355 -1.464,-5.214 -0.18,-0.636 m -13.865,-10.798 0.795,1.198 -0.429,0.599 -1.186,0.992 -0.658,0.947 -0.243,0.369 -0.348,0.317 -0.675,0.279 -1.104,0.509 -0.532,0.761 -0.383,-0.73 -1.465,-1.672 -0.262,-0.415 0.104,-0.161 0.113,0.161 1.776,-1.303 3.525,-1.324 0.428,-0.162 0.544,-0.365 m -0.36,-7.261 -0.094,0.595 -0.104,1.135 0.081,0.343 -0.018,0.225 -0.045,0.172 -0.073,0.166 -0.359,0.64 -0.076,0.09 -0.032,-0.095 -0.055,-0.045 -0.991,-0.175 -0.676,-0.027 -0.375,0.226 -1.339,0.089 -0.941,-1.321 0.386,-0.233 2.108,-1.06 1.247,-0.532 1.036,-0.211 0.32,0.018 m -1.582,-3.084 1.465,-0.738 0.09,1.618 -0.094,1.343 0.022,0.027 0.538,-0.216 0.656,-0.316 0.289,0 0.207,0.117 0.992,0.707 1.69,1.069 -2.749,2.132 -0.405,0.126 -1.114,0.739 -0.447,0.176 -0.045,0.018 -0.112,-0.028 -0.157,-0.17 0.068,-0.154 0.076,-0.09 0.359,-0.64 0.073,-0.166 0.045,-0.172 0.018,-0.225 -0.081,-0.343 0.104,-1.135 0.094,-0.595 -0.253,-0.067 -0.323,-0.24 -0.316,-0.42 -0.113,-0.229 0.012,-0.162 -0.35,-1.412 -0.239,-0.554 m -2.519,-10.915 1.542,5.053 -0.044,0.107 -0.647,0.633 -2.167,0.512 -3.831,0.803 -1.235,-5.805 6.021,-1.223 0.361,-0.08 m -6.382,1.303 1.235,5.805 0.175,0.811 -3.683,0.761 -2.37,-1.442 -0.951,-4.862 4.282,-0.808 1.312,-0.265 m 8.514,3.712 5.706,-0.548 -0.15,2.216 -0.081,0.929 -1.203,0.69 -0.995,-0.023 -0.446,-0.058 -1.763,-0.993 -1.068,-2.213 m 1.852,5.162 0.915,0.032 0.442,0.959 0.496,0.194 0.748,1.091 0.081,0.166 0.018,0.838 -0.992,-0.707 -0.207,-0.117 -0.289,0 -0.656,0.316 -0.538,0.216 -0.022,-0.027 0.094,-1.343 -0.09,-1.618 m -2.442,-5.124 0.59,-0.038 1.068,2.213 1.763,0.993 0.446,0.058 0.995,0.023 -1.505,1.907 -0.915,-0.032 -1.465,0.738 -0.627,-0.003 -0.012,0.815 -1.525,0.554 -0.188,0.041 -3.223,-2.263 -1.149,-1.024 -0.667,-0.643 -0.1,-0.473 -0.175,-0.811 3.831,-0.803 2.167,-0.512 0.647,-0.633 0.044,-0.107 m -6.514,2.866 0.1,0.473 0.667,0.643 1.149,1.024 3.223,2.263 0.188,-0.041 0.069,0.32 -1.727,1.081 -1.532,0.64 -0.888,-0.941 -0.148,-0.292 -0.357,-0.19 -3.295,-0.934 -0.81,0.902 -0.677,-0.707 0.355,-3.48 3.683,-0.761 m 5.327,4.362 1.525,-0.554 0.012,-0.815 0.627,0.003 0.239,0.554 0.35,1.412 -0.012,0.162 0.113,0.229 0.316,0.42 0.323,0.24 0.253,0.067 -0.32,-0.018 -1.036,0.211 -1.247,0.532 -2.108,1.06 -0.386,0.233 -0.167,-0.496 0.658,-0.986 0.486,-1.163 0.443,-0.771 -0.069,-0.32 m -8.688,0.586 0.81,-0.902 3.295,0.934 0.357,0.19 0.148,0.292 0.888,0.941 1.532,-0.64 1.727,-1.081 -0.443,0.771 -0.486,1.163 -0.658,0.986 -2.732,2.092 -0.241,0.253 -2.174,0.721 -1.754,-0.293 -2.342,0.522 -0.168,-0.207 -0.013,-0.042 1.086,-2.257 0.108,-0.121 0.46,-0.405 0.54,-0.222 0.051,-0.058 0.116,-0.802 -0.013,-0.308 -0.094,-1.527 m 13.958,3.791 1.856,0.979 -1.149,1.305 1.771,3.336 0.032,-0.022 -1.293,1.284 -1.586,-1.082 -0.795,-1.198 -0.982,-0.19 -0.145,-0.076 -0.13,-0.244 -0.009,-0.045 0.072,-2.601 0.078,-0.585 0.157,0.17 0.112,0.028 0.045,-0.018 0.447,-0.176 1.114,-0.739 0.405,-0.126 m -1.164,4.602 -0.544,0.365 -0.428,0.162 -3.525,1.324 -1.776,1.303 -0.113,-0.161 -0.783,-1.046 0.161,-0.32 0.825,-1.321 0.726,-0.735 1.37,-1.262 1.032,-0.793 1.939,-1.257 -0.078,0.585 -0.072,2.601 0.009,0.045 0.13,0.244 0.145,0.076 0.982,0.19 m -1.048,-3.895 -0.068,0.154 -1.939,1.257 -1.032,0.793 -1.37,1.262 -0.726,0.735 -0.825,1.321 -0.161,0.32 -0.236,0.391 -0.752,-1.379 0.997,-1.983 0.896,-1.486 0.319,-0.312 0.587,-0.505 0.306,-0.23 0.536,-0.365 1.339,-0.089 0.375,-0.226 0.676,0.027 0.991,0.175 0.055,0.045 0.032,0.095 m -4.576,-1.844 0.167,0.496 0.941,1.321 -0.536,0.365 -0.306,0.23 -0.587,0.505 -0.319,0.312 -0.896,1.486 -0.997,1.983 -0.073,0.15 -0.639,0.188 -0.252,0.037 -0.104,-0.068 -0.51,-0.437 0.293,-1.884 0.068,-0.234 0.122,-0.32 0.284,-0.542 0.545,-1.198 0.067,-0.298 2.732,-2.092 m -6.901,2.773 1.754,0.293 2.174,-0.721 0.241,-0.253 -0.067,0.298 -0.545,1.198 -0.284,0.542 -0.122,0.32 -0.068,0.234 -0.293,1.884 0.51,0.437 0.104,0.068 0.252,-0.037 0.639,-0.188 0.073,-0.15 0.752,1.379 -1.049,2.88 -0.69,-0.401 -1.533,-0.116 -0.631,-0.307 -1.501,-1.47 0.636,-1.983 0.117,-0.478 0.019,-0.122 -0.009,-0.089 -0.28,-0.429 -0.532,-0.347 -0.523,-1.423 0.036,-0.149 0.104,-0.194 0.716,-0.676 m -2.342,0.522 2.342,-0.522 -0.716,0.676 -0.104,0.194 -0.036,0.149 0.523,1.423 0.532,0.347 0.28,0.429 0.009,0.089 -0.019,0.122 -0.117,0.478 -0.636,1.983 -0.066,0.352 -0.1,0.378 -1.56,-0.107 -1.833,-0.343 1.639,-5.562 -0.138,-0.086 m -1.501,5.648 1.833,0.343 1.56,0.107 0.1,-0.378 0.066,-0.352 1.501,1.47 -0.126,0.595 -0.31,1.889 -0.33,2.154 -0.27,0.861 -0.271,0.604 -4.146,0.765 0.229,-1.005 0.028,-0.373 -0.406,-3.178 0.375,-2.362 0.167,-1.14 m 5.06,1.19 0.631,0.307 1.533,0.116 0.69,0.401 -0.099,0.109 -0.055,0.094 -0.234,0.641 -0.041,0.73 -0.212,1.244 -0.121,0.455 -0.437,1.073 -0.235,0.419 -2.361,0.446 -0.366,0.068 0.271,-0.604 0.27,-0.861 0.33,-2.154 0.31,-1.889 0.126,-0.595 m 3.903,-2.056 0.236,-0.391 0.783,1.046 -0.104,0.161 0.262,0.415 1.465,1.672 0.383,0.73 0.685,2.839 -0.094,0.019 -6.099,1.154 0.235,-0.419 0.437,-1.073 0.121,-0.455 0.212,-1.244 0.041,-0.73 0.234,-0.641 0.055,-0.094 0.099,-0.109 1.049,-2.88 m 5.927,1.398 0.113,0.009 0.366,0.107 0.801,0.365 0.708,0.899 0.045,0.18 0.072,0.617 -0.158,0.581 0,0.053 0.275,1.375 -2.097,0.424 -2.342,0.464 -0.685,-2.839 0.532,-0.761 1.104,-0.509 0.675,-0.279 0.348,-0.317 0.243,-0.369 m 8.802,-5.084 3.143,1.704 -0.591,0.509 -0.063,2.073 0.036,0.329 0.049,0.226 0.126,0.346 -0.098,0.699 -0.154,0.568 -0.127,0.338 -0.567,0.73 -0.942,0.204 -0.063,0.013 0,-0.063 -0.054,-0.082 -1.735,-1.694 -1.871,-1.61 -0.225,-0.054 -0.265,0.036 -0.632,-0.026 -0.91,-0.618 1.293,-1.284 1.131,-0.78 1.19,-0.478 1.329,-1.086 m -6.529,2.546 1.586,1.082 0.91,0.618 0.632,0.026 0.265,-0.036 0.225,0.054 1.871,1.61 1.735,1.694 0.054,0.082 0,0.063 -3.178,0.666 -2.099,0.437 -2.052,0.428 -0.275,-1.375 0,-0.053 0.158,-0.581 -0.072,-0.617 -0.045,-0.18 -0.708,-0.899 -0.801,-0.365 -0.366,-0.107 -0.113,-0.009 0.658,-0.947 1.186,-0.992 0.429,-0.599 m 2.351,-14.846 0.141,1.036 0.063,0.299 0.585,0.847 1.146,2.177 -0.302,0.511 -0.249,0.48 0.005,1.087 -0.622,0.477 -1.69,-1.069 -0.018,-0.838 -0.081,-0.166 -0.748,-1.091 -0.496,-0.194 -0.442,-0.959 1.505,-1.907 1.203,-0.69 m 12.174,1.884 0.915,1.078 0.032,0.076 -0.005,0.076 -0.324,0.993 -0.197,0.273 -0.146,0.02 -0.144,-0.014 -0.076,0.021 -0.164,0.385 0.1,0.778 0.238,0.92 0.064,0.117 -1.1,1.2 -0.734,-0.587 -1,-0.613 -1.28,-0.792 -0.127,-0.16 -0.171,-0.455 1.204,-0.625 2.915,-2.691 m -4.119,3.316 0.171,0.455 0.127,0.16 1.28,0.792 1,0.613 0.734,0.587 -1.099,1.815 -0.514,-0.269 -4.079,-2.173 1.113,-1.015 1.267,-0.965 m 1.108,-6.255 2.141,-0.652 0.009,1.364 1.402,0.586 0.324,-0.203 0.131,-0.184 0.054,0.067 -1.05,1.961 -2.915,2.691 -1.259,-1.451 0.569,-0.695 -1.51,-1.289 -0.307,-0.108 0.347,-0.598 0.699,-1.097 1.365,-0.392 m -9.091,-8.117 5.806,-1.258 1.19,4.49 -2.425,0.523 -1.388,0.275 -2.308,0.5 -0.031,-0.107 -1.226,-4.342 0.382,-0.081 m -4.226,0.87 3.844,-0.789 1.226,4.342 -0.685,1.604 -5.706,0.548 -0.59,0.038 -1.542,-5.053 3.453,-0.69 m 10.032,-2.128 1.153,-0.256 0.181,0.041 0.568,0.4 0.171,0.162 0.302,0.645 1.181,0.194 1.532,2.749 -0.704,2.127 -0.891,2.102 -0.208,1.211 -1.365,0.392 0.379,-0.28 0.157,-0.189 -1.266,-4.808 -1.19,-4.49 m -1.235,5.013 2.425,-0.523 1.266,4.808 -0.157,0.189 -0.379,0.28 -0.699,1.097 -0.311,-0.032 -0.132,-0.069 -0.08,-0.131 -0.229,-0.891 -0.731,-0.96 -0.571,-0.119 -0.569,-0.211 -0.235,-0.256 -0.076,-0.227 0.374,-1.121 -0.338,-0.162 0.121,-0.703 0.253,-0.871 0.068,-0.098 m -3.727,0.668 0.031,0.107 2.308,-0.5 1.388,-0.275 -0.068,0.098 -0.253,0.871 -0.121,0.703 0.338,0.162 -0.374,1.121 -0.139,0.105 -1.389,0.793 -2.556,0.635 0.15,-2.216 0.685,-1.604 m 10.05,-1.746 0.258,0.591 0.414,0.405 0.293,0.279 1.027,0.533 0.167,0.077 0.758,-0.041 0.423,-0.047 0.767,0.75 -0.569,0.41 -0.27,0.293 -0.23,0.473 -0.049,0.144 -0.117,0.5 -0.018,0.176 0.04,0.041 0.018,0.212 -0.058,0.388 -0.266,0.627 -0.384,0.54 -0.131,0.184 -0.324,0.203 -1.402,-0.586 -0.009,-1.364 -2.141,0.652 0.208,-1.211 0.891,-2.102 0.704,-2.127 m -6.935,10.895 2.248,-1.749 -0.122,-0.253 -0.378,-0.307 -0.045,-0.271 0.004,-0.112 0.028,-0.058 0.519,-0.618 0.039,-0.031 0.23,-0.082 0.198,0.113 0.307,0.108 1.51,1.289 -0.569,0.695 1.259,1.451 -1.204,0.625 -1.267,0.965 -2.757,-1.765 m -3.95,-5.329 2.556,-0.635 1.389,-0.793 0.139,-0.105 0.076,0.227 0.235,0.256 0.569,0.211 0.571,0.119 0.731,0.96 0.229,0.891 0.08,0.131 0.132,0.069 0.311,0.032 -0.347,0.598 -0.198,-0.113 -0.23,0.082 -0.039,0.031 -0.519,0.618 -0.028,0.058 -0.004,0.112 0.045,0.271 0.378,0.307 0.122,0.253 -2.248,1.749 -2.096,-0.041 -1.146,-2.177 -0.585,-0.847 -0.063,-0.299 -0.141,-1.036 0.081,-0.929 m 9.673,10.282 -1.027,2.955 -1.406,1.696 -3.143,-1.704 -3.24,-1.708 1.231,-0.519 0.459,-0.117 0.194,-0.099 1.547,-1.063 0.427,-0.527 0.014,-0.406 0.865,-0.681 4.079,2.173 m -7.819,-4.994 2.096,0.041 2.757,1.765 -1.113,1.015 -0.865,0.681 -0.014,0.406 -0.427,0.527 -1.547,1.063 -0.194,0.099 -0.459,0.117 -1.231,0.519 -1.064,-0.567 -1.856,-0.979 2.749,-2.132 0.622,-0.477 -0.005,-1.087 0.249,-0.48 0.302,-0.511 m -2.061,5.666 1.064,0.567 3.24,1.708 -1.329,1.086 -1.19,0.478 -1.131,0.78 -0.032,0.022 -1.771,-3.336 1.149,-1.305" />
</svg>
