<?xml version="1.0" encoding="UTF-8" standalone="no"?>
<!-- Created with Inkscape (http://www.inkscape.org/) -->

<svg
   xmlns:dc="http://purl.org/dc/elements/1.1/"
   xmlns:cc="http://creativecommons.org/ns#"
   xmlns:rdf="http://www.w3.org/1999/02/22-rdf-syntax-ns#"
   xmlns:svg="http://www.w3.org/2000/svg"
   xmlns="http://www.w3.org/2000/svg"
   xmlns:sodipodi="http://sodipodi.sourceforge.net/DTD/sodipodi-0.dtd"
   xmlns:inkscape="http://www.inkscape.org/namespaces/inkscape"
   version="1.0"
   width="555.22198"
   height="351.66797"
   id="svg2"
   inkscape:version="0.48.1 r9760"
   sodipodi:docname="province-2.svg">
  <metadata
     id="metadata91">
    <rdf:RDF>
      <cc:Work
         rdf:about="">
        <dc:format>image/svg+xml</dc:format>
        <dc:type
           rdf:resource="http://purl.org/dc/dcmitype/StillImage" />
      </cc:Work>
    </rdf:RDF>
  </metadata>
  <defs
     id="defs89" />
  <sodipodi:namedview
     pagecolor="#ffffff"
     bordercolor="#666666"
     borderopacity="1"
     objecttolerance="10"
     gridtolerance="10"
     guidetolerance="10"
     inkscape:pageopacity="0"
     inkscape:pageshadow="2"
     inkscape:window-width="640"
     inkscape:window-height="480"
     id="namedview87"
     showgrid="false"
     inkscape:zoom="0.83029853"
     inkscape:cx="277.61099"
     inkscape:cy="175.83398"
     inkscape:window-x="0"
     inkscape:window-y="25"
     inkscape:window-maximized="0"
     inkscape:current-layer="svg2" />
  <path
     id="36121"
     style="font-size:12px;fill:#0000ff;fill-rule:nonzero;stroke:#000000;stroke-opacity:1;stroke-width:0.1;stroke-miterlimit:4;stroke-dasharray:none;stroke-linecap:butt;marker-start:none;stroke-linejoin:bevel"
     d="m 457.80598,96.686 4.732,-0.829 0.465,2.479 -0.172,0.667 -0.346,0.302 -0.078,0.438 -0.058,0.463 0.013,0.041 0.231,0.108 -2.511,0.478 -1.482,0.077 -0.573,-3.115 -0.235,0.041 -0.189,-1.113 0.203,-0.037 m 3.678,-4.196 -0.614,0.14 -3.195,0.614 -0.5,0.121 -0.555,-3.097 4.323,-0.734 0.541,2.956 m -4.309,0.875 0.109,0.509 -0.213,0.113 -0.978,0.32 -3.203,0.658 -0.768,0.144 -0.298,-0.058 -0.107,-0.19 -0.433,-2.177 2.05,-1.1 1.745,-0.847 0.771,-0.302 0.527,-0.167 0.059,-0.004 0.184,0.004 0.555,3.097 m 4.309,-0.875 1.163,1.695 -0.109,1.672 -4.732,0.829 -0.522,-2.812 -0.109,-0.509 0.5,-0.121 3.195,-0.614 0.614,-0.14 m -4.2,1.384 0.522,2.812 -0.203,0.037 0.189,1.113 0.235,-0.041 0.573,3.115 -1.203,0.55 -1.037,0.555 -1.079,0.716 -0.229,0.094 -0.23,0.059 -0.554,-0.284 -1.232,-0.694 -0.778,-0.275 0.018,-0.271 0.117,-0.334 0.405,-1.067 0.253,-0.212 0.622,-0.514 0.231,-0.108 0.386,-0.505 0.109,-0.203 0,-0.103 -0.338,-0.748 -0.528,-0.956 -0.122,-0.158 -0.143,-0.09 -0.398,-0.072 -0.405,-0.171 -0.099,-0.108 -0.077,-0.28 -0.167,-0.622 0.768,-0.144 3.203,-0.658 0.978,-0.32 0.213,-0.113 m -4.248,8.032 1.236,6.878 -5.156,0.914 -0.144,0.027 -1.28,0.221 -0.297,-1.689 -0.248,-1.43 -0.055,-0.342 0.379,-0.261 0.608,-0.514 0.821,-0.772 0.762,-0.76 0.189,-0.262 0.162,-0.357 0.419,-0.541 0.925,-0.729 0.901,-0.658 0.778,0.275 m 5.564,-0.996 1.482,-0.077 1.259,6.648 -2.711,0.499 -2.604,0.506 -0.415,0.072 -1.339,0.226 -1.236,-6.878 1.232,0.694 0.554,0.284 0.23,-0.059 0.229,-0.094 1.079,-0.716 1.037,-0.555 1.203,-0.55 m 14.561,-2.912 1.83,-0.446 0.221,0.865 0.284,1.1 0.009,0.226 0.222,1.131 0.676,-0.117 0.089,0.432 -0.172,0.235 -0.414,0.031 -0.481,-0.116 -0.118,-0.501 -0.987,0.202 -1.145,0.316 0.022,0.113 -1.139,0.315 -0.1,0.018 -0.347,-1.478 -0.266,-1.195 1.816,-1.131 m -0.486,-10.51 0.91,4.038 -2.271,0.609 -1.564,0.324 -0.077,-0.347 -1.036,0.212 -1.136,0.293 -0.645,-3.083 0.546,-0.153 1.554,-0.397 0.289,-0.063 0.428,0.005 0.329,0.063 0.699,-0.127 0.054,-0.018 1.343,-0.788 0.217,-0.163 0.36,-0.405 m -0.803,7.824 1.289,2.686 -1.816,1.131 -0.369,-0.072 -0.064,-0.058 -0.117,-0.582 -0.031,-0.297 0.005,-0.108 -2.065,0.419 -0.239,-1.159 0.063,-0.612 0.045,-0.267 0.158,-0.41 3.141,-0.671 m -0.558,-3.177 0.365,1.784 -0.109,0.054 -0.022,0.027 -0.014,0.063 0.338,1.249 -3.141,0.671 -0.158,0.41 -0.045,0.267 -0.063,0.612 0.239,1.159 -1.149,0.216 -0.117,-0.608 -0.208,-0.559 -0.923,0.162 -0.347,-1.136 -0.006,-1.199 0.329,-0.067 0,-0.018 -0.112,-0.487 -0.144,-0.334 -0.085,-0.135 -0.145,-0.117 0.905,-0.167 -0.252,-1.158 1.051,-0.207 1.136,-0.293 1.036,-0.212 0.077,0.347 1.564,-0.324 m -3.759,6.512 1.149,-0.216 2.065,-0.419 -0.005,0.108 0.031,0.297 0.117,0.582 0.064,0.058 0.369,0.072 0.266,1.195 0.347,1.478 0.1,-0.018 1.139,-0.315 0.708,3.528 -6.021,1.223 -1.312,0.265 -0.919,-6.062 1.902,-1.776 m -6.071,-6.157 -0.541,-2.956 0.387,-0.054 1.488,0.027 0.96,0.23 0.441,0.248 0.068,0.031 0.793,0.325 0.262,0.045 0.157,-0.014 1.357,-0.838 0.645,3.083 -1.051,0.207 0.252,1.158 -0.905,0.167 -0.513,0.154 -1.123,0.211 -0.023,-0.031 0.014,-0.018 0.239,-0.054 0.009,-0.028 0.053,-0.356 -0.045,-0.081 -0.108,-0.09 -1.653,0.329 -1.163,-1.695 m 1.163,1.695 1.653,-0.329 0.108,0.09 0.045,0.081 -0.053,0.356 -0.009,0.028 -0.239,0.054 -0.014,0.018 0.023,0.031 1.123,-0.211 0.513,-0.154 0.145,0.117 0.085,0.135 0.144,0.334 0.112,0.487 0,0.018 -0.329,0.067 0.006,1.199 0.347,1.136 0.923,-0.162 0.208,0.559 0.117,0.608 -1.902,1.776 -1.1,0.167 -0.108,-0.55 -1.852,0.315 -0.231,-0.108 -0.013,-0.041 0.058,-0.463 0.078,-0.438 0.346,-0.302 0.172,-0.667 -0.465,-2.479 0.109,-1.672 m -0.054,6.17 1.852,-0.315 0.108,0.55 1.1,-0.167 0.919,6.062 -4.282,0.808 -0.949,0.188 -1.259,-6.648 2.511,-0.478 m 41.951,17.429 -0.04,0.018 -0.091,0.127 -0.142,0.126 -0.041,-0.004 -0.145,0.153 -0.091,0.055 -0.067,0.107 -0.231,0.094 -0.053,-0.036 -0.019,-0.063 0.019,-0.072 0.053,-0.105 -0.012,-0.152 0.023,-0.117 0.194,-0.226 0.044,-0.202 -0.032,-0.248 0.028,-0.117 -0.008,-0.127 0.053,-0.198 0.084,-0.185 0.136,-0.103 0.248,-0.131 0.301,-0.158 0.105,-0.018 0.077,0.077 0.072,0.212 0.197,0.225 -0.026,0.14 -0.36,0.707 -0.231,0.231 -0.045,-0.01 m 1.687,-3.885 0.017,0.086 -0.175,0.869 -0.145,0.127 -0.698,0.622 -0.069,-0.289 0.091,-1.212 0.258,-1.171 0.603,0.301 0.118,0.667 m -0.681,-1.456 1.374,0.163 0.185,0.983 -0.878,0.31 -0.118,-0.667 -0.603,-0.301 0.04,-0.488 m -3.584,-14.643 0.186,2.209 0.531,1.73 0.203,0.414 0.319,1.875 -0.91,0.338 -0.684,0.136 -0.586,-0.019 -0.695,-0.252 -0.996,0.69 -0.419,-0.622 -1.046,-0.455 -0.923,-0.429 0.189,-0.482 0.369,-0.847 0.194,-0.581 -2.131,-0.681 -1.321,-0.401 2.614,-2.632 1.501,0.383 0.727,-0.09 1.482,-0.19 0.081,-1.004 0.419,-0.136 0.928,0.392 -0.032,0.654 m -10.659,5.485 2.939,-2.862 1.321,0.401 2.131,0.681 -0.194,0.581 -0.369,0.847 -0.189,0.482 0.923,0.429 1.046,0.455 0.419,0.622 -0.329,0.293 -0.18,0.388 -0.248,0.649 -2.564,0.725 -0.068,0.054 -0.009,0.031 0.117,0.488 0.126,0.282 -0.423,0.047 -0.758,0.041 -0.167,-0.077 -1.027,-0.533 -0.293,-0.279 -0.414,-0.405 -0.258,-0.591 -1.532,-2.749 m 16.04,0.591 0.352,2.064 -3.966,1.541 0,-0.039 -0.338,-1.443 0.298,-0.731 3.2,-1.271 0.454,-0.121 m -4.142,0.152 0.19,1.971 0.338,1.443 -1.834,2.856 -1.411,-0.478 -3.542,-1.239 -0.767,-0.75 -0.126,-0.282 -0.117,-0.488 0.009,-0.031 0.068,-0.054 2.564,-0.725 0.248,-0.649 0.18,-0.388 0.329,-0.293 0.996,-0.69 0.695,0.252 0.586,0.019 0.684,-0.136 0.91,-0.338 m 2.953,-6.841 0.883,4.904 0.306,1.785 -0.454,0.121 -3.2,1.271 -0.298,0.731 -0.19,-1.971 -0.319,-1.875 -0.203,-0.414 -0.531,-1.73 -0.186,-2.209 0.127,-0.055 0.121,0.005 1.526,0.365 0.475,0.131 1.79,-0.063 0.063,-0.974 0.09,-0.022 m -2.425,10.294 0.312,0.654 0.576,0.789 0.514,0.581 0.059,0.148 0.341,1.733 -3.411,-1.02 -0.225,-0.068 1.834,-2.856 0,0.039 m 0,0 3.966,-1.541 0.158,0.91 -0.306,2.082 -0.06,0.059 -0.702,0.717 1.008,1.297 -0.873,1.601 -1.374,-0.163 -0.015,-1.057 -0.341,-1.733 -0.059,-0.148 -0.514,-0.581 -0.576,-0.789 -0.312,-0.654 m -2.52,27.228 3.143,-0.393 -0.411,0.636 -0.122,0.217 -0.139,0.346 -0.221,0.599 -0.243,0.858 0,0.04 0.004,0.008 0.013,0.014 -0.365,1.303 -0.265,0.644 -0.339,0.582 -0.5,0.279 -0.126,0.036 -0.297,0.032 -0.046,-0.023 -0.063,-0.077 -0.014,-0.806 0.018,-0.199 0.05,-0.27 0.19,-0.739 0.022,-0.157 0.009,-0.195 -0.023,-0.401 -0.053,-0.19 -0.222,-0.162 -0.098,-0.013 0.098,-1.969 m 0,0 -0.098,1.969 -1.965,-0.01 -0.677,-0.156 -1.301,-0.448 -1.169,-0.652 -0.058,-0.063 -0.162,-0.199 0.153,-1.028 0.956,-1.581 1.789,0.951 0.014,-0.063 0,-0.267 -0.118,-1.126 0.893,0.519 1.743,2.154 m -6.931,-4.454 4.295,1.781 0.118,1.126 0,0.267 -0.014,0.063 -1.789,-0.951 -0.956,1.581 -0.153,1.028 -2.074,-2.533 -0.098,-0.298 0.319,-0.815 0.352,-1.249 m 2.022,-1.672 0.385,-0.55 0.374,0.193 0.527,0.384 1.401,1.537 1.248,0.983 -0.769,1.425 -0.893,-0.519 -4.295,-1.781 0.239,-0.424 1.783,-1.248 m 9.69,2.727 -1.638,3.006 -3.143,0.393 -1.743,-2.154 0.769,-1.425 1.01,-1.844 0.136,0.072 0.553,0.284 0.714,0.704 0.892,0.414 0.239,0.072 0.432,0.086 0.582,-0.15 1.197,0.542 m -9.305,-3.277 0.734,-1.365 3.826,2.618 -1.01,1.844 -1.248,-0.983 -1.401,-1.537 -0.527,-0.384 -0.374,-0.193 m 3.47,-4.06 1.329,-0.185 0.501,0.671 0.189,0.257 2.267,3.255 0.519,2.249 -0.032,0.315 -0.135,0.233 -0.582,0.15 -0.432,-0.086 -0.239,-0.072 -0.892,-0.414 -0.714,-0.704 -0.553,-0.284 -0.136,-0.072 -3.826,-2.618 0.622,-0.906 2.114,-1.789 m 1.83,0.486 1.126,-1.501 1.371,-0.271 0.802,0.573 0.324,-0.009 1.281,-0.197 -0.005,0.239 0.055,1.054 0.017,0.293 0.076,0.892 0.199,1.433 0.05,0.482 -0.008,0.051 -0.205,0.981 -0.547,1.924 -0.237,0.601 -0.294,0.306 -1.197,-0.542 0.135,-0.233 0.032,-0.315 -0.519,-2.249 -2.267,-3.255 -0.189,-0.257 m 1.912,-5.489 1.589,-0.054 0.443,-0.618 -0.009,-0.027 0.031,-0.037 0.068,0 0.13,0.06 0.249,0.32 0.268,0.852 0.073,0.3 0.006,0.024 0.081,0.603 0.022,0.262 0.014,0.555 0.027,1.844 -1.281,0.197 -0.324,0.009 -0.802,-0.573 -1.371,0.271 -1.126,1.501 -0.501,-0.671 -0.373,-0.505 0.5,-0.37 0.58,-0.685 0,-0.032 -0.053,-0.094 1.759,-3.132 m -4.769,1.542 0.387,0.563 0.632,-0.361 0.289,0.032 0.057,0.107 1.645,1.249 0.053,0.094 0,0.032 -0.58,0.685 -0.5,0.37 0.373,0.505 -1.329,0.185 -2.6,-1.997 0.094,0 0.679,-0.244 0.285,-0.896 0.515,-0.324 m -2.39,-4.3 1.749,0.508 0.063,0.046 0.072,0.135 0.361,1.02 -0.108,0.838 -0.067,0.107 -0.162,0.69 0.422,0.875 0.06,0.081 -0.515,0.324 -0.285,0.896 -0.679,0.244 -0.094,0 -0.064,-0.036 -0.937,-0.568 -0.73,-1.469 -1.383,-0.564 0.211,-0.361 0.947,-1.057 0.549,-0.551 0.077,-0.104 0.42,-0.807 0.093,-0.247 m 4.395,0.508 0.198,0.961 -0.369,0.265 -0.059,0.072 -0.063,0.186 0.014,0.094 0.252,0.27 0.244,0.198 0.189,0.065 0.018,0.318 -0.888,1.552 -0.117,0.135 -0.059,0.017 -0.057,-0.107 -0.289,-0.032 -0.632,0.361 -0.387,-0.563 -0.06,-0.081 -0.422,-0.875 0.162,-0.69 0.067,-0.107 0.108,-0.838 -0.361,-1.02 -0.072,-0.135 -0.063,-0.046 1.501,-0.852 0.031,0.019 0.068,0.112 0.019,0.082 0.504,1.095 0.523,-0.456 m 2.641,0.461 0.009,0.072 0.023,0.153 -0.009,0.211 -0.023,0.054 -0.063,0 -0.067,0.006 -0.136,0.157 -0.004,0.099 0.112,0.256 -0.138,0.312 -0.006,0.014 -0.013,0.144 0.099,0.202 0.077,0.077 0.257,0.032 0.005,0 -1.759,3.132 -1.645,-1.249 0.059,-0.017 0.117,-0.135 0.888,-1.552 -0.018,-0.318 -0.189,-0.065 -0.244,-0.198 -0.252,-0.27 -0.014,-0.094 0.063,-0.186 0.059,-0.072 0.369,-0.265 0.248,-0.037 1.236,-0.442 0.446,-0.013 0.108,0.005 0.405,-0.013 m -1.993,-1.479 2.421,0.297 -0.144,0.447 -0.194,0.013 -0.045,0.015 -0.022,0.035 -0.09,0.189 0.067,0.483 -0.405,0.013 -0.108,-0.005 -0.446,0.013 -1.236,0.442 -0.248,0.037 -0.198,-0.961 0.648,-1.018 m -6.688,-3.25 2.443,1.925 -0.798,1.835 -0.093,0.247 -0.42,0.807 -0.077,0.104 -0.549,0.551 -0.947,1.057 -0.211,0.361 -0.105,-0.203 -0.064,-0.117 -0.238,-0.92 -0.1,-0.778 0.164,-0.385 0.076,-0.021 0.144,0.014 0.146,-0.02 0.197,-0.273 0.324,-0.993 0.005,-0.076 -0.032,-0.076 -0.915,-1.078 1.05,-1.961 m 5.391,-2.632 -0.95,1.78 -1.998,2.777 -2.443,-1.925 -0.054,-0.067 0.384,-0.54 0.266,-0.627 0.058,-0.388 -0.018,-0.212 -0.04,-0.041 0.018,-0.176 0.117,-0.5 0.049,-0.144 0.23,-0.473 0.27,-0.293 0.569,-0.41 3.542,1.239 m 1.411,0.478 0.225,0.068 -0.212,1.536 0.974,0.366 0.419,0.295 0.23,0.309 0.392,0.689 0.014,0.068 -0.059,0.477 -0.045,0.045 -1.569,-0.667 -0.576,-1.27 -0.622,0.004 -0.618,-0.032 -0.914,-0.586 0.95,-1.78 1.411,0.478 m -2.361,1.302 0.914,0.586 0.618,0.032 0.622,-0.004 0.576,1.27 -0.483,2.218 -0.648,1.018 -0.523,0.456 -0.504,-1.095 -0.019,-0.082 -0.068,-0.112 -0.031,-0.019 -1.501,0.852 -1.749,-0.508 0.798,-1.835 1.998,-2.777 m 2.586,-1.234 3.411,1.02 0.015,1.057 -0.04,0.488 -0.258,1.171 -1.483,0.514 0.068,-0.465 0.045,-0.045 0.059,-0.477 -0.014,-0.068 -0.392,-0.689 -0.23,-0.309 -0.419,-0.295 -0.974,-0.366 0.212,-1.536 m 3.128,3.736 -0.091,1.212 -0.13,0.37 -0.969,0.762 0.144,-0.447 -0.437,-1.383 1.483,-0.514 m -2.984,-0.618 1.569,0.667 -0.068,0.465 0.437,1.383 -2.421,-0.297 0.483,-2.218 m 8.87,1.736 -1.64,-3.795 -0.011,-0.248 0.051,-0.073 0.771,-0.288 1.766,0.226 5.765,-2.668 1.45,-1.687 0.547,-0.284 2.619,0.884 -0.117,0.289 -2.304,2.001 -0.622,0.478 -4.957,3.596 -0.785,0.473 -0.555,0.33 -0.274,0.145 -0.203,0.097 -1.501,0.524 m 0,0 -3.051,1.045 -0.77,-2.704 2.181,-2.136 1.64,3.795 m -4.907,-1.321 0.878,-0.31 0.208,-0.028 0.77,2.704 -1.685,0.667 0.094,-1.153 -0.325,-0.735 -0.243,-0.063 0.145,-0.127 0.175,-0.869 -0.017,-0.086 m -1.001,1.704 0.698,-0.622 0.243,0.063 0.325,0.735 -0.094,1.153 -0.618,-0.036 -0.423,-0.635 -0.131,-0.658 m -28.071,-14.991 0.56,3.615 -3.453,0.69 -0.361,0.08 -0.708,-3.528 -0.022,-0.113 1.145,-0.316 0.987,-0.202 0.118,0.501 0.481,0.116 0.414,-0.031 0.172,-0.235 -0.089,-0.432 0.756,-0.145 m 4.769,-26.655 2.83,0.969 1.902,5.964 -3.314,3.326 -2.171,-0.199 -0.767,-2.731 -0.382,-1.23 0.013,-1.204 1.708,-1.55 0.258,-0.609 -0.041,-0.793 -0.618,-0.298 0.582,-1.645 m 4.732,6.933 1.109,3.528 0.361,1.289 -0.51,1.573 -0.37,0.946 0.551,2.169 -0.307,0.18 -1.717,0.486 -1.176,-0.648 -0.036,-0.181 -0.338,-1.144 -1.15,-0.762 -0.577,-0.329 -0.221,-0.117 -0.463,-0.05 -0.953,0.424 -0.251,-2.114 -0.235,-0.027 0.232,-2.15 0.566,0.054 2.171,0.199 3.314,-3.326 m -6.873,7.224 1.076,0.14 0.953,-0.424 0.463,0.05 0.221,0.117 0.577,0.329 1.15,0.762 0.338,1.144 0.036,0.181 1.176,0.648 1.717,-0.486 -0.081,1.708 -1.203,0.343 -0.627,0.085 -3.597,1.024 -0.239,-0.839 -0.676,-2.483 -0.441,-1.226 -0.664,-0.897 -0.179,-0.176 m 2.199,5.621 3.597,-1.024 0.627,-0.085 1.203,-0.343 0.094,5.688 0.303,1.515 -1.064,0.229 -0.969,0.208 -0.672,-0.325 -1.18,0.022 -0.136,0.091 -0.113,-0.185 -0.612,-1.938 -1.078,-3.853 m -2.199,-5.621 0.179,0.176 0.664,0.897 0.441,1.226 0.676,2.483 -3.443,0.992 -0.031,-0.113 -0.288,-0.298 -0.65,-0.419 -0.851,0.226 -0.803,-1.938 -0.316,-1.163 0.005,-0.068 0.049,-0.058 0.167,-0.005 0.014,-0.013 -0.126,-0.545 -0.266,-0.997 1.41,-0.356 1.203,-0.604 1.159,0.333 0.807,0.244 m -6.202,3.412 -0.058,0.843 0.433,2.186 0.054,0.243 0.202,0.613 0.046,0.095 0.07,0.099 0.74,0.915 -0.081,1.032 -1.83,0.446 -1.289,-2.686 -0.338,-1.249 0.014,-0.063 0.022,-0.027 0.109,-0.054 -0.365,-1.784 2.271,-0.609 m 7.027,6.657 0.073,0.095 0.774,1.658 0.023,0.081 0.104,0.505 0.026,0.414 -0.266,0.073 0.599,2.348 -0.382,0.081 -3.844,0.789 -0.56,-3.615 2.317,-2.15 1.136,-0.279 m -5.54,-1.663 1.903,-0.442 0.036,0.104 1.771,-0.437 0.694,2.717 -2.317,2.15 -0.756,0.145 -0.676,0.117 -0.222,-1.131 -0.009,-0.226 -0.284,-1.1 -0.221,-0.865 0.081,-1.032 m -1.645,-10.177 0.41,1.478 0.483,0.5 0.792,-0.189 0.096,0.365 0.266,0.997 0.126,0.545 -0.014,0.013 -0.167,0.005 -0.049,0.058 -0.005,0.068 0.316,1.163 0.803,1.938 0.851,-0.226 0.65,0.419 0.288,0.298 0.031,0.113 0.478,1.857 -1.771,0.437 -0.036,-0.104 -1.903,0.442 -0.74,-0.915 -0.07,-0.099 -0.046,-0.095 -0.202,-0.613 -0.054,-0.243 -0.433,-2.186 0.058,-0.843 -0.91,-4.038 0.752,-1.145 m 4.26,-13.922 1.595,0.603 1.974,0.677 0.672,0.256 -0.582,1.645 0.618,0.298 0.041,0.793 -0.258,0.609 -1.708,1.55 -0.013,1.204 0.382,1.23 -1.875,0.216 -0.414,0.189 0.086,0.343 -1.649,0.203 -0.596,-1.524 0.636,-1.311 0.041,-0.072 -0.019,-0.194 -0.198,-0.514 -0.063,-0.081 -0.073,-0.023 -0.788,-0.067 -0.558,-0.235 -0.875,-0.63 -0.139,-0.361 -0.006,-0.148 0.019,-0.29 0.216,-0.914 2.061,-2.191 1.473,-1.261 m -1.131,9.816 1.649,-0.203 -0.086,-0.343 0.414,-0.189 1.875,-0.216 0.767,2.731 -0.566,-0.054 -0.232,2.15 0.235,0.027 0.251,2.114 -1.076,-0.14 -0.807,-0.244 -1.159,-0.333 -1.203,0.604 -1.41,0.356 -0.096,-0.365 -0.792,0.189 -0.483,-0.5 -0.41,-1.478 0.434,-0.487 1.135,-1.199 0.059,-0.036 0.374,-0.117 0.247,0.113 0.136,-0.009 0.306,-0.077 0.519,-0.325 0.054,-0.063 0.067,-0.171 0.032,-0.207 0.018,-0.199 -0.027,-0.333 -0.108,-0.627 -0.117,-0.369 m 5.191,10.659 0.239,0.839 1.078,3.853 -2.452,0.595 -1.136,0.279 -0.694,-2.717 -0.478,-1.857 3.443,-0.992 m 1.317,4.692 0.612,1.938 0.113,0.185 0.136,-0.091 1.18,-0.022 0.672,0.325 0.969,-0.208 1.064,-0.229 1.094,2.357 -1.153,0.256 -5.806,1.258 -0.599,-2.348 0.266,-0.073 -0.026,-0.414 -0.104,-0.505 -0.023,-0.081 -0.774,-1.658 -0.073,-0.095 2.452,-0.595 m 17.92,-8.884 1.203,-0.347 -0.023,4.26 -4.178,1.731 -0.081,0.031 -0.049,-0.157 0.008,-1.457 0.064,-1.212 0.072,-0.663 -0.099,-0.64 -0.18,-0.126 3.263,-1.42 m 1.18,3.913 3.83,-1.533 -0.142,5.688 0.216,0.437 -0.063,0.974 -1.79,0.063 -0.475,-0.131 -1.526,-0.365 -0.121,-0.005 -0.127,0.055 0.032,-0.654 0.04,-0.189 0.284,-0.897 0.365,-0.915 0.023,-0.176 -0.036,-0.324 -0.355,-1.794 -0.073,-0.212 -0.032,-0.022 -0.05,0 m -0.076,-6.342 3.299,-0.829 0.69,2.47 -0.083,3.168 -3.83,1.533 0.023,-4.26 -0.099,-2.082 m -4.236,0.816 0.355,-0.054 1.244,0.342 0.414,0.298 0.109,0.306 0.825,0.699 0.063,0.031 0.122,-0.009 -3.263,1.42 -0.965,-0.662 -0.018,-0.036 0.032,-0.172 1.338,-1.451 -0.256,-0.712 m 3.933,-12.291 0.334,0.649 -0.174,0.956 -0.051,0.523 0.091,0.753 0.036,0.048 0.306,0.127 1.55,0.342 0.546,2.538 0.964,4.71 -3.299,0.829 0.117,-0.572 0.045,-0.455 -0.04,-0.884 -0.041,-0.243 -0.743,-2.416 -0.072,-0.113 -0.934,-2.33 -0.027,-0.18 0.01,-0.086 0.098,-0.468 0.168,-0.447 0.518,-1.262 0.058,-0.78 0.023,-1.049 0.517,-0.19 m -5.772,7.189 2.442,-0.924 0.117,0.149 0.578,0.897 0.184,0.698 0.092,0.05 0.611,0.166 0.766,-0.739 0.551,-0.694 0.072,0.113 0.743,2.416 0.041,0.243 0.04,0.884 -0.045,0.455 -0.117,0.572 0.099,2.082 -1.203,0.347 -0.122,0.009 -0.063,-0.031 -0.825,-0.699 -0.109,-0.306 -0.414,-0.298 -1.244,-0.342 -0.355,0.054 -0.116,-0.338 -1.196,-3.326 -0.527,-1.438 m -0.167,-4.922 5.422,-2.077 -0.023,1.049 -0.058,0.78 -0.518,1.262 -0.168,0.447 -0.098,0.468 -0.01,0.086 0.027,0.18 0.934,2.33 -0.551,0.694 -0.766,0.739 -0.611,-0.166 -0.092,-0.05 -0.184,-0.698 -0.578,-0.897 -0.117,-0.149 -2.442,0.924 -1.545,-4.39 1.378,-0.532 m -0.708,-8.937 1.411,-0.51 0.699,-0.148 0.802,-0.5 0.627,-0.442 0.17,-0.473 -0.035,-0.24 1.086,-0.387 0.429,0.518 0.129,0.28 0.167,0.451 0.005,0.008 0.014,0.14 -0.05,0.541 0.302,1.568 -0.378,1.078 -0.005,1.067 0,0.42 0.022,0.429 0,0.004 0.02,0.044 1.075,2.538 0.157,0.284 -0.517,0.19 -5.422,2.077 -0.009,-0.487 -0.054,-0.189 -1.024,-0.198 -0.332,0.149 -0.108,0.071 -0.087,0.149 -1.451,-1.181 0.6,-0.729 -0.672,-1.848 1.647,-0.609 -1.228,-3.295 2.01,-0.77 m 3.304,-8.51 -0.014,0.221 0.33,2.114 0.459,2.691 0.27,0.505 0.149,0.126 0.262,0.153 -1.086,0.387 0.035,0.24 -0.17,0.473 -0.627,0.442 -0.802,0.5 -0.699,0.148 -1.411,0.51 -0.316,-0.92 -0.329,-0.874 -0.689,-1.6 -1.172,-2.871 -0.225,-0.604 1.343,-0.388 2.213,-0.563 2.479,-0.69 m -3.304,8.51 -2.01,0.77 1.228,3.295 -1.647,0.609 -2.222,0.797 -0.123,-0.919 -0.328,-0.978 -1.825,-5.224 -1.146,-3.407 -0.698,0.157 -0.22,-0.658 0.238,-0.013 3.688,-0.703 1.288,-0.289 0.942,-0.275 0.104,-0.031 0.225,0.604 1.172,2.871 0.689,1.6 0.329,0.874 0.316,0.92 m -2.429,4.674 0.672,1.848 -0.6,0.729 1.451,1.181 0.087,-0.149 0.108,-0.071 0.332,-0.149 1.024,0.198 0.054,0.189 0.009,0.487 -1.378,0.532 1.545,4.39 0.527,1.438 -0.748,0.252 -2.776,0.911 -1.794,-0.361 -1.569,-0.356 0.42,-2.046 -2.385,-7.203 2.799,-1.023 2.222,-0.797 m -1.487,11.425 1.794,0.361 2.776,-0.911 0.748,-0.252 1.196,3.326 -3.594,0.807 -0.491,0.108 -2.177,-0.325 -0.252,-3.114 m 6.514,2.524 0.116,0.338 0.256,0.712 -1.338,1.451 -0.032,0.172 0.018,0.036 -0.649,0.342 -1.037,0.365 -1.099,-0.275 -0.843,-0.031 -1.154,-0.185 -0.5,-2.335 2.177,0.325 0.491,-0.108 3.594,-0.807 m -0.98,2.709 0.965,0.662 0.18,0.126 0.099,0.64 -0.072,0.663 -0.064,1.212 -0.008,1.457 0.049,0.157 0.081,-0.031 -1.594,1.077 -2.948,-1.493 0.229,-0.684 0.203,-0.861 -0.121,-0.307 -0.578,-1.18 -0.045,-0.172 -0.054,-0.356 0.05,-0.509 0.843,0.031 1.099,0.275 1.037,-0.365 0.649,-0.342 m 5.408,3.155 0.05,0 0.032,0.022 0.073,0.212 0.355,1.794 0.036,0.324 -0.023,0.176 -0.365,0.915 -0.284,0.897 -0.04,0.189 -0.928,-0.392 -0.419,0.136 -0.081,1.004 -1.482,0.19 -0.727,0.09 -1.501,-0.383 -0.888,-0.225 0.581,-2.101 -0.161,-0.04 1.594,-1.077 4.178,-1.731 m -8.72,1.315 2.948,1.493 0.161,0.04 -0.581,2.101 0.888,0.225 -2.614,2.632 -2.939,2.862 -1.181,-0.194 -0.302,-0.645 -0.171,-0.162 -0.568,-0.4 -0.181,-0.041 -1.094,-2.357 -0.303,-1.515 0.744,-0.216 0.238,-0.095 0.916,-0.694 0.387,-0.451 0.821,-0.775 1.623,-1.46 1.208,-0.348 m -0.316,-4.069 -0.05,0.509 0.054,0.356 0.045,0.172 0.578,1.18 0.121,0.307 -0.203,0.861 -0.229,0.684 -1.208,0.348 -1.623,1.46 -0.821,0.775 -0.387,0.451 -0.916,0.694 -0.238,0.095 -0.744,0.216 -0.094,-5.688 0.081,-1.708 0.307,-0.18 0.076,0.292 0.645,-0.189 0.22,-0.694 2.02,0.654 0.112,-0.131 -0.063,-0.852 1.163,0.203 1.154,0.185 m -8.37,-14.937 2.93,-0.302 2.385,7.203 -0.42,2.046 1.569,0.356 0.252,3.114 0.5,2.335 -1.163,-0.203 0.063,0.852 -0.112,0.131 -2.02,-0.654 -0.22,0.694 -0.645,0.189 -0.076,-0.292 -0.551,-2.169 0.37,-0.946 0.51,-1.573 -0.361,-1.289 -1.109,-3.528 -1.902,-5.964 m 1.389,-12.354 0.22,0.658 0.698,-0.157 1.146,3.407 1.825,5.224 0.328,0.978 0.123,0.919 -2.799,1.023 -2.93,0.302 -2.83,-0.969 -0.672,-0.256 -1.974,-0.677 -1.595,-0.603 0.283,-0.965 0.262,-0.645 0.478,-0.784 1.442,-2.236 0.419,-0.581 3.294,-3.741 0.167,-0.117 1.208,-0.698 0.226,-0.036 0.681,-0.046" />
</svg>
