<?xml version="1.0" encoding="UTF-8" standalone="no"?>
<!-- Created with Inkscape (http://www.inkscape.org/) -->

<svg
   xmlns:dc="http://purl.org/dc/elements/1.1/"
   xmlns:cc="http://creativecommons.org/ns#"
   xmlns:rdf="http://www.w3.org/1999/02/22-rdf-syntax-ns#"
   xmlns:svg="http://www.w3.org/2000/svg"
   xmlns="http://www.w3.org/2000/svg"
   xmlns:sodipodi="http://sodipodi.sourceforge.net/DTD/sodipodi-0.dtd"
   xmlns:inkscape="http://www.inkscape.org/namespaces/inkscape"
   version="1.0"
   width="555.22198"
   height="351.66797"
   id="svg2"
   inkscape:version="0.48.1 r9760"
   sodipodi:docname="province-5.svg">
  <metadata
     id="metadata495">
    <rdf:RDF>
      <cc:Work
         rdf:about="">
        <dc:format>image/svg+xml</dc:format>
        <dc:type
           rdf:resource="http://purl.org/dc/dcmitype/StillImage" />
      </cc:Work>
    </rdf:RDF>
  </metadata>
  <defs
     id="defs493" />
  <sodipodi:namedview
     pagecolor="#ffffff"
     bordercolor="#666666"
     borderopacity="1"
     objecttolerance="10"
     gridtolerance="10"
     guidetolerance="10"
     inkscape:pageopacity="0"
     inkscape:pageshadow="2"
     inkscape:window-width="640"
     inkscape:window-height="480"
     id="namedview491"
     showgrid="false"
     inkscape:zoom="0.83029853"
     inkscape:cx="277.61099"
     inkscape:cy="175.83398"
     inkscape:window-x="0"
     inkscape:window-y="25"
     inkscape:window-maximized="0"
     inkscape:current-layer="svg2" />
  <path
     id="26047"
     style="font-size:12px;fill:#0000ff;fill-rule:nonzero;stroke:#000000;stroke-opacity:1;stroke-width:0.1;stroke-miterlimit:4;stroke-dasharray:none;stroke-linecap:butt;marker-start:none;stroke-linejoin:bevel"
     d="m 395.71998,74.507 -2.095,0.221 -0.46,-0.004 -0.631,-0.83 0.454,-0.072 0.555,-0.184 0.365,-0.267 0.018,-0.126 -0.012,-0.09 -0.042,-0.099 -0.062,-0.045 -0.541,-0.037 -0.081,0.064 -0.468,-0.095 -0.295,-0.257 -0.192,-0.207 -0.258,-0.549 -0.08,-0.222 -0.082,-0.374 0,-0.081 0.046,-0.144 0.27,-0.595 0.104,-0.144 0.951,-1.028 1.239,-0.627 0.091,-0.076 0.45,-0.514 0.756,6.382 m -3.186,-0.613 0.631,0.83 0.46,0.004 2.095,-0.221 0.122,1.118 -0.981,1.23 -1.299,0.127 -1.69,0.198 -0.357,-0.158 -0.099,-0.928 -1.384,0.13 -0.107,0.014 -0.055,-0.352 0.104,-0.477 0.131,-0.167 0.253,-0.298 0.134,-0.139 0.821,-0.663 0.112,-0.063 0.465,-0.176 0.644,-0.009 m -2.609,2.344 0.107,-0.014 1.384,-0.13 0.099,0.928 0.357,0.158 1.69,-0.198 1.299,-0.127 0.472,3.295 -4.038,0.455 -0.271,0.126 -0.013,0.064 -0.026,0.45 -1.015,-0.608 0.071,-0.18 0.136,-0.406 0.068,-0.257 0.064,-0.883 0.003,-0.92 -0.072,-0.613 -0.315,-1.14 m -1.687,5.796 -1.585,0.19 -2.358,0.193 -0.099,-1.117 0.307,-0.577 0.743,-0.686 1.469,-0.95 0.176,-0.487 0.97,-1.862 0.577,-0.374 0.094,-0.004 0.158,0.252 -0.483,3.511 -0.035,0.027 -0.131,0.5 -0.018,0.131 0.005,0.32 0.036,0.226 0.174,0.707 m -1.585,0.19 0.337,3.357 -3.813,0.338 0.045,-0.41 0.01,-0.23 -0.081,-0.351 -0.081,-0.181 -0.252,-0.482 -0.069,-0.194 -0.009,-0.297 0.009,-0.072 0.05,-0.095 0.14,-0.108 0.527,-0.243 0.591,-0.195 0.139,-0.153 0.082,-0.225 0.022,-0.153 -0.005,-0.113 2.358,-0.193 m 3.317,-1.587 1.015,0.608 0.426,3.858 -4.421,0.478 -0.337,-3.357 1.585,-0.19 1.732,-1.397 m 5.363,-0.487 0.496,4.462 -4.418,0.491 -0.426,-3.858 0.026,-0.45 0.013,-0.064 0.271,-0.126 4.038,-0.455 m -8.343,5.431 0.447,4.484 -2.037,0.172 -3.182,0.19 0.865,-2.254 0.081,-0.735 0.009,-0.256 0.004,-1.263 3.813,-0.338 m 0,0 4.421,-0.478 0.496,4.462 -2.113,0.239 -2.357,0.261 -0.447,-4.484 m 8.839,-0.969 0.523,4.489 -2.167,0.212 -2.278,0.252 -0.496,-4.462 4.418,-0.491 m -13.611,5.815 3.182,-0.19 0.508,4.529 -3.632,0.33 -0.492,-1.925 0.114,-1.947 0.32,-0.797 m 7.576,-0.623 0.518,4.489 -4.404,0.473 -0.508,-4.529 2.037,-0.172 2.357,-0.261 m 4.391,-0.491 0.504,4.512 -4.377,0.468 -0.518,-4.489 2.113,-0.239 2.278,-0.252 m 2.167,-0.212 2.235,-0.257 0.556,4.44 -4.454,0.541 -0.504,-4.512 2.167,-0.212 m -14.076,5.995 3.632,-0.33 0.465,4.485 -3.934,0.338 -0.672,-1.289 -0.109,-0.207 -0.117,-0.302 -0.04,-0.198 -0.015,-0.149 0.006,-0.185 0.058,-0.257 0.149,-0.284 0.23,-0.365 0.163,-0.297 0.116,-0.338 0.05,-0.235 0.023,-0.347 -0.005,-0.04 m 8.036,-0.803 0.492,4.462 0.243,2.24 -2.118,0.253 -2.313,0.239 -0.243,-2.236 -0.465,-4.485 4.404,-0.473 m 0,0 4.377,-0.468 0.549,4.461 -4.434,0.469 -0.492,-4.462 m 8.831,-1.009 0.526,4.484 -2.213,0.262 -2.218,0.256 -0.549,-4.461 4.454,-0.541 m -1.687,4.746 0.613,4.457 -4.435,0.51 -0.257,-2.258 -2.33,0.256 -0.243,-2.24 4.434,-0.469 2.218,-0.256 m -8.527,3.218 2.118,-0.253 2.33,-0.256 0.257,2.258 0.532,4.488 -2.209,0.27 -2.226,0.244 -0.203,-1.879 -0.203,-1.506 -0.28,-2.234 -0.116,-1.132 m -6.49,-1.659 3.934,-0.338 0.243,2.236 2.313,-0.239 0.116,1.132 -1.1,0.107 0.136,1.117 -2.032,0.231 -1.371,0.139 -0.108,-0.225 -0.41,-0.726 -0.901,-1.487 -0.14,-0.274 -0.329,-0.722 -0.171,-0.446 -0.18,-0.505 m 6.606,2.791 0.28,2.234 0.203,1.506 0.203,1.879 -3.997,0.432 -1.056,-4.457 1.371,-0.139 2.032,-0.231 -0.136,-1.117 1.1,-0.107 m 4.589,0.617 4.435,-0.51 0.527,4.479 -2.222,0.258 -2.208,0.261 -0.532,-4.488 m 4.962,3.969 2.195,-0.251 0.56,4.479 -1.11,0.127 -3.326,0.403 -0.541,-4.5 2.222,-0.258 m -2.222,0.258 0.541,4.5 -2.141,0.268 -2.303,0.233 -0.514,-4.47 2.209,-0.27 2.208,-0.261 m -6.643,0.775 2.226,-0.244 0.514,4.47 -2.082,0.237 -4.804,0.522 0.149,-4.553 3.997,-0.432 m -4.146,4.985 4.804,-0.522 0.505,4.529 -4.367,0.433 -1.574,-2.074 0.632,-2.366 m 6.886,-0.759 2.303,-0.233 0.559,4.477 -4.439,0.522 -0.505,-4.529 2.082,-0.237 m 4.444,-0.501 3.326,-0.403 0.626,4.521 -1.108,0.102 -4.426,0.525 -0.559,-4.477 2.141,-0.268 m -11.962,3.626 1.574,2.074 0.387,4.024 -2.84,0.293 -2.866,0.275 0.004,-0.008 0.42,-0.352 0.526,-0.505 0.329,-0.365 0.506,-0.689 0.175,-0.334 0.117,-0.325 0.172,-0.771 0.491,-1.42 0.19,-0.4 0.815,-1.497 m 1.574,2.074 4.367,-0.433 0.157,4.029 -2.582,0.262 -1.555,0.166 -0.387,-4.024 m 4.367,-0.433 4.439,-0.522 0.469,4.015 -3.498,0.402 -1.253,0.134 -0.157,-4.029 m 4.439,-0.522 4.426,-0.525 0.487,4.027 -3.534,0.415 -0.91,0.098 -0.469,-4.015 m -39.288,20.808 2.181,-0.158 0.054,0.758 0.095,0.965 0.582,0.234 0.302,3.484 -3.305,0.292 -1.09,0.086 -0.122,-1.509 -2.018,0.126 0.44,-1.033 2.007,-1.284 0.914,-1.38 0.068,-0.229 -0.053,-0.239 -0.055,-0.113 m 6.057,-0.505 3.341,-0.31 0.103,1.127 0.135,0.693 1.114,-0.099 0.216,2.831 0.126,1.519 -1.121,0.09 -5.6,0.415 -1.157,-0.478 -0.302,-3.484 1.313,-0.127 0.841,-0.464 0.541,-0.527 0.45,-1.186 m 4.909,4.242 5.129,-0.432 0.229,2.249 -0.131,0.013 0.429,4.471 -5.143,0.432 -0.387,-5.214 -0.126,-1.519 m -0.995,1.609 1.121,-0.09 0.387,5.214 -0.018,1.141 -2.673,0.208 -0.257,-3.408 1.44,-3.065 m 0,0 -1.44,3.065 -0.572,0.039 -2.194,0.236 -1.132,0.094 -0.262,-3.019 5.6,-0.415 m -6.757,-0.063 1.157,0.478 0.262,3.019 -0.595,1.758 -1.834,0.117 -0.784,-0.144 -0.041,-0.563 -0.929,0.072 -0.351,-1.884 -0.19,-2.561 3.305,-0.292 m -6.535,-1.005 2.018,-0.126 0.122,1.509 1.09,-0.086 0.19,2.561 -0.348,-0.379 -0.351,-0.062 -2.704,0.536 -0.432,0.342 -0.04,0.072 -0.898,0.369 -0.974,0.397 -0.018,0.009 -0.874,0.014 -0.735,-0.852 1.474,-0.866 0.672,-0.603 0.063,-0.082 0.456,-0.851 0.121,-0.734 0.054,-0.204 0.059,-0.105 0.914,-0.774 0.141,-0.085 m -0.415,4.295 0.432,-0.342 2.704,-0.536 0.351,0.062 0.348,0.379 0.351,1.884 -1.172,0.09 -0.008,0.478 0.022,0.262 -0.648,0.251 -2.209,0.144 -0.171,-2.672 m -3.539,0.009 0.735,0.852 0.874,-0.014 0.018,-0.009 0.974,-0.397 0.898,-0.369 0.04,-0.072 0.171,2.672 0.027,0.379 -5.787,0.298 0.603,-1.479 1.447,-1.861 m 0.992,7.806 -2.754,0.14 0.072,-0.23 -0.004,-0.049 -0.077,-0.261 -0.346,-0.969 -0.176,-1.371 0.158,-0.59 1.14,-0.055 1.127,0.397 0.784,1.478 0.076,1.51 m -3.042,-4.466 5.787,-0.298 0.076,1.136 0.145,0.865 0.662,1.849 0.067,0.279 0.009,0.378 -2.244,0.167 -1.46,0.09 -0.076,-1.51 -0.784,-1.478 -1.127,-0.397 -1.14,0.055 0.229,-0.658 -0.144,-0.478 m 9.775,-1.902 0.929,-0.072 0.041,0.563 0.784,0.144 1.834,-0.117 0.099,1.348 -0.369,0 -1.321,1.041 -1.275,1.406 0.116,1.509 -1.653,0.132 -2.214,0.157 -0.009,-0.378 -0.067,-0.279 -0.662,-1.849 -0.145,-0.865 -0.076,-1.136 -0.027,-0.379 2.209,-0.144 0.648,-0.251 -0.022,-0.262 0.008,-0.478 1.172,-0.09 m 8.081,-1.609 0.257,3.408 -0.504,1.847 -2.114,0.144 -1.114,0.067 -0.161,-1.884 -0.758,-0.107 -0.099,-1.348 0.595,-1.758 1.132,-0.094 2.194,-0.236 0.572,-0.039 m 2.93,3.2 0.157,1.816 0.227,2.646 -0.668,0.049 -0.473,-0.175 -2.33,-1.338 -0.09,-0.943 0.504,-1.847 2.673,-0.208 m 0.018,-1.141 5.143,-0.432 0.076,1.135 -0.243,0.456 0.094,0.944 -0.581,0.065 -0.364,0.077 0.031,0.374 -4.017,0.338 -0.157,-1.816 0.018,-1.141 m 5.143,-0.432 3.957,-0.387 0.329,3.569 0.154,1.685 -1.55,0.144 -0.006,-0.139 -2.668,0.311 -0.289,-2.648 -0.094,-0.944 0.243,-0.456 -0.076,-1.135 m -5.004,3.389 4.017,-0.338 -0.031,-0.374 0.364,-0.077 0.581,-0.065 0.289,2.648 -0.401,1.37 -4.521,0.429 -0.071,-0.947 -0.227,-2.646 m -7.481,-1.541 0.758,0.107 0.161,1.884 1.114,-0.067 0.145,1.7 0.153,2.293 -1.132,0.046 -1.103,0.085 -2.758,0.189 -0.187,-2.281 -0.116,-1.509 1.275,-1.406 1.321,-1.041 0.369,0 m -8.96,4.412 0.266,3.345 -0.464,0.03 -1.155,0.551 0.046,0.663 -1.709,0.134 -0.17,-0.098 -0.006,-0.027 -0.057,-0.051 -0.276,-0.049 -0.437,0.104 -0.174,0.888 -0.308,-3.606 0.23,-1.654 2.754,-0.14 1.46,-0.09 m 2.244,-0.167 2.214,-0.157 0.482,6.797 -4.444,0.269 -0.23,-3.397 -0.266,-3.345 2.244,-0.167 m -1.978,3.512 0.23,3.397 -1.231,1.037 -1.775,-0.432 -1.626,-1.857 0.174,-0.888 0.437,-0.104 0.276,0.049 0.057,0.051 0.006,0.027 0.17,0.098 1.709,-0.134 -0.046,-0.663 1.155,-0.551 0.464,-0.03 m 4.192,-3.669 1.653,-0.132 0.187,2.281 2.758,-0.189 1.103,-0.085 0.121,1.699 -0.919,2.542 -3.835,0.64 -0.586,0.041 -0.482,-6.797 m 6.535,-2.164 2.114,-0.144 0.09,0.943 2.33,1.338 0.473,0.175 0.668,-0.049 0.071,0.947 0.162,2.068 -3.307,0.234 -3.314,0.226 -0.121,-1.699 1.132,-0.046 -0.153,-2.293 -0.145,-1.7 m 2.601,5.512 0.284,3.949 1.122,-0.122 0.072,1.149 -3.028,0.266 -1.376,0.086 0.077,1.14 -1.158,0.008 -0.226,-3.708 0.919,-2.542 3.314,-0.226 m 3.307,-0.234 0.0472,0.57985 1.08978,-0.10185 0.266,3.371 -3.304,0.212 -1.122,0.122 -0.284,-3.949 m 7.666,-2.731 0.266,2.65 -4.57694,0.42568 -0.21006,-2.64668 4.521,-0.429 m 0.401,-1.37 2.668,-0.311 0.006,0.139 1.55,-0.144 -0.46,2.885 -0.131,1.343 -3.2,0.046 -0.568,0.062 -0.266,-2.65 0.401,-1.37 m 0.433,3.958 3.2,-0.046 0.203,0.693 0.469,0.551 0.716,1.279 -0.027,0.411 -0.072,0.204 -0.059,0.081 0.081,0.643 -3.732,0.352 -0.374,0.036 -0.405,-4.204 m -0.568,0.062 0.568,-0.062 0.405,4.204 -4.1291,0.38914 -0.3319,-4.20614 3.488,-0.325 m -6.526,3.908 3.304,-0.212 0.0659,0.83434 1.01906,-0.0953 0.137,1.51 -0.262,0.009 0.003,0.365 0.028,0.193 0.406,1.132 -4.439,0.266 -0.19,-2.853 -0.072,-1.149 m 7.873,0.198 0.266,3.629 -0.423,0.036 -1.92,0.185 -1.095,-0.312 -0.406,-1.132 -0.028,-0.193 -0.003,-0.365 0.262,-0.009 -0.137,-1.51 3.11,-0.293 0.374,-0.036 m 3.732,-0.352 0.041,0.005 0.022,0.036 0.384,0.825 -0.004,0.315 -0.141,0.82 -0.099,0.181 -0.08,0.067 -0.789,1.009 -0.194,0.528 -2.606,0.195 -0.266,-3.629 3.732,-0.352 m -3.889,4.017 -0.018,4.056 -1.6,0.185 -0.302,-4.056 1.92,-0.185 m 0.423,-0.036 2.606,-0.195 -0.717,2.064 -1.942,2.579 -0.014,0.063 -0.374,-0.419 0.018,-4.056 0.423,-0.036 m -3.438,-0.091 1.095,0.312 0.302,4.056 -2.2,0.189 -3.331,0.243 -0.184,-2.83 -0.121,-1.704 4.439,-0.266 m -8.956,-1.095 -0.077,-1.14 1.376,-0.086 3.028,-0.266 0.19,2.853 0.121,1.704 -4.449,0.342 -0.022,-0.378 -0.167,-3.029 m -1.384,-3.7 0.226,3.708 -3.421,0.222 -0.072,-0.893 -0.315,-0.789 -0.158,-0.563 -0.095,-1.045 3.835,-0.64 m -3.835,0.64 0.095,1.045 0.158,0.563 0.315,0.789 0.072,0.893 -1.014,1.217 -4.738,0.234 -0.206,-1.038 0.726,-0.886 0.022,-0.122 0.036,-0.298 -0.009,-0.076 -0.041,-0.072 -0.978,-0.591 -0.19,-0.112 -0.252,-0.121 -0.257,-0.078 1.231,-1.037 4.444,-0.269 0.586,-0.041 m -5.112,4.741 4.738,-0.234 0.23,3.069 0.18,2.583 -1.969,0.107 -0.276,-0.591 -2.357,-1.923 -1.252,-1.14 0.045,-0.159 0.661,-1.712 m 9.173,-1.673 1.158,-0.008 0.167,3.029 -1.267,0.044 -3.001,0.519 -0.406,0.153 -0.514,0.428 -0.342,0.343 -0.23,-3.069 1.014,-1.217 3.421,-0.222 m 1.325,3.021 0.022,0.378 0.212,3.389 -4.474,0.231 -1.11,0.072 -0.18,-2.583 0.342,-0.343 0.514,-0.428 0.406,-0.153 3.001,-0.519 1.267,-0.044 m 4.471,0.036 0.184,2.83 0.109,1.704 -4.262,0.324 -0.268,-1.127 -0.212,-3.389 4.449,-0.342 m 7.315,2.213 0.374,0.419 -0.058,1.352 -0.144,2.987 -0.027,0.055 -0.006,0.009 -0.022,0.015 -0.017,0.003 -0.483,0.018 -3.096,0.014 -0.321,-4.498 2.2,-0.189 1.6,-0.185 m -3.8,0.374 0.321,4.498 0,0.009 -3.344,0.275 -0.199,-2.835 -0.109,-1.704 3.331,-0.243 m -3.222,1.947 0.239,3.398 -4.476,0.351 -0.351,-1.126 0.326,-2.299 4.262,-0.324 m -9.004,-0.572 4.474,-0.231 0.268,1.127 -0.326,2.299 -4.205,0.23 -0.211,-3.425 m 0,0 0.211,3.425 -0.667,2.023 -2.723,-0.756 -2.854,-2.605 1.651,-0.712 -0.073,-1.136 1.376,-0.06 1.969,-0.107 1.11,-0.072 m -6.964,-3.475 1.252,1.14 2.357,1.923 0.276,0.591 -1.376,0.06 0.073,1.136 -1.651,0.712 -0.512,-0.383 -0.848,-0.825 -0.026,-0.028 -0.032,-0.045 -0.185,-0.253 -0.117,-0.289 -0.135,-0.58 -0.019,-0.541 0.009,-0.131 0.019,-0.054 0.147,-0.5 0.045,-0.09 0.028,-0.036 0.695,-1.807 m 7.175,6.9 4.205,-0.23 0.351,1.126 0.221,3.394 -3.696,0.627 -1.748,-2.894 0.667,-2.023 m 9.032,0.545 0.248,3.426 -3.367,0.288 -1.136,0.031 -0.221,-3.394 4.476,-0.351 m 3.304,-0.838 0.311,3.994 -0.37,0.027 -2.997,0.243 -0.248,-3.426 -0.04,-0.563 3.344,-0.275 m 3.096,-0.023 0.509,1.141 -0.131,0.491 -0.049,0.131 -0.076,0.139 -0.122,0.132 -0.469,0.341 -0.008,0.005 -0.163,0.307 -0.082,0.139 -0.013,0.028 -0.054,0.144 -0.014,0.09 0.005,0.014 0.053,0.292 0.006,0.014 0.216,0.586 0.082,0.148 -2.475,-0.125 -0.311,-3.994 0,-0.009 3.096,-0.014 m -9.519,4.575 0.22,3.457 -2.073,0.081 -2.397,0.172 0.369,-0.099 0.117,-0.06 0.009,-0.013 0.01,-0.009 0.008,-0.013 0.041,-0.122 0.04,-0.397 0.005,-0.017 -0.005,-0.014 -0.058,-0.217 -0.005,-0.021 -0.004,-0.01 -0.162,-0.365 -0.126,-0.158 -0.267,-0.262 -0.189,-0.283 -0.288,-0.537 -0.004,-0.003 -0.064,-0.258 -0.009,-0.117 0,-0.077 3.696,-0.627 1.136,-0.031 m 3.367,-0.288 0.238,3.399 -2.185,0.612 -1.2,-0.266 -0.22,-3.457 3.367,-0.288 m 2.997,-0.243 0.153,2.289 -0.063,0.027 -0.175,0.08 -0.072,0.055 -0.091,0.064 -0.131,0.17 -0.053,0.127 -0.289,1.27 0,0.005 -0.006,0.086 0.087,0.279 0.428,0.514 0.136,0.077 0.126,0.121 0.288,0.64 -0.149,0.716 -0.121,0.334 -0.235,0.104 -0.076,0.013 -0.1,-1.203 -2.416,-2.126 -0.238,-3.399 2.997,-0.243 m 0.37,-0.027 2.475,0.125 0.805,0.834 0,0.208 -0.193,0.22 -0.103,0.023 -1.407,0.298 -0.212,0.045 -0.175,0.049 -0.064,0.019 -0.022,0.004 -0.244,0.148 -0.049,0.032 -0.009,0.004 -0.172,0.159 -0.256,0.341 -0.591,-0.193 -0.153,-2.289 0.37,-0.027 m -5.314,4.281 2.185,-0.612 2.416,2.126 0.1,1.203 -0.743,-0.079 -3.872,-1.646 -0.086,-0.992 m -3.273,-0.185 2.073,-0.081 1.2,0.266 0.086,0.992 -0.055,0.018 -2.279,2.217 -0.663,-0.279 -0.249,-0.112 -0.081,-0.096 -0.095,-0.203 0.032,-1.311 0.031,-1.411 m -2.397,0.172 2.397,-0.172 -0.031,1.411 -0.032,1.311 0.095,0.203 0.081,0.096 0.249,0.112 0.663,0.279 0.481,1.081 -1.961,-0.211 -0.681,-0.555 -0.36,-0.883 -0.626,-1.172 -0.258,-0.369 -0.017,-1.131 m 16.235,-42.255 0.333,4.265 0.288,3.43 -3.957,0.387 -0.429,-4.471 0.131,-0.013 -0.229,-2.249 -0.122,-1.118 3.97,-0.415 0.015,0.184 m 30.169,-1.586 0.267,2.024 0.505,3.573 -0.582,0.087 -3.186,0.401 -0.117,-1.141 -0.398,-3.944 -0.067,-0.548 3.578,-0.452 m 0.267,2.024 4.002,-0.324 0.103,1.869 0.117,2.088 -1.049,0.054 -0.073,-0.122 -0.058,-0.203 0.081,-0.158 -2.618,0.369 -0.505,-3.573 m 8.505,-1.501 0.663,1.461 0.062,1.301 -5.125,0.284 -0.167,-3.033 2.259,-0.118 0.582,0.168 1.726,-0.063 m -4.4,3.046 5.125,-0.284 -0.888,3.237 -1.821,-0.086 -0.017,-0.324 -1.137,-0.096 -0.424,-0.013 -0.697,0.032 -0.024,-0.378 -0.117,-2.088 m 5.063,-1.585 2.897,-0.344 0.149,3.84 0.117,1.533 -3.952,0.243 -0.037,-0.734 0.888,-3.237 -0.062,-1.301 m 7.174,-1.173 0.14,2.425 -0.149,1.921 -4.119,0.323 -0.149,-3.84 0.288,-0.504 3.989,-0.325 m -5.273,-3.443 2.218,-0.171 2.82,0.716 0.055,0.942 0.18,1.956 -3.989,0.325 -0.198,-1.293 -0.73,0.089 -0.249,-1.676 -0.107,-0.888 m 5.093,1.487 2.7,-0.221 0.022,0.244 1.105,-0.095 1.631,-0.212 0.221,0.916 0.023,3.325 -2.258,0.104 -3.124,0.32 -0.14,-2.425 -0.18,-1.956 m 11.043,-0.883 2.762,-0.333 1.176,0.396 0.362,2.822 -1.11,0.143 -0.365,0.095 -1.41,0.929 -0.311,0.384 0.054,0.41 -1.113,0.126 -0.145,-1.141 -0.364,0.044 -0.307,-2.852 0.351,-0.042 0.081,-0.053 -0.085,-0.784 0.424,-0.144 m 7.278,-0.329 1.744,-0.253 -0.026,1.641 -0.397,2.425 -0.086,0.063 -0.712,0.081 -2.29,0.203 -1.077,0.131 -0.134,-1.077 -0.362,-2.822 3.34,-0.392 m -12.642,1.844 4.593,-0.492 0.307,2.852 0.364,-0.044 0.145,1.141 0.134,1.122 -3.717,0.355 -1.803,-1.609 -0.023,-3.325 m 1.826,4.934 3.717,-0.355 1.398,2.005 -2.241,2.141 -2.171,-1 -0.703,-2.791 m 7.838,-3.564 0.134,1.077 -0.744,0.095 0.272,2.09 0.369,-0.053 0.184,1.302 -2.938,0.703 -1.398,-2.005 -0.134,-1.122 1.113,-0.126 -0.054,-0.41 0.311,-0.384 1.41,-0.929 0.365,-0.095 1.11,-0.143 m 0.134,1.077 1.077,-0.131 2.29,-0.203 0.712,-0.081 0.086,-0.063 0.108,1.735 -0.888,1.64 -0.789,1.001 -0.045,-0.41 -2.064,0.235 -0.406,-0.289 -0.184,-1.302 -0.369,0.053 -0.272,-2.09 0.744,-0.095 m -12.033,0.982 2.258,-0.104 1.803,1.609 0.703,2.791 -1.105,0.085 -2.289,-0.96 -0.077,-1.14 -0.703,-1.1 -0.51,0.031 -0.08,-1.212 m -3.124,0.32 3.124,-0.32 0.08,1.212 0.51,-0.031 0.703,1.1 0.077,1.14 -1.14,0.072 -1.145,0.861 -0.852,0.658 -0.167,0.198 -1.104,0.064 -0.149,-1.745 -0.086,-1.288 0.149,-1.921 m -4.268,2.244 4.119,-0.323 0.086,1.288 0.149,1.745 1.104,-0.064 0.068,1.122 -2.345,0.181 -0.126,-0.136 -0.222,-0.175 -2.545,0.22 -0.171,-2.325 -0.117,-1.533 m -3.835,1.776 3.952,-0.243 0.171,2.325 -0.798,1.93 -2.144,0.266 -1.064,-2.11 -0.117,-2.168 m -0.037,-0.734 0.037,0.734 0.117,2.168 -3.038,0.146 -1.357,0.052 0.145,-3.587 0.697,-0.032 0.424,0.013 1.137,0.096 0.017,0.324 1.821,0.086 m -7.837,-0.925 2.618,-0.369 -0.081,0.158 0.058,0.203 0.073,0.122 1.049,-0.054 0.024,0.378 -0.145,3.587 -2.479,0.159 -1.114,0.129 -0.585,-4.226 0.582,-0.087 m -0.582,0.087 0.585,4.226 -3.262,0.691 -0.235,-2.056 -0.274,-2.46 3.186,-0.401 m 0.585,4.226 1.114,-0.129 0.59,3.826 -0.381,-0.023 -1.876,0.085 -0.726,0.132 -1.627,0.189 -0.288,-2.804 -0.068,-0.585 3.262,-0.691 m 3.593,-0.288 1.357,-0.052 0.22,4.082 -2.51,0.117 -0.956,-0.162 -0.59,-3.826 2.479,-0.159 m 4.395,-0.198 1.064,2.11 -2.479,2.045 -1.267,0.073 -0.136,0 -0.22,-4.082 3.038,-0.146 m -6.284,4.183 0.956,0.162 -0.393,0.856 0.159,0.433 0.04,1.992 -1.956,-0.721 -1.127,0.411 -1.992,-0.171 -0.297,-2.579 1.627,-0.189 0.726,-0.132 1.876,-0.085 0.381,0.023 m 3.466,0.045 0.136,0 0.202,6.31 -1.852,-0.527 -0.095,-0.591 -1.095,-1.794 -0.04,-1.992 -0.159,-0.433 0.393,-0.856 2.51,-0.117 m 0.136,0 1.267,-0.073 0.31,2.921 1.965,-0.243 0.325,4.985 -0.78,-0.387 -0.879,-0.91 -0.063,-0.051 -0.122,-0.045 -0.342,-0.045 -1.479,0.158 -0.202,-6.31 m 3.746,-2.118 2.144,-0.266 0.501,2.288 -0.073,1.881 -2.776,0.82 -1.965,0.243 -0.31,-2.921 2.479,-2.045 m 2.942,-2.196 2.545,-0.22 0.222,0.175 0.126,0.136 2.345,-0.181 0.103,1.299 0.149,2.082 -0.157,0.536 -5.63,0.391 -0.501,-2.288 0.798,-1.93 m 8.474,-3.001 2.289,0.96 0.091,1.172 -1.118,0.081 0.076,1.15 -2.226,0.166 0.018,0.343 -1.144,0.265 -1.119,0.073 -0.103,-1.299 -0.068,-1.122 0.167,-0.198 0.852,-0.658 1.145,-0.861 1.14,-0.072 m 2.289,0.96 1.105,-0.085 2.171,1 0.173,1.708 0.432,0.536 0.951,-0.108 0.076,0.808 -0.175,0.387 -5.142,0.446 -0.087,-1.159 -0.378,0.032 -0.153,-2.312 1.118,-0.081 -0.091,-1.172 m 8.455,-1.929 0.406,0.289 2.064,-0.235 0.045,0.41 -0.869,1.357 -1.981,1.699 -0.435,-0.536 -0.072,-0.077 -0.253,-0.14 -0.113,-0.009 -0.09,0.028 -0.103,0.089 -0.627,0.766 -1.289,1.641 -0.23,0.506 -0.076,-0.808 -0.951,0.108 -0.432,-0.536 -0.173,-1.708 2.241,-2.141 2.938,-0.703 m -13.877,5.179 1.119,-0.073 1.144,-0.265 -0.018,-0.343 2.226,-0.166 0.077,1.162 0.378,-0.032 0.087,1.159 -0.204,2.343 -1.122,0.064 -0.085,-1.339 -1.181,-0.393 -1.154,-0.116 -1.118,0.081 -0.149,-2.082 m 5.013,1.442 5.142,-0.446 0.184,1.081 -0.612,0.266 0,0.112 0.049,0.176 0.108,0.141 0.112,0.082 0.226,0.151 0.108,0.126 0.24,1.038 -0.024,0.108 -1.045,0.744 -0.329,0.086 0,-0.676 -0.036,-0.1 -0.247,-0.37 -0.195,-0.242 -0.73,-0.398 -0.005,0 -0.153,-0.008 -0.171,0.09 -0.46,0.779 -0.031,0.18 -0.05,-0.585 -2.27,0.198 -0.015,-0.19 0.204,-2.343 m -0.204,2.343 0.015,0.19 2.27,-0.198 0.05,0.585 -0.226,1.235 -0.13,2.083 0.003,0.004 0.258,1.051 0.014,0.09 0,0.018 -0.005,0.045 -0.005,0.076 -0.013,0.063 -0.041,0.067 -0.025,0.027 -0.056,0.045 -0.022,0.024 -0.059,0.012 -0.189,0.041 -0.654,0.217 -0.748,0.076 -0.082,-0.982 -1.248,-0.879 -1.212,-0.324 -0.048,-0.853 1.031,-2.649 1.122,-0.064 m -4.66,-1.703 1.118,-0.081 1.154,0.116 1.181,0.393 0.085,1.339 -1.031,2.649 -0.744,0.045 -0.919,0.064 -0.231,-0.51 -0.045,-0.649 -0.537,0.04 -0.188,-2.87 0.157,-0.536 m -5.787,0.927 5.63,-0.391 0.188,2.87 -1.916,0.159 -2.095,0.234 -0.036,-0.021 -0.644,-0.619 -1.2,-0.351 0.073,-1.881 m 1.127,2.232 0.603,5.336 -0.571,-0.428 -0.024,-0.008 -0.337,-0.158 -0.027,-0.013 -1.074,-0.258 -0.404,-0.099 -0.014,0 -0.085,-0.009 -0.123,0.027 -0.784,0.343 -0.104,0.072 -0.077,0.126 -0.054,0.455 -0.576,0.068 -0.325,-4.985 2.776,-0.82 1.2,0.351 m 0,0 0.644,0.619 0.036,0.021 2.095,-0.234 1.916,-0.159 0.537,-0.04 0.045,0.649 0.231,0.51 0.919,-0.064 0.067,1.128 -0.009,0.192 -0.587,2.107 -0.612,0.392 -0.045,-0.023 -0.216,-0.144 -0.01,-0.014 -0.081,-0.095 -0.067,-0.143 -0.023,-0.05 -0.28,-0.843 -0.095,-0.406 0.01,-0.156 -0.005,-0.006 0,-0.013 -0.008,-0.091 -0.019,-0.077 -0.004,-0.018 -0.005,-0.018 -0.017,-0.031 -0.027,-0.04 -0.013,-0.023 -0.046,-0.05 -0.103,-0.045 -0.051,0 -0.012,0.003 -0.272,0.119 -0.834,0.378 -0.179,0.081 0,0.005 -2.277,1.915 -0.603,-5.336 m 6.423,1.302 0.744,-0.045 0.048,0.853 1.212,0.324 1.248,0.879 0.082,0.982 0.748,-0.076 -0.004,0.564 -0.004,0.027 -0.045,0.924 -0.018,0.094 -0.018,0.086 -0.028,0.076 -0.053,0.068 -0.099,0.064 -1.592,0.63 -0.884,-0.027 -0.87,-0.978 -1.608,-0.626 0.612,-0.392 0.587,-2.107 0.009,-0.192 -0.067,-1.128 m -77.622,-30.463 -0.036,0.248 0.009,0.236 0.108,0.517 0.144,0.293 0.186,0.171 0.188,0.068 0.159,0.099 0.126,0.136 0.022,0.175 0.005,0.158 -0.027,0.293 -0.023,0.041 -0.163,0.116 0.054,0.073 0.015,0.08 -0.041,0.225 -0.086,0.195 -0.496,0.262 -0.356,0.058 -0.456,0.108 -0.17,0.076 -0.113,0.086 -0.613,0.637 0.078,1.68 -6.217,0.261 0,-0.004 0.114,-0.442 0.134,-0.551 0.009,-0.025 0.068,-0.096 0,-0.004 0.009,-0.005 0.103,-0.067 0.362,-0.131 1.352,-0.369 0.59,-0.005 0.139,0.018 0.329,-0.009 0.776,-0.198 1.821,-0.902 0.572,-0.667 0.5,-0.672 0.149,-1.405 0.676,-0.758 m 3.795,2.366 0.338,4.526 -1.154,1.177 -4.367,0.243 -0.098,-2.281 -0.078,-1.68 0.613,-0.637 0.113,-0.086 0.17,-0.076 0.456,-0.108 0.356,-0.058 0.496,-0.262 0.086,-0.195 0.041,-0.225 -0.015,-0.08 -0.054,-0.073 3.097,-0.185 m 6.661,-0.472 0.285,3.559 -0.902,-0.093 -0.117,0.013 -0.523,0.288 -1.303,0.983 0.083,1.109 -1.665,0.113 -2.181,-0.974 -0.338,-4.526 2.208,-0.162 4.453,-0.31 m -4.142,5.972 1.665,-0.113 1.318,-0.086 -0.017,0.316 -0.019,0.086 -0.057,0.08 -0.095,0.051 -0.054,0.062 1.894,-0.141 1.275,2.228 -4.102,0.351 -1.654,-0.572 -0.154,-2.262 m -2.181,-0.974 2.181,0.974 0.154,2.262 -3.353,0.207 -0.136,-2.266 1.154,-1.177 m -1.154,1.177 0.136,2.266 0.211,3.403 -4.449,0.239 -0.215,-4.534 -0.05,-1.131 4.367,-0.243 m -10.682,-1.777 6.217,-0.261 0.148,3.412 -3.344,0.131 -1.578,0.063 -0.009,-0.032 0.009,-0.311 -0.454,-0.744 -0.082,-0.085 -0.078,-0.036 -0.129,0.018 -0.308,-0.153 -0.653,-0.785 -0.004,-0.009 -0.01,-0.107 0.275,-1.101 m 1.443,3.345 1.578,-0.063 0.27,5.616 -1.118,0.017 -2.736,0.159 0.677,-0.794 0.067,-1.46 0.036,-0.167 0.753,-1.074 0.104,-0.102 0.279,-0.158 0.054,-0.081 0.082,-0.383 0.039,-1.05 -0.049,-0.348 -0.036,-0.112 m 1.578,-0.063 3.344,-0.131 0.269,5.661 -3.343,0.086 -0.27,-5.616 m 8.008,4.164 0.041,1.123 1.123,-0.055 0.053,0.573 0.049,0.869 -0.44,1.033 -0.141,0.085 -0.914,0.774 -0.059,0.105 -0.054,0.204 -0.121,0.734 -0.456,0.851 -0.063,0.082 -0.672,0.603 -2.519,-1.054 -0.222,-4.561 -0.054,-1.127 4.449,-0.239 m 3.142,-3.61 1.654,0.572 -0.649,2.303 0.055,0.113 0.053,0.239 -0.068,0.229 -0.914,1.38 -2.007,1.284 -0.049,-0.869 -0.053,-0.573 -1.123,0.055 -0.041,-1.123 -0.211,-3.403 3.353,-0.207 m 5.756,0.221 1.117,-0.108 0.189,2.257 -0.45,1.186 -0.541,0.527 -0.841,0.464 -1.313,0.127 -0.582,-0.234 -0.095,-0.965 -0.054,-0.758 -2.181,0.158 0.649,-2.303 4.102,-0.351 m -17.564,9.465 4.493,-0.149 2.519,1.054 -1.474,0.866 -1.447,1.861 -0.905,0.009 -0.225,-0.436 -0.74,-0.979 -0.982,0.032 -1.15,0.076 -0.089,-2.334 m 0.928,-4.624 3.343,-0.086 0.222,4.561 -4.493,0.149 -0.19,-4.607 1.118,-0.017 m -3.854,0.176 2.736,-0.159 0.19,4.607 0.045,1.184 -5.856,0.2 0.06,-0.631 0.72,-1.717 0.298,-0.105 0.014,-0.008 0.103,-0.086 0.023,-0.113 0.004,-0.008 0.026,-1.16 -0.008,-0.13 -0.054,-0.157 -0.162,-0.235 -0.199,-0.094 -0.032,-0.108 0.015,-0.096 0.41,-0.63 0.036,-0.041 0.036,-0.035 0.03,-0.033 0.086,-0.054 0.244,-0.139 0.058,-0.033 0.014,-0.009 0.51,-0.179 0.004,0 0.077,-0.004 0.257,-0.019 0.315,-0.008 m 2.971,5.632 0.044,1.15 0.153,3.372 0.063,1.14 -2.825,0.149 -1.618,0.058 -0.983,-2.383 -0.69,-3.286 5.856,-0.2 m 0.044,1.15 1.15,-0.076 0.982,-0.032 0.74,0.979 0.225,0.436 0.905,-0.009 -0.603,1.479 0.144,0.478 -3.39,0.117 -0.153,-3.372 m 3.543,3.255 -0.229,0.658 -0.158,0.59 0.176,1.371 0.346,0.969 0.077,0.261 0.004,0.049 -0.072,0.23 -0.23,1.654 -3.334,0.135 -2.375,-2.466 -1.39,-1.058 -0.585,-0.929 1.618,-0.058 2.825,-0.149 -0.063,-1.14 3.39,-0.117 m -3.42,5.917 3.334,-0.135 0.308,3.606 1.626,1.857 -2.113,0.558 -0.536,-1.437 0,-0.005 -0.025,-0.09 0.01,-0.041 0.271,-0.419 0.008,-0.162 -0.464,-1.582 -2.419,-2.15 m 57.081,-34.822 3.854,-0.59 0.892,2.773 0.094,0.742 -4.412,0.555 -0.162,-1.343 -0.266,-2.137 m 4.218,-0.648 4.544,-0.744 0.361,2.997 -4.377,0.578 -0.892,-2.773 0.364,-0.058 m 5.653,-0.938 2.924,-0.496 2.885,1.028 -2.325,0.386 -1.47,0.217 -1.171,1.678 -0.261,0.486 -0.934,0.798 -0.279,0.036 -0.117,-0.942 -0.361,-2.997 1.109,-0.194 m 5.809,0.532 1.033,0.244 2.065,0.121 0.319,-0.131 1.064,0.645 0.274,0.175 -2.402,0.803 -1.085,0.162 -2.579,0.347 -0.085,-0.564 -0.717,0.109 -0.212,-1.525 2.325,-0.386 m 4.755,1.054 0.857,0.735 0.613,0.287 0.451,0.141 0.144,0.018 0.171,-0.022 0.185,-0.094 0.262,-0.176 0.733,-0.52 0.32,1.853 -4.772,0.595 -0.308,-1.795 -1.004,0.146 -0.054,-0.365 2.402,-0.803 m 6.879,-1.162 0.27,1.996 0.901,-0.127 0.135,0.975 -0.878,0.324 -1.646,1.862 0.121,0.946 -1.581,0.198 -0.465,-2.79 -0.32,-1.853 3.463,-1.531 m 4.313,-2.289 1.049,0.643 0.438,2.84 -0.004,0 -1.971,0.271 0.163,0.364 0.293,0.528 -1.14,0.18 -1.835,0.307 -0.135,-0.975 -0.901,0.127 -0.27,-1.996 0.066,0.059 0.046,0.027 0.207,0.063 0.591,0.017 1.252,-0.239 0.055,-0.026 0.239,-0.207 0.662,-0.61 0.279,-0.305 0.821,-0.953 0.095,-0.115 m 4.146,-3.588 0.279,1.793 -0.919,0.239 -0.049,0.888 -1.641,0.256 0.135,0.912 -0.902,0.143 -1.049,-0.643 0.356,-0.609 0.441,-0.514 0.293,-0.316 0.563,-0.514 2.064,-1.365 0.429,-0.27 m -3.097,4.231 0.902,-0.143 -0.135,-0.912 1.641,-0.256 0.049,-0.888 0.919,-0.239 0.438,2.736 0.334,1.969 -3.71,0.573 -0.438,-2.84 m -27.836,5.733 1.082,-0.135 0.425,3.375 -1.081,0.141 -0.073,-0.563 -1.182,-0.438 -3.312,0.41 -0.028,-0.238 -0.243,-1.997 4.412,-0.555 m 0.426,3.381 -0.281,2.325 -3.88,0.483 -0.406,-3.399 3.312,-0.41 1.182,0.438 0.073,0.563 m 3.857,-4.701 0.117,0.942 0.429,3.173 -3.322,0.445 -0.425,-3.375 -1.082,0.135 -0.094,-0.742 4.377,-0.578 m 4.232,-2.273 0.212,1.525 0.369,3.178 0.14,1.126 -4.407,0.559 -0.429,-3.173 0.279,-0.036 0.934,-0.798 0.261,-0.486 1.171,-1.678 1.47,-0.217 m 0.212,1.525 0.717,-0.109 0.085,0.564 2.579,-0.347 1.085,-0.162 0.054,0.365 1.004,-0.146 0.384,2.242 -5.539,0.771 -0.369,-3.178 m 5.908,2.407 0.564,3.308 -2.708,0.419 -2.948,0.415 -0.307,-2.245 -0.14,-1.126 5.539,-0.771 m -0.076,-0.447 4.772,-0.595 0.465,2.79 -0.788,1.068 -2.803,0.366 -1.006,0.126 -0.64,-3.755 m 11.056,-1.442 0.531,3.71 -4.233,0.585 -0.536,-0.856 -0.121,-0.946 1.646,-1.862 0.878,-0.324 1.835,-0.307 m 2.655,-1.343 0.696,4.625 -2.287,1.324 -0.533,-0.896 -0.531,-3.71 1.14,-0.18 -0.293,-0.528 -0.163,-0.364 1.971,-0.271 m 0.004,0 3.71,-0.573 0.45,2.742 -0.531,2.001 -2.937,0.455 -0.696,-4.625 0.004,0 m 8.765,1.537 0.465,2.889 -5.43,0.833 -0.171,-1.089 0.531,-2.001 4.588,-0.736 0.017,0.104 m -40.774,7.545 3.88,-0.483 0.771,1.623 -0.265,2.313 -0.57,0.071 -3.407,-0.157 -0.304,-2.506 -0.105,-0.861 m 8.564,-3.394 0.414,3.187 -1.099,0.149 -1.083,0.333 0.05,0.379 -1.077,0.333 -1.118,0.153 -0.771,-1.623 0.281,-2.325 1.081,-0.141 3.322,-0.445 m 0,0 4.407,-0.559 0.307,2.245 -0.624,2.362 -3.506,0.433 -0.17,-1.294 -0.414,-3.187 m 0.414,3.187 0.17,1.294 0.29,2.257 -1.465,0.194 -1.863,0.068 -0.048,-0.375 -1.676,0.222 0.265,-2.313 1.118,-0.153 1.077,-0.333 -0.05,-0.379 1.083,-0.333 1.099,-0.149 m 0.17,1.294 3.506,-0.433 0.191,-0.024 0.203,1.502 0.558,0.108 0.2,-0.018 0.323,2.334 -0.978,0.149 -0.022,-0.068 -3.108,0.14 -0.409,-0.066 -0.464,-3.624 m 4.13,-2.795 2.948,-0.415 0.521,3.737 -2.941,0.608 -0.2,0.018 -0.558,-0.108 -0.203,-1.502 -0.191,0.024 0.624,-2.362 m 6.662,-0.96 0.49,3.664 -1.249,0.257 -2.434,0.361 -0.521,-3.737 2.708,-0.419 1.006,-0.126 m 0,0 2.803,-0.366 0.144,-0.017 0.229,1.455 0.392,0.88 0.627,0.977 0.343,2.209 -2.754,0.459 -1.294,-1.933 -0.49,-3.664 m 5.172,-1.632 0.536,0.856 0.646,4.16 -0.717,1.42 -1.099,0.334 -0.343,-2.209 -0.627,-0.977 -0.392,-0.88 -0.229,-1.455 -0.144,0.017 0.788,-1.068 1.581,-0.198 m 4.769,0.271 0.533,0.896 0.464,3.164 -4.584,0.685 -0.646,-4.16 4.233,-0.585 m 2.82,-0.428 2.937,-0.455 0.523,3.339 -1.074,0.153 -0.342,0.253 0.094,0.82 -0.739,0.1 -3.159,0.707 -0.527,-3.593 2.287,-1.324 m 8.538,-0.199 0.114,0.62 0.446,2.724 -1.312,0.955 -1.902,0.086 -2.424,-1.302 -0.352,-2.25 5.43,-0.833 m -2.654,4.385 1.902,-0.086 0.878,2.336 -0.225,2.767 -0.104,0.405 -1.744,0.253 -0.333,-2.763 0.031,-0.081 -0.072,-0.559 -0.739,0.094 0.406,-2.366 m -2.424,-1.302 2.424,1.302 -0.406,2.366 -3.182,0.384 -0.212,-1.695 -0.554,0.062 -0.131,-1.093 0.739,-0.1 -0.094,-0.82 0.342,-0.253 1.074,-0.153 m -2.061,1.326 0.131,1.093 0.554,-0.062 0.406,3.26 -0.198,0.142 -0.361,0.05 0.144,1.164 -2.762,0.333 -0.226,-1.897 -0.932,0.108 -0.113,-0.956 0.378,-0.045 -0.289,-2.375 0.109,-0.108 3.159,-0.707 m -3.222,0.278 0.063,0.429 -0.109,0.108 0.289,2.375 -0.378,0.045 -4.61,0.536 -0.556,-1.388 0.717,-1.42 4.584,-0.685 m -5.301,2.105 0.556,1.388 0.296,2.808 -1.631,0.212 -1.105,0.095 -0.022,-0.244 -2.7,0.221 -0.055,-0.942 0.956,-0.077 -0.171,-2.009 0.023,-0.659 2.754,-0.459 1.099,-0.334 m -6.396,-0.883 1.249,-0.257 1.294,1.933 -0.023,0.659 0.171,2.009 -0.956,0.077 -2.82,-0.716 -0.05,-0.659 0.284,-2.145 0.942,-0.148 -0.091,-0.753 m 0,0 0.091,0.753 -0.942,0.148 -0.284,2.145 0.05,0.659 -2.218,0.171 -1.749,-0.573 -0.323,-2.334 2.941,-0.608 2.434,-0.361 m -6.03,3.452 0.978,-0.149 1.749,0.573 0.107,0.888 0.249,1.676 0.73,-0.089 0.198,1.293 -0.288,0.504 -2.897,0.344 -0.663,-1.461 -0.163,-3.579 m -3.539,0.006 0.409,0.066 3.108,-0.14 0.022,0.068 0.163,3.579 -1.726,0.063 -0.582,-0.168 -2.259,0.118 -0.225,-2.721 1.09,-0.865 m -5.226,-1.258 1.676,-0.222 0.048,0.375 1.863,-0.068 1.465,-0.194 0.174,1.367 -1.09,0.865 -3.038,0.405 -0.215,0.026 -0.615,1.425 -0.107,0.324 -0.731,-4.232 0.57,-0.071 m -0.57,0.071 0.731,4.232 -0.005,0.005 -3.578,0.452 -0.319,-2.836 -0.236,-2.01 3.407,0.157 m 0.731,4.232 0.107,-0.324 0.615,-1.425 0.215,-0.026 3.038,-0.405 0.225,2.721 0.064,1.164 -4.002,0.324 -0.267,-2.024 0.005,-0.005 m 21.586,-4.232 4.61,-0.536 0.113,0.956 0.932,-0.108 0.226,1.897 -0.424,0.144 0.085,0.784 -0.081,0.053 -0.351,0.042 -4.593,0.492 -0.221,-0.916 -0.296,-2.808 m 12.046,-1.429 0.739,-0.094 0.072,0.559 -0.031,0.081 0.333,2.763 -3.34,0.392 -1.176,-0.396 -0.144,-1.164 0.361,-0.05 0.198,-0.142 -0.194,-1.565 3.182,-0.384 m 1.068,-18.92 0.734,4.48 -4.596,0.721 -0.438,-2.736 -0.279,-1.793 4.311,-2.308 0.268,1.636 m 0.734,4.48 0.024,0.14 0.752,4.556 -4.588,0.736 -0.45,-2.742 -0.334,-1.969 4.596,-0.721 m -77.598,-60.81 0.154,1.88 0.451,-0.032 0.022,0.009 0.091,1.086 -1.101,0.104 0.266,3.317 -5.016,0.397 -0.42,-5.53 1.033,-1.199 0.91,-0.185 -0.179,0.802 -0.015,0.699 0.015,0.072 0.102,0.248 0.118,0.243 0.211,-0.018 0.032,-0.09 0.149,-0.248 0.433,-0.604 0.956,-1.023 0.752,-0.518 0.099,-0.032 0.099,0.05 0.838,0.572 m -4.52,-4.439 1.879,-0.153 0.095,1.104 0.622,-0.054 -1.686,3.389 -0.91,0.185 -1.033,1.199 0.42,5.53 -2.776,0.212 -0.14,-1.884 -0.089,-1.456 1.108,-0.072 -0.078,-1.095 -0.608,0.045 -0.261,-3.421 0.207,-0.712 0.117,-0.194 0.614,-0.572 0.955,-0.889 0.224,-0.202 1.34,-0.96 m -2.33,-10.479 0.064,-0.122 0.016,-0.031 0.136,-0.163 0.36,-0.23 0.559,-0.301 1.063,-0.289 0.05,0.13 -0.004,0.127 -1.275,1.537 -0.739,0.662 -1.989,1.695 -1.793,0.933 -0.288,0.081 -0.294,-0.077 -0.405,-0.229 -0.203,-0.298 0.064,-0.162 0.26,-0.343 0.289,-0.293 0.7,-0.473 0.846,-0.504 1.92,-1.204 0.663,-0.446 m 2.33,10.479 0.414,-0.731 0.326,-0.428 0.243,-0.189 1.441,-0.942 0.302,-0.139 1.226,-0.338 0.533,-0.091 0.436,-0.027 1.127,-0.027 0.405,0.127 0.24,0.13 0.139,0.104 0.086,0.428 -0.008,0.063 -0.889,0.289 -0.104,-0.009 -1.198,0.252 -1.321,1.848 -0.247,0.32 -0.555,0.257 -0.622,0.054 -0.095,-1.104 -1.879,0.153 m -0.613,11.2 5.016,-0.397 0.18,2.218 0.353,4.219 -0.212,-0.141 -0.343,-0.166 -0.224,-0.036 -0.02,-0.005 -2.623,-0.329 -1.577,0.167 -0.185,-0.329 -2.289,-0.586 -0.546,-0.266 -0.22,-3.028 -0.086,-1.109 2.776,-0.212 m 5.133,-6.761 1.275,-0.072 0.795,0.208 0.283,0.081 1.393,0.753 0.369,0.342 0.077,0.378 0.094,0.284 1.957,2.484 0.076,0.085 0.145,0.117 0.143,0.068 0.37,0.081 0.469,0.005 1.159,-0.18 0.099,-0.027 0.405,4.308 -1.122,0.104 0.194,2.231 -1.118,0.099 -2.235,0.189 -0.289,-3.344 -4.476,0.388 -0.18,-2.218 -0.266,-3.317 1.101,-0.104 -0.091,-1.086 -0.022,-0.009 -0.451,0.032 -0.154,-1.88 m 0.063,8.582 4.476,-0.388 0.289,3.344 0.095,1.122 -0.712,0.064 0.192,2.253 -1.18,0.109 -2.131,-0.573 -0.122,0.018 -0.009,-0.004 -0.122,-0.032 -0.076,-0.018 -0.344,-0.279 -0.009,-0.005 -0.058,-0.113 0.013,-0.045 0.005,-0.009 0.158,-0.202 0.063,-0.05 0.144,-0.203 0.126,-0.216 -0.013,-0.045 -0.028,-0.041 -0.265,-0.379 -0.139,-0.089 -0.353,-4.219 m 4.765,2.956 2.235,-0.189 0.199,0.726 0.279,0.351 0.392,4.467 0.572,-0.054 -0.166,0.649 -0.288,0.928 -0.826,1.871 -0.585,0.946 -0.56,1.722 -0.41,-0.064 -0.234,-0.04 -0.009,-0.004 -0.712,-0.753 -0.041,-0.068 -0.08,-0.265 -0.005,-0.009 -0.798,-3.836 -0.09,-2.326 -0.27,-0.333 -0.023,-0.022 -0.014,-0.01 -0.171,-0.139 1.18,-0.109 -0.192,-2.253 0.712,-0.064 -0.095,-1.122 m 4.281,-2.623 4.471,-0.432 1.122,-0.099 0.32,2.226 0.298,1.1 0.171,1.771 -0.487,0.122 -0.261,-1.28 -2.227,0.978 -1.654,0.694 -0.103,-0.496 -0.086,-0.23 -0.176,-0.257 -0.131,-0.077 -0.112,0.032 -0.072,0.045 -0.094,0.167 -1.362,3.146 -0.216,0.496 -0.005,0.018 -0.572,0.054 -0.392,-4.467 -0.279,-0.351 -0.199,-0.726 1.118,-0.099 -0.194,-2.231 1.122,-0.104 m 10.7,-5.548 -4.439,0.451 0.221,2.231 -2.232,0.202 0.221,2.232 -4.471,0.432 -0.405,-4.308 0.324,-0.289 0.509,-0.284 0.077,0.004 0.288,0.05 0.126,0.117 0.195,0.397 0.612,0.496 0.082,0.049 0.229,0.018 2.308,-0.604 1.613,-1.451 1.677,-1.347 2.294,-0.636 0.533,-0.126 0.238,2.366 m 0,0 0.356,3.331 0.365,3.533 -0.477,0.311 -1.357,-0.076 -0.208,0.005 -0.906,0.139 -0.207,0.076 -0.495,0.271 -0.302,0.379 -0.063,0.121 -0.005,0.703 -0.099,0.708 -0.099,0.113 -0.645,0.446 -0.14,0.063 -0.036,-0.009 -0.171,-1.771 -0.298,-1.1 -0.32,-2.226 -1.122,0.099 -0.221,-2.232 2.232,-0.202 -0.221,-2.231 4.439,-0.451 m 0,0 -0.238,-2.366 0.616,0.049 0.398,0.005 1.451,-0.122 0.396,-0.04 0.289,-0.054 0.24,-0.086 0.944,-0.536 1.11,-0.667 0.739,6.517 -5.589,0.631 -0.356,-3.331 m 19.299,4.246 0.045,-0.045 0.076,-0.194 -0.017,-0.176 -0.113,-0.239 -0.211,-0.04 -0.167,-0.194 -0.154,-0.375 0.064,-0.071 0.032,-0.005 1.59,-0.144 0.086,0.009 0.415,0.112 1.053,1.073 0.074,0.09 0.013,0.05 -0.239,0.748 -0.05,0.081 -0.072,0.073 -0.31,0.121 -1.529,-0.004 -0.289,-0.208 -0.13,-0.171 -0.148,-0.167 -0.019,-0.189 0,-0.135 m -13.354,-1.546 -0.739,-6.517 0.558,-0.167 1.213,-0.099 0.302,0.383 -0.09,0.216 -0.041,0.198 -0.004,0.162 0.004,2.047 0.026,0.153 0.06,0.131 0.166,0.189 0.082,0.054 0.095,0.032 1.703,0.261 1.948,-0.396 1.393,-0.586 0.202,-0.18 1.947,-0.745 0.491,0.037 0.094,0.013 0.122,0.149 0.077,0.167 -0.031,1.713 0.014,2.464 1.09,1.087 0.392,0.374 0.379,0.239 0.852,0.329 0.206,0.031 0.109,0.356 -0.077,0.289 -1.222,-0.031 -0.662,-0.023 -0.144,-0.059 -0.09,-0.054 -1.136,-0.031 -0.32,-0.996 -1.05,-0.996 -6.675,0.793 -0.135,-1.118 -1.109,0.131 m -5.589,0.631 5.589,-0.631 1.109,-0.131 0.135,1.118 6.675,-0.793 1.05,0.996 0.32,0.996 1.136,0.031 -1.889,0.519 -1.893,-0.411 -1.744,0.988 -2.56,-0.541 -1.091,-0.329 -1.902,-0.388 -0.694,-0.036 -0.136,0.009 -0.643,0.135 -0.109,0.041 -0.077,0.054 -0.152,0.167 -0.496,0.693 -0.091,0.294 -0.283,0.482 -0.072,0.094 -0.289,0.118 -1.528,0.058 -0.365,-3.533 m -28.142,-7.608 0.261,3.421 0.608,-0.045 0.078,1.095 -1.108,0.072 0.089,1.456 0.14,1.884 0.086,1.109 -3.345,0.243 -0.158,-2.213 -3.348,0.234 -1.168,-1.055 -0.131,-2.213 -0.235,0.019 0.335,-0.415 0.144,-0.117 0.351,-0.207 0.617,-0.194 0.41,-0.064 0.118,0.018 0.166,0.063 1.808,-0.306 0.19,-0.067 0.369,-0.199 3.181,-2.006 0.542,-0.513 m -8.231,4.007 0.235,-0.019 0.131,2.213 1.168,1.055 3.348,-0.234 0.158,2.213 3.345,-0.243 0.22,3.028 -0.635,-0.311 -0.613,-0.207 -0.38,-0.081 -0.486,-0.099 -6.464,-1.326 -0.91,-0.189 -0.829,-0.175 -1.812,-2.227 -1.018,-0.554 0.595,-0.483 0.176,-0.099 1.429,-0.573 0.554,-0.157 0.482,-0.203 0.145,-0.086 0.274,-0.261 0.649,-0.645 0.238,-0.337 m 33.403,62.188 2.866,-0.275 0.414,4.219 -1.126,0.112 -0.518,0.446 -0.197,0.758 -0.064,0.171 -0.168,0.316 -0.22,0.347 -0.284,0.185 -1.058,0.577 -0.615,-6.121 0.97,-0.735 m 7.261,-0.734 0.411,3.628 -2.174,0.23 -1.72,0.203 0.057,0.558 -0.555,0.059 -0.414,-4.219 2.84,-0.293 1.555,-0.166 m 3.835,-0.396 0.38,3.037 0.135,1.113 -3.876,0.428 -0.474,-4.182 2.582,-0.262 1.253,-0.134 m 3.498,-0.402 0.91,-0.098 0.369,3.001 -4.397,0.536 -0.38,-3.037 3.498,-0.402 m 4.444,-0.513 0.279,0.801 0.266,2.137 -3.71,0.478 -0.369,-3.001 3.534,-0.415 m -25.042,10.347 2.348,-0.896 0.352,3.889 0.028,0.055 0.054,0.022 0.224,2.262 -2.505,0.221 -0.316,-3.538 -0.185,-2.015 m 5.649,-1.446 0.076,0.838 0.319,3.358 -1.406,2.43 -1.632,0.152 -0.224,-2.262 -0.054,-0.022 -0.028,-0.055 -0.352,-3.889 0.519,-0.352 0.226,-0.324 0.545,-0.316 0.108,-0.022 0.194,0.049 0.522,0.181 0.744,0.472 0.085,0.024 0.276,-0.154 0.082,-0.108 m 4.19,-2.971 0.338,3.381 -4.452,0.428 -0.076,-0.838 1.058,-0.577 0.284,-0.185 0.22,-0.347 0.168,-0.316 0.064,-0.171 0.197,-0.758 0.518,-0.446 1.126,-0.112 0.555,-0.059 m 3.9,-0.437 0.179,3.417 -3.741,0.401 -0.338,-3.381 -0.057,-0.558 1.72,-0.203 2.174,-0.23 0.063,0.554 m 0,0 3.876,-0.428 0.215,1.835 0.068,0.527 0.091,0.973 -0.326,0.037 0.208,1.699 -2.51,0.321 -1.443,-1.547 -0.179,-3.417 m 8.138,-2.077 0.402,3.384 -1.104,0.127 -2.204,0.22 -0.032,-0.374 -1.109,0.127 -0.215,-1.835 -0.135,-1.113 4.397,-0.536 m 0,0 3.71,-0.478 0.162,1.343 0.243,1.997 -3.713,0.522 -0.402,-3.384 m -11.7,5.895 0.329,3.385 -1.095,0.094 -3.367,0.307 -0.319,-3.358 4.452,-0.428 m 0,0 3.741,-0.401 1.443,1.547 0.054,0.563 -2.024,1.383 -2.885,0.293 -0.329,-3.385 m 7.653,-2.411 1.109,-0.127 0.032,0.374 2.204,-0.22 0.112,3.37 -2.965,0.371 -0.451,-0.532 -0.208,-1.699 0.326,-0.037 -0.091,-0.973 -0.068,-0.527 m 8.19,-0.384 0.406,3.399 0.105,0.861 -2.602,0.365 -2.52,0.297 -0.122,-1.141 -0.112,-3.37 1.104,-0.127 3.713,-0.522 0.028,0.238 m -16.609,6.274 0.226,2.262 -1.609,0.137 -0.04,0.053 -0.037,0.091 -0.049,1.068 0.122,1.076 -3.143,0.294 -0.243,-2.244 1.406,-2.43 3.367,-0.307 m 1.095,-0.094 2.885,-0.293 0.505,4.475 -2.024,0.23 -0.167,-1.699 -1.519,-0.406 -0.549,0.049 -0.226,-2.262 1.095,-0.094 m 4.909,-1.676 0.54,4.488 0.727,-0.086 0.125,1.114 -2.911,0.342 -0.505,-4.475 2.024,-1.383 m 2.456,-0.884 0.451,0.532 0.546,4.502 -2.186,0.252 -0.727,0.086 -0.54,-4.488 -0.054,-0.563 2.51,-0.321 m 0.451,0.532 2.965,-0.371 0.122,1.141 0.397,3.389 -1.105,0.132 -1.833,0.211 -0.546,-4.502 m 3.087,0.77 2.52,-0.297 0.573,4.502 -1.281,0.162 -2.38,0.276 -0.14,-1.122 1.105,-0.132 -0.397,-3.389 m 5.122,-0.662 0.304,2.506 0.236,2.01 -2.569,0.351 -0.573,-4.502 2.602,-0.365 m -23.525,4.903 1.632,-0.152 0.365,3.37 -4.204,0.365 -0.015,-0.184 -0.283,-3.178 2.505,-0.221 m 8.866,1.429 0.153,1.672 -3.096,0.306 -0.1986,-1.67168 -0.7064,0.0627 -0.122,-1.076 0.049,-1.068 0.037,-0.091 0.04,-0.053 1.609,-0.137 0.549,-0.049 1.519,0.406 0.167,1.699 m 2.024,-0.23 2.911,-0.342 0.239,2.05 -3.655,0.811 -0.365,0.041 -0.297,-0.162 -0.059,-0.559 -0.645,0.063 -0.153,-1.672 2.024,-0.23 m 4.972,-1.708 1.833,-0.211 0.14,1.122 0.298,2.42 -1.302,0.139 -2.755,0.311 -0.036,-0.365 -0.239,-2.05 -0.125,-1.114 2.186,-0.252 m 1.973,0.911 2.38,-0.276 0.095,2.448 -2.177,0.248 -0.298,-2.42 m 6.23,-0.789 0.319,2.836 0.067,0.548 -4.024,0.509 -0.117,-0.932 -0.095,-2.448 1.281,-0.162 2.569,-0.351 m -27.674,-11.958 2.978,0.83 0.492,4.935 -0.519,0.352 -2.348,0.896 -0.153,-1.708 -0.45,-5.305 m 5.637,-0.554 0.615,6.121 -0.082,0.108 -0.276,0.154 -0.085,-0.024 -0.744,-0.472 -0.522,-0.181 -0.194,-0.049 -0.108,0.022 -0.545,0.316 -0.226,0.324 -0.492,-4.935 2.659,-1.384 m -18.528,62.847 1.961,0.211 0.365,0.47 -0.386,1.289 -0.006,0.004 -0.284,0.162 -0.005,0.005 0,0.297 0.005,0.005 0.59,0.311 -0.396,1.788 -1.551,0.348 -2.181,-2.938 1.888,-1.952 m -1.925,-2.979 0.258,0.369 0.626,1.172 0.36,0.883 0.681,0.555 -1.888,1.952 -1.749,0.248 -0.036,-0.695 -0.158,-0.441 -0.221,-0.537 -0.163,-0.262 -0.207,-0.278 -0.197,-1.195 2.694,-1.771 m -4.064,-4.305 3.465,0.199 0.009,0.117 0.064,0.258 0.004,0.003 0.288,0.537 0.189,0.283 0.267,0.262 0.126,0.158 0.162,0.365 0.004,0.01 0.005,0.021 0.058,0.217 0.005,0.014 -0.005,0.017 -0.04,0.397 -0.041,0.122 -0.008,0.013 -0.01,0.009 -0.009,0.013 -0.117,0.06 -0.369,0.099 0.017,1.131 -2.694,1.771 -1.027,0.063 -0.343,-6.139 m -1.006,-3.528 2.723,0.756 1.748,2.894 0,0.077 -3.465,-0.199 -2.889,0.208 -0.036,-0.578 0.341,-0.404 1.578,-2.754 m 1.006,3.528 0.343,6.139 -0.948,0.045 0.064,0.946 -0.596,0.222 -0.946,0.05 -0.027,-0.582 -1.15,0.063 -0.125,-2.967 0.734,-0.007 -0.108,-2.98 -0.13,-0.721 2.889,-0.208 m 0.343,6.139 1.027,-0.063 0.197,1.195 0.207,0.278 0.163,0.262 0.221,0.537 0.158,0.441 0.036,0.695 -0.13,0.009 0.238,3.005 -2.651,0.15 -1.942,0.098 0.091,-0.158 0.027,-0.252 -0.127,-0.46 -0.333,-0.639 -0.094,-0.068 -0.069,-0.027 -0.355,-0.784 -0.501,-1.321 1.411,-1.635 0.946,-0.05 0.596,-0.222 -0.064,-0.946 0.948,-0.045 m -0.534,6.509 0.177,3.118 0.342,5.053 -3.407,0.243 -0.823,0.054 1.593,-2.772 1.127,-0.991 0.072,-0.113 0.109,-0.297 -0.067,-1.024 -0.1,-0.134 -0.919,-1.298 -0.406,0.013 -0.275,0.018 0.635,-1.772 1.942,-0.098 m -3.303,-3.611 0.501,1.321 0.355,0.784 0.069,0.027 0.094,0.068 0.333,0.639 0.127,0.46 -0.027,0.252 -0.091,0.158 -0.635,1.772 -3.655,0.208 -1.118,-4.012 -0.248,-1.483 4.295,-0.194 m -3.267,-4.958 3.376,-0.163 0.125,2.967 1.15,-0.063 0.027,0.582 -1.411,1.635 -4.295,0.194 -1.117,-1.55 -0.041,-0.884 0.387,-0.649 -0.013,-0.788 -0.045,-0.569 1.857,-0.712 m 3.836,-4.449 0.036,0.578 0.13,0.721 0.108,2.98 -0.734,0.007 -3.376,0.163 -0.095,-4.236 3.931,-0.213 m -0.935,-5.763 2.854,2.605 -1.578,2.754 -0.463,-0.343 -0.441,0.418 -1.953,-1.762 -0.824,-0.796 1.293,-1.417 -0.982,-0.73 1.582,-1.112 0.512,0.383 m -4.375,0.414 2.281,0.315 0.982,0.73 -1.293,1.417 0.824,0.796 1.953,1.762 0.441,-0.418 0.463,0.343 -0.341,0.404 -3.931,0.213 -1.181,-1.123 -0.198,-4.439 m -1.249,-5.008 0.113,-0.207 1.316,-0.329 1.857,-0.103 0.635,1.185 0.077,0.293 -0.028,0.036 -0.045,0.09 -0.147,0.5 -0.019,0.054 -0.009,0.131 0.019,0.541 0.135,0.58 0.117,0.289 0.185,0.253 0.032,0.045 0.026,0.028 0.848,0.825 -1.582,1.112 -2.281,-0.315 -1.501,-1.578 0.252,-3.43 m 5.919,-4.763 -0.726,0.886 -0.5,0.015 -0.406,0.306 -0.248,0.514 0.157,1.013 0.127,0.687 0.415,0.215 -0.045,0.159 -0.695,1.807 -0.077,-0.293 -0.635,-1.185 -1.857,0.103 -1.316,0.329 -0.113,0.207 -0.085,-2.243 0.234,-0.105 0.293,-0.459 0.131,-0.099 0.072,-0.024 0.86,0.051 0.15,-0.014 0.163,-0.091 0.066,-0.126 -0.009,-0.148 0.505,-1.091 0.235,-0.429 0.067,-0.075 0.073,-0.032 0.107,0 0.357,0.067 0.149,-0.013 0.112,-0.094 0.063,-0.1 0.078,-0.175 0.017,-0.154 0.721,-0.063 0.099,0.103 0.618,0.37 0.171,0.064 0.243,-0.163 0.171,-0.014 0.163,0.105 0.095,0.189 m -3.444,-1.902 1.775,0.432 0.257,0.078 0.252,0.121 0.19,0.112 0.978,0.591 0.041,0.072 0.009,0.076 -0.036,0.298 -0.022,0.122 -0.095,-0.189 -0.163,-0.105 -0.171,0.014 -0.243,0.163 -0.171,-0.064 -0.618,-0.37 -0.099,-0.103 -0.721,0.063 -0.017,0.154 -0.078,0.175 -0.063,0.1 -0.112,0.094 -0.149,0.013 -0.357,-0.067 -0.107,0 -0.073,0.032 -0.067,0.075 -0.235,0.429 -0.505,1.091 0.009,0.148 -0.066,0.126 -0.163,0.091 -0.15,0.014 -0.86,-0.051 -0.072,0.024 -0.131,0.099 -0.293,0.459 -0.234,0.105 -2.254,1.315 -0.166,-4.2 2.867,-0.979 2.113,-0.558 m 2.718,2.788 0.206,1.038 -0.661,1.712 -0.415,-0.215 -0.127,-0.687 -0.157,-1.013 0.248,-0.514 0.406,-0.306 0.5,-0.015 m -7.532,2.949 2.254,-1.315 0.085,2.243 -0.252,3.43 -3.172,0.171 -2.732,0.064 -0.059,-1.582 -0.144,-2.309 -0.126,-2.464 0.442,-0.139 0.112,0.012 0.838,0.681 0.063,0.122 2.691,1.086 m 2.087,4.358 1.501,1.578 0.198,4.439 -4.602,0.181 -0.269,-6.027 3.172,-0.171 m 1.699,6.017 1.181,1.123 0.095,4.236 -1.857,0.712 -0.181,0.023 -0.293,-1.874 -0.099,-2.439 -1.932,0.094 -1.971,0.307 -0.057,-1.421 0.512,-0.58 4.602,-0.181 m -5.057,2.182 1.971,-0.307 1.932,-0.094 0.099,2.439 0.293,1.874 0.181,-0.023 0.045,0.569 0.013,0.788 -0.387,0.649 0.041,0.884 -2.461,-0.46 -0.744,-0.992 -1.077,-3.064 -0.371,0.009 -0.049,-1.123 -1.044,0.009 -0.042,-1.14 1.6,-0.018 m 1.727,6.319 2.461,0.46 1.117,1.55 0.248,1.483 -2.313,0.108 -1.594,-0.04 -0.74,0.022 -1.136,-0.726 -0.072,-2.627 1.095,-0.063 0.934,-0.167 m -0.821,3.583 0.74,-0.022 1.594,0.04 2.313,-0.108 1.118,4.012 -2.142,0.116 -3.514,0.199 -0.109,-4.237 m -5.588,-0.573 4.452,-0.153 1.136,0.726 0.109,4.237 -2.885,0.153 -0.441,0.013 -2.287,0.082 -0.062,-1.375 0.018,-2.371 -0.04,-1.312 m -0.204,-6.941 4.421,-0.116 0.371,-0.009 1.077,3.064 0.744,0.992 -0.934,0.167 -1.095,0.063 0.072,2.627 -4.452,0.153 -0.073,-2.082 -0.131,-4.859 m 4.829,-3.809 0.057,1.421 -1.6,0.018 0.042,1.14 1.044,-0.009 0.049,1.123 -4.421,0.116 -1.098,0.033 -0.1,-2.268 -0.551,0.022 -0.081,-2.501 2.803,-0.094 2.232,-0.086 0.032,1.131 1.592,-0.046 m -2.489,-6.543 2.732,-0.064 0.269,6.027 -0.512,0.58 -1.592,0.046 -0.032,-1.131 -2.232,0.086 -0.278,-4.72 1.645,-0.824 m -0.329,-6.355 0.126,2.464 0.144,2.309 0.059,1.582 -1.645,0.824 -0.964,0.032 -0.226,-1.75 -0.203,-5.393 2.208,-0.181 0.501,0.113 m 0.856,-3.863 0.757,-0.018 0.568,0.739 0.749,0.735 1.05,-0.031 0.166,4.2 -2.691,-1.086 -0.063,-0.122 -0.838,-0.681 -0.112,-0.012 -0.442,0.139 -0.501,-0.113 -0.054,-1.763 1.5,-0.053 -0.089,-1.934 m 5.255,-3.29 0.464,1.582 -0.008,0.162 -0.271,0.419 -0.01,0.041 0.025,0.09 0,0.005 0.536,1.437 -2.867,0.979 -1.05,0.031 -0.749,-0.735 -0.568,-0.739 -0.757,0.018 -0.054,-1.91 0.743,-0.027 -0.036,-1.15 1.781,-0.055 2.821,-0.148 m -4.794,-4.616 2.375,2.466 2.419,2.15 -2.821,0.148 -1.781,0.055 0.036,1.15 -0.743,0.027 -1.478,0.035 -0.401,-2.271 -0.299,-1.705 2.44,-2.041 0.253,-0.014 m -0.515,5.996 0.054,1.91 0.089,1.934 -1.5,0.053 0.054,1.763 -2.208,0.181 -0.068,0.009 -0.081,-4.625 2.182,-1.19 1.478,-0.035 m -10.525,-2.241 5.869,-0.135 0,0.193 1.469,-0.049 1.308,-0.004 0.401,2.271 -2.182,1.19 -4.733,0.139 -0.04,-2.284 -2.083,-0.004 -0.009,-1.317 m 5.712,-4.273 3.938,-0.54 1.39,1.058 -0.253,0.014 -2.44,2.041 0.299,1.705 -1.308,0.004 -1.469,0.049 0,-0.193 -0.157,-4.138 m 2.37,-3.852 0.983,2.383 0.585,0.929 -3.938,0.54 -1.303,0.05 -0.099,-3.768 3.772,-0.134 m -0.63,-3.917 -0.06,0.631 0.69,3.286 -3.772,0.134 -1.104,0.032 -0.149,-3.993 4.395,-0.09 m -2.309,-4.446 0.203,0.127 0.771,0.582 0.023,0.085 -0.032,0.262 0.036,0.09 0.982,1.208 0.407,0.329 0.639,0.046 -0.72,1.717 -4.395,0.09 -0.017,-0.568 -0.105,-3.962 2.208,-0.006 m -2.208,0.006 0.105,3.962 -3.886,0.13 -0.046,-0.568 -0.13,-3.254 1.658,-0.108 2.299,-0.162 m -3.781,4.092 3.886,-0.13 0.017,0.568 0.149,3.993 -3.29,0.098 -0.605,-1.081 -0.157,-3.448 m 4.052,4.431 1.104,-0.032 0.099,3.768 -3.335,0.081 0.018,0.767 -1.113,0.027 -0.063,-4.513 3.29,-0.098 m 2.506,3.686 0.157,4.138 -5.869,0.135 -0.04,-3.348 0.019,0 1.113,-0.027 -0.018,-0.767 3.335,-0.081 1.303,-0.05 m -3.58,7.878 4.733,-0.139 0.081,4.625 -0.486,-0.037 -0.325,0.037 -1.298,0.554 -0.089,0.058 -0.073,0.081 -0.072,0.132 -0.798,0.757 -0.397,0.296 -2.159,-0.851 -0.076,-0.717 0.509,-0.892 0.055,-1.897 0.193,-1.88 0.054,-0.121 0.148,-0.006 m 4.814,4.486 0.068,-0.009 0.203,5.393 -2.403,0.092 -1.41,0.076 -1.722,0.024 -0.009,-0.564 1.735,-3.134 0.397,-0.296 0.798,-0.757 0.072,-0.132 0.073,-0.081 0.089,-0.058 1.298,-0.554 0.325,-0.037 0.486,0.037 m 0.271,5.384 0.226,1.75 0.04,1.334 -1.439,0.041 -1.212,0.072 -0.428,0.199 -0.816,0.383 -1.658,-0.005 -0.036,-1.884 -0.163,0 -0.049,-1.698 1.722,-0.024 1.41,-0.076 2.403,-0.092 m 0.226,1.75 0.964,-0.032 0.278,4.72 -2.803,0.094 0.081,2.501 -2.235,0.05 -0.14,-5.304 0.816,-0.383 0.428,-0.199 1.212,-0.072 1.439,-0.041 -0.04,-1.334 m -3.715,7.333 2.235,-0.05 0.551,-0.022 0.1,2.268 1.098,-0.033 0.131,4.859 -2.051,0.072 -1.27,-0.013 -1.105,0.036 -1.659,0.027 -0.049,-2.064 -0.068,-0.473 -0.103,-2.831 -0.04,-1.712 2.23,-0.064 m -5.115,-10.537 0.92,0 -0.009,1.091 1.59,0.18 0.559,-0.189 0.009,0.564 0.049,1.698 0.163,0 0.036,1.884 -2.227,0.023 -0.905,0.018 -0.582,-0.366 -0.189,-0.185 -0.283,-0.564 -0.015,-0.374 -0.095,-0.4 -0.379,-0.537 -0.562,-0.099 0.612,-2.735 1.308,-0.009 m 0.851,-4.084 1.785,1.181 2.159,0.851 -1.735,3.134 -0.559,0.189 -1.59,-0.18 0.009,-1.091 -0.92,0 0.851,-4.084 m 0.545,-6.62 2.083,0.004 0.04,2.284 -0.148,0.006 -0.054,0.121 -0.193,1.88 -0.055,1.897 -0.509,0.892 0.076,0.717 -1.785,-1.181 -1.122,-2.334 -0.613,-0.613 1.132,-3.66 1.148,-0.013 m 29.996,36.272 -0.736,2.019 -0.91,2.466 -2.339,0.176 -0.342,-5.053 0.496,0 1.581,-0.1 0.758,-0.292 0.747,-0.135 0.204,0.086 0.541,0.833 m -1.961,-6.674 1.749,-0.248 2.181,2.938 -0.798,1.789 -0.698,0.069 0.101,-0.19 0.016,-0.032 0.013,-0.049 0.032,-0.127 0.009,-0.035 0,-0.055 -0.004,-0.022 0,-0.005 -0.032,-0.14 -0.063,-0.149 -0.006,-0.013 -0.066,-0.103 -0.014,-0.009 -0.022,-0.018 -0.027,-0.018 -0.158,-0.045 -0.288,-0.045 -0.189,0.026 -0.064,0.04 -0.118,0.158 -0.017,0.023 -0.013,0.049 -0.014,0.059 -0.01,0.045 0.01,0.041 0.01,0.054 0.004,0.009 0.112,0.239 0.014,0.014 0.229,0.328 0.082,2.096 -0.541,-0.833 -0.204,-0.086 -0.747,0.135 -0.758,0.292 -1.581,0.1 -0.496,0 -0.177,-3.118 2.651,-0.15 -0.238,-3.005 0.13,-0.009 m 8.487,-87.673 1.122,-0.085 0.108,1.325 -0.121,0.956 0.175,2.258 -3.316,0.238 -0.186,-2.262 0.158,-0.013 -0.167,-2.241 2.227,-0.176 m 1.122,-0.085 2.29,-0.203 0.063,0.649 -0.099,0.419 -0.154,0.357 -0.23,0.401 -0.071,0.157 -0.059,0.181 -0.032,0.144 -0.19,1.564 0.033,0.184 0.171,0.487 0.045,0.068 -1.605,0.131 -0.175,-2.258 0.121,-0.956 -0.108,-1.325 m 1.767,4.408 0.992,4.448 -2.277,0.189 -0.32,-4.506 1.605,-0.131 m -1.605,0.131 0.32,4.506 -2.221,0.199 -2.208,0.167 -0.307,-4.566 1.1,-0.068 3.316,-0.238 m -8.842,0.621 4.426,-0.315 0.307,4.566 -2.218,0.171 -2.228,0.113 -0.287,-4.535 m 0.725,-5.71 1.123,-0.081 3.388,-0.235 0.073,0.848 0.022,0.279 0.167,2.241 -0.158,0.013 0.186,2.262 -1.1,0.068 -4.426,0.315 -0.085,-1.121 -0.312,-4.499 1.122,-0.09 m 4.008,9.961 2.208,-0.167 0.248,2.988 0.134,1.501 -3.803,0.316 -0.654,0.045 -0.351,-4.512 2.218,-0.171 m 4.429,-0.366 2.277,-0.189 0.401,2.232 -1.854,0.144 -1.748,0.149 0.064,0.757 -1.113,0.094 -0.248,-2.988 2.221,-0.199 m -1.973,3.187 1.113,-0.094 -0.064,-0.757 1.748,-0.149 1.854,-0.144 0.244,2.285 -3.778,0.261 -0.983,0.099 -0.134,-1.501 m -4.674,-2.65 0.351,4.512 -1.55,0.103 -4.026,0.221 -0.342,-4.457 3.339,-0.266 2.228,-0.113 m -2.6,-5.543 0.085,1.121 0.287,4.535 -3.339,0.266 -4.422,0.139 -0.292,-4.506 1.027,-1.196 3.336,-0.242 0.013,0.166 2.408,-0.189 0.897,-0.094 m -2.539,-4.467 1.1,-0.086 0.008,0.153 1.119,-0.099 0.312,4.499 -0.897,0.094 -2.408,0.189 -0.013,-0.166 -3.336,0.242 -0.072,-0.103 0.023,-0.176 0.374,-0.617 0.086,-0.027 0.135,0.017 0.099,-0.031 0.226,-0.112 0.171,-0.154 -0.141,-2.299 -0.063,-0.053 -1.266,-0.374 -0.476,-0.528 1.724,-0.135 3.295,-0.234 m -4.85,10.528 4.422,-0.139 0.342,4.457 -0.338,0.021 -4.123,0.213 -0.266,-3.988 -0.037,-0.564 m -5.507,0.919 5.544,-0.355 0.266,3.988 -0.843,0.049 -4.728,0.275 -0.239,-3.957 m -2.515,-4.515 2.194,-0.505 0.321,5.02 0.239,3.957 -2.027,0.1 0.036,-0.062 -0.006,-0.073 -0.103,-0.325 -0.6,-1.091 -0.068,-0.068 -0.108,-0.053 -0.473,-0.113 -1.221,-0.234 -0.496,-0.118 -0.262,-0.121 -0.761,-0.505 -0.117,-0.243 -0.861,-1.912 -0.211,-0.986 0.91,-0.141 0.076,-0.03 2.862,-1.835 0.676,-0.662 m 7.73,-0.91 0.292,4.506 0.037,0.564 -5.544,0.355 -0.321,-5.02 2.242,0.343 3.294,-0.748 m -12.945,-2.07 5.013,-0.265 0.202,3.245 -0.676,0.662 -2.862,1.835 -0.076,0.03 -0.91,0.141 -0.2,-1.226 0.245,-0.951 0.72,-1.213 0.036,-0.161 -0.283,-0.455 -0.217,-0.275 -1.001,-0.704 0.009,-0.663 m 8.248,-2.154 1.11,-0.081 0.301,5.02 -0.008,0.033 -2.242,-0.343 -2.194,0.505 -0.202,-3.245 -0.122,-1.682 3.357,-0.207 m -0.081,-1.122 4.901,-0.307 0.476,0.528 1.266,0.374 0.063,0.053 0.141,2.299 -0.171,0.154 -0.226,0.112 -0.099,0.031 -0.135,-0.017 -0.086,0.027 -0.374,0.617 -0.023,0.176 0.072,0.103 -1.027,1.196 -3.294,0.748 0.008,-0.033 -0.301,-5.02 -1.11,0.081 -0.081,-1.122 m 69.265,2.88 2.28,-0.364 0.442,2.442 0.05,0.306 -0.919,3.16 -1.997,0.32 -0.937,-5.648 1.081,-0.216 m -1.081,0.216 0.937,5.648 -4.38,0.746 -1.05,0.178 -0.798,-4.484 -0.176,-1.133 1.1,-0.17 1.094,-0.235 3.273,-0.55 m -5.291,2.088 0.798,4.484 -4.382,0.658 -0.09,0.008 -0.731,-4.506 2.197,-0.334 2.208,-0.31 m -6.328,0.891 1.923,-0.247 0.731,4.506 -4.326,0.572 -0.56,-4.479 2.232,-0.352 m 2.654,4.259 0.09,-0.008 0.568,4.533 -2.194,0.258 -3.274,0.437 -0.626,-4.521 1.11,-0.127 4.326,-0.572 m 5.522,-0.844 0.71,4.477 -2.212,0.329 -3.362,0.563 -0.568,-4.533 4.382,-0.658 1.05,-0.178 m 4.38,-0.746 1.997,-0.32 -0.077,0.693 -0.035,0.122 -0.217,0.519 -0.31,0.207 -0.262,0.131 -0.239,0.064 -0.036,0.007 -0.411,0.212 -0.13,0.14 -0.127,0.257 -0.207,0.703 0.004,0.044 0,0.042 0.055,0.744 -0.068,1.176 -0.167,0.761 -1.068,-0.662 -0.081,-0.036 -1.185,0.171 -1.106,0.248 -0.71,-4.477 4.38,-0.746 m -11.438,6.373 0.602,4.719 -0.364,0.058 -3.854,0.59 -0.279,-0.801 -0.487,-4.027 1.108,-0.102 3.274,-0.437 m 5.556,-0.821 0.699,4.602 -1.109,0.194 -4.544,0.744 -0.602,-4.719 2.194,-0.258 3.362,-0.563 m 2.212,-0.329 1.106,-0.248 1.185,-0.171 0.081,0.036 1.068,0.662 -1.073,1.367 -0.513,0.918 -0.406,0.739 -0.04,0.078 -0.014,0.058 0.017,0.996 -2.924,0.496 -0.699,-4.602 2.212,-0.329 m -35.906,24.978 4.204,-0.365 0.149,1.411 -1.203,0.776 -0.239,0.198 -1.554,1.632 -0.132,0.251 -0.009,0.068 0.05,0.121 0.306,0.329 -1.239,-0.156 -0.333,-4.265 m 4.082,-1.491 3.143,-0.294 0.70702,-0.0628 0.19798,1.67176 0.266,2.818 -3.863,0.365 -0.18,-1.961 -0.149,-1.411 -0.122,-1.126 m 0.451,4.498 0.334,3.389 -3.223,0.302 -0.072,-2.277 -0.306,-0.329 -0.05,-0.121 0.009,-0.068 0.132,-0.251 1.554,-1.632 0.239,-0.198 1.203,-0.776 0.18,1.961 m 3.863,-0.365 0.045,0.464 0.334,3.308 0.072,0.748 -3.078,0.276 -0.902,-1.042 -0.334,-3.389 3.863,-0.365 m -0.266,-2.818 3.096,-0.306 0.645,-0.063 0.059,0.559 0.297,0.162 0.365,-0.041 0.216,2.042 0.05,0.456 -4.417,0.473 -0.045,-0.464 -0.266,-2.818 m 8.153,-0.135 0.226,2.061 -3.701,0.427 -0.216,-2.042 3.655,-0.811 0.036,0.365 m 2.755,-0.311 0.45,3.904 0.185,1.694 -2.79,0.334 -0.374,-3.56 -0.226,-2.061 2.755,-0.311 m 3.479,-0.387 0.117,0.932 0.384,2.966 -3.53,0.393 -0.45,-3.904 1.302,-0.139 2.177,-0.248 m 0.117,0.932 4.024,-0.509 0.398,3.944 -3.81,0.451 -0.228,-0.92 -0.384,-2.966 m -9.826,2.254 3.701,-0.427 0.374,3.56 -0.712,0.289 -2.956,0.329 -0.357,-3.295 -0.05,-0.456 m 0.05,0.456 0.357,3.295 -0.835,0.107 -3.605,0.379 -0.334,-3.308 4.417,-0.473 m -0.478,3.402 0.384,3.778 -0.095,0.009 -1.271,0.153 0.041,0.378 -1.88,0.185 -0.166,-0.365 -0.294,-1.249 -0.171,-1.771 -0.081,0.009 -0.072,-0.748 3.605,-0.379 m 3.791,-0.436 0.18,2.987 0.077,0.763 -2.916,0.364 -0.748,0.1 -0.384,-3.778 0.835,-0.107 2.956,-0.329 m 3.502,-0.623 0.026,2.078 -0.229,1.177 -3.119,0.355 -0.18,-2.987 0.712,-0.289 2.79,-0.334 m -0.185,-1.694 3.53,-0.393 0.228,0.92 0.127,2.812 -0.784,0.099 -2.89,0.334 -0.026,-2.078 -0.185,-1.694 m 7.568,0.076 0.117,1.141 0.274,2.46 -2.136,0.407 -1.474,0.157 -0.094,-0.942 -0.37,0.04 -0.127,-2.812 3.81,-0.451 m -1.745,4.008 2.136,-0.407 0.235,2.056 0.068,0.585 -2.174,0.199 -0.265,-2.433 m -2.722,-0.646 0.784,-0.099 0.37,-0.04 0.094,0.942 1.474,-0.157 0.265,2.433 -2.573,0.307 -0.414,-3.386 m -2.89,0.334 2.89,-0.334 0.527,4.314 -3.263,0.37 -0.383,-3.173 0.229,-1.177 m -3.348,1.532 3.119,-0.355 0.383,3.173 -0.397,1.388 -2.627,0.32 -0.401,-3.763 -0.077,-0.763 m 0.077,0.763 0.401,3.763 -1.311,0.175 -1.637,0.204 -0.369,-3.778 2.916,-0.364 m -2.916,0.364 0.369,3.778 -1.275,0.157 -2.465,0.139 -0.713,-1.527 0.131,-1.722 1.88,-0.185 -0.041,-0.378 1.271,-0.153 0.095,-0.009 0.748,-0.1 m -7.743,-2.275 3.078,-0.276 0.081,-0.009 0.171,1.771 0.294,1.249 0.166,0.365 -0.131,1.722 -2.492,0.202 -0.88,-1.636 -0.287,-3.388 m -0.902,-1.042 0.902,1.042 0.287,3.388 -1.833,0.145 -1.803,0.153 -0.104,-1.006 0.085,-2.307 -0.179,-0.356 -0.127,-0.167 -0.451,-0.59 3.223,-0.302 m -3.295,-1.975 0.072,2.277 0.451,0.59 0.127,0.167 0.179,0.356 -0.085,2.307 0.104,1.006 -1.47,0.14 -0.329,-3.569 -0.288,-3.43 1.239,0.156 m 2.651,6.55 0.094,1.131 -0.378,0.022 0.296,3.39 -3.591,0.32 0.46,-2.885 -0.154,-1.685 1.47,-0.14 1.803,-0.153 m 0,0 1.833,-0.145 0.88,1.636 0.134,1.7 -1.094,0.095 0.203,2.262 -1.844,0.122 -0.1,-1.127 -0.296,-3.39 0.378,-0.022 -0.094,-1.131 m 2.713,1.491 2.492,-0.202 0.713,1.527 -0.284,2.408 -3.678,0.324 -0.203,-2.262 1.094,-0.095 -0.134,-1.7 m 3.205,1.325 2.465,-0.139 1.009,3.696 0.081,0.748 -3.614,0.343 -0.225,-2.24 0.284,-2.408 m 3.74,-0.296 1.637,-0.204 0.45,3.795 -2.353,0.262 -1.009,-3.696 1.275,-0.157 m 5.575,-0.699 0.288,2.835 -1.022,0.929 -2.754,0.526 -0.45,-3.795 1.311,-0.175 2.627,-0.32 m 0.397,-1.388 3.263,-0.37 0.28,2.388 -1.307,1.1 -2.345,1.105 -0.288,-2.835 0.397,-1.388 m 7.897,-1.804 0.288,2.804 -2.426,0.257 -2.216,0.761 -0.28,-2.388 -0.113,-0.928 2.573,-0.307 2.174,-0.199 m -2.138,3.061 2.426,-0.257 0.297,2.579 -0.459,1.036 -2.39,1.356 0.126,-4.714 m 0,0 -0.126,4.714 -0.003,0.243 -0.645,0.281 -2.394,0.278 -0.355,-3.655 1.307,-1.1 2.216,-0.761 m -3.523,1.861 0.355,3.655 -0.919,0.112 -0.18,0.408 -0.1,0.305 -0.315,0.505 -0.712,0.193 -1.095,0.222 -0.401,-3.366 1.022,-0.929 2.345,-1.105 m -6.121,2.56 2.754,-0.526 0.401,3.366 -0.825,1.045 -3.88,0.024 -0.722,-2.899 -0.081,-0.748 2.353,-0.262 m -5.886,1.353 3.614,-0.343 0.722,2.899 -0.23,1.008 -3.723,0.397 -0.275,-2.825 -0.108,-1.136 m -3.903,-1.916 3.678,-0.324 0.225,2.24 0.108,1.136 -2.195,0.219 -1.929,0.186 -1.415,0.081 -0.316,-3.416 1.844,-0.122 m -1.944,-1.005 0.1,1.127 0.316,3.416 -2.908,0.339 0.059,-0.081 0.072,-0.204 0.027,-0.411 -0.716,-1.279 -0.469,-0.551 -0.203,-0.693 0.131,-1.343 3.591,-0.32 m 0.416,4.543 1.415,-0.081 -0.288,0.23 -0.843,1.171 -0.176,0.348 -0.135,1.058 0.45,1.975 -0.117,0.185 -0.131,0.131 -0.172,0.153 -0.129,0.035 -0.546,-0.368 -0.067,-0.019 -0.663,0.104 -0.365,0.131 -2.637,1.779 0.717,-2.064 0.194,-0.528 0.789,-1.009 0.08,-0.067 0.099,-0.181 0.141,-0.82 0.004,-0.315 -0.384,-0.825 -0.022,-0.036 -0.041,-0.005 -0.081,-0.643 2.908,-0.339 m 1.415,-0.081 1.929,-0.186 0.297,5.194 -1.491,0.008 -1.727,-0.234 -0.45,-1.975 0.135,-1.058 0.176,-0.348 0.843,-1.171 0.288,-0.23 m 1.929,-0.186 2.195,-0.219 0.275,2.825 0.211,2.073 -2.384,0.515 -0.297,-5.194 m 6.193,2.209 0.351,3.431 0.036,0.374 -1.433,0.112 -2.29,0.251 -0.176,-1.698 -0.211,-2.073 3.723,-0.397 m 0.23,-1.008 3.88,-0.024 0.644,2.196 0.023,0.179 -0.144,0.393 -0.167,0.213 -0.622,0.084 -0.437,0.221 0.081,0.911 -0.379,0.044 -2.222,0.171 -0.536,0.051 -0.351,-3.431 0.23,-1.008 m 5.8,-1.291 0.081,0.708 0.222,0.284 0.323,0.343 0.298,0.163 0.387,0.144 0.113,0.938 -2.7,0.883 -0.644,-2.196 0.825,-1.045 1.095,-0.222 m 2.226,-1.523 2.394,-0.278 0.347,2.866 -1.393,-0.483 -0.698,2.095 -1.452,-0.097 -0.113,-0.938 -0.387,-0.144 -0.298,-0.163 -0.323,-0.343 -0.222,-0.284 -0.081,-0.708 0.712,-0.193 0.315,-0.505 0.1,-0.305 0.18,-0.408 0.919,-0.112 m 3.039,-0.559 3.388,-0.013 0.136,0.563 -2.182,1.475 -1.64,1.122 -0.347,-2.866 0.645,-0.281 m 0.003,-0.243 2.39,-1.356 0.995,1.586 -3.388,0.013 0.003,-0.243 m -3.844,4.905 1.452,0.097 0.031,0.813 -1.839,2.082 -1.401,1.352 0.221,-0.829 -0.55,-0.649 -1.582,0.179 -0.288,-0.067 -0.01,-0.094 -0.081,-0.911 0.437,-0.221 0.622,-0.084 0.167,-0.213 0.144,-0.393 -0.023,-0.179 2.7,-0.883 m -3.966,2.884 0.01,0.094 0.288,0.067 1.582,-0.179 0.55,0.649 -0.221,0.829 -0.938,1.546 -0.013,-0.099 -0.645,-0.907 -0.207,-0.171 -0.41,-0.302 -0.032,0 -0.221,-0.356 -0.122,-1.127 0.379,-0.044 m -0.379,0.044 0.122,1.127 0.221,0.356 0.032,0 0.41,0.302 0.207,0.171 0.645,0.907 0.013,0.099 -0.248,2.267 -0.487,0.166 -0.301,0.099 -1.456,-0.072 -0.072,-0.009 -0.438,-0.172 -0.455,-0.301 -0.049,-0.031 -0.023,-0.036 -0.059,-0.09 -0.072,-0.252 -0.009,-0.023 -0.004,-0.059 -0.004,-0.09 0,-0.023 0.031,-0.364 -0.226,-3.801 2.222,-0.171 m -2.758,0.222 0.536,-0.051 0.226,3.801 -2.033,1.306 0.199,-0.679 -0.163,-1.426 -1.177,-0.662 -1.09,0.153 -0.185,-1.705 2.29,-0.251 1.433,-0.112 -0.036,-0.374 m -3.863,-0.961 0.176,1.698 0.185,1.705 0.028,0.194 -1.136,0.095 0.062,0.568 -2.262,0.239 -0.59,-0.325 -0.338,-3.651 1.491,-0.008 2.384,-0.515 m -5.602,0.289 1.727,0.234 0.338,3.651 -2.457,0.055 -0.154,-1.736 -0.085,-0.036 -0.531,0.09 -0.14,0.05 -0.591,-0.713 -0.22,-0.365 -0.077,-0.878 0.365,-0.131 0.663,-0.104 0.067,0.019 0.546,0.368 0.129,-0.035 0.172,-0.153 0.131,-0.131 0.117,-0.185 m -4.827,2.131 2.637,-1.779 0.077,0.878 0.22,0.365 0.591,0.713 0.14,-0.05 0.531,-0.09 0.085,0.036 0.205,2.308 -1.498,0.144 0.032,0.464 -2.218,0.157 -2.744,-0.567 1.942,-2.579 m -1.942,2.579 2.744,0.567 0.181,3.476 -2.286,0.181 -0.901,1.419 -0.509,-1.141 0.483,-0.018 0.017,-0.003 0.022,-0.015 0.006,-0.009 0.027,-0.055 0.144,-2.987 0.058,-1.352 0.014,-0.063 m 2.744,0.567 2.218,-0.157 0.005,0.568 0.089,1.127 0.235,-0.023 0.099,1.217 -2.465,0.744 -0.181,-3.476 m 3.633,-1.337 2.457,-0.055 0.59,0.325 -0.451,1.216 -1.708,2.579 -0.017,0.049 0.049,0.622 -0.361,-0.252 -1.546,-0.415 -0.099,-1.217 -0.235,0.023 -0.089,-1.127 -0.005,-0.568 -0.032,-0.464 1.498,-0.144 -0.051,-0.572 m 5.309,0.031 0.033,2.7 -1.569,1.04 -0.627,0.587 -0.753,1.36 -1.473,-0.982 -0.049,-0.622 0.017,-0.049 1.708,-2.579 0.451,-1.216 2.262,-0.239 m 1.046,-0.857 1.09,-0.153 1.177,0.662 0.163,1.426 -0.199,0.679 -0.059,0.008 -0.207,0.038 -0.054,0.031 -0.041,0.058 -0.017,0.141 0.076,0.77 -0.658,1.5 -0.28,0.217 -0.134,0.045 -0.077,-0.005 -1.793,-1.86 -0.033,-2.7 -0.062,-0.568 1.136,-0.095 -0.028,-0.194 m -21.935,-95.861 2.131,0.573 0.171,0.139 0.014,0.01 0.023,0.022 0.27,0.333 0.09,2.326 0.798,3.836 0.005,0.009 0.08,0.265 0.041,0.068 0.712,0.753 0.009,0.004 0.234,0.04 0.41,0.064 -1.401,1.798 -1.705,-0.202 -1.639,-0.262 -0.072,-1.113 -1.974,-3.259 -1.109,0.055 -0.333,-4.44 2.234,-0.126 1.073,-0.023 -0.062,-0.87 m -5.86,-2.551 0.185,0.329 1.577,-0.167 2.623,0.329 0.02,0.005 0.224,0.036 0.343,0.166 0.212,0.141 0.139,0.089 0.265,0.379 0.028,0.041 0.013,0.045 -0.126,0.216 -0.144,0.203 -0.063,0.05 -0.158,0.202 -0.005,0.009 -0.013,0.045 0.058,0.113 0.009,0.005 0.344,0.279 0.076,0.018 0.122,0.032 0.009,0.004 0.122,-0.018 0.062,0.87 -1.073,0.023 -2.234,0.126 -2.259,0.171 -0.24,-3.313 -0.116,-0.428 m -2.289,-0.586 2.289,0.586 0.116,0.428 0.24,3.313 2.259,-0.171 0.333,4.44 -2.262,0.157 -2.25,0.171 -0.059,-1.113 -1.113,0.086 -0.415,-5.53 -0.085,-1.118 1.027,-0.072 -0.08,-1.177 m 5.237,8.596 1.109,-0.055 1.974,3.259 0.072,1.113 1.639,0.262 1.705,0.202 -0.059,0.014 -0.405,0.18 -0.055,0.045 -0.157,0.261 -1.086,2.835 -0.023,0.438 0.009,0.112 -2.312,0.171 -0.236,-2.221 -2.198,0.139 -0.099,-1.375 -0.118,-1.996 -1.432,0.108 -0.06,-1.126 -0.383,0.027 -0.147,-2.236 2.262,-0.157 m -4.683,4.867 -0.091,-1.149 3.102,-0.226 1.432,-0.108 0.118,1.996 0.099,1.375 -2.258,0.162 -0.077,-1.117 -2.24,0.171 -0.085,-1.104 m 0,0 0.085,1.104 2.24,-0.171 0.077,1.117 2.258,-0.162 2.198,-0.139 0.236,2.221 0.077,1.222 -3.313,0.19 -0.081,-1.132 -5.661,0.383 -0.32,-4.48 2.204,-0.153 m 3.858,5.382 3.313,-0.19 0.495,-0.068 0.302,3.701 0.046,0.743 -1.948,0.127 -3.091,0.256 -0.195,-2.898 -0.117,-1.577 1.195,-0.094 m 3.236,-1.412 2.312,-0.171 -0.095,0.189 -0.261,1.204 -0.004,0.081 0.369,0.325 0.329,0.085 0.248,-0.013 0.126,-0.09 0.099,-0.167 0.122,-0.28 0.012,-0.067 -0.048,-0.09 0.018,-0.045 0.288,-0.334 0.5,-0.405 0.415,-0.14 0.32,4.087 -0.558,0.046 -0.56,0.045 0.095,1.122 -1.428,0.113 -1.379,0.103 -0.046,-0.743 -0.302,-3.701 -0.495,0.068 -0.077,-1.222 m 4.75,4.169 2.051,-0.184 0.433,1.23 0.027,0.244 -0.027,0.234 -0.05,0.172 -0.162,0.279 -0.198,0.216 -0.329,0.194 -0.176,0.14 -0.217,0.243 -0.243,1.122 -0.076,0.401 -0.222,1.271 -2.87,0.266 -0.392,-4.502 1.428,-0.113 -0.095,-1.122 0.56,-0.045 0.558,-0.046 m -3.83,1.429 1.379,-0.103 0.392,4.502 -1.113,0.095 -2.281,-0.424 -0.325,-3.943 1.948,-0.127 m 4.641,4.133 0.429,1.596 0.067,1.032 -0.026,0.108 -0.663,1.83 -2.29,0.203 -1.122,0.085 -0.378,-4.493 1.113,-0.095 2.87,-0.266 m -3.983,0.361 0.378,4.493 -2.227,0.176 -0.022,-0.279 -0.073,-0.848 -3.388,0.235 -1.123,0.081 -0.252,-3.38 4.475,-0.311 -0.049,-0.591 2.281,0.424 m -2.606,-4.367 0.374,4.534 -4.475,0.311 -0.086,-1.132 -0.256,-3.344 1.352,-0.113 3.091,-0.256 m -4.187,3.713 0.086,1.132 0.252,3.38 -1.122,0.09 -1.119,0.099 -0.008,-0.153 -1.1,0.086 -0.112,-1.591 0.397,-0.631 0.22,-0.843 -0.104,-1.375 2.61,-0.194 m -0.256,-3.344 0.256,3.344 -2.61,0.194 -3.97,0.289 -0.23,-3.404 3.439,-0.207 3.115,-0.216 m -3.507,-5.431 5.661,-0.383 0.081,1.132 -1.195,0.094 0.117,1.577 0.195,2.898 -1.352,0.113 -3.115,0.216 -0.392,-5.647 m -5.693,0.343 5.693,-0.343 0.392,5.647 -3.439,0.207 -1.172,0.055 -0.109,-1.64 -0.13,-1.759 -1.082,0.068 -0.153,-2.235 m 6.846,8.626 0.104,1.375 -0.22,0.843 -0.397,0.631 0.112,1.591 -3.295,0.234 -0.274,-4.385 3.97,-0.289 m -11.159,-8.361 4.313,-0.265 0.153,2.235 1.082,-0.068 0.13,1.759 0.109,1.64 -1.64,0.086 -3.774,0.243 -0.171,-2.272 -0.202,-3.358 m 2.142,-5.76 5.619,-0.356 1.925,1.028 0.32,4.48 -5.693,0.343 -4.313,0.265 -0.258,-4.493 1.069,-0.063 -0.045,-0.744 0.496,-0.406 0.88,-0.054 m 5.321,-4.835 3.426,-0.212 1.113,-0.086 0.059,1.113 2.25,-0.171 0.147,2.236 0.383,-0.027 0.06,1.126 -3.102,0.226 0.091,1.149 -2.204,0.153 -1.925,-1.028 -0.298,-4.479 m 0,0 0.298,4.479 -5.619,0.356 -0.199,-3.367 -0.149,-2.226 3.348,-0.225 2.213,-0.149 0.108,1.132 m 3.011,-5.742 0.415,5.53 -3.426,0.212 -0.108,-1.132 -2.213,0.149 -3.348,0.225 -0.27,-4.399 6.116,-0.428 1.717,0.379 1.117,-0.536 m -8.262,-4.657 6.464,1.326 0.486,0.099 0.38,0.081 0.613,0.207 0.635,0.311 0.546,0.266 0.08,1.177 -1.027,0.072 0.085,1.118 -1.117,0.536 -1.717,-0.379 -6.116,0.428 -0.081,-1.09 1.037,-0.068 -0.268,-4.084 m 21.405,19.367 3.318,-0.274 -0.506,0.955 -0.216,0.708 -0.095,0.536 -0.333,2.416 -2.051,0.184 -0.32,-4.087 0.203,-0.438 m 0,0 0.086,-0.626 0.666,-1.212 0.217,-0.343 2.398,-2.754 1.668,-3.042 0.482,-0.42 0.297,-0.197 0.212,-0.005 0.098,0.023 0.055,0.054 0.086,0.153 0.013,0.414 -0.027,0.248 -0.464,1.835 -0.27,0.414 -0.794,1.808 -1.18,2.785 -0.225,0.591 -3.318,0.274 m -22.846,13.936 0.067,1.168 0.081,1.122 -3.357,0.207 0.122,1.682 -5.013,0.265 -0.162,-0.996 -0.617,-2.889 3.326,-0.166 5.553,-0.393 m -8.032,-4.069 1.659,0.031 0.553,-0.036 0.126,1.844 0.141,2.623 -3.326,0.166 -0.226,-1.559 -1.347,-1.713 0.906,-0.045 0,-0.063 -0.068,-0.144 -0.085,-0.068 -0.059,-0.099 0.019,-0.248 0.012,-0.045 0.266,-0.379 1.099,-0.32 0.33,0.055 m 1.659,0.031 -0.064,-0.762 0.249,-0.239 0.446,-0.167 0.977,-0.063 3.214,-0.207 1.223,0 0.328,5.476 -5.553,0.393 -0.141,-2.623 -0.126,-1.844 -0.553,0.036 m 5.975,-2.641 3.774,-0.243 -0.898,1.726 -0.135,0.401 0.582,2.285 0.215,0.59 0.848,0.902 0.98,1.879 -4.901,0.307 -0.067,-1.168 -0.328,-5.476 -0.07,-1.203 m 6.586,-0.384 0.23,3.404 0.274,4.385 -1.724,0.135 -0.98,-1.879 -0.848,-0.902 -0.215,-0.59 -0.582,-2.285 0.135,-0.401 0.898,-1.726 1.64,-0.086 1.172,-0.055 m -9.316,-29.385 1.018,0.554 1.812,2.227 0.829,0.175 0.91,0.189 0.268,4.084 -1.037,0.068 -2.318,0.148 -0.049,-1.113 -0.095,-1.113 -1.162,-1.037 -1.131,0.063 -0.055,-1.492 -0.103,-1.839 -0.073,-1.077 1.186,0.163 m -4.552,0.009 0.085,0.022 0.077,0 0.036,-0.013 0.956,-0.582 0.211,-0.157 0.127,-0.136 1.149,0.221 0.725,0.473 0.073,1.077 0.103,1.839 0.055,1.492 1.131,-0.063 1.162,1.037 0.095,1.113 0.049,1.113 -3.366,0.194 -2.231,0.131 -0.023,-0.185 -0.09,-2.051 -0.324,-5.525 m 0,0 0.324,5.525 -5.62,0.253 -0.172,-3.529 -0.067,-1.1 -0.122,-3.061 0.127,0.01 0.229,-0.05 3.534,-1.461 0.077,-0.053 0.373,-0.275 0.113,-0.109 0.288,-0.36 0.262,-0.338 0.045,-0.036 0.852,-0.266 0.135,-0.023 0.162,0.055 0.483,0.373 0.296,0.343 0.037,0.068 0,0.063 -0.378,0.856 -0.56,0.784 -0.643,2.146 0.003,0.045 0.091,0.103 0.131,0.037 m -12.196,-0.442 0.202,0.14 0.248,0.022 0.267,-0.018 0.044,-0.027 0.041,-0.04 0.121,-0.316 -0.009,-0.144 -0.009,-0.009 -0.045,-0.05 0,-0.009 -0.031,-0.081 0.009,-0.095 0.05,-0.103 0.63,-0.429 0.24,-0.018 0.513,0.501 0.125,0.054 0.046,-0.032 0.248,0.167 0.135,0.077 0.105,0.045 0.17,0.027 1.087,-0.18 0.261,-0.073 2.091,-0.879 0.122,3.061 0.067,1.1 0.172,3.529 -4.471,0.189 -2.191,0.095 -0.121,-3.345 -0.117,-3.159 m 0.238,6.504 2.191,-0.095 0.085,2.236 0.154,-0.005 0.202,4.426 -1.118,0.045 -0.04,-1.104 -3.375,0.09 0.031,1.113 -3.224,0.09 0.367,-1.122 0.905,-1.812 0.112,-0.202 0.113,-0.149 0.448,-0.392 0.003,-0.005 1.875,-1.231 1.312,-0.819 -0.018,-0.505 -0.023,-0.559 m 2.191,-0.095 4.471,-0.189 0.41,6.679 -4.44,0.167 -0.202,-4.426 -0.154,0.005 -0.085,-2.236 m 4.471,-0.189 5.62,-0.253 0.09,2.051 0.023,0.185 2.231,-0.131 0.229,4.417 -7.783,0.41 -0.41,-6.679 m 11.33,1.658 2.318,-0.148 0.081,1.09 0.27,4.399 0.149,2.226 -0.753,0.037 -1.798,0.139 -1.213,0.118 -2.001,0.103 -0.19,-3.353 -0.229,-4.417 3.366,-0.194 m 2.818,7.567 0.199,3.367 -0.88,0.054 -0.496,0.406 0.045,0.744 -1.069,0.063 -5.547,0.347 -0.194,-3.358 2.177,-1.226 2.001,-0.103 1.213,-0.118 1.798,-0.139 0.753,-0.037 m -5.955,-2.956 0.19,3.353 -2.177,1.226 -5.597,0.28 -0.199,-4.449 7.783,-0.41 m -12.223,0.577 4.44,-0.167 0.199,4.449 -1.078,1.136 -4.466,0.171 -0.213,-5.544 1.118,-0.045 m -1.118,0.045 0.213,5.544 -5.544,0.207 0.139,-1.122 0.109,-0.099 0.012,-0.01 0.24,-0.297 0.342,-0.874 -0.18,-0.911 -0.445,-0.842 -0.713,-0.384 -0.18,0.028 -0.433,-0.073 -0.122,-0.094 -0.031,-0.253 -0.023,-0.342 -0.004,-0.085 0.012,-0.204 3.224,-0.09 -0.031,-1.113 3.375,-0.09 0.04,1.104 m 0.213,5.544 0.365,4.529 -5.721,0.158 0.07,-0.973 -0.196,-0.906 -0.224,-0.478 -0.028,-0.424 0.19,-1.699 5.544,-0.207 m 4.466,-0.171 0.342,4.529 0.104,2.227 -4.444,0.18 -0.103,-2.236 -0.365,-4.529 4.466,-0.171 m 1.078,-1.136 5.597,-0.28 0.324,5.598 -6.657,0.347 -0.342,-4.529 1.078,-1.136 m 5.791,3.078 5.547,-0.347 0.258,4.493 0.202,3.358 -1.108,0.095 -3.362,0.189 -1.173,-1.063 -0.054,-1.118 -0.18,-3.367 -0.13,-2.24 m 0.13,2.24 0.18,3.367 -2.23,0.108 -3.335,0.176 -1.114,0.045 -0.054,-1.122 -0.104,-2.227 6.657,-0.347 m -2.05,3.475 2.23,-0.108 0.054,1.118 1.173,1.063 3.362,-0.189 1.108,-0.095 0.171,2.272 0.07,1.203 -1.223,0 -3.214,0.207 -0.977,0.063 -0.446,0.167 -0.249,0.239 0.064,0.762 -1.659,-0.031 -0.126,-2.164 -0.113,0.004 -0.225,-4.511 m 0,0 0.225,4.511 0.113,-0.004 0.126,2.164 -0.33,-0.055 -1.099,0.32 -0.266,0.379 -0.012,0.045 -0.019,0.248 0.059,0.099 0.085,0.068 0.068,0.144 0,0.063 -0.906,0.045 -1.312,-0.451 0.054,-1.077 0.087,-1.812 -0.208,-4.511 3.335,-0.176 m -3.335,0.176 0.208,4.511 -0.087,1.812 -0.054,1.077 -2.907,-2.055 -2.154,-2.668 0.031,-0.361 0.32,-1.749 0.055,-0.238 0.057,-0.054 0.176,-0.09 3.241,-0.14 1.114,-0.045 m -5.612,-0.897 4.444,-0.18 0.054,1.122 -3.241,0.14 -0.176,0.09 -0.057,0.054 -0.055,0.238 -0.32,1.749 -0.031,0.361 -1.478,-0.563 -0.731,-1.091 1.591,-1.92 m -5.824,-2.078 5.721,-0.158 0.103,2.236 -1.591,1.92 -0.032,-0.049 -0.089,-0.077 -0.104,-0.05 -0.158,-0.036 -1.239,-0.049 -0.392,-0.046 -0.145,-0.067 -0.667,-0.663 -0.023,-0.126 -0.099,-0.126 -0.95,-0.807 -0.654,-0.378 0.319,-1.524 m 72.596,-11.074 -0.756,-6.382 0.18,0.262 2.456,1.176 0.762,-0.131 0.406,-0.167 1.072,0.253 0.112,0.085 -0.427,0.063 0.347,2.479 0.378,2.984 -1.086,0.136 -3.322,0.36 -0.122,-1.118 m 12.278,-0.482 -4.453,0.649 -3.295,0.455 -0.378,-2.984 -0.347,-2.479 0.427,-0.063 0.83,0.996 3.083,1.208 1.979,0.609 0.266,0.036 0.504,-0.059 0.145,-0.162 0.071,0.013 0.465,0.528 0.703,1.253 m -12.156,1.6 3.322,-0.36 0.501,4.412 -4.332,0.473 -0.472,-3.295 0.981,-1.23 m 7.703,-0.951 0.284,2.195 -0.041,0.09 -0.005,0.162 0.267,1.983 -4.385,0.573 -0.501,-4.412 1.086,-0.136 3.295,-0.455 m 4.453,-0.649 0.735,0.807 0.671,1.352 -0.044,0.049 -0.155,-0.017 -0.5,-0.131 -0.171,-0.095 -0.108,-0.14 -0.303,-0.063 -0.287,0.203 -0.062,0.095 -0.078,0.216 -0.004,0.045 0.108,0.527 0.122,0.478 0.067,0.14 0.063,0.095 0.081,0.072 0.325,0.266 0.738,0.473 -5.146,0.707 -0.267,-1.983 0.005,-0.162 0.041,-0.09 -0.284,-2.195 4.453,-0.649 m -12.665,6.125 4.332,-0.473 0.563,4.453 -4.399,0.482 -0.496,-4.462 m 4.332,-0.473 4.385,-0.573 0.586,4.453 -4.408,0.573 -0.563,-4.453 m 4.385,-0.573 5.146,-0.707 0.235,0.347 0.446,1.451 0.01,0.32 -0.067,2.326 -5.184,0.716 -0.586,-4.453 m -8.221,5.508 4.399,-0.482 0.563,4.444 -2.204,0.27 -2.235,0.257 -0.523,-4.489 m 8.807,-1.055 0.592,4.444 -2.584,0.329 -1.853,0.244 -0.563,-4.444 4.408,-0.573 m 0,0 5.184,-0.716 0.048,0.324 0.059,0.92 -0.113,1.095 -0.752,0.87 -0.171,-0.05 -0.15,0.005 -0.189,0.068 -0.071,0.049 -0.122,0.171 -0.099,0.19 -0.068,0.279 -0.041,0.834 -2.923,0.405 -0.592,-4.444 m -1.992,4.773 0.532,4.318 -1.844,0.19 0.023,0.189 -2.212,0.257 -0.556,-4.44 2.204,-0.27 1.853,-0.244 m 5.507,-0.734 0.027,0.482 0.005,0.329 -0.023,0.586 -0.779,0.919 -0.753,0.212 -0.221,0.027 -0.387,0 -0.162,0.122 -0.055,0.063 -0.18,0.257 -0.207,0.563 -0.023,0.104 -1.226,0.145 -0.149,-1.1 -1.114,0.144 -0.26,-2.119 2.584,-0.329 2.923,-0.405 m -9.008,5.688 2.212,-0.257 -0.023,-0.189 1.844,-0.19 0.404,3.3 0.114,1.117 -1.843,0.23 0.021,0.203 -2.203,0.27 -0.526,-4.484 m 3.761,-2.835 1.114,-0.144 0.149,1.1 1.226,-0.145 -0.068,1.97 1.402,1.348 1.14,0.455 0.203,1.514 -0.757,-0.095 -0.41,-0.324 -1.185,0.148 -0.676,-0.112 -0.37,-0.334 -1.092,0.118 -0.404,-3.3 -0.272,-2.199 m 10.202,2.858 -3.205,0.536 -0.114,-0.789 0.015,-0.063 0.102,-0.51 0.257,-0.82 1.109,-1.938 2.533,-1.613 0.464,-0.122 1.208,0.451 0.482,0.288 0.077,0.072 0.342,0.491 0.789,1.141 0.127,0.261 0.257,0.78 0.103,0.36 0.144,0.627 -4.69,0.848 m -3.319,-0.253 0.114,0.789 3.205,-0.536 0.585,4.475 -2.163,0.351 -0.834,1.28 0.018,0.127 -2.183,0.306 -0.459,-3.299 -0.203,-1.514 1.92,-1.979 m 3.319,0.253 4.69,-0.848 0.045,0.266 0.167,0.847 0.05,0.163 1.357,4.574 0.063,0.158 0.229,0.55 -4.56,0.825 -0.271,-1.673 -1.1,0.163 -0.085,-0.55 -0.585,-4.475 m -5.036,3.24 0.459,3.299 -2.022,1.42 -4.08,0.573 -0.555,-4.341 -0.021,-0.203 1.843,-0.23 -0.114,-1.117 1.092,-0.118 0.37,0.334 0.676,0.112 1.185,-0.148 0.41,0.324 0.757,0.095 m -8.401,1.221 2.203,-0.27 0.555,4.341 0.014,0.13 -4.372,0.518 -0.613,-4.457 2.213,-0.262 m 2.772,4.201 0.582,4.394 -2.232,0.352 -2.195,0.251 -0.527,-4.479 4.372,-0.518 m 4.066,-0.703 0.636,4.516 -2.197,0.334 -1.923,0.247 -0.582,-4.394 -0.014,-0.13 4.08,-0.573 m 2.022,-1.42 2.183,-0.306 0.657,4.394 -1.094,0.235 -1.1,0.17 0.176,1.133 -2.208,0.31 -0.636,-4.516 2.022,-1.42 m 2.183,-0.306 -0.018,-0.127 0.834,-1.28 2.163,-0.351 0.085,0.55 1.1,-0.163 0.271,1.673 0.576,3.326 -1.081,0.216 -3.273,0.55 -0.657,-4.394 m 4.435,0.302 4.56,-0.825 0.023,0.081 0.185,0.545 0.073,0.194 0.761,1.127 -0.063,3.605 -0.068,1.267 -0.041,0.315 -0.032,0.086 -0.473,0.766 -0.044,0.054 -0.159,0.046 -0.536,0.107 -0.517,-0.509 -0.034,-0.09 0.168,-0.405 0.176,-0.158 0.23,0.05 0.117,-0.164 0.036,-0.071 0.014,-0.112 -0.023,-0.122 -0.081,-0.095 -0.045,-0.022 -0.388,-0.095 -0.108,-0.023 -0.144,0.027 -0.225,0.123 -0.014,0.008 -0.05,-0.306 -0.442,-2.442 -2.28,0.364 -0.576,-3.326 m -64.159,14.899 0.325,4.003 -3.768,0.267 -0.397,-0.127 -0.175,-0.113 -0.163,-0.131 -0.009,-0.008 -0.271,-0.338 -0.007,-0.014 -0.132,-0.297 0,-0.082 0.054,-0.121 0.054,-0.365 -0.005,-0.049 -0.027,-0.042 -0.567,-0.657 -0.024,-0.023 -0.004,-0.004 -0.81,-0.564 -0.637,-0.329 -0.22,-0.158 -0.077,-0.08 -0.022,-0.065 -0.009,-0.072 0.004,-0.03 0.132,-0.226 2.027,-0.1 4.728,-0.275 m 0.843,-0.049 4.123,-0.213 0.321,3.856 -2.773,0.228 -2.189,0.181 -0.325,-4.003 0.843,-0.049 m 8.487,-0.455 0.337,4.43 -2.212,0.189 -0.049,-0.697 -2.119,0.176 -0.321,-3.856 0.338,-0.021 4.026,-0.221 m 1.55,-0.103 0.654,-0.045 0.356,4.394 -2.223,0.184 -0.337,-4.43 1.55,-0.103 m 4.457,-0.361 0.983,-0.099 0.374,4.421 -0.369,0.032 -3.326,0.27 -1.109,0.086 -0.356,-4.394 3.803,-0.316 m 0.983,-0.099 3.778,-0.261 0.004,0 0.045,0.256 0.027,1.131 -0.086,0.267 -0.036,0.045 -0.063,0.409 0,0.38 0.09,0.401 0.199,0.477 0.143,0.298 0.447,0.685 -4.174,0.333 -0.374,-4.421 m 0.374,4.421 4.174,-0.333 0.951,1.28 0.518,1.451 0.113,0.393 0.099,0.423 0.095,0.301 0.036,0.081 0.068,0.149 0.279,0.506 0.586,0.959 0.26,3.084 -2.536,0.225 -2.457,-2.028 -0.063,-0.569 1.064,-0.496 -0.325,-3.109 -0.14,-0.455 -0.951,0.095 -2.199,0.265 0.059,-2.19 0.369,-0.032 m -0.144,5.602 -0.284,-3.38 2.199,-0.265 0.951,-0.095 0.14,0.455 0.325,3.109 -1.064,0.496 -2.263,-0.32 -0.004,0 m -0.225,-5.57 -0.059,2.19 0.284,3.38 -3.24,0.325 -0.311,-5.625 3.326,-0.27 m -3.326,0.27 0.311,5.625 0.085,1.14 -3.213,0.289 -0.28,-3.412 -0.235,-3.372 2.223,-0.184 1.109,-0.086 m -7.712,-0.062 2.119,-0.176 0.049,0.697 2.212,-0.189 0.235,3.372 -3.993,0.338 -0.014,-0.19 -1.925,0.141 -0.639,0.049 -0.568,-0.338 -0.249,-3.476 2.773,-0.228 m -2.773,0.228 0.249,3.476 -4.435,0.307 -0.104,-1.349 -1.667,-1.986 3.768,-0.267 2.189,-0.181 m 0.249,3.476 0.568,0.338 0.256,4.101 -2.208,0.162 -3.097,0.185 0.163,-0.116 0.023,-0.041 0.027,-0.293 -0.005,-0.158 -0.022,-0.175 -0.126,-0.136 -0.159,-0.099 -0.188,-0.068 -0.186,-0.171 -0.144,-0.293 -0.108,-0.517 -0.009,-0.236 0.036,-0.248 0.744,-1.928 4.435,-0.307 m 0.568,0.338 0.639,-0.049 1.925,-0.141 0.014,0.19 3.993,-0.338 0.28,3.412 -1.083,0.099 -1.102,0.054 0.043,0.564 -4.453,0.31 -0.256,-4.101 m 6.851,3.074 3.213,-0.289 0.238,2.254 0.448,4.512 -3.323,0.278 0.167,2.309 -1.117,0.108 -1.275,-2.228 -0.208,-2.668 -0.328,-4.123 1.102,-0.054 1.083,-0.099 m 6.368,-1.754 0.004,0 0.37,3.381 -3.291,0.338 -0.238,-2.254 -0.085,-1.14 3.24,-0.325 m 0.004,0 2.263,0.32 0.063,0.569 2.457,2.028 2.536,-0.225 0.19,2.221 -4.674,0.483 0.046,0.427 -0.487,0.748 -1.673,0.186 -0.351,-3.376 -0.37,-3.381 m 0.37,3.381 0.351,3.376 0.023,1.14 -3.217,0.334 -0.448,-4.512 3.291,-0.338 m 7.292,3.24 0.185,2.015 -5.827,0.668 -1.11,0.131 -0.166,-1.538 -0.023,-1.14 1.673,-0.186 0.487,-0.748 -0.046,-0.427 4.674,-0.483 0.153,1.708 m -10.135,1.61 3.217,-0.334 0.166,1.538 0.519,4.867 -2.176,0.184 -1.114,0.099 -0.135,-0.693 -0.103,-1.127 -3.341,0.31 -0.189,-2.257 -0.167,-2.309 3.323,-0.278 m -5.756,-2.201 0.208,2.668 -1.894,0.141 0.054,-0.062 0.095,-0.051 0.057,-0.08 0.019,-0.086 0.017,-0.316 -1.318,0.086 -0.083,-1.109 1.303,-0.983 0.523,-0.288 0.117,-0.013 0.902,0.093 m 9.139,3.405 1.11,-0.131 0.68,6.589 1.776,-0.126 0.122,1.118 -5.129,0.432 -0.216,-2.831 2.176,-0.184 -0.519,-4.867 m 1.11,-0.131 5.827,-0.668 0.599,6.716 -3.97,0.415 -1.776,0.126 -0.68,-6.589" />
</svg>
