<?xml version="1.0" encoding="UTF-8" standalone="no"?>
<!-- Created with Inkscape (http://www.inkscape.org/) -->

<svg
   xmlns:dc="http://purl.org/dc/elements/1.1/"
   xmlns:cc="http://creativecommons.org/ns#"
   xmlns:rdf="http://www.w3.org/1999/02/22-rdf-syntax-ns#"
   xmlns:svg="http://www.w3.org/2000/svg"
   xmlns="http://www.w3.org/2000/svg"
   xmlns:sodipodi="http://sodipodi.sourceforge.net/DTD/sodipodi-0.dtd"
   xmlns:inkscape="http://www.inkscape.org/namespaces/inkscape"
   version="1.0"
   width="555.22198"
   height="351.66797"
   id="svg2"
   inkscape:version="0.48.1 r9760"
   sodipodi:docname="province-1.svg">
  <metadata
     id="metadata75">
    <rdf:RDF>
      <cc:Work
         rdf:about="">
        <dc:format>image/svg+xml</dc:format>
        <dc:type
           rdf:resource="http://purl.org/dc/dcmitype/StillImage" />
      </cc:Work>
    </rdf:RDF>
  </metadata>
  <defs
     id="defs73" />
  <sodipodi:namedview
     pagecolor="#ffffff"
     bordercolor="#666666"
     borderopacity="1"
     objecttolerance="10"
     gridtolerance="10"
     guidetolerance="10"
     inkscape:pageopacity="0"
     inkscape:pageshadow="2"
     inkscape:window-width="640"
     inkscape:window-height="480"
     id="namedview71"
     showgrid="false"
     inkscape:zoom="0.83029853"
     inkscape:cx="277.61099"
     inkscape:cy="175.83398"
     inkscape:window-x="0"
     inkscape:window-y="25"
     inkscape:window-maximized="0"
     inkscape:current-layer="svg2" />
  <path
     id="25027"
     style="font-size:12px;fill:#0000ff;fill-rule:nonzero;stroke:#000000;stroke-opacity:1;stroke-width:0.1;stroke-miterlimit:4;stroke-dasharray:none;stroke-linecap:butt;marker-start:none;stroke-linejoin:bevel"
     d="m 518.69698,85.203 0.04,0.09 0.694,0.707 0.465,-0.108 0.15,-0.135 0.751,0.094 0.369,0.045 1.375,0.559 0.145,0.267 0.067,0.703 0.036,0.72 -0.112,0.366 -0.289,0.568 0.64,1.613 0.252,0.235 0.298,0.098 0.802,0.127 0.274,1.798 -2.749,0.843 -0.063,-0.189 -2.406,0.572 -0.397,0.082 -0.315,0.062 -0.415,-1.654 -0.604,0.162 -0.658,-0.139 -0.044,-0.163 0.004,-0.098 0.238,-0.609 -1.175,-1.014 -0.167,-0.663 -0.054,-1.104 0.112,-0.671 -0.197,-1.073 -0.614,-1.321 3.271,-0.708 0.276,-0.062 m -5.17,1.117 1.623,-0.347 0.614,1.321 0.197,1.073 -0.112,0.671 0.054,1.104 0.167,0.663 -0.803,-0.825 -1.096,0.099 -0.476,0.207 -1.616,0.077 -1.571,-0.04 -1.187,-0.667 -1.009,-2.223 0.857,-0.18 4.358,-0.933 m 3.718,5.499 -0.238,0.609 -0.004,0.098 0.044,0.163 0.658,0.139 0.604,-0.162 0.415,1.654 -3.466,0.821 -4.633,1.095 -0.415,0.094 -0.352,-0.635 -0.045,-0.117 -0.108,-0.573 0.352,-0.022 -0.028,-1.429 -0.18,-0.775 0.334,-0.505 0.544,-0.09 0.123,0.077 0.252,0.838 -0.144,0.27 0.392,0.199 0.874,0.131 0.925,-0.014 0.77,-0.572 1.681,-0.695 1.645,-0.599 m -1.175,-1.014 1.175,1.014 -1.645,0.599 -1.681,0.695 -0.77,0.572 -0.925,0.014 -0.874,-0.131 -0.392,-0.199 0.144,-0.27 -0.252,-0.838 -0.123,-0.077 -0.544,0.09 -0.334,0.505 -0.031,0.108 -0.203,0.009 -0.392,-0.18 -0.212,-0.64 0,-0.113 0.527,-0.009 -0.04,-1.149 -0.063,-0.965 -0.114,-0.184 1.187,0.667 1.571,0.04 1.616,-0.077 0.476,-0.207 1.096,-0.099 0.803,0.825 m -9.993,-2.889 2.235,-0.483 1.009,2.223 0.114,0.184 0.063,0.965 0.04,1.149 -0.527,0.009 0,0.113 0.212,0.64 0.392,0.18 0.203,-0.009 0.031,-0.108 0.18,0.775 0.028,1.429 -0.352,0.022 0.108,0.573 0.045,0.117 0.352,0.635 -4.052,0.857 -0.09,0.022 -0.216,-0.437 0.142,-5.688 0.083,-3.168 m -5.738,-24.934 2.993,0.46 1.627,2.011 -0.153,0.68 -0.271,1.686 0.154,0.036 -0.154,1.568 -0.41,-1.073 -0.541,-0.333 -2.203,0.865 -0.487,0.054 -0.302,-1.568 0.05,-0.541 -0.014,-0.14 -0.005,-0.008 -0.167,-0.451 -0.129,-0.28 -0.429,-0.518 -0.262,-0.153 0.703,-2.295 m 6.274,8.586 0.054,0.199 0.122,0.194 0.735,0.063 1.058,0.126 2.704,0.311 1.204,0.167 -0.572,2.429 -0.347,1.154 0.447,2.055 0.193,0.505 -0.041,1.127 -1.108,0.243 -1.172,0.473 -1.32,-0.112 -0.587,-0.46 0.135,-1.09 0.398,-1.357 -0.212,-2.727 -1.168,-1.452 -0.161,-0.175 -0.788,-0.185 -0.664,0.586 -0.086,-0.153 -0.159,-0.343 0.753,-0.635 0.393,-0.374 0.189,-0.569 m 1.957,8.934 1.32,0.112 1.172,-0.473 1.108,-0.243 0.036,0.951 0.303,0.473 0.02,0.077 0.246,1.379 -0.587,2.01 0.041,0.13 0.267,0.573 1.031,0.829 -4.358,0.933 -0.504,-2.384 -0.804,0.153 -0.442,-2.132 -0.045,-0.27 1.191,-0.216 -0.226,-1.172 -0.054,-0.753 0.285,0.023 m -0.474,-16.564 2.136,0.545 0.036,0.028 0.068,0.126 -0.014,0.207 -0.675,2.732 -0.514,-0.095 -1.329,1.145 -0.132,0.986 -0.253,1.073 -0.571,-0.077 -2.313,-1.185 0.154,-1.568 -0.154,-0.036 0.271,-1.686 0.153,-0.68 1.514,0.333 1.375,-0.712 0.248,-1.136 m -5.977,11.511 1.357,-0.505 -0.328,-0.861 0.545,-0.207 1.122,-0.329 0.708,0.095 0.664,-0.586 0.788,0.185 0.161,0.175 1.168,1.452 0.212,2.727 -0.398,1.357 -0.135,1.09 -3.56,0.694 -0.546,-2.538 -1.55,-0.342 -0.306,-0.127 -0.036,-0.048 -0.091,-0.753 0.051,-0.523 0.174,-0.956 m 9.131,-19.024 0.055,1.343 -0.014,1.618 0.361,0.14 -0.32,0.798 -0.239,0.189 -0.93,-0.348 -0.359,1.682 -0.297,1.252 -1.127,-0.27 -0.166,-0.162 -0.78,-0.96 -0.06,-0.559 -1.428,-0.333 -0.523,-2.934 5.827,-1.456 m 1.488,11.002 -0.248,5.201 -1.204,-0.167 -2.704,-0.311 -1.058,-0.126 -0.735,-0.063 -0.122,-0.194 -0.054,-0.199 0.235,-0.96 0.571,0.077 0.253,-1.073 0.132,-0.986 1.329,-1.145 0.514,0.095 0.63,0.116 1.181,-0.419 1.28,0.154 m -6.792,-6.612 1.428,0.333 0.06,0.559 0.78,0.96 0.166,0.162 -0.284,1.109 -0.248,1.136 -1.375,0.712 -1.514,-0.333 -1.627,-2.011 0.405,-1.14 0.691,-1.172 1.153,-0.491 0.365,0.176 m -6.17,-1.555 0.563,3.722 -0.703,2.295 -0.149,-0.126 -0.27,-0.505 -0.459,-2.691 -0.33,-2.114 0.014,-0.221 1.334,-0.36 m 5.647,-1.379 0.523,2.934 -0.365,-0.176 -1.153,0.491 -0.691,1.172 -0.405,1.14 -2.993,-0.46 -0.563,-3.722 5.647,-1.379 m 5.827,-1.456 3.476,-0.965 -0.217,0.446 -0.013,3.165 0.076,0.215 0.339,0.334 0.414,0.509 0.226,0.28 0.04,0.064 0.234,0.378 -0.121,1.122 -0.104,0.289 0,0.004 -0.045,0.077 -0.446,0.784 -0.037,0.058 -0.053,0.077 -0.126,0.163 -0.023,0.035 -0.289,0.212 -0.193,-0.018 -0.604,0.784 -1.014,-0.829 -0.428,-2.614 0.392,-1.055 -1.082,-0.414 -0.361,-0.14 0.014,-1.618 -0.055,-1.343 m 0.402,3.101 1.082,0.414 -0.392,1.055 0.428,2.614 1.014,0.829 -0.631,0.397 -0.624,0.388 -0.047,0.045 -0.028,0.022 -0.302,0.545 -0.031,0.131 0,0.081 0.296,1.032 0.168,0.226 0.153,0.122 -1.28,-0.154 -1.181,0.419 -0.63,-0.116 0.675,-2.732 0.014,-0.207 -0.068,-0.126 -0.036,-0.028 -2.136,-0.545 0.284,-1.109 1.127,0.27 0.297,-1.252 0.359,-1.682 0.93,0.348 0.239,-0.189 0.32,-0.798 m -3.082,20.976 -0.285,-0.023 0.054,0.753 0.226,1.172 -1.191,0.216 0.045,0.27 0.442,2.132 0.804,-0.153 0.504,2.384 -0.857,0.18 -2.235,0.483 -0.69,-2.47 -0.964,-4.71 3.56,-0.694 0.587,0.46 m -7.676,-11.566 0.487,-0.054 2.203,-0.865 0.541,0.333 0.41,1.073 2.313,1.185 -0.235,0.96 -0.189,0.569 -0.393,0.374 -0.753,0.635 0.159,0.343 0.086,0.153 -0.708,-0.095 -1.122,0.329 -0.545,0.207 0.328,0.861 -1.357,0.505 -0.334,-0.649 -0.157,-0.284 -1.075,-2.538 -0.02,-0.044 0,-0.004 -0.022,-0.429 0,-0.42 0.005,-1.067 0.378,-1.078 m 22.449,30 2.812,-0.816 0.533,-0.825 0.257,0.794 0.139,0.946 0.061,0.406 0.011,0.161 0.009,0.244 -0.017,0.131 -0.083,0.518 -0.138,0.523 -3.078,1.559 -0.262,-0.022 -0.244,-3.619 m 1.311,-5.986 1.182,0.122 1.284,2.465 -0.306,0.623 -0.185,-0.212 -0.117,-0.086 -0.126,-0.023 -0.288,0.167 -0.028,0.027 -0.027,0.131 0.027,0.13 -0.072,0.122 -0.027,0.014 -3.051,0.901 -1.015,-3.538 2.749,-0.843 m 3.936,3.552 1.288,2.042 -0.342,0.441 -1.271,0.617 -0.369,0.095 -0.14,-0.09 -0.005,-0.058 0.284,-2.155 0.004,-0.013 0.015,-0.05 0.144,-0.238 0.392,-0.591 m -1.645,-0.198 -0.257,0.991 -0.533,0.825 -2.812,0.816 -0.143,-0.541 -0.28,-1.064 3.051,-0.901 0.027,-0.014 0.072,-0.122 -0.027,-0.13 0.027,-0.131 0.028,-0.027 0.288,-0.167 0.126,0.023 0.117,0.086 0.185,0.212 0.131,0.144 m 0,0 -0.131,-0.144 0.306,-0.623 1.078,0.6 0.392,0.365 -0.392,0.591 -0.144,0.238 -0.015,0.05 -0.707,-0.217 -0.387,-0.86 m -15.027,-21.247 1.118,-0.09 1.05,0.162 1.035,-0.04 0.592,-0.046 -0.625,1.74 -0.109,1.204 0.441,0.788 0.32,0.347 0.406,0.366 -0.073,0.806 -1.284,0.288 -0.01,-0.229 0.046,-0.451 -1.532,0.649 -0.239,0.149 -0.027,0.329 -0.554,0.094 -0.267,-0.274 -0.036,-0.951 0.041,-1.127 -0.193,-0.505 -0.447,-2.055 0.347,-1.154 m 10.723,-1.983 0.211,-0.51 0.365,0.789 1.027,-0.315 0.253,-0.586 0.157,1.758 0.069,0.288 0.085,0.181 0.262,0.364 0.166,0.086 0.452,0.225 1.09,0.65 0.028,0.031 0.35,1.406 -0.284,0.555 -0.081,0.117 -1.798,0.465 0.23,-0.817 -2.452,-1.167 0.068,-0.162 0.446,-1.073 -0.446,-1.001 -0.365,-0.879 0.167,-0.405 m 5.776,4.872 -0.39,2.628 -0.664,0.04 -0.274,0.018 -0.063,0.032 -0.074,0.031 -0.004,0 -0.869,0.645 -0.667,0.568 -0.22,0.189 -0.122,0.127 -0.509,1.022 -1.064,-0.117 -0.897,-0.55 -0.316,-0.703 -0.225,-0.491 0.28,-1.122 0.432,-3.669 2.452,1.167 -0.23,0.817 1.798,-0.465 0.081,-0.117 0.284,-0.555 1.261,0.505 m -10.946,-3.831 0.495,0.509 0.158,0.149 0.803,0.64 0.117,0.014 0.423,-0.348 2.159,0.848 1.213,0.505 -0.068,0.162 -0.432,3.669 -1.227,-0.203 -1.753,-0.938 -2.407,-0.103 -0.806,0.469 -0.406,-0.366 -0.32,-0.347 -0.441,-0.788 0.109,-1.204 0.625,-1.74 0.239,-0.68 0.266,-0.563 0.734,0.482 0.519,-0.167 m -1.325,5.373 0.806,-0.469 2.407,0.103 1.753,0.938 1.227,0.203 -0.28,1.122 0.225,0.491 0.316,0.703 0.897,0.55 1.064,0.117 -0.06,0.136 -0.233,0.554 -3.111,0.717 -0.04,0.009 -0.14,0.031 -2.28,0.51 -0.276,0.062 -0.395,-0.923 -1.065,-1.803 -0.514,0.122 -0.203,-0.942 -0.171,-1.425 0.073,-0.806 m -2.362,-15.05 0.604,-0.784 0.926,0.69 0.99,0.167 1.198,0.284 0.271,0.072 0.365,0.397 0.443,0.639 0.648,0.987 0.374,1.956 -1.744,0.757 0.508,1.163 0.203,0.365 0.316,0.825 -1.077,0.767 -0.338,1.392 -0.519,0.167 -0.734,-0.482 -0.266,0.563 -0.239,0.68 -0.592,0.046 -1.035,0.04 -1.05,-0.162 -1.118,0.09 0.572,-2.429 0.248,-5.201 -0.153,-0.122 -0.168,-0.226 -0.296,-1.032 0,-0.081 0.031,-0.131 0.302,-0.545 0.028,-0.022 0.047,-0.045 0.624,-0.388 0.631,-0.397 m 3.655,-13.597 0.347,0.991 1.907,5.751 0.135,0.433 1.691,5.377 -0.132,0.662 -2.573,1.65 -0.676,-0.441 -0.365,-0.397 -0.271,-0.072 -1.198,-0.284 -0.99,-0.167 -0.926,-0.69 0.193,0.018 0.289,-0.212 0.023,-0.035 0.126,-0.163 0.053,-0.077 0.037,-0.058 0.446,-0.784 0.045,-0.077 0,-0.004 0.104,-0.289 0.121,-1.122 -0.234,-0.378 -0.04,-0.064 -0.226,-0.28 -0.414,-0.509 -0.339,-0.334 -0.076,-0.215 0.013,-3.165 0.217,-0.446 -0.076,-0.766 0.216,-2.33 0.725,-0.947 0.1,-0.071 0.193,0.099 0.081,0.161 0.041,0.046 0.289,0.144 0.473,0.032 0.396,-0.082 0.059,-0.049 0.216,-0.856 m -5.233,30.008 0.267,0.274 0.554,-0.094 0.027,-0.329 0.239,-0.149 1.532,-0.649 -0.046,0.451 0.01,0.229 1.284,-0.288 0.171,1.425 0.203,0.942 0.514,-0.122 1.065,1.803 0.395,0.923 -3.271,0.708 -1.623,0.347 -1.031,-0.829 -0.267,-0.573 -0.041,-0.13 0.587,-2.01 -0.246,-1.379 -0.02,-0.077 -0.303,-0.473 m 9.313,-17.456 1.842,6.098 1.136,2.961 -0.253,0.586 -1.027,0.315 -0.365,-0.789 -0.211,0.51 -0.988,-0.176 -2.29,-1.271 -0.793,-0.496 -0.203,-0.365 -0.508,-1.163 1.744,-0.757 -0.374,-1.956 -0.648,-0.987 -0.443,-0.639 0.676,0.441 2.573,-1.65 0.132,-0.662 m -2.949,7.738 0.793,0.496 2.29,1.271 0.988,0.176 -0.167,0.405 0.365,0.879 0.446,1.001 -0.446,1.073 -1.213,-0.505 -2.159,-0.848 -0.423,0.348 -0.117,-0.014 -0.803,-0.64 -0.158,-0.149 -0.495,-0.509 0.338,-1.392 1.077,-0.767 -0.316,-0.825 m 16.262,26.412 1.529,0.27 0.121,0.293 0.13,0.541 -0.009,0.077 -2.69,0.982 -0.28,-0.238 0.365,-1.145 0.1,-0.167 0.279,-0.343 0.35,-0.382 0.055,0.004 0.05,0.108 m -0.717,-0.419 -0.77,0.974 -0.226,0.256 -0.631,0.496 -0.329,0.104 -0.089,-0.018 0.436,-0.446 0.848,-0.933 0.41,-0.469 0.351,0.036 m -6.088,-16.55 0.067,0.27 0.347,0.829 0.54,1.037 0.559,0.248 -0.901,1.87 -0.612,1.786 -0.456,-0.181 -0.748,-0.951 -1.045,-0.622 -0.919,-0.617 -0.358,-0.861 0.06,-0.136 0.509,-1.022 0.122,-0.127 0.22,-0.189 0.667,-0.568 0.869,-0.645 0.004,0 0.074,-0.031 0.063,-0.032 0.274,-0.018 0.664,-0.04 m 0.211,7.554 0.898,0.32 -0.893,2.497 -2.407,2.127 -1.182,-0.122 -0.274,-1.798 0.623,-0.46 0.463,-0.414 0.222,-0.699 -0.127,-0.271 -0.22,-0.288 -0.118,-0.185 0.501,-0.338 0.157,-0.022 0.23,0.022 0.027,0.018 0.455,0.356 1.645,-0.743 m 0.898,0.32 0.878,-0.271 0.46,0.067 0.091,0.01 0.076,0.05 0.512,0.342 1.16,1.289 1.68,2.217 0.162,0.37 0.06,0.627 -0.659,1.429 -1.388,1.636 -1.005,-1.547 -0.428,-0.297 -0.959,-0.374 -0.808,-1.47 -0.725,-1.581 0.893,-2.497 m -3.3,4.624 2.407,-2.127 0.725,1.581 0.808,1.47 0.959,0.374 0.428,0.297 1.005,1.547 -0.171,-0.01 -0.428,0.063 -0.175,0.23 -0.105,0.136 -0.017,0.031 0.031,0.419 0.044,0.153 0.145,0.298 -0.829,0.775 -0.785,0.235 -1.288,-2.042 -0.392,-0.365 -1.078,-0.6 -1.284,-2.465 m 1.735,-6.639 0.456,0.181 0.211,1.514 -1.645,0.743 -0.049,-1.014 0.387,-0.247 0.37,-0.344 0.216,-0.486 0.054,-0.347 m 6.644,6.716 0.063,0.067 0.19,0.135 0.274,0.153 0.248,0.1 0.605,0.063 0.363,-0.023 0.965,-0.099 1.303,-0.802 0.482,-0.325 0.316,-0.283 0.097,-0.212 0.02,-0.109 -0.113,-0.374 -0.176,-0.46 -0.081,-0.18 -0.297,-0.423 -0.963,-1.127 -0.15,-0.104 -0.167,-0.063 -0.266,-0.063 -0.067,0.014 -0.126,0.071 -0.069,0.064 -0.054,0.095 -0.031,0.157 0.009,0.068 -0.532,-0.207 -0.031,-0.037 0.036,-0.13 0.095,-0.104 0.162,-0.09 0.157,-0.05 0.278,-0.027 0.447,0.023 0.353,0.077 0.269,0.117 0.312,0.216 0.297,0.297 0.374,0.433 0.298,0.428 0.446,0.771 0.213,0.424 0.306,0.833 0.178,0.618 0.032,0.284 -0.148,1.231 -0.09,0.089 -0.031,-0.856 -0.022,-0.072 -0.046,-0.081 -0.239,-0.113 -0.112,-0.027 -0.068,0.014 -2.867,1.279 -0.121,0.055 -2.088,1.807 -0.333,0.433 -0.351,-0.036 -0.208,-2.51 0.659,-1.429 m 5.899,5.282 0.085,-0.045 0.15,-0.172 0.108,-0.202 0.072,-0.262 -0.044,-0.261 -0.051,-0.09 -0.099,-0.091 -0.091,-0.072 -0.053,-0.045 -0.009,-0.049 0.167,0.036 0.198,0.175 0.856,0.97 0.051,0.18 -0.006,0.135 -0.004,0.027 -0.068,0.09 -0.221,0.167 -0.122,0.054 -0.765,0.176 -0.207,0.04 -0.533,-0.036 -0.906,-0.18 -0.121,-0.054 -0.086,-0.072 -0.05,-0.104 0.14,-0.036 0.122,0.027 0.054,0.018 0.473,-0.018 0.671,-0.175 0.289,-0.131 m -15.613,-15.049 0.358,0.861 0.919,0.617 1.045,0.622 0.748,0.951 -0.054,0.347 -0.216,0.486 -0.37,0.344 -0.387,0.247 0.049,1.014 -0.455,-0.356 -0.027,-0.018 -0.23,-0.022 -0.157,0.022 -0.501,0.338 0.118,0.185 0.22,0.288 0.127,0.271 -0.222,0.699 -0.463,0.414 -0.623,0.46 -0.802,-0.127 -0.298,-0.098 -0.252,-0.235 -0.64,-1.613 0.289,-0.568 0.112,-0.366 -0.036,-0.72 -0.067,-0.703 -0.145,-0.267 -1.375,-0.559 -0.369,-0.045 -0.751,-0.094 -0.15,0.135 -0.465,0.108 -0.694,-0.707 -0.04,-0.09 2.28,-0.51 0.14,-0.031 0.04,-0.009 3.111,-0.717 0.233,-0.554 m 0.636,-14.662 2.426,0.654 1.08,0.689 -0.184,0.527 1.091,0.411 0.4,0.135 -0.04,0.897 -1.087,5.07 -0.121,0.546 -0.045,0.09 -0.24,0.207 -1.261,-0.505 -0.35,-1.406 -0.028,-0.031 -1.09,-0.65 -0.452,-0.225 -0.166,-0.086 -0.262,-0.364 -0.085,-0.181 -0.069,-0.288 -0.157,-1.758 -1.136,-2.961 1.776,-0.771 m 19.538,-30.729 3.034,0.14 0.104,-0.073 0.18,-0.063 0.058,0.009 0.298,0.225 0.045,0.081 0.748,2.367 0.072,0.455 -0.103,0.613 -0.037,0.063 -0.15,0.126 0.011,0.136 0.364,0.387 0.808,0.811 0.531,0.28 0.018,0.009 0.032,0.014 0.094,0.022 0.045,-0.009 0.226,-0.329 -0.036,-0.212 0,-0.356 0.045,-0.072 0.112,-0.023 1.064,0.05 0.005,0 0.396,0.289 0.222,0.198 1.906,2.321 0.198,0.388 0.239,0.572 0.018,0.09 -0.238,0.577 -0.789,1.627 -0.208,0.388 -0.599,0.658 -0.339,0.072 -1.234,0.59 -2.956,3.25 -0.357,0.185 -0.302,0.135 -0.081,0.027 -0.117,-0.126 -0.248,-0.388 -0.267,-0.473 -0.554,-0.992 -0.04,-0.396 -0.275,-0.694 -0.644,-0.974 -1.127,-2.033 0.879,-0.459 -0.154,-0.645 -0.667,-1.42 -0.802,-1.509 0.253,-0.099 0.72,-0.361 -0.464,-1.023 -1.878,-3.286 1.941,-1.14 m -9.226,15.649 0.514,-0.253 0.501,1.005 2.839,-1.609 0.257,0.171 -0.064,0.803 0.019,0.072 0.057,0.081 0.236,0.148 0.303,0.267 0.337,0.892 0.049,0.248 0.009,0.072 -0.112,0.067 -0.968,0.69 -0.402,0.284 -0.032,0.163 0.121,0.207 0.087,0.117 0.121,0.032 0.077,0.063 0.185,0.202 0.058,0.41 0,0.131 -0.428,1.262 -0.455,-0.239 -2.051,-0.847 -1.027,0.595 -0.081,0.216 -0.916,0.068 0.113,-1.659 0.461,-0.045 -0.104,-1.131 -0.524,-1.149 -0.611,0.085 -0.273,-0.541 1.704,-0.878 m -10.518,-21.811 0.535,2.259 1.253,4.295 0.604,0.685 0.748,1.361 -0.364,1.555 0.328,2.759 2.655,5.183 0.613,1.023 0.865,-0.433 1.239,-1.014 2.042,4.138 -1.704,0.878 -0.012,-0.198 -0.064,-0.117 -0.126,0.004 -1.244,0.627 0.045,0.135 0.104,0.216 0.158,0.163 0.121,0.036 0.306,0.225 0.046,0.564 -0.103,0.121 -2.029,0.167 -0.964,0.23 -0.509,-0.803 -3.31,-5.07 -0.198,0.104 -1.014,0.279 -1.122,0.045 -1.735,-3.538 -1.191,-2.569 0.073,-0.09 0.501,-0.6 1.163,-2.812 0.021,-0.207 -0.021,-0.537 -0.14,-0.108 -0.144,-0.067 -0.433,0 -0.167,-0.551 -0.145,-0.603 -0.279,-1.618 0.113,-0.875 0.14,-1.05 0.005,-0.013 0.098,-0.28 0.087,-0.135 0.012,-0.009 0.024,-0.013 0.283,-0.208 0.5,-0.775 -0.103,-0.825 -0.153,-1.204 2.592,-0.73 m 8.238,30.292 1.577,3.836 -1.456,1.001 -0.202,-0.964 -0.464,-0.857 -0.199,0.252 -0.522,-0.004 -0.416,-0.244 -0.202,-0.288 -0.265,-1.924 0.684,-0.045 0.307,-0.24 0.022,-0.306 0.018,-0.09 0.081,-0.149 0.067,-0.085 0.874,-0.05 0.069,0.086 0.027,0.071 m 0.136,-30.328 0.504,1.803 0.901,3.074 1.127,3.922 -1.086,0.617 0.5,1.866 0.875,-0.456 1.752,3.34 -0.347,1.415 -2.442,1.276 -1.682,0.852 -1.239,1.014 -0.865,0.433 -0.613,-1.023 -2.655,-5.183 -0.328,-2.759 0.364,-1.555 -0.748,-1.361 -0.604,-0.685 -1.253,-4.295 -0.535,-2.259 7.706,-2.208 0.668,2.172 m 9.429,7.338 1.878,3.286 0.464,1.023 -0.72,0.361 -0.253,0.099 -2.033,1.063 0.745,1.411 -0.542,1.541 -1.05,0.537 0.338,0.626 0.956,1.92 -1.416,0.73 -0.58,0.433 -0.222,0.41 -0.486,0.271 -0.253,0.112 -0.257,-0.171 -2.839,1.609 -0.501,-1.005 -0.514,0.253 -2.042,-4.138 1.682,-0.852 2.442,-1.276 0.347,-1.415 -1.752,-3.34 -0.875,0.456 -0.5,-1.866 1.086,-0.617 -1.127,-3.922 -0.901,-3.074 -0.504,-1.803 1.067,-0.306 2.267,-0.495 1.681,5.367 0.271,0.857 0.279,0.991 0.145,0.608 0.608,2.065 0.202,0.031 0.649,-0.36 0.614,-0.348 -0.022,-0.067 0.004,-0.045 1.664,-0.96 m -22.924,11.655 0.703,1.632 0.198,1.429 1.439,3.384 1.144,-1.162 1.501,1.843 2.231,0.158 0.496,0.748 0.261,0.528 -0.253,0.31 0.05,0.33 0.297,0.616 0,1.686 -0.085,0.384 -0.829,2.244 0.145,0.343 -0.483,0.482 -0.352,-0.054 -0.063,-0.031 -0.244,-0.226 -0.148,-0.234 -0.577,1.514 -0.104,2.01 -1.776,0.771 -1.842,-6.098 -1.691,-5.377 -0.135,-0.433 -1.907,-5.751 -0.347,-0.991 0.618,-0.347 1.244,0.689 0.126,0.063 0.262,0.004 0.004,0 0.108,-0.099 0.019,-0.049 -0.01,-0.316 m 13.359,11.335 0.965,-0.044 -0.451,-1.285 -0.05,-0.69 0.974,-0.026 0.076,-0.072 0.091,-0.239 -0.091,-0.807 0.916,-0.068 -0.23,0.118 -0.091,0.166 0.198,0.635 0.276,0.402 0.297,0.131 0.315,-0.023 0.293,-0.136 0.578,0.862 0.405,0.928 -0.378,0.604 -0.06,0.744 -0.234,-0.027 -0.18,-0.023 -0.139,0.18 -0.039,0.045 -0.007,0.303 0.063,0.5 -0.157,0.928 -0.077,0.108 -1.19,0.532 -0.284,0.09 -0.212,0 -1.577,-3.836 m 8.955,-1.433 -0.126,0.28 -0.085,0.077 -0.37,0.202 -0.099,0.023 -0.166,-0.05 -0.757,-0.815 -0.024,-0.036 0.019,-0.244 0.095,-0.266 0.495,-0.613 0.184,-0.099 0.072,0.054 0.79,1.145 0.048,0.104 -0.037,0.17 -0.039,0.068 m -6.525,-1.798 0.081,-0.216 1.027,-0.595 2.051,0.847 0.455,0.239 -0.085,0.902 -0.007,0.053 0.007,0.055 0.143,0.482 0.135,0.329 0.33,0.275 -0.96,1.456 -0.708,0.45 -0.866,0.154 0.06,-0.744 0.378,-0.604 -0.405,-0.928 -0.578,-0.862 -0.293,0.136 -0.315,0.023 -0.297,-0.131 -0.276,-0.402 -0.198,-0.635 0.091,-0.166 0.23,-0.118 m -5.616,-2.199 0.964,-0.23 2.029,-0.167 0.103,-0.121 -0.046,-0.564 -0.306,-0.225 -0.121,-0.036 -0.158,-0.163 -0.104,-0.216 -0.045,-0.135 1.244,-0.627 0.126,-0.004 0.064,0.117 0.012,0.198 0.273,0.541 0.611,-0.085 0.524,1.149 0.104,1.131 -0.461,0.045 -0.113,1.659 0.091,0.807 -0.091,0.239 -0.076,0.072 -0.974,0.026 0.05,0.69 0.451,1.285 -0.965,0.044 -0.027,-0.071 -0.069,-0.086 -0.874,0.05 -0.067,0.085 -0.081,0.149 -0.018,0.09 -0.022,0.306 -0.307,0.24 -0.684,0.045 -0.912,-0.844 -0.851,-2.172 -0.604,-1.194 1.33,-2.028 m 12.245,0.924 0.045,-0.018 0.077,0.022 0.473,0.14 0.145,0.104 0.103,0.157 0.067,0.649 -0.125,0.356 -0.186,0.311 -0.027,0.027 -0.063,0.005 -0.396,-0.212 -0.059,-0.072 -0.207,-0.617 -0.013,-0.05 0.017,-0.072 0.059,-0.023 0.081,-0.095 0.077,-0.4 0,-0.091 -0.023,-0.08 -0.045,-0.041 m 2.466,-1.965 0.479,-0.365 0.403,-0.23 0.524,-0.05 0.009,0.009 0.175,0.18 0.181,0.289 0.067,0.185 -0.076,0.306 -0.005,0.014 -0.036,0.036 -0.261,0.297 -0.37,0.108 -0.108,0.1 -0.049,0.117 0.029,0.121 0.025,0.04 0.027,0.01 0.09,0.162 -0.153,0.351 -0.186,0.086 -0.657,-0.202 -0.244,-0.226 -0.189,-0.27 -0.049,-0.172 0.058,-0.369 0.225,-0.401 0.091,-0.126 m -5.134,-2.696 0.253,-0.112 0.486,-0.271 0.222,-0.41 0.58,-0.433 1.416,-0.73 -0.956,-1.92 -0.338,-0.626 1.05,-0.537 0.542,-1.541 -0.745,-1.411 2.033,-1.063 0.802,1.509 0.667,1.42 0.154,0.645 -0.879,0.459 1.127,2.033 0.644,0.974 0.275,0.694 0.04,0.396 0.554,0.992 0.267,0.473 0.248,0.388 0.117,0.126 0.018,0.221 -0.104,0.194 -0.063,0.017 -0.049,-0.045 -0.1,-0.085 -0.112,0.166 -0.036,0.249 -0.032,0.175 -0.013,0.23 -0.005,0.072 0,0.104 -0.103,0.014 -0.005,0 -0.068,-0.027 -0.508,-0.514 -0.141,-0.181 -0.229,-0.522 -0.05,-0.176 0.009,-0.113 -0.05,-0.081 -0.063,-0.036 -0.257,0.032 -0.35,0.072 -0.313,0.063 -0.319,0.139 -0.05,0.455 -0.338,0.334 -0.302,0.208 -0.203,0.18 -0.153,0.297 -0.04,0.032 -0.06,0.013 -0.067,-0.045 -0.081,-0.311 -0.021,-0.166 -0.119,-0.082 -0.081,0.005 -0.053,0.04 -0.033,0.068 -0.008,0.09 0.13,0.32 0.109,0.392 -0.036,0.032 -0.114,0.022 -0.081,-0.112 -0.012,-0.122 -0.23,-0.158 -0.244,0.294 -0.137,0.356 0.146,0.725 0.022,0.054 0.036,0.054 0.095,0.072 0.163,-0.036 0.094,0.099 0.203,0.28 0.014,0.063 0.058,0.311 0.014,0.108 -0.089,0 -0.173,-0.045 -0.008,-0.023 -0.136,-0.09 -0.459,-0.22 -0.28,-0.073 -0.972,-0.189 -0.402,0.131 -0.162,0.22 -0.304,0.032 -0.026,-0.054 -0.28,-1.163 -0.009,-0.252 0.024,-0.032 0.072,-0.09 0.035,-0.383 -0.017,-0.144 -0.105,0.063 -0.009,-0.072 -0.049,-0.248 -0.337,-0.892 -0.303,-0.267 -0.236,-0.148 -0.057,-0.081 -0.019,-0.072 0.064,-0.803 m -18.656,-7.815 1.191,2.569 1.735,3.538 1.122,-0.045 1.014,-0.279 0.198,-0.104 3.31,5.07 0.509,0.803 -1.33,2.028 -0.87,0.627 -0.261,-0.528 -0.496,-0.748 -2.231,-0.158 -1.501,-1.843 -1.144,1.162 -1.439,-3.384 -0.198,-1.429 -0.703,-1.632 -0.009,-0.432 -0.009,-0.415 0.121,-2.569 0.126,-0.689 0.082,-0.163 0.094,-0.189 0.222,-0.401 0.341,-0.626 0.028,-0.046 0.098,-0.117 m 6.204,20.12 -0.006,0.027 0.027,0.04 0.334,0.135 0.51,0.082 2.821,0.373 0.243,-0.333 0.248,-0.73 0.202,0.288 0.416,0.244 0.522,0.004 0.199,-0.252 0.464,0.857 0.202,0.964 -0.599,0.293 -0.468,-0.284 -0.23,-0.663 -0.087,-0.062 -0.081,0.031 -0.874,1.144 -0.355,0.618 -0.244,1.005 0,0.086 0.18,0.189 0.05,1.28 -0.632,0.541 -0.4,-0.135 -1.091,-0.411 0.184,-0.527 -1.08,-0.689 -2.426,-0.654 0.104,-2.01 0.577,-1.514 0.148,0.234 0.244,0.226 0.063,0.031 0.352,0.054 0.483,-0.482 m 6.197,-33.466 -0.668,-2.172 -7.706,2.208 -2.592,0.73 -0.194,-1.523 -0.005,-0.04 0.01,-0.032 0.234,-0.694 0.657,-1.929 1.272,-3.696 1.713,-4.958 0.698,-0.058 0.83,-0.018 0.126,0.036 0.152,0.207 0.032,0.055 -0.063,0.085 -0.009,0.014 -0.018,0.301 0.451,1.452 0.131,0.117 0.072,0.032 1.348,0.441 0.346,-0.301 0.938,-0.893 1.036,-0.942 1.596,-1.393 0.221,-0.126 0.419,-0.131 0.392,-0.036 0.158,0.032 0.721,0.243 2.1,0.897 1.889,1.19 0.027,0.063 3.006,9.605 1.763,5.697 -0.141,0.211 -0.009,0.122 0.284,1.276 0.153,0.126 -1.941,1.14 -1.664,0.96 -0.004,0.045 0.022,0.067 -0.614,0.348 -0.649,0.36 -0.202,-0.031 -0.608,-2.065 -0.145,-0.608 -0.279,-0.991 -0.271,-0.857 -1.681,-5.367 -2.267,0.495 -1.067,0.306 m -5.522,27.553 0.87,-0.627 0.604,1.194 0.851,2.172 0.912,0.844 0.265,1.924 -0.248,0.73 -0.243,0.333 -2.821,-0.373 -0.51,-0.082 -0.334,-0.135 -0.027,-0.04 0.006,-0.027 -0.145,-0.343 0.829,-2.244 0.085,-0.384 0,-1.686 -0.297,-0.616 -0.05,-0.33 0.253,-0.31 m -5.878,34.447 1.015,3.538 0.28,1.064 -0.65,0.113 -0.843,0.346 -1.983,0.199 -0.329,-0.163 -0.613,-0.351 0.366,-0.37 0.274,-0.324 -0.387,-0.627 -0.442,-0.252 -0.387,-1.551 0.194,-0.063 0.89,-0.225 -0.251,-0.869 0.397,-0.082 2.406,-0.572 0.063,0.189 m -2.866,0.465 0.251,0.869 -0.89,0.225 -0.194,0.063 0.387,1.551 0.442,0.252 0.387,0.627 -0.274,0.324 -0.366,0.37 -1.23,1.816 -0.054,-0.298 -0.032,-0.071 -1.775,-3.786 -0.433,-1.059 3.466,-0.821 0.315,-0.062 m 4.304,4.678 0.244,3.619 -1.194,0.334 -2.43,1.126 -0.509,0.199 -0.095,0.013 -0.094,-0.018 -2.177,-3.493 0.464,-0.361 1.23,-1.816 0.613,0.351 0.329,0.163 1.983,-0.199 0.843,-0.346 0.65,-0.113 0.143,0.541 m -8.901,2.51 0.329,1.005 0.685,0.708 0.348,-0.172 0.135,0.086 0.419,0.473 1.126,1.398 -0.496,-0.027 -0.315,0.076 -1.298,0.393 -0.811,0.341 -0.442,0.064 -0.208,-0.257 -0.076,0.031 -1.1,1.281 -0.149,0.208 -0.176,0.333 -0.012,0.049 0,0.014 -0.154,-0.096 -0.027,-0.061 -0.028,-0.614 0.023,-0.104 0.117,-0.27 0.032,-0.626 -1.676,-1.186 -0.758,-0.248 -0.351,-0.131 -0.122,-0.076 -0.082,-0.082 -0.021,-0.107 0.031,-0.172 1.722,-1.217 0.996,-1.244 2.339,0.23 m 2.646,-0.73 2.177,3.493 -1.781,0.735 -1.126,-1.398 -0.419,-0.473 -0.135,-0.086 -0.348,0.172 -0.685,-0.708 -0.329,-1.005 0.203,-0.703 0.761,-0.36 1.119,-0.37 0.563,0.703 m -6.878,-4.386 0.415,-0.094 0.031,0.964 1.298,-0.41 -0.053,2.245 -0.605,0.257 0.807,1.924 -0.996,1.244 -1.722,1.217 -0.031,0.172 0.021,0.107 0.082,0.082 0.122,0.076 -0.018,0.027 -0.135,0.004 -0.515,-0.138 -0.757,-0.262 -0.084,-0.148 -0.181,-0.298 -0.505,-1.06 -0.081,-0.094 -0.262,-0.054 -0.883,-4.904 4.052,-0.857 m 0.415,-0.094 4.633,-1.095 0.433,1.059 1.775,3.786 0.032,0.071 0.054,0.298 -0.464,0.361 -0.563,-0.703 -1.119,0.37 -0.761,0.36 -0.203,0.703 -2.339,-0.23 -0.807,-1.924 0.605,-0.257 0.053,-2.245 -1.298,0.41 -0.031,-0.964 m -3.278,7.64 -0.306,-1.785 0.262,0.054 0.081,0.094 0.505,1.06 0.181,0.298 0.084,0.148 0.757,0.262 0.515,0.138 0.135,-0.004 0.018,-0.027 0.351,0.131 0.758,0.248 1.676,1.186 -0.032,0.626 -0.117,0.27 -0.023,0.104 0.028,0.614 0.027,0.061 0.154,0.096 -0.65,0.176 -1.632,1.234 -2.239,1.901 -0.055,0.105 -0.028,0.139 -1.008,-1.297 0.702,-0.717 0.06,-0.059 0.306,-2.082 -0.158,-0.91 -0.352,-2.064" />
</svg>
