<?xml version="1.0" encoding="UTF-8" standalone="no"?>
<!-- Created with Inkscape (http://www.inkscape.org/) -->

<svg
   xmlns:dc="http://purl.org/dc/elements/1.1/"
   xmlns:cc="http://creativecommons.org/ns#"
   xmlns:rdf="http://www.w3.org/1999/02/22-rdf-syntax-ns#"
   xmlns:svg="http://www.w3.org/2000/svg"
   xmlns="http://www.w3.org/2000/svg"
   xmlns:sodipodi="http://sodipodi.sourceforge.net/DTD/sodipodi-0.dtd"
   xmlns:inkscape="http://www.inkscape.org/namespaces/inkscape"
   version="1.0"
   width="555.22198"
   height="351.66797"
   id="svg2"
   inkscape:version="0.48.1 r9760"
   sodipodi:docname="quincy.svg">
  <metadata
     id="metadata27">
    <rdf:RDF>
      <cc:Work
         rdf:about="">
        <dc:format>image/svg+xml</dc:format>
        <dc:type
           rdf:resource="http://purl.org/dc/dcmitype/StillImage" />
      </cc:Work>
    </rdf:RDF>
  </metadata>
  <defs
     id="defs25" />
  <sodipodi:namedview
     pagecolor="#ffffff"
     bordercolor="#666666"
     borderopacity="1"
     objecttolerance="10"
     gridtolerance="10"
     guidetolerance="10"
     inkscape:pageopacity="0"
     inkscape:pageshadow="2"
     inkscape:window-width="640"
     inkscape:window-height="480"
     id="namedview23"
     showgrid="false"
     inkscape:zoom="0.83029853"
     inkscape:cx="277.61099"
     inkscape:cy="175.83398"
     inkscape:window-x="0"
     inkscape:window-y="25"
     inkscape:window-maximized="0"
     inkscape:current-layer="svg2" />
  <path
     id="17161"
     style="font-size:12px;fill:#0000ff;fill-rule:nonzero;stroke:#000000;stroke-opacity:1;stroke-width:0.1;stroke-miterlimit:4;stroke-dasharray:none;stroke-linecap:butt;marker-start:none;stroke-linejoin:bevel"
     d="m 348.57198,124.274 -0.036,0.248 0.009,0.236 0.108,0.517 0.144,0.293 0.186,0.171 0.188,0.068 0.159,0.099 0.126,0.136 0.022,0.175 0.005,0.158 -0.027,0.293 -0.023,0.041 -0.163,0.116 0.054,0.073 0.015,0.08 -0.041,0.225 -0.086,0.195 -0.496,0.262 -0.356,0.058 -0.456,0.108 -0.17,0.076 -0.113,0.086 -0.613,0.637 0.078,1.68 -6.217,0.261 0,-0.004 0.114,-0.442 0.134,-0.551 0.009,-0.025 0.068,-0.096 0,-0.004 0.009,-0.005 0.103,-0.067 0.362,-0.131 1.352,-0.369 0.59,-0.005 0.139,0.018 0.329,-0.009 0.776,-0.198 1.821,-0.902 0.572,-0.667 0.5,-0.672 0.149,-1.405 0.676,-0.758 m 3.795,2.366 0.338,4.526 -1.154,1.177 -4.367,0.243 -0.098,-2.281 -0.078,-1.68 0.613,-0.637 0.113,-0.086 0.17,-0.076 0.456,-0.108 0.356,-0.058 0.496,-0.262 0.086,-0.195 0.041,-0.225 -0.015,-0.08 -0.054,-0.073 3.097,-0.185 m 6.661,-0.472 0.285,3.559 -0.902,-0.093 -0.117,0.013 -0.523,0.288 -1.303,0.983 0.083,1.109 -1.665,0.113 -2.181,-0.974 -0.338,-4.526 2.208,-0.162 4.453,-0.31 m -4.142,5.972 1.665,-0.113 1.318,-0.086 -0.017,0.316 -0.019,0.086 -0.057,0.08 -0.095,0.051 -0.054,0.062 1.894,-0.141 1.275,2.228 -4.102,0.351 -1.654,-0.572 -0.154,-2.262 m -2.181,-0.974 2.181,0.974 0.154,2.262 -3.353,0.207 -0.136,-2.266 1.154,-1.177 m -1.154,1.177 0.136,2.266 0.211,3.403 -4.449,0.239 -0.215,-4.534 -0.05,-1.131 4.367,-0.243 m -10.682,-1.777 6.217,-0.261 0.148,3.412 -3.344,0.131 -1.578,0.063 -0.009,-0.032 0.009,-0.311 -0.454,-0.744 -0.082,-0.085 -0.078,-0.036 -0.129,0.018 -0.308,-0.153 -0.653,-0.785 -0.004,-0.009 -0.01,-0.107 0.275,-1.101 m 1.443,3.345 1.578,-0.063 0.27,5.616 -1.118,0.017 -2.736,0.159 0.677,-0.794 0.067,-1.46 0.036,-0.167 0.753,-1.074 0.104,-0.102 0.279,-0.158 0.054,-0.081 0.082,-0.383 0.039,-1.05 -0.049,-0.348 -0.036,-0.112 m 1.578,-0.063 3.344,-0.131 0.269,5.661 -3.343,0.086 -0.27,-5.616 m 8.008,4.164 0.041,1.123 1.123,-0.055 0.053,0.573 0.049,0.869 -0.44,1.033 -0.141,0.085 -0.914,0.774 -0.059,0.105 -0.054,0.204 -0.121,0.734 -0.456,0.851 -0.063,0.082 -0.672,0.603 -2.519,-1.054 -0.222,-4.561 -0.054,-1.127 4.449,-0.239 m 3.142,-3.61 1.654,0.572 -0.649,2.303 0.055,0.113 0.053,0.239 -0.068,0.229 -0.914,1.38 -2.007,1.284 -0.049,-0.869 -0.053,-0.573 -1.123,0.055 -0.041,-1.123 -0.211,-3.403 3.353,-0.207 m 5.756,0.221 1.117,-0.108 0.189,2.257 -0.45,1.186 -0.541,0.527 -0.841,0.464 -1.313,0.127 -0.582,-0.234 -0.095,-0.965 -0.054,-0.758 -2.181,0.158 0.649,-2.303 4.102,-0.351 m -17.564,9.465 4.493,-0.149 2.519,1.054 -1.474,0.866 -1.447,1.861 -0.905,0.009 -0.225,-0.436 -0.74,-0.979 -0.982,0.032 -1.15,0.076 -0.089,-2.334 m 0.928,-4.624 3.343,-0.086 0.222,4.561 -4.493,0.149 -0.19,-4.607 1.118,-0.017 m -3.854,0.176 2.736,-0.159 0.19,4.607 0.045,1.184 -5.856,0.2 0.06,-0.631 0.72,-1.717 0.298,-0.105 0.014,-0.008 0.103,-0.086 0.023,-0.113 0.004,-0.008 0.026,-1.16 -0.008,-0.13 -0.054,-0.157 -0.162,-0.235 -0.199,-0.094 -0.032,-0.108 0.015,-0.096 0.41,-0.63 0.036,-0.041 0.036,-0.035 0.03,-0.033 0.086,-0.054 0.244,-0.139 0.058,-0.033 0.014,-0.009 0.51,-0.179 0.004,0 0.077,-0.004 0.257,-0.019 0.315,-0.008 m 2.971,5.632 0.044,1.15 0.153,3.372 0.063,1.14 -2.825,0.149 -1.618,0.058 -0.983,-2.383 -0.69,-3.286 5.856,-0.2 m 0.044,1.15 1.15,-0.076 0.982,-0.032 0.74,0.979 0.225,0.436 0.905,-0.009 -0.603,1.479 0.144,0.478 -3.39,0.117 -0.153,-3.372 m 3.543,3.255 -0.229,0.658 -0.158,0.59 0.176,1.371 0.346,0.969 0.077,0.261 0.004,0.049 -0.072,0.23 -0.23,1.654 -3.334,0.135 -2.375,-2.466 -1.39,-1.058 -0.585,-0.929 1.618,-0.058 2.825,-0.149 -0.063,-1.14 3.39,-0.117 m -3.42,5.917 3.334,-0.135 0.308,3.606 1.626,1.857 -2.113,0.558 -0.536,-1.437 0,-0.005 -0.025,-0.09 0.01,-0.041 0.271,-0.419 0.008,-0.162 -0.464,-1.582 -2.419,-2.15" />
</svg>
