<?xml version="1.0" encoding="UTF-8" standalone="no"?>
<!-- Created with Inkscape (http://www.inkscape.org/) -->

<svg
   xmlns:dc="http://purl.org/dc/elements/1.1/"
   xmlns:cc="http://creativecommons.org/ns#"
   xmlns:rdf="http://www.w3.org/1999/02/22-rdf-syntax-ns#"
   xmlns:svg="http://www.w3.org/2000/svg"
   xmlns="http://www.w3.org/2000/svg"
   xmlns:sodipodi="http://sodipodi.sourceforge.net/DTD/sodipodi-0.dtd"
   xmlns:inkscape="http://www.inkscape.org/namespaces/inkscape"
   version="1.0"
   width="555.22198"
   height="351.66797"
   id="svg2"
   inkscape:version="0.48.1 r9760"
   sodipodi:docname="rhodeisland.svg">
  <metadata
     id="metadata13">
    <rdf:RDF>
      <cc:Work
         rdf:about="">
        <dc:format>image/svg+xml</dc:format>
        <dc:type
           rdf:resource="http://purl.org/dc/dcmitype/StillImage" />
      </cc:Work>
    </rdf:RDF>
  </metadata>
  <defs
     id="defs11" />
  <sodipodi:namedview
     pagecolor="#ffffff"
     bordercolor="#666666"
     borderopacity="1"
     objecttolerance="10"
     gridtolerance="10"
     guidetolerance="10"
     inkscape:pageopacity="0"
     inkscape:pageshadow="2"
     inkscape:window-width="640"
     inkscape:window-height="480"
     id="namedview9"
     showgrid="false"
     inkscape:zoom="0.83029853"
     inkscape:cx="277.61099"
     inkscape:cy="175.83398"
     inkscape:window-x="0"
     inkscape:window-y="25"
     inkscape:window-maximized="0"
     inkscape:current-layer="svg2" />
  <path
     id="44009"
     style="font-size:12px;fill:#0000ff;fill-rule:nonzero;stroke:#000000;stroke-opacity:1;stroke-width:0.1;stroke-miterlimit:4;stroke-dasharray:none;stroke-linecap:butt;marker-start:none;stroke-linejoin:bevel"
     d="m 523.34298,98.936 2.812,-0.816 0.533,-0.825 0.257,0.794 0.139,0.946 0.061,0.406 0.011,0.161 0.009,0.244 -0.017,0.131 -0.083,0.518 -0.138,0.523 -3.078,1.559 -0.262,-0.022 -0.244,-3.619 m 1.311,-5.986 1.182,0.122 1.284,2.465 -0.306,0.623 -0.185,-0.212 -0.117,-0.086 -0.126,-0.023 -0.288,0.167 -0.028,0.027 -0.027,0.131 0.027,0.13 -0.072,0.122 -0.027,0.014 -3.051,0.901 -1.015,-3.538 2.749,-0.843 m 3.936,3.552 1.288,2.042 -0.342,0.441 -1.271,0.617 -0.369,0.095 -0.14,-0.09 -0.005,-0.058 0.284,-2.155 0.004,-0.013 0.015,-0.05 0.144,-0.238 0.392,-0.591 m -1.645,-0.198 -0.257,0.991 -0.533,0.825 -2.812,0.816 -0.143,-0.541 -0.28,-1.064 3.051,-0.901 0.027,-0.014 0.072,-0.122 -0.027,-0.13 0.027,-0.131 0.028,-0.027 0.288,-0.167 0.126,0.023 0.117,0.086 0.185,0.212 0.131,0.144 m 0,0 -0.131,-0.144 0.306,-0.623 1.078,0.6 0.392,0.365 -0.392,0.591 -0.144,0.238 -0.015,0.05 -0.707,-0.217 -0.387,-0.86" />
</svg>
