<?xml version="1.0" encoding="UTF-8" standalone="no"?>
<!-- Created with Inkscape (http://www.inkscape.org/) -->

<svg
   xmlns:dc="http://purl.org/dc/elements/1.1/"
   xmlns:cc="http://creativecommons.org/ns#"
   xmlns:rdf="http://www.w3.org/1999/02/22-rdf-syntax-ns#"
   xmlns:svg="http://www.w3.org/2000/svg"
   xmlns="http://www.w3.org/2000/svg"
   xmlns:sodipodi="http://sodipodi.sourceforge.net/DTD/sodipodi-0.dtd"
   xmlns:inkscape="http://www.inkscape.org/namespaces/inkscape"
   version="1.0"
   width="555.22198"
   height="351.66797"
   id="svg2"
   inkscape:version="0.48.1 r9760"
   sodipodi:docname="rochester.svg">
  <metadata
     id="metadata16">
    <rdf:RDF>
      <cc:Work
         rdf:about="">
        <dc:format>image/svg+xml</dc:format>
        <dc:type
           rdf:resource="http://purl.org/dc/dcmitype/StillImage" />
      </cc:Work>
    </rdf:RDF>
  </metadata>
  <defs
     id="defs14" />
  <sodipodi:namedview
     pagecolor="#ffffff"
     bordercolor="#666666"
     borderopacity="1"
     objecttolerance="10"
     gridtolerance="10"
     guidetolerance="10"
     inkscape:pageopacity="0"
     inkscape:pageshadow="2"
     inkscape:window-width="640"
     inkscape:window-height="480"
     id="namedview12"
     showgrid="false"
     inkscape:zoom="0.83029853"
     inkscape:cx="277.61099"
     inkscape:cy="175.83398"
     inkscape:window-x="0"
     inkscape:window-y="25"
     inkscape:window-maximized="0"
     inkscape:current-layer="svg2" />
  <path
     id="36097"
     style="font-size:12px;fill:#0000ff;fill-rule:nonzero;stroke:#000000;stroke-opacity:1;stroke-width:0.1;stroke-miterlimit:4;stroke-dasharray:none;stroke-linecap:butt;marker-start:none;stroke-linejoin:bevel"
     d="m 473.16098,97.998 1.83,-0.446 0.221,0.865 0.284,1.1 0.009,0.226 0.222,1.131 0.676,-0.117 0.089,0.432 -0.172,0.235 -0.414,0.031 -0.481,-0.116 -0.118,-0.501 -0.987,0.202 -1.145,0.316 0.022,0.113 -1.139,0.315 -0.1,0.018 -0.347,-1.478 -0.266,-1.195 1.816,-1.131 m -0.486,-10.51 0.91,4.038 -2.271,0.609 -1.564,0.324 -0.077,-0.347 -1.036,0.212 -1.136,0.293 -0.645,-3.083 0.546,-0.153 1.554,-0.397 0.289,-0.063 0.428,0.005 0.329,0.063 0.699,-0.127 0.054,-0.018 1.343,-0.788 0.217,-0.163 0.36,-0.405 m -0.803,7.824 1.289,2.686 -1.816,1.131 -0.369,-0.072 -0.064,-0.058 -0.117,-0.582 -0.031,-0.297 0.005,-0.108 -2.065,0.419 -0.239,-1.159 0.063,-0.612 0.045,-0.267 0.158,-0.41 3.141,-0.671 m -0.558,-3.177 0.365,1.784 -0.109,0.054 -0.022,0.027 -0.014,0.063 0.338,1.249 -3.141,0.671 -0.158,0.41 -0.045,0.267 -0.063,0.612 0.239,1.159 -1.149,0.216 -0.117,-0.608 -0.208,-0.559 -0.923,0.162 -0.347,-1.136 -0.006,-1.199 0.329,-0.067 0,-0.018 -0.112,-0.487 -0.144,-0.334 -0.085,-0.135 -0.145,-0.117 0.905,-0.167 -0.252,-1.158 1.051,-0.207 1.136,-0.293 1.036,-0.212 0.077,0.347 1.564,-0.324 m -3.759,6.512 1.149,-0.216 2.065,-0.419 -0.005,0.108 0.031,0.297 0.117,0.582 0.064,0.058 0.369,0.072 0.266,1.195 0.347,1.478 0.1,-0.018 1.139,-0.315 0.708,3.528 -6.021,1.223 -1.312,0.265 -0.919,-6.062 1.902,-1.776 m -6.071,-6.157 -0.541,-2.956 0.387,-0.054 1.488,0.027 0.96,0.23 0.441,0.248 0.068,0.031 0.793,0.325 0.262,0.045 0.157,-0.014 1.357,-0.838 0.645,3.083 -1.051,0.207 0.252,1.158 -0.905,0.167 -0.513,0.154 -1.123,0.211 -0.023,-0.031 0.014,-0.018 0.239,-0.054 0.009,-0.028 0.053,-0.356 -0.045,-0.081 -0.108,-0.09 -1.653,0.329 -1.163,-1.695 m 1.163,1.695 1.653,-0.329 0.108,0.09 0.045,0.081 -0.053,0.356 -0.009,0.028 -0.239,0.054 -0.014,0.018 0.023,0.031 1.123,-0.211 0.513,-0.154 0.145,0.117 0.085,0.135 0.144,0.334 0.112,0.487 0,0.018 -0.329,0.067 0.006,1.199 0.347,1.136 0.923,-0.162 0.208,0.559 0.117,0.608 -1.902,1.776 -1.1,0.167 -0.108,-0.55 -1.852,0.315 -0.231,-0.108 -0.013,-0.041 0.058,-0.463 0.078,-0.438 0.346,-0.302 0.172,-0.667 -0.465,-2.479 0.109,-1.672 m -0.054,6.17 1.852,-0.315 0.108,0.55 1.1,-0.167 0.919,6.062 -4.282,0.808 -0.949,0.188 -1.259,-6.648 2.511,-0.478" />
</svg>
