<?xml version="1.0" encoding="UTF-8" standalone="no"?>
<!-- Created with Inkscape (http://www.inkscape.org/) -->

<svg
   xmlns:dc="http://purl.org/dc/elements/1.1/"
   xmlns:cc="http://creativecommons.org/ns#"
   xmlns:rdf="http://www.w3.org/1999/02/22-rdf-syntax-ns#"
   xmlns:svg="http://www.w3.org/2000/svg"
   xmlns="http://www.w3.org/2000/svg"
   xmlns:sodipodi="http://sodipodi.sourceforge.net/DTD/sodipodi-0.dtd"
   xmlns:inkscape="http://www.inkscape.org/namespaces/inkscape"
   version="1.0"
   width="555.22198"
   height="351.66797"
   id="svg2"
   inkscape:version="0.48.1 r9760"
   sodipodi:docname="sandiego.svg">
  <metadata
     id="metadata12">
    <rdf:RDF>
      <cc:Work
         rdf:about="">
        <dc:format>image/svg+xml</dc:format>
        <dc:type
           rdf:resource="http://purl.org/dc/dcmitype/StillImage" />
      </cc:Work>
    </rdf:RDF>
  </metadata>
  <defs
     id="defs10" />
  <sodipodi:namedview
     pagecolor="#ffffff"
     bordercolor="#666666"
     borderopacity="1"
     objecttolerance="10"
     gridtolerance="10"
     guidetolerance="10"
     inkscape:pageopacity="0"
     inkscape:pageshadow="2"
     inkscape:window-width="640"
     inkscape:window-height="480"
     id="namedview8"
     showgrid="false"
     inkscape:zoom="0.83029853"
     inkscape:cx="277.61099"
     inkscape:cy="175.83398"
     inkscape:window-x="0"
     inkscape:window-y="25"
     inkscape:window-maximized="0"
     inkscape:current-layer="svg2" />
  <path
     id="06065-sandiego"
     style="font-size:12px;fill:#ff0000;fill-rule:nonzero;stroke:#000000;stroke-opacity:1;stroke-width:0.1;stroke-miterlimit:4;stroke-dasharray:none;stroke-linecap:butt;marker-start:none;stroke-linejoin:bevel"
     d="m 73.656,202.62826 -0.6875,7.6875 1.375,0.3125 3.3125,0.71875 2.25,0.5 6.5,1.375 5.3125,1.03125 1.375,0.25 2.125,0.40625 1.3125,-1.53125 0.40625,-1.46875 0.3125,-1.5 0.0625,-0.4375 0.28125,-0.96875 0.28125,-0.53125 0.96875,-1.375 -7.1875,-1.4375 -1.34375,-0.0625 -0.75,0.21875 -5.28125,-1.09375 -7.59375,-1.625 -2.625,-0.4375 -0.40625,-0.0312 z m 35.03998,15.60074 -2.051,11.105 -1.091,5.932 -0.18,-0.112 -14.504,-8.717 0.357,-1.551 0.031,-0.049 0.094,-0.032 0.185,0.041 0.46,-0.424 0.437,-0.635 1.132,0.085 1.496,-0.928 0.468,-0.658 0,-0.005 0.095,-0.329 0.104,-0.848 -0.32,-0.747 -0.031,-0.032 -0.032,-0.036 1.551,0.307 1.09,0.184 1.082,-5.512 3.263,0.613 -0.212,1.109 6.576,1.239 m -43.462,-10.695 1.514,0.347 1.123,1.001 -0.05,0.217 4.219,1.013 2.289,0.5 3.322,0.721 2.249,0.51 -0.595,2.983 -0.316,1.475 -1.018,3.587 -0.487,2.131 -1.009,-0.122 -2.055,-0.247 -2.092,-0.243 -2.952,-0.348 -2.835,-0.346 -0.063,-0.005 -0.491,-2.15 0.198,-3.186 0,-0.108 0.005,0 0.008,-0.695 0.005,-0.27 -0.126,-1.104 -0.054,-0.391 -0.207,-0.615 -0.019,-0.053 -0.581,-1.465 -0.171,-0.41 -0.032,-0.064 -0.234,-0.495 -0.347,-0.5 -0.212,-0.229 -0.23,-0.155 1.244,-1.284 m 14.666,4.309 6.482,1.356 5.318,1.042 1.379,0.238 2.14,0.428 -1.081,0.267 -0.635,3.912 0.008,0.022 0.225,0.599 0.497,0.348 0.175,0.077 0.938,0.157 0.032,0.036 0.031,0.032 0.32,0.747 -0.104,0.848 -0.095,0.329 0,0.005 -0.468,0.658 -1.496,0.928 -1.132,-0.085 -0.063,-0.005 -7.968,-0.946 -0.158,-0.019 -0.906,-0.108 -3.367,-0.401 -1.433,-0.167 -1.055,-0.122 0.487,-2.131 1.018,-3.587 0.316,-1.475 0.595,-2.983" />
</svg>
