<?xml version="1.0" encoding="UTF-8" standalone="no"?>
<!-- Created with Inkscape (http://www.inkscape.org/) -->

<svg
   xmlns:dc="http://purl.org/dc/elements/1.1/"
   xmlns:cc="http://creativecommons.org/ns#"
   xmlns:rdf="http://www.w3.org/1999/02/22-rdf-syntax-ns#"
   xmlns:svg="http://www.w3.org/2000/svg"
   xmlns="http://www.w3.org/2000/svg"
   xmlns:sodipodi="http://sodipodi.sourceforge.net/DTD/sodipodi-0.dtd"
   xmlns:inkscape="http://www.inkscape.org/namespaces/inkscape"
   version="1.0"
   width="555.22198"
   height="351.66797"
   id="svg2"
   inkscape:version="0.48.1 r9760"
   sodipodi:docname="sanjoaquin.svg">
  <metadata
     id="metadata23">
    <rdf:RDF>
      <cc:Work
         rdf:about="">
        <dc:format>image/svg+xml</dc:format>
        <dc:type
           rdf:resource="http://purl.org/dc/dcmitype/StillImage" />
      </cc:Work>
    </rdf:RDF>
  </metadata>
  <defs
     id="defs21" />
  <sodipodi:namedview
     pagecolor="#ffffff"
     bordercolor="#666666"
     borderopacity="1"
     objecttolerance="10"
     gridtolerance="10"
     guidetolerance="10"
     inkscape:pageopacity="0"
     inkscape:pageshadow="2"
     inkscape:window-width="640"
     inkscape:window-height="480"
     id="namedview19"
     showgrid="false"
     inkscape:zoom="0.83029853"
     inkscape:cx="277.61099"
     inkscape:cy="175.83398"
     inkscape:window-x="0"
     inkscape:window-y="25"
     inkscape:window-maximized="0"
     inkscape:current-layer="svg2" />
  <path
     id="06077"
     style="font-size:12px;fill:#0000ff;fill-rule:nonzero;stroke:#000000;stroke-opacity:1;stroke-width:0.1;stroke-miterlimit:4;stroke-dasharray:none;stroke-linecap:butt;marker-start:none;stroke-linejoin:bevel"
     d="m 44.97498,139.31 0.171,2.041 -0.644,2.394 -0.361,1.482 -0.554,0.145 -0.578,-0.067 -0.5,-0.099 -0.252,-0.091 -1.141,0.302 -0.202,0.091 -0.469,0.301 -2.655,1.569 -0.55,-0.838 -0.072,-0.154 0.555,-2.019 0.405,-1.461 0.708,-3.497 0.437,-0.567 1.087,-1.151 0.229,0 0.176,0.074 0.121,0.279 0.186,0.176 0.486,0.121 1.785,0.208 0.068,-0.009 0.694,-0.239 0.816,0.022 0.054,0.987 m 10.528,-3.637 -0.626,2.429 -3.831,-0.235 -0.437,-0.026 -0.469,0.243 -1.803,0.794 -2.384,0.753 -0.785,-0.167 -0.126,-0.077 -0.067,-0.077 -0.054,-0.987 0.698,-2.641 0.933,0.108 2.92,0.987 0.447,0.113 0.716,0.082 1.975,0.089 0.559,-0.089 2.334,-1.299 m -0.365,3.525 -1.239,0.17 -0.234,0.073 -0.244,0.114 -1.51,1.31 -1.185,1.1 -1.24,1.279 -0.744,0.731 -1.761,1.163 -1.835,-3.787 -0.171,-2.041 0.067,0.077 0.126,0.077 0.785,0.167 2.384,-0.753 1.803,-0.794 0.469,-0.243 0.437,0.026 3.831,0.235 0.261,1.096 m 2.741,-6.009 2.375,3.562 -0.428,0.562 -0.235,0.604 -0.014,0.131 0.406,1.497 -0.469,1.076 -1.018,0.866 -0.316,-1.185 -0.036,-0.09 -0.045,-0.045 -0.392,-0.091 -0.554,0.068 -0.771,0.257 -0.149,0.073 -1.095,-1.276 -0.261,-1.096 0.626,-2.429 1.33,-0.662 0.247,-0.18 0.807,-0.718 0.05,-0.077 0.068,-0.359 -0.014,-0.248 -0.112,-0.24 m 2.375,3.562 1.924,2.88 1.294,1.927 5.507,8.285 4.593,6.856 -9.321,-2.205 -2.054,-2.149 -0.118,-1.343 -0.311,-0.622 -0.139,-0.167 -0.632,-0.203 -0.748,-0.203 0.18,-0.117 0.537,-0.411 0.351,-1.135 -0.518,-2.294 -0.279,-0.609 -0.397,-0.378 -0.248,-0.194 -0.356,-0.261 -0.424,-0.23 -0.234,-0.153 -0.298,-0.253 -0.414,-0.658 0.162,-1.184 0.109,-0.38 0.076,-0.063 1.018,-0.866 0.469,-1.076 -0.406,-1.497 0.014,-0.131 0.235,-0.604 0.428,-0.562 m -1.758,4.736 -0.076,0.063 -0.109,0.38 -0.162,1.184 0.414,0.658 0.298,0.253 0.234,0.153 0.424,0.23 0.356,0.261 0.248,0.194 0.397,0.378 0.279,0.609 0.518,2.294 -0.351,1.135 -0.537,0.411 -0.18,0.117 -0.27,-0.586 -0.271,-0.716 -0.604,-0.695 -0.95,-0.684 -0.587,0.135 -0.87,0.694 -0.157,0.085 -1.239,0.19 -0.32,0.004 -0.933,-0.253 -0.289,-0.139 -0.059,-0.04 -0.071,-0.131 -0.848,-0.915 -0.194,-0.1 -2.93,0.613 -0.59,0.424 -0.086,0.126 -0.049,0.505 -1.951,-3.186 1.761,-1.163 0.744,-0.731 1.24,-1.279 1.185,-1.1 1.51,-1.31 0.244,-0.114 0.234,-0.073 1.239,-0.17 1.095,1.276 0.149,-0.073 0.771,-0.257 0.554,-0.068 0.392,0.091 0.045,0.045 0.036,0.09 0.316,1.185 m -9.564,6.837 0.049,-0.505 0.086,-0.126 0.59,-0.424 2.93,-0.613 0.194,0.1 0.848,0.915 0.071,0.131 0.059,0.04 0.289,0.139 0.933,0.253 0.32,-0.004 1.239,-0.19 0.157,-0.085 0.87,-0.694 0.587,-0.135 0.95,0.684 0.604,0.695 0.271,0.716 -3.39,2.065 -0.225,0.819 -0.897,0.803 -1.091,-0.266 -3.618,2.209 -0.727,-0.944 -0.265,-0.377 -0.41,-2.447 0.045,-0.045 0.009,-0.036 0.004,-0.19 -0.487,-2.483 0.005,-0.005 m -3.786,-6.973 1.835,3.787 1.951,3.186 -0.005,0.005 -5.272,1.081 -1.465,0.433 0.076,0.045 0.058,0.127 -0.018,0.423 -3.299,1.948 -1.135,-0.979 -0.289,-3.299 0.04,-0.676 0.158,-0.064 0.009,0.01 2.655,-1.569 0.469,-0.301 0.202,-0.091 1.141,-0.302 0.252,0.091 0.5,0.099 0.578,0.067 0.554,-0.145 0.361,-1.482 0.644,-2.394 m 3.781,6.978 0.487,2.483 -0.004,0.19 -0.009,0.036 -0.045,0.045 0.41,2.447 0.265,0.377 0.727,0.944 -0.997,0 -1.528,-0.204 -1.956,0.199 -0.82,0.487 -4.741,2.822 -0.109,-0.185 -1.771,-1.619 -0.545,-1.185 -0.068,-0.185 0.027,-0.072 0.072,-0.1 0.207,-0.216 -0.139,-0.144 -0.077,-0.17 -0.009,-0.073 0.144,-0.505 0.257,-0.117 0.212,-0.333 0.144,-0.695 -0.054,-0.17 3.299,-1.948 0.018,-0.423 -0.058,-0.127 -0.076,-0.045 1.465,-0.433 5.272,-1.081 m 15.324,6.165 -0.36,0.835 -0.027,0.783 0.505,2.538 0.085,0.19 0.032,0.031 0.779,0.55 0.199,0.018 0.761,0.824 0.131,0.267 0.167,1.581 0.027,0.488 -0.085,0.694 -0.293,1.27 -1.781,-0.427 -4.43,-1.042 -0.289,1.059 -1.888,-0.491 -1.289,-0.343 -1.88,0.672 -1.343,0.816 -1.158,0.649 -1.451,-0.149 -1.537,-0.378 -0.699,2.762 -4.462,2.525 -2.042,-2.497 -0.635,-0.915 -0.045,-0.728 0.275,-1.346 0.513,-0.554 0.97,-2.02 -2.285,-4.001 4.741,-2.822 0.284,2.214 0.036,0.242 0.049,0.162 0.104,0.244 0.388,0.63 0.712,0.578 0.617,0.117 4.332,0.14 0.036,-0.01 0.257,-0.252 0.171,-0.284 0.708,-0.789 0.103,-0.085 0.442,-0.293 1.641,-1.023 0.427,-0.068 1.465,0.094 0.307,-0.17 0.284,-0.253 0.149,-0.162 0.207,-0.482 0.022,-0.085 0.009,-0.222 0.086,-0.576 0.122,-0.239 0.189,-0.186 0.446,-0.293 3.147,-1.937 2.054,2.149 m -4.002,-4.687 0.748,0.203 0.632,0.203 0.139,0.167 0.311,0.622 0.118,1.343 -3.147,1.937 -0.446,0.293 -0.189,0.186 -0.122,0.239 -0.086,0.576 -0.009,0.222 -0.022,0.085 -0.207,0.482 -0.149,0.162 -0.284,0.253 -0.307,0.17 -1.465,-0.094 -0.427,0.068 -1.641,1.023 -0.442,0.293 -0.103,0.085 -0.708,0.789 -0.171,0.284 -0.257,0.252 -0.036,0.01 -4.332,-0.14 -0.617,-0.117 -0.712,-0.578 -0.388,-0.63 -0.104,-0.244 -0.049,-0.162 -0.036,-0.242 -0.284,-2.214 0.82,-0.487 1.956,-0.199 1.528,0.204 0.997,0 3.618,-2.209 1.091,0.266 0.897,-0.803 0.225,-0.819 3.39,-2.065 0.27,0.586 m -6.977,15 0.446,0.113 0.257,1.244 -0.419,1.662 -0.261,-0.062 -0.329,0.089 -0.5,1.682 -1.069,4.169 -6.607,-1.69 -0.198,-0.054 -0.627,-1.744 4.462,-2.525 0.699,-2.762 1.537,0.378 1.451,0.149 1.158,-0.649 m 12.9,-0.244 0.243,1.924 0.753,4.269 0.288,4.196 0.045,0.852 -0.171,0.604 -0.491,1.072 -0.596,-0.171 -4.417,-1.032 -5.539,-1.361 -4.89,-1.212 1.069,-4.169 0.5,-1.682 0.329,-0.089 0.261,0.062 0.419,-1.662 -0.257,-1.244 -0.446,-0.113 1.343,-0.816 1.88,-0.672 1.289,0.343 1.888,0.491 0.289,-1.059 4.43,1.042 1.781,0.427 m -1.921,-10.069 9.321,2.205 5.184,7.783 0.193,0.288 1.104,1.641 0.645,0.978 3.403,5.093 2.758,4.142 0.356,0.532 1.479,2.217 0.117,0.172 2.028,3.019 -0.947,0.004 -16.635,-3.677 -2.601,-0.626 -3.817,-0.785 0.491,-1.072 0.171,-0.604 -0.045,-0.852 -0.288,-4.196 -0.753,-4.269 -0.243,-1.924 0.293,-1.27 0.085,-0.694 -0.027,-0.488 -0.167,-1.581 -0.131,-0.267 -0.761,-0.824 -0.199,-0.018 -0.779,-0.55 -0.032,-0.031 -0.085,-0.19 -0.505,-2.538 0.027,-0.783 0.36,-0.835 m -12.854,19.21 4.89,1.212 5.539,1.361 4.417,1.032 0.596,0.171 3.817,0.785 -0.419,1.068 -0.099,0.369 -0.135,1.519 -2.191,9.379 -0.36,-0.089 -12.575,-2.939 0.045,0.374 -0.969,-0.239 -2.601,-1.199 -0.049,-0.351 -0.14,-0.334 -1.023,-0.477 -0.595,-0.216 -0.311,-0.078 0.559,-2.207 -0.496,-1.506 -1.204,-1.415 -1.122,-0.298 -0.437,-1.289 -1.203,-2.475 -1.109,-1.649 0.568,-2.199 6.607,1.69" />
</svg>
