<?xml version="1.0" encoding="UTF-8" standalone="no"?>
<!-- Created with Inkscape (http://www.inkscape.org/) -->

<svg
   xmlns:dc="http://purl.org/dc/elements/1.1/"
   xmlns:cc="http://creativecommons.org/ns#"
   xmlns:rdf="http://www.w3.org/1999/02/22-rdf-syntax-ns#"
   xmlns:svg="http://www.w3.org/2000/svg"
   xmlns="http://www.w3.org/2000/svg"
   xmlns:sodipodi="http://sodipodi.sourceforge.net/DTD/sodipodi-0.dtd"
   xmlns:inkscape="http://www.inkscape.org/namespaces/inkscape"
   version="1.0"
   width="555.22198"
   height="351.66797"
   id="svg2"
   inkscape:version="0.48.1 r9760"
   sodipodi:docname="southeastflorida.svg">
  <metadata
     id="metadata16">
    <rdf:RDF>
      <cc:Work
         rdf:about="">
        <dc:format>image/svg+xml</dc:format>
        <dc:type
           rdf:resource="http://purl.org/dc/dcmitype/StillImage" />
      </cc:Work>
    </rdf:RDF>
  </metadata>
  <defs
     id="defs14" />
  <sodipodi:namedview
     pagecolor="#ffffff"
     bordercolor="#666666"
     borderopacity="1"
     objecttolerance="10"
     gridtolerance="10"
     guidetolerance="10"
     inkscape:pageopacity="0"
     inkscape:pageshadow="2"
     inkscape:window-width="640"
     inkscape:window-height="480"
     id="namedview12"
     showgrid="false"
     inkscape:zoom="0.83029853"
     inkscape:cx="277.61099"
     inkscape:cy="175.83398"
     inkscape:window-x="0"
     inkscape:window-y="25"
     inkscape:window-maximized="0"
     inkscape:current-layer="svg2" />
  <path
     id="12085"
     style="font-size:12px;fill:#0000ff;fill-rule:nonzero;stroke:#000000;stroke-opacity:1;stroke-width:0.1;stroke-miterlimit:4;stroke-dasharray:none;stroke-linecap:butt;marker-start:none;stroke-linejoin:bevel"
     d="m 475.13598,298.722 1.987,3.457 -0.683,0.296 -2.661,0.419 -0.117,0.018 -5.733,0.929 1.871,-3.497 2.987,-0.492 1.488,-0.247 -0.113,-0.726 0.974,-0.157 m -8.374,2.049 1.167,3.07 -0.302,2.507 -2.597,0.418 -4.529,0.686 -0.469,-3.335 3.385,-0.51 -0.181,-1.118 0.952,-1.298 2.574,-0.42 m 1.167,3.07 5.733,-0.929 0.117,-0.018 2.661,-0.419 0.683,-0.296 0.203,0.446 0.221,0.474 0.193,0.418 0.302,0.761 0.19,1.204 0.157,1.117 0.055,0.55 0.13,2.989 -0.017,0.203 -2.042,0.171 -0.55,0.089 -6.72,1.11 -1.316,-7.87 m 1.316,7.87 6.72,-1.11 0.55,-0.089 2.042,-0.171 0.238,4.429 -0.843,0.168 -0.45,0.085 -0.374,0.077 -0.356,0.158 -1.66,0.36 -2.78,0.455 -1.163,-0.095 -1.118,0.176 -0.645,-3.51 -0.161,-0.933 m 9.424,11.195 -0.27,-0.057 0.122,-0.596 0.441,-1.483 0.086,-0.158 0.054,0 0.086,0.442 -0.203,0.947 -0.316,0.905 m -8.618,-6.752 1.118,-0.176 1.163,0.095 2.78,-0.455 1.66,-0.36 0.356,-0.158 0.374,-0.077 0.45,-0.085 0.843,-0.168 0.011,0.033 0.116,0.712 0.135,0.942 0.022,0.293 0.028,0.585 -0.064,0.293 -0.055,0.132 -0.233,0.193 -0.095,-0.101 -0.153,-0.071 -0.148,0.042 -0.338,0.206 -0.114,0.127 -0.031,0.099 -0.595,2.474 -0.052,0.437 0.044,0.263 0.323,0.986 0.077,0.072 0.122,0 0.054,0.064 -0.018,0.143 -0.22,0.483 -0.488,0.73 -0.027,0.03 -0.306,0.344 -0.649,0.712 -1.504,0.753 -0.335,0.162 -0.45,0.126 -0.74,0.131 -1.167,0.022 -0.009,-0.005 -0.122,-0.175 -0.524,-2.122 -0.887,-5.548 -0.352,-2.183 m 4.328,13.396 -0.132,0.28 -0.472,0.423 -0.469,0.405 -0.569,0.208 -0.048,0.013 0,-0.004 -0.01,-0.009 0.05,-0.059 0.555,-0.554 1.004,-0.761 0.091,0.058 m 4.29,-6.644 -0.072,0.051 -0.166,0.314 -0.699,1.794 -0.02,0.081 0.083,0.185 -0.072,0.203 -0.167,0.334 -1.848,2.52 -0.057,0.067 -0.916,0.874 -0.028,-0.027 0,-0.009 0.005,-0.059 0.369,-0.564 0.257,-0.225 0.538,-0.621 0.351,-0.424 0.617,-0.932 0.103,-0.19 0.664,-1.406 0.788,-2.023 0.27,0.057 m -7.247,8.852 -0.51,0.465 -0.68,0.464 -0.338,0.099 -0.194,-0.148 -0.027,-0.025 -0.022,-0.038 0.996,-0.563 1.379,-0.767 0.008,0.013 0.064,0.135 -0.059,0.073 -0.617,0.292 m -7.054,2.272 0.009,-0.136 0.163,-0.328 1.572,-0.816 0.446,0.076 0.826,0.194 0.338,0.519 0,0.031 -0.05,0.041 -0.113,0.071 -0.212,0.136 -0.698,0.343 -4.457,1.636 -0.285,0.067 -0.031,-0.017 -0.051,-0.212 0.024,-0.081 0.172,-0.237 0.536,-0.134 0.103,-0.012 0.067,0.067 0.051,0.018 0.41,-0.19 0.171,-0.098 0.446,-0.375 0.563,-0.563 m 6.035,-15.693 0.887,5.548 0.524,2.122 0.122,0.175 0.009,0.005 -0.704,0.568 -0.937,0.371 -0.934,0.22 -0.188,-0.077 -0.514,-0.297 -0.103,-0.082 -0.479,-0.675 -0.031,-0.298 0.018,-0.568 0.049,-0.455 0.028,-0.108 0.077,-0.122 0.067,-0.036 0.153,0.031 0.026,-0.085 -0.008,-0.126 -0.814,-1.271 -1.335,-2.033 -1.375,-1.911 5.462,-0.896 m -0.997,-5.693 0.645,3.51 0.352,2.183 -5.462,0.896 -0.081,-0.162 -0.054,-0.058 -0.542,-0.303 -0.292,-0.121 -0.086,-0.027 -1.123,-0.239 -0.139,0 -1.347,0.251 -0.109,0.073 -0.095,0.118 -0.013,0.135 -0.032,0.243 -0.044,0.154 -0.081,-0.009 -0.064,-0.064 -0.734,-1.037 -1.014,-1.73 -0.123,-0.474 -0.08,-0.32 -0.298,-1.045 -0.252,-0.708 -0.194,-0.396 -0.014,-0.022 0.329,0.12 1.858,-0.297 0.901,-1.492 -0.194,-1.141 3.353,-0.567 0.19,1.19 0.369,2.127 4.47,-0.788 m -8.905,-5.192 4.529,-0.686 2.597,-0.418 0.302,-2.507 1.316,7.87 0.161,0.933 -4.47,0.788 -0.369,-2.127 -0.19,-1.19 -3.353,0.567 -0.523,-3.23" />
</svg>
