<?xml version="1.0" encoding="UTF-8" standalone="no"?>
<!-- Created with Inkscape (http://www.inkscape.org/) -->

<svg
   xmlns:dc="http://purl.org/dc/elements/1.1/"
   xmlns:cc="http://creativecommons.org/ns#"
   xmlns:rdf="http://www.w3.org/1999/02/22-rdf-syntax-ns#"
   xmlns:svg="http://www.w3.org/2000/svg"
   xmlns="http://www.w3.org/2000/svg"
   xmlns:sodipodi="http://sodipodi.sourceforge.net/DTD/sodipodi-0.dtd"
   xmlns:inkscape="http://www.inkscape.org/namespaces/inkscape"
   version="1.0"
   width="555.22198"
   height="351.66797"
   id="svg2"
   inkscape:version="0.48.1 r9760"
   sodipodi:docname="southwesternvirginia.svg">
  <metadata
     id="metadata55">
    <rdf:RDF>
      <cc:Work
         rdf:about="">
        <dc:format>image/svg+xml</dc:format>
        <dc:type
           rdf:resource="http://purl.org/dc/dcmitype/StillImage" />
      </cc:Work>
    </rdf:RDF>
  </metadata>
  <defs
     id="defs53" />
  <sodipodi:namedview
     pagecolor="#ffffff"
     bordercolor="#666666"
     borderopacity="1"
     objecttolerance="10"
     gridtolerance="10"
     guidetolerance="10"
     inkscape:pageopacity="0"
     inkscape:pageshadow="2"
     inkscape:window-width="640"
     inkscape:window-height="480"
     id="namedview51"
     showgrid="false"
     inkscape:zoom="0.83029853"
     inkscape:cx="277.61099"
     inkscape:cy="175.83398"
     inkscape:window-x="0"
     inkscape:window-y="25"
     inkscape:window-maximized="0"
     inkscape:current-layer="svg2" />
  <path
     id="51640"
     style="font-size:12px;fill:#0000ff;fill-rule:nonzero;stroke:#000000;stroke-opacity:1;stroke-width:0.1;stroke-miterlimit:4;stroke-dasharray:none;stroke-linecap:butt;marker-start:none;stroke-linejoin:bevel"
     d="m 447.43098,179.96 0.004,-0.005 0.091,-0.081 0.108,-0.149 0.328,-0.085 0.312,0.053 -0.131,0.375 -0.195,0.342 0.01,0.117 0.014,0.167 -0.095,0.113 -0.203,0.049 -0.271,-0.329 -0.062,-0.117 -0.015,-0.14 0.036,-0.22 0.069,-0.09 m -12.007,3.055 -0.992,0.135 0.509,-1.022 0.337,-0.203 0.263,-0.018 0.171,0.081 0.081,0.252 -0.022,0.279 -0.347,0.496 m 34.118,-16.243 -0.518,2.069 -1.329,0.82 -2.47,-2.52 1.235,-1.708 0.414,-0.212 2.668,1.551 m -19.2,7.536 -0.059,0.049 -0.21,-0.229 -0.087,-0.163 -0.041,-0.148 0.037,-0.145 0.204,-0.216 0.215,-0.145 0.099,-0.017 0.09,-0.014 0.08,-0.026 0.087,-0.069 0.211,0.054 0.091,0.244 -0.081,0.154 -0.384,0.476 -0.252,0.195 m -20.359,4.399 0.014,-0.09 0.199,0.099 0.094,0.093 0.019,0.271 -0.231,0.497 -0.356,0.104 -0.306,-0.267 0.037,-0.226 0.174,-0.319 0.231,-0.145 0.125,-0.017 m 28.129,-0.956 0.074,-0.072 0.526,0.103 0.247,0.663 -0.049,0.23 -0.22,0.122 -0.641,-0.329 -0.193,-0.186 0.211,-0.487 0.045,-0.044 m -2.645,-7.342 -0.027,0.059 -0.009,0.594 0.085,0.149 -0.666,-0.019 -0.06,-0.657 0.677,-0.126 m 0,0 0.022,-0.045 0.437,-0.365 0.663,0.103 0.248,0.135 0.045,0.042 0.05,0.153 -0.178,0.648 -0.192,0.329 -0.179,0.172 -0.092,-0.005 -0.743,-0.306 -0.032,-0.059 -0.085,-0.149 0.009,-0.594 0.027,-0.059 m 9.171,-2.699 -1.009,1.171 -0.622,-0.36 -0.302,-1.311 0.766,-0.232 1.167,0.732 m -4.33,-4.512 -0.312,0.347 -0.162,0.108 -0.18,-0.153 -0.108,-0.353 0.153,-0.219 0.266,-0.078 0.378,0.086 -0.035,0.262 m 0.333,0.306 0,-0.018 0.229,-0.234 0.33,-0.023 0.028,0.383 -0.163,0.55 -0.05,0.095 -0.157,0.171 -0.154,-0.023 -0.158,-0.193 -0.09,-0.514 0.023,-0.113 0.162,-0.081 m 4.074,-5.188 0.039,-0.027 0.264,-0.013 0.143,0.243 0.004,0.073 -0.04,0.284 -0.054,0.136 -0.437,0.12 -0.343,-0.148 -0.063,-0.153 0,-0.06 0.159,-0.243 0.229,-0.226 0.099,0.014 m -1.442,-0.932 0.017,-0.033 0.113,0.033 0.091,0.13 0.094,0.199 -0.013,0.265 -0.068,0.177 -0.189,0.197 -0.366,-0.009 -0.238,-0.117 -0.1,-0.175 0.028,-0.226 0.067,-0.212 0.564,-0.229 m -3.218,-2.285 0.699,-1.009 2.077,0.995 1.532,0.644 1.731,0.992 -0.063,0.361 -0.058,0.653 0.117,0.495 0,0.118 -0.136,0.239 -0.379,0.329 -0.769,1.578 -0.338,0.55 -0.776,-0.038 -0.17,0.042 -0.132,0.072 -0.609,0.37 -0.32,-0.248 -1.721,-0.829 -1.631,-0.848 -0.509,-1.154 0.666,-0.766 0.176,-0.554 -0.037,-0.135 0.045,-0.186 0.519,-1.545 0.086,-0.126 z m 3.218,2.285 -0.564,0.229 -0.067,0.212 -0.028,0.226 0.1,0.175 0.238,0.117 0.366,0.009 0.189,-0.197 0.068,-0.177 0.013,-0.265 -0.094,-0.199 -0.091,-0.13 -0.113,-0.033 -0.017,0.033 z m 1.442,0.932 -0.099,-0.014 -0.229,0.226 -0.159,0.243 0,0.06 0.063,0.153 0.343,0.148 0.437,-0.12 0.054,-0.136 0.04,-0.284 -0.004,-0.073 -0.143,-0.243 -0.264,0.013 -0.039,0.027 m -4.66,-3.217 -0.086,0.126 -0.519,1.545 -0.045,0.186 0.037,0.135 -0.176,0.554 -0.666,0.766 -0.533,-0.148 -1.487,-0.04 -0.469,-0.176 -0.496,-0.231 -0.243,-0.491 0,-0.014 0.005,-0.045 0.617,-0.959 0.266,-0.947 0.05,-0.911 0.017,-1.068 0.997,0.239 0.203,0.09 0.189,0.189 0.612,0.907 1.727,0.293 m 5.52,3.817 2.683,3.664 -1.384,2.641 -0.414,0.212 -0.321,0.008 -0.942,-1.432 -0.265,-0.292 -1.036,-0.938 -0.043,-0.037 -0.688,-0.292 -0.33,0.193 -0.054,-1.153 0.609,-0.37 0.132,-0.072 0.17,-0.042 0.776,0.038 0.338,-0.55 0.769,-1.578 m -2.74,3.727 0.33,-0.193 0.688,0.292 0.043,0.037 1.036,0.938 0.265,0.292 0.942,1.432 0.321,-0.008 -1.235,1.708 -0.587,0.569 -1.167,-0.732 -2.858,-1.486 0.118,0 0.22,-0.181 0.317,-0.316 0.166,-0.225 0.213,-1 0.133,-0.446 0.096,-0.212 0.221,-0.365 0.098,-0.108 0.64,0.004 m -3.726,-3.078 1.631,0.848 1.721,0.829 0.32,0.248 0.054,1.153 -0.64,-0.004 -0.098,0.108 -0.221,0.365 -0.096,0.212 -0.133,0.446 -0.213,1 -0.166,0.225 -0.317,0.316 -0.22,0.181 -0.118,0 -0.422,1.185 -2.268,-2.641 -0.009,-1.429 1.195,-3.042 z m 1.199,3.633 0.035,-0.262 -0.378,-0.086 -0.266,0.078 -0.153,0.219 0.108,0.353 0.18,0.153 0.162,-0.108 0.312,-0.347 z m 0.333,0.306 -0.162,0.081 -0.023,0.113 0.09,0.514 0.158,0.193 0.154,0.023 0.157,-0.171 0.05,-0.095 0.163,-0.55 -0.028,-0.383 -0.33,0.023 -0.229,0.234 0,0.018 m -5.026,-5.688 0.496,0.231 0.469,0.176 1.487,0.04 0.533,0.148 0.509,1.154 -1.195,3.042 -0.356,0.419 -2.046,-0.289 -0.081,-0.054 -0.509,-0.639 -0.023,-0.009 -0.672,0.036 -0.509,0.194 0.698,-1.591 1.199,-2.858 m -1.13,6.161 0.148,-0.134 0.361,0.076 0.049,0.108 0.076,0.621 -0.333,0.267 -0.18,-0.117 -0.138,-0.131 0.017,-0.69 m -0.767,-1.712 0.509,-0.194 0.672,-0.036 0.023,0.009 0.509,0.639 0.081,0.054 2.046,0.289 0.356,-0.419 0.009,1.429 -1.507,-0.238 -0.242,0.288 0.027,0.058 -0.049,0.185 -0.122,0.226 -0.347,0.531 -0.78,0.852 -0.185,0.172 -0.206,-0.054 -0.92,0.918 -0.653,-0.153 -0.181,-0.121 -0.889,-0.695 1.849,-3.74 z m 0.767,1.712 -0.017,0.69 0.138,0.131 0.18,0.117 0.333,-0.267 -0.076,-0.621 -0.049,-0.108 -0.361,-0.076 -0.148,0.134 m 10.153,3.733 0.587,-0.569 2.47,2.52 -0.378,2.487 -1.98,-0.161 -0.284,-0.231 -1.505,-0.392 -0.87,0.19 -0.243,0.302 -0.614,0.828 1.186,-4.163 0.622,0.36 1.009,-1.171 m -4.552,1.351 0.027,-0.144 0.464,-0.095 0.281,0.181 -0.136,0.55 -0.424,0.058 -0.152,-0.062 -0.226,-0.244 0.013,-0.244 0.153,0 m 0.527,-3.569 2.858,1.486 -0.766,0.232 0.302,1.311 -1.186,4.163 -1.491,0.443 -2.952,-1.907 -0.189,-1.068 0.504,-0.639 -0.149,-0.741 0.857,-1.036 0.103,-0.103 0.177,-0.055 0.076,0.023 0.145,0.109 0.185,0.188 0.342,0.023 0.049,-0.018 0.05,-0.041 0.513,-0.839 0.15,-0.346 0.422,-1.185 z m -0.527,3.569 -0.153,0 -0.013,0.244 0.226,0.244 0.152,0.062 0.424,-0.058 0.136,-0.55 -0.281,-0.181 -0.464,0.095 -0.027,0.144 m -2.163,-5.025 2.268,2.641 -0.15,0.346 -0.513,0.839 -0.05,0.041 -0.049,0.018 -0.342,-0.023 -0.185,-0.188 -0.145,-0.109 -0.076,-0.023 -0.177,0.055 -0.103,0.103 -0.857,1.036 0.149,0.741 -0.504,0.639 -2.516,-1.067 0.217,-0.308 0.568,-1.433 -0.758,-0.923 -0.076,-0.176 0.094,-0.135 0.185,-0.172 0.78,-0.852 0.347,-0.531 0.122,-0.226 0.049,-0.185 -0.027,-0.058 0.242,-0.288 1.507,0.238 m -3.205,2.074 -0.094,0.135 0.076,0.176 0.758,0.923 -0.568,1.433 -0.217,0.308 -0.54,0.509 -0.631,0.265 -0.446,0.428 -0.096,0.163 -1.662,0.617 -0.653,-1.316 0.293,-0.248 1.153,-1.019 -0.23,-0.427 0.316,-0.654 0.581,-0.703 0.181,0.121 0.653,0.153 0.92,-0.918 0.206,0.054 m 2.66,5.11 2.952,1.907 -0.054,2.466 -0.96,0.914 -0.527,0.185 -1.759,-0.126 -0.667,0.513 -2.127,-0.666 0.542,-3.399 0.784,-0.725 0.621,0.229 0.225,0.037 0.081,-0.045 0.353,-0.402 0.536,-0.888 m -2.705,-2.135 2.516,1.067 0.189,1.068 -0.536,0.888 -0.353,0.402 -0.081,0.045 -0.225,-0.037 -0.621,-0.229 -0.784,0.725 -0.483,0.207 -0.027,-0.216 -0.361,-1.288 -0.594,-0.61 -0.353,-0.657 0.096,-0.163 0.446,-0.428 0.631,-0.265 0.54,-0.509 z m 0.794,1.324 -0.677,0.126 0.06,0.657 0.666,0.019 0.032,0.059 0.743,0.306 0.092,0.005 0.179,-0.172 0.192,-0.329 0.178,-0.648 -0.05,-0.153 -0.045,-0.042 -0.248,-0.135 -0.663,-0.103 -0.437,0.365 -0.022,0.045 m -0.689,2.605 -0.542,3.399 -1.969,2.478 -2.186,-2.578 0.797,-0.825 0.708,-0.224 0.757,-0.348 0.455,-0.27 0.027,-0.078 0.479,-0.724 0.991,-0.623 0.483,-0.207 m -1.818,-2.564 0.353,0.657 0.594,0.61 0.361,1.288 0.027,0.216 -0.991,0.623 -0.479,0.724 -0.027,0.078 -0.455,0.27 -0.757,0.348 -0.708,0.224 -0.536,-1.18 0.252,-0.195 0.384,-0.476 0.081,-0.154 -0.091,-0.244 -0.211,-0.054 -0.087,0.069 -0.08,0.026 -0.09,0.014 -0.802,-1.041 1.6,-1.186 1.662,-0.617 m -3.262,1.803 0.802,1.041 -0.099,0.017 -0.215,0.145 -0.204,0.216 -0.037,0.145 0.041,0.148 0.087,0.163 0.21,0.229 0.059,-0.049 0.536,1.18 -0.797,0.825 -0.965,0.852 -2.14,-2.213 0.432,-1.045 2.29,-1.654 m -2.908,-1.944 1.001,0.573 1.253,-0.941 0.104,-0.082 1.014,-0.802 0.483,0.694 0.653,1.316 -1.6,1.186 -2.29,1.654 -1.559,-1.668 0.929,-1.948 0.012,0.018 m 2.326,6.856 -2.907,1.42 -2.132,0.906 -1.573,-2.244 0.809,-1.001 0.566,-0.469 1.064,0.059 0.852,-0.324 1.181,-0.56 2.14,2.213 m -5.621,-3.79 2.354,-1.136 1.559,1.668 -0.432,1.045 -1.181,0.56 -0.852,0.324 -1.064,-0.059 -0.566,0.469 -0.809,1.001 -0.698,-0.65 0.293,-0.672 1.131,-1.695 0.265,-0.855 m -0.991,3.872 1.573,2.244 -3.244,2.136 -0.127,0.082 -1.118,-1.875 -1.663,-1.582 0.514,-0.465 0.797,-0.176 1.2,-0.532 0.603,-0.257 0.767,-0.225 0.698,0.65 m -0.591,-4.977 1.582,1.105 -0.265,0.855 -1.131,1.695 -0.293,0.672 -0.767,0.225 -0.603,0.257 -1.2,0.532 -0.797,0.176 -1.578,-2.182 0.257,-0.31 1,-0.645 0.2,-0.554 0.675,0.401 1.181,-0.234 0.032,-0.018 0.442,-0.406 0.008,-0.009 0.883,-0.808 0.374,-0.752 m -6.484,-1.645 0.455,0.271 -0.141,0.063 -0.455,0.41 -0.027,0.086 0.072,0.193 0.87,1.235 0.848,0.739 0.004,0 0.117,0.06 1.146,0.414 -0.2,0.554 -1,0.645 -0.257,0.31 -0.91,0.398 -0.112,0.085 -0.068,0.212 -0.018,0.176 0.004,0.292 -0.09,0.154 -0.383,0.275 -0.654,0.09 -0.076,-0.014 -2.087,-3.088 2.962,-3.56 m 1.432,4.98 1.578,2.182 -0.514,0.465 -1.122,1.004 -1.497,0.735 -1.988,1.826 -1.067,-2.038 0.622,-1.329 1.681,-1.177 0.076,0.014 0.654,-0.09 0.383,-0.275 0.09,-0.154 -0.004,-0.292 0.018,-0.176 0.068,-0.212 0.112,-0.085 0.91,-0.398 m -4.394,-1.42 2.087,3.088 -1.681,1.177 -0.167,0.171 -0.153,0.072 -1.186,-0.698 -0.203,-0.213 -0.784,-1.001 -0.211,-0.964 0.396,-0.284 1.523,-0.859 0.379,-0.489 m -2.298,1.632 0.211,0.964 0.784,1.001 0.203,0.213 1.186,0.698 0.153,-0.072 0.167,-0.171 -0.622,1.329 -1.433,0.127 -0.712,0.121 -0.168,0.055 -1.077,0.766 -0.171,0.301 0,0.14 -1.343,-1.128 0.041,-0.977 2.668,-3.29 0.113,-0.077 z m -0.186,2.89 -0.125,0.017 -0.231,0.145 -0.174,0.319 -0.037,0.226 0.306,0.267 0.356,-0.104 0.231,-0.497 -0.019,-0.271 -0.094,-0.093 -0.199,-0.099 -0.014,0.09 m 30.239,1.04 -3.169,0.533 -0.266,0.045 -0.113,-0.861 -0.185,-0.568 -0.076,-0.135 -0.153,-0.166 -0.266,-0.492 -0.134,-0.699 0,-0.045 0.112,-0.131 0.391,-0.149 0.667,-0.513 1.759,0.126 0.527,-0.185 0.96,-0.914 -0.054,4.154 z m -2.11,-1.996 -0.045,0.044 -0.211,0.487 0.193,0.186 0.641,0.329 0.22,-0.122 0.049,-0.23 -0.247,-0.663 -0.526,-0.103 -0.074,0.072 m -3.876,-1.338 2.127,0.666 -0.391,0.149 -0.112,0.131 0,0.045 0.134,0.699 0.266,0.492 0.153,0.166 0.076,0.135 0.185,0.568 0.113,0.861 -3.938,0.554 -1.762,0.189 -0.231,-0.598 0.046,-0.236 0.138,-0.517 0.055,-0.028 0.117,-0.008 0.347,0.193 0.081,0.014 0.144,-0.069 0.162,-0.13 0.321,-0.798 1.969,-2.478 m -4.155,-0.1 2.186,2.578 -0.321,0.798 -0.162,0.13 -0.144,0.069 -0.081,-0.014 -0.347,-0.193 -0.117,0.008 -0.055,0.028 -0.138,0.517 -0.046,0.236 0.231,0.598 -2.295,0.361 -0.834,-0.902 -0.01,-0.117 0.195,-0.342 0.131,-0.375 -0.312,-0.053 -0.328,0.085 -0.108,0.149 -0.091,0.081 -0.004,0.005 -1.222,-1.375 2.907,-1.42 0.965,-0.852 m -3.872,2.272 1.222,1.375 -0.069,0.09 -0.036,0.22 0.015,0.14 0.062,0.117 0.271,0.329 0.203,-0.049 0.095,-0.113 -0.014,-0.167 0.834,0.902 -0.654,0.068 -4.615,0.559 -3.322,0.334 0.266,-0.353 0.366,-0.41 3.244,-2.136 2.132,-0.906 m -8.284,-0.333 1.663,1.582 1.118,1.875 0.127,-0.082 -0.366,0.41 -1.834,0.248 -0.979,0.117 -0.072,0.302 -2.158,0.311 0.347,-0.496 0.022,-0.279 -0.081,-0.252 -0.171,-0.081 -0.263,0.018 -0.337,0.203 -0.509,1.022 -0.513,0.077 -0.601,-1.41 1.988,-1.826 1.497,-0.735 1.122,-1.004 m -9.235,3.037 0,-0.14 0.171,-0.301 1.077,-0.766 0.168,-0.055 0.712,-0.121 1.433,-0.127 1.067,2.038 0.601,1.41 -3.205,0.478 -2.254,0.32 -1.573,0.216 0.234,-1.104 0.402,-0.365 1.167,-1.483 m 0,0 -1.167,1.483 -0.402,0.365 -0.234,1.104 -4.971,0.627 -2.077,0.23 2.077,-1.114 1.036,-0.554 2.141,-1.212 2.042,-1.686 0.212,-0.371 1.343,1.128" />
</svg>
