<?xml version="1.0" encoding="UTF-8" standalone="no"?>
<!-- Created with Inkscape (http://www.inkscape.org/) -->

<svg
   xmlns:dc="http://purl.org/dc/elements/1.1/"
   xmlns:cc="http://creativecommons.org/ns#"
   xmlns:rdf="http://www.w3.org/1999/02/22-rdf-syntax-ns#"
   xmlns:svg="http://www.w3.org/2000/svg"
   xmlns="http://www.w3.org/2000/svg"
   xmlns:sodipodi="http://sodipodi.sourceforge.net/DTD/sodipodi-0.dtd"
   xmlns:inkscape="http://www.inkscape.org/namespaces/inkscape"
   version="1.0"
   width="555.22198"
   height="351.66797"
   id="svg2"
   inkscape:version="0.48.1 r9760"
   sodipodi:docname="southernohio.svg">
  <metadata
     id="metadata48">
    <rdf:RDF>
      <cc:Work
         rdf:about="">
        <dc:format>image/svg+xml</dc:format>
        <dc:type
           rdf:resource="http://purl.org/dc/dcmitype/StillImage" />
      </cc:Work>
    </rdf:RDF>
  </metadata>
  <defs
     id="defs46" />
  <sodipodi:namedview
     pagecolor="#ffffff"
     bordercolor="#666666"
     borderopacity="1"
     objecttolerance="10"
     gridtolerance="10"
     guidetolerance="10"
     inkscape:pageopacity="0"
     inkscape:pageshadow="2"
     inkscape:window-width="640"
     inkscape:window-height="480"
     id="namedview44"
     showgrid="false"
     inkscape:zoom="0.83029853"
     inkscape:cx="277.61099"
     inkscape:cy="175.83398"
     inkscape:window-x="0"
     inkscape:window-y="25"
     inkscape:window-maximized="0"
     inkscape:current-layer="svg2" />
  <path
     id="39037"
     style="font-size:12px;fill:#0000ff;fill-rule:nonzero;stroke:#000000;stroke-opacity:1;stroke-width:0.1;stroke-miterlimit:4;stroke-dasharray:none;stroke-linecap:butt;marker-start:none;stroke-linejoin:bevel"
     d="m 406.17198,137.647 0.267,2.024 0.505,3.573 -0.582,0.087 -3.186,0.401 -0.117,-1.141 -0.398,-3.944 -0.067,-0.548 3.578,-0.452 m 0.267,2.024 4.002,-0.324 0.103,1.869 0.117,2.088 -1.049,0.054 -0.073,-0.122 -0.058,-0.203 0.081,-0.158 -2.618,0.369 -0.505,-3.573 m 8.505,-1.501 0.663,1.461 0.062,1.301 -5.125,0.284 -0.167,-3.033 2.259,-0.118 0.582,0.168 1.726,-0.063 m -4.4,3.046 5.125,-0.284 -0.888,3.237 -1.821,-0.086 -0.017,-0.324 -1.137,-0.096 -0.424,-0.013 -0.697,0.032 -0.024,-0.378 -0.117,-2.088 m 5.063,-1.585 2.897,-0.344 0.149,3.84 0.117,1.533 -3.952,0.243 -0.037,-0.734 0.888,-3.237 -0.062,-1.301 m 7.174,-1.173 0.14,2.425 -0.149,1.921 -4.119,0.323 -0.149,-3.84 0.288,-0.504 3.989,-0.325 m -5.273,-3.443 2.218,-0.171 2.82,0.716 0.055,0.942 0.18,1.956 -3.989,0.325 -0.198,-1.293 -0.73,0.089 -0.249,-1.676 -0.107,-0.888 m 5.093,1.487 2.7,-0.221 0.022,0.244 1.105,-0.095 1.631,-0.212 0.221,0.916 0.023,3.325 -2.258,0.104 -3.124,0.32 -0.14,-2.425 -0.18,-1.956 m 11.043,-0.883 2.762,-0.333 1.176,0.396 0.362,2.822 -1.11,0.143 -0.365,0.095 -1.41,0.929 -0.311,0.384 0.054,0.41 -1.113,0.126 -0.145,-1.141 -0.364,0.044 -0.307,-2.852 0.351,-0.042 0.081,-0.053 -0.085,-0.784 0.424,-0.144 m 7.278,-0.329 1.744,-0.253 -0.026,1.641 -0.397,2.425 -0.086,0.063 -0.712,0.081 -2.29,0.203 -1.077,0.131 -0.134,-1.077 -0.362,-2.822 3.34,-0.392 m -12.642,1.844 4.593,-0.492 0.307,2.852 0.364,-0.044 0.145,1.141 0.134,1.122 -3.717,0.355 -1.803,-1.609 -0.023,-3.325 m 1.826,4.934 3.717,-0.355 1.398,2.005 -2.241,2.141 -2.171,-1 -0.703,-2.791 m 7.838,-3.564 0.134,1.077 -0.744,0.095 0.272,2.09 0.369,-0.053 0.184,1.302 -2.938,0.703 -1.398,-2.005 -0.134,-1.122 1.113,-0.126 -0.054,-0.41 0.311,-0.384 1.41,-0.929 0.365,-0.095 1.11,-0.143 m 0.134,1.077 1.077,-0.131 2.29,-0.203 0.712,-0.081 0.086,-0.063 0.108,1.735 -0.888,1.64 -0.789,1.001 -0.045,-0.41 -2.064,0.235 -0.406,-0.289 -0.184,-1.302 -0.369,0.053 -0.272,-2.09 0.744,-0.095 m -12.033,0.982 2.258,-0.104 1.803,1.609 0.703,2.791 -1.105,0.085 -2.289,-0.96 -0.077,-1.14 -0.703,-1.1 -0.51,0.031 -0.08,-1.212 m -3.124,0.32 3.124,-0.32 0.08,1.212 0.51,-0.031 0.703,1.1 0.077,1.14 -1.14,0.072 -1.145,0.861 -0.852,0.658 -0.167,0.198 -1.104,0.064 -0.149,-1.745 -0.086,-1.288 0.149,-1.921 m -4.268,2.244 4.119,-0.323 0.086,1.288 0.149,1.745 1.104,-0.064 0.068,1.122 -2.345,0.181 -0.126,-0.136 -0.222,-0.175 -2.545,0.22 -0.171,-2.325 -0.117,-1.533 m -3.835,1.776 3.952,-0.243 0.171,2.325 -0.798,1.93 -2.144,0.266 -1.064,-2.11 -0.117,-2.168 m -0.037,-0.734 0.037,0.734 0.117,2.168 -3.038,0.146 -1.357,0.052 0.145,-3.587 0.697,-0.032 0.424,0.013 1.137,0.096 0.017,0.324 1.821,0.086 m -7.837,-0.925 2.618,-0.369 -0.081,0.158 0.058,0.203 0.073,0.122 1.049,-0.054 0.024,0.378 -0.145,3.587 -2.479,0.159 -1.114,0.129 -0.585,-4.226 0.582,-0.087 m -0.582,0.087 0.585,4.226 -3.262,0.691 -0.235,-2.056 -0.274,-2.46 3.186,-0.401 m 0.585,4.226 1.114,-0.129 0.59,3.826 -0.381,-0.023 -1.876,0.085 -0.726,0.132 -1.627,0.189 -0.288,-2.804 -0.068,-0.585 3.262,-0.691 m 3.593,-0.288 1.357,-0.052 0.22,4.082 -2.51,0.117 -0.956,-0.162 -0.59,-3.826 2.479,-0.159 m 4.395,-0.198 1.064,2.11 -2.479,2.045 -1.267,0.073 -0.136,0 -0.22,-4.082 3.038,-0.146 m -6.284,4.183 0.956,0.162 -0.393,0.856 0.159,0.433 0.04,1.992 -1.956,-0.721 -1.127,0.411 -1.992,-0.171 -0.297,-2.579 1.627,-0.189 0.726,-0.132 1.876,-0.085 0.381,0.023 m 3.466,0.045 0.136,0 0.202,6.31 -1.852,-0.527 -0.095,-0.591 -1.095,-1.794 -0.04,-1.992 -0.159,-0.433 0.393,-0.856 2.51,-0.117 m 0.136,0 1.267,-0.073 0.31,2.921 1.965,-0.243 0.325,4.985 -0.78,-0.387 -0.879,-0.91 -0.063,-0.051 -0.122,-0.045 -0.342,-0.045 -1.479,0.158 -0.202,-6.31 m 3.746,-2.118 2.144,-0.266 0.501,2.288 -0.073,1.881 -2.776,0.82 -1.965,0.243 -0.31,-2.921 2.479,-2.045 m 2.942,-2.196 2.545,-0.22 0.222,0.175 0.126,0.136 2.345,-0.181 0.103,1.299 0.149,2.082 -0.157,0.536 -5.63,0.391 -0.501,-2.288 0.798,-1.93 m 8.474,-3.001 2.289,0.96 0.091,1.172 -1.118,0.081 0.076,1.15 -2.226,0.166 0.018,0.343 -1.144,0.265 -1.119,0.073 -0.103,-1.299 -0.068,-1.122 0.167,-0.198 0.852,-0.658 1.145,-0.861 1.14,-0.072 m 2.289,0.96 1.105,-0.085 2.171,1 0.173,1.708 0.432,0.536 0.951,-0.108 0.076,0.808 -0.175,0.387 -5.142,0.446 -0.087,-1.159 -0.378,0.032 -0.153,-2.312 1.118,-0.081 -0.091,-1.172 m 8.455,-1.929 0.406,0.289 2.064,-0.235 0.045,0.41 -0.869,1.357 -1.981,1.699 -0.435,-0.536 -0.072,-0.077 -0.253,-0.14 -0.113,-0.009 -0.09,0.028 -0.103,0.089 -0.627,0.766 -1.289,1.641 -0.23,0.506 -0.076,-0.808 -0.951,0.108 -0.432,-0.536 -0.173,-1.708 2.241,-2.141 2.938,-0.703 m -13.877,5.179 1.119,-0.073 1.144,-0.265 -0.018,-0.343 2.226,-0.166 0.077,1.162 0.378,-0.032 0.087,1.159 -0.204,2.343 -1.122,0.064 -0.085,-1.339 -1.181,-0.393 -1.154,-0.116 -1.118,0.081 -0.149,-2.082 m 5.013,1.442 5.142,-0.446 0.184,1.081 -0.612,0.266 0,0.112 0.049,0.176 0.108,0.141 0.112,0.082 0.226,0.151 0.108,0.126 0.24,1.038 -0.024,0.108 -1.045,0.744 -0.329,0.086 0,-0.676 -0.036,-0.1 -0.247,-0.37 -0.195,-0.242 -0.73,-0.398 -0.005,0 -0.153,-0.008 -0.171,0.09 -0.46,0.779 -0.031,0.18 -0.05,-0.585 -2.27,0.198 -0.015,-0.19 0.204,-2.343 m -0.204,2.343 0.015,0.19 2.27,-0.198 0.05,0.585 -0.226,1.235 -0.13,2.083 0.003,0.004 0.258,1.051 0.014,0.09 0,0.018 -0.005,0.045 -0.005,0.076 -0.013,0.063 -0.041,0.067 -0.025,0.027 -0.056,0.045 -0.022,0.024 -0.059,0.012 -0.189,0.041 -0.654,0.217 -0.748,0.076 -0.082,-0.982 -1.248,-0.879 -1.212,-0.324 -0.048,-0.853 1.031,-2.649 1.122,-0.064 m -4.66,-1.703 1.118,-0.081 1.154,0.116 1.181,0.393 0.085,1.339 -1.031,2.649 -0.744,0.045 -0.919,0.064 -0.231,-0.51 -0.045,-0.649 -0.537,0.04 -0.188,-2.87 0.157,-0.536 m -5.787,0.927 5.63,-0.391 0.188,2.87 -1.916,0.159 -2.095,0.234 -0.036,-0.021 -0.644,-0.619 -1.2,-0.351 0.073,-1.881 m 1.127,2.232 0.603,5.336 -0.571,-0.428 -0.024,-0.008 -0.337,-0.158 -0.027,-0.013 -1.074,-0.258 -0.404,-0.099 -0.014,0 -0.085,-0.009 -0.123,0.027 -0.784,0.343 -0.104,0.072 -0.077,0.126 -0.054,0.455 -0.576,0.068 -0.325,-4.985 2.776,-0.82 1.2,0.351 m 0,0 0.644,0.619 0.036,0.021 2.095,-0.234 1.916,-0.159 0.537,-0.04 0.045,0.649 0.231,0.51 0.919,-0.064 0.067,1.128 -0.009,0.192 -0.587,2.107 -0.612,0.392 -0.045,-0.023 -0.216,-0.144 -0.01,-0.014 -0.081,-0.095 -0.067,-0.143 -0.023,-0.05 -0.28,-0.843 -0.095,-0.406 0.01,-0.156 -0.005,-0.006 0,-0.013 -0.008,-0.091 -0.019,-0.077 -0.004,-0.018 -0.005,-0.018 -0.017,-0.031 -0.027,-0.04 -0.013,-0.023 -0.046,-0.05 -0.103,-0.045 -0.051,0 -0.012,0.003 -0.272,0.119 -0.834,0.378 -0.179,0.081 0,0.005 -2.277,1.915 -0.603,-5.336 m 6.423,1.302 0.744,-0.045 0.048,0.853 1.212,0.324 1.248,0.879 0.082,0.982 0.748,-0.076 -0.004,0.564 -0.004,0.027 -0.045,0.924 -0.018,0.094 -0.018,0.086 -0.028,0.076 -0.053,0.068 -0.099,0.064 -1.592,0.63 -0.884,-0.027 -0.87,-0.978 -1.608,-0.626 0.612,-0.392 0.587,-2.107 0.009,-0.192 -0.067,-1.128" />
</svg>
