<?xml version="1.0" encoding="UTF-8" standalone="no"?>
<!-- Created with Inkscape (http://www.inkscape.org/) -->

<svg
   xmlns:dc="http://purl.org/dc/elements/1.1/"
   xmlns:cc="http://creativecommons.org/ns#"
   xmlns:rdf="http://www.w3.org/1999/02/22-rdf-syntax-ns#"
   xmlns:svg="http://www.w3.org/2000/svg"
   xmlns="http://www.w3.org/2000/svg"
   xmlns:sodipodi="http://sodipodi.sourceforge.net/DTD/sodipodi-0.dtd"
   xmlns:inkscape="http://www.inkscape.org/namespaces/inkscape"
   version="1.0"
   width="555.22198"
   height="351.66797"
   id="svg2"
   inkscape:version="0.48.1 r9760"
   sodipodi:docname="southdakota.svg">
  <metadata
     id="metadata74">
    <rdf:RDF>
      <cc:Work
         rdf:about="">
        <dc:format>image/svg+xml</dc:format>
        <dc:type
           rdf:resource="http://purl.org/dc/dcmitype/StillImage" />
      </cc:Work>
    </rdf:RDF>
  </metadata>
  <defs
     id="defs72" />
  <sodipodi:namedview
     pagecolor="#ffffff"
     bordercolor="#666666"
     borderopacity="1"
     objecttolerance="10"
     gridtolerance="10"
     guidetolerance="10"
     inkscape:pageopacity="0"
     inkscape:pageshadow="2"
     inkscape:window-width="640"
     inkscape:window-height="480"
     id="namedview70"
     showgrid="false"
     inkscape:zoom="0.83029853"
     inkscape:cx="277.61099"
     inkscape:cy="175.83398"
     inkscape:window-x="0"
     inkscape:window-y="25"
     inkscape:window-maximized="0"
     inkscape:current-layer="svg2" />
  <path
     id="46137"
     style="font-size:12px;fill:#0000ff;fill-rule:nonzero;stroke:#000000;stroke-opacity:1;stroke-width:0.1;stroke-miterlimit:4;stroke-dasharray:none;stroke-linecap:butt;marker-start:none;stroke-linejoin:bevel"
     d="m 239.11298,76.495 4.795,0.288 -0.603,5.576 -0.032,0.576 3.322,0.181 -0.176,3.182 -0.239,0.311 -0.644,0.351 -2.227,0.829 -1.514,0.433 -0.059,-0.099 -0.252,-0.013 -0.474,0.04 -2.537,0.554 -0.099,0.077 -0.045,0.09 0.432,-6.788 0.352,-5.588 m 39.013,31.361 2.24,0.026 2.227,1.15 0.144,3.885 -1.091,-0.929 -0.671,-0.081 -0.893,-0.036 -0.586,0.077 -1.902,0.125 0.532,-4.217 m -24.726,-32.159 6.45,0.297 0.086,0.005 -0.19,4.48 -5.007,-0.225 -0.401,-0.6 -0.072,-0.342 0.04,-0.109 0.045,-0.067 0.248,-0.288 0.091,-0.257 0.004,-0.077 -0.563,-1.208 -0.731,-1.609 m 35.818,33.388 -0.653,2.254 -0.379,1.01 -0.378,1.73 0.247,0.189 0.311,0.289 0.244,0.392 0.342,0.901 0.339,0.934 -1.821,-0.465 -0.676,-1.005 -0.028,-0.117 0.005,-0.118 0.036,-0.152 -0.054,-0.216 -0.104,-0.235 -0.77,-0.487 0.045,-4.926 3.294,0.022 m -6.273,-5.444 1.915,0.009 -0.05,5.4 -2.217,-0.018 -2.227,-1.15 0.041,-4.278 2.538,0.037 m -28.819,-3.588 0.266,0.257 1.438,0.068 1.767,-0.013 0.915,-0.478 0.942,-0.293 0.085,0.045 0.239,0.275 -0.113,3.142 0.839,0.035 -0.244,6.492 -6.242,-0.262 0.076,-5.076 0.032,-4.192 m -9.505,3.733 9.473,0.459 -0.076,5.076 -0.748,-0.037 -0.672,-0.031 -1.83,-0.086 -3.407,-0.158 -3.016,-0.158 0.276,-5.065 m 15.27,-18.809 -0.194,4.512 -7.811,-0.329 -0.604,-0.149 -0.13,-0.058 -0.118,-0.082 -0.103,-0.122 -0.063,-0.108 -0.041,-0.184 0.036,-0.289 0.09,-0.139 0.099,-0.258 0.136,-0.536 0,-0.176 -0.131,-0.396 -0.028,-0.027 -0.752,-0.446 -0.059,-0.059 -0.031,-0.081 -0.005,-0.131 0.032,-0.131 0.036,-0.099 0.09,-0.162 0.113,-0.072 0.04,-0.004 0.167,0.067 0.108,0.104 0.072,0.085 0.145,0.248 0.266,0.293 0.229,0.081 0.339,0.077 0.17,-0.068 1.069,-0.951 0.153,-0.166 0.086,-0.131 0.014,-0.099 -0.095,-0.298 6.675,0.284 m -9.614,1.213 0.752,0.446 0.028,0.027 0.131,0.396 0,0.176 -0.136,0.536 -0.099,0.258 -0.09,0.139 -0.036,0.289 0.041,0.184 0.063,0.108 0.103,0.122 0.118,0.082 0.13,0.058 0.604,0.149 -0.415,0.59 -0.067,0.095 -0.054,0.203 -0.014,0.144 0.009,0.05 0.086,0.117 1.848,1.402 0.036,0.031 0.198,0.09 0.856,0.248 0.33,0.05 0.378,0.008 0.14,0.041 0.59,0.199 1.474,0.608 0.081,0.041 0.126,0.112 0.068,0.176 -0.009,0.031 -0.441,0.555 -3.962,-0.167 -0.018,0.338 -6.279,-0.311 -1.104,-0.054 0.121,-2.263 0.356,-4.466 0.199,-0.73 1.032,0.356 0.306,-0.086 0.145,-0.243 0.568,-0.226 0.761,-0.121 1.046,0.212 m 25.186,-5.175 -0.027,1.127 -0.082,3.178 0,0.184 0.05,0.005 -0.072,3.362 -6.684,-0.194 0,-3.398 0.117,-4.471 6.698,0.207 m -39.086,18.236 -0.184,2.898 0.261,0.014 -0.072,1.122 -0.198,3.371 0.256,0.019 -0.117,1.675 -6.662,-0.458 -1.956,-0.149 0.455,-6.152 0.122,-1.668 0.906,-0.821 0.942,-0.112 5.873,0.41 0.374,-0.149 m 35.566,-4.832 4.417,0.117 0.04,0 -0.103,4.467 -1.082,-0.031 -3.322,-0.082 -0.032,-1.126 0.082,-3.345 m 16.478,-22.183 -0.05,0.563 0,0.027 -0.005,0.014 -0.04,0.342 -0.032,0.279 -0.022,0.117 -0.009,0.064 -0.009,0.027 -0.009,0.018 -0.014,0.032 -0.631,0.937 -0.184,0.185 -0.347,0.189 -0.312,0.203 -0.824,0.662 -0.014,0.018 -0.018,0.023 -0.014,0.014 -0.031,0.072 -0.126,0.432 0.036,0.05 0.162,0.207 0.631,0.843 1.325,1.469 0.87,0.424 0.297,0.239 0.172,0.396 -4.219,-0.031 -0.671,0.374 -1.993,-0.032 0.041,-3.357 0.049,-4.859 5.991,0.059 m -33.682,8.018 5.007,0.225 1.231,0.05 -0.158,4.489 -0.928,-0.041 -6.675,-0.284 -0.063,-0.198 -0.023,-0.14 -0.04,-0.644 0.013,-0.244 0.131,-0.225 0.193,-0.212 0.095,-0.032 0.153,0.018 0.383,-0.563 0.46,-1.077 0.239,-0.978 -0.018,-0.144 m -23.703,-10.416 8.456,0.586 -0.379,6.071 -0.352,5.588 -8.721,-0.608 0.162,-2.231 0.167,-2.231 0.392,-4.453 0.068,0.004 0.207,-2.726 m -11.961,22.409 5.552,0.46 9.821,0.721 0.333,-1.212 0.154,-0.951 0.531,-1.407 0.073,-0.117 0.122,-0.131 0.121,-0.076 0.478,0.004 0.59,0.23 0.384,0.014 0.671,-0.793 0.077,-0.036 0.338,-0.077 -0.136,2.159 -0.058,-0.005 -0.284,4.507 -0.108,-0.004 -0.234,3.7 -0.33,0.217 -0.026,0 -0.375,-0.005 -0.392,-0.194 -0.374,0.149 -5.873,-0.41 1.136,-1.402 0.136,-0.487 0.026,-0.189 -6.377,-0.487 -6.296,-0.473 0.32,-3.705 m 70.233,2.425 -0.027,4.489 -4.043,-0.009 0.037,-4.493 4.033,0.013 m -4.07,4.48 4.043,0.009 -0.018,4.521 -1.36,-0.009 -3.043,-0.023 -1.915,-0.009 0.058,-4.512 2.235,0.023 m -4.407,-4.538 -0.059,4.484 -2.222,-0.041 -2.253,-0.054 0.103,-4.467 4.431,0.078 m -34.363,3.407 0.064,-0.068 0.211,-0.049 0.397,0.045 0.568,0.288 0.491,0.433 2.979,0.802 1.668,0.203 0.189,0.139 0.086,0.154 1.005,0.085 -0.032,4.192 -9.473,-0.459 0.275,-5.003 0.13,-0.293 0.077,-0.109 0.694,-0.392 0.464,-0.077 0.153,0.059 0.054,0.05 m -7.707,-15.938 -0.432,6.788 -0.009,0.005 -0.338,0.077 -0.077,0.036 -0.671,0.793 -0.384,-0.014 -0.59,-0.23 -0.478,-0.004 -0.121,0.076 -0.122,0.131 -0.073,0.117 -0.531,1.407 -0.154,0.951 -0.333,1.212 -9.821,-0.721 0.113,-1.497 -1.118,-0.081 0.077,-0.933 0.342,-3.547 5.53,0.424 0.167,-1.641 0.289,-3.957 0.013,0 8.721,0.608 m 21.256,-10.564 6.413,0.244 2.529,0.09 -0.131,4.475 -8.892,-0.329 -0.086,-0.005 0.167,-4.475 m 20.755,27.579 2.231,0.031 -0.058,4.512 -2.538,-0.037 -1.92,-0.031 0.063,-4.516 2.222,0.041 m 1.658,-26.921 -0.049,4.859 -1.249,-0.027 -0.072,-0.37 -5.489,-0.113 0.103,-4.471 6.756,0.122 m -21.989,21.941 0.089,1.203 0.032,0.099 0.167,0.248 0.248,0.248 0.261,0.063 0.307,0.04 0.203,0.082 0.455,0.419 0.207,0.221 0.068,0.18 -0.005,0.154 -0.049,0.296 -0.063,0.167 0.401,0.875 0.014,0.04 -0.01,0.063 -0.577,2.718 0.041,0.068 0.635,1.488 0.005,0.062 -0.032,0.118 -0.076,0.134 -0.054,0.064 -0.005,0 -2.199,-0.077 -0.839,-0.035 0.113,-3.142 -0.239,-0.275 -0.085,-0.045 -0.942,0.293 -0.915,0.478 -1.767,0.013 -1.438,-0.068 -0.266,-0.257 -1.005,-0.085 0.059,-1.384 -0.235,-0.306 0.181,-4.156 0.018,-0.338 3.962,0.167 0.022,0.09 0.306,0.608 0.064,0.104 0.067,0.063 0.081,0.045 0.14,0.041 2.118,0.419 0.167,-0.067 0.067,-0.082 0.055,-0.103 0.009,-0.073 -0.009,-0.122 -0.019,-0.08 -0.067,-0.127 -0.455,-0.905 0.789,0.356 m 24.419,9.532 3.043,0.023 0.161,3.114 0.208,0.469 0.672,0.003 0.089,0.042 0.361,1.298 -0.027,0.089 -0.149,0.397 -3.294,-0.022 -1.114,-0.013 0.05,-5.4 m -65.326,-16.937 1.42,-0.19 0.771,-0.068 2.316,0.194 -0.342,3.547 -0.077,0.933 1.118,0.081 -0.113,1.497 -5.552,-0.46 0.044,-0.504 0.415,-5.03 m 61.297,7.901 2.221,0.017 2.223,0.028 -0.037,4.493 -2.235,-0.023 -2.231,-0.031 0.059,-4.484 m -1.059,-4.526 3.348,0.059 -0.068,4.484 -2.221,-0.017 -4.431,-0.078 -0.04,0 0.094,-4.511 3.318,0.063 m -26.646,4.034 -0.181,4.156 0.235,0.306 -0.059,1.384 -0.086,-0.154 -0.189,-0.139 -1.668,-0.203 -2.979,-0.802 -0.491,-0.433 -0.568,-0.288 -0.397,-0.045 -0.211,0.049 -0.064,0.068 0.104,-1.979 0.275,-2.231 6.279,0.311 m 13.322,0.144 2.087,0.063 3.408,0.09 -0.082,3.345 -4.416,-0.082 -1.109,-0.036 0.112,-3.38 m -28.606,1.271 8.73,0.505 -0.104,1.979 -0.054,-0.05 -0.153,-0.059 -0.464,0.077 -0.694,0.392 -0.077,0.109 -0.13,0.293 -0.275,5.003 -8.239,-0.501 0.072,-1.122 -0.261,-0.014 0.184,-2.898 0.392,0.194 0.375,0.005 0.026,0 0.33,-0.217 0.234,-3.7 0.108,0.004 m 22.977,-10.519 2.389,0.09 -0.167,4.511 0.113,0.005 -0.153,4.557 -2.56,-0.063 -0.789,-0.356 0.045,-4.273 0.194,-4.512 0.928,0.041 m 12.931,18.479 1.402,0.018 3.335,0.058 1.92,0.031 -0.041,4.278 -2.24,-0.026 -4.146,-0.076 -0.27,-0.385 0.04,-3.898 m -14.053,-14.008 -0.045,4.273 0.455,0.905 0.067,0.127 0.019,0.08 0.009,0.122 -0.009,0.073 -0.055,0.103 -0.067,0.082 -0.167,0.067 -2.118,-0.419 -0.14,-0.041 -0.081,-0.045 -0.067,-0.063 -0.064,-0.104 -0.306,-0.608 -0.022,-0.09 0.441,-0.555 0.009,-0.031 -0.068,-0.176 -0.126,-0.112 -0.081,-0.041 -1.474,-0.608 -0.59,-0.199 -0.14,-0.041 -0.378,-0.008 -0.33,-0.05 -0.856,-0.248 -0.198,-0.09 -0.036,-0.031 -1.848,-1.402 -0.086,-0.117 -0.009,-0.05 0.014,-0.144 0.054,-0.203 0.067,-0.095 0.415,-0.59 7.811,0.329 m -38.567,-20.435 9.424,0.748 0.482,0.036 -0.207,2.726 -0.068,-0.004 -0.392,4.453 -0.167,2.231 -9.825,-0.779 0.694,-8.596 0.059,-0.815 m 55.167,29.949 2.253,0.054 -0.063,4.516 -3.335,-0.058 0.063,-4.543 1.082,0.031 m -13.089,-13.895 5.44,0.171 0,3.398 -0.113,5.652 -2.087,-0.063 -3.447,-0.085 0.153,-4.557 -0.113,-0.005 0.167,-4.511 m 22.184,1.685 -0.041,3.367 -2.231,-0.013 -3.348,-0.059 0.063,-3.358 5.557,0.063 m -47.063,2.078 0.045,-0.09 0.099,-0.077 2.537,-0.554 0.474,-0.04 0.252,0.013 0.059,0.099 1.514,-0.433 2.227,-0.829 0.644,-0.351 0.239,-0.311 -0.199,0.73 -0.356,4.466 -0.121,2.263 1.104,0.054 -0.275,2.231 -8.73,-0.505 0.284,-4.507 0.058,0.005 0.136,-2.159 0.009,-0.005 m 24.374,14.297 0.365,0.825 3.926,3.813 0.852,0.635 0.982,0.437 0.122,0.01 0.514,0.197 0.274,0.24 0.113,0.157 0.117,0.226 0.023,0.081 0.004,0.096 -7.107,-0.208 -2.628,-0.094 0.244,-6.492 2.199,0.077 m 26.52,-23.086 0.149,0.744 -0.01,3.759 -3.93,-0.018 0.01,-2.235 -3.124,-0.054 0.022,-1.885 1.993,0.032 0.671,-0.374 4.219,0.031 m -20.503,0.722 0.045,0.004 -0.117,4.471 -5.44,-0.171 -2.389,-0.09 0.158,-4.489 7.743,0.275 m -50.371,19.994 9.811,0.793 -0.455,6.152 -4.728,-0.365 -5.137,-0.42 0.509,-6.16 m 41.587,-24.799 8.892,0.329 -0.108,4.476 -7.743,-0.275 -1.231,-0.05 0.19,-4.48 m 8.297,27.35 3.592,0.098 1.925,0.05 -0.04,3.898 -5.139,-2.338 -0.153,-0.042 -0.244,0.005 0.014,-0.748 0.045,-0.923 m -14.102,-26.043 0.563,1.208 -0.004,0.077 -0.091,0.257 -0.248,0.288 -0.045,0.067 -0.04,0.109 0.072,0.342 0.401,0.6 0.018,0.144 -0.239,0.978 -0.46,1.077 -0.383,0.563 -0.153,-0.018 -0.095,0.032 -0.193,0.212 -0.131,0.225 -0.013,0.244 0.04,0.644 0.023,0.14 0.158,0.496 -0.014,0.099 -0.086,0.131 -0.153,0.166 -1.069,0.951 -0.17,0.068 -0.339,-0.077 -0.229,-0.081 -0.266,-0.293 -0.145,-0.248 -0.072,-0.085 -0.108,-0.104 -0.167,-0.067 -0.04,0.004 -0.113,0.072 -0.09,0.162 -0.036,0.099 -0.032,0.131 0.005,0.131 0.031,0.081 0.059,0.059 -1.046,-0.212 -0.761,0.121 -0.568,0.226 -0.145,0.243 -0.306,0.086 -1.032,-0.356 0.176,-3.182 -3.322,-0.181 0.032,-0.576 0.603,-5.576 10.223,0.523 m 35.231,7.279 -0.004,2.222 -0.014,2.254 -0.008,1.131 -3.985,-0.032 0.041,-3.367 0.04,-2.226 3.93,0.018 m -13.791,-8.059 5.489,0.113 0.072,0.37 1.249,0.027 -0.063,5.242 -2.443,-0.032 -4.439,-0.104 0.135,-5.616 m -0.356,22.446 -0.063,4.543 -1.402,-0.018 -1.925,-0.05 0.068,-4.557 3.322,0.082 m -56.46,-3.02 6.296,0.473 6.377,0.487 -0.026,0.189 -0.136,0.487 -1.136,1.402 -0.942,0.112 -0.906,0.821 -0.122,1.668 -9.811,-0.793 0.027,-0.325 0.379,-4.521 m 20.755,-25.528 0.058,0.005 0.022,0.004 0.145,0.009 1.086,0.068 1.293,0.076 1.362,0.086 1.127,0.063 0.523,0.031 0.919,0.05 2.614,0.144 0.816,0.045 1.081,0.054 0.073,0.005 0.203,0.009 2.046,0.104 0.112,0.004 0.969,1.005 0.05,0.144 0.554,1.966 -0.009,0.234 -0.068,0.162 -0.049,0.068 -0.158,0.099 -0.067,0.018 -0.388,0.004 -0.18,0.117 -0.099,0.19 -0.145,0.509 0.731,1.609 -10.223,-0.523 -4.795,-0.288 0.379,-6.071 0.018,0 m 40.365,11.822 2.443,0.032 3.124,0.054 -0.01,2.235 -0.04,2.226 -5.557,-0.063 0.04,-4.484 m 4.935,26.804 1.114,0.013 -0.045,4.926 -1.975,-0.738 -1.167,-0.334 -0.144,-3.885 2.217,0.018 m -4.935,-26.804 -0.04,4.484 -0.063,3.358 -3.318,-0.063 -1.122,-1.154 0.072,-3.362 -0.05,-0.005 0,-0.184 0.082,-3.178 4.439,0.104 m -17.167,20.922 4.692,0.153 0.833,0.028 -0.045,0.923 -0.014,0.748 0.244,-0.005 0.153,0.042 5.139,2.338 0.27,0.385 -0.099,0.215 -0.257,1.951 -0.117,1.185 -0.312,0.897 -0.135,0.019 -1.324,-0.6 -1.741,-1.562 -0.004,-0.096 -0.023,-0.081 -0.117,-0.226 -0.113,-0.157 -0.274,-0.24 -0.514,-0.197 -0.122,-0.01 -0.982,-0.437 -0.852,-0.635 -3.926,-3.813 -0.365,-0.825 0.005,0 m -4.151,-31.716 1.46,0.067 -0.167,4.475 -6.45,-0.297 0.145,-0.509 0.099,-0.19 0.18,-0.117 0.388,-0.004 0.067,-0.018 0.158,-0.099 0.049,-0.068 0.068,-0.162 0.009,-0.234 -0.554,-1.966 -0.05,-0.144 -0.969,-1.005 5.567,0.271 m -28.355,7.792 -0.162,2.231 -0.013,0 -0.289,3.957 -0.167,1.641 -5.53,-0.424 -2.316,-0.194 -0.771,0.068 -1.42,0.19 0.451,-5.49 0.392,-2.758 9.825,0.779 m 30.239,14.874 2.56,0.063 3.447,0.085 -0.112,3.38 -3.975,-0.108 0.063,-0.167 0.049,-0.296 0.005,-0.154 -0.068,-0.18 -0.207,-0.221 -0.455,-0.419 -0.203,-0.082 -0.307,-0.04 -0.261,-0.063 -0.248,-0.248 -0.167,-0.248 -0.032,-0.099 -0.089,-1.203 m 5.895,3.528 1.109,0.036 -0.045,5.639 -4.692,-0.153 0.054,-0.064 0.076,-0.134 0.032,-0.118 -0.005,-0.062 -0.635,-1.488 -0.041,-0.068 0.577,-2.718 0.01,-0.063 -0.014,-0.04 -0.401,-0.875 3.975,0.108 m 2.623,-25.793 6.449,0.193 0.266,0.009 -0.103,4.471 -0.108,4.489 -6.698,-0.207 -0.045,-0.004 0.108,-4.476 0.131,-4.475 m 14.161,18.294 2.231,0.013 3.985,0.032 -0.028,4.48 -4.033,-0.013 -2.223,-0.028 0.068,-4.484 m -9.14,17.633 4.146,0.076 -0.532,4.217 -0.824,-0.107 -1.087,0.401 -0.198,0.284 -0.266,0.242 -0.126,0.078 -0.478,0.072 -0.157,0.008 -0.167,-0.027 -0.203,-0.09 -1.028,-0.887 0.135,-0.019 0.312,-0.897 0.117,-1.185 0.257,-1.951 0.099,-0.215 m -29.359,-3.994 -0.276,5.065 -3.736,-0.194 -2.344,-0.18 -1.942,-0.127 0.117,-1.675 -0.256,-0.019 0.198,-3.371 8.239,0.501 m 30.711,-14.915 1.122,1.154 -0.094,4.511 -4.417,-0.117 -3.408,-0.09 0.113,-5.652 6.684,0.194 m -3.471,8.893 0.032,1.126 -0.068,4.557 -3.592,-0.098 -0.833,-0.028 0.045,-5.639 4.416,0.082" />
</svg>
