<?xml version="1.0" encoding="UTF-8" standalone="no"?>
<!-- Created with Inkscape (http://www.inkscape.org/) -->

<svg
   xmlns:dc="http://purl.org/dc/elements/1.1/"
   xmlns:cc="http://creativecommons.org/ns#"
   xmlns:rdf="http://www.w3.org/1999/02/22-rdf-syntax-ns#"
   xmlns:svg="http://www.w3.org/2000/svg"
   xmlns="http://www.w3.org/2000/svg"
   xmlns:sodipodi="http://sodipodi.sourceforge.net/DTD/sodipodi-0.dtd"
   xmlns:inkscape="http://www.inkscape.org/namespaces/inkscape"
   version="1.0"
   width="555.22198"
   height="351.66797"
   id="svg2"
   inkscape:version="0.48.1 r9760"
   sodipodi:docname="southcarolina.svg">
  <metadata
     id="metadata31">
    <rdf:RDF>
      <cc:Work
         rdf:about="">
        <dc:format>image/svg+xml</dc:format>
        <dc:type
           rdf:resource="http://purl.org/dc/dcmitype/StillImage" />
      </cc:Work>
    </rdf:RDF>
  </metadata>
  <defs
     id="defs29" />
  <sodipodi:namedview
     pagecolor="#ffffff"
     bordercolor="#666666"
     borderopacity="1"
     objecttolerance="10"
     gridtolerance="10"
     guidetolerance="10"
     inkscape:pageopacity="0"
     inkscape:pageshadow="2"
     inkscape:window-width="640"
     inkscape:window-height="480"
     id="namedview27"
     showgrid="false"
     inkscape:zoom="0.83029853"
     inkscape:cx="277.61099"
     inkscape:cy="175.83398"
     inkscape:window-x="0"
     inkscape:window-y="25"
     inkscape:window-maximized="0"
     inkscape:current-layer="svg2" />
  <path
     id="45011"
     style="font-size:12px;fill:#0000ff;fill-rule:nonzero;stroke:#000000;stroke-opacity:1;stroke-width:0.1;stroke-miterlimit:4;stroke-dasharray:none;stroke-linecap:butt;marker-start:none;stroke-linejoin:bevel"
     d="m 451.14898,222.037 0.127,0.356 0.089,0.456 0.316,2.636 0.05,0.186 0.379,0.428 -0.943,0.279 -0.861,0.139 -0.991,-0.198 -0.992,-0.152 -0.663,0.955 -1.799,-0.843 3.597,-4.642 1.691,0.4 m 1.362,-3.723 0.982,0.92 3.555,1.451 0.33,-0.089 1.09,-1.028 0.117,-0.284 0.551,0.658 0.338,0.324 0.431,0.285 0.331,0.107 0.139,0.014 0.302,-0.059 1.046,-0.343 -1.082,2.629 -0.69,0.108 -0.549,-0.131 -0.118,-0.063 -0.127,-0.194 -0.03,-0.095 -0.007,-0.138 -0.025,-0.105 -0.055,-0.076 -0.054,-0.045 -2.726,2.46 -0.072,0.063 -1.19,-1.009 -1.082,-0.564 -0.338,-0.117 -1.163,-0.396 -1.266,-0.56 -1.691,-0.4 1.642,-2.385 1.411,-0.938 m 3.677,6.369 -2.718,2.408 -1.36,-0.992 -0.379,-0.428 -0.05,-0.186 -0.316,-2.636 -0.089,-0.456 -0.127,-0.356 1.266,0.56 1.163,0.396 0.338,0.117 1.082,0.564 1.19,1.009 m -2.718,2.408 -1.191,1.049 -0.121,0.113 -0.144,0.198 -0.185,0.515 -0.031,0.476 -0.086,0.614 -0.45,0.761 -0.464,0.312 -0.204,0.098 -2.05,-3.619 -0.884,-0.486 0.663,-0.955 0.992,0.152 0.991,0.198 0.861,-0.139 0.943,-0.279 1.36,0.992 m 2.79,-2.471 1.966,1.149 0.049,0.027 0.337,0.051 0.722,-0.164 1.303,-0.102 0.027,0 0.125,0.094 0.05,0.127 0.23,2.262 0.032,0.617 -0.235,1.131 0.397,0.695 0.635,1.415 0.457,0.634 0.202,0.051 0.081,-0.023 0.014,-0.095 -0.014,-0.031 -0.122,-0.108 0.117,-0.149 0.663,-0.288 0.085,0.071 0.005,0.005 -0.78,0.808 -0.063,0 -0.884,-0.009 -0.608,0.14 -4.191,-2.156 -3.39,-3.681 2.718,-2.408 0.072,-0.063 m -3.781,-8.567 0.553,0.337 1.637,0.695 0.843,0.034 1.379,0.02 1.113,1.122 0.581,1.023 -0.117,0.284 -1.09,1.028 -0.33,0.089 -3.555,-1.451 -0.982,-0.92 0.855,-0.536 0.289,-0.293 -0.149,-0.099 -0.293,-0.126 -0.549,0.059 -0.163,0.252 -0.265,-0.107 -0.022,-1.092 0.017,-0.157 0.248,-0.162 m 4.994,-4.598 0.18,0.74 3.42,1.51 0.155,-0.096 1.333,-0.901 0.189,-0.55 0.491,1.249 -2.082,1.767 -1.974,1.261 -1.181,1.826 -1.113,-1.122 -0.703,-4.567 1.285,-1.117 m 1.582,-2.83 0.914,0.176 0.357,0.108 0.441,0.441 0.428,0.694 -0.054,0.555 -0.293,0.387 0.158,0.207 0.865,0.614 0.041,-0.009 0.838,0.36 -0.189,0.55 -1.333,0.901 -0.155,0.096 -3.42,-1.51 -0.18,-0.74 0.135,-0.153 0.253,-0.681 -0.045,-0.388 -0.041,-0.167 0.298,-0.409 0.982,-1.032 m 4.421,-2.957 -0.023,0.063 0.029,0.207 0.021,0.033 1.258,0.963 0.036,0.019 0.03,-0.015 0.064,-0.004 0.397,0.158 0.166,0.316 0.315,0.797 0,0.05 -0.725,0.257 -0.991,0.987 -2.141,2.299 -0.041,0.009 -0.865,-0.614 -0.158,-0.207 0.293,-0.387 0.054,-0.555 -0.428,-0.694 -0.441,-0.441 -0.357,-0.108 -0.914,-0.176 0,-0.027 2.262,-2.042 2.159,-0.888 m -1.618,-3.339 2.493,-0.406 2.736,1.821 0.143,0.099 -1.19,4.458 -0.271,-0.046 0,-0.05 -0.315,-0.797 -0.166,-0.316 -0.397,-0.158 -0.064,0.004 -0.03,0.015 -0.036,-0.019 -1.258,-0.963 -0.021,-0.033 -0.029,-0.207 0.023,-0.063 -1.618,-3.339 m 3.911,5.926 0.271,0.046 1.051,0.712 -0.153,0.59 0,0.049 0.045,0.095 1.139,2.438 0.172,0.325 0.109,0.108 1.986,1.487 -0.311,-0.149 -0.211,-0.013 -0.076,0.031 -0.506,0.388 -0.085,0.145 -0.55,0.193 -2.493,-0.054 -0.82,-0.139 -0.924,-0.492 -1.172,-0.608 -0.491,-1.249 -0.838,-0.36 2.141,-2.299 0.991,-0.987 0.725,-0.257 m 4.62,5.85 0.127,0.231 -0.154,0.057 -0.062,0.055 -0.42,0.883 -0.14,0.357 -0.129,1.225 -1.218,2.222 -0.676,1.505 -0.005,0.239 0.072,0.18 -0.973,-0.319 -1.117,-0.604 -0.078,-0.064 -0.157,-0.229 -0.36,-0.275 -0.78,-0.455 -0.302,-0.027 -0.862,0.112 -0.08,0.023 -0.194,0.158 1.532,-5.364 0.924,0.492 0.82,0.139 2.493,0.054 0.55,-0.193 0.085,-0.145 0.506,-0.388 0.076,-0.031 0.211,0.013 0.311,0.149 m -7.148,-0.698 1.172,0.608 -1.532,5.364 -1.158,0.891 -1.046,0.343 -0.302,0.059 -0.139,-0.014 -0.331,-0.107 -0.431,-0.285 -0.338,-0.324 -0.551,-0.658 -0.581,-1.023 1.181,-1.826 1.974,-1.261 2.082,-1.767 m 7.275,0.929 1.501,0.707 2.285,1.351 -0.667,1.281 -0.031,0.081 -0.073,0.189 -0.021,0.055 -0.006,0.021 -0.005,0.01 -0.215,0.762 -0.028,0.126 -0.036,0.18 -0.009,0.041 -0.036,0.68 -0.01,0.357 -0.012,0.589 -0.005,0.019 0.005,0.004 0.027,0.162 0.004,0.041 0.158,0.384 -0.09,0.45 -0.063,0.112 -0.443,0.618 -0.442,0.275 -1.878,-1.027 -2.642,-0.745 -0.072,-0.18 0.005,-0.239 0.676,-1.505 1.218,-2.222 0.129,-1.225 0.14,-0.357 0.42,-0.883 0.062,-0.055 0.154,-0.057 m -7.635,5.043 0.194,-0.158 0.08,-0.023 0.862,-0.112 0.302,0.027 0.78,0.455 0.36,0.275 0.157,0.229 0.078,0.064 1.117,0.604 0.973,0.319 2.642,0.745 -0.369,0.194 -1.537,1.41 -0.622,1.343 -0.28,0.924 -1.136,1.883 -0.085,0.078 -0.105,0.035 -0.157,-0.072 -0.36,-0.978 -1.095,-0.454 -1.281,-0.637 -1.757,-1.121 -0.348,-0.239 0.1,-0.117 0.108,-0.275 -0.681,-0.759 -0.18,-0.12 1.082,-2.629 1.158,-0.891 m -2.24,3.52 0.18,0.12 0.681,0.759 -0.108,0.275 -0.1,0.117 0.348,0.239 1.757,1.121 0.952,1.078 -0.1,0.573 -0.41,0.951 -0.105,0.012 -1.401,-0.129 -1.266,0.049 -0.23,-2.262 -0.05,-0.127 -0.125,-0.094 -0.027,0 -1.303,0.102 -0.722,0.164 -0.337,-0.051 -0.049,-0.027 -1.966,-1.149 2.726,-2.46 0.054,0.045 0.055,0.076 0.025,0.105 0.007,0.138 0.03,0.095 0.127,0.194 0.118,0.063 0.549,0.131 0.69,-0.108 m 9.785,-1.095 1.878,1.027 -0.495,1.447 -0.459,0.116 -0.838,0.181 -1.137,1.19 -0.774,1.127 -1.592,1.793 -1.829,2.011 -0.113,0.045 -0.09,0.05 -0.352,0.193 -0.82,0.595 -0.419,0.41 -0.005,-0.005 -0.085,-0.071 -0.663,0.288 -0.117,0.149 0.122,0.108 0.014,0.031 -0.014,0.095 -0.081,0.023 -0.202,-0.051 -0.457,-0.634 -0.635,-1.415 -0.397,-0.695 0.235,-1.131 -0.032,-0.617 1.266,-0.049 1.401,0.129 0.105,-0.012 0.41,-0.951 0.1,-0.573 -0.952,-1.078 1.281,0.637 1.095,0.454 0.36,0.978 0.157,0.072 0.105,-0.035 0.085,-0.078 1.136,-1.883 0.28,-0.924 0.622,-1.343 1.537,-1.41 0.369,-0.194 m 0.987,-13.869 0.491,-0.686 5.219,3.728 1.365,0.974 -0.441,0.171 -0.852,0.51 -0.401,0.301 -0.54,0.519 -0.051,0.054 -0.211,0.229 -0.099,0.114 -0.157,0.207 -0.217,0.284 -0.064,0.086 -0.639,0.982 -0.379,0.726 -0.135,0.26 -2.285,-1.351 -0.41,-0.482 -0.576,-0.776 -1.083,-1.627 -0.041,-0.143 -0.045,-0.389 0.036,-0.081 0.446,-0.626 0.303,-0.536 0.766,-2.448 m -4.183,-4.092 4.674,3.406 -0.491,0.686 -0.551,-0.347 -2.185,0.216 -0.324,0.063 -0.556,0.249 -0.585,0.612 -0.121,0.285 -1.051,-0.712 1.19,-4.458 m -0.139,5.17 0.121,-0.285 0.585,-0.612 0.556,-0.249 0.324,-0.063 2.185,-0.216 0.551,0.347 -0.766,2.448 -0.303,0.536 -0.446,0.626 -0.036,0.081 0.045,0.389 0.041,0.143 1.083,1.627 0.576,0.776 0.41,0.482 -1.501,-0.707 -0.127,-0.231 -1.986,-1.487 -0.109,-0.108 -0.172,-0.325 -1.139,-2.438 -0.045,-0.095 0,-0.049 0.153,-0.59 m -10.605,22.386 0.288,0.361 0.189,0.278 0.054,0.123 0.406,1.528 0.004,0.828 -0.076,0.357 -0.298,0.392 -0.564,0.603 -0.572,0.497 -0.135,0.567 -0.013,0.069 0.091,0.293 0.17,0.274 1.294,1.037 0.27,0.216 0.005,0.604 -2.005,-0.378 -0.609,-0.235 -0.05,-0.049 -0.14,-0.559 -0.102,-0.515 -0.056,-0.252 -0.14,-0.685 -1.144,-2.321 -0.96,-0.793 -0.207,-0.077 2.366,-2.835 0.221,-0.199 0.446,0.289 0.392,0.365 0.036,0.186 -0.036,0.185 0.089,0.243 0.321,0.117 0.194,0.045 0.271,-0.559 m 0.374,-0.627 -0.374,0.627 -0.271,0.559 -0.194,-0.045 -0.321,-0.117 -0.089,-0.243 0.036,-0.185 -0.036,-0.186 -0.392,-0.365 -0.446,-0.289 -0.221,0.199 -2.366,2.835 -1.127,-0.451 -0.465,-1.884 0.204,-0.098 0.464,-0.312 0.45,-0.761 0.086,-0.614 0.031,-0.476 0.185,-0.515 0.144,-0.198 0.121,-0.113 1.191,-1.049 3.39,3.681 m 0,0 4.191,2.156 0.622,0.905 0.055,0.108 0.031,0.153 -0.023,0.194 -0.122,0.662 -0.103,0.113 -2.664,2.777 -0.617,0.5 -0.636,0.482 -0.27,-0.216 -1.294,-1.037 -0.17,-0.274 -0.091,-0.293 0.013,-0.069 0.135,-0.567 0.572,-0.497 0.564,-0.603 0.298,-0.392 0.076,-0.357 -0.004,-0.828 -0.406,-1.528 -0.054,-0.123 -0.189,-0.278 -0.288,-0.361 0.374,-0.627" />
</svg>
