<?xml version="1.0" encoding="UTF-8" standalone="no"?>
<!-- Created with Inkscape (http://www.inkscape.org/) -->

<svg
   xmlns:dc="http://purl.org/dc/elements/1.1/"
   xmlns:cc="http://creativecommons.org/ns#"
   xmlns:rdf="http://www.w3.org/1999/02/22-rdf-syntax-ns#"
   xmlns:svg="http://www.w3.org/2000/svg"
   xmlns="http://www.w3.org/2000/svg"
   xmlns:sodipodi="http://sodipodi.sourceforge.net/DTD/sodipodi-0.dtd"
   xmlns:inkscape="http://www.inkscape.org/namespaces/inkscape"
   version="1.0"
   width="555.22198"
   height="351.66797"
   id="svg2"
   inkscape:version="0.48.1 r9760"
   sodipodi:docname="southwestflorida.svg">
  <metadata
     id="metadata17">
    <rdf:RDF>
      <cc:Work
         rdf:about="">
        <dc:format>image/svg+xml</dc:format>
        <dc:type
           rdf:resource="http://purl.org/dc/dcmitype/StillImage" />
      </cc:Work>
    </rdf:RDF>
  </metadata>
  <defs
     id="defs15" />
  <sodipodi:namedview
     pagecolor="#ffffff"
     bordercolor="#666666"
     borderopacity="1"
     objecttolerance="10"
     gridtolerance="10"
     guidetolerance="10"
     inkscape:pageopacity="0"
     inkscape:pageshadow="2"
     inkscape:window-width="640"
     inkscape:window-height="480"
     id="namedview13"
     showgrid="false"
     inkscape:zoom="0.83029853"
     inkscape:cx="277.61099"
     inkscape:cy="175.83398"
     inkscape:window-x="0"
     inkscape:window-y="25"
     inkscape:window-maximized="0"
     inkscape:current-layer="svg2" />
  <path
     id="12101"
     style="font-size:12px;fill:#0000ff;fill-rule:nonzero;stroke:#000000;stroke-opacity:1;stroke-width:0.1;stroke-miterlimit:4;stroke-dasharray:none;stroke-linecap:butt;marker-start:none;stroke-linejoin:bevel"
     d="m 451.69098,286.669 0.301,2.113 -0.301,1.862 -6.171,0.871 -1.741,0.256 0.965,-3.515 0.433,-0.063 4.358,-0.644 -0.081,-0.555 2.237,-0.325 m -7.05,-1.779 2.559,-0.371 0.06,0.365 1.739,-0.275 0.023,0.253 0.153,0.208 0.455,0.509 0.234,0.14 1.449,0.359 0.378,0.591 -2.237,0.325 0.081,0.555 -4.358,0.644 -0.433,0.063 -0.103,-3.366 m 0.879,6.625 6.171,-0.871 0.562,-0.081 0.6,3.881 0.405,2.768 -5.688,0.843 1.145,-1.708 0.022,-0.05 0.253,-0.614 0.058,-0.329 -0.185,-0.559 -0.162,-0.215 -1.708,-0.605 -0.41,0.005 -0.338,0.064 -0.32,0.09 -0.405,-2.619 m 0,0 0.405,2.619 -0.762,0.211 -0.04,0.037 -0.027,0.102 0.067,0.145 0.131,0.085 1.231,0.536 0.46,-0.197 0.058,0.324 -0.148,0.555 -0.951,2.434 -0.574,-0.799 -1.225,-3.078 0.008,-0.027 0.054,-0.667 0.032,-0.581 -0.108,-0.915 -0.094,-0.211 -0.059,-0.087 -0.199,-0.23 1.741,-0.256 m 2.05,6.54 5.688,-0.843 0.559,3.903 0.233,1.65 -2.252,0.315 -0.312,-2.245 -4.465,0.595 -0.65,-0.613 -0.365,-0.672 0.298,-0.139 0.389,-0.253 0.755,-1.212 0.045,-0.095 0.077,-0.391 m 11.859,2.18 0.603,3.882 -5.665,0.869 -0.55,-3.871 2.249,-0.316 1.24,-0.23 2.123,-0.334 m -5.379,2.53 0.317,2.221 -2.266,0.32 0.053,0.352 0.104,0.757 -1.38,0.193 -2.036,-3.082 -0.121,-0.168 -0.173,-0.232 -0.107,-0.151 -0.515,-0.635 -0.292,-0.296 -0.613,-0.614 4.465,-0.595 0.312,2.245 2.252,-0.315 m -1.352,6.706 1.277,2.406 0.154,0.144 0.215,0.122 0.744,0.18 0.112,-0.157 0.159,-0.076 0.594,0.117 0,0.026 -0.518,0.424 -0.13,0.064 -0.09,0.012 -0.181,-0.012 -0.352,-0.095 -0.589,-0.316 -0.055,-0.045 -0.053,-0.049 -0.091,-0.159 -1.19,-2.194 -0.006,-0.392 m 2.108,-1.172 5.695,-0.847 0.523,3.23 0.194,1.141 -0.901,1.492 -1.858,0.297 -0.329,-0.12 -0.365,-0.578 -0.585,-0.541 -1.272,-0.816 -1.262,-1.884 0.16,-1.374 m -0.439,-3.313 5.665,-0.869 0.469,3.335 -5.695,0.847 0.02,-0.414 -0.126,-0.708 -0.203,-1.006 -0.04,-0.139 -0.167,-0.082 -0.36,0.064 -0.099,0.058 -0.542,0.479 -0.057,0.089 0.261,1.776 -0.032,0.055 -0.495,0.081 -0.132,-0.119 -0.031,0 -0.072,0.123 -0.073,0.249 -0.157,0.008 -0.054,-0.176 -0.054,-0.166 -0.027,-0.05 -0.005,-0.009 -1.483,-1.804 1.38,-0.193 -0.104,-0.757 -0.053,-0.352 2.266,-0.32" />
</svg>
