<?xml version="1.0" encoding="UTF-8" standalone="no"?>
<!-- Created with Inkscape (http://www.inkscape.org/) -->

<svg
   xmlns:dc="http://purl.org/dc/elements/1.1/"
   xmlns:cc="http://creativecommons.org/ns#"
   xmlns:rdf="http://www.w3.org/1999/02/22-rdf-syntax-ns#"
   xmlns:svg="http://www.w3.org/2000/svg"
   xmlns="http://www.w3.org/2000/svg"
   xmlns:sodipodi="http://sodipodi.sourceforge.net/DTD/sodipodi-0.dtd"
   xmlns:inkscape="http://www.inkscape.org/namespaces/inkscape"
   version="1.0"
   width="555.22198"
   height="351.66797"
   id="svg2"
   inkscape:version="0.48.1 r9760"
   sodipodi:docname="southernvirginia.svg">
  <metadata
     id="metadata46">
    <rdf:RDF>
      <cc:Work
         rdf:about="">
        <dc:format>image/svg+xml</dc:format>
        <dc:type
           rdf:resource="http://purl.org/dc/dcmitype/StillImage" />
      </cc:Work>
    </rdf:RDF>
  </metadata>
  <defs
     id="defs44" />
  <sodipodi:namedview
     pagecolor="#ffffff"
     bordercolor="#666666"
     borderopacity="1"
     objecttolerance="10"
     gridtolerance="10"
     guidetolerance="10"
     inkscape:pageopacity="0"
     inkscape:pageshadow="2"
     inkscape:window-width="640"
     inkscape:window-height="480"
     id="namedview42"
     showgrid="false"
     inkscape:zoom="0.83029853"
     inkscape:cx="277.61099"
     inkscape:cy="175.83398"
     inkscape:window-x="0"
     inkscape:window-y="25"
     inkscape:window-maximized="0"
     inkscape:current-layer="svg2" />
  <path
     id="51730"
     style="font-size:12px;fill:#0000ff;fill-rule:nonzero;stroke:#000000;stroke-opacity:1;stroke-width:0.1;stroke-miterlimit:4;stroke-dasharray:none;stroke-linecap:butt;marker-start:none;stroke-linejoin:bevel"
     d="m 482.07298,166.43 0.017,-0.037 0.505,0.247 0.062,0.317 -0.179,0.531 -0.419,-0.108 -0.343,0.023 -0.329,-0.208 0.058,-0.378 0.208,-0.149 0.072,-0.049 0.123,-0.077 0.097,-0.045 0.041,0.009 0.077,-0.054 0.01,-0.022 m 5.011,-0.753 1.605,-0.221 0.789,0.874 -1.47,2.168 -0.906,0.87 -0.271,-0.686 -0.964,-0.67 -0.036,0.048 -0.271,0 -0.824,-0.301 -0.05,-0.032 -0.036,-0.049 -0.004,-0.037 1.477,-2.109 0.961,0.145 m 2.934,-0.487 1.875,1.195 0.668,1.401 -0.077,0.229 -0.077,0 -0.117,-0.053 -2.29,-1.51 -0.086,-0.082 -0.072,-0.73 0.176,-0.45 m -10.713,1.484 2.14,0.143 -0.058,0.378 0.329,0.208 0.343,-0.023 0.455,2.267 -1.925,1.903 -0.432,-0.136 -2.565,-0.748 0.437,-2.786 1.276,-1.206 m -5.54,2.982 -0.347,-2.262 4.611,0.486 -0.437,2.786 -1.226,-0.216 -2.601,-0.794 m 0.262,-4.474 0.103,0.102 0.222,-0.021 0.26,-0.163 0.363,-0.325 0.414,-0.28 0.643,-0.058 0.271,0.037 0.045,0.031 0.329,0.27 0.207,0.343 -0.18,0.031 -0.018,0.023 0.05,0.437 0.054,0.221 1.369,0.987 0.069,0.023 0.121,-0.005 0.054,-0.031 0.013,-0.028 -0.009,-0.176 0.181,-0.234 0.05,-0.022 0.432,0.013 0.235,0.317 -1.276,1.206 -4.611,-0.486 -0.213,-0.911 0.822,-1.301 m -0.262,4.474 2.601,0.794 0.361,3.172 -4.963,-0.564 0.05,-2.496 1.951,-0.906 m -6.07,0.005 1.329,-0.82 2.79,1.721 -0.05,2.496 -1.108,2.764 -0.199,-0.081 -0.327,-0.365 -0.011,-0.027 -0.041,-1.239 -0.896,-1.38 -1.865,-0.582 0.378,-2.487 m 5.51,-3.178 0.213,0.911 0.347,2.262 -1.951,0.906 -2.79,-1.721 0.518,-2.069 1.434,0.504 2.229,-0.793 m 22.423,-6.926 0.975,-0.29 0.569,0.23 0.053,0.523 -0.081,0.135 -0.059,0.041 -0.014,0.031 0.041,0.095 0.068,0.046 0.883,-0.068 0.514,-0.23 0.049,0.094 0.005,0.212 -0.677,3.362 -0.102,0.19 -0.113,0.199 -0.003,0.013 -0.443,0.685 -0.015,0.027 -0.073,0.098 -0.08,0.072 -0.057,0 -0.614,-0.053 -0.64,-0.879 -0.266,-0.635 -0.062,-0.406 -0.032,-0.378 0.004,-0.185 0.049,-1.371 0.045,-0.888 0.032,-0.293 0.044,-0.377 m -2.96,9.279 0.605,-0.405 0.806,1.122 -0.982,0.379 -0.447,-0.672 0.018,-0.424 m 1.411,0.717 0.59,-0.366 1.82,3.458 -1.919,0.405 -1.792,0.379 -0.128,-4.169 0.447,0.672 0.982,-0.379 m -11.732,-4.107 0.5,-0.107 0.05,-0.005 0.297,0.158 0.104,0.112 -0.068,0.253 -0.405,0.328 -0.256,-0.188 -0.222,-0.551 m -0.694,1.222 -0.18,-0.333 -0.046,-0.207 0.072,-0.123 0.172,-0.202 0.221,-0.031 0.126,0.103 0.018,0.135 -0.022,0.073 0.059,0.347 -0.01,0.022 -0.077,0.054 -0.041,-0.009 -0.097,0.045 -0.123,0.077 -0.072,0.049 m 6.351,5.657 0.306,0.725 -0.005,0.023 -0.565,0.153 -0.251,-0.31 -0.086,-0.321 0.01,-0.189 0.135,-0.072 0.217,0.009 0.239,-0.018 m -5.918,1.18 0.108,0.38 -0.014,0.174 -0.411,0.267 -0.242,-0.032 -0.163,-0.423 -0.013,-0.087 0.067,-0.171 0.464,-0.202 0.118,0.009 0.086,0.085 m -18.092,5.59 -1.289,0.229 -0.28,-0.487 -0.355,-0.216 0.004,-0.041 0.085,-0.139 0.266,-0.334 1.299,-0.203 0.567,0.595 0.036,0.108 -0.031,0.068 -0.302,0.42 m 8.389,-16.722 0.04,0.721 -0.668,1.907 -0.779,2.275 -1.434,-0.504 -2.668,-1.551 1.384,-2.641 0.032,-0.085 0.23,-0.267 0.467,-0.135 0.537,-0.073 0.063,-0.04 0.05,-0.045 0.014,-0.048 -0.028,-0.402 2.76,0.888 m 0,0 0.661,-0.888 1.086,0.996 -0.103,2.701 -0.822,1.301 -2.229,0.793 0.779,-2.275 0.668,-1.907 -0.04,-0.721 m 6.146,0.515 -1.645,2.23 -0.207,-0.343 -0.329,-0.27 -0.045,-0.031 -0.271,-0.037 -0.643,0.058 -0.414,0.28 -0.363,0.325 -0.26,0.163 -0.222,0.021 -0.103,-0.102 0.103,-2.701 0.108,0.094 0.857,0.154 0.081,-0.005 0.167,-0.044 0.076,-0.063 0.032,-0.068 0.009,-0.063 1.244,-0.036 1.212,0.202 0.613,0.236 m 0,0 0.595,-0.028 0.352,0.576 0.622,0.736 1.046,-0.271 1.864,0.504 -0.048,0.807 -0.113,0.127 -0.5,0.107 -0.257,0.947 -0.017,0.037 -0.059,-0.347 0.022,-0.073 -0.018,-0.135 -0.126,-0.103 -0.221,0.031 -0.172,0.202 -0.072,0.123 0.046,0.207 0.18,0.333 -0.208,0.149 -2.14,-0.143 -0.235,-0.317 -0.432,-0.013 -0.05,0.022 -0.181,0.234 0.009,0.176 -0.013,0.028 -0.054,0.031 -0.121,0.005 -0.069,-0.023 -1.369,-0.987 -0.054,-0.221 -0.05,-0.437 0.018,-0.023 0.18,-0.031 1.645,-2.23 m 10.781,1.973 0.014,0.059 -0.108,0.085 -0.185,0.063 -0.342,0.04 -0.217,-0.012 -0.112,-0.095 -0.077,-0.104 -0.108,-0.613 0.212,-0.198 0.085,0.112 0.054,0.064 0.302,0.018 0.118,-0.032 0.27,0.229 0.094,0.384 m -1.456,-2.579 0.388,0.393 0.672,0.541 -0.442,0.982 -0.085,-0.112 -0.212,0.198 0.108,0.613 0.077,0.104 0.112,0.095 0.217,0.012 0.342,-0.04 0.185,-0.063 0.108,-0.085 -0.014,-0.059 0.708,0.329 -0.176,0.45 -1.153,-0.184 -1.605,0.221 -0.613,-1.925 1.383,-1.47 m 4.418,3.873 -0.19,-0.731 0.028,-0.212 -0.019,-0.175 -0.009,-0.051 0.595,-0.066 0.505,0.48 0.127,0.38 -1.037,0.375 m -3.8,-1.957 0.442,-0.982 1.96,1.441 -0.031,0.101 0.121,0.09 0.244,0.072 0.753,-0.28 0.049,0.023 0.072,0.323 0.009,0.051 0.019,0.175 -0.028,0.212 0.19,0.731 -0.379,0.23 -1.875,-1.195 -0.708,-0.329 -0.094,-0.384 -0.27,-0.229 -0.118,0.032 -0.302,-0.018 -0.054,-0.064 m 3.8,1.957 1.037,-0.375 0.648,1.032 -0.405,0.695 -0.991,0.279 -0.668,-1.401 0.379,-0.23 m 2.574,1.793 1.505,-0.338 0.202,-0.027 0.068,0.01 0.13,0.061 0.077,0.132 2.068,3.903 0.164,0.406 -2.571,0.55 -1.82,-3.458 0.415,-0.297 -0.238,-0.942 m 0,0 0.238,0.942 -0.415,0.297 -0.59,0.366 -0.806,-1.122 1.573,-0.483 m -2.178,0.888 -0.018,0.424 0.128,4.169 -0.506,0.108 -3.755,0.856 -0.018,0.004 -0.058,-1.315 2.948,-4.21 0.04,-0.023 0.441,-0.174 0.798,0.161 m -4.664,3.489 0.004,-3.827 1.47,-2.168 2.392,2.345 -0.441,0.174 -0.04,0.023 -2.948,4.21 -0.131,-0.032 -0.306,-0.725 m -5.157,-6.986 0.113,-0.127 3.163,0.32 -1.477,2.109 -2.132,2.006 -0.455,-2.267 0.419,0.108 0.179,-0.531 -0.062,-0.317 -0.505,-0.247 0.257,-0.947 0.222,0.551 0.256,0.188 0.405,-0.328 0.068,-0.253 -0.104,-0.112 -0.297,-0.158 -0.05,0.005 m 5.157,6.986 -0.239,0.018 -0.217,-0.009 -0.135,0.072 -0.01,0.189 0.086,0.321 0.251,0.31 0.565,-0.153 0.005,-0.023 0.131,0.032 0.058,1.315 -2.497,0.469 -1.325,0.289 -1.762,-1.807 4.187,-3.98 0.906,-0.87 -0.004,3.827 m -3.358,-4.684 0.004,0.037 0.036,0.049 0.05,0.032 0.824,0.301 0.271,0 0.036,-0.048 0.964,0.67 0.271,0.686 -4.187,3.98 -0.636,-0.054 -0.982,-1.451 -0.708,-0.293 1.925,-1.903 2.132,-2.006 m -8.28,2.809 1.226,0.216 2.565,0.748 0.473,2.304 -0.708,2.375 -1.338,0.256 -1.479,0.293 -0.378,-3.02 -0.361,-3.172 m 6.549,2.898 1.762,1.807 -4.755,0.938 0.708,-2.375 -0.473,-2.304 0.432,0.136 0.708,0.293 0.982,1.451 0.636,0.054 z m -0.829,0.157 -0.086,-0.085 -0.118,-0.009 -0.464,0.202 -0.067,0.171 0.013,0.087 0.163,0.423 0.242,0.032 0.411,-0.267 0.014,-0.174 -0.108,-0.38 m -5.359,0.117 0.378,3.02 -2.803,0.537 -1.343,0.27 -2.804,0.523 0.501,-2.15 1.108,-2.764 4.963,0.564 m -11.39,-1.635 1.98,0.161 1.865,0.582 0.896,1.38 0.041,1.239 0.011,0.027 0.327,0.365 0.199,0.081 -0.501,2.15 -0.626,0.122 -3.462,0.626 -0.815,0.144 0.085,-6.877 m -3.516,0.697 0.614,-0.828 0.243,-0.302 0.87,-0.19 1.505,0.392 0.284,0.231 -0.085,6.877 -1.258,0.231 0.302,-0.42 0.031,-0.068 -0.036,-0.108 -0.567,-0.595 -1.299,0.203 -0.266,0.334 -0.085,0.139 -0.004,0.041 0.355,0.216 0.28,0.487 -0.41,0.076 -2.073,0.347 0.054,-4.154 0.054,-2.466 1.491,-0.443" />
</svg>
