<?xml version="1.0" encoding="UTF-8" standalone="no"?>
<!-- Created with Inkscape (http://www.inkscape.org/) -->

<svg
   xmlns:dc="http://purl.org/dc/elements/1.1/"
   xmlns:cc="http://creativecommons.org/ns#"
   xmlns:rdf="http://www.w3.org/1999/02/22-rdf-syntax-ns#"
   xmlns:svg="http://www.w3.org/2000/svg"
   xmlns="http://www.w3.org/2000/svg"
   xmlns:sodipodi="http://sodipodi.sourceforge.net/DTD/sodipodi-0.dtd"
   xmlns:inkscape="http://www.inkscape.org/namespaces/inkscape"
   version="1.0"
   width="555.22198"
   height="351.66797"
   id="svg2"
   inkscape:version="0.48.1 r9760"
   sodipodi:docname="spokane.svg">
  <metadata
     id="metadata37">
    <rdf:RDF>
      <cc:Work
         rdf:about="">
        <dc:format>image/svg+xml</dc:format>
        <dc:type
           rdf:resource="http://purl.org/dc/dcmitype/StillImage" />
      </cc:Work>
    </rdf:RDF>
  </metadata>
  <defs
     id="defs35" />
  <sodipodi:namedview
     pagecolor="#ffffff"
     bordercolor="#666666"
     borderopacity="1"
     objecttolerance="10"
     gridtolerance="10"
     guidetolerance="10"
     inkscape:pageopacity="0"
     inkscape:pageshadow="2"
     inkscape:window-width="640"
     inkscape:window-height="480"
     id="namedview33"
     showgrid="false"
     inkscape:zoom="0.83029853"
     inkscape:cx="277.61099"
     inkscape:cy="175.83398"
     inkscape:window-x="0"
     inkscape:window-y="25"
     inkscape:window-maximized="0"
     inkscape:current-layer="svg2" />
  <path
     id="16049"
     style="font-size:12px;fill:#0000ff;fill-rule:nonzero;stroke:#000000;stroke-opacity:1;stroke-width:0.1;stroke-miterlimit:4;stroke-dasharray:none;stroke-linecap:butt;marker-start:none;stroke-linejoin:bevel"
     d="m 131.04698,47.402 0.049,0.049 0.032,0.149 -0.054,0.284 -0.312,0.883 -0.527,1.213 -0.789,1.753 -2.515,6.274 -0.315,1.726 -0.158,0.874 -0.009,0.045 0.027,0.032 -0.396,0.298 -0.893,0.558 -0.459,-0.243 -0.127,-0.126 -0.076,-0.144 -0.09,-0.095 -0.127,-0.018 -0.058,0.04 -0.073,0.145 -0.054,0.261 -0.063,0.46 0.005,0.049 0.325,0.46 0.464,0.626 0.392,0.834 -0.897,1.285 -11.434,-2.339 -1.398,0.189 -0.194,0.243 -0.144,0.28 -0.008,0.072 -1.425,-0.325 0.032,-0.126 0.062,-0.04 0.127,-0.298 0.013,-0.59 -0.09,-0.789 -0.045,-0.234 -3.101,-0.676 0.306,-0.645 1.56,-2.001 0.865,-0.884 0.217,-0.247 0.036,-0.163 -0.311,-1.631 -0.059,-0.248 0,-0.004 -0.175,-0.222 -0.154,-0.198 -0.004,-0.004 -0.329,-0.144 -0.785,-0.722 -0.41,-0.378 -0.027,-0.05 -0.04,-0.076 0.099,0.031 0.365,-0.094 0.067,-0.055 0.176,-0.22 0.028,-0.131 -0.046,-0.122 -0.053,-0.076 -0.028,-0.185 0.009,-0.153 0.113,-0.208 0.072,-0.076 0.279,-0.217 0.163,-0.063 0.937,-0.306 1.794,-1.691 0.032,-0.031 0.212,-0.036 1.663,0.91 1.6,-0.915 -0.546,-1.631 0.212,0.095 0.861,0.536 0.158,0.347 0.23,0.324 0.05,0.041 1.32,0.622 0.18,0.058 0.14,0.019 0.185,-0.163 0.153,-0.171 0.27,-0.527 1.226,-1.452 0.018,-0.009 3.849,-0.072 5.611,-0.099 0.018,0.014 0.96,0.202 0.203,-0.054 0.14,-0.054 0.23,-0.045 0.464,0.063 0.158,0.131 0.041,0.041 m -16.532,-7.217 11.749,2.484 0.172,1.303 0,0.008 0.04,0.109 1.299,1.735 0.126,0.036 0.058,0.018 0.387,0.005 0.487,1.221 -5.611,0.099 -3.849,0.072 -0.018,0.009 -1.226,1.452 -0.27,0.527 -0.153,0.171 -0.185,0.163 -0.14,-0.019 -0.18,-0.058 -1.32,-0.622 -0.05,-0.041 -0.23,-0.324 -0.158,-0.347 -0.861,-0.536 -0.212,-0.095 -0.004,-0.235 -0.023,-0.171 -0.09,-0.167 -1.028,-0.572 -0.333,-0.433 0.09,-0.41 -0.203,-0.058 -0.536,-0.014 0.139,-0.802 0.199,-0.915 0.73,0.162 0.478,-0.41 0.726,-3.345 m 2.659,-11.961 0.252,-1.424 0.04,-0.181 0.514,-0.437 0.361,-0.031 0.099,0.063 0.785,0.622 0.446,0.644 0.081,0.167 0.266,0.473 1.735,3.534 0.013,0.045 0.014,0.031 0.004,0.014 0,0.049 -0.004,0.722 -0.293,0.743 -0.248,0.564 -0.167,1.037 0,0.009 0.009,0.319 1.38,1.907 0.189,0.162 0.149,0.131 0.473,0.23 0.685,0.274 0.149,0.109 0.784,1.766 0.734,1.713 0.415,0.775 0.225,0.415 -11.749,-2.484 0.239,-1.104 1.067,-4.903 1.353,-5.954 m -2.804,19.331 0.546,1.631 -1.6,0.915 -1.663,-0.91 -0.212,0.036 -0.032,0.031 -1.794,1.691 -0.937,0.306 0.766,-3.8 -0.004,-0.089 0.053,-0.271 1.957,0.433 1.104,0.009 0.086,-0.108 0.044,-0.109 0.059,-0.387 -0.216,-0.708 -0.027,-0.158 -0.014,-0.176 0.05,-0.008 0.221,0.036 0.085,0.022 0.05,0.036 0.333,0.433 1.028,0.572 0.09,0.167 0.023,0.171 0.004,0.235 m -7.116,-3.809 2.808,0.614 0.189,-0.325 -0.005,-0.045 0.108,-0.14 0.402,-0.248 0.387,-0.144 0.094,0 1.344,0.32 -0.199,0.915 -0.139,0.802 0.536,0.014 0.203,0.058 -0.09,0.41 -0.05,-0.036 -0.085,-0.022 -0.221,-0.036 -0.05,0.008 0.014,0.176 0.027,0.158 0.216,0.708 -0.059,0.387 -0.044,0.109 -0.086,0.108 -1.104,-0.009 -1.957,-0.433 -0.053,0.271 0.004,0.089 -0.766,3.8 -0.163,0.063 -0.279,0.217 -0.072,0.076 -0.113,0.208 -0.009,0.153 0.028,0.185 0.053,0.076 0.046,0.122 -0.028,0.131 -0.176,0.22 -0.067,0.055 -0.365,0.094 -0.099,-0.031 -0.635,-1.979 -0.055,-0.892 0.429,-1.182 -0.055,-1.108 -0.086,-0.712 -0.013,-0.045 -0.283,-1.141 0.189,-0.563 0.329,-1.456 m 1.649,-7.337 2.069,1.645 2.668,0.789 1.114,0.238 -0.239,1.104 -0.726,3.345 -0.478,0.41 -0.73,-0.162 -1.344,-0.32 -0.094,0 -0.387,0.144 -0.402,0.248 -0.108,0.14 0.005,0.045 -0.189,0.325 -2.808,-0.614 1.649,-7.337 m 5.323,-23.338 8.253,1.79 -1.33,6.224 -6.229,-1.343 0.492,-2.159 0.464,-2.159 -2.087,-0.455 0.437,-1.898 m -0.437,1.898 2.087,0.455 -0.464,2.159 -0.492,2.159 6.229,1.343 -0.771,3.583 -0.626,2.979 -0.081,-0.167 -0.446,-0.644 -0.785,-0.622 -0.099,-0.063 -0.361,0.031 -0.514,0.437 -0.04,0.181 -0.252,1.424 -1.56,-0.338 0.289,-1.262 -1.1,-0.244 -1.19,-0.139 -2.335,-0.46 0.194,-0.851 2.317,-9.961 m -2.511,10.812 2.335,0.46 1.19,0.139 1.1,0.244 -0.289,1.262 1.56,0.338 -1.353,5.954 -2.212,-0.496 -0.343,0.113 -0.122,0.265 -2.37,-0.374 -1.195,-0.265 1.699,-7.64 m -1.699,7.64 1.195,0.265 2.37,0.374 0.122,-0.265 0.343,-0.113 2.212,0.496 -1.067,4.903 -1.114,-0.238 -2.668,-0.789 -2.069,-1.645 0.375,-1.65 0.301,-1.338 m -27.507,-22.099 0.32,0.059 0.032,0.158 0.252,1.992 1.235,2.731 1.655,3.372 0.766,0.346 0.887,0.23 0.032,0.154 0,0.099 -0.622,0.68 -1.037,1.014 -0.842,0.023 -0.059,-0.023 -0.045,-0.072 -0.113,-0.117 -0.108,-0.049 -0.55,0.072 -0.126,0.049 -0.081,0.054 -0.126,0.14 -1.406,2.484 -0.271,0.563 -0.063,0.184 0,0.312 0.027,0.442 0.036,0.108 0.248,0.216 0.13,0.072 0.871,0.392 0.284,0.437 0.008,0.072 -0.126,0.379 -0.112,0.307 -0.09,0.175 -2.52,-0.64 -0.234,-0.248 -0.171,-0.292 -0.492,-0.578 -1.6,-1.297 -0.725,-0.591 -0.703,-0.523 -0.681,-1.311 -0.446,-0.965 0.089,-0.767 0.032,-0.197 0.027,-0.055 0.523,-0.473 0.095,-0.198 -0.203,-0.581 -0.067,-0.889 0.121,-1.108 0.667,-1.307 0.365,-0.126 0.649,-0.054 0.05,0.008 0.717,-0.234 0.153,-0.527 0.149,-0.703 -0.095,-1.159 -0.446,-0.513 0.486,-1.645 0.117,-0.226 0.086,-0.076 0.969,-0.316 0.793,0.013 1.289,0.523 m 17.06,-1.811 5.345,1.293 -0.162,0.149 -0.126,0.162 -0.099,0.433 -0.108,0.721 0.045,0.477 0.117,0.104 0.194,0.87 0.022,0.365 -0.153,1.294 -1.411,4.629 -0.135,0.261 -1.168,1.789 -1.032,0.257 -0.166,-0.036 -0.374,0.144 -0.055,0.041 -0.013,0.054 0.131,1.726 -0.293,0.627 -0.131,0.085 -0.126,0 -0.081,-0.023 -0.329,-0.207 -0.465,-0.549 -0.198,-0.411 -1.464,-0.468 -0.036,0.076 -0.213,-0.013 -0.613,-0.433 -0.067,-0.113 -0.131,-0.405 0.068,-0.063 1.352,-5.458 0.027,-1.023 0.523,-2.128 0.45,-1.018 0.613,-2.096 0.262,-1.113 m -4.39,12.57 -1.032,-0.253 -1.145,0.694 -0.162,0.645 -1.569,2.366 -2.398,1.848 -2.929,-0.694 -1.289,1.212 -0.528,1.195 -0.612,-0.717 0.09,-0.175 0.112,-0.307 0.126,-0.379 -0.008,-0.072 -0.284,-0.437 -0.871,-0.392 -0.13,-0.072 -0.248,-0.216 -0.036,-0.108 -0.027,-0.442 0,-0.312 0.063,-0.184 0.271,-0.563 1.406,-2.484 0.126,-0.14 0.081,-0.054 0.126,-0.049 0.55,-0.072 0.108,0.049 0.113,0.117 0.045,0.072 0.059,0.023 0.842,-0.023 1.037,-1.014 0.622,-0.68 0,-0.099 -0.032,-0.154 -0.071,-0.144 -0.005,-0.045 0.167,-0.983 0.018,-0.036 0.045,-0.027 0.437,-0.144 0.649,-0.167 0.739,0.302 -0.176,0.636 0.591,0.537 2.362,0.103 0.928,-0.474 0.978,-0.324 0.189,-0.018 0.537,0.298 0.135,0.211 0.063,0.14 0.378,1.37 -0.053,0.149 -0.158,0.23 -0.23,0.257 m -23.221,5.548 0.028,-0.581 0.171,-2.957 0.027,-0.153 1.117,-0.902 1.668,-1 0.974,-0.104 0.446,0.965 0.681,1.311 0.703,0.523 0.725,0.591 1.6,1.297 0.492,0.578 0.171,0.292 0.234,0.248 2.52,0.64 0.612,0.717 0.014,0.059 -0.005,0.076 -0.202,0.73 -0.298,0.487 -0.248,0.68 0.208,1.506 -0.077,1.722 -0.063,0.166 -0.185,0.23 -0.396,0.424 -1.519,-0.369 -3.101,-0.848 -0.537,-1.312 0.032,-1.13 -3.358,-0.893 -0.103,-0.171 -0.248,-0.695 -0.018,-0.293 -0.009,-0.04 -0.284,-0.491 -0.74,-0.96 -0.184,-0.141 -0.848,-0.202 m 0,0 0.848,0.202 0.184,0.141 0.74,0.96 0.284,0.491 0.009,0.04 0.018,0.293 0.248,0.695 0.103,0.171 3.358,0.893 -0.032,1.13 0.537,1.312 3.101,0.848 1.519,0.369 0.505,1.569 -1.326,5.16 -0.022,0.356 -0.203,0.834 -0.261,0.991 -6.324,-1.649 -4.142,-1.131 -0.721,-0.226 -2.353,-0.635 -0.856,-0.23 1.176,-4.269 1.028,0.285 0.063,0.013 0.036,-0.009 0.135,-0.243 1.032,-3.561 -0.04,-0.383 -0.316,-0.843 0.086,-0.09 0.018,-0.045 0.085,-1.537 1.38,-1.496 0.103,-0.406 m 11.422,9.114 0.071,0.04 0.303,0.099 1.6,0.207 0.215,-0.004 0.235,-0.086 0.28,-0.158 0.27,-0.234 0.361,-0.279 0.072,-0.027 0.113,0.063 0.098,0.121 0.213,0.42 0.008,0.085 -0.045,0.046 -0.013,0.157 0.225,0.748 0.203,0.46 0.387,0.545 0.289,0.469 0,0.41 -0.703,2.506 -0.05,0.108 0.014,0.073 0.414,0.594 0.267,0.167 0.252,0.081 0.203,0.109 0.568,0.531 -0.122,2.529 -0.253,0.212 -0.193,0.085 -0.658,0.19 -0.32,0.049 -0.392,-0.027 -0.23,-0.058 -0.248,-0.127 -1.352,-0.185 -0.51,-0.031 -0.509,-0.032 -1.749,0.216 -0.937,-0.089 -0.861,-0.09 0.933,-3.543 0.203,-0.834 0.022,-0.356 1.326,-5.16 m 11.799,-14.662 0.018,0.247 -2.141,8.474 -1.104,4.354 -2.137,-0.546 -1.185,-0.297 -0.554,2.181 -0.902,0.542 0.045,-0.046 -0.008,-0.085 -0.213,-0.42 -0.098,-0.121 -0.113,-0.063 -0.072,0.027 -0.361,0.279 -0.27,0.234 -0.28,0.158 -0.235,0.086 -0.215,0.004 -1.6,-0.207 -0.303,-0.099 -0.071,-0.04 -0.505,-1.569 0.396,-0.424 0.185,-0.23 0.063,-0.166 0.077,-1.722 -0.208,-1.506 0.248,-0.68 0.298,-0.487 0.202,-0.73 0.005,-0.076 -0.014,-0.059 0.528,-1.195 1.289,-1.212 2.929,0.694 2.398,-1.848 1.569,-2.366 0.162,-0.645 1.145,-0.694 1.032,0.253 m 6.62,10.839 -1.004,4.318 -0.244,0.572 -0.36,0.505 -0.248,0.28 -0.325,0.297 -1.762,-0.023 -4.629,-1.072 -3.596,-0.924 -1.555,-0.379 0.554,-2.181 1.185,0.297 2.137,0.546 1.104,-4.354 8.743,2.118 m -6.602,-10.592 1.077,0.082 0.131,0.405 0.067,0.113 0.613,0.433 0.213,0.013 0.036,-0.076 1.464,0.468 0.198,0.411 0.465,0.549 0.329,0.207 0.081,0.023 0.126,0 0.131,-0.085 0.293,-0.627 0.261,-0.14 0.563,-0.225 0.428,-0.004 0.027,0.031 0.393,0.987 0.207,0.672 0.054,0.257 0.636,0.126 1.654,0.207 -1.672,7.04 -1.173,-0.275 -8.743,-2.118 2.141,-8.474 m 16.14,-10.023 -0.226,0.956 -0.676,0.301 -0.626,0.528 -0.888,1.023 -0.248,1.082 1.091,0.247 -1.172,5.08 0.207,1.532 -0.248,1.091 -0.829,-0.198 -0.735,3.15 -0.36,-0.067 -1.78,-0.64 -0.082,-0.05 -0.121,-0.185 -1.654,-0.207 -0.636,-0.126 -0.054,-0.257 -0.207,-0.672 -0.393,-0.987 -0.027,-0.031 -0.428,0.004 -0.563,0.225 -0.261,0.14 -0.131,-1.726 0.013,-0.054 0.055,-0.041 0.374,-0.144 0.166,0.036 1.032,-0.257 1.168,-1.789 0.135,-0.261 1.411,-4.629 0.153,-1.294 -0.022,-0.365 -0.194,-0.87 -0.117,-0.104 -0.045,-0.477 0.108,-0.721 0.099,-0.433 0.126,-0.162 0.162,-0.149 6.423,1.501 m 3.326,0.766 -0.437,1.898 -2.317,9.961 -3.358,-0.785 0.248,-1.091 -0.207,-1.532 1.172,-5.08 -1.091,-0.247 0.248,-1.082 0.888,-1.023 0.626,-0.528 0.676,-0.301 0.226,-0.956 3.326,0.766 m -6.112,11.074 3.358,0.785 -0.194,0.851 -1.699,7.64 -0.301,1.338 -6.743,-1.564 1.672,-7.04 0.121,0.185 0.082,0.05 1.78,0.64 0.36,0.067 0.735,-3.15 0.829,0.198 m -5.579,9.05 6.743,1.564 -0.375,1.65 -1.649,7.337 -0.329,1.456 -1.542,-0.833 0.09,-0.537 -0.071,-0.55 -0.871,-1.609 -0.441,-0.356 -0.42,-0.257 -1.298,-0.531 -0.225,-0.086 -0.532,-0.01 -0.117,0.041 -1.064,0.609 -0.288,0.166 -2.15,0.136 -0.077,0.004 -0.383,-0.063 -0.086,-0.05 -0.279,-0.487 0.248,-1.92 1.762,0.023 0.325,-0.297 0.248,-0.28 0.36,-0.505 0.244,-0.572 1.004,-4.318 1.173,0.275 m -14.896,3.299 1.555,0.379 3.596,0.924 4.629,1.072 -0.248,1.92 -0.099,-0.089 -0.113,-0.118 -0.59,-0.22 -1.352,-0.217 -0.041,0.004 -0.789,0.362 -0.473,0.278 -0.266,0.217 -0.067,0.113 -0.343,0.73 -0.261,0.32 -0.451,0.396 -1.14,0.721 -0.663,0.361 -0.883,-0.054 -0.221,0.027 -0.397,0.117 -0.103,0.095 -0.126,0.162 -0.568,-0.531 -0.203,-0.109 -0.252,-0.081 -0.267,-0.167 -0.414,-0.594 -0.014,-0.073 0.05,-0.108 0.703,-2.506 0,-0.41 -0.289,-0.469 -0.387,-0.545 -0.203,-0.46 -0.225,-0.748 0.013,-0.157 0.902,-0.542 m 9.433,4.206 -0.216,0.387 -0.785,3.322 0.83,1.352 1.095,0.257 -0.523,2.159 -0.139,0.423 -8.663,-2.077 0.122,-2.529 0.126,-0.162 0.103,-0.095 0.397,-0.117 0.221,-0.027 0.883,0.054 0.663,-0.361 1.14,-0.721 0.451,-0.396 0.261,-0.32 0.343,-0.73 0.067,-0.113 0.266,-0.217 0.473,-0.278 0.789,-0.362 0.041,-0.004 1.352,0.217 0.59,0.22 0.113,0.118 m 0,0 0.099,0.089 0.279,0.487 0.086,0.05 0.383,0.063 0.077,-0.004 2.15,-0.136 0.288,-0.166 -0.279,0.793 -0.271,1.109 1.096,0.252 0.708,1.92 -0.559,2.74 -0.352,1.533 -3.277,-0.789 -0.166,-0.041 0.139,-0.423 0.523,-2.159 -1.095,-0.257 -0.83,-1.352 0.785,-3.322 0.216,-0.387 m 3.362,0.383 1.064,-0.609 0.117,-0.041 0.532,0.01 0.225,0.086 1.298,0.531 0.42,0.257 0.441,0.356 0.871,1.609 0.071,0.55 -0.09,0.537 -0.144,0.639 -1.109,-0.265 -0.41,0.094 -0.225,0.144 -0.181,0.726 -0.572,2.551 -0.527,-0.121 -0.361,1.554 -1.077,-0.261 0.352,-1.533 0.559,-2.74 -0.708,-1.92 -1.096,-0.252 0.271,-1.109 0.279,-0.793 m 4.949,3.286 1.542,0.833 -0.189,0.563 0.283,1.141 0.013,0.045 0.086,0.712 0.055,1.108 -0.429,1.182 0.055,0.892 -4.945,-1.154 0.361,-1.554 0.527,0.121 0.572,-2.551 0.181,-0.726 0.225,-0.144 0.41,-0.094 1.109,0.265 0.144,-0.639 m -23.009,-39.167 9.551,2.51 4.741,1.19 2.466,0.609 -0.262,1.113 -0.613,2.096 -0.45,1.018 -0.523,2.128 -0.027,1.023 -1.352,5.458 -0.068,0.063 -1.077,-0.082 -0.018,-0.247 0.23,-0.257 0.158,-0.23 0.053,-0.149 -0.378,-1.37 -0.063,-0.14 -0.135,-0.211 -0.537,-0.298 -0.189,0.018 -0.978,0.324 -0.928,0.474 -2.362,-0.103 -0.591,-0.537 0.176,-0.636 -0.739,-0.302 -0.649,0.167 -0.437,0.144 -0.045,0.027 -0.018,0.036 -0.167,0.983 0.005,0.045 0.071,0.144 -0.887,-0.23 -0.766,-0.346 -1.655,-3.372 -1.235,-2.731 -0.252,-1.992 -0.032,-0.158 -0.32,-0.059 -0.008,-1.667 0.144,-0.041 0.766,-0.558 0.022,-0.149 -0.248,-2.471 -0.125,-0.536 -0.249,-0.698" />
</svg>
