<?xml version="1.0" encoding="UTF-8" standalone="no"?>
<!-- Created with Inkscape (http://www.inkscape.org/) -->

<svg
   xmlns:dc="http://purl.org/dc/elements/1.1/"
   xmlns:cc="http://creativecommons.org/ns#"
   xmlns:rdf="http://www.w3.org/1999/02/22-rdf-syntax-ns#"
   xmlns:svg="http://www.w3.org/2000/svg"
   xmlns="http://www.w3.org/2000/svg"
   xmlns:sodipodi="http://sodipodi.sourceforge.net/DTD/sodipodi-0.dtd"
   xmlns:inkscape="http://www.inkscape.org/namespaces/inkscape"
   version="1.0"
   width="555.22198"
   height="351.66797"
   id="svg2"
   inkscape:version="0.48.1 r9760"
   sodipodi:docname="springfield.svg">
  <metadata
     id="metadata68">
    <rdf:RDF>
      <cc:Work
         rdf:about="">
        <dc:format>image/svg+xml</dc:format>
        <dc:type
           rdf:resource="http://purl.org/dc/dcmitype/StillImage" />
      </cc:Work>
    </rdf:RDF>
  </metadata>
  <defs
     id="defs66" />
  <sodipodi:namedview
     pagecolor="#ffffff"
     bordercolor="#666666"
     borderopacity="1"
     objecttolerance="10"
     gridtolerance="10"
     guidetolerance="10"
     inkscape:pageopacity="0"
     inkscape:pageshadow="2"
     inkscape:window-width="640"
     inkscape:window-height="480"
     id="namedview64"
     showgrid="false"
     inkscape:zoom="0.83029853"
     inkscape:cx="277.61099"
     inkscape:cy="175.83398"
     inkscape:window-x="0"
     inkscape:window-y="25"
     inkscape:window-maximized="0"
     inkscape:current-layer="svg2" />
  <path
     id="17179"
     style="font-size:12px;fill:#0000ff;fill-rule:nonzero;stroke:#000000;stroke-opacity:1;stroke-width:0.1;stroke-miterlimit:4;stroke-dasharray:none;stroke-linecap:butt;marker-start:none;stroke-linejoin:bevel"
     d="m 356.04498,137.277 2.181,-0.158 0.054,0.758 0.095,0.965 0.582,0.234 0.302,3.484 -3.305,0.292 -1.09,0.086 -0.122,-1.509 -2.018,0.126 0.44,-1.033 2.007,-1.284 0.914,-1.38 0.068,-0.229 -0.053,-0.239 -0.055,-0.113 m 6.057,-0.505 3.341,-0.31 0.103,1.127 0.135,0.693 1.114,-0.099 0.216,2.831 0.126,1.519 -1.121,0.09 -5.6,0.415 -1.157,-0.478 -0.302,-3.484 1.313,-0.127 0.841,-0.464 0.541,-0.527 0.45,-1.186 m 4.909,4.242 5.129,-0.432 0.229,2.249 -0.131,0.013 0.429,4.471 -5.143,0.432 -0.387,-5.214 -0.126,-1.519 m -0.995,1.609 1.121,-0.09 0.387,5.214 -0.018,1.141 -2.673,0.208 -0.257,-3.408 1.44,-3.065 m 0,0 -1.44,3.065 -0.572,0.039 -2.194,0.236 -1.132,0.094 -0.262,-3.019 5.6,-0.415 m -6.757,-0.063 1.157,0.478 0.262,3.019 -0.595,1.758 -1.834,0.117 -0.784,-0.144 -0.041,-0.563 -0.929,0.072 -0.351,-1.884 -0.19,-2.561 3.305,-0.292 m -6.535,-1.005 2.018,-0.126 0.122,1.509 1.09,-0.086 0.19,2.561 -0.348,-0.379 -0.351,-0.062 -2.704,0.536 -0.432,0.342 -0.04,0.072 -0.898,0.369 -0.974,0.397 -0.018,0.009 -0.874,0.014 -0.735,-0.852 1.474,-0.866 0.672,-0.603 0.063,-0.082 0.456,-0.851 0.121,-0.734 0.054,-0.204 0.059,-0.105 0.914,-0.774 0.141,-0.085 m -0.415,4.295 0.432,-0.342 2.704,-0.536 0.351,0.062 0.348,0.379 0.351,1.884 -1.172,0.09 -0.008,0.478 0.022,0.262 -0.648,0.251 -2.209,0.144 -0.171,-2.672 m -3.539,0.009 0.735,0.852 0.874,-0.014 0.018,-0.009 0.974,-0.397 0.898,-0.369 0.04,-0.072 0.171,2.672 0.027,0.379 -5.787,0.298 0.603,-1.479 1.447,-1.861 m 0.992,7.806 -2.754,0.14 0.072,-0.23 -0.004,-0.049 -0.077,-0.261 -0.346,-0.969 -0.176,-1.371 0.158,-0.59 1.14,-0.055 1.127,0.397 0.784,1.478 0.076,1.51 m -3.042,-4.466 5.787,-0.298 0.076,1.136 0.145,0.865 0.662,1.849 0.067,0.279 0.009,0.378 -2.244,0.167 -1.46,0.09 -0.076,-1.51 -0.784,-1.478 -1.127,-0.397 -1.14,0.055 0.229,-0.658 -0.144,-0.478 m 9.775,-1.902 0.929,-0.072 0.041,0.563 0.784,0.144 1.834,-0.117 0.099,1.348 -0.369,0 -1.321,1.041 -1.275,1.406 0.116,1.509 -1.653,0.132 -2.214,0.157 -0.009,-0.378 -0.067,-0.279 -0.662,-1.849 -0.145,-0.865 -0.076,-1.136 -0.027,-0.379 2.209,-0.144 0.648,-0.251 -0.022,-0.262 0.008,-0.478 1.172,-0.09 m 8.081,-1.609 0.257,3.408 -0.504,1.847 -2.114,0.144 -1.114,0.067 -0.161,-1.884 -0.758,-0.107 -0.099,-1.348 0.595,-1.758 1.132,-0.094 2.194,-0.236 0.572,-0.039 m 2.93,3.2 0.157,1.816 0.227,2.646 -0.668,0.049 -0.473,-0.175 -2.33,-1.338 -0.09,-0.943 0.504,-1.847 2.673,-0.208 m 0.018,-1.141 5.143,-0.432 0.076,1.135 -0.243,0.456 0.094,0.944 -0.581,0.065 -0.364,0.077 0.031,0.374 -4.017,0.338 -0.157,-1.816 0.018,-1.141 m 5.143,-0.432 3.957,-0.387 0.329,3.569 0.154,1.685 -1.55,0.144 -0.006,-0.139 -2.668,0.311 -0.289,-2.648 -0.094,-0.944 0.243,-0.456 -0.076,-1.135 m -5.004,3.389 4.017,-0.338 -0.031,-0.374 0.364,-0.077 0.581,-0.065 0.289,2.648 -0.401,1.37 -4.521,0.429 -0.071,-0.947 -0.227,-2.646 m -7.481,-1.541 0.758,0.107 0.161,1.884 1.114,-0.067 0.145,1.7 0.153,2.293 -1.132,0.046 -1.103,0.085 -2.758,0.189 -0.187,-2.281 -0.116,-1.509 1.275,-1.406 1.321,-1.041 0.369,0 m -8.96,4.412 0.266,3.345 -0.464,0.03 -1.155,0.551 0.046,0.663 -1.709,0.134 -0.17,-0.098 -0.006,-0.027 -0.057,-0.051 -0.276,-0.049 -0.437,0.104 -0.174,0.888 -0.308,-3.606 0.23,-1.654 2.754,-0.14 1.46,-0.09 m 2.244,-0.167 2.214,-0.157 0.482,6.797 -4.444,0.269 -0.23,-3.397 -0.266,-3.345 2.244,-0.167 m -1.978,3.512 0.23,3.397 -1.231,1.037 -1.775,-0.432 -1.626,-1.857 0.174,-0.888 0.437,-0.104 0.276,0.049 0.057,0.051 0.006,0.027 0.17,0.098 1.709,-0.134 -0.046,-0.663 1.155,-0.551 0.464,-0.03 m 4.192,-3.669 1.653,-0.132 0.187,2.281 2.758,-0.189 1.103,-0.085 0.121,1.699 -0.919,2.542 -3.835,0.64 -0.586,0.041 -0.482,-6.797 m 6.535,-2.164 2.114,-0.144 0.09,0.943 2.33,1.338 0.473,0.175 0.668,-0.049 0.071,0.947 0.162,2.068 -3.307,0.234 -3.314,0.226 -0.121,-1.699 1.132,-0.046 -0.153,-2.293 -0.145,-1.7 m 2.601,5.512 0.284,3.949 1.122,-0.122 0.072,1.149 -3.028,0.266 -1.376,0.086 0.077,1.14 -1.158,0.008 -0.226,-3.708 0.919,-2.542 3.314,-0.226 m 3.307,-0.234 0.0472,0.57985 1.08978,-0.10185 0.266,3.371 -3.304,0.212 -1.122,0.122 -0.284,-3.949 m 7.666,-2.731 0.266,2.65 -4.57694,0.42568 -0.21006,-2.64668 4.521,-0.429 m 0.401,-1.37 2.668,-0.311 0.006,0.139 1.55,-0.144 -0.46,2.885 -0.131,1.343 -3.2,0.046 -0.568,0.062 -0.266,-2.65 0.401,-1.37 m 0.433,3.958 3.2,-0.046 0.203,0.693 0.469,0.551 0.716,1.279 -0.027,0.411 -0.072,0.204 -0.059,0.081 0.081,0.643 -3.732,0.352 -0.374,0.036 -0.405,-4.204 m -0.568,0.062 0.568,-0.062 0.405,4.204 -4.1291,0.38914 -0.3319,-4.20614 3.488,-0.325 m -6.526,3.908 3.304,-0.212 0.0659,0.83434 1.01906,-0.0953 0.137,1.51 -0.262,0.009 0.003,0.365 0.028,0.193 0.406,1.132 -4.439,0.266 -0.19,-2.853 -0.072,-1.149 m 7.873,0.198 0.266,3.629 -0.423,0.036 -1.92,0.185 -1.095,-0.312 -0.406,-1.132 -0.028,-0.193 -0.003,-0.365 0.262,-0.009 -0.137,-1.51 3.11,-0.293 0.374,-0.036 m 3.732,-0.352 0.041,0.005 0.022,0.036 0.384,0.825 -0.004,0.315 -0.141,0.82 -0.099,0.181 -0.08,0.067 -0.789,1.009 -0.194,0.528 -2.606,0.195 -0.266,-3.629 3.732,-0.352 m -3.889,4.017 -0.018,4.056 -1.6,0.185 -0.302,-4.056 1.92,-0.185 m 0.423,-0.036 2.606,-0.195 -0.717,2.064 -1.942,2.579 -0.014,0.063 -0.374,-0.419 0.018,-4.056 0.423,-0.036 m -3.438,-0.091 1.095,0.312 0.302,4.056 -2.2,0.189 -3.331,0.243 -0.184,-2.83 -0.121,-1.704 4.439,-0.266 m -8.956,-1.095 -0.077,-1.14 1.376,-0.086 3.028,-0.266 0.19,2.853 0.121,1.704 -4.449,0.342 -0.022,-0.378 -0.167,-3.029 m -1.384,-3.7 0.226,3.708 -3.421,0.222 -0.072,-0.893 -0.315,-0.789 -0.158,-0.563 -0.095,-1.045 3.835,-0.64 m -3.835,0.64 0.095,1.045 0.158,0.563 0.315,0.789 0.072,0.893 -1.014,1.217 -4.738,0.234 -0.206,-1.038 0.726,-0.886 0.022,-0.122 0.036,-0.298 -0.009,-0.076 -0.041,-0.072 -0.978,-0.591 -0.19,-0.112 -0.252,-0.121 -0.257,-0.078 1.231,-1.037 4.444,-0.269 0.586,-0.041 m -5.112,4.741 4.738,-0.234 0.23,3.069 0.18,2.583 -1.969,0.107 -0.276,-0.591 -2.357,-1.923 -1.252,-1.14 0.045,-0.159 0.661,-1.712 m 9.173,-1.673 1.158,-0.008 0.167,3.029 -1.267,0.044 -3.001,0.519 -0.406,0.153 -0.514,0.428 -0.342,0.343 -0.23,-3.069 1.014,-1.217 3.421,-0.222 m 1.325,3.021 0.022,0.378 0.212,3.389 -4.474,0.231 -1.11,0.072 -0.18,-2.583 0.342,-0.343 0.514,-0.428 0.406,-0.153 3.001,-0.519 1.267,-0.044 m 4.471,0.036 0.184,2.83 0.109,1.704 -4.262,0.324 -0.268,-1.127 -0.212,-3.389 4.449,-0.342 m 7.315,2.213 0.374,0.419 -0.058,1.352 -0.144,2.987 -0.027,0.055 -0.006,0.009 -0.022,0.015 -0.017,0.003 -0.483,0.018 -3.096,0.014 -0.321,-4.498 2.2,-0.189 1.6,-0.185 m -3.8,0.374 0.321,4.498 0,0.009 -3.344,0.275 -0.199,-2.835 -0.109,-1.704 3.331,-0.243 m -3.222,1.947 0.239,3.398 -4.476,0.351 -0.351,-1.126 0.326,-2.299 4.262,-0.324 m -9.004,-0.572 4.474,-0.231 0.268,1.127 -0.326,2.299 -4.205,0.23 -0.211,-3.425 m 0,0 0.211,3.425 -0.667,2.023 -2.723,-0.756 -2.854,-2.605 1.651,-0.712 -0.073,-1.136 1.376,-0.06 1.969,-0.107 1.11,-0.072 m -6.964,-3.475 1.252,1.14 2.357,1.923 0.276,0.591 -1.376,0.06 0.073,1.136 -1.651,0.712 -0.512,-0.383 -0.848,-0.825 -0.026,-0.028 -0.032,-0.045 -0.185,-0.253 -0.117,-0.289 -0.135,-0.58 -0.019,-0.541 0.009,-0.131 0.019,-0.054 0.147,-0.5 0.045,-0.09 0.028,-0.036 0.695,-1.807 m 7.175,6.9 4.205,-0.23 0.351,1.126 0.221,3.394 -3.696,0.627 -1.748,-2.894 0.667,-2.023 m 9.032,0.545 0.248,3.426 -3.367,0.288 -1.136,0.031 -0.221,-3.394 4.476,-0.351 m 3.304,-0.838 0.311,3.994 -0.37,0.027 -2.997,0.243 -0.248,-3.426 -0.04,-0.563 3.344,-0.275 m 3.096,-0.023 0.509,1.141 -0.131,0.491 -0.049,0.131 -0.076,0.139 -0.122,0.132 -0.469,0.341 -0.008,0.005 -0.163,0.307 -0.082,0.139 -0.013,0.028 -0.054,0.144 -0.014,0.09 0.005,0.014 0.053,0.292 0.006,0.014 0.216,0.586 0.082,0.148 -2.475,-0.125 -0.311,-3.994 0,-0.009 3.096,-0.014 m -9.519,4.575 0.22,3.457 -2.073,0.081 -2.397,0.172 0.369,-0.099 0.117,-0.06 0.009,-0.013 0.01,-0.009 0.008,-0.013 0.041,-0.122 0.04,-0.397 0.005,-0.017 -0.005,-0.014 -0.058,-0.217 -0.005,-0.021 -0.004,-0.01 -0.162,-0.365 -0.126,-0.158 -0.267,-0.262 -0.189,-0.283 -0.288,-0.537 -0.004,-0.003 -0.064,-0.258 -0.009,-0.117 0,-0.077 3.696,-0.627 1.136,-0.031 m 3.367,-0.288 0.238,3.399 -2.185,0.612 -1.2,-0.266 -0.22,-3.457 3.367,-0.288 m 2.997,-0.243 0.153,2.289 -0.063,0.027 -0.175,0.08 -0.072,0.055 -0.091,0.064 -0.131,0.17 -0.053,0.127 -0.289,1.27 0,0.005 -0.006,0.086 0.087,0.279 0.428,0.514 0.136,0.077 0.126,0.121 0.288,0.64 -0.149,0.716 -0.121,0.334 -0.235,0.104 -0.076,0.013 -0.1,-1.203 -2.416,-2.126 -0.238,-3.399 2.997,-0.243 m 0.37,-0.027 2.475,0.125 0.805,0.834 0,0.208 -0.193,0.22 -0.103,0.023 -1.407,0.298 -0.212,0.045 -0.175,0.049 -0.064,0.019 -0.022,0.004 -0.244,0.148 -0.049,0.032 -0.009,0.004 -0.172,0.159 -0.256,0.341 -0.591,-0.193 -0.153,-2.289 0.37,-0.027 m -5.314,4.281 2.185,-0.612 2.416,2.126 0.1,1.203 -0.743,-0.079 -3.872,-1.646 -0.086,-0.992 m -3.273,-0.185 2.073,-0.081 1.2,0.266 0.086,0.992 -0.055,0.018 -2.279,2.217 -0.663,-0.279 -0.249,-0.112 -0.081,-0.096 -0.095,-0.203 0.032,-1.311 0.031,-1.411 m -2.397,0.172 2.397,-0.172 -0.031,1.411 -0.032,1.311 0.095,0.203 0.081,0.096 0.249,0.112 0.663,0.279 0.481,1.081 -1.961,-0.211 -0.681,-0.555 -0.36,-0.883 -0.626,-1.172 -0.258,-0.369 -0.017,-1.131 m 16.235,-42.255 0.333,4.265 0.288,3.43 -3.957,0.387 -0.429,-4.471 0.131,-0.013 -0.229,-2.249 -0.122,-1.118 3.97,-0.415 0.015,0.184" />
</svg>
