<?xml version="1.0" encoding="UTF-8" standalone="no"?>
<!-- Created with Inkscape (http://www.inkscape.org/) -->

<svg
   xmlns:dc="http://purl.org/dc/elements/1.1/"
   xmlns:cc="http://creativecommons.org/ns#"
   xmlns:rdf="http://www.w3.org/1999/02/22-rdf-syntax-ns#"
   xmlns:svg="http://www.w3.org/2000/svg"
   xmlns="http://www.w3.org/2000/svg"
   xmlns:sodipodi="http://sodipodi.sourceforge.net/DTD/sodipodi-0.dtd"
   xmlns:inkscape="http://www.inkscape.org/namespaces/inkscape"
   version="1.0"
   width="555.22198"
   height="351.66797"
   id="svg2"
   inkscape:version="0.48.1 r9760"
   sodipodi:docname="tennessee.svg">
  <metadata
     id="metadata48">
    <rdf:RDF>
      <cc:Work
         rdf:about="">
        <dc:format>image/svg+xml</dc:format>
        <dc:type
           rdf:resource="http://purl.org/dc/dcmitype/StillImage" />
      </cc:Work>
    </rdf:RDF>
  </metadata>
  <defs
     id="defs46" />
  <sodipodi:namedview
     pagecolor="#ffffff"
     bordercolor="#666666"
     borderopacity="1"
     objecttolerance="10"
     gridtolerance="10"
     guidetolerance="10"
     inkscape:pageopacity="0"
     inkscape:pageshadow="2"
     inkscape:window-width="640"
     inkscape:window-height="480"
     id="namedview44"
     showgrid="false"
     inkscape:zoom="0.83029853"
     inkscape:cx="277.61099"
     inkscape:cy="175.83398"
     inkscape:window-x="0"
     inkscape:window-y="25"
     inkscape:window-maximized="0"
     inkscape:current-layer="svg2" />
  <path
     id="47049"
     style="font-size:12px;fill:#0000ff;fill-rule:nonzero;stroke:#000000;stroke-opacity:1;stroke-width:0.1;stroke-miterlimit:4;stroke-dasharray:none;stroke-linecap:butt;marker-start:none;stroke-linejoin:bevel"
     d="m 409.17898,187.424 0.555,1.947 -1.577,1.207 -0.083,0.107 -0.279,1.042 0.15,0.663 -1.957,0.459 -0.207,-0.057 0.306,-0.708 -0.396,-0.893 -0.176,-0.46 -0.132,-1.324 0.19,-1.24 0.109,-0.252 0.234,-0.384 0.387,-0.383 0.632,-0.198 0.4,-0.018 0.443,0.068 1.401,0.424 m -2.551,-0.866 1.884,-0.086 0.667,0.952 -1.401,-0.424 -0.443,-0.068 -0.4,0.018 -0.632,0.198 -0.387,0.383 -0.234,0.384 -0.109,0.252 -0.19,1.24 -1.869,-1.411 -0.05,-1.239 3.164,-0.199 m -3.164,0.199 0.05,1.239 -1.965,1.893 -0.406,-0.406 -0.523,-0.384 -0.694,-0.17 -1.321,-0.208 -0.455,0.285 0.09,-1.61 3.601,-0.346 1.425,-0.258 0.198,-0.035 m 0.05,1.239 1.869,1.411 0.132,1.324 0.176,0.46 0.396,0.893 -0.306,0.708 -0.879,0 -2.335,-0.83 -0.87,-0.767 -0.148,-1.306 1.965,-1.893 m -5.364,1.01 0.455,-0.285 1.321,0.208 0.694,0.17 0.523,0.384 0.406,0.406 0.148,1.306 0,0.298 -0.297,0.51 -0.068,0.098 -0.319,0.154 -0.65,0.198 -1.501,-0.107 -0.733,-2.197 0.021,-1.143 m -1.586,1.126 1.565,0.017 0.733,2.197 -0.135,1.401 -2.533,0.865 -1.073,-2.628 1.443,-1.852 m -0.253,-2.618 1.929,-0.118 -0.09,1.61 -0.021,1.143 -1.565,-0.017 -2.641,-0.528 0.04,-1.991 2.348,-0.099 m 0.253,2.618 -1.443,1.852 -1.572,-0.51 0.374,-1.87 2.641,0.528 m 2.298,2.214 1.501,0.107 0.65,-0.198 0.319,-0.154 0.068,-0.098 0.297,-0.51 0,-0.298 0.87,0.767 2.335,0.83 0.879,0 0.207,0.057 -0.482,0.564 -0.861,0.019 -0.103,0.076 -0.006,1.591 -0.549,-0.504 -0.158,-0.123 -0.509,-0.193 -1.438,-0.225 -0.383,0.094 -0.148,0.073 -0.551,0.486 -0.185,0.193 -0.045,0.095 -0.004,0.076 -1.839,-1.324 0.135,-1.401 m -0.135,1.401 1.839,1.324 -0.126,2.417 -2.11,0.117 -1.501,-1.424 -0.635,-1.569 2.533,-0.865 m 5.809,1.352 0.217,2.411 -3.443,0.356 -0.87,-0.378 0.126,-2.417 0.004,-0.076 0.045,-0.095 0.185,-0.193 0.551,-0.486 0.148,-0.073 0.383,-0.094 1.438,0.225 0.509,0.193 0.158,0.123 0.549,0.504 m -4.096,2.389 0.87,0.378 0.842,3.331 -0.513,0.071 -0.991,0.15 -0.519,0.112 -0.644,0.212 -0.163,-0.004 -0.468,-0.068 -1.308,-1.636 0.784,-2.429 2.11,-0.117 m 4.313,0.022 -0.022,0.068 0.225,0.248 0,0.018 -1.47,2.753 -1.334,0.6 -0.842,-3.331 3.443,-0.356 m -3.114,3.758 0.806,2.687 -3.136,1.592 -0.514,-0.798 0.059,-0.117 0.197,-0.696 0.072,-0.418 -0.166,-0.149 -0.122,-0.648 -0.036,-0.96 0.022,-0.068 0.033,-0.023 0.468,0.068 0.163,0.004 0.644,-0.212 0.519,-0.112 0.991,-0.15 m -6.523,3.283 0.005,-0.055 0.099,-0.104 0.947,-0.333 1.277,0.118 1.351,0.572 0.514,0.798 0.419,3.024 -4.675,0.455 -0.079,0.004 -0.173,-1.758 0.315,-2.721 m 2.43,-4.517 1.308,1.636 -0.033,0.023 -0.022,0.068 0.036,0.96 0.122,0.648 0.166,0.149 -0.072,0.418 -0.197,0.696 -0.059,0.117 -1.351,-0.572 -1.277,-0.118 -0.947,0.333 -0.099,0.104 -0.005,0.055 -0.063,-1.025 -0.162,-2.847 0.299,-0.969 2.356,0.324 m -0.717,-3.853 1.501,1.424 -0.784,2.429 -2.356,-0.324 0.219,-3.295 1.42,-0.234 m -1.708,-4.197 1.073,2.628 0.635,1.569 -1.42,0.234 -0.968,0.022 -0.685,-0.167 -0.171,-0.067 -1.65,-0.996 -0.45,-0.302 -0.998,-1.786 0.298,-0.585 1.051,-0.73 0.842,-0.378 0.055,-0.005 0.112,0.063 0.055,0.085 0.026,0.197 0.141,0.133 0.355,0.045 0.127,-0.47 1.572,0.51 m -3.285,-4.295 2.127,-0.076 -0.04,1.991 -0.374,1.87 -0.127,0.47 -0.355,-0.045 -0.141,-0.133 -0.026,-0.197 -0.055,-0.085 -0.112,-0.063 -0.055,0.005 -0.842,0.378 -1.051,0.73 -0.298,0.585 -1.851,-1.909 0.595,-0.248 0.229,-0.506 0.568,-1.703 0.266,-0.685 1.542,-0.379 m -4.801,3.966 1.601,-0.445 1.851,1.909 0.998,1.786 -0.898,1.82 -1.82,-0.707 -1.484,-0.076 -0.937,0.914 -0.136,0.018 -0.207,-0.716 1.032,-4.503 m 4.45,3.25 0.45,0.302 1.65,0.996 0.171,0.067 0.685,0.167 0.968,-0.022 -0.219,3.295 -0.299,0.969 -0.603,-0.248 -2.569,-0.29 -0.82,0.015 -0.15,0.027 -0.013,0.211 -0.514,-0.265 0.365,-3.404 0.898,-1.82 m 3.406,5.774 0.162,2.847 -2.708,1.029 -0.785,-0.055 -0.036,0.015 -0.156,-0.019 -0.506,-0.847 -0.103,-0.261 -0.032,-0.46 0.009,-2.534 0.013,-0.211 0.15,-0.027 0.82,-0.015 2.569,0.29 0.603,0.248 m 0.162,2.847 0.063,1.025 -0.315,2.721 -2.456,-2.717 2.708,-1.029 m -2.708,1.029 2.456,2.717 0.173,1.758 -4.861,0.479 -0.548,0.053 -0.258,-3.519 2.253,-1.543 0.785,0.055 m -7.18,-0.333 2.573,-0.033 1.569,1.854 0.258,3.519 -3.922,0.275 -0.13,0.01 -0.06,-1.489 -0.315,-3.457 0.005,-0.333 0.022,-0.346 m 4.071,-3.954 0.986,-0.139 0.514,0.265 -0.009,2.534 0.032,0.46 0.103,0.261 0.506,0.847 0.156,0.019 0.036,-0.015 -2.253,1.543 -1.569,-1.854 1.498,-3.921 m -4.662,-1.432 4.662,1.432 -1.498,3.921 -2.573,0.033 -0.929,-0.064 0.123,-0.194 0.031,-0.153 0.035,-0.468 -0.26,-0.523 -0.285,-0.23 -0.252,-0.046 -0.157,-0.14 -0.036,-0.162 -0.01,-0.266 0.096,-0.548 1.053,-2.592 m 0.101,-2.611 1.328,-0.067 0.207,0.716 0.136,-0.018 0.937,-0.914 1.484,0.076 1.82,0.707 -0.365,3.404 -0.986,0.139 -4.662,-1.432 -0.017,-1.416 0.118,-1.195 m -3.746,-3.376 2.348,-0.044 0.621,-0.068 0.533,0.068 0.238,0.089 0.032,0.073 -0.018,0.347 -0.28,0.433 0.208,0.152 0.144,0.483 -0.08,1.843 -0.118,1.195 -3.448,-0.131 -0.545,-2.361 0.365,-2.079 m 3.894,-1.928 2.212,0.734 -1.032,4.503 -1.328,0.067 0.08,-1.843 -0.144,-0.483 -0.208,-0.152 0.28,-0.433 0.018,-0.347 -0.032,-0.073 -0.238,-0.089 -0.533,-0.068 -0.621,0.068 1.546,-1.884 z m -0.077,2.122 -0.05,0.063 0.13,-0.058 -0.03,-0.027 -0.018,0.036 -0.032,-0.014 m 3.492,-4.975 2.056,0 -0.266,0.685 -0.568,1.703 -0.229,0.506 -0.595,0.248 -1.601,0.445 -2.212,-0.734 -0.172,-2.425 0.554,-0.064 3.033,-0.364 m -3.587,0.428 0.172,2.425 -1.546,1.884 -2.348,0.044 -0.848,-0.351 -0.806,-3.456 3.119,-0.325 2.257,-0.221 m -5.917,0.608 0.541,-0.062 0.806,3.456 -1.329,0.212 -0.141,0.127 -0.184,0.13 -0.279,0.139 -0.222,0.069 -0.201,0.036 -0.303,0.017 -0.203,-0.013 -1.117,-0.19 -0.099,-0.086 -0.799,-1.708 -0.37,-2.33 0.601,-0.036 1.676,0.032 -0.004,0.397 1.627,-0.19 m 1.347,3.394 0.848,0.351 -0.365,2.079 -0.221,-0.235 -1.82,-0.414 -0.42,-0.005 -0.366,0.194 -1.189,-0.041 -0.446,-1.402 1.117,0.19 0.203,0.013 0.303,-0.017 0.201,-0.036 0.222,-0.069 0.279,-0.139 0.184,-0.13 0.141,-0.127 1.329,-0.212 m 0.483,2.43 0.545,2.361 -1.708,2.164 -0.857,0.099 -0.184,0.036 -0.257,0.216 -1.249,-0.158 0.168,-0.252 0.048,-0.145 0.068,-0.545 0,-0.248 -0.158,-3.024 -0.432,-1.005 1.189,0.041 0.366,-0.194 0.42,0.005 1.82,0.414 0.221,0.235 m 3.993,2.492 0.017,1.416 -1.053,2.592 -0.7,0.446 -0.423,0.22 -0.078,0.018 -0.946,-0.113 -0.702,0.104 -0.401,0.266 -0.87,-2.916 1.708,-2.164 3.448,0.131 m -5.156,2.033 0.87,2.916 -0.474,1.686 -2.952,1.032 -0.153,0.012 -0.072,-0.036 -0.077,-0.089 -0.099,-0.176 -0.145,-3.282 0.168,-0.585 0.332,-0.951 0.055,-0.334 1.249,0.158 0.257,-0.216 0.184,-0.036 0.857,-0.099 m 4.12,1.975 -0.096,0.548 0.01,0.266 0.036,0.162 0.157,0.14 0.252,0.046 0.285,0.23 0.26,0.523 -0.035,0.468 -0.031,0.153 -0.123,0.194 -0.338,-0.122 -1.276,0.1 0.042,0.482 -0.87,0.36 -0.424,0.04 -1.573,-0.963 0.474,-1.686 0.401,-0.266 0.702,-0.104 0.946,0.113 0.078,-0.018 0.423,-0.22 0.7,-0.446 m -3.724,2.627 1.573,0.963 0.135,5.139 -3.966,0.307 -0.177,-2.254 -0.472,-1.631 -0.171,-0.853 -0.019,-0.22 0.145,-0.419 2.952,-1.032 m 4.439,0.103 0.929,0.064 -0.022,0.346 -0.005,0.333 0.315,3.457 0.06,1.489 -4.008,0.31 -0.135,-5.139 0.424,-0.04 0.87,-0.36 -0.042,-0.482 1.276,-0.1 0.338,0.122" />
</svg>
