<?xml version="1.0" encoding="UTF-8" standalone="no"?>
<!-- Created with Inkscape (http://www.inkscape.org/) -->

<svg
   xmlns:dc="http://purl.org/dc/elements/1.1/"
   xmlns:cc="http://creativecommons.org/ns#"
   xmlns:rdf="http://www.w3.org/1999/02/22-rdf-syntax-ns#"
   xmlns:svg="http://www.w3.org/2000/svg"
   xmlns="http://www.w3.org/2000/svg"
   xmlns:sodipodi="http://sodipodi.sourceforge.net/DTD/sodipodi-0.dtd"
   xmlns:inkscape="http://www.inkscape.org/namespaces/inkscape"
   version="1.0"
   width="555.22198"
   height="351.66797"
   id="svg2"
   inkscape:version="0.48.1 r9760"
   sodipodi:docname="texas.svg">
  <metadata
     id="metadata64">
    <rdf:RDF>
      <cc:Work
         rdf:about="">
        <dc:format>image/svg+xml</dc:format>
        <dc:type
           rdf:resource="http://purl.org/dc/dcmitype/StillImage" />
      </cc:Work>
    </rdf:RDF>
  </metadata>
  <defs
     id="defs62" />
  <sodipodi:namedview
     pagecolor="#ffffff"
     bordercolor="#666666"
     borderopacity="1"
     objecttolerance="10"
     gridtolerance="10"
     guidetolerance="10"
     inkscape:pageopacity="0"
     inkscape:pageshadow="2"
     inkscape:window-width="640"
     inkscape:window-height="480"
     id="namedview60"
     showgrid="false"
     inkscape:zoom="0.83029853"
     inkscape:cx="277.61099"
     inkscape:cy="175.83398"
     inkscape:window-x="0"
     inkscape:window-y="25"
     inkscape:window-maximized="0"
     inkscape:current-layer="svg2" />
  <path
     id="48203"
     style="font-size:12px;fill:#0000ff;fill-rule:nonzero;stroke:#000000;stroke-opacity:1;stroke-width:0.1;stroke-miterlimit:4;stroke-dasharray:none;stroke-linecap:butt;marker-start:none;stroke-linejoin:bevel"
     d="m 307.50798,242.599 2.127,1.252 1.326,-0.012 0.356,-0.181 1.285,-0.166 0.76,-0.063 0.551,0.067 0.739,0.275 0.085,3.89 -3.294,0.855 -0.091,-0.017 -1.176,-0.505 -0.311,-0.275 -0.951,0.008 -0.108,0.04 -0.572,-0.075 -0.645,-0.311 -0.014,-0.387 -0.04,-2.579 -0.027,-1.816 m -9.632,1.457 0.979,0.877 0.31,0.136 3.114,0.78 0.078,-0.009 0.207,-0.101 0.099,-0.201 1.798,0.405 0.041,2.173 0.041,2.992 -5.17,0.074 0.099,-2.84 -0.244,-0.186 -1.333,-1.42 -0.019,-2.68 m 6.585,1.887 0.176,-0.018 1.632,-0.699 0.644,-0.896 0.081,-0.036 0.509,0.058 0.032,0.063 0.04,2.579 0.014,0.387 0.645,0.311 0.572,0.075 0.108,-0.04 -0.698,0.33 -1.798,0.018 -1.916,0.041 -0.041,-2.173 m 4.453,1.784 0.951,-0.008 -0.008,0.491 -0.326,0.789 -0.347,0.612 -0.239,0.596 -0.211,1.596 0.037,1.379 0.964,-0.023 0.671,1.663 -5.295,0.059 -0.568,-3.773 -0.041,-2.992 1.916,-0.041 1.798,-0.018 0.698,-0.33 m 5.823,-0.066 0.055,2.537 0.351,2.786 -5.408,0.175 -0.964,0.023 -0.037,-1.379 0.211,-1.596 0.239,-0.596 0.347,-0.612 0.326,-0.789 0.008,-0.491 0.311,0.275 1.176,0.505 0.091,0.017 3.294,-0.855 m -15.364,3.521 5.17,-0.074 0.568,3.773 -0.407,0.801 0.117,1.155 0.2,0.744 0.27,0.734 0.053,0.085 0.596,0.587 -1.497,1.316 -1.19,-0.735 -1.09,-1.117 -0.703,-0.271 0.153,-0.216 -0.032,-0.127 -0.157,-0.5 -0.153,-0.32 -0.249,-0.302 -0.149,-0.032 -0.765,-0.698 -0.406,-1.461 -0.176,-0.931 0.193,-1.754 -0.346,-0.657 m 5.738,3.699 5.295,-0.059 0.627,2.456 0.261,0.181 0.766,0.856 -0.081,2.944 -0.059,1.541 -1.829,-2.217 -0.14,-0.15 -0.582,-0.305 -0.432,-0.181 -0.492,0.081 -2.037,-0.523 -0.468,-0.518 -0.596,-0.587 -0.053,-0.085 -0.27,-0.734 -0.2,-0.744 -0.117,-1.155 0.407,-0.801 m 4.624,-1.722 5.408,-0.175 1.537,1.717 0.55,3.32 -1.636,0.259 -1.176,-0.641 -3.385,-0.361 -0.627,-2.456 -0.671,-1.663 m 5.859,5.121 0.044,1.329 -0.184,0.235 -0.468,0.504 -0.009,1.456 0.04,1.798 0.094,0.302 -0.986,0.473 -2.205,-1.577 0.059,-1.541 0.081,-2.944 -0.766,-0.856 -0.261,-0.181 3.385,0.361 1.176,0.641 m 1.636,-0.259 1.185,1.245 1.01,1.465 0.329,1.434 0.076,0.423 0.114,0.667 -3.427,0.315 -1.406,0.334 -0.094,-0.302 -0.04,-1.798 0.009,-1.456 0.468,-0.504 0.184,-0.235 -0.044,-1.329 1.636,-0.259 m -11.29,0.966 0.468,0.518 2.037,0.523 0.492,-0.081 0.432,0.181 0.582,0.305 0.14,0.15 1.829,2.217 2.205,1.577 -3.606,0.915 -1.154,-0.315 -0.901,-0.361 -0.961,-0.202 -1.252,-0.524 -1.303,-3.086 -0.505,-0.501 1.497,-1.316 m 4.579,6.305 1.099,-0.031 0.654,-0.018 0.514,0.198 0.131,0.136 0.04,0.103 -0.076,0.432 0.744,2.169 0.026,0.031 0.067,0.014 0.249,0.036 0.1,0.085 0.788,1.564 0.054,0.517 -0.249,0.479 -0.03,0.099 0.116,0.379 0.167,0.271 -5.264,0.081 -1.339,-6.234 1.055,-0.626 1.154,0.315 m 4.592,-1.388 1.406,-0.334 0.56,2.704 -0.027,3.616 -0.167,5.475 -2.406,0.064 0.116,-0.163 0.203,-1.257 -0.113,-0.118 -0.036,-0.012 -0.202,-0.461 -0.032,-0.18 0.122,-0.5 0.098,-0.298 0.28,-0.684 -0.167,-0.271 -0.116,-0.379 0.03,-0.099 0.249,-0.479 -0.054,-0.517 -0.788,-1.564 -0.1,-0.085 -0.249,-0.036 -0.067,-0.014 -0.026,-0.031 -0.744,-2.169 0.076,-0.432 -0.04,-0.103 -0.131,-0.136 -0.514,-0.198 -0.654,0.018 -1.099,0.031 3.606,-0.915 0.986,-0.473 m 4.833,-0.649 0.513,-0.135 0.041,4.088 -0.199,0.865 -1.582,2.979 -0.126,0.451 0,0.005 0.032,0.034 0.311,0.375 0.157,0.804 -0.004,0.067 -0.045,0.112 -0.425,0.357 -0.012,0.012 0.341,2.025 -2.063,0.071 0.167,-5.475 0.027,-3.616 -0.56,-2.704 3.427,-0.315 m -10.579,1.722 -1.055,0.626 1.339,6.234 -2.074,0.505 -1.297,-0.028 -0.356,-0.738 -2.813,-2.696 -0.761,-0.793 3.903,-4.197 1.252,0.524 0.961,0.202 0.901,0.361 m -3.114,-1.087 -3.903,4.197 -1.416,-0.443 -1.198,-2.549 5.214,-4.291 1.303,3.086 m -9.903,-4.538 0.965,-0.491 1.739,-0.306 2.408,-0.375 0.703,0.271 1.09,1.117 1.19,0.735 0.505,0.501 -5.214,4.291 -2.016,1.653 -1.626,-2.105 -0.113,-0.37 -0.013,-0.168 0.554,-1.752 0.248,-0.279 0.094,-0.054 0.046,0.009 0.247,-0.628 -0.491,-1.405 -0.203,-0.455 -0.113,-0.189 m 3.371,-7.513 -0.193,1.754 0.176,0.931 0.406,1.461 0.765,0.698 0.149,0.032 0.249,0.302 0.153,0.32 0.157,0.5 0.032,0.127 -0.153,0.216 -2.408,0.375 -1.739,0.306 -0.965,0.491 -0.522,-1.473 -0.095,-0.736 -0.874,-1.031 -0.37,-0.136 -0.699,-0.704 -0.968,-1.798 0.098,-0.603 6.801,-1.032 m -6.801,1.032 -0.098,0.603 0.968,1.798 0.699,0.704 0.37,0.136 0.874,1.031 0.095,0.736 -4.931,2.644 -2.835,-4.953 4.836,-2.785 0.022,0.086 m -7.287,2.442 2.429,0.257 2.835,4.953 -0.911,0.722 -3.064,1.744 -2.218,-3.908 -1.415,-2.42 2.344,-1.348 m -2.344,1.348 1.415,2.42 -5.278,3.075 -1.537,-0.542 -1.992,-3.488 3.619,-1.983 2.646,-1.487 1.127,2.005 m 1.415,2.42 2.218,3.908 -2.57,1.465 -2.676,1.519 -2.25,-3.817 5.278,-3.075 m -16.158,1.109 1.014,-0.591 2.894,5.157 -0.059,0.442 -5.832,-0.063 -1.284,-2.628 3.267,-2.317 m 7.351,-2.064 1.992,3.488 -5.435,3.142 -2.894,-5.157 4.589,-2.6 1.748,1.127 m 1.992,3.488 1.537,0.542 2.25,3.817 -2.105,1.22 -0.649,1.759 -3.399,-1.572 -0.329,-0.081 -1.915,-0.425 -0.884,-1.676 0.059,-0.442 5.435,-3.142 m 6.463,2.84 0.131,0.419 0.645,1.884 0.951,1.217 0.532,1.338 -3.818,2.204 -2.141,1.262 -1.73,-3.826 0.649,-1.759 2.105,-1.22 2.676,-1.519 m 2.57,-1.465 3.064,-1.744 0.848,4.953 -0.234,0.112 -0.451,0.298 -0.329,0.226 -0.181,0.157 -0.139,0.181 -0.298,0.465 -0.248,0.472 -0.22,0.51 -0.302,0.527 -1.227,0.621 -0.594,-0.455 -0.532,-1.338 -0.951,-1.217 -0.645,-1.884 -0.131,-0.419 2.57,-1.465 m 9.428,-3.637 0.113,0.189 0.203,0.455 0.491,1.405 -0.247,0.628 -0.046,-0.009 -0.094,0.054 -0.248,0.279 -0.554,1.752 0.013,0.168 0.113,0.37 -2.335,0.032 -1.163,0.595 -0.996,0.662 -0.766,0.266 -0.848,-4.953 0.911,-0.722 4.931,-2.644 0.522,1.473 m -5.516,6.846 0.766,-0.266 0.996,-0.662 1.163,-0.595 2.335,-0.032 1.626,2.105 -2.708,0.865 -3.38,0.527 -0.798,-1.942 m 0.798,1.942 -0.109,1.465 -0.094,1.334 0.518,1.737 0.126,0.233 0.082,0.144 0.396,0.275 -0.779,1.159 0.049,-0.51 -0.311,-0.328 -0.149,-0.018 -0.076,0.058 -0.19,0.23 -0.605,0.207 -0.08,-0.027 -0.126,-0.09 -0.122,-0.162 -0.166,-0.978 -1.195,-1.704 -0.946,-0.441 -1.028,-0.245 0,-0.036 0.315,-0.594 0.063,-0.082 1.227,-0.621 0.302,-0.527 0.22,-0.51 0.248,-0.472 0.298,-0.465 0.139,-0.181 0.181,-0.157 0.329,-0.226 0.451,-0.298 0.234,-0.112 0.798,1.942 m 0,0 3.38,-0.527 0.365,3.011 0.297,4.958 -3.222,0.266 -0.68,-1.361 0.779,-1.159 -0.396,-0.275 -0.082,-0.144 -0.126,-0.233 -0.518,-1.737 0.094,-1.334 0.109,-1.465 m 8.104,-3.045 1.198,2.549 -0.315,4.58 -0.748,-0.049 -0.726,0.004 -1.195,0.005 -2.573,-1.56 -0.365,-3.011 2.708,-0.865 2.016,-1.653 m 1.198,2.549 1.416,0.443 0.761,0.793 2.813,2.696 0.356,0.738 -3.498,1.948 -2.163,-2.038 0.315,-4.58 m -14.323,1.668 0.594,0.455 -0.063,0.082 -0.315,0.594 0,0.036 1.028,0.245 0.946,0.441 1.195,1.704 0.166,0.978 -0.05,-0.04 -0.099,-0.015 -1.685,0.613 -0.325,0.091 -1.645,0.405 -1.262,-0.576 -1.018,-1.177 -1.285,-1.632 3.818,-2.204 m -13.332,-2.438 1.915,0.425 0.329,0.081 3.399,1.572 1.73,3.826 -2.001,0.676 -0.388,-0.222 -1.573,-0.868 -0.707,-0.224 -0.225,0 -1.037,0.5 -0.753,0.265 -0.256,0.009 -0.352,-0.117 -0.411,-0.347 -0.197,-0.947 -0.528,-0.762 -0.437,-0.31 -1.032,0.031 2.524,-3.588 m -0.884,-1.676 0.884,1.676 -2.524,3.588 -0.897,2.533 -2.474,-0.829 -0.141,-1.118 -0.049,-3.366 -0.734,-1.155 0.103,-1.392 5.832,0.063 m -2.537,7.797 0.897,-2.533 1.032,-0.031 0.437,0.31 0.528,0.762 0.197,0.947 0.411,0.347 0.352,0.117 0.256,-0.009 0.753,-0.265 1.037,-0.5 0.225,0 0.707,0.224 1.573,0.868 -1.41,2.679 -1.307,1.329 -0.492,0.451 -0.671,0.568 -5.075,-4.376 0.55,-0.888 m 49.09,2.299 -0.008,2.491 -1.285,1.791 0.019,-0.293 -0.022,-0.127 -0.041,-0.104 -0.172,-0.265 -0.144,-0.063 -0.932,-0.24 -1.552,-1.01 -0.031,-0.035 -0.234,-0.811 -0.027,-0.157 -0.04,-1.042 2.406,-0.064 2.063,-0.071 m -8.094,1.856 0.311,0.162 0.176,0.033 1.127,-0.24 0.081,-0.045 0.149,-0.215 0.031,-0.081 -0.027,-0.204 0.009,-0.144 0.027,-0.036 0.727,-0.235 0.156,-0.022 0.826,0.275 0.072,0.073 0.027,0.157 0.234,0.811 0.031,0.035 1.552,1.01 0.932,0.24 0.144,0.063 0.172,0.265 0.041,0.104 0.022,0.127 -0.019,0.293 0.1,2.875 -1.041,0.167 -0.276,-0.005 -0.513,-0.005 -0.617,0.145 -0.848,0.338 -2.47,1.135 0.01,-0.17 -0.123,-4.022 -0.946,-0.008 -0.077,-2.876 m -4.574,-4.836 1.297,0.028 1.587,4.844 1.69,-0.036 0.077,2.876 -6.021,0.149 -1.339,-3.629 -0.789,-2.284 3.498,-1.948 m 3.371,-0.477 5.264,-0.081 -0.28,0.684 -0.098,0.298 -0.122,0.5 0.032,0.18 0.202,0.461 0.036,0.012 0.113,0.118 -0.203,1.257 -0.116,0.163 0.04,1.042 -0.072,-0.073 -0.826,-0.275 -0.156,0.022 -0.727,0.235 -0.027,0.036 -0.009,0.144 0.027,0.204 -0.031,0.081 -0.149,0.215 -0.081,0.045 -1.127,0.24 -0.176,-0.033 -0.311,-0.162 -1.69,0.036 -1.587,-4.844 2.074,-0.505 m 1.28,8.189 0.946,0.008 0.123,4.022 -0.01,0.17 -0.185,0.086 -1.744,0.063 -2.348,-0.374 0.284,-0.531 0.162,-0.893 0.004,-0.117 -0.036,-0.253 -0.333,-0.657 -0.122,-0.136 -0.063,-0.023 -0.573,0.262 -0.265,0.14 -1.289,1.062 -0.572,-2.68 6.021,-0.149 m -15.239,-2.443 0.536,-0.027 0.244,-0.022 0.739,-0.149 0.789,-0.374 0.528,-0.459 1.41,0.748 0.812,0.436 0.323,0.302 0.119,0.257 0.197,0.042 0.329,-0.037 0.73,-0.69 1.123,-1.064 1.339,3.629 0.572,2.68 -0.951,1.561 -0.568,-0.028 -1.122,0.578 -0.541,-0.541 -2.335,-0.297 -4.52,-2.659 -1.357,-4.332 -0.154,-0.497 0.329,0.244 0.226,0.213 0.604,0.338 0.599,0.148 m -0.315,-6.959 2.573,1.56 1.195,-0.005 0.726,-0.004 0.748,0.049 2.163,2.038 0.789,2.284 -1.123,1.064 -0.73,0.69 -0.329,0.037 -0.197,-0.042 -0.119,-0.257 -0.323,-0.302 -0.812,-0.436 -1.41,-0.748 -0.528,0.459 -0.789,0.374 -0.739,0.149 -0.244,0.022 -0.536,0.027 -0.018,-2.001 -0.297,-4.958 m 16.428,13.688 -0.334,0.154 -1,0.46 -0.077,0.036 -0.049,0.027 -0.901,0.419 -0.14,0.066 -0.405,0.217 -0.073,0.045 -0.23,0.145 -0.135,0.081 -0.04,0.031 -0.131,0.1 -0.095,0.067 -0.045,0.054 -0.032,0.027 -0.081,0.086 -0.027,0.04 -0.098,0.149 -0.046,0.068 -0.054,0.13 -0.023,0.051 -0.342,0.098 -0.194,0.01 -0.04,-0.036 -0.009,-0.151 0.18,-0.229 0.947,-1.014 0.098,-0.071 0.861,-0.41 0.577,-0.199 0.145,-0.018 0.107,-0.045 -0.058,-0.14 0,-0.185 1.744,-0.063 m -7.274,0.104 0.518,0.586 1.849,1.978 0.896,0.266 -0.613,0.537 -0.193,0.149 -1.069,0.734 -1.344,0.924 -0.081,0.053 -0.144,0.114 -0.405,0.31 -0.072,0.059 -0.041,0.032 -0.162,0.153 -0.121,0.113 -0.095,0.131 -0.122,-0.095 0.816,-1.47 -0.73,-1.234 -1.293,-2.168 0.175,-1.163 0.541,0.541 1.122,-0.578 0.568,0.028 m -4.566,-0.288 2.335,0.297 -0.175,1.163 1.293,2.168 0.73,1.234 -0.816,1.47 0.122,0.095 -0.068,0.139 -2.83,2.475 -1.474,0.671 -0.685,-0.063 -0.041,-0.022 -2.231,-1.758 -0.027,-0.041 -0.095,-0.32 -0.288,-1.119 -0.464,-1.544 -0.068,-0.068 -0.266,-0.253 0.297,-0.423 0.56,-0.582 0.509,-0.217 0.433,0.154 0.991,0.014 0.383,-0.198 1.456,-1.456 0.419,-1.816 m -6.837,-1.88 2.317,-0.779 4.52,2.659 -0.419,1.816 -1.456,1.456 -0.383,0.198 -0.991,-0.014 -0.433,-0.154 -0.509,0.217 -0.56,0.582 -0.351,-0.045 -0.807,-0.897 -0.645,-1.199 -0.914,-2.218 0.631,-1.622 m -0.676,-6.4 3.222,-0.266 0.018,2.001 -0.599,-0.148 -0.604,-0.338 -0.226,-0.213 -0.329,-0.244 0.154,0.497 1.357,4.332 -2.317,0.779 -1.257,-4.408 0.581,-1.992 m -2.29,-2.001 0.122,0.162 0.126,0.09 0.08,0.027 0.605,-0.207 0.19,-0.23 0.076,-0.058 0.149,0.018 0.311,0.328 -0.049,0.51 0.68,1.361 -0.581,1.992 -0.118,0.14 -0.261,-0.018 -0.55,-0.195 -0.514,-0.224 -0.203,-0.041 -3.276,0.391 -0.401,0.257 -0.023,-0.287 -0.103,-0.506 -0.163,-0.473 -0.428,-0.284 -0.167,0.085 -0.374,0.132 -0.369,0.076 -0.289,-0.253 1.726,-1.739 1.645,-0.405 0.325,-0.091 1.685,-0.613 0.099,0.015 0.05,0.04 m -3.614,4.303 0.401,-0.257 3.276,-0.391 0.203,0.041 0.514,0.224 0.55,0.195 0.261,0.018 0.118,-0.14 1.257,4.408 -0.631,1.622 -0.974,-0.414 -0.279,-0.302 -2.154,-2.128 -0.199,-0.04 -0.112,-0.054 -0.708,-0.492 -0.113,-0.102 -0.459,-0.416 -0.379,-0.698 -0.572,-1.074 m -5.896,-5.372 2.141,-1.262 1.285,1.632 1.018,1.177 1.262,0.576 -1.726,1.739 -2.582,1.384 -0.609,-2.685 -1.303,-1.029 -1.487,-0.856 2.001,-0.676 m 3.98,3.862 0.289,0.253 0.369,-0.076 0.374,-0.132 0.167,-0.085 0.428,0.284 0.163,0.473 0.103,0.506 0.023,0.287 0.572,1.074 -3.444,4.205 -3.019,0.027 -1.934,-2.042 0.023,-0.023 3.304,-3.367 2.582,-1.384 m -5.981,-3.186 1.487,0.856 1.303,1.029 0.609,2.685 -3.304,3.367 -3.692,-3.7 0.492,-0.451 1.307,-1.329 1.41,-2.679 0.388,0.222 m 8.469,5.77 0.379,0.698 0.459,0.416 0.113,0.102 0.708,0.492 0.112,0.054 0.199,0.04 2.154,2.128 0.279,0.302 -1.226,1.262 -0.54,1.094 -0.185,0.537 -2.894,1.817 -0.405,0.229 -0.203,-0.207 1.108,-0.915 -2.591,-3.123 -0.608,-0.568 -0.208,-0.126 -0.095,-0.027 3.444,-4.205 m 5.377,4.646 0.914,2.218 0.645,1.199 0.807,0.897 0.351,0.045 -0.297,0.423 -1.028,1.065 -3.893,2.352 -3.723,-3.674 0.405,-0.229 2.894,-1.817 0.185,-0.537 0.54,-1.094 1.226,-1.262 0.974,0.414 m -2.501,8.199 3.893,-2.352 1.028,-1.065 0.266,0.253 0.068,0.068 0.464,1.544 0.288,1.119 0.095,0.32 0.027,0.041 2.231,1.758 0.041,0.022 0.685,0.063 -0.216,0.144 -0.474,0.302 -0.211,0.126 -2.556,1.488 -0.811,0.41 -1.325,0.577 -0.879,0.406 -1.623,0.829 -0.572,0.384 -0.041,0.026 -0.771,0.54 -0.338,0.253 -0.094,0.149 -0.027,-0.094 0.067,-0.109 1.834,-1.379 0.28,-2.366 -0.054,-0.058 -0.076,-0.028 -0.231,0.032 -0.517,0.122 -0.222,0.072 -0.185,0.147 -0.216,0.38 -0.004,-0.433 0.176,-3.691" />
</svg>
