<?xml version="1.0" encoding="UTF-8" standalone="no"?>
<!-- Created with Inkscape (http://www.inkscape.org/) -->

<svg
   xmlns:dc="http://purl.org/dc/elements/1.1/"
   xmlns:cc="http://creativecommons.org/ns#"
   xmlns:rdf="http://www.w3.org/1999/02/22-rdf-syntax-ns#"
   xmlns:svg="http://www.w3.org/2000/svg"
   xmlns="http://www.w3.org/2000/svg"
   xmlns:sodipodi="http://sodipodi.sourceforge.net/DTD/sodipodi-0.dtd"
   xmlns:inkscape="http://www.inkscape.org/namespaces/inkscape"
   version="1.0"
   width="555.22198"
   height="351.66797"
   id="svg2"
   inkscape:version="0.48.1 r9760"
   sodipodi:docname="uppersouthcarolina.svg">
  <metadata
     id="metadata31">
    <rdf:RDF>
      <cc:Work
         rdf:about="">
        <dc:format>image/svg+xml</dc:format>
        <dc:type
           rdf:resource="http://purl.org/dc/dcmitype/StillImage" />
      </cc:Work>
    </rdf:RDF>
  </metadata>
  <defs
     id="defs29" />
  <sodipodi:namedview
     pagecolor="#ffffff"
     bordercolor="#666666"
     borderopacity="1"
     objecttolerance="10"
     gridtolerance="10"
     guidetolerance="10"
     inkscape:pageopacity="0"
     inkscape:pageshadow="2"
     inkscape:window-width="640"
     inkscape:window-height="480"
     id="namedview27"
     showgrid="false"
     inkscape:zoom="0.83029853"
     inkscape:cx="277.61099"
     inkscape:cy="175.83398"
     inkscape:window-x="0"
     inkscape:window-y="25"
     inkscape:window-maximized="0"
     inkscape:current-layer="svg2" />
  <path
     id="45045"
     style="font-size:12px;fill:#0000ff;fill-rule:nonzero;stroke:#000000;stroke-opacity:1;stroke-width:0.1;stroke-miterlimit:4;stroke-dasharray:none;stroke-linecap:butt;marker-start:none;stroke-linejoin:bevel"
     d="m 435.87598,201.165 1.458,-0.067 0.298,2.308 0.235,2.019 0.04,0.103 0.924,0.735 -0.261,1.19 -0.32,1.496 0.117,0.654 -0.716,0.784 -1.258,-0.83 -0.464,-0.77 -0.181,-0.415 -0.036,-0.113 -0.487,-1.92 0.051,-0.063 -0.086,-0.437 -0.113,-0.302 -0.746,-1.636 -0.467,-0.577 -1.983,0.23 1.848,-1.262 2.147,-1.127 m 4.036,-0.333 0.988,-0.108 1.118,1.781 0.563,1.166 0.531,0.284 -0.265,0.446 -0.334,0.636 -0.109,1.82 -0.157,1.402 -3.416,-1.996 -0.924,-0.735 -0.04,-0.103 -0.235,-2.019 -0.298,-2.308 2.578,-0.266 m 2.097,-0.221 4.186,-0.442 -0.301,0.42 -0.686,1.442 -0.004,0.072 0.166,1.136 0.338,0.888 0.195,0.364 -0.33,-0.251 -0.126,-0.068 -0.203,-0.059 -1.411,-0.063 -0.721,-0.095 -0.531,-0.284 -0.563,-1.166 -1.118,-1.781 1.109,-0.113 m 4.592,-0.482 2.974,-0.271 1.565,0.69 0.608,3.267 -6.03,0.938 0.185,-0.262 -0.195,-0.364 -0.338,-0.888 -0.166,-1.136 0.004,-0.072 0.686,-1.442 0.301,-0.42 0.406,-0.04 m 5.147,3.686 0.113,0.176 0.225,0.577 0.226,0.649 -0.149,0.532 -0.013,0.441 0.387,1.146 -1.501,0.153 -2.425,0.193 -1.821,0.181 -1.072,-3.11 6.03,-0.938 m -0.608,-3.267 0.838,0.856 0.739,0.744 0.072,1.316 0.005,0.122 0.212,0.04 2.25,-0.332 2.018,2.329 -1.366,0.941 0.363,0.681 -1.192,0.437 -0.712,-0.013 -0.334,-0.108 -0.031,-0.415 -0.058,0.005 -1.249,1.28 -0.158,-1.095 -0.387,-1.146 0.013,-0.441 0.149,-0.532 -0.226,-0.649 -0.225,-0.577 -0.113,-0.176 -0.608,-3.267 m 6.625,2.374 4.093,-0.593 1.618,3.339 -2.159,0.888 -2.262,2.042 -1.781,-2.975 -2.018,-2.329 2.509,-0.372 m -14.653,1.033 0.721,0.095 1.411,0.063 0.203,0.059 0.126,0.068 0.33,0.251 -0.185,0.262 1.072,3.11 0.15,0.996 -0.022,-0.013 -0.14,0.003 -0.311,0.086 -0.159,0.078 -0.37,0.49 -1.373,-0.793 -2.318,-0.451 0.157,-1.402 0.109,-1.82 0.334,-0.636 0.265,-0.446 m -11.217,5.427 3.33,-3.043 0.487,1.92 0.036,0.113 0.181,0.415 0.464,0.77 1.258,0.83 -3.976,4.174 -0.397,-1.033 -1.117,-1.572 -0.351,-0.542 0.004,-0.035 -0.108,-0.082 -0.221,-0.063 -0.378,0.05 -0.42,0.104 -0.009,0.004 -0.117,0.059 1.334,-2.069 m 5.756,1.005 0.846,0.852 -0.798,0.991 0.402,0.798 0.149,0.059 0.206,0.148 0.154,0.145 0.225,0.298 0.136,0.35 0.049,0.365 -0.045,0.379 -0.136,0.365 -0.202,0.275 -0.342,0.383 -0.518,0.163 -0.681,0.068 -0.117,0.008 -0.393,-0.171 -0.445,0.14 -0.591,0.87 -1.875,-2.312 3.976,-4.174 m 4.596,-2.128 2.318,0.451 -0.479,1.122 -0.648,1.254 -0.281,0.279 -0.842,1.424 -0.27,0.631 -0.901,-0.514 -1.55,-0.807 -0.907,-0.662 -0.19,-0.198 -0.846,-0.852 0.716,-0.784 -0.117,-0.654 0.32,-1.496 0.261,-1.19 3.416,1.996 m -3.75,2.98 0.19,0.198 0.907,0.662 1.55,0.807 0.901,0.514 0.914,0.753 -1.118,2.443 -0.392,0.171 -0.04,-0.393 -1.118,0.122 -0.657,0.109 -0.82,0.207 -0.519,-1.037 0.342,-0.383 0.202,-0.275 0.136,-0.365 0.045,-0.379 -0.049,-0.365 -0.136,-0.35 -0.225,-0.298 -0.154,-0.145 -0.206,-0.148 -0.149,-0.059 -0.402,-0.798 0.798,-0.991 m 2.952,5.548 -1.099,0.473 0.098,2.672 0.929,1.619 -1.234,-1.077 -0.428,-0.807 -0.663,-0.545 -0.279,-0.199 -0.92,-0.464 -0.049,-0.004 -0.15,0.058 -0.067,-0.018 -1.595,-0.95 -0.442,-0.672 0.591,-0.87 0.445,-0.14 0.393,0.171 0.117,-0.008 0.681,-0.068 0.518,-0.163 0.519,1.037 0.82,-0.207 0.657,-0.109 1.118,-0.122 0.04,0.393 m 0.392,-0.171 0.771,-0.311 0.397,-0.041 0.416,1.028 0.139,0.121 0.265,0.158 2.047,0.37 -3.282,4.214 -0.175,-0.163 -1.042,-0.441 -0.929,-1.619 -0.098,-2.672 1.099,-0.473 0.392,-0.171 m 1.118,-2.443 -0.04,-0.194 0.293,-0.329 1.186,-0.301 0.274,0.076 0.807,0.338 0.69,0.392 0.307,0.113 0.464,0.108 0.316,-0.081 -0.655,2.713 -0.725,0.933 -2.047,-0.37 -0.265,-0.158 -0.139,-0.121 -0.416,-1.028 -0.397,0.041 -0.771,0.311 1.118,-2.443 m 3.981,-5.314 1.617,3.097 -0.144,0.571 -1.157,1.768 -0.316,0.081 -0.464,-0.108 -0.307,-0.113 -0.69,-0.392 -0.807,-0.338 -0.274,-0.076 -1.186,0.301 -0.293,0.329 0.04,0.194 -0.914,-0.753 0.27,-0.631 0.842,-1.424 0.281,-0.279 0.648,-1.254 0.479,-1.122 1.373,0.793 0.37,-0.49 0.159,-0.078 0.311,-0.086 0.14,-0.003 0.022,0.013 m 5.597,-1.523 0.158,1.095 0.947,2.334 -1.395,0.442 -1.63,0.735 -1.704,0.04 -0.356,-0.026 -1.617,-3.097 -0.15,-0.996 1.821,-0.181 2.425,-0.193 1.501,-0.153 m 1.105,3.429 -0.284,1.177 1.811,1.199 1.019,-0.569 0.703,4.567 -1.379,-0.02 -0.843,-0.034 -1.637,-0.695 -0.553,-0.337 -0.149,-0.641 -0.036,-0.072 -0.397,-0.608 -0.176,-0.185 -0.964,-0.695 -0.393,-0.229 -0.391,-0.041 -0.311,0 -1.249,-1.055 0.144,-0.571 0.356,0.026 1.704,-0.04 1.63,-0.735 1.395,-0.442 m -5.229,1.762 1.249,1.055 0.311,0 0.391,0.041 0.393,0.229 0.964,0.695 0.176,0.185 0.397,0.608 0.036,0.072 0.149,0.641 -0.248,0.162 -0.017,0.157 0.022,1.092 0.265,0.107 0.163,-0.252 0.549,-0.059 0.293,0.126 0.149,0.099 -0.289,0.293 -0.855,0.536 -1.411,0.938 -1.037,-0.402 -0.662,-0.183 -0.24,-0.032 -0.379,0.008 -0.247,-0.031 -1.447,-1.091 -0.442,-0.446 -0.045,-0.067 0.655,-2.713 1.157,-1.768 m -1.812,4.481 0.045,0.067 0.442,0.446 1.447,1.091 0.247,0.031 0.379,-0.008 0.24,0.032 0.662,0.183 1.037,0.402 -1.642,2.385 -3.597,4.642 -1.003,-0.758 -0.7,-0.991 -0.253,-0.977 -0.715,-0.834 -0.505,-0.478 -0.091,-0.086 3.282,-4.214 0.725,-0.933 m 10.673,-11.385 1.781,2.975 0,0.027 -0.982,1.032 -0.298,0.409 0.041,0.167 0.045,0.388 -0.253,0.681 -0.135,0.153 -1.285,1.117 -1.019,0.569 -1.811,-1.199 0.284,-1.177 -0.947,-2.334 1.249,-1.28 0.058,-0.005 0.031,0.415 0.334,0.108 0.712,0.013 1.192,-0.437 -0.363,-0.681 1.366,-0.941 m -26.749,-1.722 -0.18,0.284 -0.182,0.663 0.695,1.721 1.037,2.813 -1.334,2.069 -0.654,-0.091 -0.646,-0.45 -2.676,-1.645 -0.208,-0.347 0.172,-0.974 0.693,-1.258 0.956,-0.743 0.226,-1.027 1.001,-0.484 1.1,-0.531 m 1.356,-0.347 1.983,-0.23 0.467,0.577 0.746,1.636 0.113,0.302 0.086,0.437 -0.051,0.063 -3.33,3.043 -1.037,-2.813 -0.695,-1.721 0.182,-0.663 0.18,-0.284 1.356,-0.347" />
</svg>
