<?xml version="1.0" encoding="UTF-8" standalone="no"?>
<!-- Created with Inkscape (http://www.inkscape.org/) -->

<svg
   xmlns:dc="http://purl.org/dc/elements/1.1/"
   xmlns:cc="http://creativecommons.org/ns#"
   xmlns:rdf="http://www.w3.org/1999/02/22-rdf-syntax-ns#"
   xmlns:svg="http://www.w3.org/2000/svg"
   xmlns="http://www.w3.org/2000/svg"
   xmlns:sodipodi="http://sodipodi.sourceforge.net/DTD/sodipodi-0.dtd"
   xmlns:inkscape="http://www.inkscape.org/namespaces/inkscape"
   version="1.0"
   width="555.22198"
   height="351.66797"
   id="svg2"
   inkscape:version="0.48.1 r9760"
   sodipodi:docname="vermont.svg">
  <metadata
     id="metadata22">
    <rdf:RDF>
      <cc:Work
         rdf:about="">
        <dc:format>image/svg+xml</dc:format>
        <dc:type
           rdf:resource="http://purl.org/dc/dcmitype/StillImage" />
      </cc:Work>
    </rdf:RDF>
  </metadata>
  <defs
     id="defs20" />
  <sodipodi:namedview
     pagecolor="#ffffff"
     bordercolor="#666666"
     borderopacity="1"
     objecttolerance="10"
     gridtolerance="10"
     guidetolerance="10"
     inkscape:pageopacity="0"
     inkscape:pageshadow="2"
     inkscape:window-width="640"
     inkscape:window-height="480"
     id="namedview18"
     showgrid="false"
     inkscape:zoom="0.83029853"
     inkscape:cx="277.61099"
     inkscape:cy="175.83398"
     inkscape:window-x="0"
     inkscape:window-y="25"
     inkscape:window-maximized="0"
     inkscape:current-layer="svg2" />
  <path
     id="50007"
     style="font-size:12px;fill:#0000ff;fill-rule:nonzero;stroke:#000000;stroke-opacity:1;stroke-width:0.1;stroke-miterlimit:4;stroke-dasharray:none;stroke-linecap:butt;marker-start:none;stroke-linejoin:bevel"
     d="m 500.33898,62.982 2.993,0.46 1.627,2.011 -0.153,0.68 -0.271,1.686 0.154,0.036 -0.154,1.568 -0.41,-1.073 -0.541,-0.333 -2.203,0.865 -0.487,0.054 -0.302,-1.568 0.05,-0.541 -0.014,-0.14 -0.005,-0.008 -0.167,-0.451 -0.129,-0.28 -0.429,-0.518 -0.262,-0.153 0.703,-2.295 m 6.274,8.586 0.054,0.199 0.122,0.194 0.735,0.063 1.058,0.126 2.704,0.311 1.204,0.167 -0.572,2.429 -0.347,1.154 0.447,2.055 0.193,0.505 -0.041,1.127 -1.108,0.243 -1.172,0.473 -1.32,-0.112 -0.587,-0.46 0.135,-1.09 0.398,-1.357 -0.212,-2.727 -1.168,-1.452 -0.161,-0.175 -0.788,-0.185 -0.664,0.586 -0.086,-0.153 -0.159,-0.343 0.753,-0.635 0.393,-0.374 0.189,-0.569 m 1.957,8.934 1.32,0.112 1.172,-0.473 1.108,-0.243 0.036,0.951 0.303,0.473 0.02,0.077 0.246,1.379 -0.587,2.01 0.041,0.13 0.267,0.573 1.031,0.829 -4.358,0.933 -0.504,-2.384 -0.804,0.153 -0.442,-2.132 -0.045,-0.27 1.191,-0.216 -0.226,-1.172 -0.054,-0.753 0.285,0.023 m -0.474,-16.564 2.136,0.545 0.036,0.028 0.068,0.126 -0.014,0.207 -0.675,2.732 -0.514,-0.095 -1.329,1.145 -0.132,0.986 -0.253,1.073 -0.571,-0.077 -2.313,-1.185 0.154,-1.568 -0.154,-0.036 0.271,-1.686 0.153,-0.68 1.514,0.333 1.375,-0.712 0.248,-1.136 m -5.977,11.511 1.357,-0.505 -0.328,-0.861 0.545,-0.207 1.122,-0.329 0.708,0.095 0.664,-0.586 0.788,0.185 0.161,0.175 1.168,1.452 0.212,2.727 -0.398,1.357 -0.135,1.09 -3.56,0.694 -0.546,-2.538 -1.55,-0.342 -0.306,-0.127 -0.036,-0.048 -0.091,-0.753 0.051,-0.523 0.174,-0.956 m 9.131,-19.024 0.055,1.343 -0.014,1.618 0.361,0.14 -0.32,0.798 -0.239,0.189 -0.93,-0.348 -0.359,1.682 -0.297,1.252 -1.127,-0.27 -0.166,-0.162 -0.78,-0.96 -0.06,-0.559 -1.428,-0.333 -0.523,-2.934 5.827,-1.456 m 1.488,11.002 -0.248,5.201 -1.204,-0.167 -2.704,-0.311 -1.058,-0.126 -0.735,-0.063 -0.122,-0.194 -0.054,-0.199 0.235,-0.96 0.571,0.077 0.253,-1.073 0.132,-0.986 1.329,-1.145 0.514,0.095 0.63,0.116 1.181,-0.419 1.28,0.154 m -6.792,-6.612 1.428,0.333 0.06,0.559 0.78,0.96 0.166,0.162 -0.284,1.109 -0.248,1.136 -1.375,0.712 -1.514,-0.333 -1.627,-2.011 0.405,-1.14 0.691,-1.172 1.153,-0.491 0.365,0.176 m -6.17,-1.555 0.563,3.722 -0.703,2.295 -0.149,-0.126 -0.27,-0.505 -0.459,-2.691 -0.33,-2.114 0.014,-0.221 1.334,-0.36 m 5.647,-1.379 0.523,2.934 -0.365,-0.176 -1.153,0.491 -0.691,1.172 -0.405,1.14 -2.993,-0.46 -0.563,-3.722 5.647,-1.379 m 5.827,-1.456 3.476,-0.965 -0.217,0.446 -0.013,3.165 0.076,0.215 0.339,0.334 0.414,0.509 0.226,0.28 0.04,0.064 0.234,0.378 -0.121,1.122 -0.104,0.289 0,0.004 -0.045,0.077 -0.446,0.784 -0.037,0.058 -0.053,0.077 -0.126,0.163 -0.023,0.035 -0.289,0.212 -0.193,-0.018 -0.604,0.784 -1.014,-0.829 -0.428,-2.614 0.392,-1.055 -1.082,-0.414 -0.361,-0.14 0.014,-1.618 -0.055,-1.343 m 0.402,3.101 1.082,0.414 -0.392,1.055 0.428,2.614 1.014,0.829 -0.631,0.397 -0.624,0.388 -0.047,0.045 -0.028,0.022 -0.302,0.545 -0.031,0.131 0,0.081 0.296,1.032 0.168,0.226 0.153,0.122 -1.28,-0.154 -1.181,0.419 -0.63,-0.116 0.675,-2.732 0.014,-0.207 -0.068,-0.126 -0.036,-0.028 -2.136,-0.545 0.284,-1.109 1.127,0.27 0.297,-1.252 0.359,-1.682 0.93,0.348 0.239,-0.189 0.32,-0.798 m -3.082,20.976 -0.285,-0.023 0.054,0.753 0.226,1.172 -1.191,0.216 0.045,0.27 0.442,2.132 0.804,-0.153 0.504,2.384 -0.857,0.18 -2.235,0.483 -0.69,-2.47 -0.964,-4.71 3.56,-0.694 0.587,0.46 m -7.676,-11.566 0.487,-0.054 2.203,-0.865 0.541,0.333 0.41,1.073 2.313,1.185 -0.235,0.96 -0.189,0.569 -0.393,0.374 -0.753,0.635 0.159,0.343 0.086,0.153 -0.708,-0.095 -1.122,0.329 -0.545,0.207 0.328,0.861 -1.357,0.505 -0.334,-0.649 -0.157,-0.284 -1.075,-2.538 -0.02,-0.044 0,-0.004 -0.022,-0.429 0,-0.42 0.005,-1.067 0.378,-1.078" />
</svg>
