<?xml version="1.0" encoding="UTF-8" standalone="no"?>
<!-- Created with Inkscape (http://www.inkscape.org/) -->

<svg
   xmlns:dc="http://purl.org/dc/elements/1.1/"
   xmlns:cc="http://creativecommons.org/ns#"
   xmlns:rdf="http://www.w3.org/1999/02/22-rdf-syntax-ns#"
   xmlns:svg="http://www.w3.org/2000/svg"
   xmlns="http://www.w3.org/2000/svg"
   xmlns:sodipodi="http://sodipodi.sourceforge.net/DTD/sodipodi-0.dtd"
   xmlns:inkscape="http://www.inkscape.org/namespaces/inkscape"
   version="1.0"
   width="555.22198"
   height="351.66797"
   id="svg2"
   inkscape:version="0.48.1 r9760"
   sodipodi:docname="virginia.svg">
  <metadata
     id="metadata57">
    <rdf:RDF>
      <cc:Work
         rdf:about="">
        <dc:format>image/svg+xml</dc:format>
        <dc:type
           rdf:resource="http://purl.org/dc/dcmitype/StillImage" />
      </cc:Work>
    </rdf:RDF>
  </metadata>
  <defs
     id="defs55" />
  <sodipodi:namedview
     pagecolor="#ffffff"
     bordercolor="#666666"
     borderopacity="1"
     objecttolerance="10"
     gridtolerance="10"
     guidetolerance="10"
     inkscape:pageopacity="0"
     inkscape:pageshadow="2"
     inkscape:window-width="640"
     inkscape:window-height="480"
     id="namedview53"
     showgrid="false"
     inkscape:zoom="0.83029853"
     inkscape:cx="277.61099"
     inkscape:cy="175.83398"
     inkscape:window-x="0"
     inkscape:window-y="25"
     inkscape:window-maximized="0"
     inkscape:current-layer="svg2" />
  <path
     id="51159"
     style="font-size:12px;fill:#0000ff;fill-rule:nonzero;stroke:#000000;stroke-opacity:1;stroke-width:0.1;stroke-miterlimit:4;stroke-dasharray:none;stroke-linecap:butt;marker-start:none;stroke-linejoin:bevel"
     d="m 484.33498,154.909 -0.018,-0.1 0.486,-0.626 0.045,0.023 0.807,0.676 0.573,0.603 0.217,0.036 1.166,0.181 1.586,1.366 -1.203,0.87 -1.506,-0.806 -2.153,-2.223 m -11.394,-5.944 0.896,0.91 0.614,0.965 0.851,1.103 0.091,0.09 0.157,0.055 0.134,0.017 0.917,-0.067 0.27,0.505 -0.806,0.253 -0.159,-0.082 -0.472,-0.144 -0.92,0.238 -0.536,0.186 -0.758,0.5 -0.897,0.676 -1.892,-2.565 0.567,0.036 1.032,-1.568 0.911,-1.108 m 10.704,12.051 0.762,0.221 2.064,0.005 0.753,0.5 0.63,0.54 -1.383,1.47 -3.016,-0.888 -0.626,-0.477 0.816,-1.371 m -5.238,0 0.122,1.872 -0.613,-0.236 -1.212,-0.202 -1.244,0.036 -0.009,0.063 -0.032,0.068 -0.076,0.063 -0.167,0.044 -0.081,0.005 -0.857,-0.154 -0.108,-0.094 -1.086,-0.996 0.572,-2.186 0.492,0.077 0.794,0.459 0.261,0.275 1.528,0.924 1.716,-0.018 m -9.049,-12.209 1.266,-1.6 0.479,0.356 0.819,0.815 0.203,0.361 0.059,0.058 0.135,0.095 0.427,0.122 0.195,-0.049 -0.911,1.108 -1.032,1.568 -0.567,-0.036 -1.282,-1.013 0.209,-1.785 m 1.6,9.659 2.658,0.833 -0.572,2.186 -0.661,0.888 -2.76,-0.888 1.335,-3.019 m 26.552,-5.229 3.672,-1.249 -0.347,0.984 -0.789,1.297 -0.279,0.055 -0.082,0.058 -0.026,0.032 -0.032,0.035 -0.063,0.077 -0.04,0.064 -0.041,0.063 -0.037,0.058 -0.139,0.289 -0.18,0.476 -0.298,1.362 -0.035,0.248 -0.258,2.872 0.041,0.112 -0.514,0.23 -0.883,0.068 -0.068,-0.046 -0.041,-0.095 0.014,-0.031 0.059,-0.041 0.081,-0.135 -0.053,-0.523 -0.569,-0.23 -0.975,0.29 -0.058,-0.109 -0.012,-0.068 0.062,-0.495 0.091,-0.321 0.672,-2.001 0.468,-0.689 0.162,-0.217 0.047,-0.094 0.17,-0.506 0.008,-0.157 -0.058,-1.018 0.33,-0.645 m -14.055,9.627 3.016,0.888 0.613,1.925 -0.961,-0.145 -3.163,-0.32 0.048,-0.807 0.447,-1.541 m -5.048,-1.848 1.001,0.005 1.51,0.833 0.527,0.19 1.172,0.325 0.212,0.018 0.626,0.477 -0.447,1.541 -1.864,-0.504 0.126,-0.794 -0.05,-0.415 -0.333,-0.5 -0.293,-0.188 -0.108,-0.032 -0.221,0.103 -0.581,0.283 -0.56,0.502 -0.595,0.028 -0.122,-1.872 m 10.16,-6.417 0.171,0.13 1.028,0.523 0.266,0.05 0.329,0.017 0.081,0.014 0.09,0.018 0.022,0.004 0.848,0.288 0.346,0.222 0.005,0.743 -0.121,1.943 -0.177,0.175 -2.258,-1.658 -1.586,-1.366 0.956,-1.103 m -5.35,-2.132 0.514,0.748 0.964,0.354 0.383,0.042 0.96,-0.112 1.131,-0.181 0.132,0.018 0.036,0.009 0.883,0.766 0.095,0.077 0.202,0.316 0.05,0.095 -0.956,1.103 -1.166,-0.181 -0.217,-0.036 -0.573,-0.603 -0.807,-0.676 -0.045,-0.023 -0.486,0.626 0.018,0.1 -1.452,-0.829 0.334,-1.613 m -4.448,0.806 -0.374,0.135 -0.51,-0.289 -0.064,-0.283 0.172,-0.127 0.126,-0.084 0.253,0.044 0.189,0.04 0.172,0.172 0.036,0.392 m -9.758,4.665 0.221,-0.023 0.234,0.1 0.063,0.158 -0.068,0.391 -0.126,0.181 -0.405,0.116 -0.122,-0.004 -0.086,-0.139 -0.018,-0.108 0.032,-0.249 0.058,-0.188 0.217,-0.235 m -4.769,-4.593 0.428,0.346 0.149,0.236 0.004,0.198 -0.541,0.477 -0.248,0.073 -0.04,-0.036 -0.086,-0.564 0.045,-0.216 0.239,-0.469 0.05,-0.045 m 5.057,-10.52 0.212,0.015 0.419,0.207 -0.419,1.014 -0.329,-0.257 -0.135,-0.523 0.018,-0.208 0.084,-0.266 0.15,0.018 m 8.01352,3.9875 -0.14453,0.0234 -0.0703,0.13671 -0.0742,0.12891 0.22265,0.0898 0.0977,0.0898 0.0586,-0.043 0.0625,-0.0352 0.0352,-0.0156 0.0586,0.0859 0.004,0.0703 0.11719,0.0274 0.16406,0.0664 0.0703,-0.19922 -0.0586,-0.14062 -0.13281,-0.0352 -0.0664,-0.0312 0,-0.0742 -0.0742,-0.043 -0.26953,-0.10156 z m -0.28852,0.2865 0.221,0.093 0.09,0.077 0.081,0.069 0.009,0.391 -0.491,0.496 -0.266,-0.117 -0.076,-0.216 0.021,-0.139 0.199,-0.447 0.203,-0.212 0.009,0.005 m 3.038,-1.763 -0.604,0.293 -0.343,-0.447 0.343,-0.279 0.072,0.05 0.532,0.383 m -2.082,-2.163 2.347,1.176 -0.892,0.537 0.023,0.017 -0.343,0.279 0.343,0.447 0.604,-0.293 0.487,0.352 -0.234,0.545 0.563,0.113 0.617,-0.281 -0.243,1.124 -0.257,0.995 -0.884,0.135 -3.627,-2.05 1.496,-3.096 z m 0.234,2.506 -0.121,0.211 0,0.158 0.31,0.217 0.347,-0.059 0.238,-0.149 -0.053,-0.383 -0.068,-0.099 -0.315,-0.049 -0.338,0.153 m 3.204,-0.311 0.072,0.64 0.005,0.057 -0.617,0.281 -0.563,-0.113 0.234,-0.545 0.104,-0.204 0.765,-0.116 m 9.339,15.684 0.821,-0.455 0.604,0.127 0.062,0.022 0.086,0.062 0.231,0.302 0.217,0.411 0.174,0.536 0.059,0.216 0,0.154 -0.19,0.784 -0.341,-0.177 -1.127,-0.598 -0.596,-1.384 m 0,0 0.596,1.384 -0.073,0 -0.163,0.329 -0.045,0.185 0.136,0.13 0.595,0.501 0.428,0.298 0.045,0.049 -0.117,0.072 -0.621,0.356 -0.664,0.301 -1.96,-1.441 -0.672,-0.541 0.419,-0.483 0.081,-0.176 0.024,-0.108 0,-0.062 -0.051,-0.122 -0.262,-0.275 -0.04,-0.108 -0.041,-0.973 2.385,0.684 m -3.109,-2.74 1.405,1.338 0.389,0.317 0.098,0.036 1.168,-0.06 1.289,0.221 0.031,0.045 -0.027,0.096 -0.237,0.243 -0.186,0.049 -0.821,0.455 -2.385,-0.684 -1.293,-1.398 0.569,-0.658 m 0.346,-0.374 1.203,-0.87 2.258,1.658 0.474,0.523 0.122,0.154 0.004,0.059 -0.807,0.211 -1.411,-0.447 -0.559,-0.315 -1.284,-0.973 m -5.602,-0.18 0.108,-0.095 0.238,0.158 0.974,1.379 1.835,0.626 1.456,1.01 0.266,0.406 0.017,0.045 -0.017,0.383 -0.045,0.072 -0.753,-0.5 -2.064,-0.005 -0.762,-0.221 -0.581,-0.31 -1.285,-0.488 -0.381,-0.166 -0.367,-0.663 1.361,-1.631 m 0,0 0.915,-1.155 0.685,0.993 0.415,0.514 0.716,0.428 0.424,-0.082 0.47,-0.189 0.383,-0.037 0.133,0.082 0.461,0.464 0.085,0.194 1.293,1.398 0.041,0.973 0.04,0.108 0.262,0.275 0.051,0.122 0,0.062 -0.024,0.108 -0.081,0.176 -0.419,0.483 -0.388,-0.393 -0.63,-0.54 0.045,-0.072 0.017,-0.383 -0.017,-0.045 -0.266,-0.406 -1.456,-1.01 -1.835,-0.626 -0.974,-1.379 -0.238,-0.158 -0.108,0.095 m 0.491,-3.678 1.452,0.829 2.153,2.223 1.16,1.18 -0.569,0.658 -0.085,-0.194 -0.461,-0.464 -0.133,-0.082 -0.383,0.037 -0.47,0.189 -0.424,0.082 -0.716,-0.428 -0.415,-0.514 -0.685,-0.993 -0.928,-2.266 0.504,-0.257 m -1.739,9.821 -1.046,0.271 -0.622,-0.736 -0.352,-0.576 0.56,-0.502 0.581,-0.283 0.221,-0.103 0.108,0.032 0.293,0.188 0.333,0.5 0.05,0.415 -0.126,0.794 m -1.086,-10.362 2.321,0.798 0.928,2.266 -0.915,1.155 -1.361,1.631 -3.453,-1.997 2.046,-3.786 0.434,-0.067 m 0.139,-1.379 3.02,0.307 -0.334,1.613 -0.504,0.257 -2.321,-0.798 0.139,-1.379 m -3.11,5.106 0.491,0.126 3.453,1.997 0.367,0.663 0.381,0.166 1.285,0.488 0.581,0.31 -0.816,1.371 -0.212,-0.018 -1.172,-0.325 -0.527,-0.19 -1.51,-0.833 -1.001,-0.005 -1.716,0.018 0.396,-3.768 m -5.459,-0.609 2.543,-0.274 2.916,0.883 -0.396,3.768 -1.528,-0.924 -0.261,-0.275 -0.794,-0.459 -0.492,-0.077 -2.658,-0.833 0.67,-1.809 m -1.112,-1.617 1.807,-0.87 0.897,-0.676 0.758,-0.5 0.536,-0.186 0.92,-0.238 0.472,0.144 0.159,0.082 -1.894,3.587 -2.543,0.274 -1.724,-0.355 0.612,-1.262 m 6.355,-2.497 1.014,0.576 0.51,0.289 0.374,-0.135 0.855,0.333 -2.046,3.786 -0.491,-0.126 -2.916,-0.883 1.894,-3.587 0.806,-0.253 m 0,0 -0.27,-0.505 0.657,-2.068 2.37,0.234 0.569,1.956 -0.139,1.379 -0.434,0.067 -0.855,-0.333 -0.036,-0.392 -0.172,-0.172 -0.189,-0.04 -0.253,-0.044 -0.126,0.084 -0.172,0.127 0.064,0.283 -1.014,-0.576 m -4.971,-7.59 3.177,0.324 -0.347,1.385 0.032,0.139 2.113,2.7 0.383,0.469 -0.657,2.068 -0.917,0.067 -0.134,-0.017 -0.157,-0.055 -0.091,-0.09 -0.851,-1.103 -0.614,-0.965 -0.896,-0.91 -0.195,0.049 -0.427,-0.122 -0.135,-0.095 -0.059,-0.058 -0.203,-0.361 -0.819,-0.815 -0.479,-0.356 0.951,-1.735 0.325,-0.519 m 3.177,0.324 1.407,0.992 3.627,2.05 -0.483,1.885 -2.37,-0.234 -0.383,-0.469 -2.113,-2.7 -0.032,-0.139 0.347,-1.385 z m 1.947,1.822 -0.009,-0.005 -0.203,0.212 -0.199,0.447 -0.021,0.139 0.076,0.216 0.266,0.117 0.491,-0.496 -0.009,-0.391 -0.081,-0.069 0.135,-0.067 0.181,-0.162 0,-0.085 -0.073,-0.046 -0.26,-0.086 -0.145,0.014 -0.058,0.099 -0.091,0.163 z m 0.618,0.26 0.189,0.073 0.085,-0.198 -0.054,-0.131 -0.13,-0.041 -0.181,0.194 0.019,0.091 0.072,0.012 m 2.685,-3.01 0.375,0.306 0.451,0.198 0.265,0.515 -0.765,0.116 -0.104,0.204 -0.487,-0.352 -0.532,-0.383 -0.072,-0.05 -0.023,-0.017 0.892,-0.537 m -6.813,-3.777 0.387,-0.045 2.393,0.839 -0.396,0.626 -0.041,0.108 -0.004,0.059 -0.024,0.162 -0.012,0.117 0.003,0.01 0.069,0.22 0.057,0.076 0.006,0 0.063,0.045 0.639,0.429 0.019,0.008 0.355,0.023 0.483,-0.023 0.469,-0.053 -1.496,3.096 -1.407,-0.992 -3.177,-0.324 1.018,-1.767 0.596,-2.614 m 4.7,5.107 0.338,-0.153 0.315,0.049 0.068,0.099 0.053,0.383 -0.238,0.149 -0.347,0.059 -0.31,-0.217 0,-0.158 0.121,-0.211 m -7.617,-3.794 2.321,1.301 -1.018,1.767 -0.325,0.519 -1.587,-0.452 0.609,-3.135 m -0.609,3.135 1.587,0.452 -0.951,1.735 -1.266,1.6 -1.167,-0.722 0.282,-2.403 1.515,-0.662 m -2.938,-5.128 1.33,0.735 2.217,1.258 -0.609,3.135 -1.515,0.662 -2.366,-0.202 0.276,-0.473 0.112,-0.108 0.303,-0.299 0.152,-0.278 0.15,-0.351 0.036,-0.208 0.027,-2.46 -0.113,-1.411 z m 2.249,2.933 -0.15,-0.018 -0.084,0.266 -0.018,0.208 0.135,0.523 0.329,0.257 0.419,-1.014 -0.419,-0.207 -0.212,-0.015 m -0.826,2.857 -0.282,2.403 -0.66,1.173 -0.297,0.387 -0.418,-0.089 -0.28,0.738 -0.317,1.14 -2.608,-1.613 0.383,-1.303 0.131,-0.406 0.023,-0.036 0.044,-0.071 0.514,-0.487 0.04,0.067 0.041,0.063 0.032,0.005 0.946,-0.892 0.316,-0.699 0.018,-0.09 0.008,-0.492 2.366,0.202 m -0.282,2.403 1.167,0.722 -0.209,1.785 -0.76,2.149 -0.198,0.749 -0.533,-0.01 -0.157,-0.048 -0.752,-0.304 -0.795,-0.409 0.265,-1.285 0.317,-1.14 0.28,-0.738 0.418,0.089 0.297,-0.387 0.66,-1.173 m 0.958,2.507 1.282,1.013 1.892,2.565 -1.807,0.87 -2.127,-2.299 0.76,-2.149 m -0.958,2.898 0.198,-0.749 2.127,2.299 -0.612,1.262 -3.125,-0.649 1.412,-2.163 m -1.412,2.163 3.125,0.649 1.724,0.355 -0.67,1.809 -1.335,3.019 0.028,0.402 -0.014,0.048 -0.05,0.045 -0.063,0.04 -0.537,0.073 -0.467,0.135 -0.23,0.267 -0.032,0.085 -2.683,-3.664 0.379,-0.329 0.136,-0.239 0,-0.118 -0.117,-0.495 0.058,-0.653 0.063,-0.361 0.685,-1.068 z m 2.232,2.285 -0.217,0.235 -0.058,0.188 -0.032,0.249 0.018,0.108 0.086,0.139 0.122,0.004 0.405,-0.116 0.126,-0.181 0.068,-0.391 -0.063,-0.158 -0.234,-0.1 -0.221,0.023 m -7.243,-7.761 1.843,-0.356 2.608,1.613 -0.265,1.285 0.795,0.409 0.752,0.304 0.157,0.048 0.533,0.01 -1.412,2.163 -0.685,1.068 -1.731,-0.992 -1.532,-0.644 -2.077,-0.995 1.014,-3.913 z m 2.474,3.168 -0.05,0.045 -0.239,0.469 -0.045,0.216 0.086,0.564 0.04,0.036 0.248,-0.073 0.541,-0.477 -0.004,-0.198 -0.149,-0.236 -0.428,-0.346" />
</svg>
