<?xml version="1.0" encoding="UTF-8" standalone="no"?>
<!-- Created with Inkscape (http://www.inkscape.org/) -->

<svg
   xmlns:dc="http://purl.org/dc/elements/1.1/"
   xmlns:cc="http://creativecommons.org/ns#"
   xmlns:rdf="http://www.w3.org/1999/02/22-rdf-syntax-ns#"
   xmlns:svg="http://www.w3.org/2000/svg"
   xmlns="http://www.w3.org/2000/svg"
   xmlns:sodipodi="http://sodipodi.sourceforge.net/DTD/sodipodi-0.dtd"
   xmlns:inkscape="http://www.inkscape.org/namespaces/inkscape"
   version="1.0"
   width="555.22198"
   height="351.66797"
   id="svg2"
   inkscape:version="0.48.1 r9760"
   sodipodi:docname="washington.svg">
  <metadata
     id="metadata13">
    <rdf:RDF>
      <cc:Work
         rdf:about="">
        <dc:format>image/svg+xml</dc:format>
        <dc:type
           rdf:resource="http://purl.org/dc/dcmitype/StillImage" />
      </cc:Work>
    </rdf:RDF>
  </metadata>
  <defs
     id="defs11" />
  <sodipodi:namedview
     pagecolor="#ffffff"
     bordercolor="#666666"
     borderopacity="1"
     objecttolerance="10"
     gridtolerance="10"
     guidetolerance="10"
     inkscape:pageopacity="0"
     inkscape:pageshadow="2"
     inkscape:window-width="640"
     inkscape:window-height="480"
     id="namedview9"
     showgrid="false"
     inkscape:zoom="0.83029853"
     inkscape:cx="277.61099"
     inkscape:cy="175.83398"
     inkscape:window-x="0"
     inkscape:window-y="25"
     inkscape:window-maximized="0"
     inkscape:current-layer="svg2" />
  <path
     id="11001"
     style="font-size:12px;fill:#0000ff;fill-rule:nonzero;stroke:#000000;stroke-opacity:1;stroke-width:0.1;stroke-miterlimit:4;stroke-dasharray:none;stroke-linecap:butt;marker-start:none;stroke-linejoin:bevel"
     d="m 480.32698,144.349 0.551,-0.897 0.513,0.266 1.173,0.604 -1.074,1.686 -0.072,-0.64 -0.265,-0.515 -0.451,-0.198 -0.375,-0.306 m 8.605,6.41 0.473,1.234 -0.527,1.149 -3.705,-0.748 -0.395,-0.532 -0.515,-0.896 0.004,-0.24 0.536,-1.644 0.087,-0.077 0.346,-0.049 0.185,-0.015 0.397,0.054 3.114,1.764 m -7.68,-3.57 0.596,1.072 0.157,-0.338 0.026,-0.1 0.046,-0.058 0.13,-0.089 0.317,-0.149 1.027,-0.177 1.221,0.285 0.039,0.072 0.245,0.685 0.5,0.149 0.153,-0.005 0.109,0.459 -0.397,-0.054 -0.185,0.015 -0.346,0.049 -0.087,0.077 -0.536,1.644 -0.004,0.24 0.515,0.896 0.052,0.329 0,0.167 -0.022,0.1 -3.867,-0.618 -0.104,-0.023 -0.378,-0.184 -0.217,-0.374 -0.27,-0.838 0.026,-0.411 0.154,-0.554 0.406,-0.731 0.437,-0.541 0.257,-0.995 m 0.829,-5.814 0.536,0.269 1.695,1.236 0.37,0.825 0.365,2.149 0.662,2.682 -0.153,0.005 -0.5,-0.149 -0.245,-0.685 -0.039,-0.072 -1.221,-0.285 -1.027,0.177 -0.317,0.149 -0.13,0.089 -0.046,0.058 -0.026,0.1 -0.157,0.338 -0.596,-1.072 0.243,-1.124 -0.005,-0.057 1.074,-1.686 -1.173,-0.604 0.69,-2.343 m -3.307,-2.276 -0.123,0.134 -0.018,0.069 0.009,0.03 0.198,0.258 0.474,0.486 2.068,1.407 0.113,0.036 0.424,-0.023 0.162,-0.121 -0.69,2.343 -0.513,-0.266 -0.551,0.897 -2.347,-1.176 -0.469,0.053 -0.483,0.023 -0.355,-0.023 -0.019,-0.008 -0.639,-0.429 -0.063,-0.045 -0.006,0 -0.057,-0.076 -0.069,-0.22 -0.003,-0.01 0.012,-0.117 0.024,-0.162 0.004,-0.059 0.041,-0.108 0.396,-0.626 2.48,-2.267" />
</svg>
