<?xml version="1.0" encoding="UTF-8" standalone="no"?>
<!-- Created with Inkscape (http://www.inkscape.org/) -->

<svg
   xmlns:dc="http://purl.org/dc/elements/1.1/"
   xmlns:cc="http://creativecommons.org/ns#"
   xmlns:rdf="http://www.w3.org/1999/02/22-rdf-syntax-ns#"
   xmlns:svg="http://www.w3.org/2000/svg"
   xmlns="http://www.w3.org/2000/svg"
   xmlns:sodipodi="http://sodipodi.sourceforge.net/DTD/sodipodi-0.dtd"
   xmlns:inkscape="http://www.inkscape.org/namespaces/inkscape"
   version="1.0"
   width="555.22198"
   height="351.66797"
   id="svg2"
   inkscape:version="0.48.1 r9760"
   sodipodi:docname="westernnewyork.svg">
  <metadata
     id="metadata15">
    <rdf:RDF>
      <cc:Work
         rdf:about="">
        <dc:format>image/svg+xml</dc:format>
        <dc:type
           rdf:resource="http://purl.org/dc/dcmitype/StillImage" />
      </cc:Work>
    </rdf:RDF>
  </metadata>
  <defs
     id="defs13" />
  <sodipodi:namedview
     pagecolor="#ffffff"
     bordercolor="#666666"
     borderopacity="1"
     objecttolerance="10"
     gridtolerance="10"
     guidetolerance="10"
     inkscape:pageopacity="0"
     inkscape:pageshadow="2"
     inkscape:window-width="640"
     inkscape:window-height="480"
     id="namedview11"
     showgrid="false"
     inkscape:zoom="0.83029853"
     inkscape:cx="277.61099"
     inkscape:cy="175.83398"
     inkscape:window-x="0"
     inkscape:window-y="25"
     inkscape:window-maximized="0"
     inkscape:current-layer="svg2" />
  <path
     id="36121"
     style="font-size:12px;fill:#0000ff;fill-rule:nonzero;stroke:#000000;stroke-opacity:1;stroke-width:0.1;stroke-miterlimit:4;stroke-dasharray:none;stroke-linecap:butt;marker-start:none;stroke-linejoin:bevel"
     d="m 457.80598,96.686 4.732,-0.829 0.465,2.479 -0.172,0.667 -0.346,0.302 -0.078,0.438 -0.058,0.463 0.013,0.041 0.231,0.108 -2.511,0.478 -1.482,0.077 -0.573,-3.115 -0.235,0.041 -0.189,-1.113 0.203,-0.037 m 3.678,-4.196 -0.614,0.14 -3.195,0.614 -0.5,0.121 -0.555,-3.097 4.323,-0.734 0.541,2.956 m -4.309,0.875 0.109,0.509 -0.213,0.113 -0.978,0.32 -3.203,0.658 -0.768,0.144 -0.298,-0.058 -0.107,-0.19 -0.433,-2.177 2.05,-1.1 1.745,-0.847 0.771,-0.302 0.527,-0.167 0.059,-0.004 0.184,0.004 0.555,3.097 m 4.309,-0.875 1.163,1.695 -0.109,1.672 -4.732,0.829 -0.522,-2.812 -0.109,-0.509 0.5,-0.121 3.195,-0.614 0.614,-0.14 m -4.2,1.384 0.522,2.812 -0.203,0.037 0.189,1.113 0.235,-0.041 0.573,3.115 -1.203,0.55 -1.037,0.555 -1.079,0.716 -0.229,0.094 -0.23,0.059 -0.554,-0.284 -1.232,-0.694 -0.778,-0.275 0.018,-0.271 0.117,-0.334 0.405,-1.067 0.253,-0.212 0.622,-0.514 0.231,-0.108 0.386,-0.505 0.109,-0.203 0,-0.103 -0.338,-0.748 -0.528,-0.956 -0.122,-0.158 -0.143,-0.09 -0.398,-0.072 -0.405,-0.171 -0.099,-0.108 -0.077,-0.28 -0.167,-0.622 0.768,-0.144 3.203,-0.658 0.978,-0.32 0.213,-0.113 m -4.248,8.032 1.236,6.878 -5.156,0.914 -0.144,0.027 -1.28,0.221 -0.297,-1.689 -0.248,-1.43 -0.055,-0.342 0.379,-0.261 0.608,-0.514 0.821,-0.772 0.762,-0.76 0.189,-0.262 0.162,-0.357 0.419,-0.541 0.925,-0.729 0.901,-0.658 0.778,0.275 m 5.564,-0.996 1.482,-0.077 1.259,6.648 -2.711,0.499 -2.604,0.506 -0.415,0.072 -1.339,0.226 -1.236,-6.878 1.232,0.694 0.554,0.284 0.23,-0.059 0.229,-0.094 1.079,-0.716 1.037,-0.555 1.203,-0.55" />
</svg>
