<?xml version="1.0" encoding="UTF-8" standalone="no"?>
<!-- Created with Inkscape (http://www.inkscape.org/) -->

<svg
   xmlns:dc="http://purl.org/dc/elements/1.1/"
   xmlns:cc="http://creativecommons.org/ns#"
   xmlns:rdf="http://www.w3.org/1999/02/22-rdf-syntax-ns#"
   xmlns:svg="http://www.w3.org/2000/svg"
   xmlns="http://www.w3.org/2000/svg"
   xmlns:sodipodi="http://sodipodi.sourceforge.net/DTD/sodipodi-0.dtd"
   xmlns:inkscape="http://www.inkscape.org/namespaces/inkscape"
   version="1.0"
   width="555.22198"
   height="351.66797"
   id="svg2"
   inkscape:version="0.48.1 r9760"
   sodipodi:docname="westernlouisiana.svg">
  <metadata
     id="metadata47">
    <rdf:RDF>
      <cc:Work
         rdf:about="">
        <dc:format>image/svg+xml</dc:format>
        <dc:type
           rdf:resource="http://purl.org/dc/dcmitype/StillImage" />
      </cc:Work>
    </rdf:RDF>
  </metadata>
  <defs
     id="defs45" />
  <sodipodi:namedview
     pagecolor="#ffffff"
     bordercolor="#666666"
     borderopacity="1"
     objecttolerance="10"
     gridtolerance="10"
     guidetolerance="10"
     inkscape:pageopacity="0"
     inkscape:pageshadow="2"
     inkscape:window-width="640"
     inkscape:window-height="480"
     id="namedview43"
     showgrid="false"
     inkscape:zoom="0.83029853"
     inkscape:cx="277.61099"
     inkscape:cy="175.83398"
     inkscape:window-x="0"
     inkscape:window-y="25"
     inkscape:window-maximized="0"
     inkscape:current-layer="svg2" />
  <path
     id="22113"
     style="font-size:12px;fill:#0000ff;fill-rule:nonzero;stroke:#000000;stroke-opacity:1;stroke-width:0.1;stroke-miterlimit:4;stroke-dasharray:none;stroke-linecap:butt;marker-start:none;stroke-linejoin:bevel"
     d="m 338.56598,277.345 0.069,2.961 -0.718,0.324 -0.229,0.131 -0.554,0.379 -0.402,0.377 -0.045,0.253 0.207,0.46 0.253,0.492 0.207,0.031 1.073,0.031 -0.464,0.42 -0.06,-0.032 -0.671,0 -0.58,0.086 -0.009,0 -0.596,0.269 -0.429,0.317 -0.293,0.081 -0.026,0.004 -0.072,0.004 -0.199,0.014 -0.054,0 -2.817,-0.369 -0.649,-0.091 -0.018,0 -0.017,-1.496 -0.167,-4.408 -1.375,0.058 1.239,-0.751 0.122,0.036 2.132,0.436 0.198,-0.067 0.217,-0.1 0.23,-0.161 0.874,-0.997 0.83,0.041 0.927,0.306 0.712,0.496 1.154,0.465 m -2.114,-3.318 1.673,-0.969 0.58,3.781 -0.139,0.506 -1.154,-0.465 -0.712,-0.496 -0.927,-0.306 -0.83,-0.041 1.509,-2.01 m 3.326,-7.225 0.164,0.127 0.426,0.725 0.393,0.969 0.05,0.433 -0.054,1.753 -0.122,0.474 0.446,0.612 0.474,0.676 -1.488,0.072 -0.085,-0.067 -0.558,-0.199 -0.668,0.293 -0.631,0.388 -1.673,0.969 0,-0.284 -0.451,-1.478 -0.783,-0.527 -2.759,0.103 0.353,-0.585 0.116,-0.131 0.369,-0.068 1.695,-0.063 0.464,-0.401 0.46,-1.393 -0.013,-0.496 -0.028,-0.703 -0.491,-1.023 4.394,-0.176 m -8.86,5.085 1.541,-0.046 2.759,-0.103 0.783,0.527 0.451,1.478 0,0.284 -1.509,2.01 -0.874,0.997 -0.23,0.161 -0.217,0.1 -0.198,0.067 -2.132,-0.436 -0.122,-0.036 -0.252,-5.003 m -0.987,5.754 1.375,-0.058 0.167,4.408 0.017,1.496 -0.406,-0.103 -1.031,-0.342 -0.934,-0.406 -0.513,-0.221 -0.789,-0.374 -0.373,-0.15 -0.015,-0.003 -1.288,-0.415 -1.006,-0.244 -0.564,-0.072 -0.45,0.004 -2.326,0.181 -0.708,0.094 -1.08,0.163 -0.542,0.084 -0.648,0.155 -0.033,0.013 -0.062,0.023 -0.177,0.058 -0.364,0.194 -0.221,0.149 -0.207,0.176 -0.1,-2.875 1.285,-1.791 0.017,-0.018 6.617,-0.184 0.005,0.19 1.474,-0.05 2.88,-0.082 m -4.525,-4.565 0.009,0.297 1.162,1.501 1.177,1.308 0.274,0.333 0.199,0.572 -1.19,0.068 0.014,0.568 -1.474,0.05 -0.005,-0.19 -6.617,0.184 -0.017,0.018 0.008,-2.491 -0.341,-2.025 2.852,-0.076 -0.031,-1.132 1.126,-0.027 0.027,1.127 2.827,-0.085 m 5.512,-1.189 0.252,5.003 -1.239,0.751 -2.88,0.082 -0.014,-0.568 1.19,-0.068 -0.199,-0.572 -0.274,-0.333 -1.177,-1.308 -1.162,-1.501 -0.009,-0.297 -0.009,-0.267 1.293,-0.224 1.767,-0.271 0.883,-0.464 1.597,-0.049 -0.019,0.086 m -4.012,-4.986 0.055,1.01 0.054,2.596 -0.753,0.021 -0.924,0.037 0.059,2.244 0.009,0.267 -2.827,0.085 -0.027,-1.127 -1.126,0.027 0.031,1.132 -2.852,0.076 0.012,-0.012 0.425,-0.357 0.045,-0.112 0.004,-0.067 -0.157,-0.804 -0.311,-0.375 -0.032,-0.034 0,-0.005 0.126,-0.451 1.582,-2.979 0.199,-0.865 1.514,-0.226 3.178,-0.085 1.716,0.004 m 1.709,-0.208 2.492,-0.166 0.036,1.218 0.018,0.481 0.095,2.353 0.148,0.135 0.024,0.059 -0.321,0.78 -0.099,0.175 -0.071,0.073 -1.597,0.049 -0.883,0.464 -1.767,0.271 -1.293,0.224 -0.059,-2.244 0.924,-0.037 0.753,-0.021 -0.054,-2.596 -0.055,-1.01 1.709,-0.208 m 2.492,-0.166 2.353,-1.441 1.117,0.423 0.807,1.469 0.491,1.023 0.028,0.703 0.013,0.496 -0.46,1.393 -0.464,0.401 -1.695,0.063 -0.369,0.068 -0.116,0.131 -0.353,0.585 -1.541,0.046 0.019,-0.086 0.071,-0.073 0.099,-0.175 0.321,-0.78 -0.024,-0.059 -0.148,-0.135 -0.095,-2.353 -0.018,-0.481 -0.036,-1.218 m -7.229,-5.809 2.803,0.144 0.942,0.252 0.19,0.09 0.577,0.82 0.126,3.107 0.099,1.562 -1.709,0.208 -1.716,-0.004 -3.178,0.085 -1.514,0.226 -0.041,-4.088 -0.027,-0.022 0.054,-0.704 0.127,-0.401 1.568,-1.227 1.699,-0.048 m 5.611,-2.16 0.163,0.815 0.149,0.664 0.075,0.054 0.334,0.117 0.293,-0.04 3.574,-1.014 1.167,-0.299 1.276,1.791 -0.699,0.446 -0.684,-0.321 -0.046,-0.008 -0.076,0.031 -0.1,0.086 0.091,2.461 0.266,1.799 -0.695,0.369 -1.117,-0.423 -2.353,1.441 -2.492,0.166 -0.099,-1.562 -0.126,-3.107 -0.577,-0.82 -0.19,-0.09 -0.942,-0.252 2.808,-2.304 m 7.031,2.088 0.871,0.09 0,0.432 0.197,0.803 0.05,0.053 0.523,0.033 0.212,-0.126 -0.036,-0.086 -0.132,-0.159 -0.107,-0.261 0.076,-0.198 0.127,-0.13 0.193,-0.034 0.226,0.056 0.612,0.302 0.248,0.343 0.249,0.157 0.522,0.139 0.37,0.051 0.056,-0.014 0.201,0.104 0.127,0.152 -0.294,1.493 -0.054,0.188 -0.081,0.194 -0.274,0.343 -0.624,2.231 -4.394,0.176 -0.807,-1.469 0.695,-0.369 -0.266,-1.799 -0.091,-2.461 0.1,-0.086 0.076,-0.031 0.046,0.008 0.684,0.321 0.699,-0.446 m 5.697,-5.639 1.817,0.172 -0.173,0.296 -0.008,0.01 -1.176,2.362 -0.027,0.053 -0.041,0.087 -0.004,0.009 -0.41,3.361 -0.266,1.389 -0.267,2.015 -0.265,0.387 0.032,-0.311 -0.753,-0.609 0.081,-0.194 0.054,-0.188 0.294,-1.493 -0.127,-0.152 -0.201,-0.104 -0.056,0.014 -0.37,-0.051 -0.522,-0.139 -0.249,-0.157 -0.248,-0.343 -0.35,-0.491 -0.037,-0.118 -0.05,-1.957 0.059,-0.368 0.41,-1.664 0.073,-0.126 1.18,-1.42 0.089,-0.081 1.511,-0.189 m -5.124,-2.033 1.238,-0.626 0.158,0.049 0.276,0.176 0.392,0.397 0.261,0.401 0.162,0.207 0.52,-0.144 0.278,-0.203 0.399,-0.441 0.197,-0.334 0.017,-0.108 0.55,0.261 0.266,0.735 0.41,1.663 -1.511,0.189 -0.089,0.081 -1.18,1.42 -0.073,0.126 -0.41,1.664 -0.059,0.368 0.05,1.957 0.037,0.118 0.35,0.491 -0.612,-0.302 -0.226,-0.056 -0.193,0.034 -0.127,0.13 -0.076,0.198 0.107,0.261 0.132,0.159 0.036,0.086 -0.212,0.126 -0.523,-0.033 -0.05,-0.053 -0.197,-0.803 0,-0.432 -0.298,-7.762 m -3.349,0.13 3.349,-0.13 0.298,7.762 -0.871,-0.09 -1.276,-1.791 -0.476,-0.138 -0.501,-0.55 -0.519,-0.722 -0.36,-0.995 -0.126,-1.633 0.482,-1.713 m -7.121,3.079 3.808,-0.139 0.041,-0.523 -0.014,-0.609 2.804,-0.095 0.126,1.633 0.36,0.995 0.519,0.722 0.501,0.55 0.476,0.138 -1.167,0.299 -3.574,1.014 -0.293,0.04 -0.334,-0.117 -0.075,-0.054 -0.149,-0.664 -0.163,-0.815 -2.866,-2.375 m -2.519,-5.607 2.716,-0.076 0.393,0.726 0.231,0.833 0.072,0.956 -0.019,0.158 -0.198,0.905 -0.676,2.105 2.866,2.375 -2.808,2.304 -2.803,-0.144 -0.072,-2.245 -1.104,0.032 -0.082,-2.272 -1.127,0.027 -0.036,-1.686 0.91,-1.149 0.06,0.427 0.319,0.113 0.438,0 0.455,-0.206 1.014,-1.2 0.059,-0.748 -0.005,-0.058 -0.208,-0.65 -0.265,-0.4 -0.13,-0.127 m -7.424,4.125 4.777,-0.127 0.036,1.686 1.127,-0.027 0.082,2.272 1.104,-0.032 0.072,2.245 -1.699,0.048 -1.568,1.227 -0.127,0.401 -0.054,0.704 0.027,0.022 -0.513,0.135 -0.114,-0.667 -0.076,-0.423 -0.329,-1.434 -1.01,-1.465 -1.185,-1.245 -0.55,-3.32 m 2.755,-5.147 0.724,0.545 0.419,1.383 0.69,1.074 0.117,0.144 0.982,0.725 -0.91,1.149 -4.777,0.127 -1.537,-1.717 -0.351,-2.786 0.995,-0.018 0.587,-0.418 0.383,-0.353 0.036,-0.112 -0.022,-0.077 0.03,-0.19 0.542,-0.64 0.058,-0.048 0.159,-0.1 0.206,-0.045 0.189,0.04 0.888,0.298 0.226,0.167 0.252,0.271 0.104,0.157 0.01,0.424 m -2.408,-10.06 -0.117,0.099 -0.018,0.049 0.464,3.209 0.113,0.609 1.356,4.165 1.208,0.644 0.96,1.248 -1.558,0.037 -0.01,-0.424 -0.104,-0.157 -0.252,-0.271 -0.226,-0.167 -0.888,-0.298 -0.189,-0.04 -0.206,0.045 -0.159,0.1 -0.058,0.048 -0.542,0.64 -0.03,0.19 0.022,0.077 -0.036,0.112 -0.383,0.353 -0.587,0.418 -0.995,0.018 -0.14,-6.427 -0.045,-2.434 -0.04,-1.789 2.46,-0.054 m 3.159,-0.068 -0.089,0.469 0,0.194 0.202,0.36 0.378,0.564 0.307,0.32 0.113,1.401 0.071,3.404 0.091,1.13 0.744,-0.013 -0.541,2.267 -0.469,-0.005 -0.96,-1.248 -1.208,-0.644 -1.356,-4.165 -0.113,-0.609 -0.464,-3.209 0.018,-0.049 0.117,-0.099 0.104,0 3.055,-0.068 m 0.33,-0.004 2.713,-0.072 0.127,3.903 0.548,-0.023 0.163,1.068 -0.027,0.635 0.378,1.348 0.015,0.32 -0.956,0.609 -1.474,0.045 -0.744,0.013 -0.091,-1.13 -0.071,-3.404 -0.113,-1.401 -0.307,-0.32 -0.378,-0.564 -0.202,-0.36 0,-0.194 0.089,-0.469 0.33,-0.004 m 5.403,-0.145 2.839,-0.053 0.109,3.293 -1.604,2.313 -3.223,0.103 0.027,-0.635 -0.163,-1.068 -0.548,0.023 -0.127,-3.903 2.69,-0.073 m 9.902,-0.243 -0.098,1.681 0.391,1.109 0.032,0.681 -0.081,0.176 -0.049,0.04 -0.222,0.355 -1.415,1.384 -0.112,0.077 -0.297,0.091 -1.664,0.054 -0.045,-1.127 -1.686,-0.933 -0.352,-0.077 -0.464,-0.054 -0.892,0.026 -0.109,-3.293 7.063,-0.19 m 6.549,-0.266 0.266,-0.015 -0.064,0.277 -1.509,3.096 -0.396,1.113 0.013,0.05 -0.099,0.306 -0.149,0.27 -0.103,0.112 -0.668,0.335 -0.73,0.247 -0.757,0.538 -0.396,0.36 -1.762,-2.736 0.049,-0.04 0.081,-0.176 -0.032,-0.681 -0.391,-1.109 0.098,-1.681 6.549,-0.266 m 2.105,-0.09 -0.333,0.752 -0.393,1.154 -0.05,0.379 -0.166,1.429 -0.324,1.245 -0.103,0.314 -0.308,0.294 -1.208,0.049 -0.473,-0.91 -0.45,-0.145 0.396,-1.113 1.509,-3.096 0.064,-0.277 1.839,-0.075 m 1.063,-0.041 -0.355,0.573 -0.113,0.41 0.018,0.104 0.865,3.92 0.064,0.154 0.012,0.022 0.034,0.04 0.012,0.024 0.023,0.018 0.103,0.09 0.027,0.023 0.343,0.107 0.077,0.176 -3.956,0.523 0.106,-0.576 0.308,-0.294 0.103,-0.314 0.324,-1.245 0.166,-1.429 0.05,-0.379 0.393,-1.154 0.333,-0.752 1.063,-0.041 m 1.11,5.661 -0.245,0.825 0.019,0.207 0,0.014 0.031,0.045 0.046,0.072 0.009,0.023 1.203,1.28 0.076,1.861 -1.257,0.156 0,-0.012 -0.003,-0.28 -0.141,-0.117 -0.064,0 -0.491,0.082 -1.203,0.388 -0.189,0.135 -0.054,0.103 -1.87,0.076 0.049,-2.622 0.128,-1.713 3.956,-0.523 m -4.133,4.858 1.87,-0.076 0.054,-0.103 0.189,-0.135 1.203,-0.388 0.491,-0.082 0.064,0 0.141,0.117 0.003,0.28 0,0.012 1.1,1.285 -2.24,3.269 -1.248,1.65 -0.108,0.194 -1.817,-0.172 -0.41,-1.663 0.708,-4.188 m 0,0 -0.708,4.188 -0.266,-0.735 -0.55,-0.261 -0.017,0.108 -0.197,0.334 -0.399,0.441 -0.278,0.203 -0.52,0.144 -0.162,-0.207 -0.261,-0.401 -0.392,-0.397 -0.276,-0.176 -0.158,-0.049 -0.147,-0.298 -0.257,-0.91 0.572,-0.351 -0.027,-0.334 -0.059,-0.108 -0.239,-0.32 0.866,-0.911 0.49,-1.131 0.943,-1.123 0.406,-0.238 1.685,-0.09 -0.049,2.622 m 0.283,-4.911 -0.106,0.576 -0.128,1.713 -1.685,0.09 -0.406,0.238 -0.943,1.123 -0.49,1.131 -0.866,0.911 -1.586,-1.559 1.19,-3.011 0.396,-0.36 0.757,-0.538 0.73,-0.247 0.668,-0.335 0.103,-0.112 0.149,-0.27 0.099,-0.306 -0.013,-0.05 0.45,0.145 0.473,0.91 1.208,-0.049 m -6.782,-1.524 1.762,2.736 -1.19,3.011 -3.016,0.116 -0.018,-0.558 -1.108,-1.023 -0.063,-0.158 -0.041,-1.038 -0.036,-1.125 1.664,-0.054 0.297,-0.091 0.112,-0.077 1.415,-1.384 0.222,-0.355 m -2.444,5.863 3.016,-0.116 1.586,1.559 0.239,0.32 0.059,0.108 0.027,0.334 -0.572,0.351 0.257,0.91 0.147,0.298 -1.238,0.626 -3.349,0.13 -0.109,-2.821 -0.063,-1.699 m -5.403,1.884 5.466,-0.185 0.109,2.821 -0.482,1.713 -2.804,0.095 0.014,0.609 -0.041,0.523 -3.808,0.139 0.676,-2.105 0.198,-0.905 0.019,-0.158 -0.072,-0.956 -0.231,-0.833 -0.393,-0.726 1.349,-0.032 m 0.275,-3.974 1.685,-0.051 -0.027,-0.557 2.24,-0.079 0.041,1.038 0.063,0.158 1.108,1.023 0.018,0.558 0.063,1.699 -5.466,0.185 0.275,-3.974 m 0.423,-3.977 0.892,-0.026 0.464,0.054 0.352,0.077 1.686,0.933 0.045,1.127 0.036,1.125 -2.24,0.079 0.027,0.557 -1.685,0.051 -1.181,-1.664 1.604,-2.313 m -1.604,2.313 1.181,1.664 -0.275,3.974 -1.349,0.032 -2.716,0.076 -2.642,-1.054 0.541,-2.267 1.474,-0.045 0.956,-0.609 -0.015,-0.32 -0.378,-1.348 3.223,-0.103 m -6.27,4.687 0.469,0.005 2.642,1.054 0.13,0.127 0.265,0.4 0.208,0.65 0.005,0.058 -0.059,0.748 -1.014,1.2 -0.455,0.206 -0.438,0 -0.319,-0.113 -0.06,-0.427 -0.982,-0.725 -0.117,-0.144 -0.69,-1.074 -0.419,-1.383 -0.724,-0.545 1.558,-0.037" />
</svg>
