<?xml version="1.0" encoding="UTF-8" standalone="no"?>
<!-- Created with Inkscape (http://www.inkscape.org/) -->

<svg
   xmlns:dc="http://purl.org/dc/elements/1.1/"
   xmlns:cc="http://creativecommons.org/ns#"
   xmlns:rdf="http://www.w3.org/1999/02/22-rdf-syntax-ns#"
   xmlns:svg="http://www.w3.org/2000/svg"
   xmlns="http://www.w3.org/2000/svg"
   xmlns:sodipodi="http://sodipodi.sourceforge.net/DTD/sodipodi-0.dtd"
   xmlns:inkscape="http://www.inkscape.org/namespaces/inkscape"
   version="1.0"
   width="555.22198"
   height="351.66797"
   id="svg2"
   inkscape:version="0.48.1 r9760"
   sodipodi:docname="westernmichigan.svg">
  <metadata
     id="metadata41">
    <rdf:RDF>
      <cc:Work
         rdf:about="">
        <dc:format>image/svg+xml</dc:format>
        <dc:type
           rdf:resource="http://purl.org/dc/dcmitype/StillImage" />
      </cc:Work>
    </rdf:RDF>
  </metadata>
  <defs
     id="defs39" />
  <sodipodi:namedview
     pagecolor="#ffffff"
     bordercolor="#666666"
     borderopacity="1"
     objecttolerance="10"
     gridtolerance="10"
     guidetolerance="10"
     inkscape:pageopacity="0"
     inkscape:pageshadow="2"
     inkscape:window-width="640"
     inkscape:window-height="480"
     id="namedview37"
     showgrid="false"
     inkscape:zoom="0.83029853"
     inkscape:cx="277.61099"
     inkscape:cy="175.83398"
     inkscape:window-x="0"
     inkscape:window-y="25"
     inkscape:window-maximized="0"
     inkscape:current-layer="svg2" />
  <path
     id="26047"
     style="font-size:12px;fill:#0000ff;fill-rule:nonzero;stroke:#000000;stroke-opacity:1;stroke-width:0.1;stroke-miterlimit:4;stroke-dasharray:none;stroke-linecap:butt;marker-start:none;stroke-linejoin:bevel"
     d="m 395.71998,74.507 -2.095,0.221 -0.46,-0.004 -0.631,-0.83 0.454,-0.072 0.555,-0.184 0.365,-0.267 0.018,-0.126 -0.012,-0.09 -0.042,-0.099 -0.062,-0.045 -0.541,-0.037 -0.081,0.064 -0.468,-0.095 -0.295,-0.257 -0.192,-0.207 -0.258,-0.549 -0.08,-0.222 -0.082,-0.374 0,-0.081 0.046,-0.144 0.27,-0.595 0.104,-0.144 0.951,-1.028 1.239,-0.627 0.091,-0.076 0.45,-0.514 0.756,6.382 m -3.186,-0.613 0.631,0.83 0.46,0.004 2.095,-0.221 0.122,1.118 -0.981,1.23 -1.299,0.127 -1.69,0.198 -0.357,-0.158 -0.099,-0.928 -1.384,0.13 -0.107,0.014 -0.055,-0.352 0.104,-0.477 0.131,-0.167 0.253,-0.298 0.134,-0.139 0.821,-0.663 0.112,-0.063 0.465,-0.176 0.644,-0.009 m -2.609,2.344 0.107,-0.014 1.384,-0.13 0.099,0.928 0.357,0.158 1.69,-0.198 1.299,-0.127 0.472,3.295 -4.038,0.455 -0.271,0.126 -0.013,0.064 -0.026,0.45 -1.015,-0.608 0.071,-0.18 0.136,-0.406 0.068,-0.257 0.064,-0.883 0.003,-0.92 -0.072,-0.613 -0.315,-1.14 m -1.687,5.796 -1.585,0.19 -2.358,0.193 -0.099,-1.117 0.307,-0.577 0.743,-0.686 1.469,-0.95 0.176,-0.487 0.97,-1.862 0.577,-0.374 0.094,-0.004 0.158,0.252 -0.483,3.511 -0.035,0.027 -0.131,0.5 -0.018,0.131 0.005,0.32 0.036,0.226 0.174,0.707 m -1.585,0.19 0.337,3.357 -3.813,0.338 0.045,-0.41 0.01,-0.23 -0.081,-0.351 -0.081,-0.181 -0.252,-0.482 -0.069,-0.194 -0.009,-0.297 0.009,-0.072 0.05,-0.095 0.14,-0.108 0.527,-0.243 0.591,-0.195 0.139,-0.153 0.082,-0.225 0.022,-0.153 -0.005,-0.113 2.358,-0.193 m 3.317,-1.587 1.015,0.608 0.426,3.858 -4.421,0.478 -0.337,-3.357 1.585,-0.19 1.732,-1.397 m 5.363,-0.487 0.496,4.462 -4.418,0.491 -0.426,-3.858 0.026,-0.45 0.013,-0.064 0.271,-0.126 4.038,-0.455 m -8.343,5.431 0.447,4.484 -2.037,0.172 -3.182,0.19 0.865,-2.254 0.081,-0.735 0.009,-0.256 0.004,-1.263 3.813,-0.338 m 0,0 4.421,-0.478 0.496,4.462 -2.113,0.239 -2.357,0.261 -0.447,-4.484 m 8.839,-0.969 0.523,4.489 -2.167,0.212 -2.278,0.252 -0.496,-4.462 4.418,-0.491 m -13.611,5.815 3.182,-0.19 0.508,4.529 -3.632,0.33 -0.492,-1.925 0.114,-1.947 0.32,-0.797 m 7.576,-0.623 0.518,4.489 -4.404,0.473 -0.508,-4.529 2.037,-0.172 2.357,-0.261 m 4.391,-0.491 0.504,4.512 -4.377,0.468 -0.518,-4.489 2.113,-0.239 2.278,-0.252 m 2.167,-0.212 2.235,-0.257 0.556,4.44 -4.454,0.541 -0.504,-4.512 2.167,-0.212 m -14.076,5.995 3.632,-0.33 0.465,4.485 -3.934,0.338 -0.672,-1.289 -0.109,-0.207 -0.117,-0.302 -0.04,-0.198 -0.015,-0.149 0.006,-0.185 0.058,-0.257 0.149,-0.284 0.23,-0.365 0.163,-0.297 0.116,-0.338 0.05,-0.235 0.023,-0.347 -0.005,-0.04 m 8.036,-0.803 0.492,4.462 0.243,2.24 -2.118,0.253 -2.313,0.239 -0.243,-2.236 -0.465,-4.485 4.404,-0.473 m 0,0 4.377,-0.468 0.549,4.461 -4.434,0.469 -0.492,-4.462 m 8.831,-1.009 0.526,4.484 -2.213,0.262 -2.218,0.256 -0.549,-4.461 4.454,-0.541 m -1.687,4.746 0.613,4.457 -4.435,0.51 -0.257,-2.258 -2.33,0.256 -0.243,-2.24 4.434,-0.469 2.218,-0.256 m -8.527,3.218 2.118,-0.253 2.33,-0.256 0.257,2.258 0.532,4.488 -2.209,0.27 -2.226,0.244 -0.203,-1.879 -0.203,-1.506 -0.28,-2.234 -0.116,-1.132 m -6.49,-1.659 3.934,-0.338 0.243,2.236 2.313,-0.239 0.116,1.132 -1.1,0.107 0.136,1.117 -2.032,0.231 -1.371,0.139 -0.108,-0.225 -0.41,-0.726 -0.901,-1.487 -0.14,-0.274 -0.329,-0.722 -0.171,-0.446 -0.18,-0.505 m 6.606,2.791 0.28,2.234 0.203,1.506 0.203,1.879 -3.997,0.432 -1.056,-4.457 1.371,-0.139 2.032,-0.231 -0.136,-1.117 1.1,-0.107 m 4.589,0.617 4.435,-0.51 0.527,4.479 -2.222,0.258 -2.208,0.261 -0.532,-4.488 m 4.962,3.969 2.195,-0.251 0.56,4.479 -1.11,0.127 -3.326,0.403 -0.541,-4.5 2.222,-0.258 m -2.222,0.258 0.541,4.5 -2.141,0.268 -2.303,0.233 -0.514,-4.47 2.209,-0.27 2.208,-0.261 m -6.643,0.775 2.226,-0.244 0.514,4.47 -2.082,0.237 -4.804,0.522 0.149,-4.553 3.997,-0.432 m -4.146,4.985 4.804,-0.522 0.505,4.529 -4.367,0.433 -1.574,-2.074 0.632,-2.366 m 6.886,-0.759 2.303,-0.233 0.559,4.477 -4.439,0.522 -0.505,-4.529 2.082,-0.237 m 4.444,-0.501 3.326,-0.403 0.626,4.521 -1.108,0.102 -4.426,0.525 -0.559,-4.477 2.141,-0.268 m -11.962,3.626 1.574,2.074 0.387,4.024 -2.84,0.293 -2.866,0.275 0.004,-0.008 0.42,-0.352 0.526,-0.505 0.329,-0.365 0.506,-0.689 0.175,-0.334 0.117,-0.325 0.172,-0.771 0.491,-1.42 0.19,-0.4 0.815,-1.497 m 1.574,2.074 4.367,-0.433 0.157,4.029 -2.582,0.262 -1.555,0.166 -0.387,-4.024 m 4.367,-0.433 4.439,-0.522 0.469,4.015 -3.498,0.402 -1.253,0.134 -0.157,-4.029 m 4.439,-0.522 4.426,-0.525 0.487,4.027 -3.534,0.415 -0.91,0.098 -0.469,-4.015" />
</svg>
