<?xml version="1.0" encoding="UTF-8" standalone="no"?>
<!-- Created with Inkscape (http://www.inkscape.org/) -->

<svg
   xmlns:dc="http://purl.org/dc/elements/1.1/"
   xmlns:cc="http://creativecommons.org/ns#"
   xmlns:rdf="http://www.w3.org/1999/02/22-rdf-syntax-ns#"
   xmlns:svg="http://www.w3.org/2000/svg"
   xmlns="http://www.w3.org/2000/svg"
   xmlns:sodipodi="http://sodipodi.sourceforge.net/DTD/sodipodi-0.dtd"
   xmlns:inkscape="http://www.inkscape.org/namespaces/inkscape"
   version="1.0"
   width="555.22198"
   height="351.66797"
   id="svg2"
   inkscape:version="0.48.1 r9760"
   sodipodi:docname="westernnorthcarolina.svg">
  <metadata
     id="metadata36">
    <rdf:RDF>
      <cc:Work
         rdf:about="">
        <dc:format>image/svg+xml</dc:format>
        <dc:type
           rdf:resource="http://purl.org/dc/dcmitype/StillImage" />
      </cc:Work>
    </rdf:RDF>
  </metadata>
  <defs
     id="defs34" />
  <sodipodi:namedview
     pagecolor="#ffffff"
     bordercolor="#666666"
     borderopacity="1"
     objecttolerance="10"
     gridtolerance="10"
     guidetolerance="10"
     inkscape:pageopacity="0"
     inkscape:pageshadow="2"
     inkscape:window-width="640"
     inkscape:window-height="480"
     id="namedview32"
     showgrid="false"
     inkscape:zoom="0.83029853"
     inkscape:cx="277.61099"
     inkscape:cy="175.83398"
     inkscape:window-x="0"
     inkscape:window-y="25"
     inkscape:window-maximized="0"
     inkscape:current-layer="svg2" />
  <path
     id="37035"
     style="font-size:12px;fill:#0000ff;fill-rule:nonzero;stroke:#000000;stroke-opacity:1;stroke-width:0.1;stroke-miterlimit:4;stroke-dasharray:none;stroke-linecap:butt;marker-start:none;stroke-linejoin:bevel"
     d="m 445.27198,192.015 2.307,-0.143 1.343,0.779 0.379,0.379 0.496,0.645 -0.175,0.924 -5.959,0.658 1.361,-2.826 0.248,-0.416 m 4.35,2.584 0.256,0.748 0.09,1.127 -5.206,0.572 -1.122,-1.727 0.023,-0.062 5.959,-0.658 m -4.86,2.447 5.206,-0.572 -0.393,3.384 -2.974,0.271 -1.839,-3.083 m -1.122,-1.727 1.122,1.727 1.839,3.083 -0.406,0.04 -4.186,0.442 0.009,-0.554 0.324,-1.822 -0.324,-2.875 1.622,-0.041 m -3.547,-4.687 0.086,0.117 0.851,0.65 2.001,1.212 1.65,-0.005 0.222,-0.017 0.121,-0.158 -1.361,2.826 -0.023,0.062 -1.622,0.041 -1.353,0.272 -0.744,-1.791 -0.766,-1.559 0.069,-0.487 -0.087,-0.288 -0.058,-0.122 -0.229,-0.37 -0.077,-0.098 -0.073,-0.041 1.393,-0.244 m -0.333,-1.915 2.713,-0.488 2.461,1.208 0.338,2.578 -0.248,0.416 -0.121,0.158 -0.222,0.017 -1.65,0.005 -2.001,-1.212 -0.851,-0.65 -0.086,-0.117 -0.333,-1.915 m 5.232,-4.111 0.821,-0.986 0.654,-0.194 0.08,0.013 0.451,0.226 0.04,0.221 0.198,0.219 0.474,-0.076 0.09,-0.369 1.299,1.965 0.279,2.335 -1.482,0.365 -0.186,0.09 -0.573,0.163 -0.711,0.17 -0.167,-0.04 -0.464,0.148 -0.302,0.118 -0.559,0.463 -2.461,-1.208 0.45,-1.679 2.069,-1.944 m 3.146,-3.109 -0.338,2.163 -0.09,0.369 -0.474,0.076 -0.198,-0.219 -0.04,-0.221 -0.451,-0.226 -0.08,-0.013 -0.654,0.194 -0.821,0.986 -0.058,-0.388 -0.23,-0.481 -0.099,-0.162 -0.366,-0.311 -0.675,-0.952 -0.041,-0.256 4.615,-0.559 m -7.937,0.893 3.322,-0.334 0.041,0.256 0.675,0.952 0.366,0.311 0.099,0.162 0.23,0.481 0.058,0.388 -2.069,1.944 -0.86,-0.338 -0.397,-0.289 -0.599,-0.528 -0.915,-0.361 0.049,-2.644 m 7.695,5.935 -0.317,3.547 -2.307,0.143 -0.338,-2.578 0.559,-0.463 0.302,-0.118 0.464,-0.148 0.167,0.04 0.711,-0.17 0.573,-0.163 0.186,-0.09 m -7.744,-3.291 0.915,0.361 0.599,0.528 0.397,0.289 0.86,0.338 -0.45,1.679 -2.713,0.488 -1.429,-2.092 0.076,-0.207 0.474,-0.531 0.514,-0.352 0.013,-0.01 0.054,-0.031 0.064,0.148 0.27,0.086 0.161,-0.008 0.019,0 0.215,-0.072 -0.039,-0.614 m -1.929,1.902 0.108,-0.311 1.429,2.092 0.333,1.915 -1.393,0.244 -0.301,0.672 -1.388,-2.345 1.212,-2.267 m 0.176,4.612 0.301,-0.672 0.073,0.041 0.077,0.098 0.229,0.37 0.058,0.122 0.087,0.288 -0.069,0.487 0.766,1.559 0.744,1.791 -3.466,1.13 -1.423,-2.11 1.235,-1.753 1.388,-1.351 m 3.619,3.812 0.324,2.875 -0.324,1.822 -0.009,0.554 -1.109,0.113 -0.988,0.108 -0.067,-0.744 -0.105,-0.171 -1.648,-1.39 -0.153,-0.101 -0.325,-0.141 -0.095,-0.013 -0.401,0.144 -0.617,0.217 -0.185,-0.951 0.883,-0.92 3.466,-1.13 1.353,-0.272 m -2.106,5.472 -2.578,0.266 -1.458,0.067 0.625,-2.532 0.617,-0.217 0.401,-0.144 0.095,0.013 0.325,0.141 0.153,0.101 1.648,1.39 0.105,0.171 0.067,0.744 m -3.596,-3.15 0.185,0.951 -0.625,2.532 -2.147,1.127 -0.135,-0.071 -0.076,-0.127 -0.249,-0.753 -0.068,-0.473 -0.117,-0.369 -0.288,-0.33 -1.351,-1.203 0.265,-0.374 0.1,-0.077 0.319,-0.125 0.202,0.036 0.109,0.057 0.324,0.073 0.478,0.041 0.78,-0.289 0.861,-0.464 0.681,-0.478 0.752,0.316 m -0.54,-3.03 1.423,2.11 -0.883,0.92 -0.752,-0.316 -0.681,0.478 -0.861,0.464 -0.78,0.289 -0.478,-0.041 -0.324,-0.073 -0.109,-0.057 -0.202,-0.036 -0.319,0.125 -0.1,0.077 -0.265,0.374 -1.894,-3.083 0.803,-0.216 1.316,-0.858 0.649,-0.472 0.333,-0.238 0.568,-0.357 0.969,-0.352 1.587,1.262 m -3.985,-3.826 1.11,0.645 1.288,1.919 -0.969,0.352 -0.568,0.357 -0.333,0.238 -0.649,0.472 -1.316,0.858 -0.803,0.216 -1.027,-1.378 0.399,-2.033 0.466,-0.118 0.91,-0.852 0.648,-0.64 0.181,-0.131 0.262,-0.189 0.049,-0.008 0.155,0.098 0,0.005 0.197,0.189 m 1.844,-0.698 0.64,-0.243 1.708,0.653 0.048,0.059 0.578,0.99 0.108,0.204 0.294,1.108 -1.235,1.753 -1.587,-1.262 -1.288,-1.919 0.734,-1.343 m 3.376,-0.925 1.388,2.345 -1.388,1.351 -0.294,-1.108 -0.108,-0.204 -0.578,-0.99 -0.048,-0.059 -1.708,-0.653 -0.64,0.243 1.839,-1.37 1.537,0.445 m -15.181,13.347 -0.216,1.239 -2.502,2.528 -1.292,0.162 -2.007,0.235 -0.039,-2.849 0.85,-0.748 1.111,-0.027 0.395,-0.325 0.244,-0.333 0.368,0.708 0.378,0.157 0.101,0 0.712,-0.333 1.897,-0.414 m -2.947,-2.4 3.254,-0.197 0.59,0.04 0.045,0.239 0.009,0.14 -0.049,0.32 -0.216,0.5 -0.145,0.081 -0.242,0.1 -0.185,0.112 -0.055,0.068 -0.072,0.23 0.004,0.125 0.189,0.213 -0.18,0.429 -1.897,0.414 -0.712,0.333 -0.101,0 -0.378,-0.157 -0.368,-0.708 0.423,-2.312 0.086,0.03 m 6.818,-3.973 1.024,2.239 -1.271,2.574 -1.141,0.392 -2.23,0.689 -0.073,0.05 -0.189,-0.213 -0.004,-0.125 0.072,-0.23 0.055,-0.068 0.185,-0.112 0.242,-0.1 0.145,-0.081 0.216,-0.5 0.049,-0.32 -0.009,-0.14 -0.045,-0.239 -0.59,-0.04 -3.254,0.197 2.816,-1.784 0.05,0.005 0.189,0.004 1.473,-0.152 0.127,-0.082 1.789,-1.416 0.374,-0.548 m 2.823,-1.672 1.027,1.378 1.894,3.083 -1.583,1.938 -3.137,-2.488 -1.024,-2.239 -0.045,-0.245 2.868,-1.427 m -1.799,3.911 3.137,2.488 -0.437,3.528 -1.001,0.484 -2.97,-3.926 1.271,-2.574 m 4.72,0.55 1.351,1.203 0.288,0.33 0.117,0.369 0.068,0.473 0.249,0.753 0.076,0.127 0.135,0.071 -1.848,1.262 -1.356,0.347 -1.1,0.531 0.437,-3.528 1.583,-1.938 m -5.991,2.024 2.97,3.926 -3.889,0.612 -2.921,-1.739 0.216,-1.239 0.18,-0.429 0.073,-0.05 2.23,-0.689 1.141,-0.392 m -3.84,2.799 2.921,1.739 -0.682,0.109 -4.023,0.586 -0.718,0.094 2.502,-2.528" />
</svg>
