<?xml version="1.0" encoding="UTF-8" standalone="no"?>
<!-- Created with Inkscape (http://www.inkscape.org/) -->

<svg
   xmlns:dc="http://purl.org/dc/elements/1.1/"
   xmlns:cc="http://creativecommons.org/ns#"
   xmlns:rdf="http://www.w3.org/1999/02/22-rdf-syntax-ns#"
   xmlns:svg="http://www.w3.org/2000/svg"
   xmlns="http://www.w3.org/2000/svg"
   xmlns:sodipodi="http://sodipodi.sourceforge.net/DTD/sodipodi-0.dtd"
   xmlns:inkscape="http://www.inkscape.org/namespaces/inkscape"
   version="1.0"
   width="555.22198"
   height="351.66797"
   id="svg2"
   inkscape:version="0.48.1 r9760"
   sodipodi:docname="westtexas.svg">
  <metadata
     id="metadata68">
    <rdf:RDF>
      <cc:Work
         rdf:about="">
        <dc:format>image/svg+xml</dc:format>
        <dc:type
           rdf:resource="http://purl.org/dc/dcmitype/StillImage" />
      </cc:Work>
    </rdf:RDF>
  </metadata>
  <defs
     id="defs66" />
  <sodipodi:namedview
     pagecolor="#ffffff"
     bordercolor="#666666"
     borderopacity="1"
     objecttolerance="10"
     gridtolerance="10"
     guidetolerance="10"
     inkscape:pageopacity="0"
     inkscape:pageshadow="2"
     inkscape:window-width="640"
     inkscape:window-height="480"
     id="namedview64"
     showgrid="false"
     inkscape:zoom="0.83029853"
     inkscape:cx="277.61099"
     inkscape:cy="175.83398"
     inkscape:window-x="0"
     inkscape:window-y="25"
     inkscape:window-maximized="0"
     inkscape:current-layer="svg2" />
  <path
     id="48061"
     style="font-size:12px;fill:#0000ff;fill-rule:nonzero;stroke:#000000;stroke-opacity:1;stroke-width:0.1;stroke-miterlimit:4;stroke-dasharray:none;stroke-linecap:butt;marker-start:none;stroke-linejoin:bevel"
     d="m 271.76198,325.326 3.894,0.69 1.258,-0.838 0.455,-0.565 0.055,0.028 0.54,0.757 -0.031,1.082 0.405,2.01 0.865,1.439 0.028,0.031 -0.136,0.441 -2.131,1.277 -1.037,-0.317 -0.163,-0.099 -0.161,-0.125 -0.668,-0.528 -0.982,-1.095 -0.041,-0.145 -1.334,-0.233 -0.888,-0.154 0.072,-3.656 m 7.261,-0.689 0.198,0 0.32,1.343 0.1,0.505 0.135,0.951 0.203,1.605 -0.054,-0.01 -0.032,-0.004 -0.094,-0.131 -0.104,-0.869 0.013,-0.397 -0.054,-0.474 -0.113,-0.729 -0.225,-1.05 -0.135,-0.41 -0.158,-0.33 m 0.049,-21.274 0.222,0.181 0.036,0.005 1.023,-0.496 1.447,-1.091 0.071,-0.194 -0.238,-0.008 -0.248,-0.036 -0.438,-0.262 -0.256,-0.343 -0.018,-0.262 3.795,-0.553 -0.095,0.594 0.135,0.217 0,0.072 -0.153,0.333 -0.113,0.086 -1.437,1.181 -0.32,0.004 -0.997,1.29 -1.004,1.523 -1.412,-2.241 m 4.932,-0.409 -0.28,0.648 -2.226,2.849 -0.059,-0.163 2.565,-3.334 m -25.673,-43.715 1.23,0.122 -0.238,6.706 -4.336,-0.148 -1.235,-1.939 0.212,-5.218 0.712,0.139 0.996,0.154 2.118,0.053 0.541,0.131 m 2.326,-0.144 -0.041,0.23 0.285,0.374 2.131,0.802 0.351,-0.333 1.447,1.27 0.419,0.915 0.028,0.154 1.284,2.628 -0.103,1.392 -5.734,-0.162 -1.401,-0.298 0.238,-6.706 1.096,-0.266 m 5.859,-2.412 2.028,3.507 -3.267,2.317 -0.028,-0.154 -0.419,-0.915 -1.447,-1.27 -0.351,0.333 -2.131,-0.802 -0.285,-0.374 0.041,-0.23 0.568,-0.357 1.803,-1.207 0.248,-0.987 1.004,-0.135 2.236,0.274 m -5.792,9.682 5.734,0.162 0.734,1.155 0.049,3.366 0.141,1.118 -2.682,-0.249 -4.138,-0.104 0.162,-5.448 m -5.737,-0.446 4.336,0.148 1.401,0.298 -0.162,5.448 -3.772,-0.143 -2.006,-0.068 0.104,-2.718 0.099,-2.965 m -6.878,-2.177 5.643,0.238 1.235,1.939 -0.099,2.965 -7,-0.275 0.221,-4.867 m -6.323,-0.275 6.323,0.275 -0.221,4.867 -9.352,-0.391 0.234,-4.85 3.016,0.099 m 6.102,5.142 -0.239,5.405 -6.499,-0.276 -2.893,-0.139 0.279,-5.381 9.352,0.391 m 7,0.275 -0.104,2.718 2.006,0.068 -0.077,2.745 -5.03,-0.235 -4.034,-0.166 0.239,-5.405 7,0.275 m 31.18,19.304 0.203,0.207 3.723,3.674 -0.176,3.691 -2.907,-0.504 -0.731,0.031 -1.289,-2.394 -0.811,-1.604 -0.076,-0.054 -1.123,-0.496 3.187,-2.551 m -5.413,-4.732 3.019,-0.027 0.095,0.027 0.208,0.126 0.608,0.568 2.591,3.123 -1.108,0.915 -3.187,2.551 -3.353,-4.169 0.446,-1.573 -0.009,-0.941 0.69,-0.6 m -1.934,-2.042 1.934,2.042 -0.69,0.6 0.009,0.941 -0.446,1.573 -4.264,3.471 -1.275,-1.465 -1.226,-2.015 2.398,-3.47 3.56,-1.677 m -4.34,-3.155 0.671,-0.568 3.692,3.7 -0.023,0.023 -3.56,1.677 -2.664,-2.727 -0.171,0.023 -0.104,-0.019 0.072,-0.342 1.469,-1.213 0.618,-0.554 m -5.075,-4.376 5.075,4.376 -0.618,0.554 -1.469,1.213 -0.072,0.342 0.104,0.019 0.171,-0.023 -1.42,1.334 -0.324,-1.244 -2.93,-2.506 1.483,-4.065 m -1.483,4.065 2.93,2.506 0.324,1.244 -3.542,1.952 -0.478,-1.42 -0.69,-0.554 -1.428,-0.185 -0.091,-0.005 -1.023,0.126 2.664,-2.407 1.334,-1.257 m 4.674,2.416 2.664,2.727 -2.398,3.47 -2.75,-0.094 -0.324,0.18 -0.095,-0.172 -0.04,-0.162 -0.068,-0.663 0.113,-0.121 -0.018,-0.383 -1.068,-0.717 -0.546,-0.175 -0.32,-0.248 -0.112,-0.356 3.542,-1.952 1.42,-1.334 m -8.672,1.248 1.023,-0.126 0.091,0.005 1.428,0.185 0.69,0.554 0.478,1.42 0.112,0.356 0.32,0.248 0.546,0.175 1.068,0.717 0.018,0.383 -0.113,0.121 -3.191,4.138 -4.434,-1.87 0.144,-5.656 0.32,-0.371 1.5,-0.279 m -2.916,-5.146 3.705,0.098 1.875,2.641 -2.664,2.407 -1.5,0.279 -1.528,-0.838 0.112,-4.587 m 6.473,-4.3 2.474,0.829 -0.55,0.888 -1.483,4.065 -1.334,1.257 -1.875,-2.641 0.086,-4.647 2.682,0.249 m -10.592,-0.496 3.772,0.143 4.138,0.104 -0.086,4.647 -3.705,-0.098 -4.25,-0.091 0.131,-4.705 m -0.077,2.745 -0.054,1.96 4.25,0.091 -0.112,4.587 -2.272,-1.244 -0.59,-0.306 -1.298,-0.166 -3.457,-0.162 -0.744,-0.042 -0.225,-0.455 0.081,-1.686 -0.758,-0.03 0.149,-2.782 5.03,0.235 m -3.533,4.76 3.457,0.162 1.298,0.166 0.59,0.306 2.272,1.244 1.528,0.838 -0.32,0.371 -1.402,1.608 -0.505,0.118 -0.041,-0.006 -0.045,-0.039 -0.067,-0.153 -0.004,-0.258 0.098,-0.148 0.036,-0.14 -0.009,-0.062 -0.077,-0.119 -4.804,-0.212 -2.145,-0.076 0.14,-3.6 m 8.825,3.087 -0.144,5.656 -0.063,2.055 -6.883,-0.234 0.27,-6.888 4.804,0.212 0.077,0.119 0.009,0.062 -0.036,0.14 -0.098,0.148 0.004,0.258 0.067,0.153 0.045,0.039 0.041,0.006 0.505,-0.118 1.402,-1.608 m -0.144,5.656 4.434,1.87 2.376,3.038 1.023,1.248 -2.741,2.173 0.01,-0.397 -5.296,-0.072 0.008,-0.117 0.123,-5.688 0.063,-2.055 m 10.902,-1.357 1.226,2.015 -5.318,4.25 -2.376,-3.038 3.191,-4.138 0.068,0.663 0.04,0.162 0.095,0.172 0.324,-0.18 2.75,0.094 m 1.226,2.015 1.275,1.465 -1.627,1.289 2.002,2.522 -2.349,1.823 -0.54,-0.073 -0.357,-0.148 -0.401,-0.222 -0.09,-0.157 -0.148,-0.09 -1.033,0.356 -1.027,-1.267 -1.023,-1.248 5.318,-4.25 m 5.539,-2.006 2.93,3.643 -3.764,3.032 -0.229,-0.274 -0.154,-0.136 -0.5,-0.279 -0.298,-0.113 -0.071,0 -1.803,1.409 -2.002,-2.522 1.627,-1.289 4.264,-3.471 m 2.93,3.643 0.423,0.526 1.123,0.496 0.076,0.054 0.811,1.604 1.289,2.394 -0.067,0.031 -0.608,0.338 -1.713,0.586 -0.879,0.613 0.275,0.699 0.166,0.325 -3.064,-0.627 -0.05,-2.97 -0.216,-0.559 -0.163,-0.33 -0.329,-0.152 -0.838,0.004 3.764,-3.032 m -3.764,3.032 0.838,-0.004 0.329,0.152 0.163,0.33 0.216,0.559 0.05,2.97 -2.475,2.082 -1.996,-1.031 -1.627,-0.992 -0.902,-1.636 2.349,-1.823 1.803,-1.409 0.071,0 0.298,0.113 0.5,0.279 0.154,0.136 0.229,0.274 m -16.896,-3.272 -0.123,5.688 -6.76,-0.135 -0.149,-0.005 0.149,-5.782 6.883,0.234 m -6.883,-0.234 -0.149,5.782 -8.005,-0.415 0.276,-5.615 7.878,0.248 m -7.59,-7.143 1.099,0.044 4.616,0.135 2.145,0.076 -0.27,6.888 -7.878,-0.248 0.288,-6.895 m 4.209,-5.634 0.758,0.03 -0.081,1.686 0.225,0.455 0.744,0.042 -0.14,3.6 -4.616,-0.135 -0.018,-1.569 0.122,-1.86 0.667,-2.447 1.357,0.162 0.982,0.036 m -3.885,-2.948 4.034,0.166 -0.149,2.782 -0.982,-0.036 -1.357,-0.162 -0.667,2.447 -0.122,1.86 0.018,1.569 -1.099,-0.044 -6.594,-0.316 0.419,-8.542 6.499,0.276 m -6.918,8.266 6.594,0.316 -0.288,6.895 -6.293,-0.267 -1.302,-2.086 0.347,0.063 0.045,-0.009 0.145,-0.212 0.45,-1.063 0.063,-0.311 0.126,-0.965 0.113,-2.361 m 6.306,7.211 -0.276,5.615 -0.243,5.77 -1.095,-0.036 -0.041,-0.045 -0.486,-0.536 -0.361,-0.464 -0.559,-1.718 -1.622,-4.358 -1.443,-3.196 -0.167,-1.299 6.293,0.267 m -0.276,5.615 8.005,0.415 0.149,0.005 -0.18,5.589 -8.217,-0.239 0.243,-5.77 m 14.914,0.555 -0.008,0.117 -0.244,7.442 -6.711,0.126 0.023,-2.231 0.18,-5.589 6.76,0.135 m -16.252,5.179 1.095,0.036 8.217,0.239 -0.023,2.231 6.711,-0.126 -0.207,9 -1.839,1.028 -4.372,-0.194 -0.406,-0.604 -0.987,0.662 -0.194,-0.017 -0.247,-0.155 -0.023,-0.008 -0.388,-0.378 -0.049,-0.054 -0.018,-0.023 -0.009,-0.009 -0.013,-0.049 0.053,-0.072 0.32,-0.429 0.181,-0.428 0.068,-0.248 0.121,-0.964 -0.41,-1.141 -0.239,-0.419 -0.154,-0.113 -0.509,-0.37 -0.261,-0.045 -0.031,0.018 -0.014,0.055 -0.446,-0.018 -1.97,-1.821 -0.356,-0.423 -1.222,-2.462 -0.968,-1.96 -0.055,-0.045 -1.356,-0.694 m 16,2.38 5.363,0.138 1.132,0.028 -0.203,10.177 -3.362,-0.117 0.04,-1.002 -0.342,-0.211 -2.835,-0.013 0.207,-9 m 0.244,-7.442 5.296,0.072 -0.177,7.508 -5.363,-0.138 0.244,-7.442 m 8.027,-1.704 1.027,1.267 -0.964,0.329 3.073,6.211 -0.108,0.084 -0.775,1.52 -4.029,-0.099 -1.132,-0.028 0.167,-7.111 2.741,-2.173 m 3.596,1.601 0.902,1.636 1.627,0.992 1.996,1.031 -1.933,2.84 -3.16,-0.209 0.108,-0.084 -3.073,-6.211 0.964,-0.329 1.033,-0.356 0.148,0.09 0.09,0.157 0.401,0.222 0.357,0.148 0.54,0.073 m 7,1.577 3.064,0.627 1.366,1.265 -0.252,1.16 -3.795,0.553 0.018,0.262 0.256,0.343 0.438,0.262 0.248,0.036 0.238,0.008 -0.071,0.194 -1.447,1.091 -1.023,0.496 -0.036,-0.005 -0.222,-0.181 -3.19,-1.189 1.933,-2.84 2.475,-2.082 m 3.714,5.702 0.153,-0.591 2.573,-1.763 0.135,-0.062 0.596,-0.257 0.887,-0.185 0.136,0.235 -1.086,0.535 -0.159,0.072 -0.013,0.013 -0.829,0.511 -0.838,0.603 -0.731,0.573 -1.054,0.916 -0.023,0.022 -0.027,0.026 0.28,-0.648 m 2.907,-7.698 2.907,0.504 0.004,0.433 -0.703,0.329 -1.118,0.455 -0.91,-0.83 -0.104,-0.3 -0.076,-0.591 m -3.557,2.623 -0.166,-0.325 -0.275,-0.699 0.879,-0.613 1.713,-0.586 0.608,-0.338 -0.167,0.15 0.6,1.426 0.031,0.035 0.5,0.093 0.316,0.217 1.321,1.19 0.103,0.103 0.095,0.131 -0.018,0.086 -2.146,1.076 -0.099,0.041 -0.829,0.234 -0.289,-0.094 -0.081,-0.077 -0.73,-0.785 -1.366,-1.265 m -10.632,4.086 3.16,0.209 3.19,1.189 1.412,2.241 -1.632,0.247 -0.793,-0.04 -1.844,0.04 -0.099,0.334 -0.82,-0.068 -0.591,-0.13 -0.297,-0.139 -1.515,-0.79 -0.116,-0.468 0.126,-0.303 -0.956,-0.802 0.775,-1.52 m 8.776,4.486 -2.064,3.313 -0.298,-0.073 2.303,-3.403 0.059,0.163 m -10.335,2.411 0.135,-1.803 0.018,-1.388 1.587,-1.384 -0.126,0.303 0.116,0.468 1.515,0.79 0.297,0.139 0.591,0.13 0.82,0.068 0.099,-0.334 1.844,-0.04 0.793,0.04 -0.207,0.037 -0.753,0.342 -0.217,0.158 -0.152,0.306 -0.023,0.397 0.081,0.208 0.198,0.324 0.244,0.212 0.347,0.166 0.572,0.446 -0.361,0.821 -0.338,0.676 -5.823,-0.068 -0.099,-0.004 -0.401,-0.519 -0.757,-0.491 m -3.245,-5.476 4.029,0.099 0.956,0.802 -1.587,1.384 -0.018,1.388 -0.135,1.803 -1.352,-0.027 -0.086,4.792 -2.01,-0.064 0.203,-10.177 m 9.721,10.169 1.497,-3.864 0.298,0.073 -1.497,3.794 -0.298,-0.003 m -6.476,-4.693 0.757,0.491 0.401,0.519 0.099,0.004 5.823,0.068 -0.581,2.032 -0.347,0.834 -0.036,0.073 -0.095,0.108 -0.081,0.05 -1.027,0.526 -1.492,-0.072 -4.039,0.812 -0.82,-0.68 0.086,-4.792 1.352,0.027 m 6.476,4.693 0.298,0.003 -0.036,0.123 -0.163,0.739 -0.094,0.627 -0.081,0.765 -0.036,0.676 0,0.708 0.072,1.064 0.054,0.437 0.009,0.045 0.14,0.812 0.203,0.919 0.356,1.297 0.018,0.05 0.018,0.049 0.108,0.353 -0.356,-0.009 -0.762,-2.823 0,-1.599 0.009,-1.358 0.005,-0.536 0.018,-0.797 0.049,-0.613 0.055,-0.311 0.116,-0.621 m -7.094,0.752 4.039,-0.812 -0.027,0.1 0.004,0.225 0.046,0.081 0.071,0.054 0.992,0.189 0.261,-0.022 0.122,-0.049 0.077,-0.055 0.036,-0.058 0.175,-0.081 0.401,-0.145 0.307,-0.012 0.019,0.081 -0.276,1.802 -0.491,1.474 -0.338,2.51 0.437,0.577 0.284,1.604 0.031,0.415 -5.999,-0.243 -0.279,-2.168 0.108,-5.467 m -6.192,-0.861 3.362,0.117 2.01,0.064 0.82,0.68 -0.108,5.467 -3.894,-0.112 -1.181,-0.036 0.145,-3.472 -0.812,-2.316 -0.342,-0.392 m 2.19,6.216 3.894,0.112 0.279,2.168 -0.333,0.951 -0.153,0.568 -0.099,0.55 1.113,0.197 0.536,0.172 -0.018,0.946 -0.072,3.656 -0.081,-0.018 -0.23,-0.035 -1.05,0.011 -0.351,0.006 -0.045,0.058 -0.384,0.153 -1.447,-0.279 -0.851,-0.167 -0.266,-0.144 -0.167,-0.112 -1.239,-0.844 -0.591,-0.706 -0.315,-0.15 -0.027,-0.009 -1.362,-0.464 -0.008,0 1.243,-2.524 1.092,-2.109 0.932,-1.987 m 11.606,2.551 0.356,0.009 0.716,2.415 -0.198,0 -0.874,-2.424 m -7.433,-0.271 5.999,0.243 0.654,2.428 -0.455,0.565 -1.258,0.838 -3.894,-0.69 0.018,-0.946 -0.536,-0.172 -1.113,-0.197 0.099,-0.55 0.153,-0.568 0.333,-0.951 m -11.524,-2.52 6.17,0.204 1.181,0.036 -0.932,1.987 -1.092,2.109 -1.243,2.524 -0.546,0.077 -0.838,-0.37 -3.939,-1.771 -0.663,-0.428 -0.676,-1.543 -0.023,-0.089 -0.018,-0.067 2.619,-2.669 m 2.024,-7.202 2.835,0.013 0.342,0.211 -0.04,1.002 0.342,0.392 0.812,2.316 -0.145,3.472 -6.17,-0.204 0.185,-6.174 1.839,-1.028 m -7.604,0.892 0.987,-0.662 0.406,0.604 4.372,0.194 -0.185,6.174 -2.619,2.669 -0.171,-0.686 -0.207,-0.838 0,-0.013 -0.347,-1.276 -0.279,-0.708 -0.591,-0.834 -0.649,-0.378 -0.744,-1.159 -0.045,-0.509 0.014,-0.05 0.054,-0.044 0.203,-0.298 0.081,-1.045 -0.144,-0.947 -0.117,-0.186 -0.01,-0.003 -0.009,-0.005 m -24.23,-40.017 8.875,0.504 2.893,0.139 -0.419,8.542 -0.113,2.361 -0.126,0.965 -0.063,0.311 -0.45,1.063 -0.145,0.212 -0.045,0.009 -0.347,-0.063 -2.642,-2.367 -2.212,-2.744 -0.027,-0.073 -1.627,-1.812 -0.559,-0.193 -0.05,-0.005 -1.609,-0.103 -0.256,-0.013 -1.506,-0.167 0.428,-6.566 m -6.319,-10.728 0.965,0.076 5.773,0.451 5.526,0.33 3.443,0.144 -0.234,4.85 -0.279,5.381 -8.875,-0.504 0.261,-0.479 1.177,-2.835 0.018,-0.113 -0.072,-0.815 -0.442,-0.356 -0.609,-0.126 -0.162,0.017 -0.058,-0.332 -0.937,-3.178 -1.118,-0.934 -0.704,-0.22 -2.172,-0.676 -1.501,-0.681" />
</svg>
