<?xml version="1.0" encoding="UTF-8" standalone="no"?>
<!-- Created with Inkscape (http://www.inkscape.org/) -->

<svg
   xmlns:dc="http://purl.org/dc/elements/1.1/"
   xmlns:cc="http://creativecommons.org/ns#"
   xmlns:rdf="http://www.w3.org/1999/02/22-rdf-syntax-ns#"
   xmlns:svg="http://www.w3.org/2000/svg"
   xmlns="http://www.w3.org/2000/svg"
   xmlns:sodipodi="http://sodipodi.sourceforge.net/DTD/sodipodi-0.dtd"
   xmlns:inkscape="http://www.inkscape.org/namespaces/inkscape"
   version="1.0"
   width="555.22198"
   height="351.66797"
   id="svg2"
   inkscape:version="0.48.1 r9760"
   sodipodi:docname="westmissouri.svg">
  <metadata
     id="metadata73">
    <rdf:RDF>
      <cc:Work
         rdf:about="">
        <dc:format>image/svg+xml</dc:format>
        <dc:type
           rdf:resource="http://purl.org/dc/dcmitype/StillImage" />
      </cc:Work>
    </rdf:RDF>
  </metadata>
  <defs
     id="defs71" />
  <sodipodi:namedview
     pagecolor="#ffffff"
     bordercolor="#666666"
     borderopacity="1"
     objecttolerance="10"
     gridtolerance="10"
     guidetolerance="10"
     inkscape:pageopacity="0"
     inkscape:pageshadow="2"
     inkscape:window-width="640"
     inkscape:window-height="480"
     id="namedview69"
     showgrid="false"
     inkscape:zoom="0.83029853"
     inkscape:cx="277.61099"
     inkscape:cy="175.83398"
     inkscape:window-x="0"
     inkscape:window-y="25"
     inkscape:window-maximized="0"
     inkscape:current-layer="svg2" />
  <path
     id="29227"
     style="font-size:12px;fill:#0000ff;fill-rule:nonzero;stroke:#000000;stroke-opacity:1;stroke-width:0.1;stroke-miterlimit:4;stroke-dasharray:none;stroke-linecap:butt;marker-start:none;stroke-linejoin:bevel"
     d="m 308.37798,141.577 2.326,-0.055 0.22,2.435 -3.75,0.031 -0.359,-2.392 1.563,-0.019 m 29.494,44.886 0.073,2.082 0.04,1.312 -0.018,2.371 0.062,1.375 -4.61,0.207 -0.071,-3.836 0.098,-3.416 1.105,-0.036 1.27,0.013 2.051,-0.072 m -11.218,3.606 6.694,-0.095 0.071,3.836 -0.307,0.019 -3.898,0.161 -2.501,0.086 -0.059,-4.007 m 6.792,-3.511 -0.098,3.416 -6.694,0.095 -1.483,0.008 -0.045,-3.397 2.218,-0.028 4.443,-0.067 1.659,-0.027 m -6.295,-5.292 4.416,-0.049 0.103,2.831 0.068,0.473 0.049,2.064 -4.443,0.067 -0.019,-2.551 -0.134,0 -0.04,-2.835 m -1.894,-5.323 2.38,-0.036 0.014,0.045 -0.019,0.027 0.072,0.294 0.158,0.302 0.378,0.438 0.159,0.062 0.093,-0.023 0.7,-0.356 0.59,-0.437 0.028,1.889 1.698,0.788 0.019,0.569 0.04,1.712 -4.416,0.049 -1.696,0.028 -0.031,-3.083 -0.136,0.005 -0.031,-2.273 m 6.702,-1.811 1.658,0.005 0.14,5.304 -2.23,0.064 -0.019,-0.569 -1.698,-0.788 -0.028,-1.889 -0.05,-2.104 2.227,-0.023 m -5.237,-2.484 0.562,0.099 0.379,0.537 0.095,0.4 0.015,0.374 0.283,0.564 0.189,0.185 0.582,0.366 0.905,-0.018 0.05,2.104 -0.59,0.437 -0.7,0.356 -0.093,0.023 -0.159,-0.062 -0.378,-0.438 -0.158,-0.302 -0.072,-0.294 0.019,-0.027 -0.014,-0.045 -2.38,0.036 -2.195,-0.018 0.008,-2.081 -0.202,-2.57 1.176,0.789 1.997,-0.063 0.681,-0.352 m -3.849,-5.999 2.204,0.05 0.013,1.132 2.244,2.082 -0.612,2.735 -0.681,0.352 -1.997,0.063 -1.176,-0.789 -0.004,-3.507 0.009,-2.118 m 5.498,-3.163 1.122,2.334 -0.851,4.084 -1.308,0.009 -2.244,-2.082 -0.013,-1.132 0.947,-0.027 1.275,-0.117 0.076,-0.284 0.195,-0.577 0.801,-2.208 m -4.403,-1.705 0,0.087 0.221,0.473 0.081,0.108 0.501,0.347 0.107,0.045 0.618,0.103 2.262,-0.071 0.613,0.613 -0.801,2.208 -0.195,0.577 -0.076,0.284 -1.275,0.117 -0.947,0.027 -2.204,-0.05 0,-3.059 1.095,-1.809 m 2.141,-3.415 2.781,0.847 -1.132,3.66 -2.262,0.071 -0.618,-0.103 -0.107,-0.045 -0.501,-0.347 -0.081,-0.108 -0.221,-0.473 0,-0.087 0.78,-2.122 1.361,-1.293 m 3.88,-3.831 0.04,3.348 0.009,1.317 -1.148,0.013 -2.781,-0.847 0.023,-3.751 3.857,-0.08 m -0.649,-5.594 0.605,1.081 0.063,4.513 -0.019,0 -3.857,0.08 -1.673,-1.112 -0.045,-4.385 4.926,-0.177 m -0.203,-4.016 0.046,0.568 0.157,3.448 -4.926,0.177 -0.085,0.003 -0.127,-3.966 1.677,-0.067 3.258,-0.163 m -0.13,-3.254 0.13,3.254 -3.258,0.163 -0.293,-1.321 0.064,-1.23 -0.177,-0.636 0.744,-0.041 2.79,-0.189 m -3.534,0.23 0.177,0.636 -0.064,1.23 0.293,1.321 -1.677,0.067 -0.013,-0.563 -2.253,0.068 -2.737,0.121 -0.144,-2.56 2.695,-0.125 3.723,-0.195 m -6.274,2.88 2.737,-0.121 2.253,-0.068 0.013,0.563 0.127,3.966 -4.958,0.203 -0.135,-3.028 -0.037,-1.515 m 5.13,4.34 0.085,-0.003 0.045,4.385 -4.033,0.076 -0.965,0.027 -0.05,-2.29 -0.018,-1.141 -0.022,-0.851 4.958,-0.203 m 0.13,4.382 1.673,1.112 -0.023,3.751 -1.361,1.293 -2.597,-1.969 -1.803,-2.963 0.078,-1.148 4.033,-0.076 m -2.308,4.187 2.597,1.969 -0.78,2.122 -1.095,1.809 -0.451,-0.024 -2.056,0 -1.942,-0.04 0.072,-4.552 0.65,0.757 0.063,0.058 0.135,0.023 0.396,-0.099 0.108,-0.067 0.563,-0.947 0.908,-0.811 0.422,-0.163 0.41,-0.035 m -3.727,5.836 1.942,0.04 2.056,0 0.451,0.024 0,3.059 -0.009,2.118 -1.186,-0.012 -1.05,0.012 -0.005,0.379 -2.213,-0.022 0,-0.567 0.014,-4.841 0,-0.19 m -0.014,5.598 2.213,0.022 0.005,-0.379 1.05,-0.012 1.186,0.012 0.004,3.507 0.202,2.57 -4.42,-0.009 -0.244,-1.74 0.004,-3.971 m 0.24,5.711 4.42,0.009 -0.008,2.081 -1.122,1.335 -3.908,-0.22 0.013,-0.569 0.32,-0.564 0.258,0 0.027,-2.072 m 4.412,2.09 2.195,0.018 0.031,2.273 0.136,-0.005 0.031,3.083 -2.204,0.969 -1.112,0.004 -0.199,-5.007 1.122,-1.335 m 2.393,5.369 1.696,-0.028 0.04,2.835 0.134,0 0.019,2.551 -2.218,0.028 -1.663,-0.181 -0.036,-2.353 -0.152,0 -0.024,-1.883 2.204,-0.969 m -1.992,5.205 1.663,0.181 0.045,3.397 -4.047,0.023 -0.388,0.004 -0.018,-2.275 -2.79,0.031 -0.018,-1.329 5.553,-0.032 m 1.708,3.578 1.483,-0.008 0.059,4.007 -0.844,0.027 -4.542,0.135 -0.199,0.004 -0.004,-4.142 4.047,-0.023 m -3.032,-7.81 1.112,-0.004 0.024,1.883 0.152,0 0.036,2.353 -5.553,0.032 -0.234,-2.385 0,-1.892 4.463,0.013 m -4.211,5.593 2.79,-0.031 0.018,2.275 0.388,-0.004 0.004,4.142 -2.771,0.068 0.004,-4.173 -0.401,0 -0.014,-1.33 -0.018,-0.947 m 0.104,-10.82 3.908,0.22 0.199,5.007 -4.463,-0.013 0.005,-1.889 -0.208,-3.331 0.559,0.006 m -4.714,11.758 4.628,0.009 0.014,1.33 0.401,0 -0.004,4.173 -2.903,0.072 -2.168,0.045 0.032,-5.629 m 4.358,-4.652 0.234,2.385 0.018,1.329 0.018,0.947 -4.628,-0.009 0.009,-1.51 0.004,-3.147 4.345,0.005 m -4.372,7.04 -0.018,3.241 -5.567,0.089 -0.031,-2.189 -0.022,-1.285 5.638,0.144 m -5.689,-3.912 5.712,0.014 -0.023,3.898 -5.638,-0.144 -0.051,-3.768 m 5.397,-3.898 0.319,0.765 -0.004,3.147 -5.712,-0.014 -0.049,-3.66 -0.004,-0.338 5.45,0.1 m 0.009,-3.777 0,0.757 -0.009,3.02 -5.45,-0.1 -0.059,-3.762 5.518,0.085 m 0,0.757 4.66,0.009 -0.005,1.889 0,1.892 -4.345,-0.005 -0.319,-0.765 0.009,-3.02 m 0.053,-5.918 -0.04,1.767 -0.013,3.394 -5.518,-0.085 -0.004,-0.253 -0.031,-4.728 -0.005,-0.303 3.773,0.06 0.401,-0.06 0.676,-0.057 0.761,0.265 m -0.04,1.767 2.6,0.05 -0.013,0.752 1.852,0.027 0.208,3.331 -4.66,-0.009 0,-0.757 0.013,-3.394 m -5.638,-7.4 2.906,0.031 0.581,0.221 0.563,0.058 1.443,-0.009 0.222,3.025 -0.037,2.307 -0.761,-0.265 -0.676,0.057 -0.401,0.06 -3.773,-0.06 -0.054,-4.271 -0.013,-1.154 m 5.715,3.326 5.295,-0.036 0.244,1.74 -0.027,2.072 -0.258,0 -0.32,0.564 -0.013,0.569 -0.559,-0.006 -1.852,-0.027 0.013,-0.752 -2.6,-0.05 0.04,-1.767 0.037,-2.307 m -5.733,-8.131 4.876,0.099 0.617,3.443 0.018,1.564 -1.443,0.009 -0.563,-0.058 -0.581,-0.221 -2.906,-0.031 -0.014,-3.39 -0.004,-1.415 m 11.032,3.557 0,0.567 -0.004,3.971 -5.295,0.036 -0.222,-3.025 -0.018,-1.564 5.539,0.015 m 0.014,-4.841 -0.014,4.841 -5.539,-0.015 -0.617,-3.443 0.027,-1.095 2.771,0.05 0.006,-0.379 3.366,0.041 m -6.107,-2.656 -0.036,2.944 -0.027,1.095 -4.876,-0.099 -0.032,-2.56 -0.014,-0.901 1.388,-0.163 1.001,-0.496 0.292,-0.302 0.132,-0.193 0.05,-0.226 0.076,-0.147 0.059,-0.074 0.116,-0.058 0.343,0.005 0.099,0.036 0.054,0.036 0.289,0.297 1.086,0.806 m 3.421,-0.901 1.036,-0.559 0.663,0.082 1.059,-0.708 -0.072,4.552 0,0.19 -3.366,-0.041 -0.006,0.379 -2.771,-0.05 0.036,-2.944 0.203,0.104 0.14,0.014 0.135,-0.023 0.108,-0.071 0.212,-0.181 -0.019,-0.14 -0.026,-0.049 0.549,-0.443 1.389,-0.202 0.73,0.09 m -0.108,-4.124 0.108,4.124 -0.73,-0.09 -1.389,0.202 -0.549,0.443 0.026,0.049 0.019,0.14 -0.212,0.181 -0.108,0.071 -0.135,0.023 -0.14,-0.014 -0.203,-0.104 -1.086,-0.806 -0.04,-3.218 0,-0.942 4.439,-0.059 m -0.018,-1.131 4.736,-0.177 1.803,2.963 -0.41,0.035 -0.422,0.163 -0.908,0.811 -0.563,0.947 -0.108,0.067 -0.396,0.099 -0.135,-0.023 -0.063,-0.058 -0.65,-0.757 -1.059,0.708 -0.663,-0.082 -1.036,0.559 -0.108,-4.124 -0.018,-1.131 m 3.781,-4.729 0.018,1.141 0.05,2.29 0.965,-0.027 -0.078,1.148 -4.736,0.177 -0.059,-2.25 -0.081,-2.27 3.921,-0.209 m -0.157,-3.879 0.135,3.028 0.022,0.851 -3.921,0.209 -0.072,-2.254 -0.036,-1.703 3.872,-0.131 m -1.961,-4.026 1.78,-0.049 0.144,2.56 0.037,1.515 -3.872,0.131 -0.203,-4.07 2.114,-0.087 m -2.114,0.087 0.203,4.07 0.036,1.703 -4.435,0.051 -0.041,-3.224 -0.22,-2.435 2.109,-0.066 2.348,-0.099 m 0.239,5.773 0.072,2.254 0.081,2.27 -1.29,0.006 -2,0.049 -1.109,-0.019 -0.189,-3.191 0,-1.318 4.435,-0.051 m -4.246,4.56 1.109,0.019 2,-0.049 1.29,-0.006 0.059,2.25 0.018,1.131 -4.439,0.059 -0.028,-2.843 -0.009,-0.561 m -3.822,4.395 3.859,-0.049 0.04,3.218 -0.289,-0.297 -0.054,-0.036 -0.099,-0.036 -0.343,-0.005 -0.116,0.058 -0.059,0.074 -0.076,0.147 -0.05,0.226 -0.132,0.193 -0.292,0.302 -1.001,0.496 -1.388,0.163 0.046,-0.605 -0.046,-3.849 m 3.831,-3.834 0.028,2.843 0,0.942 -3.859,0.049 -0.023,-0.991 -0.049,-2.794 3.903,-0.049 m -0.198,-3.752 0.189,3.191 0.009,0.561 -3.903,0.049 -0.018,-0.943 -0.068,-2.852 3.791,-0.006 m -3.791,-4.511 3.75,-0.031 0.041,3.224 0,1.318 -3.791,0.006 -0.021,-1.132 0.021,-3.385 m -3.114,-2.406 2.755,0.014 0.359,2.392 -0.021,3.385 -4.282,0 -0.118,-0.094 -0.058,-0.098 -0.131,-0.651 0.05,-0.397 0.026,-0.049 -0.208,-0.402 -0.927,-0.003 0.017,-1.6 -0.013,-1.227 -0.234,0 -0.018,-1.288 2.803,0.018 m 3.093,5.791 0.021,1.132 0.068,2.852 -3.029,0.032 -0.825,-1.037 -0.517,-2.979 4.282,0 m 0.089,3.984 0.018,0.943 0.049,2.794 -4.952,0.045 0.391,-1.176 0.117,-0.167 0.339,-0.495 0.04,-0.046 0.712,-0.63 0.208,-0.036 0.207,-0.461 -0.077,-0.356 -0.081,-0.383 3.029,-0.032 m -4.885,3.782 4.952,-0.045 0.023,0.991 0.046,3.849 -1.907,-0.509 -1.776,-2.814 -1.338,-1.472 m -0.852,-9.46 0.927,0.003 0.208,0.402 -0.026,0.049 -0.05,0.397 0.131,0.651 0.058,0.098 0.118,0.094 0.517,2.979 -0.338,0.383 -0.008,0.009 -0.058,0.054 -0.073,0.027 -0.375,0.036 -0.045,0.004 -0.036,-0.013 -0.189,-0.072 -0.243,-0.09 -0.482,-0.31 -1.19,-1.077 -0.063,-0.091 -0.005,-0.121 -2.411,-3.39 0,-0.036 3.633,0.014 m -5.729,-4.169 3.813,0.04 1.668,0.014 0.018,1.288 0.234,0 0.013,1.227 -0.017,1.6 -3.633,-0.014 0.01,-0.234 0,-0.018 0.003,-0.023 -0.026,-0.067 -0.681,-0.663 -0.635,-1.596 -0.054,-0.229 0.112,-0.104 0.212,-0.379 -0.365,-0.324 -0.127,0.275 -0.545,-0.793" />
</svg>
