<?xml version="1.0" encoding="UTF-8" standalone="no"?>
<!-- Created with Inkscape (http://www.inkscape.org/) -->

<svg
   xmlns:dc="http://purl.org/dc/elements/1.1/"
   xmlns:cc="http://creativecommons.org/ns#"
   xmlns:rdf="http://www.w3.org/1999/02/22-rdf-syntax-ns#"
   xmlns:svg="http://www.w3.org/2000/svg"
   xmlns="http://www.w3.org/2000/svg"
   xmlns:sodipodi="http://sodipodi.sourceforge.net/DTD/sodipodi-0.dtd"
   xmlns:inkscape="http://www.inkscape.org/namespaces/inkscape"
   version="1.0"
   width="555.22198"
   height="351.66797"
   id="svg2"
   inkscape:version="0.48.1 r9760"
   sodipodi:docname="westernkansas.svg">
  <metadata
     id="metadata67">
    <rdf:RDF>
      <cc:Work
         rdf:about="">
        <dc:format>image/svg+xml</dc:format>
        <dc:type
           rdf:resource="http://purl.org/dc/dcmitype/StillImage" />
      </cc:Work>
    </rdf:RDF>
  </metadata>
  <defs
     id="defs65" />
  <sodipodi:namedview
     pagecolor="#ffffff"
     bordercolor="#666666"
     borderopacity="1"
     objecttolerance="10"
     gridtolerance="10"
     guidetolerance="10"
     inkscape:pageopacity="0"
     inkscape:pageshadow="2"
     inkscape:window-width="640"
     inkscape:window-height="480"
     id="namedview63"
     showgrid="false"
     inkscape:zoom="0.83029853"
     inkscape:cx="277.61099"
     inkscape:cy="175.83398"
     inkscape:window-x="0"
     inkscape:window-y="25"
     inkscape:window-maximized="0"
     inkscape:current-layer="svg2" />
  <path
     id="20157"
     style="font-size:12px;fill:#0000ff;fill-rule:nonzero;stroke:#000000;stroke-opacity:1;stroke-width:0.1;stroke-miterlimit:4;stroke-dasharray:none;stroke-linecap:butt;marker-start:none;stroke-linejoin:bevel"
     d="m 275.61598,148.92 4.439,0.071 -0.063,4.525 -5.548,-0.099 0.09,-4.521 1.082,0.024 m -4.44,-0.105 3.358,0.081 -0.09,4.521 -0.027,1.132 -5.48,-0.135 -0.181,-0.005 0.158,-5.647 2.262,0.053 m -7.779,-0.216 3.34,0.104 2.177,0.059 -0.158,5.647 -5.318,-0.157 -0.212,-0.01 0.171,-5.643 m -5.508,-0.189 0.023,0 -0.235,5.644 -5.264,-0.213 -0.184,-0.004 0.27,-5.643 5.39,0.216 m 4.409,0.158 1.099,0.031 -0.171,5.643 -5.296,-0.177 -0.253,-0.011 0.235,-5.644 4.386,0.158 m -15.297,-0.64 5.345,0.256 0.153,0.01 -0.27,5.643 -5.328,-0.268 -0.203,-0.008 0.303,-5.633 m -6.59,-0.356 0.852,0.045 5.543,0.297 0.195,0.014 -0.303,5.633 -6.391,-0.342 -0.243,-0.013 0.347,-5.634 m -0.45,11.268 0.346,-5.621 6.391,0.342 0.203,0.008 -0.288,5.649 -0.902,-0.045 -2.763,-0.144 -1.509,-0.108 -1.478,-0.081 m 6.94,-5.271 5.328,0.268 0.184,0.004 -0.275,5.652 -5.525,-0.275 0.288,-5.649 m 5.237,5.924 0.275,-5.652 5.264,0.213 0.253,0.011 -0.243,5.649 -5.386,-0.217 -0.163,-0.004 m 5.792,-5.428 5.296,0.177 0.212,0.01 -0.081,2.257 -0.077,1.501 -0.059,1.888 -5.399,-0.18 -0.135,-0.004 0.243,-5.649 m 10.862,4.868 -0.032,1.132 -5.435,-0.162 -0.104,-0.005 0.059,-1.888 0.077,-1.501 0.081,-2.257 5.318,0.157 0.181,0.005 -0.145,4.519 m 5.625,-4.384 -0.045,3.389 -0.027,1.131 -5.553,-0.136 0.145,-4.519 5.48,0.135 m 0,0 0.027,-1.132 5.548,0.099 -0.013,1.131 -0.059,3.39 -5.548,-0.099 0.045,-3.389 m -0.045,3.389 5.548,0.099 -0.049,2.263 -0.036,2.262 -5.549,-0.099 0.059,-3.394 0.027,-1.131 m -0.027,1.131 -0.059,3.394 -0.022,1.131 -5.54,-0.126 0.036,-3.403 0.032,-1.132 5.553,0.136 m -11.02,0.834 5.435,0.162 -0.036,3.403 -0.071,2.258 -5.463,-0.153 -0.1,-0.005 0.235,-5.665 m -5.503,-0.185 5.399,0.18 0.104,0.005 -0.235,5.665 -5.417,-0.184 -0.135,-0.005 0.284,-5.661 m -5.521,-0.221 5.386,0.217 0.135,0.004 -0.284,5.661 -5.544,-0.239 0.307,-5.643 m -5.688,-0.279 5.525,0.275 0.163,0.004 -0.307,5.643 -0.933,-0.049 -4.399,-0.235 -1.302,-0.063 0.351,-5.62 0.902,0.045 m -6.652,-0.378 1.478,0.081 1.509,0.108 2.763,0.144 -0.351,5.62 -3.092,-0.171 -3.552,-0.19 0.388,-5.638 0.857,0.046 m -1.245,5.592 3.552,0.19 -0.275,5.665 -4.187,-0.221 -0.252,-0.012 0.333,-5.662 0.829,0.04 m 3.552,0.19 3.092,0.171 1.302,0.063 -0.243,5.66 -4.205,-0.219 -0.221,-0.01 0.275,-5.665 m 4.394,0.234 4.399,0.235 -0.221,5.661 -4.421,-0.236 0.243,-5.66 m 4.399,0.235 0.933,0.049 5.544,0.239 0.135,0.005 -0.166,4.506 -0.037,1.136 -6.459,-0.265 -0.171,-0.009 0.221,-5.661 m 6.612,0.293 5.417,0.184 0.1,0.005 -0.14,4.526 -5.543,-0.209 0.166,-4.506 m 10.98,0.342 -0.005,2.281 -0.081,3.393 -4.35,-0.126 -1.167,-1.175 0.14,-4.526 5.463,0.153 m 0.071,-2.258 5.54,0.126 -0.028,3.399 -0.017,1.131 -5.571,-0.117 0.005,-2.281 0.071,-2.258 m 11.111,-0.906 -0.068,4.53 -5.531,-0.099 0.028,-3.399 0.022,-1.131 5.549,0.099 m -11.187,5.445 5.571,0.117 -0.072,4.539 -5.54,-0.118 -0.04,-1.145 0.081,-3.393 m 11.119,-0.915 -0.081,5.666 -3.322,-0.055 -2.217,-0.04 0.089,-5.67 5.531,0.099 m -22.26,2.798 5.543,0.209 1.167,1.175 -0.112,3.385 -1.096,-0.036 -3.308,-0.112 0.036,-1.131 -2.204,-0.077 -0.063,-2.277 0.037,-1.136 m -0.037,1.136 0.063,2.277 -0.089,2.266 -6.635,-0.287 0.059,-1.127 0.143,-3.394 6.459,0.265 m -11.051,-0.51 4.421,0.236 0.171,0.009 -0.143,3.394 -4.413,-0.23 -0.117,2.253 0.072,1.212 -4.426,-0.23 -0.077,-1.208 0.203,-3.487 0.104,-2.168 4.205,0.219 m -8.613,-0.45 4.187,0.221 0.221,0.01 -0.104,2.168 -0.203,3.487 0.077,1.208 -4.421,-0.243 0.067,-1.185 -0.036,-1.897 0.212,-3.769 m 26.411,1.208 4.35,0.126 0.04,1.145 -0.112,4.525 -5.472,-0.166 -0.014,-2.281 1.096,0.036 0.112,-3.385 m -30.08,-24.091 6.274,0.389 -0.347,5.634 -6.269,-0.38 0.004,-0.075 0.338,-5.568 m -0.342,5.643 6.269,0.38 0.243,0.013 -0.346,5.621 -0.857,-0.046 -5.643,-0.32 0.334,-5.648 m 5.309,5.968 -0.388,5.638 -0.829,-0.04 -4.764,-0.265 0.275,-4.534 0.063,-1.119 5.643,0.32 m -5.981,5.333 4.764,0.265 -0.333,5.662 -4.787,-0.285 0.284,-4.575 0.072,-1.067 m -0.356,5.642 4.787,0.285 0.252,0.012 -0.212,3.769 0.036,1.897 -0.067,1.185 -5.202,-0.347 0.406,-6.801 m 41.38,2.894 2.217,0.04 -0.063,3.39 -1.113,2.306 -6.648,-0.134 -0.045,-1.195 0.112,-4.525 5.54,0.118 m -5.607,5.602 6.648,0.134 -0.059,3.376 -0.018,1.142 -5.521,-0.091 -1.14,-1.163 0.09,-3.398 m 1.05,4.561 5.521,0.091 -0.045,5.038 -3.169,-0.059 -2.402,-0.053 0.095,-5.017 m -6.702,-1.312 5.562,0.149 1.14,1.163 -0.095,5.017 -2.023,-0.064 -4.66,-0.144 0.049,-5.003 0.027,-1.118 m 5.607,-4.444 0.045,1.195 -0.09,3.398 -5.562,-0.149 0.095,-3.411 0.04,-1.199 5.472,0.166 m -10.962,-3.767 2.204,0.077 -0.036,1.131 3.308,0.112 0.014,2.281 -0.04,1.199 -5.521,-0.216 -0.018,-2.318 0.089,-2.266 m -0.071,4.584 5.521,0.216 -0.095,3.411 -0.027,1.118 -5.409,-0.144 -0.085,-1.132 0.095,-3.469 m 5.399,4.745 -0.049,5.003 -4.652,-0.158 -0.87,-0.032 0.162,-4.957 5.409,0.144 m -5.494,-1.276 0.085,1.132 -0.162,4.957 -4.715,-0.216 -0.887,-0.041 0.086,-6.146 5.593,0.314 m -6.558,-6.074 6.635,0.287 0.018,2.318 -0.095,3.469 -5.593,-0.314 -1.105,-0.059 0.14,-5.701 m 0,0 -0.14,5.701 -4.435,-0.199 0.176,-3.394 -0.072,-1.212 0.117,-2.253 4.413,0.23 -0.059,1.127 m -0.14,5.701 1.105,0.059 -0.086,6.146 -5.557,-0.229 0.049,-5.039 0.054,-1.136 4.435,0.199 m -4.489,0.937 -0.049,5.039 -3.187,-0.135 -1.239,-0.063 0.256,-5.062 4.219,0.221 m 0.23,-4.53 -0.176,3.394 -0.054,1.136 -4.219,-0.221 -0.22,-0.014 0.243,-4.525 4.426,0.23 m -8.847,-0.473 4.421,0.243 -0.243,4.525 -4.426,-0.256 0.248,-4.512 m -0.564,4.494 0.316,0.018 4.426,0.256 0.22,0.014 -0.256,5.062 -4.99,-0.248 0.284,-5.102 m -4.926,-0.312 4.926,0.312 -0.284,5.102 -4.827,-0.266 -0.144,-0.009 0.329,-5.139 m 0.288,-4.529 5.202,0.347 -0.248,4.512 -0.316,-0.018 -4.926,-0.312 0.216,-3.308 0.072,-1.221" />
</svg>
