<?xml version="1.0" encoding="UTF-8" standalone="no"?>
<!-- Created with Inkscape (http://www.inkscape.org/) -->

<svg
   xmlns:dc="http://purl.org/dc/elements/1.1/"
   xmlns:cc="http://creativecommons.org/ns#"
   xmlns:rdf="http://www.w3.org/1999/02/22-rdf-syntax-ns#"
   xmlns:svg="http://www.w3.org/2000/svg"
   xmlns="http://www.w3.org/2000/svg"
   xmlns:sodipodi="http://sodipodi.sourceforge.net/DTD/sodipodi-0.dtd"
   xmlns:inkscape="http://www.inkscape.org/namespaces/inkscape"
   version="1.0"
   width="555.22198"
   height="351.66797"
   id="svg2"
   inkscape:version="0.48.1 r9760"
   sodipodi:docname="westernmassachusetts.svg">
  <metadata
     id="metadata13">
    <rdf:RDF>
      <cc:Work
         rdf:about="">
        <dc:format>image/svg+xml</dc:format>
        <dc:type
           rdf:resource="http://purl.org/dc/dcmitype/StillImage" />
      </cc:Work>
    </rdf:RDF>
  </metadata>
  <defs
     id="defs11" />
  <sodipodi:namedview
     pagecolor="#ffffff"
     bordercolor="#666666"
     borderopacity="1"
     objecttolerance="10"
     gridtolerance="10"
     guidetolerance="10"
     inkscape:pageopacity="0"
     inkscape:pageshadow="2"
     inkscape:window-width="640"
     inkscape:window-height="480"
     id="namedview9"
     showgrid="false"
     inkscape:zoom="0.83029853"
     inkscape:cx="277.61099"
     inkscape:cy="175.83398"
     inkscape:window-x="0"
     inkscape:window-y="25"
     inkscape:window-maximized="0"
     inkscape:current-layer="svg2" />
  <path
     id="25027"
     style="font-size:12px;fill:#0000ff;fill-rule:nonzero;stroke:#000000;stroke-opacity:1;stroke-width:0.1;stroke-miterlimit:4;stroke-dasharray:none;stroke-linecap:butt;marker-start:none;stroke-linejoin:bevel"
     d="m 518.69698,85.203 0.04,0.09 0.694,0.707 0.465,-0.108 0.15,-0.135 0.751,0.094 0.369,0.045 1.375,0.559 0.145,0.267 0.067,0.703 0.036,0.72 -0.112,0.366 -0.289,0.568 0.64,1.613 0.252,0.235 0.298,0.098 0.802,0.127 0.274,1.798 -2.749,0.843 -0.063,-0.189 -2.406,0.572 -0.397,0.082 -0.315,0.062 -0.415,-1.654 -0.604,0.162 -0.658,-0.139 -0.044,-0.163 0.004,-0.098 0.238,-0.609 -1.175,-1.014 -0.167,-0.663 -0.054,-1.104 0.112,-0.671 -0.197,-1.073 -0.614,-1.321 3.271,-0.708 0.276,-0.062 m -5.17,1.117 1.623,-0.347 0.614,1.321 0.197,1.073 -0.112,0.671 0.054,1.104 0.167,0.663 -0.803,-0.825 -1.096,0.099 -0.476,0.207 -1.616,0.077 -1.571,-0.04 -1.187,-0.667 -1.009,-2.223 0.857,-0.18 4.358,-0.933 m 3.718,5.499 -0.238,0.609 -0.004,0.098 0.044,0.163 0.658,0.139 0.604,-0.162 0.415,1.654 -3.466,0.821 -4.633,1.095 -0.415,0.094 -0.352,-0.635 -0.045,-0.117 -0.108,-0.573 0.352,-0.022 -0.028,-1.429 -0.18,-0.775 0.334,-0.505 0.544,-0.09 0.123,0.077 0.252,0.838 -0.144,0.27 0.392,0.199 0.874,0.131 0.925,-0.014 0.77,-0.572 1.681,-0.695 1.645,-0.599 m -1.175,-1.014 1.175,1.014 -1.645,0.599 -1.681,0.695 -0.77,0.572 -0.925,0.014 -0.874,-0.131 -0.392,-0.199 0.144,-0.27 -0.252,-0.838 -0.123,-0.077 -0.544,0.09 -0.334,0.505 -0.031,0.108 -0.203,0.009 -0.392,-0.18 -0.212,-0.64 0,-0.113 0.527,-0.009 -0.04,-1.149 -0.063,-0.965 -0.114,-0.184 1.187,0.667 1.571,0.04 1.616,-0.077 0.476,-0.207 1.096,-0.099 0.803,0.825 m -9.993,-2.889 2.235,-0.483 1.009,2.223 0.114,0.184 0.063,0.965 0.04,1.149 -0.527,0.009 0,0.113 0.212,0.64 0.392,0.18 0.203,-0.009 0.031,-0.108 0.18,0.775 0.028,1.429 -0.352,0.022 0.108,0.573 0.045,0.117 0.352,0.635 -4.052,0.857 -0.09,0.022 -0.216,-0.437 0.142,-5.688 0.083,-3.168" />
</svg>
