<?xml version="1.0" encoding="UTF-8" standalone="no"?>
<!-- Created with Inkscape (http://www.inkscape.org/) -->

<svg
   xmlns:dc="http://purl.org/dc/elements/1.1/"
   xmlns:cc="http://creativecommons.org/ns#"
   xmlns:rdf="http://www.w3.org/1999/02/22-rdf-syntax-ns#"
   xmlns:svg="http://www.w3.org/2000/svg"
   xmlns="http://www.w3.org/2000/svg"
   xmlns:sodipodi="http://sodipodi.sourceforge.net/DTD/sodipodi-0.dtd"
   xmlns:inkscape="http://www.inkscape.org/namespaces/inkscape"
   version="1.0"
   width="555.22198"
   height="351.66797"
   id="svg2"
   inkscape:version="0.48.1 r9760"
   sodipodi:docname="westtennessee.svg">
  <metadata
     id="metadata29">
    <rdf:RDF>
      <cc:Work
         rdf:about="">
        <dc:format>image/svg+xml</dc:format>
        <dc:type
           rdf:resource="http://purl.org/dc/dcmitype/StillImage" />
      </cc:Work>
    </rdf:RDF>
  </metadata>
  <defs
     id="defs27" />
  <sodipodi:namedview
     pagecolor="#ffffff"
     bordercolor="#666666"
     borderopacity="1"
     objecttolerance="10"
     gridtolerance="10"
     guidetolerance="10"
     inkscape:pageopacity="0"
     inkscape:pageshadow="2"
     inkscape:window-width="640"
     inkscape:window-height="480"
     id="namedview25"
     showgrid="false"
     inkscape:zoom="0.83029853"
     inkscape:cx="277.61099"
     inkscape:cy="175.83398"
     inkscape:window-x="0"
     inkscape:window-y="25"
     inkscape:window-maximized="0"
     inkscape:current-layer="svg2" />
  <path
     id="47071"
     style="font-size:12px;fill:#0000ff;fill-rule:nonzero;stroke:#000000;stroke-opacity:1;stroke-width:0.1;stroke-miterlimit:4;stroke-dasharray:none;stroke-linecap:butt;marker-start:none;stroke-linejoin:bevel"
     d="m 373.17598,205.446 1.235,-0.158 2.289,0.218 0.019,0.22 0.171,0.853 0.472,1.631 0.177,2.254 -2.241,0.324 -1.712,0.141 -0.176,0.012 -0.216,-5.003 -0.018,-0.492 m 1.446,-5.679 2.177,0.213 -0.332,0.951 -0.168,0.585 0.145,3.282 0.099,0.176 0.077,0.089 0.072,0.036 0.153,-0.012 -0.145,0.419 -2.289,-0.218 -0.067,0.006 -0.06,-1.366 0.461,-1.085 -0.104,-2.697 -0.019,-0.379 m 1.381,-6.828 0.099,0.086 0.446,1.402 0.432,1.005 0.158,3.024 0,0.248 -0.068,0.545 -0.048,0.145 -0.168,0.252 -0.055,0.334 -2.177,-0.213 -0.647,-3.523 0.35,-0.437 0.808,-1.398 -0.226,-0.726 -0.023,-0.203 0.041,-0.428 0.014,-0.018 1.064,-0.095 m -5.274,-1.397 4.475,-0.311 0.799,1.708 -1.064,0.095 -0.014,0.018 -0.041,0.428 0.023,0.203 0.226,0.726 -0.808,1.398 -0.35,0.437 -3.31,-0.127 -0.215,-4.557 0.279,-0.018 m 3.912,8.604 0.104,2.697 -0.461,1.085 0.06,1.366 0.067,-0.006 -1.235,0.158 -2.803,-1.982 -0.131,-2.61 0.059,-0.167 0.135,-0.175 0.154,-0.145 4.051,-0.221 m -19.443,7.085 0.492,-0.238 3.452,-0.393 0.071,0.01 0.55,0.23 0.203,0.144 0.045,1.515 0.104,1.685 0.063,1.736 -0.838,0.062 -6.13,0.375 -0.018,-0.18 0.126,-0.402 1.05,-0.346 1.105,-0.849 0.157,-0.193 0.019,-0.029 0.004,-0.008 0,-0.012 0.004,-0.014 -0.419,-2.957 -0.04,-0.136 m 5.945,-2.991 0.455,2.279 -1.632,0.465 -0.203,-0.144 -0.55,-0.23 -0.071,-0.01 -3.452,0.393 -0.492,0.238 -0.699,-0.688 2.447,-1.47 0.185,-0.433 0.199,-0.239 0.536,-0.495 0.244,-0.181 0.311,-0.112 1.432,-0.144 0.834,0.446 0.456,0.325 m -2.204,-4.066 0.508,-0.13 1.489,-0.57 0.865,-0.044 0.514,0.464 0.086,0.109 0.129,0.229 -0.081,0.834 -0.477,-0.036 -0.28,0.595 -0.058,0.225 0.009,0.176 0.131,0 0.004,0.095 -0.311,1.906 -0.243,0.176 -0.081,0.037 -0.456,-0.325 -0.834,-0.446 -1.432,0.144 -0.311,0.112 -0.244,0.181 -0.536,0.495 -0.199,0.239 -0.185,0.433 0.285,-2.731 0.91,-1.943 0.066,-0.058 0.034,-0.023 0.225,-0.117 0.188,-0.032 0.285,0.005 m 1.848,-4.138 3.389,-0.135 -0.163,2.682 -1.483,1.649 -0.129,-0.229 -0.086,-0.109 -0.514,-0.464 -0.865,0.044 -1.489,0.57 -0.508,0.13 -0.551,-1.217 0.91,-2.466 1.489,-0.455 m 1.144,-3.862 -1.144,3.862 -1.489,0.455 0.736,-2.019 -0.082,-2.096 0.555,-0.03 0.698,-0.069 0.726,-0.103 m 5.251,-0.379 0.077,-0.004 0.166,0.41 0.036,0.775 -0.699,0.284 -0.157,-0.018 -0.145,-0.14 -0.148,-0.036 -0.193,-0.009 -0.033,0.041 0.082,2.42 -1.992,0.383 -3.389,0.135 1.144,-3.862 5.251,-0.379 m 0.189,-0.013 3.079,-0.222 0.215,4.557 -1.586,1.267 -0.757,-0.55 -0.924,-0.271 -0.081,0.019 -0.077,-0.037 -0.77,-0.681 -0.302,-0.346 -0.082,-2.42 0.033,-0.041 0.193,0.009 0.148,0.036 0.145,0.14 0.157,0.018 0.699,-0.284 -0.036,-0.775 -0.166,-0.41 0.112,-0.009 m 3.294,4.335 3.31,0.127 0.647,3.523 0.019,0.379 -4.051,0.221 -0.154,0.145 -0.135,0.175 -0.059,0.167 -1.042,0.059 -0.121,-3.529 1.586,-1.267 m -6.489,-0.216 1.992,-0.383 0.302,0.346 0.77,0.681 0.077,0.037 0.081,-0.019 0.924,0.271 0.757,0.55 0.121,3.529 -2.17,0.086 -0.682,-0.384 -1.346,-0.31 -0.2,-0.397 -0.104,-0.258 -0.107,-0.697 -0.578,-0.37 0.163,-2.682 m -0.163,2.682 0.578,0.37 0.107,0.697 0.104,0.258 0.2,0.397 1.346,0.31 0.682,0.384 -1.493,1.469 -0.789,-0.301 -1.113,-0.348 -0.217,-0.005 -0.444,-0.208 -0.259,-0.188 -0.113,-0.117 -0.149,-0.19 -0.004,-0.045 0.081,-0.834 1.483,-1.649 m 6.229,2.271 0.131,2.61 -2.213,2.259 -2.474,0.139 -0.149,-3.394 1.493,-1.469 2.17,-0.086 1.042,-0.059 m -7.793,0.212 0.004,0.045 0.149,0.19 0.113,0.117 0.259,0.188 0.444,0.208 0.217,0.005 1.113,0.348 0.789,0.301 0.149,3.394 -1.059,0.523 -3.029,0.134 -0.455,-2.279 0.081,-0.037 0.243,-0.176 0.311,-1.906 -0.004,-0.095 -0.131,0 -0.009,-0.176 0.058,-0.225 0.28,-0.595 0.477,0.036 m -0.851,5.453 3.029,-0.134 0.225,5.223 -1.618,0.114 -3.056,0.198 -0.063,-1.736 -0.104,-1.685 -0.045,-1.515 1.632,-0.465 m 4.088,-0.657 2.474,-0.139 0.039,0.562 0.546,0.758 0.217,0.965 0.199,3.271 -0.383,0.032 -2.034,0.158 -1.892,0.139 -0.225,-5.223 1.059,-0.523 m 4.687,-2.398 2.803,1.982 0.018,0.492 -1.6,0.072 -0.577,0.09 -0.193,0.082 -0.505,0.252 -0.266,0.347 -0.19,0.343 -0.117,0.496 -0.784,0.388 -0.217,-0.965 -0.546,-0.758 -0.039,-0.562 2.213,-2.259 m 2.821,2.474 0.216,5.003 -4.249,0.338 -0.199,-3.271 0.784,-0.388 0.117,-0.496 0.19,-0.343 0.266,-0.347 0.505,-0.252 0.193,-0.082 0.577,-0.09 1.6,-0.072" />
</svg>
